<svg xmlns="http://www.w3.org/2000/svg" xmlns:xlink="http://www.w3.org/1999/xlink" style="enable-background:new 0 0 683 755" id="Layer_1" x="0" y="0" version="1.1" viewBox="0 0 683 755" xml:space="preserve"><style type="text/css">.st0{fill:#fff}.st1{fill:none}.st2{clip-path:url(#SVGID_2_)}.st2,.st3,.st4{fill:#232323}.st4{clip-path:url(#SVGID_4_)}.st5{fill:#f1c518;stroke:#232323;stroke-width:7.112;stroke-linecap:round;stroke-linejoin:round;stroke-miterlimit:10}.st6{fill:#d39629}.st7{fill:#d6984e;stroke:#232323;stroke-width:7.112;stroke-linecap:round;stroke-linejoin:round;stroke-miterlimit:10}.st8{fill:#b7804d}.st9{fill:#fff;stroke:#232323;stroke-width:7.112;stroke-linecap:round;stroke-linejoin:round;stroke-miterlimit:10}.st10{fill:#c0cecd}.st11{fill:#d6984e;stroke-width:10.198}.st11,.st12,.st13,.st14,.st15{stroke:#232323;stroke-linecap:round;stroke-linejoin:round;stroke-miterlimit:10}.st12{fill:#1d1d1d;stroke-width:7.112}.st13,.st14{fill:#fff;stroke-width:10.198}.st14{fill:#e56c6c}.st15{fill:#d6984e;stroke-width:8.2557}.st16{fill:#c75f5f}.st17{fill:#e0b07f}.st18,.st19{fill:none;stroke:#232323;stroke-width:10.198;stroke-linecap:round;stroke-linejoin:round;stroke-miterlimit:10}.st19{fill:#cb3231;stroke-width:7.112}.st20{fill:#181718}.st21{fill:#1d1d1d}.st22{fill:#e48283}.st23,.st24{fill:#fff;stroke:#232323;stroke-width:8.2557;stroke-linecap:round;stroke-linejoin:round;stroke-miterlimit:10}.st24{fill:none;stroke-width:4.5287}</style><g><path d="M-681.1,836.7c0,8.9-7.3,16.2-16.2,16.2h-176.9c-8.9,0-16.2-7.3-16.2-16.2v-157c0-8.9,7.3-16.2,16.2-16.2 h176.9c8.9,0,16.2,7.3,16.2,16.2V836.7z" class="st0"/></g><path d="M-692.6,715.3c0,8.9-7.3,16.2-16.2,16.2h-143.8c-8.9,0-16.2-7.3-16.2-16.2v-202c0-8.9,7.3-16.2,16.2-16.2h143.8	c8.9,0,16.2,7.3,16.2,16.2V715.3z" class="st1"/><g><g><g><g><defs><path id="SVGID_1_" d="M186.7,292.2L213,216c0,0,20.9-60.4,85.7-37.4c59.3,21,67.6-2.8,95.4-6.9c38.3-5.6,60.4,10.5,67.6,38.3 c7.2,27.8,24.9,81.6,24.9,81.6l23.6,2.5c1-10.7,19.5-178.5-172.4-159.5c-14.9-2-177-28.4-169.1,159.5L186.7,292.2z"/></defs><use style="overflow:visible;fill:#232323" xlink:href="#SVGID_1_"/><clipPath id="SVGID_2_"><use style="overflow:visible" xlink:href="#SVGID_1_"/></clipPath><path d="M168.8,307.9c-3.3,0-6.5-1.2-9.1-3.4c-2.9-2.5-4.6-6.1-4.8-9.9c-2.5-59,11-104.3,40-134.6 c33.1-34.5,78.7-41.7,111.3-41.7c15.1,0,27,1.6,32,2.3c10-0.9,19.6-1.4,28.8-1.4c52.5,0,93,15.2,120.3,45.3 c41.4,45.6,38.6,111.3,36.8,130.4c-0.4,3.7-2.2,7.3-5,9.6c-2.5,2.1-5.7,3.3-9,3.3c-0.4,0-0.9,0-1.3-0.1l-23.5-2.5 c-5.4-0.6-10-4.3-11.7-9.5c-0.7-2.2-17.9-54.6-25.2-82.5c-5.1-19.5-18.1-29-39.8-29c-3.9,0-8.1,0.3-12.4,1 c-6.3,0.9-11.6,3.3-17.7,6.1c-9.9,4.5-21.1,9.5-38.4,9.5c-13.2,0-28.2-3.1-45.9-9.3c-8.3-2.9-16.1-4.4-23.2-4.4 c-32.5,0-44.4,32-44.9,33.4l-26.3,76.2c-1.8,5.1-6.3,8.7-11.7,9.3l-17.9,1.8C169.7,307.9,169.2,307.9,168.8,307.9z" class="st2"/></g></g><g><g><g><path d="M340.6,679.1c-64.7,0-115.5-32.5-115.5-73.9c0-41.4,50.7-73.8,115.5-73.8c64.8,0,115.5,32.4,115.5,73.8 C456.1,646.7,405.3,679.1,340.6,679.1z" class="st3"/><path d="M340.6,651.4c-64.7,0-115.5-32.4-115.5-73.8c0-41.4,50.7-73.9,115.5-73.9c64.8,0,115.5,32.4,115.5,73.9 C456.1,619,405.3,651.4,340.6,651.4z" class="st3"/><g><path d="M187.8,253.8c-1.4,0-2.9-0.2-4.4-0.7C101.3,225.8,79.9,126.3,87.2,81.6c4-25,16.5-28.7,23.6-28.7 c15.3,0,23.8,18,26.6,23.9c29.8,63.2,98.6,65.9,99.3,65.9c4.9,0.1,9.3,2.8,11.7,7.1c2.4,4.3,2.3,9.5-0.1,13.7l-48.4,83.4 C197.3,251.2,192.6,253.8,187.8,253.8z" class="st3"/><path d="M160.6,406.9c-27.4,0-49.7-26.9-49.7-60c0-33.1,22.3-59.9,49.7-59.9c27.4,0,49.7,26.9,49.7,59.9 C210.3,380,188,406.9,160.6,406.9z" class="st3"/><path d="M522.9,406.9c-27.4,0-49.7-26.9-49.7-60c0-33.1,22.3-59.9,49.7-59.9c27.4,0,49.7,26.9,49.7,59.9 C572.5,380,550.3,406.9,522.9,406.9z" class="st3"/><path d="M495.9,253.8c-4.8,0-9.4-2.5-12-6.9l-48.4-83.4c-2.5-4.2-2.5-9.4-0.1-13.7c2.4-4.3,6.8-7,11.7-7.1 c2.8-0.1,69.7-3.1,99.3-65.9c2.8-5.9,11.3-23.9,26.6-23.9c7.1,0,19.5,3.7,23.6,28.7c7.2,44.7-14.1,144.3-96.3,171.5 C498.8,253.5,497.4,253.8,495.9,253.8z" class="st3"/><path d="M338.2,608.3c-114.4,0-204.1-97.1-204.1-221c0-1.2,0.2-2.4,0.5-3.6l48.2-178.6 c12.1-53.7,71.2-86.1,158-86.1c87.8,0,150.5,33,160.1,84.1l1.5,5.5L542,384.3c0.2,1,0.3,2,0.3,3.1 C542.3,511.3,452.7,608.3,338.2,608.3z" class="st3"/><path d="M169.1,301c-3.3,0-6.5-1.2-9.1-3.4c-2.9-2.5-4.6-6.1-4.8-9.9c-2.5-59,11-104.3,40-134.6 c33-34.4,78.7-41.7,111.2-41.7c15.1,0,27,1.6,32,2.3c9.9-0.9,19.6-1.4,28.8-1.4c52.5,0,92.9,15.2,120.2,45.3 c40.2,44.2,39.2,105.9,36.9,130.4c-0.4,3.7-2.2,7.3-5,9.7c-2.5,2.1-5.7,3.4-9,3.4c-0.4,0-0.8,0-1.3-0.1l-23.6-2.5 c-5.4-0.6-10-4.3-11.7-9.5c-0.7-2.2-17.9-54.6-25.2-82.5c-5.1-19.5-18.1-29-39.8-29c-3.9,0-8.1,0.3-12.4,1 c-6.3,0.9-11.6,3.3-17.7,6.1c-9.9,4.5-21.1,9.5-38.4,9.5c-13.2,0-28.2-3.1-45.9-9.3c-8.3-2.9-16.1-4.4-23.2-4.4 c-32.9,0-44.8,33-44.9,33.3l-26.3,76.2c-1.8,5.1-6.3,8.7-11.7,9.3l-17.9,1.8C170,300.9,169.6,301,169.1,301z" class="st3"/><path d="M184.4,577.4c-4,0-7.8-1.7-10.5-4.8c-4-4.6-4.5-11.2-1.3-16.4c25.6-41,18.2-61.1,10.7-66.1 c-5.9-3.3-8.2-10.2-5.9-16.6c25-69.5,94.9-71.5,102.8-71.5c0.1,0,0.8,0,1,0c6.4,0.2,11.9,4.8,13.2,11.1 c17.3,85.3-60.8,144-104.5,163.1C188.2,577,186.3,577.4,184.4,577.4z" class="st3"/><path d="M497.9,577.4c-1.9,0-3.8-0.4-5.5-1.2c-43.7-19.1-121.9-77.8-104.5-163.1c1.3-6.3,6.8-10.9,13.2-11.1 c0.1,0,0.8,0,1,0c7.9,0,77.8,2,102.8,71.5c2.3,6.4-0.4,13.5-6.3,16.8c-0.5,0.4-20.8,14.6,11.1,65.8c3.2,5.1,2.7,11.8-1.3,16.4 C505.7,575.7,501.8,577.4,497.9,577.4z" class="st3"/><path d="M231.7,498.7c-122.2,0-152-121-152.2-122.3c-1.4-6,1.4-12.2,6.8-15.2c2.1-1.2,4.4-1.8,6.7-1.8 c3.6,0,7.1,1.4,9.8,4.1c9.5,9.5,26.1,14.3,49.3,14.3h0c56.9,0,130.8-29.3,139.1-32.6l0.7-0.3c1.8-0.8,3.7-1.2,5.6-1.2 c2.4,0,4.8,0.6,6.9,1.8c3.8,2.2,6.4,6,6.9,10.4l13.4,111.9c0.8,6.4-3,12.5-9.1,14.7C285.6,493.3,257.4,498.7,231.7,498.7 L231.7,498.7z" class="st3"/><path d="M449.8,498.7c-25.7,0-53.9-5.5-83.8-16.2c-6.1-2.2-9.8-8.3-9.1-14.7L370.3,356c0.5-4.4,3.1-8.2,7-10.4 c2.1-1.2,4.4-1.8,6.8-1.8c1.9,0,3.9,0.4,5.7,1.2c8.8,3.6,82.8,32.8,139.7,32.8c23.2,0,39.8-4.8,49.3-14.3 c2.7-2.7,6.2-4.1,9.8-4.1c2.3,0,4.6,0.6,6.7,1.8c5.4,3,8.2,9.2,6.8,15.2C601.8,377.7,572,498.7,449.8,498.7z" class="st3"/></g><path d="M343.9,702.4c-21.7,0-39.3-17.7-39.3-39.3c0-21.7,17.6-39.3,39.3-39.3c21.7,0,39.3,17.6,39.3,39.3 C383.2,684.7,365.5,702.4,343.9,702.4z" class="st3"/></g></g></g><g><g><defs><path id="SVGID_3_" d="M186.7,292.2L213,216c0,0,20.9-60.4,85.7-37.4c59.3,21,67.6-2.8,95.4-6.9c38.3-5.6,60.4,10.5,67.6,38.3 c7.2,27.8,24.9,81.6,24.9,81.6l23.6,2.5c1-10.7,19.5-178.5-172.4-159.5c-14.9-2-177-28.4-169.1,159.5L186.7,292.2z"/></defs><use style="overflow:visible;fill:#232323" xlink:href="#SVGID_3_"/><clipPath id="SVGID_4_"><use style="overflow:visible" xlink:href="#SVGID_3_"/></clipPath><path d="M168.8,307.9c-3.3,0-6.5-1.2-9.1-3.4c-2.9-2.5-4.6-6.1-4.8-9.9c-2.5-59,11-104.3,40-134.6 c33.1-34.5,78.7-41.7,111.3-41.7c15.1,0,27,1.6,32,2.3c10-0.9,19.6-1.4,28.8-1.4c52.5,0,93,15.2,120.3,45.3 c41.4,45.6,38.6,111.3,36.8,130.4c-0.4,3.7-2.2,7.3-5,9.6c-2.5,2.1-5.7,3.3-9,3.3c-0.4,0-0.9,0-1.3-0.1l-23.5-2.5 c-5.4-0.6-10-4.3-11.7-9.5c-0.7-2.2-17.9-54.6-25.2-82.5c-5.1-19.5-18.1-29-39.8-29c-3.9,0-8.1,0.3-12.4,1 c-6.3,0.9-11.6,3.3-17.7,6.1c-9.9,4.5-21.1,9.5-38.4,9.5c-13.2,0-28.2-3.1-45.9-9.3c-8.3-2.9-16.1-4.4-23.2-4.4 c-32.5,0-44.4,32-44.9,33.4l-26.3,76.2c-1.8,5.1-6.3,8.7-11.7,9.3l-17.9,1.8C169.7,307.9,169.2,307.9,168.8,307.9z" class="st4"/></g></g></g><g><g><g><defs><path id="SVGID_5_" d="M186.7,288.9l26.3-76.2c0,0,20.9-60.4,85.7-37.4c59.3,21,67.6-2.8,95.4-6.9 c38.3-5.6,60.4,10.5,67.6,38.3c7.2,27.8,24.9,81.6,24.9,81.6l23.6,2.5c1-10.8,19.5-178.5-172.4-159.5 c-14.8-2-177-28.4-169.1,159.5L186.7,288.9z"/></defs><clipPath id="SVGID_6_"><use style="overflow:visible" xlink:href="#SVGID_5_"/></clipPath></g></g><g><g><g><path d="M442.2,608.9c0,33.1-45.5,60-101.6,60c-56.1,0-101.6-26.9-101.6-60c0-33.1,45.5-60,101.6-60 C396.7,548.9,442.2,575.8,442.2,608.9z" class="st5"/><path d="M440.1,591.3c0,36.3-44.7,65.8-99.8,65.8c-55.1,0-99.8-29.5-99.8-65.8c0-36.3,44.7-65.8,99.8-65.8 C395.4,525.5,440.1,555,440.1,591.3z" class="st6"/><path d="M442.2,581.2c0,33.1-45.5,60-101.6,60c-56.1,0-101.6-26.9-101.6-60c0-33.1,45.5-60,101.6-60 C396.7,521.2,442.2,548.1,442.2,581.2z" class="st7"/><path d="M440.1,557.5c0,37.2-45,67.3-100.5,67.3c-55.5,0-100.5-30.1-100.5-67.3c0-37.1,45-67.3,100.5-67.3 C395,490.2,440.1,520.3,440.1,557.5z" class="st8"/><g><path d="M236.2,160.1c0,0-77.6-2.2-111.5-73.8C91,14.6,74.5,206,187.8,243.5L236.2,160.1z" class="st9"/><path d="M168.6,230c0,0-66.6-37.5-63.8-138.3c0,0,2.2-15.1,6-16.3c0,0-13.9,102.6,60.5,143.3L168.6,230z" class="st10"/><path d="M196.4,350.5c0,25.5-16,46.1-35.8,46.1c-19.8,0-35.8-20.6-35.8-46.1c0-25.5,16-46.1,35.8-46.1 C180.4,304.4,196.4,325.1,196.4,350.5z" class="st7"/><path d="M487,350.5c0,25.5,16,46.1,35.8,46.1c19.8,0,35.8-20.6,35.8-46.1c0-25.5-16-46.1-35.8-46.1 C503.1,304.4,487,325.1,487,350.5z" class="st7"/><path d="M537.4,350.2c0,15.3-8.1,27.6-18,27.6c-9.9,0-18-12.4-18-27.6c0-15.3,8.1-27.6,18-27.6 C529.3,322.6,537.4,335,537.4,350.2z" class="st8"/><path d="M142.6,350.2c0,15.3,8.1,27.6,18,27.6c9.9,0,18-12.4,18-27.6c0-15.3-8.1-27.6-18-27.6 C150.7,322.6,142.6,335,142.6,350.2z" class="st8"/><path d="M447.5,160.1c0,0,77.6-2.2,111.5-73.8c33.8-71.7,50.2,119.7-63,157.3L447.5,160.1z" class="st9"/><path d="M489,215.8l-1.6-6.1c-8.1-45.1-67.7-73.3-146.5-73.3c-78.8,0-133.7,27.6-144.6,75.9l0,0L148,390.9 c0,117.1,85.2,207.2,190.2,207.2c105.1,0,190.2-90.1,190.2-207.2L489,215.8z" class="st11"/><path d="M187,288.9l26.3-76.2c0,0,20.9-60.4,85.7-37.4c59.3,21,67.6-2.8,95.4-6.9c38.3-5.6,60.4,10.5,67.6,38.3 c7.2,27.8,24.9,81.6,24.9,81.6l23.6,2.5c1-10.8,19.5-178.5-172.4-159.5c-14.9-2-177-28.4-169.1,159.5L187,288.9z" class="st12"/><path d="M495.2,487c0,0-20.8,51.3-81.7,82.2l-5.7,9.6c0,0,65.2-24.5,95.4-94.9L495.2,487z" class="st0"/><path d="M340.3,273.5l177.4,17.9c0,0-34.9,92.8-133.5,71.8L340.3,273.5z" class="st13"/><path d="M340.3,273.5l-177.4,17.9c0,0,34.9,92.8,133.5,71.8L340.3,273.5z" class="st13"/><path d="M190.5,481.9c0,0,34.9,19.5-6.1,85.2c0,0,116.2-50.8,96.5-147.6C280.9,419.6,213.6,417.7,190.5,481.9z" class="st9"/><path d="M491.8,481.9c0,0-34.9,19.5,6.1,85.2c0,0-116.2-50.8-96.5-147.6C401.4,419.6,468.7,417.7,491.8,481.9z" class="st9"/><path d="M430.5,454.5c0,145.8-67.4,154.1-91.9,154.1c-27.5,0-91.9-8.3-91.9-154.1H430.5z" class="st14"/><path d="M335.8,271.8c0,0-121.5-31.6-145.4,15.8L335.8,271.8z" class="st12"/><path d="M344.8,273.1c0,0,121.5-31.6,145.4,15.8L344.8,273.1z" class="st12"/><path d="M297.5,361.2c0,0-0.4,0.2-1.1,0.5c-13.8,5.6-156.7,62-203.4,15.2c0,0,37.6,161,217.9,96.2L297.5,361.2z" class="st12"/><path d="M384,361.2c0,0,0.4,0.2,1.1,0.5c13.8,5.6,156.7,62,203.4,15.2c0,0-37.6,161-217.9,96.2L384,361.2z" class="st12"/><path d="M396.9,389.3L396.9,389.3l-56.5-115.8l-56.9,113.8c-0.1,0.3-0.1,0.3,0,0h0h0c-4,11.2-6.3,18.8-6.3,28.6 c0,34.9,28.3,63.8,63.2,63.8c34.9,0,63.1-27.9,63.1-62.8C403.5,406.9,401.1,397.7,396.9,389.3z" class="st15"/><path d="M253.9,492.1c0,0,31-4.1,56.9-13.8c0,0,26.4,14.9,59.9-0.4c0,0,28.4,10.8,51.7,13.2l-2.2,14.9 c0,0-30.3-11.1-49.5-16c0,0-26.9,14.9-59.9,0l-55.1,16.8L253.9,492.1z" class="st16"/><path d="M318.4,420.4c0,5.6-3.6,10.3-8.1,10.3c-4.5,0-8.1-4.6-8.1-10.3c0-5.7,3.6-10.3,8.1-10.3 C314.7,410.1,318.4,414.7,318.4,420.4z" class="st17"/><path d="M142.5,113.9c0,0-11.2,22.5-40.4,16" class="st18"/><path d="M355.2,230c0,8.5-6.9,15.4-15.4,15.4c-8.5,0-15.4-6.9-15.4-15.4c0-8.5,6.9-15.4,15.4-15.4 C348.3,214.6,355.2,221.5,355.2,230z" class="st19"/><path d="M287.3,370.8l-16.2,4.8c0,0-40.4,52.8,13.5,100.5l15.3-4.1C299.9,472.1,248.1,440.3,287.3,370.8z" class="st20"/><path d="M392.7,370l18.5,6.1c0,0,38.7,51.9-15.2,99.6l-15.3-4.5C380.6,471.2,431.9,439.5,392.7,370z" class="st20"/><path d="M174,320.9l-4.1,14.8c0,0,32.4,41.9,83.1,36.4C253,372.1,210,371.2,174,320.9z" class="st8"/><path d="M507.3,319.8l3.1,13.4c0,0-25.7,44.4-81.4,38.9C429.1,372.2,471.4,370.1,507.3,319.8z" class="st8"/><path d="M294.7,350.5c0,0-74.8,17.7-114.7-54l-6.6,0.9c0,0,35.6,77.3,118.3,59.4L294.7,350.5z" class="st10"/><path d="M386.7,351.9c0,0,74,16.2,112.6-55.5l7.8,1.1c0,0-33.9,75.3-118.2,59.9L386.7,351.9z" class="st10"/><path d="M444,493.4c0,0,0.5,27.5,41.1,61.6c0,0-23.9-9.7-53.5-43.5l2.4-18.8L444,493.4z" class="st10"/><path d="M233.5,493.5c0,0,4,27.5-36.6,61.6c0,0,25-12.9,49.9-38.4l-3.2-23.8L233.5,493.5z" class="st10"/><g><defs><path id="SVGID_7_" d="M186.7,288.9l26.3-76.2c0,0,20.9-60.4,85.7-37.4c59.3,21,67.6-2.8,95.4-6.9 c38.3-5.6,60.4,10.5,67.6,38.3c7.2,27.8,24.9,81.6,24.9,81.6l23.6,2.5c1-10.8,19.5-178.5-172.4-159.5 c-14.8-2-177-28.4-169.1,159.5L186.7,288.9z"/></defs><clipPath id="SVGID_8_"><use style="overflow:visible" xlink:href="#SVGID_7_"/></clipPath></g><polygon points="507.5 319.5 523.5 390.5 516.7 390 502.6 326.1" class="st0"/><path d="M340.3,285.6l50.9,104.9c0,0,25.9,41-19.3,74c0,0,27.9-31.5,11.6-70.7 C367.3,354.5,340.3,285.6,340.3,285.6z" class="st0"/><path d="M475.4,267.9L456.1,203c0,0-7-23.9-31.9-29.3c0,0,16.7,4.9,26.5,36.1c8.7,27.8,16.5,54.6,16.5,54.6 L475.4,267.9z" class="st0"/><path d="M578,390.5c0,0-21.3,70.8-87.8,87.4C490.2,477.9,550.3,446.9,578,390.5z" class="st0"/><path d="M415.6,490.2c0,0-10.6,93.8-68.5,111c0,0,64,2.4,75.2-109.9L415.6,490.2z" class="st0"/><path d="M516.6,310.1c0,0,29.4-9.5,37.3,35.3c0,0,4.8,31.2-18.6,42.8c0,0,23-19.1,8.9-52.3 C544.2,335.8,538.9,313.7,516.6,310.1z" class="st0"/><path d="M512.2,231.3c0,0,74.9-39.4,65.8-148.2c0,0-0.5-8.9-5.6-7.6c0,0,11.5,103.8-63,144.5L512.2,231.3z" class="st10"/><path d="M538.3,118.8c0,0,11.2,22.5,40.4,16" class="st18"/><path d="M273.8,316.3c0,5.7-4.6,10.4-10.4,10.4c-5.7,0-10.4-4.7-10.4-10.4c0-5.8,4.6-10.4,10.4-10.4 C269.1,305.9,273.8,310.5,273.8,316.3z" class="st21"/><path d="M423.7,316.3c0,5.7-4.6,10.4-10.4,10.4c-5.7,0-10.4-4.7-10.4-10.4c0-5.8,4.6-10.4,10.4-10.4 C419,305.9,423.7,310.5,423.7,316.3z" class="st21"/><path d="M424.2,142.9c0,0,87,17.2,81.7,142.1l-6.9-0.5C499,284.5,506,177,424.2,142.9z" class="st0"/></g><path d="M425.8,186.2c4.6,4.5,5.5,11,2,14.7c-3.5,3.7-10.1,3.1-14.8-1.4c-4.6-4.4-5.5-11-2-14.7 C414.6,181.2,421.2,181.8,425.8,186.2z" class="st17"/><path d="M441.4,210.3c0.9,3.9-1,7.7-4.1,8.4c-3.1,0.7-6.4-2-7.2-5.9c-0.9-3.9,1-7.7,4.1-8.4 C437.3,203.7,440.6,206.3,441.4,210.3z" class="st17"/><path d="M351,541.6c0.2,21.8-5.4,39.5-12.7,39.7c-7.2,0.1-13.3-17.5-13.5-39.4c-0.3-21.8,5.4-39.5,12.7-39.6 C344.7,502.2,350.8,519.7,351,541.6z" class="st22"/><line x1="337.9" x2="337.9" y1="527.4" y2="555.5" class="st23"/><path d="M369.3,666.7c0,14.1-11.4,25.5-25.5,25.5c-14.1,0-25.5-11.4-25.5-25.5c0-14.1,11.4-25.5,25.5-25.5 C357.9,641.2,369.3,652.6,369.3,666.7z" class="st5"/><line x1="350.6" x2="340.9" y1="675.1" y2="656.1" class="st24"/><line x1="345.8" x2="337.1" y1="666.6" y2="675.2" class="st24"/></g></g></g><g><g><defs><path id="SVGID_9_" d="M186.7,288.9l26.3-76.2c0,0,20.9-60.4,85.7-37.4c59.3,21,67.6-2.8,95.4-6.9 c38.3-5.6,60.4,10.5,67.6,38.3c7.2,27.8,24.9,81.6,24.9,81.6l23.6,2.5c1-10.8,19.5-178.5-172.4-159.5 c-14.8-2-177-28.4-169.1,159.5L186.7,288.9z"/></defs><clipPath id="SVGID_10_"><use style="overflow:visible" xlink:href="#SVGID_9_"/></clipPath></g></g></g></g></svg>