<svg xmlns="http://www.w3.org/2000/svg" xmlns:xlink="http://www.w3.org/1999/xlink" style="enable-background:new 0 0 708 913" id="Layer_1" x="0" y="0" version="1.1" viewBox="0 0 708 913" xml:space="preserve"><style type="text/css">.st0{clip-path:url(#SVGID_2_)}.st1{fill:#e34d25}.st2{fill:#fff}.st3{clip-path:url(#SVGID_4_)}.st3,.st4,.st5{fill:#232323}.st5{clip-path:url(#SVGID_6_)}.st6{fill:#f3c715;stroke:#232323;stroke-width:7.112;stroke-linecap:round;stroke-linejoin:round;stroke-miterlimit:10}.st7{fill:#d59729}.st8{fill:#d7994f;stroke:#232323;stroke-width:7.112;stroke-linecap:round;stroke-linejoin:round;stroke-miterlimit:10}.st9{fill:#b8804d}.st10{fill:#fff;stroke:#232323;stroke-width:7.112;stroke-linecap:round;stroke-linejoin:round;stroke-miterlimit:10}.st11{fill:#c1cfcf}.st12{fill:#d7994f;stroke-width:10.198}.st12,.st13,.st14,.st15,.st16{stroke:#232323;stroke-linecap:round;stroke-linejoin:round;stroke-miterlimit:10}.st13{fill:#1d1d1d;stroke-width:7.112}.st14,.st15{fill:#fff;stroke-width:10.198}.st15{fill:#e56c6c}.st16{fill:#d7994f;stroke-width:8.2557}.st17{fill:#c85f5f}.st18{fill:#e1b080}.st19,.st20{fill:none;stroke:#232323;stroke-width:10.198;stroke-linecap:round;stroke-linejoin:round;stroke-miterlimit:10}.st20{fill:#cc3231;stroke-width:7.112}.st21{fill:#171617}.st22{fill:#1d1d1d}.st23{fill:#e58484}.st24,.st25,.st26{stroke-miterlimit:10}.st24{fill:#fff;stroke:#232323;stroke-width:8.2557;stroke-linecap:round;stroke-linejoin:round}.st25,.st26{fill:none}.st25{stroke:#232323;stroke-width:4.5287;stroke-linecap:round;stroke-linejoin:round}.st26{stroke:#1d1d1d;stroke-width:20.396}</style><g><g><defs><path id="SVGID_1_" d="M675.7,825.1c0,32.3-26.5,58.8-58.8,58.8H96.1c-32.3,0-58.8-26.5-58.8-58.8V93.6 c0-32.3,26.5-58.8,58.8-58.8h520.7c32.3,0,58.8,26.5,58.8,58.8V825.1z"/></defs><clipPath id="SVGID_2_"><use style="overflow:visible" xlink:href="#SVGID_1_"/></clipPath><g class="st0"><path d="M717.2,571.1c0,32.3-26.5,58.8-58.8,58.8H18c-32.3,0-58.8-26.5-58.8-58.8V2.7c0-32.3,26.5-58.8,58.8-58.8 h640.5c32.3,0,58.8,26.5,58.8,58.8V571.1z" class="st1"/></g><g class="st0"><path d="M717.2,1264.6c0,32.3-26.5,58.8-58.8,58.8H18c-32.3,0-58.8-26.5-58.8-58.8V696.2c0-32.3,26.5-58.8,58.8-58.8 h640.5c32.3,0,58.8,26.5,58.8,58.8V1264.6z" class="st2"/></g></g><g><g><g><defs><path id="SVGID_3_" d="M236.5,275.1l19.4-56.1c0,0,15.4-44.5,63.1-27.6c43.6,15.4,49.8-2.1,70.2-5.1 c28.2-4.1,44.5,7.7,49.8,28.2c5.3,20.5,18.4,60.1,18.4,60.1l17.3,1.8c0.7-7.9,14.3-131.4-126.9-117.4 c-10.9-1.5-130.3-20.9-124.5,117.4L236.5,275.1z"/></defs><use style="overflow:visible;fill:#232323" xlink:href="#SVGID_3_"/><clipPath id="SVGID_4_"><use style="overflow:visible" xlink:href="#SVGID_3_"/></clipPath><path d="M223.3,286.6c-2.4,0-4.8-0.9-6.7-2.5c-2.1-1.8-3.4-4.5-3.5-7.3c-1.8-43.5,8.1-76.8,29.5-99.1 c24.3-25.4,58-30.7,81.9-30.7c11.1,0,19.9,1.2,23.5,1.7c7.3-0.7,14.5-1,21.2-1c38.6,0,68.4,11.2,88.5,33.4 c30.5,33.6,28.4,82,27.1,96c-0.3,2.7-1.6,5.4-3.7,7.1c-1.9,1.5-4.2,2.5-6.6,2.5c-0.3,0-0.6,0-0.9-0.1l-17.3-1.8 c-4-0.4-7.4-3.2-8.6-7c-0.5-1.6-13.2-40.2-18.5-60.7c-3.8-14.4-13.3-21.4-29.3-21.4c-2.9,0-5.9,0.2-9.1,0.7 c-4.6,0.7-8.5,2.4-13,4.5c-7.3,3.3-15.6,7-28.2,7c-9.7,0-20.8-2.2-33.8-6.9c-6.1-2.2-11.8-3.2-17.1-3.2 c-23.9,0-32.7,23.6-33.1,24.6l-19.3,56.1c-1.3,3.8-4.6,6.4-8.6,6.8l-13.2,1.3C224,286.6,223.7,286.6,223.3,286.6z" class="st3"/></g></g><g><g><g><path d="M349.8,559.9c-47.7,0-85-23.9-85-54.4c0-30.5,37.3-54.4,85-54.4c47.7,0,85,23.9,85,54.4 C434.8,536,397.5,559.9,349.8,559.9z" class="st4"/><path d="M349.8,539.5c-47.7,0-85-23.9-85-54.4c0-30.5,37.3-54.4,85-54.4c47.7,0,85,23.9,85,54.4 C434.8,515.6,397.5,539.5,349.8,539.5z" class="st4"/><g><path d="M237.3,246.8c-1.1,0-2.2-0.2-3.2-0.5c-60.5-20-76.2-93.3-70.9-126.2c3-18.4,12.1-21.1,17.3-21.1 c11.3,0,17.5,13.2,19.6,17.6c22,46.5,72.6,48.5,73.1,48.5c3.6,0.1,6.9,2.1,8.6,5.2c1.8,3.1,1.7,7-0.1,10.1l-35.7,61.4 C244.3,244.9,240.9,246.8,237.3,246.8z" class="st4"/><path d="M217.3,359.5c-20.2,0-36.6-19.8-36.6-44.1c0-24.3,16.4-44.1,36.6-44.1c20.2,0,36.6,19.8,36.6,44.1 C253.9,339.7,237.5,359.5,217.3,359.5z" class="st4"/><path d="M484,359.5c-20.2,0-36.6-19.8-36.6-44.1c0-24.3,16.4-44.1,36.6-44.1c20.2,0,36.6,19.8,36.6,44.1 C520.6,339.7,504.2,359.5,484,359.5z" class="st4"/><path d="M464.2,246.8c-3.5,0-6.9-1.9-8.8-5.1l-35.7-61.4c-1.8-3.1-1.8-6.9-0.1-10.1c1.7-3.1,5-5.1,8.6-5.2 c2.1-0.1,51.3-2.3,73.1-48.5c2-4.3,8.3-17.6,19.6-17.6c5.2,0,14.4,2.8,17.3,21.1c5.3,32.9-10.4,106.2-70.9,126.2 C466.3,246.6,465.2,246.8,464.2,246.8z" class="st4"/><path d="M348.1,507.8c-84.3,0-150.2-71.5-150.2-162.7c0-0.9,0.1-1.8,0.4-2.7l35.5-131.5 c8.9-39.6,52.4-63.4,116.3-63.4c64.6,0,110.8,24.3,117.8,61.9l1.1,4l29.2,129.4c0.2,0.7,0.2,1.5,0.2,2.2 C498.3,436.3,432.3,507.8,348.1,507.8z" class="st4"/><path d="M223.6,281.5c-2.4,0-4.8-0.9-6.7-2.5c-2.1-1.8-3.4-4.5-3.5-7.3c-1.8-43.5,8.1-76.8,29.5-99.1 c24.3-25.4,58-30.7,81.9-30.7c11.1,0,19.9,1.2,23.5,1.7c7.3-0.7,14.5-1,21.2-1c38.6,0,68.4,11.2,88.5,33.3 c29.6,32.6,28.8,78,27.1,96c-0.3,2.7-1.6,5.4-3.7,7.1c-1.9,1.5-4.2,2.5-6.6,2.5c-0.3,0-0.6,0-0.9-0.1l-17.3-1.8 c-4-0.4-7.4-3.1-8.6-7c-0.5-1.6-13.2-40.2-18.6-60.7c-3.8-14.4-13.3-21.4-29.3-21.4c-2.9,0-5.9,0.2-9.1,0.7 c-4.6,0.7-8.5,2.4-13,4.5c-7.3,3.3-15.6,7-28.2,7c-9.7,0-20.8-2.2-33.8-6.9c-6.1-2.1-11.8-3.2-17-3.2c-24.3,0-33,24.3-33,24.5 l-19.4,56.1c-1.3,3.8-4.7,6.4-8.6,6.8l-13.2,1.4C224.3,281.5,223.9,281.5,223.6,281.5z" class="st4"/><path d="M234.9,485c-2.9,0-5.7-1.2-7.7-3.5c-2.9-3.4-3.3-8.3-0.9-12.1c18.8-30.2,13.4-45,7.9-48.6 c-4.4-2.4-6-7.5-4.3-12.2c18.4-51.2,69.9-52.7,75.7-52.7c0.1,0,0.6,0,0.7,0c4.7,0.1,8.8,3.5,9.7,8.2 c12.8,62.8-44.8,106-77,120.1C237.6,484.8,236.2,485,234.9,485z" class="st4"/><path d="M465.6,485c-1.4,0-2.8-0.3-4.1-0.9c-32.2-14.1-89.7-57.3-77-120.1c0.9-4.7,5-8,9.7-8.2c0.1,0,0.6,0,0.7,0 c5.8,0,57.3,1.5,75.7,52.7c1.7,4.7-0.3,9.9-4.6,12.4c-0.4,0.3-15.3,10.7,8.2,48.5c2.4,3.8,2,8.7-0.9,12.1 C471.4,483.8,468.5,485,465.6,485z" class="st4"/><path d="M269.7,427.1c-90,0-111.9-89.1-112.1-90c-1-4.4,1-9,5-11.2c1.5-0.9,3.3-1.3,4.9-1.3c2.6,0,5.3,1,7.2,3 c7,7,19.2,10.6,36.3,10.6h0c41.9,0,96.3-21.6,102.4-24l0.5-0.2c1.3-0.6,2.7-0.9,4.1-0.9c1.8,0,3.5,0.5,5.1,1.3 c2.8,1.6,4.7,4.4,5.1,7.6l9.8,82.4c0.6,4.7-2.2,9.2-6.7,10.8C309.4,423.1,288.6,427.1,269.7,427.1L269.7,427.1z" class="st4"/><path d="M430.2,427.1c-18.9,0-39.7-4-61.7-11.9c-4.5-1.6-7.2-6.1-6.7-10.8l9.8-82.4c0.4-3.2,2.3-6.1,5.1-7.7 c1.5-0.9,3.3-1.3,5-1.3c1.4,0,2.9,0.3,4.2,0.9c6.5,2.6,61,24.2,102.8,24.2c17.1,0,29.3-3.6,36.3-10.6c2-2,4.6-3,7.2-3 c1.7,0,3.4,0.4,4.9,1.3c4,2.2,6,6.8,5,11.2C542.1,338,520.2,427.1,430.2,427.1z" class="st4"/></g><path d="M352.2,577c-16,0-29-13-29-29c0-16,13-28.9,29-28.9c16,0,29,13,29,28.9C381.2,564,368.2,577,352.2,577z" class="st4"/></g></g></g><g><g><defs><path id="SVGID_5_" d="M236.5,275.1l19.4-56.1c0,0,15.4-44.5,63.1-27.6c43.6,15.4,49.8-2.1,70.2-5.1 c28.2-4.1,44.5,7.7,49.8,28.2c5.3,20.5,18.4,60.1,18.4,60.1l17.3,1.8c0.7-7.9,14.3-131.4-126.9-117.4 c-10.9-1.5-130.3-20.9-124.5,117.4L236.5,275.1z"/></defs><use style="overflow:visible;fill:#232323" xlink:href="#SVGID_5_"/><clipPath id="SVGID_6_"><use style="overflow:visible" xlink:href="#SVGID_5_"/></clipPath><path d="M223.3,286.6c-2.4,0-4.8-0.9-6.7-2.5c-2.1-1.8-3.4-4.5-3.5-7.3c-1.8-43.5,8.1-76.8,29.5-99.1 c24.3-25.4,58-30.7,81.9-30.7c11.1,0,19.9,1.2,23.5,1.7c7.3-0.7,14.5-1,21.2-1c38.6,0,68.4,11.2,88.5,33.4 c30.5,33.6,28.4,82,27.1,96c-0.3,2.7-1.6,5.4-3.7,7.1c-1.9,1.5-4.2,2.5-6.6,2.5c-0.3,0-0.6,0-0.9-0.1l-17.3-1.8 c-4-0.4-7.4-3.2-8.6-7c-0.5-1.6-13.2-40.2-18.5-60.7c-3.8-14.4-13.3-21.4-29.3-21.4c-2.9,0-5.9,0.2-9.1,0.7 c-4.6,0.7-8.5,2.4-13,4.5c-7.3,3.3-15.6,7-28.2,7c-9.7,0-20.8-2.2-33.8-6.9c-6.1-2.2-11.8-3.2-17.1-3.2 c-23.9,0-32.7,23.6-33.1,24.6l-19.3,56.1c-1.3,3.8-4.6,6.4-8.6,6.8l-13.2,1.3C224,286.6,223.7,286.6,223.3,286.6z" class="st5"/></g></g></g><g><g><g><defs><path id="SVGID_7_" d="M236.5,272.6l19.4-56.1c0,0,15.4-44.4,63.1-27.5c43.6,15.4,49.8-2.1,70.2-5.1 c28.2-4.1,44.5,7.7,49.8,28.2c5.3,20.4,18.4,60.1,18.4,60.1l17.3,1.8c0.7-7.9,14.3-131.4-126.9-117.4 c-10.9-1.5-130.3-20.9-124.5,117.4L236.5,272.6z"/></defs><clipPath id="SVGID_8_"><use style="overflow:visible" xlink:href="#SVGID_7_"/></clipPath></g></g><g><g><g><path d="M424.6,508.2c0,24.4-33.5,44.2-74.8,44.2c-41.3,0-74.8-19.8-74.8-44.2c0-24.4,33.5-44.2,74.8-44.2 C391.1,464,424.6,483.8,424.6,508.2z" class="st6"/><ellipse cx="349.6" cy="495.3" class="st7" rx="73.5" ry="48.4"/><path d="M424.6,487.8c0,24.4-33.5,44.2-74.8,44.2c-41.3,0-74.8-19.8-74.8-44.2c0-24.4,33.5-44.2,74.8-44.2 C391.1,443.7,424.6,463.4,424.6,487.8z" class="st8"/><path d="M423.1,470.4c0,27.4-33.1,49.5-74,49.5c-40.9,0-74-22.2-74-49.5c0-27.3,33.1-49.5,74-49.5 C389.9,420.8,423.1,443,423.1,470.4z" class="st9"/><g><path d="M273,177.8c0,0-57.2-1.6-82-54.4c-24.9-52.8-37,88.1,46.4,115.8L273,177.8z" class="st10"/><path d="M223.2,229.3c0,0-49-27.6-46.9-101.8c0,0,1.6-11.1,4.4-12c0,0-10.3,75.6,44.6,105.5L223.2,229.3z" class="st11"/><path d="M243.7,318c0,18.8-11.8,33.9-26.4,33.9c-14.6,0-26.4-15.2-26.4-33.9c0-18.8,11.8-33.9,26.4-33.9 C231.9,284.1,243.7,299.3,243.7,318z" class="st8"/><path d="M457.7,318c0,18.8,11.8,33.9,26.4,33.9c14.6,0,26.4-15.2,26.4-33.9c0-18.8-11.8-33.9-26.4-33.9 C469.5,284.1,457.7,299.3,457.7,318z" class="st8"/><path d="M494.7,317.8c0,11.2-5.9,20.3-13.3,20.3c-7.3,0-13.3-9.1-13.3-20.3c0-11.2,5.9-20.3,13.3-20.3 C488.8,297.4,494.7,306.5,494.7,317.8z" class="st9"/><path d="M204.1,317.8c0,11.2,5.9,20.3,13.3,20.3c7.3,0,13.3-9.1,13.3-20.3c0-11.2-5.9-20.3-13.3-20.3 C210,297.4,204.1,306.5,204.1,317.8z" class="st9"/><path d="M428.5,177.8c0,0,57.2-1.6,82.1-54.4c24.9-52.8,37,88.1-46.4,115.8L428.5,177.8z" class="st10"/><path d="M459.1,218.8l-1.2-4.5c-5.9-33.2-49.9-53.9-107.9-53.9c-58,0-98.4,20.3-106.4,55.9l0,0L208,347.7 c0,86.2,62.7,152.6,140,152.6c77.3,0,140-66.3,140-152.6L459.1,218.8z" class="st12"/><path d="M236.8,272.6l19.4-56.1c0,0,15.4-44.4,63.1-27.5c43.6,15.4,49.8-2.1,70.2-5.1 c28.2-4.1,44.5,7.7,49.8,28.2c5.3,20.4,18.4,60.1,18.4,60.1L475,274c0.7-7.9,14.3-131.4-126.9-117.4 c-10.9-1.5-130.3-20.9-124.5,117.4L236.8,272.6z" class="st13"/><path d="M463.6,418.5c0,0-15.3,37.8-60.2,60.5l-4.2,7.1c0,0,48-18,70.2-69.9L463.6,418.5z" class="st2"/><path d="M349.6,261.3l130.6,13.2c0,0-25.7,68.3-98.3,52.8L349.6,261.3z" class="st14"/><path d="M349.6,261.3L219,274.4c0,0,25.7,68.3,98.3,52.8L349.6,261.3z" class="st14"/><path d="M239.4,414.7c0,0,25.7,14.3-4.5,62.8c0,0,85.6-37.4,71-108.7C305.9,368.8,256.3,367.5,239.4,414.7z" class="st10"/><path d="M461.1,414.7c0,0-25.7,14.3,4.5,62.8c0,0-85.6-37.4-71-108.7C394.6,368.8,444.1,367.5,461.1,414.7z" class="st10"/><path d="M416,394.6c0,107.3-49.6,113.5-67.6,113.5c-20.2,0-67.6-6.1-67.6-113.5H416z" class="st15"/><path d="M346.3,260c0,0-89.4-23.3-107,11.6L346.3,260z" class="st13"/><path d="M352.9,261c0,0,89.4-23.2,107,11.6L352.9,261z" class="st13"/><path d="M318.1,325.9c0,0-0.3,0.1-0.8,0.3c-10.2,4.1-115.4,45.6-149.8,11.2c0,0,27.7,118.5,160.4,70.8 L318.1,325.9z" class="st13"/><path d="M381.8,325.9c0,0,0.3,0.1,0.8,0.3c10.2,4.1,115.4,45.6,149.8,11.2c0,0-27.7,118.5-160.4,70.8 L381.8,325.9z" class="st13"/><path d="M391.3,346.5L391.3,346.5l-41.6-85.2l-41.9,83.8c-0.1,0.2-0.1,0.2,0,0h0h0c-2.9,8.3-4.6,13.9-4.6,21.1 c0,25.7,20.8,47,46.5,47c25.7,0,46.5-20.6,46.5-46.3C396.1,359.5,394.3,352.7,391.3,346.5z" class="st16"/><path d="M286,422.2c0,0,22.8-3,41.9-10.1c0,0,19.4,11,44.1-0.3c0,0,20.9,8,38.1,9.7l-1.6,11 c0,0-22.3-8.2-36.5-11.8c0,0-19.8,11-44.1,0l-40.5,12.3L286,422.2z" class="st17"/><path d="M333.5,369.4c0,4.2-2.7,7.6-6,7.6c-3.3,0-6-3.4-6-7.6c0-4.2,2.7-7.6,6-7.6 C330.8,361.9,333.5,365.2,333.5,369.4z" class="st18"/><path d="M204,143.8c0,0-8.3,16.6-29.7,11.8" class="st19"/><path d="M360.6,229.3c0,6.3-5.1,11.3-11.3,11.3c-6.3,0-11.3-5.1-11.3-11.3c0-6.3,5.1-11.3,11.3-11.3 C355.5,218,360.6,223,360.6,229.3z" class="st20"/><path d="M310.6,333l-11.9,3.6c0,0-29.7,38.9,9.9,74l11.3-3C319.9,407.5,281.7,384.1,310.6,333z" class="st21"/><path d="M388.2,332.4l13.6,4.5c0,0,28.5,38.2-11.2,73.3l-11.3-3.3C379.3,406.9,417.1,383.5,388.2,332.4z" class="st21"/><path d="M227.2,296.2l-3,10.9c0,0,23.9,30.9,61.2,26.8C285.4,333.9,253.7,333.2,227.2,296.2z" class="st9"/><path d="M472.6,295.4l2.3,9.9c0,0-18.9,32.7-59.9,28.7C415,334,446.1,332.4,472.6,295.4z" class="st9"/><path d="M316.1,318c0,0-55.1,13-84.5-39.8l-4.9,0.6c0,0,26.2,56.9,87.1,43.8L316.1,318z" class="st11"/><path d="M383.8,319c0,0,54.5,11.9,82.9-40.9l5.8,0.8c0,0-25,55.4-87,44.1L383.8,319z" class="st11"/><path d="M425.9,423.2c0,0,0.3,20.3,30.2,45.4c0,0-17.6-7.2-39.4-32l1.8-13.8L425.9,423.2z" class="st11"/><path d="M271,423.2c0,0,2.9,20.3-26.9,45.4c0,0,18.4-9.5,36.7-28.3l-2.4-17.5L271,423.2z" class="st11"/><g><defs><path id="SVGID_9_" d="M236.5,272.6l19.4-56.1c0,0,15.4-44.4,63.1-27.5c43.6,15.4,49.8-2.1,70.2-5.1 c28.2-4.1,44.5,7.7,49.8,28.2c5.3,20.4,18.4,60.1,18.4,60.1l17.3,1.8c0.7-7.9,14.3-131.4-126.9-117.4 c-10.9-1.5-130.3-20.9-124.5,117.4L236.5,272.6z"/></defs><clipPath id="SVGID_10_"><use style="overflow:visible" xlink:href="#SVGID_9_"/></clipPath></g><polygon points="472.7 295.2 484.5 347.5 479.5 347 469.1 300" class="st2"/><path d="M349.6,270.2l37.5,77.3c0,0,19.1,30.2-14.2,54.5c0,0,20.5-23.2,8.5-52.1 C369.5,321,349.6,270.2,349.6,270.2z" class="st2"/><path d="M449.1,257.2l-14.2-47.8c0,0-5.2-17.6-23.5-21.6c0,0,12.3,3.6,19.5,26.6c6.4,20.5,12.1,40.2,12.1,40.2 L449.1,257.2z" class="st2"/><path d="M524.6,347.5c0,0-15.7,52.1-64.6,64.3C460,411.8,504.2,388.9,524.6,347.5z" class="st2"/><path d="M405.1,420.8c0,0-7.8,69-50.4,81.7c0,0,47.1,1.8,55.4-80.9L405.1,420.8z" class="st2"/><path d="M479.4,288.2c0,0,21.6-7,27.4,26c0,0,3.5,23-13.7,31.5c0,0,16.9-14.1,6.6-38.5 C499.7,307.2,495.8,290.9,479.4,288.2z" class="st2"/><path d="M476.2,230.2c0,0,55.1-29,48.5-109.1c0,0-0.4-6.5-4.2-5.6c0,0,8.5,76.5-46.4,106.4L476.2,230.2z" class="st11"/><path d="M495.4,147.4c0,0,8.3,16.6,29.8,11.8" class="st19"/><path d="M300.7,292.8c0,4.2-3.4,7.6-7.6,7.6c-4.2,0-7.6-3.4-7.6-7.6c0-4.2,3.4-7.6,7.6-7.6 C297.2,285.1,300.7,288.6,300.7,292.8z" class="st22"/><path d="M411,292.8c0,4.2-3.4,7.6-7.7,7.6c-4.2,0-7.6-3.4-7.6-7.6c0-4.2,3.4-7.6,7.6-7.6 C407.6,285.1,411,288.6,411,292.8z" class="st22"/><path d="M411.4,165.2c0,0,64.1,12.7,60.2,104.6l-5.1-0.4C466.4,269.4,471.6,190.3,411.4,165.2z" class="st2"/></g><path d="M412.6,197.1c3.4,3.3,4.1,8.1,1.5,10.8c-2.6,2.7-7.5,2.2-10.9-1c-3.4-3.3-4.1-8.1-1.5-10.8 C404.3,193.3,409.2,193.8,412.6,197.1z" class="st18"/><path d="M424,214.7c0.6,2.9-0.7,5.7-3,6.2c-2.3,0.5-4.7-1.4-5.3-4.4c-0.6-2.9,0.7-5.7,3-6.2 C421,209.9,423.4,211.8,424,214.7z" class="st18"/><path d="M357.5,458.6c0.2,16.1-4,29.1-9.3,29.2c-5.3,0.1-9.8-12.9-10-29c-0.2-16.1,4-29.1,9.3-29.2 C352.9,429.6,357.3,442.6,357.5,458.6z" class="st23"/><line x1="347.9" x2="347.9" y1="448.2" y2="468.9" class="st24"/><path d="M371,550.7c0,10.4-8.4,18.8-18.8,18.8c-10.3,0-18.8-8.4-18.8-18.8c0-10.3,8.4-18.8,18.8-18.8 C362.6,532,371,540.4,371,550.7z" class="st6"/><line x1="357.2" x2="350.1" y1="556.9" y2="543" class="st25"/><line x1="353.7" x2="347.3" y1="550.7" y2="557" class="st25"/></g></g></g><g><g><defs><path id="SVGID_11_" d="M236.5,272.6l19.4-56.1c0,0,15.4-44.4,63.1-27.5c43.6,15.4,49.8-2.1,70.2-5.1 c28.2-4.1,44.5,7.7,49.8,28.2c5.3,20.4,18.4,60.1,18.4,60.1l17.3,1.8c0.7-7.9,14.3-131.4-126.9-117.4 c-10.9-1.5-130.3-20.9-124.5,117.4L236.5,272.6z"/></defs><clipPath id="SVGID_12_"><use style="overflow:visible" xlink:href="#SVGID_11_"/></clipPath></g></g></g><g><g><path d="M142.2,696.8h17.5v52.5h21.7v-52.5H199v122.5h-17.6v-54.6h-21.7v54.6h-17.5V696.8z" class="st22"/><path d="M235.9,696.8h14.6l27.4,122.5h-17.6l-5.2-26.3h-23.9l-5.2,26.3h-17.6L235.9,696.8z M243.3,732h-0.3 l-8.6,44.4h17.6L243.3,732z" class="st22"/><path d="M344.1,732h-17.6v-4c0-4-0.9-7.5-2.8-10.4c-1.9-2.9-5.1-4.4-9.6-4.4c-2.4,0-4.4,0.5-5.9,1.4 c-1.6,0.9-2.8,2.1-3.6,3.5c-0.9,1.4-1.5,3.1-1.8,5c-0.3,1.9-0.5,3.9-0.5,5.9c0,2.4,0.1,4.4,0.3,6.1c0.2,1.7,0.6,3.1,1.3,4.3 c0.7,1.2,1.7,2.3,3,3.2c1.3,0.9,3.1,1.8,5.4,2.8l13.4,5.3c3.9,1.5,7.1,3.2,9.5,5.2c2.4,2,4.3,4.4,5.6,7.1 c1.3,2.7,2.2,5.8,2.7,9.3c0.5,3.5,0.7,7.5,0.7,12c0,5.2-0.5,10-1.5,14.4c-1,4.4-2.7,8.2-5.1,11.4c-2.4,3.2-5.5,5.7-9.4,7.5 c-3.9,1.8-8.7,2.8-14.3,2.8c-4.2,0-8.2-0.8-11.9-2.2c-3.7-1.5-6.8-3.5-9.5-6.1c-2.6-2.6-4.7-5.7-6.3-9.2 c-1.6-3.6-2.3-7.4-2.3-11.5v-6.5h17.6v5.5c0,3.2,0.9,6.1,2.8,8.7c1.9,2.6,5.1,3.9,9.6,3.9c3,0,5.3-0.4,7-1.3 c1.7-0.9,2.9-2.1,3.8-3.6c0.9-1.6,1.4-3.5,1.6-5.8c0.2-2.3,0.3-4.8,0.3-7.6c0-3.2-0.1-5.8-0.3-7.9c-0.2-2.1-0.7-3.7-1.5-5 c-0.7-1.3-1.8-2.3-3.1-3.1c-1.3-0.8-3.1-1.7-5.2-2.6l-12.6-5.2c-7.6-3.1-12.7-7.2-15.2-12.3c-2.6-5.1-3.9-11.5-3.9-19.2 c0-4.6,0.6-9,1.9-13.1c1.3-4.1,3.1-7.7,5.6-10.7c2.5-3,5.6-5.4,9.4-7.1c3.8-1.8,8.2-2.7,13.2-2.7c4.4,0,8.4,0.8,12,2.4 c3.6,1.6,6.7,3.7,9.3,6.4c2.6,2.6,4.6,5.6,5.9,8.9c1.4,3.3,2.1,6.6,2.1,10.1V732z" class="st22"/><path d="M414.9,791.8c0,4-0.7,7.8-2.2,11.2c-1.5,3.4-3.5,6.5-6.1,9c-2.6,2.6-5.6,4.6-9,6.1c-3.4,1.5-7.1,2.2-11,2.2 c-3.9,0-7.6-0.8-11-2.2c-3.4-1.5-6.5-3.5-9-6.1c-2.6-2.6-4.6-5.6-6.1-9c-1.5-3.4-2.2-7.2-2.2-11.2v-95h17.6v93.3 c0,4.4,1,7.6,3.1,9.6c2.1,2.1,4.6,3.1,7.7,3.1c3.1,0,5.7-1,7.7-3.1c2.1-2.1,3.1-5.3,3.1-9.6v-93.3h17.6V791.8z" class="st22"/><path d="M432.2,696.8h28.2c20.6,0,31,12,31,36c0,7.1-1.1,13.2-3.4,18.3c-2.2,5.1-6.2,9.2-11.8,12.3l18.9,55.9h-18.6 L460.3,767h-10.5v52.3h-17.6V696.8z M449.8,751.5h10c3.1,0,5.6-0.4,7.4-1.3c1.8-0.9,3.2-2.1,4.2-3.7c1-1.6,1.6-3.6,2-5.9 c0.3-2.3,0.5-5.1,0.5-8.2c0-3.1-0.2-5.8-0.5-8.2c-0.4-2.4-1.1-4.4-2.2-6c-1.1-1.7-2.6-2.9-4.6-3.7c-2-0.8-4.5-1.2-7.7-1.2h-9.1 V751.5z" class="st22"/><path d="M525.9,696.8h14.6l27.4,122.5h-17.6l-5.2-26.3h-23.9l-5.2,26.3h-17.6L525.9,696.8z M533.3,732h-0.3 l-8.6,44.4h17.6L533.3,732z" class="st22"/></g></g><g><path d="M674.2,825.1c0,32.3-26.5,58.8-58.8,58.8H94.7c-32.3,0-58.8-26.5-58.8-58.8V93.6c0-32.3,26.5-58.8,58.8-58.8 h520.7c32.3,0,58.8,26.5,58.8,58.8V825.1z" class="st26"/></g><line x1="35.9" x2="674.2" y1="629.9" y2="629.9" class="st26"/></g></svg>