<svg width="522" height="154" viewBox="0 0 522 154" fill="none" xmlns="http://www.w3.org/2000/svg">
<path d="M149.769 52.7972C154.266 39.1104 151.561 11.8055 142.847 1.72497C141.705 0.402656 139.58 0.591558 138.631 2.05125L127.898 18.5201C125.245 21.8173 120.467 22.5729 116.865 20.2717C105.218 12.8187 91.3052 8.49109 76.3556 8.49109C61.4059 8.49109 47.4927 12.8187 35.8457 20.2717C32.262 22.5729 27.4837 21.8001 24.8135 18.5201L14.08 2.05125C13.1314 0.591558 11.0057 0.419829 9.86388 1.72497C1.15057 11.8226 -1.55477 39.1275 2.94242 52.7972C4.43563 57.348 4.83968 62.1564 3.96132 66.8274C3.08296 71.4641 2.2046 77.0625 2.2046 80.9607C2.2046 120.991 35.4065 153.43 76.338 153.43C117.287 153.43 150.471 120.974 150.471 80.9607C150.471 77.0625 149.593 71.4641 148.715 66.8274C147.854 62.1564 148.275 57.348 149.769 52.7972ZM76.338 137.254C44.682 137.254 18.9461 112.078 18.9461 81.1325C18.9461 80.1193 18.9812 79.1232 19.0339 78.1272C20.1758 57.0389 33.2809 39.0245 51.8142 30.4381C59.2452 26.9691 67.572 25.0458 76.3556 25.0458C85.1391 25.0458 93.4484 26.9691 100.897 30.4552C119.43 39.0417 132.535 57.0732 133.677 78.1444C133.73 79.1404 133.765 80.1536 133.765 81.1496C133.747 112.078 107.994 137.254 76.338 137.254Z" fill="#F8F8F8"/>
<path d="M101.212 102.736L86.5435 77.8692L73.9655 57.1415C73.6668 56.6435 73.1222 56.3516 72.5425 56.3516H60.5266C59.9293 56.3516 59.3847 56.6607 59.0861 57.1759C58.7875 57.6739 58.805 58.2921 59.1037 58.7901L71.1372 78.5561L54.993 102.633C54.6592 103.131 54.6416 103.766 54.9227 104.281C55.2038 104.796 55.7659 105.123 56.3808 105.123H68.4845C69.0467 105.123 69.5737 104.848 69.8723 104.384L78.6032 91.058L86.4381 104.333C86.7368 104.831 87.2813 105.14 87.8611 105.14H99.7891C100.386 105.14 100.931 104.831 101.212 104.333C101.511 103.852 101.511 103.234 101.212 102.736Z" fill="#F8F8F8"/>
<path d="M218.844 39.4727H234.145V121.49H218.844V86.5436H201.558V121.508H186.257V39.4727H201.558V75.0893H218.844V39.4727Z" fill="#F8F8F8"/>
<path d="M281.348 121.506L278.151 104.471H259.794L256.86 121.506H241.559L258.441 39.4883H279.047L296.737 121.506H281.348ZM261.796 93.1536H276.026L268.718 53.8963L261.796 93.1536Z" fill="#F8F8F8"/>
<path d="M330.819 106.548V88.9978C330.819 87.6067 330.556 86.6794 330.029 86.1986C329.502 85.7177 328.518 85.4773 327.095 85.4773H316.326C307.191 85.4773 302.624 81.1497 302.624 72.4774V52.3508C302.624 43.7643 307.402 39.4883 316.976 39.4883H331.61C341.184 39.4883 345.962 43.7815 345.962 52.3508V63.7879H330.538V54.4287C330.538 53.0377 330.275 52.1104 329.748 51.6295C329.221 51.1487 328.237 50.9083 326.814 50.9083H321.755C320.244 50.9083 319.225 51.1487 318.698 51.6295C318.171 52.1104 317.907 53.0377 317.907 54.4287V70.9319C317.907 72.3229 318.171 73.2502 318.698 73.731C319.225 74.2119 320.244 74.4523 321.755 74.4523H332.26C341.57 74.4523 346.226 78.694 346.226 87.1946V108.644C346.226 117.23 341.395 121.506 331.733 121.506H317.363C307.701 121.506 302.87 117.213 302.87 108.644V97.3266H318.153V106.548C318.153 107.939 318.417 108.867 318.944 109.348C319.471 109.828 320.49 110.069 322.001 110.069H327.06C328.483 110.069 329.449 109.828 329.994 109.348C330.538 108.867 330.819 107.939 330.819 106.548Z" fill="#F8F8F8"/>
<path d="M387.05 39.4727H402.333V108.628C402.333 117.214 397.502 121.49 387.84 121.49H371.626C361.964 121.49 357.133 117.197 357.133 108.628V39.4727H372.434V106.55C372.434 107.941 372.697 108.868 373.224 109.349C373.751 109.83 374.735 110.07 376.158 110.07H383.202C384.713 110.07 385.732 109.83 386.259 109.349C386.786 108.868 387.05 107.941 387.05 106.55V39.4727Z" fill="#F8F8F8"/>
<path d="M430.264 89.5317V121.508H414.98V39.4727H445.828C455.49 39.4727 460.321 43.7659 460.321 52.3352V76.652C460.321 83.7616 457.089 87.9174 450.607 89.1367L464.573 121.508H448.077L435.306 89.5317H430.264ZM430.264 50.9098V78.4723H441.296C442.719 78.4723 443.685 78.2319 444.23 77.7511C444.757 77.2702 445.02 76.3429 445.02 74.9519V54.4303C445.02 53.0393 444.757 52.1119 444.23 51.6311C443.703 51.1502 442.719 50.9098 441.296 50.9098H430.264Z" fill="#F8F8F8"/>
<path d="M506.594 121.506L503.396 104.471H485.039L482.105 121.506H466.822L483.704 39.4883H504.31L522 121.506H506.594ZM487.059 93.1536H501.288L493.98 53.8963L487.059 93.1536Z" fill="#F8F8F8"/>
</svg>
