<svg width="197" height="60" viewBox="0 0 197 60" fill="none" xmlns="http://www.w3.org/2000/svg">
<path d="M56.6843 20.431C58.3955 15.0494 57.3661 4.31318 54.0506 0.349564C53.6161 -0.170365 52.8073 -0.0960893 52.4463 0.477859L48.3621 6.95334C47.3528 8.24979 45.5346 8.54689 44.1643 7.64208C39.7325 4.71157 34.4385 3.00998 28.75 3.00998C23.0615 3.00998 17.7675 4.71157 13.3357 7.64208C11.9721 8.54689 10.1539 8.24304 9.13787 6.95334L5.05368 0.477859C4.69272 -0.0960893 3.8839 -0.163613 3.44941 0.349564C0.133935 4.31993 -0.895468 15.0561 0.815747 20.431C1.38392 22.2204 1.53767 24.111 1.20344 25.9476C0.869223 27.7708 0.535001 29.972 0.535001 31.5048C0.535001 47.2445 13.1686 59.9996 28.7433 59.9996C44.3247 59.9996 56.9516 47.2377 56.9516 31.5048C56.9516 29.972 56.6174 27.7708 56.2832 25.9476C55.9556 24.111 56.1161 22.2204 56.6843 20.431ZM28.7433 53.6389C16.698 53.6389 6.90527 43.74 6.90527 31.5723C6.90527 31.1739 6.91864 30.7823 6.93869 30.3907C7.37318 22.0988 12.3598 15.0156 19.4118 11.6395C22.2394 10.2755 25.4078 9.51923 28.75 9.51923C32.0922 9.51923 35.254 10.2755 38.0882 11.6462C45.1402 15.0224 50.1268 22.1123 50.5613 30.3974C50.5814 30.7891 50.5947 31.1874 50.5947 31.5791C50.5881 43.74 40.7887 53.6389 28.7433 53.6389Z" fill="#3970FD"/>
<path d="M38.2065 40.0671L32.625 30.2898L27.8389 22.1397C27.7253 21.9439 27.5181 21.8291 27.2975 21.8291H22.7253C22.4981 21.8291 22.2908 21.9506 22.1772 22.1532C22.0636 22.349 22.0703 22.5921 22.1839 22.7879L26.7627 30.5599L20.6197 40.0266C20.4927 40.2224 20.486 40.4723 20.593 40.6748C20.7 40.8774 20.9139 41.0057 21.1478 41.0057H25.7534C25.9673 41.0057 26.1678 40.8977 26.2815 40.7154L29.6036 35.4756L32.5849 40.6951C32.6985 40.8909 32.9057 41.0125 33.1263 41.0125H37.665C37.8923 41.0125 38.0995 40.8909 38.2065 40.6951C38.3201 40.506 38.3201 40.263 38.2065 40.0671Z" fill="#3970FD"/>
<path d="M81.1736 15H87.007V46.9932H81.1736V33.3613H74.5834V46.9999H68.75V15H74.5834V28.8932H81.1736V15Z" fill="black"/>
<path d="M105.002 46.9996L103.783 40.3544H96.7847L95.6663 46.9996H89.8329L96.2691 15.0063H104.125L110.869 46.9996H105.002ZM97.5483 35.9399H102.973L100.187 20.6266L97.5483 35.9399Z" fill="black"/>
<path d="M123.863 41.165V34.3188C123.863 33.7762 123.762 33.4145 123.561 33.2269C123.36 33.0394 122.985 32.9456 122.443 32.9456H118.337C114.855 32.9456 113.113 31.2575 113.113 27.8746V20.0237C113.113 16.6743 114.935 15.0063 118.585 15.0063H124.164C127.814 15.0063 129.636 16.681 129.636 20.0237V24.4851H123.756V20.8343C123.756 20.2917 123.655 19.9299 123.454 19.7424C123.253 19.5548 122.878 19.461 122.336 19.461H120.407C119.831 19.461 119.442 19.5548 119.242 19.7424C119.041 19.9299 118.94 20.2917 118.94 20.8343V27.2718C118.94 27.8144 119.041 28.1761 119.242 28.3636C119.442 28.5512 119.831 28.645 120.407 28.645H124.412C127.961 28.645 129.736 30.2996 129.736 33.6155V41.9822C129.736 45.3316 127.895 46.9996 124.211 46.9996H118.733C115.049 46.9996 113.207 45.3249 113.207 41.9822V37.5677H119.034V41.165C119.034 41.7076 119.134 42.0693 119.335 42.2568C119.536 42.4444 119.925 42.5382 120.501 42.5382H122.429C122.972 42.5382 123.34 42.4444 123.548 42.2568C123.756 42.0693 123.863 41.7076 123.863 41.165Z" fill="black"/>
<path d="M145.301 14.9998H151.128V41.9756C151.128 45.325 149.286 46.993 145.602 46.993H139.421C135.737 46.993 133.895 45.3183 133.895 41.9756V14.9998H139.729V41.1651C139.729 41.7077 139.829 42.0694 140.03 42.257C140.231 42.4445 140.606 42.5383 141.149 42.5383H143.834C144.41 42.5383 144.799 42.4445 145 42.257C145.2 42.0694 145.301 41.7077 145.301 41.1651V14.9998Z" fill="black"/>
<path d="M161.777 34.5266V46.9997H155.95V14.9998H167.711C171.394 14.9998 173.236 16.6744 173.236 20.0171V29.5025C173.236 32.2758 172.004 33.8969 169.532 34.3725L174.857 46.9997H168.568L163.699 34.5266H161.777ZM161.777 19.4611V30.2126H165.983C166.525 30.2126 166.894 30.1188 167.101 29.9313C167.302 29.7437 167.403 29.382 167.403 28.8394V20.8344C167.403 20.2918 167.302 19.93 167.101 19.7425C166.9 19.5549 166.525 19.4611 165.983 19.4611H161.777Z" fill="black"/>
<path d="M190.876 46.9996L189.657 40.3544H182.659L181.54 46.9996H175.714L182.15 15.0063H190.006L196.75 46.9996H190.876ZM183.429 35.9399H188.854L186.068 20.6266L183.429 35.9399Z" fill="black"/>
</svg>
