<svg width="197" height="60" viewBox="0 0 197 60" fill="none" xmlns="http://www.w3.org/2000/svg">
<path d="M56.9343 20.431C58.6455 15.0494 57.6161 4.31318 54.3006 0.349564C53.8661 -0.170365 53.0573 -0.0960893 52.6963 0.477859L48.6121 6.95334C47.6028 8.24979 45.7846 8.54689 44.4143 7.64208C39.9825 4.71157 34.6885 3.00998 29 3.00998C23.3115 3.00998 18.0175 4.71157 13.5857 7.64208C12.2221 8.54689 10.4039 8.24304 9.38787 6.95334L5.30368 0.477859C4.94272 -0.0960893 4.1339 -0.163613 3.69941 0.349564C0.383935 4.31993 -0.645468 15.0561 1.06575 20.431C1.63392 22.2204 1.78767 24.111 1.45344 25.9476C1.11922 27.7708 0.785001 29.972 0.785001 31.5048C0.785001 47.2445 13.4186 59.9996 28.9933 59.9996C44.5747 59.9996 57.2016 47.2377 57.2016 31.5048C57.2016 29.972 56.8674 27.7708 56.5332 25.9476C56.2056 24.111 56.3661 22.2204 56.9343 20.431ZM28.9933 53.6389C16.948 53.6389 7.15527 43.74 7.15527 31.5723C7.15527 31.1739 7.16864 30.7823 7.18869 30.3907C7.62318 22.0988 12.6098 15.0156 19.6618 11.6395C22.4894 10.2755 25.6578 9.51923 29 9.51923C32.3422 9.51923 35.504 10.2755 38.3382 11.6462C45.3902 15.0224 50.3768 22.1123 50.8113 30.3974C50.8314 30.7891 50.8447 31.1874 50.8447 31.5791C50.8381 43.74 41.0387 53.6389 28.9933 53.6389Z" fill="white"/>
<path d="M38.4565 40.0673L32.875 30.2899L28.0889 22.1398C27.9753 21.944 27.7681 21.8292 27.5475 21.8292H22.9753C22.7481 21.8292 22.5408 21.9508 22.4272 22.1533C22.3136 22.3492 22.3203 22.5922 22.4339 22.7881L27.0127 30.56L20.8697 40.0267C20.7427 40.2226 20.736 40.4724 20.843 40.675C20.95 40.8775 21.1639 41.0058 21.3978 41.0058H26.0034C26.2173 41.0058 26.4178 40.8978 26.5315 40.7155L29.8536 35.4757L32.8349 40.6952C32.9485 40.891 33.1557 41.0126 33.3763 41.0126H37.915C38.1423 41.0126 38.3495 40.891 38.4565 40.6952C38.5701 40.5062 38.5701 40.2631 38.4565 40.0673Z" fill="white"/>
<path d="M81.4236 15H87.257V46.9932H81.4236V33.3613H74.8334V46.9999H69V15H74.8334V28.8932H81.4236V15Z" fill="white"/>
<path d="M105.252 46.9997L104.033 40.3545H97.0347L95.9163 46.9997H90.0829L96.5191 15.0065H104.375L111.119 46.9997H105.252ZM97.7983 35.9401H103.223L100.437 20.6267L97.7983 35.9401Z" fill="white"/>
<path d="M124.113 41.1651V34.319C124.113 33.7764 124.012 33.4146 123.811 33.2271C123.61 33.0395 123.235 32.9457 122.693 32.9457H118.587C115.105 32.9457 113.363 31.2576 113.363 27.8748V20.0238C113.363 16.6745 115.185 15.0065 118.835 15.0065H124.414C128.064 15.0065 129.886 16.6812 129.886 20.0238V24.4852H124.006V20.8344C124.006 20.2918 123.905 19.93 123.704 19.7425C123.503 19.5549 123.128 19.4611 122.586 19.4611H120.657C120.081 19.4611 119.692 19.5549 119.492 19.7425C119.291 19.93 119.19 20.2918 119.19 20.8344V27.2719C119.19 27.8145 119.291 28.1762 119.492 28.3638C119.692 28.5513 120.081 28.6451 120.657 28.6451H124.662C128.211 28.6451 129.986 30.2997 129.986 33.6156V41.9823C129.986 45.3317 128.145 46.9997 124.461 46.9997H118.983C115.299 46.9997 113.457 45.325 113.457 41.9823V37.5678H119.284V41.1651C119.284 41.7077 119.384 42.0694 119.585 42.257C119.786 42.4445 120.175 42.5383 120.751 42.5383H122.679C123.222 42.5383 123.59 42.4445 123.798 42.257C124.006 42.0694 124.113 41.7077 124.113 41.1651Z" fill="white"/>
<path d="M145.551 14.9998H151.378V41.9756C151.378 45.325 149.536 46.993 145.852 46.993H139.671C135.987 46.993 134.145 45.3183 134.145 41.9756V14.9998H139.979V41.1651C139.979 41.7077 140.079 42.0694 140.28 42.257C140.481 42.4445 140.856 42.5383 141.399 42.5383H144.084C144.66 42.5383 145.049 42.4445 145.25 42.257C145.45 42.0694 145.551 41.7077 145.551 41.1651V14.9998Z" fill="white"/>
<path d="M162.027 34.5266V46.9997H156.2V14.9998H167.961C171.644 14.9998 173.486 16.6744 173.486 20.0171V29.5025C173.486 32.2758 172.254 33.8969 169.782 34.3725L175.107 46.9997H168.818L163.949 34.5266H162.027ZM162.027 19.4611V30.2126H166.233C166.775 30.2126 167.144 30.1188 167.351 29.9313C167.552 29.7437 167.653 29.382 167.653 28.8394V20.8344C167.653 20.2918 167.552 19.93 167.351 19.7425C167.15 19.5549 166.775 19.4611 166.233 19.4611H162.027Z" fill="white"/>
<path d="M191.126 46.9997L189.907 40.3545H182.909L181.79 46.9997H175.964L182.4 15.0065H190.256L197 46.9997H191.126ZM183.679 35.9401H189.104L186.318 20.6267L183.679 35.9401Z" fill="white"/>
</svg>
