<svg width="92" height="96" viewBox="0 0 92 96" fill="none" xmlns="http://www.w3.org/2000/svg">
<path d="M90.6948 32.6896C93.4327 24.079 91.7857 6.90109 86.4809 0.559303C85.7857 -0.272584 84.4916 -0.153743 83.9141 0.764574L77.3794 11.1253C75.7644 13.1997 72.8554 13.675 70.6629 12.2273C63.572 7.53851 55.1015 4.81597 46 4.81597C36.8985 4.81597 28.428 7.53851 21.3371 12.2273C19.1553 13.675 16.2462 13.1889 14.6206 11.1253L8.08589 0.764574C7.50835 -0.153743 6.21424 -0.26178 5.51906 0.559303C0.214296 6.91189 -1.43275 24.0898 1.3052 32.6896C2.21428 35.5526 2.46027 38.5776 1.92551 41.5162C1.39076 44.4332 0.856002 47.9552 0.856002 50.4077C0.856002 75.5912 21.0697 95.9994 45.9893 95.9994C70.9196 95.9994 91.1226 75.5804 91.1226 50.4077C91.1226 47.9552 90.5878 44.4332 90.0531 41.5162C89.529 38.5776 89.7857 35.5526 90.6948 32.6896ZM45.9893 85.8223C26.7167 85.8223 11.0484 69.984 11.0484 50.5157C11.0484 49.8783 11.0698 49.2517 11.1019 48.6251C11.7971 35.3581 19.7756 24.025 31.059 18.6231C35.583 16.4408 40.6525 15.2308 46 15.2308C51.3475 15.2308 56.4063 16.4408 60.941 18.6339C72.2244 24.0358 80.2029 35.3797 80.8981 48.6359C80.9302 49.2625 80.9516 49.8999 80.9516 50.5265C80.9409 69.984 65.2619 85.8223 45.9893 85.8223Z" fill="white"/>
<path d="M61.1305 64.1086L52.2001 48.4648L44.5424 35.4247C44.3606 35.1114 44.029 34.9277 43.6761 34.9277H36.3607C35.997 34.9277 35.6655 35.1222 35.4837 35.4463C35.3018 35.7596 35.3125 36.1486 35.4944 36.4619L42.8205 48.897L32.9917 64.0438C32.7885 64.3571 32.7778 64.7568 32.9489 65.0809C33.12 65.405 33.4623 65.6103 33.8366 65.6103H41.2055C41.5478 65.6103 41.8686 65.4375 42.0505 65.1458L47.3659 56.7621L52.1359 65.1133C52.3177 65.4266 52.6493 65.6211 53.0022 65.6211H60.2642C60.6278 65.6211 60.9594 65.4266 61.1305 65.1133C61.3123 64.8108 61.3123 64.4219 61.1305 64.1086Z" fill="white"/>
</svg>
