<svg xmlns="http://www.w3.org/2000/svg" xmlns:xlink="http://www.w3.org/1999/xlink" id="Layer_1" x="0" y="0" version="1.1" viewBox="0 0 500 200" xml:space="preserve" style="enable-background:new 0 0 500 200"><style type="text/css">.st0,.st1{clip-path:url(#SVGID_2_);fill:#e14e25}.st1{fill:#fff}.st2{fill:none;stroke:#1c1d1d;stroke-width:7.0866;stroke-miterlimit:10}.st2,.st3{clip-path:url(#SVGID_2_)}.st4{clip-path:url(#SVGID_4_)}.st4,.st5,.st6{fill:#232323}.st6{clip-path:url(#SVGID_6_)}.st7{fill:#f3c715}.st8{fill:#d59729}.st9{fill:#d7994f}.st10{fill:#b8804d}.st11{fill:#fff}.st12{fill:#c1cfcf}.st13{fill:#1d1d1d}.st14{fill:#e56c6c}.st15{fill:#c85f5f}.st16{fill:#e1b080}.st17{fill:#cc3231}.st18{fill:#171617}.st19{fill:#e58484}.st20{clip-path:url(#SVGID_2_);fill:#1d1d1d;enable-background:new}.st21{fill:#1c1d1d}</style><g><defs><path id="SVGID_1_" d="M486.9,42.3v114.6c0,13.9-11.3,25.3-25.3,25.3h-424c-13.9,0-25.3-11.3-25.3-25.3V42.3 C12.3,28.3,23.7,17,37.6,17h424C475.5,17,486.9,28.3,486.9,42.3z"/></defs><clipPath id="SVGID_2_"><use xlink:href="#SVGID_1_" style="overflow:visible"/></clipPath><rect width="164.6" height="158.1" x="15.9" y="20.5" class="st0"/><rect width="302.9" height="158.1" x="180.4" y="20.5" class="st1"/><path d="M461.6,178.6h-424c-12,0-21.7-9.7-21.7-21.7V42.2c0-12,9.7-21.7,21.7-21.7h424c12,0,21.7,9.7,21.7,21.7v114.6 C483.4,168.9,473.6,178.6,461.6,178.6z" class="st2"/><g class="st3"><g><g><g><defs><path id="SVGID_3_" d="M67.5,81.6l5.1-14.8c0,0,4.1-11.7,16.6-7.3c11.5,4.1,13.1-0.5,18.5-1.3c7.4-1.1,11.7,2,13.1,7.4 c1.4,5.4,4.8,15.8,4.8,15.8l4.6,0.5c0.2-2.1,3.8-34.7-33.5-31c-2.9-0.4-34.4-5.5-32.8,31L67.5,81.6z"/></defs><use xlink:href="#SVGID_3_" style="overflow:visible;fill:#232323"/><clipPath id="SVGID_4_"><use xlink:href="#SVGID_3_" style="overflow:visible"/></clipPath><path d="M64,84.6c-0.6,0-1.3-0.2-1.8-0.7c-0.6-0.5-0.9-1.2-0.9-1.9c-0.5-11.5,2.1-20.3,7.8-26.1 c6.4-6.7,15.3-8.1,21.6-8.1c2.9,0,5.2,0.3,6.2,0.4c1.9-0.2,3.8-0.3,5.6-0.3c10.2,0,18,3,23.3,8.8c8,8.8,7.5,21.6,7.1,25.3 c-0.1,0.7-0.4,1.4-1,1.9c-0.5,0.4-1.1,0.6-1.7,0.6c-0.1,0-0.2,0-0.3,0l-4.6-0.5c-1.1-0.1-1.9-0.8-2.3-1.8 c-0.1-0.4-3.5-10.6-4.9-16c-1-3.8-3.5-5.6-7.7-5.6c-0.8,0-1.6,0.1-2.4,0.2c-1.2,0.2-2.3,0.6-3.4,1.2c-1.9,0.9-4.1,1.8-7.4,1.8 c-2.6,0-5.5-0.6-8.9-1.8c-1.6-0.6-3.1-0.9-4.5-0.9c-6.3,0-8.6,6.2-8.7,6.5L70,82.4c-0.3,1-1.2,1.7-2.3,1.8l-3.5,0.4 C64.2,84.6,64.1,84.6,64,84.6z" class="st4"/></g></g><g><g><g><path d="M97.4,156.7c-12.6,0-22.4-6.3-22.4-14.3c0-8,9.8-14.3,22.4-14.3c12.6,0,22.4,6.3,22.4,14.3 C119.8,150.4,109.9,156.7,97.4,156.7z" class="st5"/><path d="M97.4,151.3c-12.6,0-22.4-6.3-22.4-14.3c0-8,9.8-14.3,22.4-14.3c12.6,0,22.4,6.3,22.4,14.3 C119.8,145,109.9,151.3,97.4,151.3z" class="st5"/><g><path d="M67.7,74.1c-0.3,0-0.6,0-0.8-0.1c-15.9-5.3-20.1-24.6-18.7-33.3c0.8-4.8,3.2-5.6,4.6-5.6 c3,0,4.6,3.5,5.2,4.6C63.7,52,77,52.5,77.2,52.5c0.9,0,1.8,0.6,2.3,1.4c0.5,0.8,0.5,1.8,0,2.7L70,72.8 C69.5,73.6,68.6,74.1,67.7,74.1z" class="st5"/><path d="M62.4,103.8c-5.3,0-9.6-5.2-9.6-11.6c0-6.4,4.3-11.6,9.6-11.6c5.3,0,9.6,5.2,9.6,11.6 C72.1,98.6,67.7,103.8,62.4,103.8z" class="st5"/><path d="M132.7,103.8c-5.3,0-9.6-5.2-9.6-11.6c0-6.4,4.3-11.6,9.6-11.6c5.3,0,9.6,5.2,9.6,11.6 C142.4,98.6,138.1,103.8,132.7,103.8z" class="st5"/><path d="M127.5,74.1c-0.9,0-1.8-0.5-2.3-1.3l-9.4-16.2c-0.5-0.8-0.5-1.8,0-2.7c0.5-0.8,1.3-1.4,2.3-1.4 c0.5,0,13.5-0.6,19.3-12.8c0.5-1.1,2.2-4.6,5.2-4.6c1.4,0,3.8,0.7,4.6,5.6c1.4,8.7-2.7,28-18.7,33.3 C128.1,74,127.8,74.1,127.5,74.1z" class="st5"/><path d="M96.9,142.9c-22.2,0-39.6-18.8-39.6-42.9c0-0.2,0-0.5,0.1-0.7l9.4-34.7c2.3-10.4,13.8-16.7,30.7-16.7 c17,0,29.2,6.4,31.1,16.3l0.3,1.1l7.7,34.1c0,0.2,0.1,0.4,0.1,0.6C136.5,124.1,119.1,142.9,96.9,142.9z" class="st5"/><path d="M64.1,83.3c-0.6,0-1.3-0.2-1.8-0.7c-0.6-0.5-0.9-1.2-0.9-1.9c-0.5-11.5,2.1-20.2,7.8-26.1 c6.4-6.7,15.3-8.1,21.6-8.1c2.9,0,5.2,0.3,6.2,0.4c1.9-0.2,3.8-0.3,5.6-0.3c10.2,0,18,3,23.3,8.8c7.8,8.6,7.6,20.6,7.2,25.3 c-0.1,0.7-0.4,1.4-1,1.9c-0.5,0.4-1.1,0.7-1.7,0.7c-0.1,0-0.2,0-0.2,0l-4.6-0.5c-1.1-0.1-1.9-0.8-2.3-1.8 c-0.1-0.4-3.5-10.6-4.9-16c-1-3.8-3.5-5.6-7.7-5.6c-0.8,0-1.6,0.1-2.4,0.2c-1.2,0.2-2.3,0.6-3.4,1.2 c-1.9,0.9-4.1,1.8-7.4,1.8c-2.6,0-5.5-0.6-8.9-1.8c-1.6-0.6-3.1-0.9-4.5-0.9c-6.4,0-8.7,6.4-8.7,6.5l-5.1,14.8 c-0.3,1-1.2,1.7-2.3,1.8l-3.5,0.4C64.2,83.3,64.2,83.3,64.1,83.3z" class="st5"/><path d="M67,136.9c-0.8,0-1.5-0.3-2-0.9c-0.8-0.9-0.9-2.2-0.2-3.2c5-8,3.5-11.9,2.1-12.8c-1.1-0.6-1.6-2-1.1-3.2 c4.8-13.5,18.4-13.9,20-13.9c0,0,0.2,0,0.2,0c1.2,0,2.3,0.9,2.6,2.2c3.4,16.6-11.8,27.9-20.3,31.7 C67.8,136.9,67.4,136.9,67,136.9z" class="st5"/><path d="M127.9,136.9c-0.4,0-0.7-0.1-1.1-0.2c-8.5-3.7-23.7-15.1-20.3-31.7c0.3-1.2,1.3-2.1,2.6-2.2 c0,0,0.2,0,0.2,0c1.5,0,15.1,0.4,20,13.9c0.4,1.2-0.1,2.6-1.2,3.3c-0.1,0.1-4,2.8,2.2,12.8c0.6,1,0.5,2.3-0.2,3.2 C129.4,136.6,128.7,136.9,127.9,136.9z" class="st5"/><path d="M76.2,121.7c-23.7,0-29.5-23.5-29.6-23.7c-0.3-1.2,0.3-2.4,1.3-3c0.4-0.2,0.9-0.3,1.3-0.3 c0.7,0,1.4,0.3,1.9,0.8c1.8,1.8,5.1,2.8,9.6,2.8h0c11,0,25.4-5.7,27-6.3l0.1-0.1c0.3-0.2,0.7-0.2,1.1-0.2 c0.5,0,0.9,0.1,1.3,0.4c0.7,0.4,1.2,1.2,1.3,2l2.6,21.7c0.1,1.2-0.6,2.4-1.8,2.9C86.7,120.6,81.2,121.7,76.2,121.7 L76.2,121.7z" class="st5"/><path d="M118.6,121.7c-5,0-10.5-1.1-16.3-3.1c-1.2-0.4-1.9-1.6-1.8-2.9l2.6-21.7c0.1-0.9,0.6-1.6,1.4-2 c0.4-0.2,0.9-0.3,1.3-0.3c0.4,0,0.8,0.1,1.1,0.2c1.7,0.7,16.1,6.4,27.1,6.4c4.5,0,7.7-0.9,9.6-2.8c0.5-0.5,1.2-0.8,1.9-0.8 c0.4,0,0.9,0.1,1.3,0.3c1.1,0.6,1.6,1.8,1.3,3C148.1,98.2,142.3,121.7,118.6,121.7z" class="st5"/></g><path d="M98,161.2c-4.2,0-7.6-3.4-7.6-7.6c0-4.2,3.4-7.6,7.6-7.6c4.2,0,7.6,3.4,7.6,7.6 C105.6,157.8,102.2,161.2,98,161.2z" class="st5"/></g></g></g><g><g><defs><path id="SVGID_5_" d="M67.5,81.6l5.1-14.8c0,0,4.1-11.7,16.6-7.3c11.5,4.1,13.1-0.5,18.5-1.3c7.4-1.1,11.7,2,13.1,7.4 c1.4,5.4,4.8,15.8,4.8,15.8l4.6,0.5c0.2-2.1,3.8-34.7-33.5-31c-2.9-0.4-34.4-5.5-32.8,31L67.5,81.6z"/></defs><use xlink:href="#SVGID_5_" style="overflow:visible;fill:#232323"/><clipPath id="SVGID_6_"><use xlink:href="#SVGID_5_" style="overflow:visible"/></clipPath><path d="M64,84.6c-0.6,0-1.3-0.2-1.8-0.7c-0.6-0.5-0.9-1.2-0.9-1.9c-0.5-11.5,2.1-20.3,7.8-26.1 c6.4-6.7,15.3-8.1,21.6-8.1c2.9,0,5.2,0.3,6.2,0.4c1.9-0.2,3.8-0.3,5.6-0.3c10.2,0,18,3,23.3,8.8c8,8.8,7.5,21.6,7.1,25.3 c-0.1,0.7-0.4,1.4-1,1.9c-0.5,0.4-1.1,0.6-1.7,0.6c-0.1,0-0.2,0-0.3,0l-4.6-0.5c-1.1-0.1-1.9-0.8-2.3-1.8 c-0.1-0.4-3.5-10.6-4.9-16c-1-3.8-3.5-5.6-7.7-5.6c-0.8,0-1.6,0.1-2.4,0.2c-1.2,0.2-2.3,0.6-3.4,1.2c-1.9,0.9-4.1,1.8-7.4,1.8 c-2.6,0-5.5-0.6-8.9-1.8c-1.6-0.6-3.1-0.9-4.5-0.9c-6.3,0-8.6,6.2-8.7,6.5L70,82.4c-0.3,1-1.2,1.7-2.3,1.8l-3.5,0.4 C64.2,84.6,64.1,84.6,64,84.6z" class="st6"/></g></g></g><g><g><g><defs><path id="SVGID_7_" d="M67.5,80.9l5.1-14.8c0,0,4.1-11.7,16.6-7.3c11.5,4.1,13.1-0.5,18.5-1.3c7.4-1.1,11.7,2,13.1,7.4 c1.4,5.4,4.8,15.8,4.8,15.8l4.6,0.5c0.2-2.1,3.8-34.7-33.5-31c-2.9-0.4-34.4-5.5-32.8,31L67.5,80.9z"/></defs><clipPath id="SVGID_8_"><use xlink:href="#SVGID_7_" style="overflow:visible"/></clipPath></g></g><g><g><g><g><path d="M117.1,143c0,6.4-8.8,11.7-19.7,11.7c-10.9,0-19.7-5.2-19.7-11.7c0-6.4,8.8-11.6,19.7-11.6 C108.2,131.4,117.1,136.6,117.1,143z" class="st7"/><path d="M97.4,155.6c-5.4,0-10.6-1.3-14.4-3.5c-4-2.4-6.2-5.6-6.2-9c0-3.5,2.2-6.7,6.2-9c3.9-2.3,9-3.5,14.4-3.5 c5.4,0,10.6,1.3,14.4,3.5c4,2.4,6.2,5.6,6.2,9c0,3.5-2.2,6.7-6.2,9C107.9,154.4,102.8,155.6,97.4,155.6z M97.4,132.3 c-5.1,0-9.9,1.2-13.5,3.3c-3.4,2-5.3,4.7-5.3,7.4c0,5.9,8.4,10.7,18.8,10.7c10.4,0,18.8-4.8,18.8-10.7c0-2.8-1.9-5.4-5.3-7.4 C107.2,133.5,102.5,132.3,97.4,132.3z" class="st5"/></g><ellipse cx="97.3" cy="139.6" class="st8" rx="19.4" ry="12.8"/><g><path d="M117.1,137.7c0,6.4-8.8,11.6-19.7,11.6c-10.9,0-19.7-5.2-19.7-11.6c0-6.4,8.8-11.6,19.7-11.6 C108.2,126,117.1,131.2,117.1,137.7z" class="st9"/><path d="M97.4,150.2c-5.4,0-10.6-1.3-14.4-3.5c-4-2.4-6.2-5.6-6.2-9c0-3.5,2.2-6.7,6.2-9c3.9-2.3,9-3.5,14.4-3.5 c5.4,0,10.6,1.3,14.4,3.5c4,2.4,6.2,5.6,6.2,9c0,3.5-2.2,6.7-6.2,9C107.9,149,102.8,150.2,97.4,150.2z M97.4,127 c-10.4,0-18.8,4.8-18.8,10.7c0,5.9,8.4,10.7,18.8,10.7c10.4,0,18.8-4.8,18.8-10.7C116.1,131.8,107.7,127,97.4,127z" class="st5"/></g><path d="M116.7,133.1c0,7.2-8.7,13.1-19.5,13.1c-10.8,0-19.5-5.8-19.5-13.1c0-7.2,8.7-13.1,19.5-13.1 C107.9,120,116.7,125.8,116.7,133.1z" class="st10"/><g><g><path d="M77.1,55.9c0,0-15.1-0.4-21.6-14.3c-6.6-13.9-9.8,23.2,12.2,30.5L77.1,55.9z" class="st11"/><path d="M67.7,73c-0.1,0-0.2,0-0.3,0c-7.9-2.6-12.2-8.8-14.4-13.5c-2.8-6-3.5-12.3-3.3-16.2 c0.2-2.4,0.8-5.3,2.7-5.7c2.1-0.4,3.5,2.6,3.9,3.6C62.6,54.4,77,55,77.1,55c0.3,0,0.6,0.2,0.8,0.5c0.2,0.3,0.2,0.6,0,0.9 l-9.4,16.2C68.3,72.9,68,73,67.7,73z M52.7,39.4C52.7,39.4,52.7,39.4,52.7,39.4c-0.1,0-0.9,0.8-1.2,4 c-0.2,3.7,0.4,9.6,3.1,15.3c2,4.2,5.8,9.7,12.6,12.3l8.3-14.3c-1.6-0.2-4.2-0.7-7.2-1.9C64,53.1,58.1,49.4,54.6,42 C53.5,39.5,52.7,39.4,52.7,39.4z" class="st5"/></g><path d="M64,69.5c0,0-12.9-7.3-12.4-26.9c0,0,0.4-2.9,1.2-3.2c0,0-2.7,19.9,11.8,27.8L64,69.5z" class="st12"/><g><path d="M69.4,92.9c0,4.9-3.1,9-7,9c-3.8,0-7-4-7-9c0-4.9,3.1-9,7-9C66.3,83.9,69.4,87.9,69.4,92.9z" class="st9"/><path d="M62.4,102.8c-4.4,0-7.9-4.4-7.9-9.9c0-5.5,3.5-9.9,7.9-9.9c4.4,0,7.9,4.4,7.9,9.9 C70.3,98.3,66.8,102.8,62.4,102.8z M62.4,84.9c-3.3,0-6,3.6-6,8c0,4.4,2.7,8,6,8c3.3,0,6-3.6,6-8 C68.4,88.5,65.7,84.9,62.4,84.9z" class="st5"/></g><g><path d="M125.8,92.9c0,4.9,3.1,9,7,9c3.8,0,7-4,7-9c0-4.9-3.1-9-7-9C128.9,83.9,125.8,87.9,125.8,92.9z" class="st9"/><path d="M132.7,102.8c-4.4,0-7.9-4.4-7.9-9.9c0-5.5,3.5-9.9,7.9-9.9c4.4,0,7.9,4.4,7.9,9.9 C140.6,98.3,137.1,102.8,132.7,102.8z M132.7,84.9c-3.3,0-6,3.6-6,8c0,4.4,2.7,8,6,8c3.3,0,6-3.6,6-8 C138.8,88.5,136.1,84.9,132.7,84.9z" class="st5"/></g><path d="M135.6,92.8c0,3-1.6,5.4-3.5,5.4c-1.9,0-3.5-2.4-3.5-5.4c0-3,1.6-5.4,3.5-5.4 C134,87.5,135.6,89.9,135.6,92.8z" class="st10"/><path d="M58.9,92.8c0,3,1.6,5.4,3.5,5.4c1.9,0,3.5-2.4,3.5-5.4c0-3-1.6-5.4-3.5-5.4 C60.5,87.5,58.9,89.9,58.9,92.8z" class="st10"/><g><path d="M118.1,55.9c0,0,15.1-0.4,21.6-14.3c6.6-13.9,9.8,23.2-12.2,30.5L118.1,55.9z" class="st11"/><path d="M127.5,73c-0.3,0-0.6-0.2-0.8-0.5l-9.4-16.2c-0.2-0.3-0.2-0.6,0-0.9c0.2-0.3,0.5-0.5,0.8-0.5 c0.2,0,14.6-0.6,20.8-13.8c0.5-1,1.9-4,3.9-3.6c1.9,0.4,2.5,3.3,2.7,5.7c0.3,3.9-0.5,10.2-3.3,16.2 c-2.2,4.7-6.5,10.9-14.4,13.5C127.7,73,127.6,73,127.5,73z M119.7,56.7l8.3,14.3c6.8-2.5,10.6-8,12.6-12.3 c2.7-5.7,3.4-11.6,3.1-15.3c-0.2-3.2-1-4-1.2-4c0,0,0,0,0,0c0,0-0.7,0.1-1.9,2.6c-3.5,7.5-9.4,11.1-13.8,12.9 C123.8,56,121.2,56.5,119.7,56.7z" class="st5"/></g><g><path d="M126.2,66.7l-0.3-1.2c-1.6-8.7-13.1-14.2-28.4-14.2c-15.3,0-26,5.4-28.1,14.7l0,0L60,100.7 c0,22.7,16.5,40.2,36.9,40.2c20.4,0,36.9-17.5,36.9-40.2L126.2,66.7z" class="st9"/><path d="M96.9,142.3c-10.3,0-19.9-4.3-27.1-12c-7.2-7.8-11.2-18.3-11.2-29.6c0-0.1,0-0.2,0-0.4L68,65.7 C70.3,55.9,81.2,50,97.4,50c16.4,0,28.1,6,29.8,15.3l0.3,1.1c0,0,0,0,0,0.1l7.7,34c0,0.1,0,0.2,0,0.3 c0,11.3-4,21.8-11.2,29.6C116.8,138,107.2,142.3,96.9,142.3z M61.3,100.9c0,10.5,3.8,20.3,10.5,27.5 c6.7,7.2,15.6,11.2,25.1,11.2c9.5,0,18.5-4,25.1-11.2c6.7-7.2,10.4-17,10.5-27.6L124.9,67l-0.3-1.1c0,0,0-0.1,0-0.1 c-1.4-7.8-12.3-13.1-27.1-13.1c-14.8,0-24.8,5.1-26.8,13.7c0,0,0,0,0,0.1L61.3,100.9z" class="st5"/></g><g><path d="M67.5,80.9l5.1-14.8c0,0,4.1-11.7,16.6-7.3c11.5,4.1,13.1-0.5,18.5-1.3c7.4-1.1,11.7,2,13.1,7.4 c1.4,5.4,4.8,15.8,4.8,15.8l4.6,0.5c0.2-2.1,3.8-34.7-33.5-31c-2.9-0.4-34.4-5.5-32.8,31L67.5,80.9z" class="st13"/><path d="M64.1,82.2c-0.2,0-0.4-0.1-0.6-0.2c-0.2-0.2-0.3-0.4-0.3-0.7c-0.5-11.7,2.3-20.4,8.4-25.9 c3.4-3.1,11.3-8,25.3-6.1l0.1,0c11.9-1.2,21,1.2,26.9,7.1c8.3,8.3,7.8,21,7.5,24.8l0,0.1c0,0.2-0.1,0.5-0.3,0.6 c-0.2,0.2-0.4,0.2-0.7,0.2l-4.6-0.5c-0.4,0-0.7-0.3-0.8-0.6c0-0.1-3.5-10.5-4.9-15.9c-1.4-5.4-5.6-7.7-12.1-6.7 c-1.5,0.2-2.6,0.7-3.9,1.3c-3.1,1.4-6.6,3-15.1,0c-3.6-1.3-6.8-1.3-9.5,0c-4.3,2-5.9,6.6-5.9,6.7l-5.1,14.8 c-0.1,0.3-0.4,0.6-0.8,0.6L64.1,82.2C64.1,82.2,64.1,82.2,64.1,82.2z M67.5,80.9L67.5,80.9L67.5,80.9z M126.5,79.9l3,0.3 c0.3-4.3,0.2-15.2-7-22.4c-5.5-5.5-14.1-7.7-25.5-6.6c-0.1,0-0.1,0-0.2,0l-0.2,0c-13.3-1.9-20.6,2.7-23.8,5.6 c-5.4,4.9-8.1,12.8-7.8,23.4l1.9-0.2l4.9-14.2c0.1-0.2,1.9-5.4,6.9-7.7c3.2-1.5,6.9-1.6,11-0.1c7.7,2.7,10.8,1.4,13.7,0.1 c1.3-0.6,2.7-1.2,4.4-1.5c7.4-1.1,12.5,1.9,14.2,8.1C123,69.3,125.8,77.7,126.5,79.9z" class="st5"/></g><path d="M127.4,119.4c0,0-4,10-15.9,16l-1.1,1.9c0,0,12.7-4.7,18.5-18.4L127.4,119.4z" class="st11"/><g><path d="M97.3,77.9l34.4,3.5c0,0-6.8,18-25.9,13.9L97.3,77.9z" class="st11"/><path d="M111.3,97.3c-1.8,0-3.7-0.2-5.7-0.6c-0.4-0.1-0.7-0.4-0.9-0.7l-8.5-17.4c-0.2-0.4-0.2-1,0.1-1.4 c0.3-0.4,0.8-0.6,1.2-0.6l34.4,3.5c0.4,0,0.8,0.3,1,0.6c0.2,0.4,0.3,0.8,0.1,1.2c-0.1,0.2-1.8,4.8-6.1,9 C123.7,94,118.6,97.3,111.3,97.3z M106.8,94.1c7.2,1.4,13.3-0.4,18.2-5.1c2.4-2.3,3.9-4.9,4.8-6.5l-30.2-3L106.8,94.1z" class="st5"/></g><g><path d="M97.3,77.9l-34.4,3.5c0,0,6.8,18,25.9,13.9L97.3,77.9z" class="st11"/><path d="M83.3,97.3c-7.3,0-12.4-3.3-15.6-6.4c-4.3-4.2-6-8.8-6.1-9c-0.1-0.4-0.1-0.8,0.1-1.2 c0.2-0.4,0.6-0.6,1-0.6l34.4-3.5c0.5,0,1,0.2,1.2,0.6c0.3,0.4,0.3,0.9,0.1,1.4L90,95.9c-0.2,0.4-0.5,0.6-0.9,0.7 C87,97.1,85.1,97.3,83.3,97.3z M64.9,82.5c0.8,1.6,2.4,4.1,4.8,6.5c4.9,4.8,11,6.5,18.2,5.1L95,79.5L64.9,82.5z" class="st5"/></g><g><path d="M68.2,118.4c0,0,6.8,3.8-1.2,16.5c0,0,22.6-9.9,18.7-28.7C85.8,106.3,72.7,105.9,68.2,118.4z" class="st11"/><path d="M67,135.9c-0.3,0-0.5-0.1-0.7-0.3c-0.3-0.3-0.3-0.8-0.1-1.1c3.9-6.2,4-10,3.5-12.2 c-0.5-2.2-1.9-3.1-2-3.1c-0.4-0.2-0.6-0.7-0.4-1.1c2.4-6.8,7.3-9.9,11-11.3c4-1.5,7.3-1.4,7.5-1.4c0.4,0,0.8,0.3,0.9,0.8 c1.6,8-1.2,15.7-8.2,22.3c-5.2,4.9-10.8,7.3-11.1,7.5C67.3,135.9,67.2,135.9,67,135.9z M69.4,118.1c0.7,0.6,1.7,1.8,2.2,3.7 c0.8,3,0.1,6.6-2.1,10.9c2.1-1.2,5-3.1,7.8-5.7c6.3-5.9,8.9-12.6,7.8-19.7c-1.1,0.1-3.5,0.3-6,1.3 C74.4,110.3,71.2,113.5,69.4,118.1z" class="st5"/></g><g><path d="M126.7,118.4c0,0-6.8,3.8,1.2,16.5c0,0-22.6-9.9-18.7-28.7C109.2,106.3,122.2,105.9,126.7,118.4z" class="st11"/><path d="M127.9,135.9c-0.1,0-0.3,0-0.4-0.1c-0.2-0.1-5.8-2.6-11.1-7.5c-7-6.5-9.8-14.2-8.2-22.3 c0.1-0.4,0.5-0.7,0.9-0.8c0.1,0,3.5-0.1,7.5,1.4c3.7,1.4,8.6,4.5,11,11.3c0.2,0.4,0,0.9-0.4,1.1c-0.1,0-1.5,0.9-2,3.1 c-0.5,2.1-0.3,6,3.5,12.1c0.2,0.3,0.2,0.8-0.1,1.1C128.4,135.8,128.2,135.9,127.9,135.9z M109.9,107.2 c-1.2,7.2,1.4,13.8,7.8,19.7c2.8,2.6,5.7,4.5,7.8,5.7c-2.2-4.3-2.9-7.9-2.1-10.9c0.5-1.9,1.5-3.1,2.2-3.7 c-1.8-4.5-5-7.7-9.6-9.5C113.4,107.6,111.1,107.3,109.9,107.2z" class="st5"/></g><g><path d="M114.8,113.1c0,28.3-13.1,29.9-17.8,29.9c-5.3,0-17.8-1.6-17.8-29.9H114.8z" class="st14"/><path d="M97,144.3c-1.8,0-7.3,0-11.9-4.8c-4.8-5-7.3-13.9-7.3-26.5c0-0.7,0.6-1.3,1.3-1.3h35.7 c0.7,0,1.3,0.6,1.3,1.3c0,12.5-2.5,21.4-7.5,26.5C105.5,142.7,101.6,144.3,97,144.3z M80.5,114.4c0.2,11.1,2.4,19,6.5,23.3 c3.4,3.5,7.3,3.9,9.9,3.9c3.9,0,7.2-1.3,9.7-3.9c4.3-4.4,6.6-12.2,6.7-23.3H80.5z" class="st5"/></g><g><path d="M96.4,77.6c0,0-23.6-6.1-28.2,3.1L96.4,77.6z" class="st13"/><path d="M68.2,81.6c-0.3,0-0.6-0.1-0.8-0.4c-0.2-0.3-0.2-0.6-0.1-1c4.9-9.8,28.3-3.8,29.3-3.6 c0.4,0.1,0.7,0.5,0.7,1c0,0.5-0.4,0.8-0.8,0.9l-28.2,3.1C68.3,81.6,68.2,81.6,68.2,81.6z M81.3,76.5c-4.2,0-8.6,0.6-11.1,3 l20.1-2.2c-1.9-0.3-4.1-0.6-6.3-0.7C83.1,76.6,82.2,76.5,81.3,76.5z" class="st5"/></g><g><path d="M98.2,77.8c0,0,23.6-6.1,28.2,3.1L98.2,77.8z" class="st13"/><path d="M126.4,81.8c0,0-0.1,0-0.1,0l-28.2-3.1c-0.5,0-0.8-0.4-0.8-0.9c0-0.5,0.3-0.9,0.7-1 c1-0.3,24.4-6.2,29.3,3.5c0.2,0.3,0.1,0.7-0.1,1C127,81.7,126.7,81.8,126.4,81.8z M104.3,77.6l20.1,2.2 c-3-2.8-8.9-3.2-13.8-2.9C108.4,77,106.2,77.3,104.3,77.6z" class="st5"/></g><g><path d="M89,95c0,0-0.1,0-0.2,0.1c-2.7,1.1-30.4,12-39.5,3c0,0,7.3,31.3,42.3,18.7L89,95z" class="st13"/><path d="M76.2,120.6c-5,0-9.4-1.1-13.4-3.2c-11.3-6.1-14.3-18.6-14.4-19.1c-0.1-0.4,0.1-0.8,0.5-1 c0.4-0.2,0.8-0.1,1.1,0.2c7,7,27.5,1.3,38.5-3.2c0.1,0,0.1-0.1,0.2-0.1c0.3-0.1,0.6-0.1,0.9,0c0.3,0.1,0.4,0.4,0.5,0.7 l2.6,21.7c0.1,0.4-0.2,0.8-0.6,1C86.2,119.6,81,120.6,76.2,120.6z M51.1,100.5c1.5,3.9,5.2,11.2,12.6,15.2 c7.2,3.9,16.2,4,26.8,0.3l-2.4-19.8C82.9,98.4,61.4,106.1,51.1,100.5z" class="st5"/></g><g><path d="M105.8,95c0,0,0.1,0,0.2,0.1c2.7,1.1,30.4,12,39.5,3c0,0-7.3,31.3-42.3,18.7L105.8,95z" class="st13"/><path d="M118.6,120.6c-4.8,0-10-1-15.7-3c-0.4-0.1-0.7-0.6-0.6-1l2.6-21.7c0-0.3,0.2-0.6,0.5-0.7 c0.3-0.1,0.6-0.2,0.9,0c0,0,0.1,0,0.1,0.1c11,4.5,31.5,10.2,38.5,3.2c0.3-0.3,0.8-0.4,1.1-0.2c0.4,0.2,0.6,0.6,0.5,1 c-0.1,0.5-3.2,13-14.4,19.1C128,119.5,123.5,120.6,118.6,120.6z M104.2,116c10.6,3.7,19.7,3.6,26.8-0.3 c7.5-4,11.1-11.3,12.6-15.2c-4.4,2.4-11.3,2.7-20.5,0.8c-7.3-1.5-14-4-16.6-5L104.2,116z" class="st5"/></g><g><path d="M108.3,100.4L108.3,100.4l-11-22.5L86.3,100c0,0.1,0,0.1,0,0h0h0c-0.8,2.2-1.2,3.7-1.2,5.6 c0,6.8,5.5,12.4,12.3,12.4c6.8,0,12.3-5.4,12.3-12.2C109.6,103.8,109.1,102,108.3,100.4z" class="st9"/><path d="M97.3,119.1c-7.4,0-13.4-6-13.4-13.5c0-2.1,0.5-3.7,1.2-5.8c0-0.1,0.1-0.2,0.1-0.3l11-22.1 c0.2-0.4,0.6-0.6,1-0.6c0.4,0,0.8,0.2,1,0.6l11,22.5c0,0.1,0,0.1,0.1,0.2c0.9,1.8,1.3,3.7,1.3,5.7 C110.7,113.1,104.7,119.1,97.3,119.1z M87.3,100.4c-0.8,2.2-1.1,3.5-1.1,5.1c0,6.2,5,11.3,11.2,11.3c6.2,0,11.2-5,11.2-11.1 c0-1.7-0.4-3.3-1.2-4.9c0-0.1,0-0.1-0.1-0.2l-9.9-20.3L87.3,100.4z" class="st5"/></g><path d="M80.5,120.4c0,0,6-0.8,11-2.7c0,0,5.1,2.9,11.6-0.1c0,0,5.5,2.1,10,2.6l-0.4,2.9c0,0-5.9-2.2-9.6-3.1 c0,0-5.2,2.9-11.6,0l-10.7,3.3L80.5,120.4z" class="st15"/><path d="M93,106.4c0,1.1-0.7,2-1.6,2c-0.9,0-1.6-0.9-1.6-2c0-1.1,0.7-2,1.6-2C92.3,104.4,93,105.3,93,106.4z" class="st16"/><path d="M53,51.6c-0.7,0-1.4-0.1-2.2-0.3c-0.7-0.2-1.2-0.9-1-1.6c0.2-0.7,0.9-1.2,1.6-1c1.9,0.4,3.5,0.2,4.9-0.8 c1-0.7,1.5-1.6,1.5-1.6c0.3-0.7,1.1-0.9,1.8-0.6c0.7,0.3,0.9,1.1,0.6,1.8C59.3,49.1,56.9,51.6,53,51.6z" class="st5"/><g><path d="M100.2,69.5c0,1.7-1.3,3-3,3c-1.6,0-3-1.3-3-3c0-1.7,1.3-3,3-3C98.9,66.5,100.2,67.8,100.2,69.5z" class="st17"/><path d="M97.2,73.4c-2.2,0-3.9-1.8-3.9-3.9c0-2.2,1.8-3.9,3.9-3.9c2.2,0,3.9,1.8,3.9,3.9 C101.1,71.7,99.4,73.4,97.2,73.4z M97.2,67.4c-1.1,0-2.1,0.9-2.1,2c0,1.1,0.9,2.1,2.1,2.1c1.1,0,2.1-0.9,2.1-2.1 C99.3,68.4,98.3,67.4,97.2,67.4z" class="st5"/></g><path d="M87,96.8l-3.1,0.9c0,0-7.8,10.3,2.6,19.5l3-0.8C89.5,116.5,79.4,110.3,87,96.8z" class="st18"/><path d="M107.5,96.7l3.6,1.2c0,0,7.5,10.1-3,19.3l-3-0.9C105.1,116.3,115.1,110.1,107.5,96.7z" class="st18"/><path d="M65,87.1L64.2,90c0,0,6.3,8.1,16.1,7.1C80.4,97.1,72,96.9,65,87.1z" class="st10"/><path d="M129.7,86.9l0.6,2.6c0,0-5,8.6-15.8,7.6C114.5,97.1,122.7,96.7,129.7,86.9z" class="st10"/><path d="M88.5,92.9c0,0-14.5,3.4-22.3-10.5l-1.3,0.2c0,0,6.9,15,23,11.5L88.5,92.9z" class="st12"/><path d="M106.3,93.1c0,0,14.4,3.1,21.9-10.8l1.5,0.2c0,0-6.6,14.6-22.9,11.6L106.3,93.1z" class="st12"/><path d="M117.4,120.6c0,0,0.1,5.3,8,12c0,0-4.6-1.9-10.4-8.4l0.5-3.7L117.4,120.6z" class="st12"/><path d="M76.6,120.6c0,0,0.8,5.3-7.1,12c0,0,4.8-2.5,9.7-7.5l-0.6-4.6L76.6,120.6z" class="st12"/><g><defs><path id="SVGID_9_" d="M67.5,80.9l5.1-14.8c0,0,4.1-11.7,16.6-7.3c11.5,4.1,13.1-0.5,18.5-1.3c7.4-1.1,11.7,2,13.1,7.4 c1.4,5.4,4.8,15.8,4.8,15.8l4.6,0.5c0.2-2.1,3.8-34.7-33.5-31c-2.9-0.4-34.4-5.5-32.8,31L67.5,80.9z"/></defs><clipPath id="SVGID_10_"><use xlink:href="#SVGID_9_" style="overflow:visible"/></clipPath></g><polygon points="129.8 86.9 132.9 100.6 131.6 100.5 128.8 88.1" class="st11"/><path d="M97.3,80.3l9.9,20.4c0,0,5,8-3.7,14.4c0,0,5.4-6.1,2.2-13.7C102.5,93.7,97.3,80.3,97.3,80.3z" class="st11"/><path d="M123.5,76.8l-3.7-12.6c0,0-1.4-4.6-6.2-5.7c0,0,3.2,1,5.1,7c1.7,5.4,3.2,10.6,3.2,10.6L123.5,76.8z" class="st11"/><path d="M143.4,100.6c0,0-4.1,13.7-17,17C126.4,117.6,138.1,111.6,143.4,100.6z" class="st11"/><path d="M111.9,120c0,0-2,18.2-13.3,21.5c0,0,12.4,0.5,14.6-21.3L111.9,120z" class="st11"/><path d="M131.5,85c0,0,5.7-1.8,7.2,6.9c0,0,0.9,6.1-3.6,8.3c0,0,4.5-3.7,1.7-10.2C136.9,90,135.8,85.7,131.5,85 z" class="st11"/><path d="M130.7,69.7c0,0,14.5-7.6,12.8-28.8c0,0-0.1-1.7-1.1-1.5c0,0,2.2,20.2-12.2,28.1L130.7,69.7z" class="st12"/><path d="M141.6,52.6c-3.9,0-6.3-2.5-7.1-4.1c-0.3-0.7-0.1-1.5,0.6-1.8c0.7-0.3,1.5-0.1,1.8,0.6 c0.1,0.2,1.9,3.4,6.4,2.4c0.7-0.2,1.4,0.3,1.6,1c0.2,0.7-0.3,1.4-1,1.6C143.1,52.5,142.3,52.6,141.6,52.6z" class="st5"/><circle cx="82.4" cy="86.2" r="2" class="st13"/><path d="M113.5,86.2c0,1.1-0.9,2-2,2c-1.1,0-2-0.9-2-2c0-1.1,0.9-2,2-2C112.6,84.2,113.5,85.1,113.5,86.2z" class="st13"/><path d="M113.6,52.6c0,0,16.9,3.3,15.9,27.6l-1.3-0.1C128.1,80.1,129.5,59.2,113.6,52.6z" class="st11"/></g><path d="M113.9,61c0.9,0.9,1.1,2.1,0.4,2.9c-0.7,0.7-2,0.6-2.9-0.3c-0.9-0.9-1.1-2.1-0.4-2.9 C111.7,60,113,60.1,113.9,61z" class="st16"/><path d="M116.9,65.6c0.2,0.8-0.2,1.5-0.8,1.6c-0.6,0.1-1.2-0.4-1.4-1.1c-0.2-0.8,0.2-1.5,0.8-1.6 C116.1,64.4,116.8,64.9,116.9,65.6z" class="st16"/><path d="M99.4,130c0,4.2-1.1,7.7-2.5,7.7c-1.4,0-2.6-3.4-2.6-7.6c0-4.2,1.1-7.7,2.5-7.7 C98.2,122.3,99.3,125.7,99.4,130z" class="st19"/><g><path d="M96.8,133.8c-0.6,0-1.1-0.5-1.1-1.1v-5.4c0-0.6,0.5-1.1,1.1-1.1s1.1,0.5,1.1,1.1v5.4 C97.9,133.3,97.4,133.8,96.8,133.8z" class="st5"/></g><g><path d="M102.9,154.3c0,2.7-2.2,4.9-4.9,4.9c-2.7,0-4.9-2.2-4.9-4.9c0-2.7,2.2-4.9,4.9-4.9 C100.7,149.3,102.9,151.5,102.9,154.3z" class="st7"/><path d="M98,160.1c-3.2,0-5.9-2.6-5.9-5.9c0-3.2,2.6-5.9,5.9-5.9c3.2,0,5.9,2.6,5.9,5.9 C103.9,157.5,101.2,160.1,98,160.1z M98,150.2c-2.2,0-4,1.8-4,4c0,2.2,1.8,4,4,4c2.2,0,4-1.8,4-4 C102,152,100.2,150.2,98,150.2z" class="st5"/></g><path d="M99.3,156.5c-0.2,0-0.4-0.1-0.5-0.3l-1.9-3.7c-0.2-0.3,0-0.7,0.3-0.8c0.3-0.1,0.7,0,0.8,0.3l1.9,3.7 c0.2,0.3,0,0.7-0.3,0.8C99.5,156.5,99.4,156.5,99.3,156.5z" class="st5"/><path d="M96.7,156.5c-0.2,0-0.3-0.1-0.4-0.2c-0.2-0.2-0.2-0.6,0-0.8l1.7-1.7c0.2-0.2,0.6-0.2,0.8,0 c0.2,0.2,0.2,0.6,0,0.8l-1.7,1.7C97,156.5,96.8,156.5,96.7,156.5z" class="st5"/></g></g></g><g><g><defs><path id="SVGID_11_" d="M67.5,80.9l5.1-14.8c0,0,4.1-11.7,16.6-7.3c11.5,4.1,13.1-0.5,18.5-1.3c7.4-1.1,11.7,2,13.1,7.4 c1.4,5.4,4.8,15.8,4.8,15.8l4.6,0.5c0.2-2.1,3.8-34.7-33.5-31c-2.9-0.4-34.4-5.5-32.8,31L67.5,80.9z"/></defs><clipPath id="SVGID_12_"><use xlink:href="#SVGID_11_" style="overflow:visible"/></clipPath></g></g></g></g><rect width="8" height="158.1" x="176.4" y="20.5" class="st20"/><g class="st3"><path d="M218.9,130.5V63.6h9.6v28.7h11.8V63.6h9.6v66.9h-9.6v-29.8h-11.8v29.8H218.9z" class="st21"/><path d="M254.6,130.5l14.9-66.9h8l14.9,66.9h-9.6l-2.8-14.4H267l-2.8,14.4H254.6z M278.3,107.1l-4.7-24.3h-0.2 l-4.7,24.3H278.3z" class="st21"/><path d="M328.2,82.8h-9.6v-2.2c0-2.2-0.5-4.1-1.6-5.7c-1-1.6-2.8-2.4-5.2-2.4c-1.3,0-2.4,0.3-3.2,0.8 c-0.8,0.5-1.5,1.1-2,1.9c-0.5,0.8-0.8,1.7-1,2.8c-0.2,1-0.3,2.1-0.3,3.2c0,1.3,0,2.4,0.1,3.3c0.1,0.9,0.3,1.7,0.7,2.3 c0.4,0.7,0.9,1.3,1.6,1.8c0.7,0.5,1.7,1,3,1.5l7.3,2.9c2.1,0.8,3.9,1.8,5.2,2.9c1.3,1.1,2.4,2.4,3.1,3.8c0.7,1.5,1.2,3.2,1.4,5.1 c0.2,1.9,0.4,4.1,0.4,6.5c0,2.8-0.3,5.4-0.8,7.8c-0.6,2.4-1.5,4.5-2.7,6.2c-1.3,1.8-3,3.1-5.2,4.1c-2.1,1-4.7,1.5-7.8,1.5 c-2.3,0-4.5-0.4-6.5-1.2c-2-0.8-3.7-1.9-5.2-3.4c-1.4-1.4-2.6-3.1-3.4-5c-0.8-1.9-1.3-4-1.3-6.3v-3.6h9.6v3c0,1.8,0.5,3.3,1.6,4.7 c1,1.4,2.8,2.1,5.2,2.1c1.6,0,2.9-0.2,3.8-0.7c0.9-0.5,1.6-1.1,2.1-2c0.5-0.9,0.8-1.9,0.9-3.1c0.1-1.2,0.1-2.6,0.1-4.1 c0-1.8-0.1-3.2-0.2-4.3c-0.1-1.1-0.4-2-0.8-2.7c-0.4-0.7-1-1.3-1.7-1.7c-0.7-0.4-1.7-0.9-2.9-1.4l-6.9-2.8 c-4.1-1.7-6.9-3.9-8.3-6.7c-1.4-2.8-2.1-6.3-2.1-10.5c0-2.5,0.3-4.9,1-7.1c0.7-2.3,1.7-4.2,3.1-5.8c1.3-1.6,3-2.9,5-3.9 c2-1,4.5-1.5,7.3-1.5c2.4,0,4.6,0.4,6.5,1.3c2,0.9,3.7,2,5.1,3.5c2.9,3,4.3,6.5,4.3,10.3V82.8z" class="st21"/><path d="M366.4,63.6v51.9c0,2.2-0.4,4.2-1.2,6.1c-0.8,1.8-1.9,3.5-3.3,4.9c-1.4,1.4-3.1,2.6-5,3.4s-3.9,1.2-6,1.2 c-2.1,0-4.1-0.4-6-1.2c-1.8-0.8-3.5-1.9-4.9-3.4c-1.4-1.4-2.6-3.1-3.4-4.9c-0.8-1.8-1.2-3.9-1.2-6.1V63.6h9.6v50.9 c0,2.4,0.6,4.1,1.7,5.3s2.5,1.7,4.2,1.7c1.7,0,3.1-0.6,4.2-1.7s1.7-2.9,1.7-5.3V63.6H366.4z" class="st21"/><path d="M375.4,130.5V63.6h15.4c11.3,0,16.9,6.5,16.9,19.6c0,3.9-0.6,7.3-1.8,10.1c-1.2,2.8-3.4,5-6.4,6.7l10.3,30.5 h-10.2l-8.9-28.6H385v28.6H375.4z M385,72.6v20.9h5.5c1.7,0,3-0.2,4-0.7c1-0.5,1.8-1.1,2.4-2c0.5-0.9,0.8-2,1-3.2 c0.2-1.3,0.3-2.8,0.3-4.5c0-1.7-0.1-3.2-0.3-4.5c-0.2-1.3-0.6-2.4-1.1-3.3c-1.2-1.8-3.4-2.6-6.8-2.6H385z" class="st21"/><path d="M411.1,130.5l14.9-66.9h8l14.9,66.9h-9.6l-2.8-14.4h-13.1l-2.8,14.4H411.1z M434.8,107.1l-4.7-24.3h-0.2 l-4.7,24.3H434.8z" class="st21"/></g></g></svg>