<?xml version="1.0" encoding="utf-8"?>
<!-- Generator: Adobe Illustrator 22.1.0, SVG Export Plug-In . SVG Version: 6.00 Build 0)  -->
<svg version="1.1" xmlns="http://www.w3.org/2000/svg" xmlns:xlink="http://www.w3.org/1999/xlink" x="0px" y="0px"
	 viewBox="0 0 135 150" style="enable-background:new 0 0 135 150;" xml:space="preserve">
<style type="text/css">
	.st0{fill:#FFFFFF;}
</style>
<g id="Layer_2">
</g>
<g id="Layer_1">
	<g>
		<g>
			<path class="st0" d="M105.9,32.2c2.6-6.4,2.7-19.6-0.8-29.8l0,0c-0.9-1.8-3.7-1.3-3.8,0.8l0,0.7c-0.6,9.6-4.2,14.9-9.3,17.4
				c-0.9,0.4-2.2,0.3-3-0.2c-6.2-3.9-13.5-6.2-21.4-6.2c-7.9,0-15.2,2.3-21.4,6.2c-0.8,0.5-1.8,0.6-2.7,0.3c-5.3-2-9-7.8-9.7-17.5
				l0-0.7c-0.1-2-2.9-2.6-3.8-0.8c-3.5,10.2-3.5,23.4-0.8,29.8c1.3,3.2,1.4,6.8,0.3,10.1c-1.4,4.2-2.1,8.7-2.1,13.4
				C27.6,77,45.7,95,67,95.3c22.4,0.3,40.7-17.8,40.7-40.2c0-4.5-0.7-8.8-2.1-12.8C104.5,39,104.6,35.4,105.9,32.2z M66.9,85.7
				c-16.3-0.3-29.7-13.6-30-30c-0.3-17.3,13.8-31.5,31.1-31.1c16.3,0.3,29.7,13.6,30,30C98.4,71.8,84.3,86,66.9,85.7z"/>
			<path class="st0" d="M72.2,51.8l-7.2-11.1c-1.2-1.8-3.6-2.3-5.4-1.2c-1.1,0.7-1.8,1.9-1.8,3.3c0,0.7,0.3,1.5,0.7,2.1l4.9,7.6
				c0.4,0.6,0.3,1.3-0.1,1.8l-7.6,8.3c-1.4,1.6-1.3,4,0.3,5.5c0.7,0.7,1.7,1,2.7,1c1.1,0,2.1-0.5,2.8-1.3l5.6-6.6
				c0.4-0.5,1.2-0.5,1.6,0.1l4,5.7c0.3,0.4,0.6,0.8,1.1,1.2c1.4,1,3.1,0.9,4.3,0.1h0c1.1-0.7,1.8-1.9,1.8-3.3c0-0.7-0.3-1.5-0.6-2.1
				L72.2,51.8z"/>
		</g>
		<g>
			<path class="st0" d="M12.6,129.8H8.7c-0.6,0-1.1-0.5-1.1-1.1v-12.3c0-0.6-0.5-1.1-1.1-1.1H3.1c-0.6,0-1.1,0.5-1.1,1.1v31.3
				c0,0.6,0.5,1.1,1.1,1.1h3.4c0.6,0,1.1-0.5,1.1-1.1v-12.2c0-0.6,0.5-1.1,1.1-1.1h3.9c0.6,0,1.1,0.5,1.1,1.1v12.2
				c0,0.6,0.5,1.1,1.1,1.1h3.4c0.6,0,1.1-0.5,1.1-1.1v-31.3c0-0.6-0.5-1.1-1.1-1.1h-3.4c-0.6,0-1.1,0.5-1.1,1.1v12.3
				C13.6,129.3,13.2,129.8,12.6,129.8z"/>
			<path class="st0" d="M29.9,116.2l-5.5,31.3c-0.1,0.6,0.4,1.2,1,1.2h3.4c0.5,0,1-0.4,1-0.9l0.9-5.7c0.1-0.5,0.5-0.9,1-0.9h4.3
				c0.5,0,1,0.4,1,0.9l1,5.8c0.1,0.5,0.5,0.9,1,0.9h3.5c0.7,0,1.2-0.6,1-1.3l-5.9-31.3c-0.1-0.5-0.5-0.9-1-0.9H31
				C30.5,115.3,30,115.7,29.9,116.2z M35,136.5h-2.1c-0.7,0-1.1-0.6-1-1.2l1-11.5c0.2-1.2,1.9-1.2,2.1,0l1.1,11.5
				C36.2,135.9,35.7,136.5,35,136.5z"/>
			<path class="st0" d="M58.7,129.3h-3.8c-0.7,0-1.1-0.3-1.1-1.1V121c0-0.7,0.4-1.1,1.1-1.1h2.2c0.7,0,1.1,0.3,1.1,1.1v3.4
				c0,0.6,0.5,1.1,1.1,1.1h3.5c0.6,0,1.1-0.5,1.1-1.1v-4.2c0-3.3-1.8-5-5.3-5h-5.1c-3.5,0-5.3,1.7-5.3,5v8.6c0,3.3,1.8,5.1,5.2,5.1
				h3.8c0.7,0,1.1,0.3,1.1,1.1v8c0,0.7-0.3,1.1-1.1,1.1H55c-0.7,0-1.1-0.3-1.1-1.1v-3.4c0-0.6-0.5-1.1-1.1-1.1h-3.5
				c-0.6,0-1.1,0.5-1.1,1.1v4.2c0,3.3,1.8,5,5.3,5h5c3.5,0,5.3-1.7,5.3-5v-9.4C63.9,131.1,62.1,129.3,58.7,129.3z"/>
			<path class="st0" d="M79.8,143c0,0.7-0.3,1.1-1.1,1.1h-3c-0.7,0-1.1-0.3-1.1-1.1v-26.6c0-0.6-0.5-1.1-1.1-1.1H70
				c-0.6,0-1.1,0.5-1.1,1.1v27.3c0,3.3,1.8,5,5.3,5H80c3.5,0,5.3-1.7,5.3-5v-27.3c0-0.6-0.5-1.1-1.1-1.1h-3.5
				c-0.6,0-1.1,0.5-1.1,1.1V143z"/>
			<path class="st0" d="M107.5,130.5v-10.2c0-3.3-1.8-5-5.3-5h-10c-0.6,0-1.1,0.5-1.1,1.1v31.3c0,0.6,0.5,1.1,1.1,1.1h3.4
				c0.6,0,1.1-0.5,1.1-1.1v-11c0-0.6,0.5-1.1,1.1-1.1l0,0c0.4,0,0.8,0.3,1,0.7l4.4,11.8c0.2,0.4,0.6,0.7,1,0.7h3.7
				c0.7,0,1.3-0.7,1-1.4l-4.2-10.9c-0.2-0.5,0.1-1.1,0.6-1.4C106.7,134.2,107.5,132.7,107.5,130.5z M102,121v8.8
				c0,0.7-0.4,1.1-1.1,1.1h-3.1c-0.6,0-1.1-0.5-1.1-1.1V121c0-0.6,0.5-1.1,1.1-1.1h3.1C101.6,120,102,120.3,102,121z"/>
			<path class="st0" d="M125.9,115.3h-5.8c-0.5,0-1,0.4-1,0.9l-5.5,31.3c-0.1,0.6,0.4,1.2,1,1.2h3.4c0.5,0,1-0.4,1-0.9l0.9-5.7
				c0.1-0.5,0.5-0.9,1-0.9h4.3c0.5,0,1,0.4,1,0.9l1,5.8c0.1,0.5,0.5,0.9,1,0.9h3.5c0.7,0,1.2-0.6,1-1.3l-5.9-31.3
				C126.9,115.7,126.4,115.3,125.9,115.3z M124.2,136.5h-2.1c-0.7,0-1.1-0.6-1-1.2l1-10.5c0.2-1.2,1.9-1.2,2.1,0l1.1,10.5
				C125.3,135.9,124.8,136.5,124.2,136.5z"/>
		</g>
	</g>
</g>
</svg>
