<svg width="448" height="153" viewBox="0 0 448 153" fill="none" xmlns="http://www.w3.org/2000/svg">
<g clip-path="url(#clip0)">
<path d="M146.111 52.133C150.459 38.333 147.813 10.9221 139.306 0.902989C138.172 -0.420295 136.092 -0.231254 135.147 1.28107L124.561 17.7276C121.914 20.9413 117.188 21.8865 113.785 19.429C102.443 11.8673 88.643 7.51941 74.0869 7.51941C59.3418 7.51941 45.7308 11.8673 34.3884 19.429C30.7966 21.6974 26.2597 20.9413 23.6131 17.7276L13.0268 1.09203C12.0816 -0.231254 10.0022 -0.420295 8.86795 0.902989C0.361124 10.9221 -2.28544 38.333 2.06249 52.133C3.57481 56.6699 3.95289 61.585 3.00769 66.122C2.06249 70.848 1.30633 76.3301 1.30633 80.3C1.30633 120.566 34.0103 153.081 74.0869 153.081C114.164 153.081 146.867 120.566 146.867 80.3C146.867 76.3301 145.922 70.848 145.166 66.122C144.221 61.3959 144.599 56.6699 146.111 52.133ZM74.0869 136.823C43.0843 136.823 17.7528 111.492 17.7528 80.489C17.7528 79.5438 17.7528 78.4096 17.7528 77.4644C18.8871 56.2919 31.7418 38.144 49.8897 29.6371C57.2623 26.2344 65.3911 24.155 73.8979 24.155C82.4047 24.155 90.7225 26.0454 97.906 29.6371C116.054 38.333 128.909 56.2919 130.043 77.4644C130.043 78.4096 130.043 79.5438 130.043 80.489C130.421 111.492 105.09 136.823 74.0869 136.823Z" fill="#1EB4D4"/>
<path d="M98.4731 102.229L84.1061 77.2756L71.8184 56.4811C71.4403 55.914 71.0623 55.725 70.4951 55.725H58.5856C58.0185 55.725 57.4513 56.1031 57.2623 56.4811C56.8842 57.0483 57.0733 57.6154 57.2623 58.1825L68.9828 78.0318L53.1034 102.04C52.7253 102.607 52.7253 103.174 53.1034 103.741C53.2925 104.308 53.8596 104.497 54.6157 104.497H66.5253C67.0924 104.497 67.6595 104.308 67.8486 103.741L76.3554 90.3194L84.1061 103.552C84.4841 104.119 84.8622 104.308 85.4293 104.308H97.1498C97.717 104.308 98.2841 103.93 98.4731 103.552C98.8512 103.363 98.8512 102.607 98.4731 102.229Z" fill="#1EB4D4"/>
<path d="M180.462 49.4864H177.059V26.4235H186.133C188.591 26.4235 190.67 26.9906 191.993 28.3139C193.317 29.6371 194.073 31.5276 194.073 33.9851C194.073 36.2536 193.317 37.9549 191.993 39.2782C190.481 40.6015 188.591 41.1686 186.133 41.1686H180.462V49.4864ZM185.755 29.2591H180.462V38.5221H185.755C187.456 38.5221 188.78 38.144 189.725 37.3878C190.67 36.6316 191.048 35.4974 191.048 33.9851C191.048 32.2837 190.67 31.1495 189.725 30.3933C188.78 29.6372 187.456 29.2591 185.755 29.2591Z" fill="#F8F8F8"/>
<path d="M204.281 49.864C201.445 49.864 199.366 49.1079 198.043 47.4065C196.719 45.7051 195.963 43.8147 195.963 41.1681C195.963 38.7106 196.53 36.6312 198.043 34.9298C199.366 33.2285 201.445 32.4723 204.281 32.4723C206.928 32.4723 209.007 33.2284 210.33 34.7408C211.654 36.2531 212.41 38.3325 212.41 40.9791C212.41 42.6805 212.032 44.0038 211.464 45.327C210.897 46.6503 209.952 47.5955 208.818 48.3517C207.684 49.4859 206.171 49.864 204.281 49.864ZM204.281 47.0284C205.604 47.0284 206.549 46.6503 207.306 46.0832C208.062 45.5161 208.44 44.7599 208.818 43.8147C209.007 42.8695 209.196 41.9243 209.196 41.1681C209.196 40.412 209.007 39.2777 208.818 38.5216C208.629 37.5764 208.062 36.8202 207.306 36.2531C206.549 35.686 205.604 35.3079 204.281 35.3079C202.958 35.3079 201.823 35.686 201.256 36.2531C200.5 36.8202 200.122 37.5764 199.744 38.5216C199.366 39.4668 199.366 40.412 199.366 41.1681C199.366 41.9243 199.555 43.0586 199.744 43.8147C199.933 44.7599 200.5 45.5161 201.256 46.0832C201.823 46.6503 202.958 47.0284 204.281 47.0284Z" fill="#F8F8F8"/>
<path d="M218.459 49.4863L214.3 33.6069V32.6617H217.703L220.917 46.6507L224.886 32.6617H227.911L231.881 46.6507L235.095 32.6617H238.497V33.6069L234.338 49.4863H229.612L226.588 38.711V38.522L223.563 49.4863H218.459V49.4863Z" fill="#F8F8F8"/>
<path d="M248.516 49.8644C246.626 49.8644 245.114 49.4863 243.79 48.5411C242.656 47.785 241.711 46.6507 241.144 45.3275C240.577 44.0042 240.199 42.6809 240.199 41.1686C240.199 39.4672 240.388 38.1439 241.144 36.8206C241.9 35.4974 242.656 34.5521 243.979 33.796C245.114 33.0398 246.626 32.6617 248.327 32.6617C249.84 32.6617 251.163 33.0398 252.297 33.6069C253.432 34.1741 254.377 35.1193 255.133 36.2535C255.889 37.3878 256.267 38.711 256.267 40.4124C256.267 40.4124 256.267 40.7905 256.267 41.3576H243.601C243.601 43.248 243.979 44.5713 244.925 45.5165C245.87 46.4617 247.004 47.0288 248.516 47.0288C249.651 47.0288 250.596 46.6507 251.541 46.0836C252.297 45.5165 252.864 44.7603 253.053 43.8151H256.456C256.267 45.5165 255.511 47.0288 253.999 48.1631C252.486 49.2973 250.596 49.8644 248.516 49.8644ZM243.601 39.8453H252.675C252.675 39.4672 252.486 39.0891 252.486 38.711C252.297 38.1439 252.108 37.7658 251.73 37.1987C251.352 36.6316 250.974 36.2535 250.407 36.0645C249.84 35.8754 249.084 35.4974 248.138 35.4974C247.004 35.4974 246.059 35.6864 245.492 36.2535C244.925 36.8206 244.358 37.3878 243.979 37.9549C243.79 38.522 243.79 39.0891 243.601 39.8453Z" fill="#F8F8F8"/>
<path d="M259.859 49.4863V32.6617H263.073L263.451 37.1987C263.64 36.4426 264.018 35.6864 264.396 35.1193C264.963 34.3631 265.53 33.796 266.475 33.4179C267.42 33.0398 268.366 32.6617 269.689 32.6617H270.445V36.4426H269.689C267.988 36.4426 266.664 36.6316 265.908 37.0097C264.963 37.3878 264.396 38.1439 264.018 38.9001C263.64 39.6562 263.451 40.7905 263.451 41.9247V49.4863H259.859Z" fill="#F8F8F8"/>
<path d="M280.086 49.8644C278.196 49.8644 276.683 49.4863 275.36 48.5411C274.226 47.785 273.281 46.6507 272.714 45.3275C272.147 44.0042 271.768 42.6809 271.768 41.1686C271.768 39.4672 271.957 38.1439 272.714 36.8206C273.47 35.4974 274.226 34.5521 275.549 33.796C276.683 33.0398 278.196 32.6617 279.897 32.6617C281.41 32.6617 282.733 33.0398 283.867 33.6069C285.001 34.1741 285.946 35.1193 286.703 36.2535C287.459 37.3878 287.837 38.711 287.837 40.4124C287.837 40.4124 287.837 40.7905 287.837 41.3576H275.171C275.171 43.248 275.549 44.5713 276.494 45.5165C277.44 46.4617 278.574 47.0288 280.086 47.0288C281.22 47.0288 282.166 46.6507 283.111 46.0836C283.867 45.5165 284.434 44.7603 284.623 43.8151H288.026C287.837 45.5165 287.081 47.0288 285.568 48.1631C284.056 49.2973 282.355 49.8644 280.086 49.8644ZM275.36 39.8453H284.434C284.434 39.4672 284.245 39.0891 284.245 38.711C284.056 38.1439 283.867 37.7658 283.489 37.1987C283.111 36.6316 282.733 36.2535 282.166 36.0645C281.599 35.8754 280.842 35.4974 279.897 35.4974C278.763 35.4974 277.818 35.6864 277.251 36.2535C276.683 36.8206 276.116 37.3878 275.738 37.9549C275.549 38.522 275.36 39.0891 275.36 39.8453Z" fill="#F8F8F8"/>
<path d="M298.612 49.8642C296.155 49.8642 294.264 49.1081 293.13 47.4067C291.996 45.8944 291.429 43.8149 291.429 41.3574C291.429 38.7108 291.996 36.6314 293.13 35.1191C294.264 33.6068 296.155 32.6616 298.612 32.6616C299.746 32.6616 300.692 32.8506 301.448 33.2287C302.204 33.6068 302.771 33.9848 303.149 34.552C303.527 35.1191 303.905 35.4972 304.094 35.8752C304.283 36.2533 304.472 36.6314 304.472 36.6314V26.4232H307.875V49.4862H304.851L304.283 46.0834C304.283 46.2725 304.094 46.4615 303.905 46.8396C303.716 47.2177 303.338 47.5958 302.96 48.1629C302.582 48.541 301.826 49.1081 301.259 49.2971C300.503 49.6752 299.557 49.8642 298.612 49.8642ZM299.557 46.8396C301.07 46.8396 302.393 46.2725 303.149 45.3273C303.905 44.3821 304.472 42.8697 304.472 41.1684C304.472 39.467 304.094 38.1437 303.338 37.1985C302.582 36.2533 301.259 35.6862 299.746 35.6862C298.612 35.6862 297.667 35.8752 296.911 36.4424C296.155 37.0095 295.588 37.5766 295.399 38.5218C295.02 39.278 295.02 40.2232 295.02 41.1684C295.02 42.1136 295.21 43.0588 295.399 43.8149C295.777 44.7601 296.155 45.3273 296.911 45.8944C297.667 46.4615 298.423 46.8396 299.557 46.8396Z" fill="#F8F8F8"/>
<path d="M330.56 49.8642C329.615 49.8642 328.67 49.6752 327.913 49.2971C327.157 48.919 326.59 48.541 326.023 48.1629C325.456 47.7848 325.267 47.2177 325.078 46.8396C324.889 46.4615 324.7 46.2725 324.7 46.0834L324.133 49.4862H321.108V26.4232H324.511V36.6314C324.511 36.4424 324.7 36.2533 324.889 35.8752C325.078 35.4972 325.456 34.93 325.834 34.552C326.212 33.9848 326.779 33.6068 327.535 33.2287C328.292 32.8506 329.237 32.6616 330.371 32.6616C332.828 32.6616 334.53 33.4177 335.853 35.1191C336.987 36.8204 337.555 38.8999 337.555 41.3574C337.555 43.8149 336.987 45.8944 335.853 47.5958C334.908 49.1081 333.018 49.8642 330.56 49.8642ZM329.615 46.8396C330.749 46.8396 331.694 46.6505 332.45 46.0834C333.207 45.5163 333.585 44.7601 333.963 44.004C334.341 43.0588 334.341 42.3026 334.341 41.3574C334.341 40.4122 334.152 39.467 333.963 38.7108C333.774 37.9547 333.207 37.1985 332.45 36.6314C331.694 36.0643 330.749 35.8752 329.615 35.8752C328.102 35.8752 326.779 36.4424 326.023 37.3876C325.267 38.3328 324.889 39.6561 324.889 41.3574C324.889 43.0588 325.267 44.3821 326.212 45.5163C326.779 46.4615 328.102 46.8396 329.615 46.8396Z" fill="#F8F8F8"/>
<path d="M339.067 57.048V54.4014H341.524C342.091 54.4014 342.659 54.2124 343.037 54.0233C343.415 53.8343 343.793 53.0781 344.36 51.9439L345.872 48.7302L339.256 32.6617H342.848L347.574 45.3275L352.678 32.6617H356.27L347.574 52.322C347.007 53.6452 346.439 54.7795 345.872 55.3466C345.305 56.1028 344.927 56.4808 344.171 56.6699C343.415 56.8589 342.848 57.048 341.902 57.048H339.067V57.048Z" fill="#F8F8F8"/>
<path d="M202.256 66.1217H214.733V134.176H202.256V105.253H188.267V134.176H175.791V66.1217H188.267V95.612H202.256V66.1217Z" fill="#F8F8F8"/>
<path d="M252.919 134.176L250.273 119.998H235.338L232.881 134.176H220.404L234.015 66.1215H250.651L265.018 134.176H252.919ZM237.04 110.735H248.571L242.711 78.2201L237.04 110.735Z" fill="#F8F8F8"/>
<path d="M292.996 121.889V107.333C292.996 106.198 292.807 105.442 292.429 105.064C292.051 104.686 291.294 104.497 289.971 104.497H281.275C273.903 104.497 270.122 100.905 270.122 93.7218V77.0862C270.122 69.9027 274.092 66.3109 281.842 66.3109H293.752C301.503 66.3109 305.472 69.9027 305.472 77.0862V86.5382H292.996V78.7876C292.996 77.6533 292.807 76.8972 292.429 76.5191C292.051 76.141 291.294 75.952 289.971 75.952H285.812C284.678 75.952 283.733 76.141 283.355 76.5191C282.977 76.8972 282.788 77.6533 282.788 78.7876V92.3985C282.788 93.5327 282.977 94.2889 283.355 94.667C283.733 95.0451 284.678 95.2341 285.812 95.2341H294.319C301.881 95.2341 305.661 98.8259 305.661 105.82V123.59C305.661 130.774 301.692 134.365 293.941 134.365H282.22C274.47 134.365 270.5 130.774 270.5 123.59V114.138H282.977V121.889C282.977 123.023 283.166 123.779 283.544 124.157C283.922 124.535 284.867 124.724 286.001 124.724H290.16C291.294 124.724 292.051 124.535 292.618 124.157C292.807 123.779 292.996 123.023 292.996 121.889Z" fill="#F8F8F8"/>
<path d="M338.743 66.1215H351.22V123.59C351.22 130.773 347.25 134.365 339.5 134.365H326.267C318.516 134.365 314.546 130.773 314.546 123.59V66.1215H327.023V121.888C327.023 123.023 327.212 123.779 327.59 124.157C327.968 124.535 328.724 124.724 330.048 124.724H335.719C336.853 124.724 337.798 124.535 338.176 124.157C338.554 123.779 338.743 123.023 338.743 121.888V66.1215V66.1215Z" fill="#F8F8F8"/>
<path d="M373.716 107.71V134.176H361.239V66.1215H386.193C393.943 66.1215 397.913 69.7132 397.913 76.8968V97.1241C397.913 102.984 395.267 106.387 389.974 107.521L401.316 134.365H387.894L377.497 107.899H373.716V107.71ZM373.716 75.5735V98.4474H382.601C383.735 98.4474 384.491 98.2583 385.058 97.8803C385.437 97.5022 385.626 96.746 385.626 95.6118V78.5981C385.626 77.4639 385.437 76.7077 385.058 76.3296C384.68 75.9516 383.924 75.7625 382.601 75.7625H373.716V75.5735Z" fill="#F8F8F8"/>
<path d="M435.721 134.176L433.075 119.998H418.141L415.872 134.176H403.395L417.006 66.1215H433.642L448.009 134.176H435.721ZM419.842 110.735H431.373L425.513 78.2201L419.842 110.735Z" fill="#F8F8F8"/>
</g>
<defs>
<clipPath id="clip0">
<rect width="448" height="153" fill="white"/>
</clipPath>
</defs>
</svg>
