<?xml version="1.0" encoding="utf-8"?>
<!-- Generator: Adobe Illustrator 23.0.3, SVG Export Plug-In . SVG Version: 6.00 Build 0)  -->
<svg version="1.1" id="Layer_1" xmlns="http://www.w3.org/2000/svg" xmlns:xlink="http://www.w3.org/1999/xlink" x="0px" y="0px"
	 viewBox="0 0 230 95" style="enable-background:new 0 0 230 95;" xml:space="preserve">
<style type="text/css">
	.st0{fill:#102954;}
</style>
<g>
	<g>
		<path class="st0" d="M79.7,31.4c2.6-6.4,2.7-19.6-0.8-29.8l0,0c-0.9-1.8-3.7-1.3-3.8,0.8v0.7c-0.6,9.6-4.2,14.9-9.3,17.4
			c-0.9,0.4-2.2,0.3-3-0.2c-6.2-3.9-13.5-6.2-21.4-6.2S26.2,16.4,20,20.3c-0.8,0.5-1.8,0.6-2.7,0.3c-5.3-2-9-7.8-9.7-17.5V2.4
			c-0.1-2-2.9-2.6-3.8-0.8C0.1,11.8,0.2,25,2.9,31.4c1.3,3.2,1.4,6.8,0.3,10.1C1.7,45.7,1,50.3,1.1,55c0.3,21.2,18.4,39.3,39.6,39.5
			c22.4,0.3,40.7-17.8,40.7-40.2c0-4.5-0.7-8.8-2.1-12.8C78.3,38.2,78.4,34.6,79.7,31.4z M40.7,84.9c-16.3-0.3-29.7-13.6-30-30
			c-0.3-17.3,13.8-31.5,31.1-31.1c16.3,0.3,29.7,13.6,30,30C72.2,71.1,58,85.2,40.7,84.9z"/>
		<path class="st0" d="M46,51l-7.2-11.1c-1.2-1.8-3.6-2.3-5.4-1.2c-1.1,0.7-1.8,1.9-1.8,3.3c0,0.7,0.3,1.5,0.7,2.1l4.9,7.6
			c0.4,0.6,0.3,1.3-0.1,1.8l-7.6,8.3c-1.4,1.6-1.3,4,0.3,5.5c0.7,0.7,1.7,1,2.7,1c1.1,0,2.1-0.5,2.8-1.3l5.6-6.6
			c0.4-0.5,1.2-0.5,1.6,0.1l4,5.7c0.3,0.4,0.6,0.8,1.1,1.2c1.4,1,3.1,0.9,4.3,0.1l0,0c1.1-0.7,1.8-1.9,1.8-3.3
			c0-0.7-0.3-1.5-0.6-2.1L46,51z"/>
	</g>
	<g>
		<path class="st0" d="M108.7,62.2h-3.9c-0.6,0-1.1-0.5-1.1-1.1V48.8c0-0.6-0.5-1.1-1.1-1.1h-3.4c-0.6,0-1.1,0.5-1.1,1.1v31.3
			c0,0.6,0.5,1.1,1.1,1.1h3.4c0.6,0,1.1-0.5,1.1-1.1V67.9c0-0.6,0.5-1.1,1.1-1.1h3.9c0.6,0,1.1,0.5,1.1,1.1v12.2
			c0,0.6,0.5,1.1,1.1,1.1h3.4c0.6,0,1.1-0.5,1.1-1.1V48.8c0-0.6-0.5-1.1-1.1-1.1h-3.4c-0.6,0-1.1,0.5-1.1,1.1v12.3
			C109.8,61.7,109.3,62.2,108.7,62.2z"/>
		<path class="st0" d="M126.1,48.6l-5.5,31.3c-0.1,0.6,0.4,1.2,1,1.2h3.4c0.5,0,1-0.4,1-0.9l0.9-5.7c0.1-0.5,0.5-0.9,1-0.9h4.3
			c0.5,0,1,0.4,1,0.9l1,5.8c0.1,0.5,0.5,0.9,1,0.9h3.5c0.7,0,1.2-0.6,1-1.3l-5.9-31.3c-0.1-0.5-0.5-0.9-1-0.9H127
			C126.6,47.7,126.2,48.1,126.1,48.6z M131.2,68.9H129c-0.7,0-1.1-0.6-1-1.2l1-11.5c0.2-1.2,1.9-1.2,2.1,0l1.1,11.5
			C132.3,68.3,131.8,68.9,131.2,68.9z"/>
		<path class="st0" d="M154.9,61.8h-3.8c-0.7,0-1.1-0.3-1.1-1.1v-7.2c0-0.7,0.4-1.1,1.1-1.1h2.2c0.7,0,1.1,0.3,1.1,1.1v3.4
			c0,0.6,0.5,1.1,1.1,1.1h3.5c0.6,0,1.1-0.5,1.1-1.1v-4.2c0-3.3-1.8-5-5.3-5h-5.1c-3.5,0-5.3,1.7-5.3,5v8.6c0,3.3,1.8,5.1,5.2,5.1
			h3.8c0.7,0,1.1,0.3,1.1,1.1v8c0,0.7-0.3,1.1-1.1,1.1h-2.2c-0.7,0-1.1-0.3-1.1-1.1V72c0-0.6-0.5-1.1-1.1-1.1h-3.5
			c-0.6,0-1.1,0.5-1.1,1.1v4.2c0,3.3,1.8,5,5.3,5h5c3.5,0,5.3-1.7,5.3-5v-9.4C160.1,63.5,158.3,61.8,154.9,61.8z"/>
		<path class="st0" d="M175.9,75.4c0,0.7-0.3,1.1-1.1,1.1h-3c-0.7,0-1.1-0.3-1.1-1.1V48.8c0-0.6-0.5-1.1-1.1-1.1h-3.5
			c-0.6,0-1.1,0.5-1.1,1.1v27.3c0,3.3,1.8,5,5.3,5h5.8c3.5,0,5.3-1.7,5.3-5V48.8c0-0.6-0.5-1.1-1.1-1.1H177c-0.6,0-1.1,0.5-1.1,1.1
			V75.4z"/>
		<path class="st0" d="M203.7,62.9V52.7c0-3.3-1.8-5-5.3-5h-10c-0.6,0-1.1,0.5-1.1,1.1v31.3c0,0.6,0.5,1.1,1.1,1.1h3.4
			c0.6,0,1.1-0.5,1.1-1.1V69c0-0.6,0.5-1.1,1.1-1.1l0,0c0.4,0,0.8,0.3,1,0.7l4.4,11.8c0.2,0.4,0.6,0.7,1,0.7h3.7
			c0.7,0,1.3-0.7,1-1.4l-4.2-10.9c-0.2-0.5,0.1-1.1,0.6-1.4C202.8,66.7,203.7,65.1,203.7,62.9z M198.1,53.5v8.8
			c0,0.7-0.4,1.1-1.1,1.1h-3.1c-0.6,0-1.1-0.5-1.1-1.1v-8.8c0-0.6,0.5-1.1,1.1-1.1h3.1C197.7,52.4,198.1,52.7,198.1,53.5z"/>
		<path class="st0" d="M222.1,47.7h-5.8c-0.5,0-1,0.4-1,0.9l-5.5,31.3c-0.1,0.6,0.4,1.2,1,1.2h3.4c0.5,0,1-0.4,1-0.9l0.9-5.7
			c0.1-0.5,0.5-0.9,1-0.9h4.3c0.5,0,1,0.4,1,0.9l1,5.8c0.1,0.5,0.5,0.9,1,0.9h3.5c0.7,0,1.2-0.6,1-1.3L223,48.6
			C223,48.1,222.6,47.7,222.1,47.7z M220.3,68.9h-2.1c-0.7,0-1.1-0.6-1-1.2l1-10.5c0.2-1.2,1.9-1.2,2.1,0l1.1,10.5
			C221.5,68.3,221,68.9,220.3,68.9z"/>
	</g>
	<g>
		<path class="st0" d="M99.2,23.1h4.9c1.5,0,2.2,0.7,2.2,2.1v5c0,1.4-0.7,2.1-2.2,2.1h-2.7v5.8h-2.2C99.2,38.1,99.2,23.1,99.2,23.1z
			 M104.2,29.9v-4.3c0-0.3,0-0.5-0.1-0.6s-0.3-0.1-0.6-0.1h-2.1v5.7h2.1c0.3,0,0.5,0,0.6-0.1C104.1,30.3,104.2,30.1,104.2,29.9z"/>
		<path class="st0" d="M110.1,26.4h2.6c1.5,0,2.2,0.7,2.2,2.1V36c0,1.4-0.7,2.1-2.2,2.1h-2.6c-1.5,0-2.2-0.7-2.2-2.1v-7.4
			C107.9,27.1,108.7,26.4,110.1,26.4z M112.8,35.7v-6.8c0-0.3,0-0.5-0.1-0.6s-0.3-0.1-0.6-0.1h-1.3c-0.3,0-0.5,0-0.6,0.1
			s-0.1,0.3-0.1,0.6v6.8c0,0.3,0,0.5,0.1,0.6s0.3,0.1,0.6,0.1h1.3c0.3,0,0.5,0,0.6-0.1C112.7,36.1,112.8,35.9,112.8,35.7z"/>
		<path class="st0" d="M126.7,26.4h2l-2.2,11.7h-2.8l-1.4-8.8l-1.4,8.8h-2.8L116,26.4h2l1.6,9.8l1.5-9.8h2.6l1.5,9.8L126.7,26.4z"/>
		<path class="st0" d="M132,26.4h2.3c1.5,0,2.2,0.7,2.2,2.1v4.4h-4.7v2.8c0,0.3,0,0.5,0.1,0.6s0.3,0.1,0.6,0.1h1.1
			c0.3,0,0.5,0,0.6-0.1s0.1-0.3,0.1-0.6v-1h2.1V36c0,1.4-0.7,2.1-2.2,2.1H132c-1.5,0-2.2-0.7-2.2-2.1v-7.4
			C129.8,27.1,130.5,26.4,132,26.4z M131.9,31.3h2.6v-2.5c0-0.3,0-0.5-0.1-0.5c-0.1-0.1-0.3-0.1-0.6-0.1h-1.2c-0.3,0-0.5,0-0.6,0.1
			s-0.1,0.3-0.1,0.5L131.9,31.3L131.9,31.3z"/>
		<path class="st0" d="M142.5,26.4h0.5v1.9h-0.9c-1,0-1.5,0.6-1.5,1.8v8.1h-2.2V26.4h2.2v1.4c0.1-0.4,0.4-0.8,0.7-1
			C141.6,26.5,142,26.4,142.5,26.4z"/>
		<path class="st0" d="M146.3,26.4h2.3c1.5,0,2.2,0.7,2.2,2.1v4.4h-4.7v2.8c0,0.3,0,0.5,0.1,0.6s0.3,0.1,0.6,0.1h1.1
			c0.3,0,0.5,0,0.6-0.1s0.1-0.3,0.1-0.6v-1h2.1V36c0,1.4-0.7,2.1-2.2,2.1h-2.3c-1.5,0-2.2-0.7-2.2-2.1v-7.4
			C144.1,27.1,144.8,26.4,146.3,26.4z M146.2,31.3h2.6v-2.5c0-0.3,0-0.5-0.1-0.5c-0.1-0.1-0.3-0.1-0.6-0.1h-1.2
			c-0.3,0-0.5,0-0.6,0.1s-0.1,0.3-0.1,0.5L146.2,31.3L146.2,31.3z"/>
		<path class="st0" d="M157.1,22.1h2.2v16h-2.2v-0.9c-0.2,0.6-0.7,0.9-1.5,0.9h-0.9c-1.4,0-2.2-0.7-2.2-2.1v-7.5
			c0-1.4,0.7-2.1,2.2-2.1h0.9c0.8,0,1.3,0.3,1.5,0.9V22.1z M155.5,36.3h0.8c0.3,0,0.5-0.1,0.6-0.2c0.1-0.1,0.2-0.3,0.2-0.6V29
			c0-0.3-0.1-0.5-0.2-0.6c-0.1-0.1-0.3-0.2-0.6-0.2h-0.8c-0.3,0-0.5,0-0.6,0.1s-0.1,0.3-0.1,0.6v6.8c0,0.3,0,0.5,0.1,0.6
			C155,36.3,155.2,36.3,155.5,36.3z"/>
		<path class="st0" d="M165,23.1h5.2c1.5,0,2.2,0.7,2.2,2.1V29c0,0.8-0.3,1.3-1,1.5c0.6,0.2,1,0.6,1,1.4V36c0,1.4-0.7,2.1-2.2,2.1
			H165V23.1z M170.3,28.9v-3.4c0-0.3,0-0.5-0.1-0.6s-0.3-0.1-0.6-0.1h-2.4v4.8h2.4c0.3,0,0.5,0,0.6-0.1
			C170.2,29.4,170.3,29.2,170.3,28.9z M170.3,35.7V32c0-0.3,0-0.5-0.1-0.6s-0.3-0.1-0.6-0.1h-2.4v5.1h2.4c0.3,0,0.5,0,0.6-0.1
			C170.2,36.2,170.3,36,170.3,35.7z"/>
		<path class="st0" d="M176.3,41.4h-1.4v-1.7h1c0.7,0,1.1-0.3,1.2-0.8l0.2-1h-1.2l-2.4-11.5h2.2l1.8,9.8l1.6-9.8h2.2L179,39.2
			C178.7,40.6,177.8,41.4,176.3,41.4z"/>
	</g>
</g>
</svg>
