<svg width="18" height="18" viewBox="0 0 18 18" fill="none" xmlns="http://www.w3.org/2000/svg">
<path fill-rule="evenodd" clip-rule="evenodd" d="M17.75 2C17.75 1.0335 16.9665 0.25 16 0.25H11C10.0335 0.25 9.24998 1.0335 9.24998 2V7.29612C7.81718 7.47783 6.80358 8.17745 6.15638 9.05475C5.63498 9.76147 5.36018 10.5708 5.27738 11.2846C3.43538 11.4656 2.15328 12.3359 1.34628 13.4297C0.465085 14.6243 0.167785 16.0603 0.268885 17.0744C0.307185 17.4579 0.629784 17.75 1.01518 17.75H9.99998H17C17.4142 17.75 17.75 17.4142 17.75 17V2ZM6.00188 12.75C6.02988 12.7503 6.05809 12.7491 6.08659 12.7463C6.49879 12.7052 6.79958 12.3378 6.75848 11.9256C6.70998 11.4397 6.86139 10.6257 7.36339 9.94525C7.74299 9.43071 8.33516 8.97476 9.24998 8.81273V16.25H1.77898C1.85628 15.656 2.09258 14.9449 2.55338 14.3203C3.18178 13.4685 4.24638 12.75 5.99998 12.75C6.00058 12.75 6.00128 12.75 6.00188 12.75ZM10.75 8V2C10.75 1.86193 10.8619 1.75 11 1.75H16C16.1381 1.75 16.25 1.86193 16.25 2V16.25H10.75V8Z" fill="#23303D"/>
</svg>
