<svg width="18" height="18" viewBox="0 0 18 18" fill="none" xmlns="http://www.w3.org/2000/svg">
<path d="M4.19276 13.9999L4.20007 13.2499H4.19276V13.9999ZM2.06502 13.1064L1.53469 13.6367L1.53469 13.6367L2.06502 13.1064ZM2.06502 8.79155L2.59535 9.32188H2.59535L2.06502 8.79155ZM4.58694 5.25879L5.11727 5.78912L5.11727 5.78912L4.58694 5.25879ZM14.0906 6.49478L13.5603 7.02511V7.02512L14.0906 6.49478ZM15.9703 8.56529L15.4174 9.07209L15.9703 8.56529ZM16.8251 10.8165L16.0751 10.8165V10.8165H16.8251ZM15.9703 13.0677L15.4174 12.5609H15.4174L15.9703 13.0677ZM13.9495 13.9999V13.2498L13.9375 13.25L13.9495 13.9999ZM14.1834 13.9859L14.2609 14.7319L14.1834 13.9859ZM2.31859 8.56478L1.85057 7.97872L2.31859 8.56478ZM4.22235 14L4.22237 13.25L4.22235 14ZM13.9069 14.0002L13.9069 14.7502L13.9069 14.0002ZM15.6128 8.23352L15.1493 8.82315L15.6128 8.23352ZM4.08853 13.9971L4.12142 13.2478L4.08853 13.9971ZM13.9065 13.2499H4.2225V14.7499H13.9065V13.2499ZM4.22237 13.25C4.21491 13.25 4.20747 13.25 4.20007 13.2499L4.18545 14.7498C4.19777 14.7499 4.21006 14.75 4.22234 14.75L4.22237 13.25ZM4.19276 13.2499H4.09127V14.7499H4.19276V13.2499ZM4.12142 13.2478C3.5479 13.2226 3.00301 12.9837 2.59535 12.576L1.53469 13.6367C2.20811 14.3101 3.10819 14.7048 4.05565 14.7463L4.12142 13.2478ZM2.59535 12.576C2.16382 12.1445 1.92139 11.5592 1.92139 10.949H0.421387C0.421387 11.9571 0.821852 12.9239 1.53469 13.6367L2.59535 12.576ZM1.92139 10.949C1.92139 10.3387 2.16382 9.75341 2.59535 9.32188L1.53469 8.26122C0.821852 8.97405 0.421387 9.94086 0.421387 10.949H1.92139ZM2.59535 9.32188C2.65618 9.26104 2.72005 9.20398 2.7866 9.15084L1.85057 7.97872C1.74061 8.06654 1.63512 8.16079 1.53469 8.26122L2.59535 9.32188ZM4.27157 7.14235C4.44545 6.63757 4.73264 6.17374 5.11727 5.78912L4.05661 4.72846C3.50934 5.27572 3.10072 5.93573 2.85335 6.65381L4.27157 7.14235ZM5.11727 5.78912C5.7826 5.12378 6.68499 4.75 7.62592 4.75V3.25C6.28717 3.25 5.00325 3.78182 4.05661 4.72846L5.11727 5.78912ZM7.62592 4.75C8.56684 4.75 9.46923 5.12378 10.1346 5.78912L11.1952 4.72846C10.2486 3.78182 8.96467 3.25 7.62592 3.25V4.75ZM12.175 6.50158C12.2124 6.49923 12.2501 6.49805 12.2878 6.49805V4.99805C12.2187 4.99805 12.1497 5.00022 12.081 5.00453L12.175 6.50158ZM12.2878 6.49805C12.7651 6.49805 13.2228 6.68764 13.5603 7.02511L14.6209 5.96445C14.0022 5.34567 13.1629 4.99805 12.2878 4.99805V6.49805ZM13.5603 7.02512C13.6497 7.11451 13.7287 7.21229 13.7965 7.31661L15.054 6.49896C14.9296 6.30759 14.7848 6.12827 14.6209 5.96445L13.5603 7.02512ZM15.1493 8.82315C15.2434 8.89711 15.3332 8.98016 15.4174 9.07209L16.5232 8.0585C16.3844 7.9071 16.2349 7.76855 16.0763 7.64388L15.1493 8.82315ZM15.4174 9.07209C15.8321 9.52449 16.0751 10.151 16.0751 10.8165L17.5751 10.8165C17.5751 9.79327 17.2031 8.80022 16.5232 8.0585L15.4174 9.07209ZM16.0751 10.8165C16.0751 11.482 15.8321 12.1085 15.4174 12.5609L16.5232 13.5745C17.2031 12.8328 17.5751 11.8397 17.5751 10.8165H16.0751ZM15.4174 12.5609C15.054 12.9574 14.5879 13.1898 14.1059 13.2399L14.2609 14.7319C15.1238 14.6422 15.9232 14.229 16.5232 13.5745L15.4174 12.5609ZM14.1701 13.2499H13.9495V14.7499H14.1701V13.2499ZM13.9375 13.25C13.9273 13.2501 13.9171 13.2502 13.9068 13.2502L13.9069 14.7502C13.9251 14.7502 13.9433 14.7501 13.9615 14.7498L13.9375 13.25ZM13.4271 13.9928C13.4271 13.5825 13.7597 13.2499 14.1701 13.2499V14.7499C14.5882 14.7499 14.9271 14.4109 14.9271 13.9928H13.4271ZM14.1059 13.2399C13.7217 13.2798 13.4271 13.6035 13.4271 13.9928H14.9271C14.9271 14.375 14.6379 14.6927 14.2609 14.7319L14.1059 13.2399ZM2.7866 9.15084C3.40713 8.6553 3.98615 7.97089 4.27157 7.14235L2.85335 6.65381C2.68555 7.14094 2.31741 7.60592 1.85057 7.97872L2.7866 9.15084ZM4.09127 13.2499C4.50471 13.2499 4.83987 13.585 4.83987 13.9985H3.33987C3.33987 14.4134 3.67628 14.7499 4.09127 14.7499V13.2499ZM10.1346 5.78912C10.6981 6.35263 11.4928 6.5444 12.175 6.50158L12.081 5.00453C11.7089 5.02789 11.3788 4.91199 11.1952 4.72846L10.1346 5.78912ZM3.47243 13.9999C3.47243 13.5857 3.80819 13.25 4.22237 13.25L4.22234 14.75C4.63659 14.75 4.97243 14.4142 4.97243 13.9999H3.47243ZM13.9068 13.2502C14.321 13.2502 14.6567 13.5859 14.6567 14H13.1567C13.1567 14.4143 13.4926 14.7502 13.9069 14.7502L13.9068 13.2502ZM4.2225 13.2499C3.80245 13.2499 3.47243 13.5915 3.47243 13.9999H4.97243C4.97243 14.4083 4.64247 14.7499 4.2225 14.7499V13.2499ZM13.7965 7.31661C14.1533 7.86541 14.6108 8.39987 15.1493 8.82315L16.0763 7.64388C15.6899 7.3401 15.3385 6.93649 15.054 6.49896L13.7965 7.31661ZM4.83987 13.9985C4.83987 13.5951 4.52205 13.2654 4.12142 13.2478L4.05565 14.7463C3.65651 14.7288 3.33987 14.4003 3.33987 13.9985H4.83987ZM13.9065 14.7499C13.4924 14.7499 13.1567 14.4141 13.1567 14H14.6567C14.6567 13.5857 14.3208 13.2499 13.9065 13.2499V14.7499Z" fill="#F3F5F7"/>
</svg>
