<svg width="18" height="18" viewBox="0 0 18 18" fill="none" xmlns="http://www.w3.org/2000/svg">
<g clip-path="url(#clip0_333_4764)">
<path d="M10.0992 5.7002H2.19922C1.64693 5.7002 1.19922 6.14791 1.19922 6.7002V15.8002C1.19922 16.3525 1.64693 16.8002 2.19922 16.8002H10.0992C10.6515 16.8002 11.0992 16.3525 11.0992 15.8002V6.7002C11.0992 6.14791 10.6515 5.7002 10.0992 5.7002Z" stroke="#F3F5F7" stroke-width="1.5" stroke-linecap="round" stroke-linejoin="round"/>
<path d="M15.7984 1.2002H7.89844C7.34615 1.2002 6.89844 1.64791 6.89844 2.2002V15.8002C6.89844 16.3525 7.34615 16.8002 7.89844 16.8002H15.7984C16.3507 16.8002 16.7984 16.3525 16.7984 15.8002V2.2002C16.7984 1.64791 16.3507 1.2002 15.7984 1.2002Z" stroke="#F3F5F7" stroke-width="1.5" stroke-linecap="round" stroke-linejoin="round"/>
</g>
<defs>
<clipPath id="clip0_333_4764">
<rect width="18" height="18" fill="white"/>
</clipPath>
</defs>
</svg>
