<svg width="24" height="23" viewBox="0 0 24 23" fill="none" xmlns="http://www.w3.org/2000/svg">
<path d="M12 0C10.4241 0 8.86371 0.304841 7.4078 0.897119C5.95189 1.4894 4.62902 2.35751 3.51472 3.4519C1.26428 5.66211 0 8.6598 0 11.7855C0 16.9947 3.444 21.4143 8.208 22.9817C8.808 23.076 9 22.7107 9 22.3925C9 22.1214 9 21.3789 9 20.4007C5.676 21.1078 4.968 18.8215 4.968 18.8215C4.416 17.4543 3.636 17.089 3.636 17.089C2.544 16.3583 3.72 16.3819 3.72 16.3819C4.92 16.4644 5.556 17.5958 5.556 17.5958C6.6 19.3872 8.364 18.8568 9.048 18.574C9.156 17.8079 9.468 17.2893 9.804 16.9947C7.14 16.7001 4.344 15.6865 4.344 11.1962C4.344 9.88804 4.8 8.83913 5.58 8.00236C5.46 7.70772 5.04 6.48203 5.7 4.89099C5.7 4.89099 6.708 4.57278 9 6.09311C9.948 5.83383 10.98 5.70419 12 5.70419C13.02 5.70419 14.052 5.83383 15 6.09311C17.292 4.57278 18.3 4.89099 18.3 4.89099C18.96 6.48203 18.54 7.70772 18.42 8.00236C19.2 8.83913 19.656 9.88804 19.656 11.1962C19.656 15.6983 16.848 16.6883 14.172 16.9829C14.604 17.3483 15 18.0672 15 19.1632C15 20.7425 15 22.0153 15 22.3925C15 22.7107 15.192 23.0878 15.804 22.9817C20.568 21.4025 24 16.9947 24 11.7855C24 10.2378 23.6896 8.70527 23.0866 7.27539C22.4835 5.84551 21.5996 4.54628 20.4853 3.4519C19.371 2.35751 18.0481 1.4894 16.5922 0.897119C15.1363 0.304841 13.5759 0 12 0Z" fill="#74818A"/>
</svg>
