<svg viewBox="0 0 16 16" fill="none" xmlns="http://www.w3.org/2000/svg">
   <rect width="16" height="16" fill="white"/>
   <path d="M15 2.28572V3.71428C15 4.97322 11.8646 6 8 6C4.13541 6 1 4.97322 1 3.71428V2.28572C1 1.02678 4.13541 0 8 0C11.8646 0 15 1.02678 15 2.28572ZM15 5.5V8.71428C15 9.97322 11.8646 11 8 11C4.13541 11 1 9.97322 1 8.71428V5.5C2.50391 6.53572 5.2565 7.01788 8 7.01788C10.7435 7.01788 13.4961 6.53572 15 5.5ZM15 10.5V13.7143C15 14.9732 11.8646 16 8 16C4.13541 16 1 14.9732 1 13.7143V10.5C2.50391 11.5357 5.2565 12.0179 8 12.0179C10.7435 12.0179 13.4961 11.5357 15 10.5Z" fill="#64748B"/>
</svg>
