<svg stroke="#888" id="Layer_1" data-name="Layer 1" xmlns="http://www.w3.org/2000/svg" viewBox="0 0 42.1 62.45"><defs><style>.cls-1{fill:#fff;}.cls-2{fill:#dd00a1;}.cls-3{fill:#f9d8d2;}.cls-4{fill:#10110e;}.cls-5{fill:#e5e5e5;}.cls-6{fill:#8accce;opacity:0.2;isolation:isolate;}.cls-7{fill:#515151;}</style></defs><path class="cls-1" d="M14.24,55.36c.92-.61-1.49-.38-1.69-.79a15,15,0,0,1-2.82-.51C8,53.62,3.9,50.85,3.47,48.25s0-7.65,1.83-10.61A17,17,0,0,1,9.73,33S6.16,24.51,5.85,18.1,6,.21,10.24,0s3.49,10.48,2.82,17.43a89.47,89.47,0,0,0-.21,13.89,19.45,19.45,0,0,1,5.51-.92,21.2,21.2,0,0,1,4.9.46S24.58,21,29,14.86,38,2.4,41,4.19s-.81,8.19-3.46,11.52-7.25,8.33-8.78,11a47.26,47.26,0,0,0-2.65,5.51,15,15,0,0,1,6.4,6.32c2.07,4.28,2.27,9.59,1.15,11.83a8.1,8.1,0,0,1-5.61,4c-1.32.1-6.91,1.48-6.91,1.48Z" transform="translate(0 0)"/><path class="cls-2" d="M24,30.94s3.33-8.7,6.32-13.6,7-8.59,8.26-7.84S36,14.85,32.66,19.32a112.3,112.3,0,0,0-7.44,12.37Z" transform="translate(0 0)"/><path class="cls-2" d="M10.64,32.44l.95-.75s-.13-8.7,0-14S12,5.78,10.23,5.85,7.23,11,7.92,18.23A86.92,86.92,0,0,0,10.64,32.44Z" transform="translate(0 0)"/><circle class="cls-3" cx="7.65" cy="49.17" r="1.94"/><circle class="cls-3" cx="30.57" cy="49.17" r="1.94"/><path class="cls-4" d="M22.33,49a.19.19,0,0,0-.25,0h0s-.57,1-1.41,1.06a2.11,2.11,0,0,1-1.5-.7V48c.54-.29,1.41-1.19,1.41-1.5a1.4,1.4,0,0,0-1.5-1.09c-1,0-1.7.65-1.7,1.19s1.1,1.23,1.41,1.44v1.45a1.77,1.77,0,0,1-1.3.7c-.8,0-1.4-1.08-1.4-1.09a.19.19,0,0,0-.25-.08h0a.18.18,0,0,0-.08.23h0c0,.06.71,1.29,1.73,1.29a2.07,2.07,0,0,0,1.5-.72,2.46,2.46,0,0,0,1.59.73h.14a2.47,2.47,0,0,0,1.71-1.25.18.18,0,0,0,0-.25A.24.24,0,0,0,22.33,49Z" transform="translate(0 0)"/><path class="cls-5" d="M9.73,33S7,26,6.42,22.29s-1-9.78-.3-13.85A46.3,46.3,0,0,1,7.31,2.85S6,12.34,6.49,16.49,9.73,33,9.73,33Z" transform="translate(0 0)"/><path class="cls-5" d="M23.26,30.85s2-10.59,4.91-14.76S34.73,6.9,36.52,5.62l1.82-1.28S31,12,28.17,18.34,23.26,30.85,23.26,30.85Z" transform="translate(0 0)"/><path class="cls-4" d="M11.6,42.85a1.52,1.52,0,1,0,1.52,1.52h0a1.52,1.52,0,0,0-1.5-1.52Zm.4,1.41a.42.42,0,1,1,.42-.42h0a.42.42,0,0,1-.41.43h0Z" transform="translate(0 0)"/><path class="cls-4" d="M26.55,42.85a1.52,1.52,0,1,0,1.51,1.53h0a1.52,1.52,0,0,0-1.51-1.53ZM27,44.26a.42.42,0,0,1-.43-.41h0a.43.43,0,0,1,.41-.43.42.42,0,0,1,.43.41h0a.41.41,0,0,1-.4.42h0Z" transform="translate(0 0)"/><ellipse class="cls-6" cx="19.36" cy="44.95" rx="14.1" ry="10.16"/><path class="cls-1" d="M36.43,39.3V32.58a2.46,2.46,0,0,0,1.91-2.29,2.65,2.65,0,0,0-5.27,0A2.48,2.48,0,0,0,35,32.58v6.55h-.2c-2-6.94-7.91-11.28-15.63-11.28S5.51,32.15,3.55,39.13H2.88A2.76,2.76,0,0,0,0,41.71v5.14a2.75,2.75,0,0,0,2.88,2.59h.91a13,13,0,0,0,3.59,5.11L6.09,55.72A.78.78,0,0,0,6,56.82l0,0H6c2.93,3.53,7.72,5.6,13.13,5.6s10.21-2,13.14-5.6a.79.79,0,0,0-.09-1.11h0l-1.3-1.19a13,13,0,0,0,3.59-5.08h1a2.74,2.74,0,0,0,2.87-2.6V41.71A2.58,2.58,0,0,0,36.43,39.3Zm-17.26-4c7.14,0,12.94,4.7,12.94,10.47,0,6.25-6.51,9-12.94,9S6.23,52,6.23,45.72C6.23,40,12,35.25,19.17,35.25Z" transform="translate(0 0)"/><path class="cls-7" d="M36.91,45.16H35v-1a18.61,18.61,0,0,0-.39-3.79h.82a1.35,1.35,0,0,1,1.44,1.25h0Z" transform="translate(0 0)"/><path class="cls-7" d="M35.47,48.18h-1A16.13,16.13,0,0,0,34.89,46h2v.85a1.34,1.34,0,0,1-1.36,1.32h-.06Z" transform="translate(0 0)"/><path class="cls-7" d="M19.17,61.1c-4.79,0-9.06-1.72-11.74-4.78l1.3-1.21a17.87,17.87,0,0,0,10.4,3,17.73,17.73,0,0,0,10.4-3l1.35,1.21C28.23,59.38,24,61.1,19.17,61.1Z" transform="translate(0 0)"/><path class="cls-7" d="M2.88,40.42h.85a19.33,19.33,0,0,0-.38,3.79,8.34,8.34,0,0,0,0,1H1.49v-3.5a1.27,1.27,0,0,1,1.24-1.29Z" transform="translate(0 0)"/><path d="M19.17,34.39a17.66,17.66,0,0,0-4.79.69V29.85a17.23,17.23,0,0,1,4.79-.64,17.3,17.3,0,0,1,4.8.64v5.26A15.91,15.91,0,0,0,19.17,34.39Z" transform="translate(0 0)"/><path class="cls-7" d="M1.44,46h2a17.56,17.56,0,0,0,.43,2.16h-1a1.35,1.35,0,0,1-1.44-1.25h0V46Z" transform="translate(0 0)"/><ellipse class="cls-7" cx="35.71" cy="30.29" rx="1.2" ry="1.08"/></svg>