<svg xmlns="http://www.w3.org/2000/svg" width="24" height="24" viewBox="0 0 24 24">
    <g id="prefix__Group_8285" data-name="Group 8285" transform="translate(.334)">
        <path id="prefix__discord-brands" d="M13.474 11.025a1.188 1.188 0 1 1-1.184-1.288 1.236 1.236 0 0 1 1.184 1.288zm-5.42-1.288a1.293 1.293 0 0 0 0 2.576 1.236 1.236 0 0 0 1.184-1.288 1.229 1.229 0 0 0-1.184-1.288zm12.255-7.346V23.21c-2.924-2.584-1.989-1.728-5.385-4.886l.615 2.147H2.379A2.385 2.385 0 0 1 0 18.081V2.391A2.385 2.385 0 0 1 2.379 0H17.93a2.385 2.385 0 0 1 2.379 2.391zM17 13.392a15.541 15.541 0 0 0-1.67-6.765 5.739 5.739 0 0 0-3.261-1.219l-.162.186A7.724 7.724 0 0 1 14.8 7.068a9.861 9.861 0 0 0-8.669-.337c-.429.2-.685.337-.685.337a7.829 7.829 0 0 1 3.052-1.52l-.116-.139a5.739 5.739 0 0 0-3.264 1.218 15.541 15.541 0 0 0-1.671 6.766 4.208 4.208 0 0 0 3.54 1.764s.429-.522.778-.963a3.609 3.609 0 0 1-2.031-1.369c.171.119.452.274.476.29a8.459 8.459 0 0 0 7.242.406 6.641 6.641 0 0 0 1.335-.685 3.662 3.662 0 0 1-2.1 1.381c.348.441.766.94.766.94A4.242 4.242 0 0 0 17 13.392z" transform="translate(1.762 .146)" style="fill:#505050"/>
        <path id="prefix__Rectangle_4799" d="M0 0H24V24H0z" data-name="Rectangle 4799" transform="translate(-.334)" style="fill:none"/>
    </g>
</svg>
