<svg xmlns="http://www.w3.org/2000/svg" version="1.1" xmlns:xlink="http://www.w3.org/1999/xlink" xmlns:svgjs="http://svgjs.com/svgjs" viewBox="0 0 48 48" height="48" width="48"><title>Exported from Streamline App (https://app.streamlineicons.com)</title><g transform="matrix(2,0,0,2,0,0)"><path d="M 12.001,9.75h1.5 " stroke="#FFFFFF" fill="none" stroke-width="1.5" stroke-linecap="round" stroke-linejoin="round"></path><path d="M 16.501,9.75h3 " stroke="#FFFFFF" fill="none" stroke-width="1.5" stroke-linecap="round" stroke-linejoin="round"></path><path d="M 23.251,9.75c0,2.485-2.015,4.5-4.5,4.5h-13.5c-2.485,0-4.5-2.015-4.5-4.5 s2.015-4.5,4.5-4.5h13.5C21.236,5.25,23.251,7.265,23.251,9.75z " stroke="#FFFFFF" fill="none" stroke-width="1.5" stroke-linecap="round" stroke-linejoin="round"></path><path d="M 5.626,9.375C5.419,9.374,5.251,9.542,5.25,9.749 c-0.001,0.207,0.167,0.375,0.374,0.376S5.999,9.958,6,9.751c0,0,0-0.001,0-0.001C6,9.543,5.832,9.375,5.626,9.375L5.626,9.375 " stroke="#FFFFFF" fill="none" stroke-width="1.5" stroke-linecap="round" stroke-linejoin="round"></path><path d="M 12.001,18.75h1.5 " stroke="#FFFFFF" fill="none" stroke-width="1.5" stroke-linecap="round" stroke-linejoin="round"></path><path d="M 16.501,18.75h3 " stroke="#FFFFFF" fill="none" stroke-width="1.5" stroke-linecap="round" stroke-linejoin="round"></path><path d="M 23.251,18.75c0,2.485-2.015,4.5-4.5,4.5h-13.5c-2.485,0-4.5-2.015-4.5-4.5s2.015-4.5,4.5-4.5 h13.5C21.236,14.25,23.251,16.265,23.251,18.75z " stroke="#FFFFFF" fill="none" stroke-width="1.5" stroke-linecap="round" stroke-linejoin="round"></path><path d="M 5.626,18.375c-0.207-0.001-0.375,0.167-0.376,0.374s0.167,0.375,0.374,0.376 C5.831,19.126,5.999,18.958,6,18.751c0,0,0-0.001,0-0.001C6,18.543,5.832,18.375,5.626,18.375L5.626,18.375 " stroke="#FFFFFF" fill="none" stroke-width="1.5" stroke-linecap="round" stroke-linejoin="round"></path><path d="M 22.827,7.843 L20.31,2.476c-0.494-1.053-1.553-1.726-2.716-1.726H6.408c-1.164,0-2.223,0.672-2.717,1.726L1.175,7.843" stroke="#FFFFFF" fill="none" stroke-width="1.5" stroke-linecap="round" stroke-linejoin="round"></path></g></svg>
