<svg xmlns="http://www.w3.org/2000/svg" viewBox="-285 377 40 40"><style>.st0{display:none}.st1{display:inline}.st2{fill:none;stroke:#ff7452;stroke-linecap:round;stroke-linejoin:round}.st3{fill:#6699d5}</style><g id="Layer_1" class="st0"><title>Artboard 3</title><g id="_Group_" class="st1"><path id="_Path_" class="st2" d="M-254.4 410.9h-19.3"/><path id="_Path_2" class="st2" d="M-277.8 406.8v-25.2h22.7v23.1"/><path id="_Path_3" class="st2" d="M-277.8 406.8c0 2.3 1.8 4.1 4.1 4.1s4.1-1.8 4.1-4.1c0-.7-.2-1.4-.6-2.1l19.5.1c1.1 2 .4 4.5-1.6 5.6-.6.3-1.3.5-2 .5"/><path id="_Path_4" class="st2" d="M-273.7 387.4h15.5"/><path id="_Path_5" class="st2" d="M-273.7 392.2h15.5"/><path id="_Path_6" class="st2" d="M-273.7 397.1h15.5"/></g></g><g id="Layer_2"><path class="st3" d="M-252.1 389.2l-7.7-7.5c-.1-.1-.3-.2-.5-.2H-275c-1.7 0-3.1 1.4-3.1 3.1v24.9c0 1.7 1.4 3.1 3.1 3.1h19.8c1.7 0 3.1-1.4 3.1-3.1v-19.8c.2-.3.1-.4 0-.5zm-7.5-5.6l5.5 5.3h-3.6c-.5 0-1-.2-1.3-.5-.3-.3-.5-.8-.5-1.3v-3.5zm6.4 25.9c0 1-.8 1.8-1.8 1.8h-19.8c-1 0-1.8-.8-1.8-1.8v-24.9c0-1 .8-1.8 1.8-1.8h14v4.4c0 .8.3 1.6.9 2.2.6.6 1.4.9 2.2.9h4.5v19.2z"/><path class="st3" d="M-263.8 402.8h-.3c-.4 0-.6.3-.6.6s.3.6.6.6h.3c.4 0 .6-.3.6-.6s-.3-.6-.6-.6zm-2.4 0h-6.3c-.4 0-.6.3-.6.6s.3.6.6.6h6.3c.4 0 .6-.3.6-.6s-.2-.6-.6-.6zm8.7-2.9h-15c-.4 0-.6.3-.6.6s.3.6.6.6h15c.4 0 .6-.3.6-.6s-.3-.6-.6-.6zm0-2.9h-15c-.4 0-.6.3-.6.6s.3.6.6.6h15c.4 0 .6-.3.6-.6s-.3-.6-.6-.6zm0-2.9h-15c-.4 0-.6.3-.6.6 0 .4.3.6.6.6h15c.4 0 .6-.3.6-.6s-.3-.6-.6-.6z"/></g></svg>