<svg xmlns="http://www.w3.org/2000/svg" viewBox="-285 377 40 40"><style>.st3{fill:#6699d5}</style><g id="Layer_2"><path d="M-252.1 389.2l-7.7-7.5c-.1-.1-.3-.2-.5-.2H-275c-1.7 0-3.1 1.4-3.1 3.1v24.9c0 1.7 1.4 3.1 3.1 3.1h19.8c1.7 0 3.1-1.4 3.1-3.1v-19.8c.2-.3.1-.4 0-.5zm-7.5-5.6l5.5 5.3h-3.6c-.5 0-1-.2-1.3-.5-.3-.3-.5-.8-.5-1.3v-3.5zm6.4 25.9c0 1-.8 1.8-1.8 1.8h-19.8c-1 0-1.8-.8-1.8-1.8v-24.9c0-1 .8-1.8 1.8-1.8h14v4.4c0 .8.3 1.6.9 2.2.6.6 1.4.9 2.2.9h4.5v19.2z" class="st3"/><path d="M-263.8 402.8h-.3c-.4 0-.6.3-.6.6s.3.6.6.6h.3c.4 0 .6-.3.6-.6s-.3-.6-.6-.6zm-2.4 0h-6.3c-.4 0-.6.3-.6.6s.3.6.6.6h6.3c.4 0 .6-.3.6-.6s-.2-.6-.6-.6zm8.7-2.9h-15c-.4 0-.6.3-.6.6s.3.6.6.6h15c.4 0 .6-.3.6-.6s-.3-.6-.6-.6zm0-2.9h-15c-.4 0-.6.3-.6.6s.3.6.6.6h15c.4 0 .6-.3.6-.6s-.3-.6-.6-.6zm0-2.9h-15c-.4 0-.6.3-.6.6 0 .4.3.6.6.6h15c.4 0 .6-.3.6-.6s-.3-.6-.6-.6z" class="st3"/></g></svg>