<svg width="100" viewBox="0 0 468 140" fill="none"
	xmlns="http://www.w3.org/2000/svg">
	<path d="M133.607 47.6726C137.641 35.1154 135.215 10.0642 127.4 0.815655C126.376 -0.397521 124.469 -0.22421 123.618 1.11501L113.992 16.2246C111.613 19.2496 107.327 19.9429 104.097 17.8316C93.6514 10.9937 81.1731 7.02333 67.7651 7.02333C54.3572 7.02333 41.8788 10.9937 31.4329 17.8316C28.2187 19.9429 23.9332 19.2339 21.5384 16.2246L11.9118 1.11501C11.061 -0.22421 9.15454 -0.381765 8.13043 0.815655C0.315691 10.0799 -2.11066 35.1312 1.92275 47.6726C3.26198 51.8478 3.62435 56.2594 2.83658 60.5449C2.0488 64.7989 1.26102 69.9352 1.26102 73.5117C1.26102 110.238 31.039 140 67.7494 140C104.475 140 134.238 110.222 134.238 73.5117C134.238 69.9352 133.45 64.7989 132.662 60.5449C131.89 56.2594 132.268 51.8478 133.607 47.6726ZM67.7494 125.158C39.3579 125.158 16.276 102.061 16.276 73.6692C16.276 72.7396 16.3076 71.8258 16.3548 70.912C17.3789 51.5642 29.1326 35.0367 45.7546 27.1589C52.4192 23.9763 59.8873 22.2117 67.7651 22.2117C75.6429 22.2117 83.0952 23.9763 89.7756 27.1747C106.398 35.0524 118.151 51.5957 119.175 70.9278C119.223 71.8416 119.254 72.7712 119.254 73.685C119.238 102.061 96.1408 125.158 67.7494 125.158Z" fill="#0E1B2A"/>
	<path d="M90.0592 93.4897L76.9033 70.6757L65.6224 51.6587C65.3545 51.2018 64.8661 50.934 64.3462 50.934H53.5694C53.0337 50.934 52.5453 51.2176 52.2774 51.6903C52.0096 52.1472 52.0253 52.7144 52.2932 53.1713L63.0857 71.3059L48.6064 93.3951C48.307 93.8521 48.2913 94.435 48.5434 94.9077C48.7955 95.3803 49.2996 95.6797 49.8511 95.6797H60.7066C61.2108 95.6797 61.6835 95.4276 61.9513 95.0022L69.7818 82.7759L76.8088 94.9549C77.0766 95.4119 77.5651 95.6955 78.085 95.6955H88.783C89.3187 95.6955 89.8071 95.4119 90.0592 94.9549C90.327 94.5138 90.327 93.9466 90.0592 93.4897Z" fill="#0E1B2A"/>
	<path d="M195.558 35.4463H209.281V110.695H195.558V78.6322H180.055V110.71H166.332V35.4463H180.055V68.1233H195.558V35.4463Z" fill="#0E1B2A"/>
	<path d="M251.616 110.71L248.749 95.081H232.284L229.653 110.71H215.93L231.071 35.4621H249.552L265.418 110.71H251.616ZM234.08 84.6981H246.842L240.288 48.681L234.08 84.6981Z" fill="#0E1B2A"/>
	<path d="M295.984 96.9874V80.8853C295.984 79.6091 295.748 78.7583 295.275 78.3171C294.802 77.8759 293.92 77.6554 292.644 77.6554H282.986C274.793 77.6554 270.696 73.685 270.696 65.7284V47.263C270.696 39.3852 274.982 35.4621 283.569 35.4621H296.693C305.28 35.4621 309.565 39.4009 309.565 47.263V57.7561H295.732V49.1694C295.732 47.8932 295.495 47.0424 295.023 46.6012C294.55 46.1601 293.668 45.9395 292.392 45.9395H287.854C286.499 45.9395 285.585 46.1601 285.113 46.6012C284.64 47.0424 284.404 47.8932 284.404 49.1694V64.3104C284.404 65.5866 284.64 66.4374 285.113 66.8786C285.585 67.3197 286.499 67.5403 287.854 67.5403H297.276C305.626 67.5403 309.802 71.4319 309.802 79.2309V98.9096C309.802 106.787 305.469 110.71 296.803 110.71H283.915C275.25 110.71 270.917 106.772 270.917 98.9096V88.5267H284.624V96.9874C284.624 98.2636 284.861 99.1144 285.333 99.5556C285.806 99.9967 286.72 100.217 288.075 100.217H292.612C293.888 100.217 294.755 99.9967 295.243 99.5556C295.732 99.1144 295.984 98.2636 295.984 96.9874Z" fill="#0E1B2A"/>
	<path d="M346.417 35.4463H360.125V98.8938C360.125 106.772 355.792 110.695 347.126 110.695H332.584C323.919 110.695 319.586 106.756 319.586 98.8938V35.4463H333.309V96.9874C333.309 98.2636 333.545 99.1144 334.018 99.5556C334.49 99.9967 335.373 100.217 336.649 100.217H342.967C344.322 100.217 345.236 99.9967 345.708 99.5556C346.181 99.1144 346.417 98.2636 346.417 96.9874V35.4463V35.4463Z" fill="#0E1B2A"/>
	<path d="M385.176 81.3737V110.71H371.469V35.4463H399.135C407.801 35.4463 412.134 39.3852 412.134 47.2472V69.557C412.134 76.0798 409.235 79.8927 403.421 81.0113L415.947 110.71H401.152L389.698 81.3737H385.176ZM385.176 45.9395V71.2271H395.071C396.347 71.2271 397.213 71.0065 397.702 70.5654C398.174 70.1242 398.411 69.2734 398.411 67.9972V49.1694C398.411 47.8932 398.174 47.0424 397.702 46.6012C397.229 46.1601 396.347 45.9395 395.071 45.9395H385.176Z" fill="#0E1B2A"/>
	<path d="M453.634 110.71L450.766 95.081H434.302L431.671 110.71H417.963L433.104 35.4621H451.586L467.451 110.71H453.634ZM436.114 84.6981H448.876L442.321 48.681L436.114 84.6981Z" fill="#0E1B2A"/>
</svg>
