<?xml version="1.0" encoding="utf-8"?>
<!-- Generator: Adobe Illustrator 22.1.0, SVG Export Plug-In . SVG Version: 6.00 Build 0)  -->
<svg version="1.1" id="Layer_1" xmlns="http://www.w3.org/2000/svg" xmlns:xlink="http://www.w3.org/1999/xlink" x="0px" y="0px"
	 viewBox="0 0 30 30" style="enable-background:new 0 0 30 30;" xml:space="preserve">
<style type="text/css">
	.st0{fill:#FFFFFF;}
	.st1{fill:#102954;}
</style>
<g>
	<g id="Layer_2_2_">
		<g id="Layer_2_1_">
			<circle id="XMLID_118_" class="st0" cx="15" cy="15" r="15"/>
		</g>
	</g>
	<g>
		<g>
			<path class="st1" d="M23.2,11.6c0.6-1.4,0.6-4.2-0.2-6.4l0,0c-0.2-0.4-0.8-0.3-0.8,0.2v0.2c-0.1,2.1-0.9,3.2-2,3.7
				c-0.2,0.1-0.5,0.1-0.6-0.1c-1.3-0.8-2.9-1.3-4.6-1.3s-3.3,0.5-4.6,1.3c-0.2,0.1-0.4,0.1-0.6,0.1C8.8,8.8,8,7.5,7.8,5.5V5.3
				C7.7,4.9,7.2,4.8,7,5.2c-0.8,2.2-0.8,5-0.2,6.4c0.3,0.7,0.3,1.4,0.1,2.2c-0.3,0.9-0.5,1.9-0.4,2.9c0.1,4.5,3.9,8.4,8.5,8.4
				c4.8,0.1,8.7-3.8,8.7-8.6c0-1-0.2-1.9-0.4-2.7C22.9,13,23,12.2,23.2,11.6z"/>
		</g>
		<ellipse class="st0" cx="15" cy="16.5" rx="6.6" ry="6.6"/>
		<path class="st1" d="M16,15.8l-1.6-2.4c-0.3-0.4-0.8-0.5-1.2-0.3c-0.2,0.2-0.4,0.4-0.4,0.7c0,0.2,0.1,0.3,0.2,0.4l1.1,1.6
			c0.1,0.1,0.1,0.3,0,0.4l-1.6,1.8c-0.3,0.3-0.3,0.9,0.1,1.2c0.2,0.2,0.4,0.2,0.6,0.2c0.2,0,0.4-0.1,0.6-0.3l1.2-1.4
			c0.1-0.1,0.3-0.1,0.3,0l0.9,1.2c0.1,0.1,0.1,0.2,0.2,0.3c0.3,0.2,0.7,0.2,0.9,0l0,0c0.2-0.2,0.4-0.4,0.4-0.7
			c0-0.2-0.1-0.3-0.1-0.4L16,15.8z"/>
	</g>
</g>
</svg>
