<?xml version="1.0" encoding="UTF-8"?>
<svg width="66px" height="66px" viewBox="0 0 66 66" version="1.1" xmlns="http://www.w3.org/2000/svg" xmlns:xlink="http://www.w3.org/1999/xlink">
    <!-- Generator: Sketch 49.3 (51167) - http://www.bohemiancoding.com/sketch -->
    <title>GitHub</title>
    <desc>Created with Sketch.</desc>
    <defs></defs>
    <g id="Page-1" stroke="none" stroke-width="1" fill="none" fill-rule="evenodd">
        <g id="Hasura_Jun29-Update" transform="translate(-1248.000000, -872.000000)">
            <g id="Github" transform="translate(1248.000000, 872.000000)">
                <g>
                    <path d="M32.6142591,0 C14.6042621,0 0,15.1483029 0,33.8354681 C0,48.7848641 9.34497788,61.4678417 22.3036209,65.9418467 C23.9335777,66.2550551 24.5319847,65.2078522 24.5319847,64.3141718 C24.5319847,63.5073381 24.5017403,60.8419853 24.4876982,58.0147055 C15.4143798,60.0614858 13.4998016,54.0225596 13.4998016,54.0225596 C12.016206,50.1116573 9.87857542,49.0717383 9.87857542,49.0717383 C6.91948544,46.9717294 10.1016278,47.0148726 10.1016278,47.0148726 C13.3766637,47.2535609 15.1011343,50.5016269 15.1011343,50.5016269 C18.009997,55.6743275 22.7308229,54.1788836 24.5919334,53.3143389 C24.8846559,51.1274833 25.7298787,49.634841 26.6625942,48.7899068 C19.4185216,47.9343269 11.8034151,45.0330873 11.8034151,32.0682781 C11.8034151,28.3742124 13.0774602,25.3558699 15.1637834,22.9863562 C14.8251542,22.1341381 13.708812,18.6927682 15.4797293,14.0321829 C15.4797293,14.0321829 18.2184673,13.1228141 24.4509729,17.5004473 C27.0525309,16.7507643 29.8425763,16.3748022 32.6142591,16.3619153 C35.3859418,16.3748022 38.1781475,16.7507643 40.7845663,17.5004473 C47.0095108,13.1228141 49.7444682,14.0321829 49.7444682,14.0321829 C51.5197061,18.6927682 50.4028238,22.1341381 50.0641946,22.9863562 C52.1553785,25.3558699 53.4207824,28.3742124 53.4207824,32.0682781 C53.4207824,45.0639039 45.7910937,47.925362 38.5286585,48.7630123 C39.6984684,49.8130167 40.7408199,51.8721236 40.7408199,55.0288605 C40.7408199,59.5560941 40.7030144,63.1997327 40.7030144,64.3141718 C40.7030144,65.2145758 41.2900797,66.2696229 42.9432599,65.9373643 C55.8948819,61.4583166 65.227978,48.7798213 65.227978,33.8354681 C65.227978,15.1483029 50.6258763,0 32.6142591,0" id="Fill-4" fill="#FFFFFF"></path>
                    <path d="M12.4488405,48.3481695 C12.3771436,48.5146023 12.1227006,48.5645322 11.8908987,48.4502483 C11.6547842,48.3409575 11.5221719,48.1140541 11.5987205,47.9470665 C11.6688001,47.7756408 11.9237822,47.72793 12.1593576,47.8427686 C12.3960112,47.9520595 12.5307797,48.181182 12.4488405,48.3481695" id="Fill-5" fill="#161514"></path>
                    <path d="M13.767416,49.8615983 C13.6121626,50.0097235 13.3086638,49.9409313 13.1027375,49.7068159 C12.8898032,49.4732552 12.8499117,49.1609163 13.0073213,49.010572 C13.1674264,48.8624469 13.4617609,48.9317938 13.6752343,49.1653545 C13.8881686,49.4016891 13.9296773,49.7118088 13.767416,49.8615983" id="Fill-6" fill="#161514"></path>
                    <path d="M15.0509516,51.7911091 C14.8514942,51.9336865 14.5253543,51.7999855 14.3237405,51.5020708 C14.1242831,51.2041561 14.1242831,50.8468804 14.3280531,50.7037482 C14.530206,50.560616 14.8514942,50.6893241 15.0558033,50.9850196 C15.2547217,51.2879273 15.2547217,51.645203 15.0509516,51.7911091" id="Fill-7" fill="#161514"></path>
                    <path d="M16.8094117,53.6551563 C16.6309781,53.8576495 16.2509308,53.8032815 15.9727685,53.5270031 C15.6881373,53.2568272 15.6088934,52.873477 15.7878661,52.6709838 C15.9684559,52.4679358 16.3506595,52.5250777 16.6309781,52.799137 C16.913453,53.0687581 16.9997049,53.4548822 16.8094117,53.6551563" id="Fill-8" fill="#161514"></path>
                    <path d="M19.2352456,54.7375242 C19.1565407,54.9999332 18.7905093,55.1192101 18.4217826,55.0077001 C18.0535949,54.8928615 17.8126287,54.5855156 17.887021,54.3203327 C17.9635695,54.0562593 18.3312181,53.9319895 18.7026402,54.0512663 C19.0702889,54.1655502 19.3117941,54.470677 19.2352456,54.7375242" id="Fill-9" fill="#161514"></path>
                    <path d="M21.8993502,54.9383531 C21.9085145,55.2146315 21.5958515,55.443754 21.2087962,55.448747 C20.8195846,55.4576234 20.5047653,55.2340487 20.5004527,54.9622085 C20.5004527,54.6831562 20.8061078,54.4562528 21.1953193,54.4495955 C21.5823746,54.4418286 21.8993502,54.663739 21.8993502,54.9383531" id="Fill-10" fill="#161514"></path>
                    <path d="M23.7715549,55.124203 C23.3936639,55.1952144 23.0438048,55.0287816 22.9958272,54.7613796 C22.9489277,54.4851011 23.2227774,54.2082679 23.6001293,54.1367018 C23.9850283,54.0679096 24.3294967,54.2299042 24.3785525,54.5039635 C24.4249129,54.7735846 24.1559148,55.0504178 23.7715549,55.124203 Z" id="Fill-11" fill="#FFFFFF"></path>
                </g>
            </g>
        </g>
    </g>
</svg>