<svg width="500" height="162" viewBox="0 0 500 162" fill="none" xmlns="http://www.w3.org/2000/svg">
<g clip-path="url(#clip0)">
<path d="M80.8374 161.675C125.483 161.675 161.675 125.483 161.675 80.8374C161.675 36.1922 125.483 0 80.8374 0C36.1921 0 0 36.1922 0 80.8374C0 125.483 36.1921 161.675 80.8374 161.675Z" fill="#2C3ACF"/>
<path d="M28.3222 106.505C28.0352 106.505 27.7421 106.445 27.4654 106.317C26.4291 105.842 25.9728 104.618 26.4477 103.581L52.7342 46.1362C53.209 45.0998 54.4333 44.6436 55.4696 45.1184C56.506 45.5932 56.9622 46.8175 56.4874 47.8538L30.2008 105.299C29.854 106.057 29.1067 106.505 28.3222 106.505Z" fill="white"/>
<path d="M80.9016 106.505C80.1191 106.505 79.3697 106.057 79.0229 105.299L52.7343 47.8538C52.2595 46.8175 52.7157 45.5912 53.7521 45.1184C54.7884 44.6436 56.0147 45.0998 56.4874 46.1362L82.7761 103.581C83.2509 104.618 82.7946 105.844 81.7583 106.317C81.4796 106.445 81.1885 106.505 80.9016 106.505Z" fill="white"/>
<path d="M80.8974 106.505C80.6104 106.505 80.3173 106.445 80.0406 106.317C79.0043 105.842 78.548 104.618 79.0229 103.581L105.311 46.1362C105.786 45.0998 107.011 44.6436 108.047 45.1184C109.083 45.5932 109.539 46.8175 109.065 47.8538L82.776 105.299C82.4292 106.059 81.6819 106.505 80.8974 106.505Z" fill="white"/>
<path d="M133.479 106.505C132.696 106.505 131.947 106.057 131.6 105.299L105.311 47.8538C104.837 46.8175 105.293 45.5912 106.329 45.1184C107.366 44.6436 108.592 45.0998 109.065 46.1362L135.353 103.581C135.828 104.618 135.372 105.844 134.335 106.317C134.057 106.445 133.766 106.505 133.479 106.505Z" fill="white"/>
<path d="M28.1941 114.68C32.5507 114.68 36.0824 111.255 36.0824 107.031C36.0824 102.807 32.5507 99.3823 28.1941 99.3823C23.8376 99.3823 20.3059 102.807 20.3059 107.031C20.3059 111.255 23.8376 114.68 28.1941 114.68Z" fill="white"/>
<path d="M80.8375 114.68C85.194 114.68 88.7257 111.255 88.7257 107.031C88.7257 102.807 85.194 99.3823 80.8375 99.3823C76.4809 99.3823 72.9492 102.807 72.9492 107.031C72.9492 111.255 76.4809 114.68 80.8375 114.68Z" fill="white"/>
<path d="M133.481 114.68C137.837 114.68 141.369 111.255 141.369 107.031C141.369 102.807 137.837 99.3823 133.481 99.3823C129.124 99.3823 125.593 102.807 125.593 107.031C125.593 111.255 129.124 114.68 133.481 114.68Z" fill="white"/>
</g>
<defs>
<clipPath id="clip0">
<rect width="500" height="161.675" fill="white"/>
</clipPath>
</defs>
</svg>
