<svg xmlns="http://www.w3.org/2000/svg" width="246" height="84" viewBox="0 0 246 84" fill="none">
    <path d="M80.1819 28.6021C82.599 21.0733 81.1467 6.03641 76.4576 0.488322C75.8455 -0.237596 74.694 -0.133894 74.1857 0.664616L68.4074 9.72822C66.9758 11.543 64.403 11.9578 62.4734 10.6927C56.2075 6.5964 48.7174 4.21124 40.6672 4.21124C32.6169 4.21124 25.1269 6.5964 18.861 10.6927C16.9314 11.9578 14.3586 11.5326 12.927 9.72822L7.14868 0.664616C6.64036 -0.133894 5.48884 -0.237596 4.87677 0.488322C0.187706 6.03641 -1.26466 21.0733 1.15249 28.6021C1.95129 31.1013 2.17952 33.7457 1.70232 36.3279C1.23548 38.879 0.758278 41.9693 0.758278 44.1056C0.758278 66.132 18.6327 84 40.6672 84C62.712 84 80.5761 66.1424 80.5761 44.1056C80.5761 41.959 80.1093 38.879 79.6321 36.3279C79.1549 33.7457 79.3831 31.1013 80.1819 28.6021ZM40.6672 75.0816C23.633 75.0816 9.77332 61.2269 9.77332 44.199C9.77332 43.639 9.79406 43.0893 9.81481 42.5397C10.4373 30.9354 17.4812 21.0111 27.461 16.2822C31.4654 14.3741 35.947 13.3163 40.6672 13.3163C45.3874 13.3163 49.869 14.3845 53.8837 16.2926C63.8635 21.0214 70.9075 30.9458 71.5299 42.5397C71.5611 43.0893 71.5714 43.639 71.5714 44.199C71.5611 61.2269 57.7014 75.0816 40.6672 75.0816Z" fill="black" />
    <path d="M54.0493 56.0829L46.1546 42.4045L39.3804 30.9972C39.2248 30.7276 38.9343 30.5616 38.6127 30.5616H32.1393C31.8177 30.5616 31.5272 30.7379 31.3716 31.0076C31.216 31.2876 31.216 31.6298 31.382 31.8994L37.8554 42.7882L29.162 56.0414C28.9856 56.311 28.9648 56.6636 29.1205 56.954C29.2761 57.2443 29.5769 57.4206 29.8985 57.4206H36.4134C36.7142 57.4206 36.9943 57.2651 37.1603 57.0162L41.8598 49.674L46.0716 56.9747C46.2272 57.2547 46.5281 57.4206 46.8393 57.4206H53.2608C53.5824 57.4206 53.8729 57.2547 54.0285 56.9747C54.2152 56.6947 54.2152 56.3629 54.0493 56.0829Z" fill="black" />
    <path d="M110.992 10.6724H117.798V48.026H110.992V32.0973H103.295V48.0157H96.4893V10.6724H103.295V26.8914H110.992V10.6724Z" fill="black" />
    <path d="M138.826 48.016L137.404 40.2591H129.23L127.923 48.016H121.117L128.638 10.6727H137.819L145.693 48.0264H138.826V48.016ZM130.122 35.1154H136.46L133.203 17.2371L130.122 35.1154Z" fill="black" />
    <path d="M160.849 41.2131V33.2177C160.849 32.5851 160.735 32.1599 160.497 31.9421C160.258 31.7243 159.822 31.6206 159.19 31.6206H154.397C150.33 31.6206 148.297 29.6503 148.297 25.6992V16.5215C148.297 12.612 150.424 10.6624 154.687 10.6624H161.202C165.466 10.6624 167.593 12.612 167.593 16.5215V21.7274H160.725V17.4652C160.725 16.8327 160.611 16.4075 160.372 16.1897C160.134 15.9719 159.698 15.8682 159.065 15.8682H156.814C156.14 15.8682 155.694 15.9823 155.455 16.1897C155.216 16.3971 155.102 16.8327 155.102 17.4652V24.9837C155.102 25.6163 155.216 26.0414 155.455 26.2592C155.694 26.477 156.15 26.5807 156.814 26.5807H161.493C165.642 26.5807 167.707 28.5199 167.707 32.3777V42.1465C167.707 46.056 165.559 48.0056 161.254 48.0056H154.853C150.548 48.0056 148.401 46.056 148.401 42.1465V36.9924H155.206V41.1924C155.206 41.825 155.32 42.2502 155.559 42.4679C155.797 42.6857 156.254 42.7894 156.918 42.7894H159.169C159.802 42.7894 160.237 42.6857 160.476 42.4679C160.725 42.2709 160.849 41.8457 160.849 41.2131Z" fill="black" />
    <path d="M185.893 10.6727H192.698V42.1672C192.698 46.0768 190.55 48.0264 186.245 48.0264H179.025C174.72 48.0264 172.572 46.0768 172.572 42.1672V10.6727H179.378V41.2131C179.378 41.8457 179.492 42.2709 179.73 42.4887C179.969 42.7065 180.405 42.8102 181.037 42.8102H184.181C184.855 42.8102 185.301 42.7065 185.54 42.4887C185.778 42.2709 185.893 41.8457 185.893 41.2131V10.6727Z" fill="black" />
    <path d="M205.136 33.4562V48.016H198.331V10.6727H212.066C216.372 10.6727 218.519 12.6223 218.519 16.5319V27.597C218.519 30.8325 217.077 32.7303 214.193 33.2799L220.407 48.016H213.062L207.377 33.4562H205.136ZM205.136 15.8786V28.4266H210.054C210.687 28.4266 211.122 28.3229 211.361 28.1051C211.599 27.8874 211.714 27.4622 211.714 26.8296V17.4756C211.714 16.843 211.599 16.4179 211.361 16.2001C211.122 15.9823 210.687 15.8786 210.054 15.8786H205.136Z" fill="black" />
    <path d="M239.122 48.016L237.701 40.2591H229.526L228.229 48.016H221.424L228.945 10.6624H238.126L246 48.016H239.122ZM230.418 35.1154H236.757L233.499 17.2371L230.418 35.1154Z" fill="black" />
    <path fill-rule="evenodd" clip-rule="evenodd" d="M98.7139 53.5498C97.6093 53.5498 96.7139 54.4452 96.7139 55.5498V76.7495C96.7139 77.8541 97.6093 78.7495 98.7139 78.7495H141.494C142.598 78.7495 143.494 77.8541 143.494 76.7495V55.5498C143.494 54.4452 142.598 53.5498 141.494 53.5498H98.7139ZM116.922 70.5302H109.201V67.0275H114.853V64.5579H109.201V61.3827H116.669V58.7872H106.224V72.9746H116.922V70.5302ZM133.869 70.5302H126.148V67.0275H131.8V64.5579H126.148V61.3827H133.616V58.7872H123.171V72.9746H133.869V70.5302Z" fill="black" />
</svg>