<svg xmlns="http://www.w3.org/2000/svg" width="80.92" height="78" viewBox="0 0 80.92 78">
    <defs>
        <style>
            .cls-1{fill:url(#linear-gradient)}.cls-2{filter:url(#quote)}
        </style>
        <linearGradient id="linear-gradient" x1=".5" x2=".5" y2="1" gradientUnits="objectBoundingBox">
            <stop offset="0" stop-color="#260687"/>
            <stop offset="1" stop-color="#6a096a"/>
        </linearGradient>
        <filter id="quote" width="80.92" height="78" x="0" y="0" filterUnits="userSpaceOnUse">
            <feOffset dy="3"/>
            <feGaussianBlur result="blur" stdDeviation="3"/>
            <feFlood flood-opacity=".161"/>
            <feComposite in2="blur" operator="in"/>
            <feComposite in="SourceGraphic"/>
        </filter>
    </defs>
    <g class="cls-2">
        <path id="quote-2" d="M48.319 32.114v5.065H35.665v27.253H62.92V32.114c0-10.285-2.959-17.921-8.8-22.7-4.037-3.305-9.148-4.981-15.19-4.981v14.6c3.283 0 9.389 0 9.389 13.081zM3.268 19.033v-14.6c6.042 0 11.152 1.676 15.19 4.981 5.836 4.778 8.8 12.415 8.8 22.7v32.318H0V37.179h12.653v-5.065c0-13.081-6.105-13.081-9.385-13.081z" class="cls-1" data-name="quote" transform="translate(9 1.57)"/>
    </g>
</svg>
