<svg xmlns="http://www.w3.org/2000/svg" width="40.672" height="30" viewBox="0 0 40.672 30">
    <defs>
        <style>
            .cls-1{fill:url(#linear-gradient)}
        </style>
        <linearGradient id="linear-gradient" x1=".5" x2=".5" y2="1" gradientUnits="objectBoundingBox">
            <stop offset="0" stop-color="#2b0684"/>
            <stop offset="1" stop-color="#68086a"/>
        </linearGradient>
    </defs>
    <path id="Path_1934" d="M-6.644-67.383v5.042A12.044 12.044 0 0 0-14-59.8a7.429 7.429 0 0 0-3.4 6.071q0 2.1 1.681 2.1a7.693 7.693 0 0 0 1.513-.294 9.5 9.5 0 0 1 1.891-.252A6.35 6.35 0 0 1-7.968-50.3a6.637 6.637 0 0 1 2.038 5.144 7.83 7.83 0 0 1-2.1 5.483 7.424 7.424 0 0 1-5.756 2.29 8.666 8.666 0 0 1-7.059-3.3q-2.689-3.3-2.689-9.181 0-8.109 4.937-12.71a17.722 17.722 0 0 1 11.953-4.809zm23.067 0v5.042a12.339 12.339 0 0 0-7.248 2.5 7.337 7.337 0 0 0-3.508 6.113q0 2.1 1.681 2.1a7.693 7.693 0 0 0 1.513-.294 9.5 9.5 0 0 1 1.891-.252 6.168 6.168 0 0 1 4.412 1.933 6.794 6.794 0 0 1 1.975 5.084 7.83 7.83 0 0 1-2.1 5.483 7.424 7.424 0 0 1-5.756 2.29 8.666 8.666 0 0 1-7.059-3.3q-2.689-3.3-2.689-9.181 0-8.109 4.937-12.71a17.722 17.722 0 0 1 11.951-4.808z" class="cls-1" data-name="Path 1934" transform="translate(23.535 67.383)"/>
</svg>
