<svg height="27" viewBox="0 0 35 27" width="35" xmlns="http://www.w3.org/2000/svg"><path d="m16.994 7.182.076 1.168-1.264-.143c-4.603-.547-8.624-2.407-12.038-5.529l-1.668-1.55-.43 1.145c-.91 2.55-.329 5.243 1.568 7.054 1.012 1.001.784 1.144-.961.549-.607-.191-1.138-.334-1.189-.263-.177.167.43 2.336.91 3.194.658 1.192 1.999 2.36 3.466 3.05l1.239.549-1.467.024c-1.416 0-1.467.024-1.315.524.506 1.55 2.504 3.194 4.729 3.909l1.568.5-1.366.763c-2.023 1.096-4.4 1.716-6.777 1.763-1.139.024-2.075.121-2.075.191 0 .238 3.085 1.573 4.88 2.097 5.388 1.55 11.786.882 16.59-1.763 3.415-1.883 6.829-5.625 8.422-9.247.86-1.93 1.72-5.458 1.72-7.15 0-1.097.076-1.24 1.492-2.55.834-.763 1.618-1.597 1.77-1.836.253-.453.228-.453-1.062-.047-2.15.715-2.453.62-1.391-.453.784-.763 1.72-2.145 1.72-2.55 0-.072-.38.047-.81.262-.455.238-1.466.596-2.225.81l-1.366.405-1.239-.786c-.683-.43-1.644-.906-2.15-1.049-1.29-.334-3.262-.286-4.425.095-3.161 1.073-5.16 3.838-4.932 6.864z" fill="#55acee" fill-rule="evenodd"/></svg>