<?xml version="1.0" encoding="UTF-8"?>
<svg xmlns="http://www.w3.org/2000/svg" xmlns:xlink="http://www.w3.org/1999/xlink" width="150pt" height="150pt" viewBox="0 0 150 150" version="1.1">
<g id="surface1">
<path style=" stroke:none;fill-rule:nonzero;fill:rgb(18.039216%,71.372549%,49.019608%);fill-opacity:1;" d="M 144.914062 50.890625 C 149.210938 37.496094 146.628906 10.738281 138.296875 0.867188 C 137.207031 -0.421875 135.160156 -0.238281 134.257812 1.183594 L 123.988281 17.308594 C 121.445312 20.539062 116.875 21.277344 113.445312 19.023438 C 102.308594 11.738281 89 7.492188 74.691406 7.492188 C 60.386719 7.492188 47.074219 11.738281 35.9375 19.023438 C 32.511719 21.277344 27.9375 20.519531 25.394531 17.308594 L 15.125 1.183594 C 14.222656 -0.238281 12.175781 -0.421875 11.085938 0.867188 C 2.753906 10.738281 0.171875 37.496094 4.46875 50.890625 C 5.886719 55.335938 6.292969 60.042969 5.445312 64.636719 C 4.617188 69.175781 3.769531 74.671875 3.769531 78.472656 C 3.769531 117.664062 35.535156 149.457031 74.691406 149.457031 C 113.867188 149.457031 145.613281 117.683594 145.613281 78.472656 C 145.613281 74.65625 144.785156 69.175781 143.9375 64.636719 C 143.089844 60.042969 143.496094 55.335938 144.914062 50.890625 Z M 74.691406 133.589844 C 44.417969 133.589844 19.789062 108.9375 19.789062 78.640625 C 19.789062 77.644531 19.828125 76.667969 19.863281 75.6875 C 20.96875 55.042969 33.488281 37.382812 51.222656 28.96875 C 58.339844 25.574219 66.304688 23.691406 74.691406 23.691406 C 83.082031 23.691406 91.042969 25.59375 98.179688 28.988281 C 115.914062 37.402344 128.433594 55.058594 129.539062 75.6875 C 129.59375 76.667969 129.613281 77.644531 129.613281 78.640625 C 129.59375 108.9375 104.964844 133.589844 74.691406 133.589844 Z M 74.691406 133.589844 "/>
<path style=" stroke:none;fill-rule:nonzero;fill:rgb(18.039216%,71.372549%,49.019608%);fill-opacity:1;" d="M 98.472656 99.785156 L 84.445312 75.449219 L 72.40625 55.152344 C 72.128906 54.671875 71.613281 54.375 71.039062 54.375 L 59.535156 54.375 C 58.964844 54.375 58.449219 54.691406 58.171875 55.167969 C 57.894531 55.667969 57.894531 56.277344 58.191406 56.757812 L 69.695312 76.128906 L 54.246094 99.710938 C 53.933594 100.191406 53.894531 100.816406 54.171875 101.335938 C 54.449219 101.851562 54.984375 102.164062 55.554688 102.164062 L 67.132812 102.164062 C 67.667969 102.164062 68.164062 101.886719 68.460938 101.445312 L 76.8125 88.382812 L 84.296875 101.371094 C 84.574219 101.871094 85.105469 102.164062 85.660156 102.164062 L 97.070312 102.164062 C 97.644531 102.164062 98.160156 101.871094 98.4375 101.371094 C 98.769531 100.875 98.769531 100.28125 98.472656 99.785156 Z M 98.472656 99.785156 "/>
</g>
</svg>
