<svg width="20" height="20" viewBox="0 0 90 91" fill="none" xmlns="http://www.w3.org/2000/svg">
<path d="M54.9271 87.6622C55.9648 92.6386 64.9707 91.9524 64.9707 78.2908C64.9707 64.6293 58.8776 59.6345 58.8776 55.1522C58.8776 52.4114 71.7032 54.4088 79.9466 54.4088C88.19 54.4088 90.8201 43.7305 82.8242 42.1896C93.439 38.4024 88.6752 27.0968 81.9761 27.0968C88.6752 26.064 88.845 12.0257 77.3118 13.6439C81.9761 7.42423 76.8095 1.76297 70.1161 1.11879C48.5059 -0.961018 20.6679 2.30047 20.6679 8.70652C20.6679 15.1126 20.6679 48.6729 20.6679 52.4114C20.6679 58.6908 47.9488 54.1954 54.9271 87.6622ZM5.53099 54.0323H8.98948C12.0442 54.0323 14.5205 51.555 14.5205 48.5005V10.457C14.5205 7.40182 12.0408 4.92515 8.98948 4.92515H5.53099C2.47631 4.92515 0 7.40248 0 10.457V48.5005C0 51.5557 2.47966 54.0323 5.53099 54.0323Z" fill="#9ba7b0"/>
</svg>
