<svg width="32" height="32" viewBox="0 0 32 32" fill="none" xmlns="http://www.w3.org/2000/svg">
<path d="M5.33332 29.0899C6.13676 29.3333 7.22195 29.3333 9.06663 29.3333H22.9333C24.778 29.3333 25.8632 29.3333 26.6666 29.0899M5.33332 29.0899C5.16105 29.0377 5.00174 28.9743 4.85066 28.8973C4.09802 28.5139 3.48609 27.9019 3.1026 27.1493C2.66663 26.2936 2.66663 25.1735 2.66663 22.9333V9.06666C2.66663 6.82645 2.66663 5.70634 3.1026 4.85069C3.48609 4.09805 4.09802 3.48612 4.85066 3.10263C5.70631 2.66666 6.82642 2.66666 9.06663 2.66666H22.9333C25.1735 2.66666 26.2936 2.66666 27.1493 3.10263C27.9019 3.48612 28.5138 4.09805 28.8973 4.85069C29.3333 5.70634 29.3333 6.82645 29.3333 9.06666V22.9333C29.3333 25.1735 29.3333 26.2936 28.8973 27.1493C28.5138 27.9019 27.9019 28.5139 27.1493 28.8973C26.9982 28.9743 26.8389 29.0377 26.6666 29.0899M5.33332 29.0899C5.33376 28.0108 5.34023 27.4398 5.43577 26.9595C5.85661 24.8438 7.51046 23.19 9.62614 22.7691C10.1413 22.6667 10.7609 22.6667 12 22.6667H20C21.239 22.6667 21.8586 22.6667 22.3738 22.7691C24.4895 23.19 26.1433 24.8438 26.5641 26.9595C26.6597 27.4398 26.6662 28.0108 26.6666 29.0899M21.3333 12.6667C21.3333 15.6122 18.9455 18 16 18C13.0544 18 10.6666 15.6122 10.6666 12.6667C10.6666 9.72114 13.0544 7.33332 16 7.33332C18.9455 7.33332 21.3333 9.72114 21.3333 12.6667Z" stroke="#0B89D0" stroke-width="2" stroke-linecap="round" stroke-linejoin="round"/>
</svg>
