<svg width="24" height="24" viewBox="0 0 24 24" fill="none" xmlns="http://www.w3.org/2000/svg">
<path d="M7 2.75H17C19.3472 2.75 21.25 4.65279 21.25 7V17C21.25 19.3472 19.3472 21.25 17 21.25H7C4.65279 21.25 2.75 19.3472 2.75 17V7C2.75 4.65279 4.65279 2.75 7 2.75Z" stroke="#0B89D0" stroke-width="1.5"/>
<path d="M9 14V14C9 15.6569 10.3431 17 12 17V17C13.6569 17 15 15.6569 15 14V14" stroke="#0B89D0" stroke-width="1.5" stroke-linecap="round"/>
<path d="M6.44721 8.10557C6.786 7.428 7.47852 7 8.23607 7H15.7639C16.5215 7 17.214 7.428 17.5528 8.10557V8.10557C18.2177 9.43538 17.2507 11 15.7639 11H8.23607C6.7493 11 5.78231 9.43538 6.44721 8.10557V8.10557Z" stroke="#0B89D0" stroke-width="1.5" stroke-linecap="round" stroke-linejoin="round"/>
<path d="M10 7L10 11" stroke="#0B89D0" stroke-width="1.5"/>
<path d="M14 7L14 11" stroke="#0B89D0" stroke-width="1.5"/>
</svg>
