<svg width="32" height="32" viewBox="0 0 32 32" fill="none" xmlns="http://www.w3.org/2000/svg">
<path d="M18.6667 3.02603V8.53342C18.6667 9.28016 18.6667 9.65352 18.812 9.93874C18.9399 10.1896 19.1438 10.3936 19.3947 10.5214C19.6799 10.6668 20.0533 10.6668 20.8 10.6668H26.3074M21.3334 17.3333H10.6667M21.3334 22.6667H10.6667M13.3334 12H10.6667M18.6667 2.66666H11.7334C9.49316 2.66666 8.37306 2.66666 7.51741 3.10263C6.76476 3.48612 6.15284 4.09805 5.76935 4.85069C5.33337 5.70634 5.33337 6.82645 5.33337 9.06666V22.9333C5.33337 25.1735 5.33337 26.2936 5.76935 27.1493C6.15284 27.9019 6.76476 28.5139 7.51741 28.8973C8.37306 29.3333 9.49316 29.3333 11.7334 29.3333H20.2667C22.5069 29.3333 23.627 29.3333 24.4827 28.8973C25.2353 28.5139 25.8472 27.9019 26.2307 27.1493C26.6667 26.2936 26.6667 25.1735 26.6667 22.9333V10.6667L18.6667 2.66666Z" stroke="#0B89D0" stroke-width="2" stroke-linecap="round" stroke-linejoin="round"/>
</svg>
