<svg width="32" height="32" viewBox="0 0 32 32" fill="none" xmlns="http://www.w3.org/2000/svg">
<path d="M3.22683 16.9509C3.04525 16.6634 2.95446 16.5196 2.90363 16.2979C2.86546 16.1313 2.86546 15.8687 2.90363 15.7021C2.95446 15.4804 3.04525 15.3366 3.22683 15.0491C4.72737 12.6731 9.19387 6.66667 16.0005 6.66667C22.8072 6.66667 27.2737 12.6731 28.7742 15.0491C28.9558 15.3366 29.0466 15.4804 29.0974 15.7021C29.1356 15.8687 29.1356 16.1313 29.0974 16.2979C29.0466 16.5196 28.9558 16.6634 28.7742 16.9509C27.2737 19.3269 22.8072 25.3333 16.0005 25.3333C9.19387 25.3333 4.72737 19.3269 3.22683 16.9509Z" stroke="#0B89D0" stroke-width="2" stroke-linecap="round" stroke-linejoin="round"/>
<path d="M16.0005 20C18.2097 20 20.0005 18.2091 20.0005 16C20.0005 13.7909 18.2097 12 16.0005 12C13.7914 12 12.0005 13.7909 12.0005 16C12.0005 18.2091 13.7914 20 16.0005 20Z" stroke="#0B89D0" stroke-width="2" stroke-linecap="round" stroke-linejoin="round"/>
</svg>
