<svg width="32" height="32" viewBox="0 0 32 32" fill="none" xmlns="http://www.w3.org/2000/svg">
<path d="M16 28L15.8666 27.7999C14.9404 26.4106 14.4773 25.716 13.8655 25.2131C13.3238 24.7679 12.6997 24.4339 12.0288 24.2301C11.271 24 10.4362 24 8.76645 24H6.93335C5.43988 24 4.69314 24 4.12271 23.7094C3.62095 23.4537 3.213 23.0457 2.95734 22.544C2.66669 21.9735 2.66669 21.2268 2.66669 19.7333V8.26667C2.66669 6.77319 2.66669 6.02646 2.95734 5.45603C3.213 4.95426 3.62095 4.54631 4.12271 4.29065C4.69314 4 5.43988 4 6.93335 4H7.46669C10.4536 4 11.9471 4 13.088 4.5813C14.0915 5.09262 14.9074 5.90852 15.4187 6.91205C16 8.05291 16 9.54639 16 12.5333M16 28V12.5333M16 28L16.1334 27.7999C17.0596 26.4106 17.5227 25.716 18.1346 25.2131C18.6762 24.7679 19.3003 24.4339 19.9712 24.2301C20.729 24 21.5639 24 23.2336 24H25.0667C26.5602 24 27.3069 24 27.8773 23.7094C28.3791 23.4537 28.787 23.0457 29.0427 22.544C29.3334 21.9735 29.3334 21.2268 29.3334 19.7333V8.26667C29.3334 6.77319 29.3334 6.02646 29.0427 5.45603C28.787 4.95426 28.3791 4.54631 27.8773 4.29065C27.3069 4 26.5602 4 25.0667 4H24.5334C21.5464 4 20.0529 4 18.9121 4.5813C17.9085 5.09262 17.0926 5.90852 16.5813 6.91205C16 8.05291 16 9.54639 16 12.5333" stroke="#0B89D0" stroke-width="2" stroke-linecap="round" stroke-linejoin="round"/>
</svg>
