<svg width="32" height="32" viewBox="0 0 32 32" fill="none" xmlns="http://www.w3.org/2000/svg">
<path d="M26.6666 14V9.06667C26.6666 6.82646 26.6666 5.70636 26.2307 4.85071C25.8472 4.09806 25.2353 3.48614 24.4826 3.10265C23.627 2.66667 22.5069 2.66667 20.2666 2.66667H11.7333C9.4931 2.66667 8.373 2.66667 7.51735 3.10265C6.7647 3.48614 6.15278 4.09806 5.76929 4.85071C5.33331 5.70636 5.33331 6.82646 5.33331 9.06667V22.9333C5.33331 25.1735 5.33331 26.2937 5.76929 27.1493C6.15278 27.9019 6.7647 28.5139 7.51735 28.8974C8.373 29.3333 9.4931 29.3333 11.7333 29.3333H16M18.6666 14.6667H10.6666M13.3333 20H10.6666M21.3333 9.33334H10.6666" stroke="#0B89D0" stroke-width="2" stroke-linecap="round" stroke-linejoin="round"/>
<path d="M23.8519 18.6667L20.6653 22.7847C20.4517 23.0607 20.3449 23.1987 20.3461 23.3145C20.3471 23.4153 20.3937 23.5101 20.4727 23.5726C20.5636 23.6444 20.7381 23.6444 21.0871 23.6444H25.5507C25.9077 23.6444 26.0861 23.6444 26.1775 23.7175C26.2569 23.7811 26.3029 23.8774 26.3025 23.9792C26.302 24.0961 26.1899 24.235 25.9657 24.5128L22.0741 29.3333" stroke="#0B89D0" stroke-width="2" stroke-linecap="round" stroke-linejoin="round"/>
</svg>
