<svg width="32" height="32" viewBox="0 0 32 32" fill="none" xmlns="http://www.w3.org/2000/svg">
<path d="M13.3333 20L9.23295 24.1516C8.66101 24.7307 8.37503 25.0202 8.12923 25.0407C7.91598 25.0584 7.70718 24.9727 7.5679 24.8102C7.40737 24.6229 7.40737 24.216 7.40737 23.4021V21.3222C7.40737 20.592 6.80939 20.0636 6.0869 19.9578V19.9578C4.33828 19.7016 2.96499 18.3283 2.70886 16.5797C2.66663 16.2914 2.66663 15.9474 2.66663 15.2593V9.06667C2.66663 6.82646 2.66663 5.70636 3.1026 4.85071C3.48609 4.09806 4.09802 3.48614 4.85066 3.10265C5.70631 2.66667 6.82642 2.66667 9.06663 2.66667H18.9333C21.1735 2.66667 22.2936 2.66667 23.1493 3.10265C23.9019 3.48614 24.5138 4.09806 24.8973 4.85071C25.3333 5.70636 25.3333 6.82646 25.3333 9.06667V14.6667M25.3333 29.3333L22.4314 27.3158C22.0235 27.0322 21.8195 26.8904 21.5976 26.7899C21.4006 26.7007 21.1934 26.6358 20.9807 26.5966C20.7411 26.5524 20.4927 26.5524 19.9959 26.5524H17.6C16.1065 26.5524 15.3597 26.5524 14.7893 26.2617C14.2876 26.0061 13.8796 25.5981 13.6239 25.0964C13.3333 24.5259 13.3333 23.7792 13.3333 22.2857V18.9333C13.3333 17.4399 13.3333 16.6931 13.6239 16.1227C13.8796 15.6209 14.2876 15.213 14.7893 14.9573C15.3597 14.6667 16.1065 14.6667 17.6 14.6667H25.0666C26.5601 14.6667 27.3068 14.6667 27.8773 14.9573C28.379 15.213 28.787 15.6209 29.0426 16.1227C29.3333 16.6931 29.3333 17.4399 29.3333 18.9333V22.5524C29.3333 23.7949 29.3333 24.4162 29.1303 24.9062C28.8597 25.5596 28.3405 26.0787 27.6871 26.3494C27.1971 26.5524 26.5758 26.5524 25.3333 26.5524V29.3333Z" stroke="#0B89D0" stroke-width="2" stroke-linecap="round" stroke-linejoin="round"/>
</svg>
