<svg width="32" height="32" viewBox="0 0 32 32" fill="none" xmlns="http://www.w3.org/2000/svg">
<path d="M13.6297 26.5L8.40298 23.5963M18.5 26.4306L23.6017 23.5963M23.5 21.9091L8.29288 21.9091M25.5 20.0113L17.3932 6.50005M26.6387 19.2563L26.6387 12.5M24 8.62503L18.375 5.50005M13.6297 5.50004L8.29288 8.46494M14.6115 6.50005L6.61218 19.8322M5.36604 12.5L5.36604 19.8322" stroke="#0B89D0" stroke-width="2" stroke-linecap="round" stroke-linejoin="round"/>
<ellipse cx="16" cy="27.7001" rx="2.6" ry="2.6" transform="rotate(-180 16 27.7001)" stroke="#0B89D0" stroke-width="2" stroke-linecap="round" stroke-linejoin="round"/>
<ellipse cx="26.4" cy="22.5001" rx="2.6" ry="2.6" transform="rotate(-180 26.4 22.5001)" stroke="#0B89D0" stroke-width="2" stroke-linecap="round" stroke-linejoin="round"/>
<ellipse cx="26.4" cy="9.5001" rx="2.6" ry="2.6" transform="rotate(-180 26.4 9.5001)" stroke="#0B89D0" stroke-width="2" stroke-linecap="round" stroke-linejoin="round"/>
<ellipse cx="5.59983" cy="22.5001" rx="2.6" ry="2.6" transform="rotate(-180 5.59983 22.5001)" stroke="#0B89D0" stroke-width="2" stroke-linecap="round" stroke-linejoin="round"/>
<ellipse cx="5.59983" cy="9.5001" rx="2.6" ry="2.6" transform="rotate(-180 5.59983 9.5001)" stroke="#0B89D0" stroke-width="2" stroke-linecap="round" stroke-linejoin="round"/>
<ellipse cx="16" cy="4.30015" rx="2.6" ry="2.6" transform="rotate(-180 16 4.30015)" stroke="#0B89D0" stroke-width="2" stroke-linecap="round" stroke-linejoin="round"/>
</svg>
