<svg width="32" height="32" viewBox="0 0 32 32" fill="none" xmlns="http://www.w3.org/2000/svg">
<path fill-rule="evenodd" clip-rule="evenodd" d="M10.5294 2C7.76799 2 5.52941 4.23858 5.52941 7V11.5278C5.52941 12.5607 4.99808 13.5209 4.12297 14.0696L2.46881 15.1066C2.17711 15.2895 2 15.6096 2 15.9539C2 16.2982 2.17711 16.6183 2.46881 16.8012L4.12297 17.8382C4.99808 18.3869 5.52941 19.3471 5.52941 20.38V25C5.52941 27.7614 7.76799 30 10.5294 30H13C13.5523 30 14 29.5523 14 29C14 28.4477 13.5523 28 13 28H10.5294C8.87256 28 7.52941 26.6569 7.52941 25V20.38C7.52941 18.6585 6.64386 17.0581 5.18535 16.1437L4.88258 15.9539L5.18535 15.7641C6.64386 14.8497 7.52941 13.2493 7.52941 11.5278V7C7.52941 5.34315 8.87256 4 10.5294 4H13C13.5523 4 14 3.55228 14 3C14 2.44772 13.5523 2 13 2H10.5294ZM21.8235 2C24.585 2 26.8235 4.23858 26.8235 7V11.6527C26.8235 12.6341 27.3035 13.5534 28.1087 14.1143L29.5716 15.1334C29.84 15.3203 30 15.6268 30 15.9539C30 16.281 29.84 16.5875 29.5716 16.7744L28.1087 17.7935C27.3035 18.3544 26.8235 19.2737 26.8235 20.2551V25C26.8235 27.7614 24.585 30 21.8235 30H20C19.4477 30 19 29.5523 19 29C19 28.4477 19.4477 28 20 28H21.8235C23.4804 28 24.8235 26.6569 24.8235 25V20.2551C24.8235 18.6195 25.6235 17.0873 26.9656 16.1524L27.2505 15.9539L26.9656 15.7554C25.6235 14.8205 24.8235 13.2883 24.8235 11.6527V7C24.8235 5.34315 23.4804 4 21.8235 4H20C19.4477 4 19 3.55228 19 3C19 2.44772 19.4477 2 20 2H21.8235Z" fill="#0B89D0"/>
</svg>
