<svg width="32" height="32" viewBox="0 0 32 32" fill="none" xmlns="http://www.w3.org/2000/svg">
<path d="M23.3333 14.6667H16.6667M23.3333 20H16.6667M23.3333 9.33333H16.6667M12 4L12 28M10.4 4H21.6C23.8402 4 24.9603 4 25.816 4.43597C26.5686 4.81947 27.1805 5.43139 27.564 6.18404C28 7.03969 28 8.15979 28 10.4V21.6C28 23.8402 28 24.9603 27.564 25.816C27.1805 26.5686 26.5686 27.1805 25.816 27.564C24.9603 28 23.8402 28 21.6 28H10.4C8.15979 28 7.03969 28 6.18404 27.564C5.43139 27.1805 4.81947 26.5686 4.43597 25.816C4 24.9603 4 23.8402 4 21.6V10.4C4 8.15979 4 7.03969 4.43597 6.18404C4.81947 5.43139 5.43139 4.81947 6.18404 4.43597C7.03969 4 8.15979 4 10.4 4Z" stroke="#0B89D0" stroke-width="2" stroke-linecap="round" stroke-linejoin="round"/>
</svg>
