<svg width="32" height="32" viewBox="0 0 32 32" fill="none" xmlns="http://www.w3.org/2000/svg">
<path d="M6.66663 13.3333V21.3482C6.66663 21.8268 6.66663 22.0661 6.7395 22.2774C6.80394 22.4642 6.90911 22.6344 7.0474 22.7756C7.20378 22.9352 7.41783 23.0423 7.8459 23.2563L15.0459 26.8563C15.3957 27.0312 15.5706 27.1187 15.7541 27.1531C15.9166 27.1836 16.0833 27.1836 16.2458 27.1531C16.4293 27.1187 16.6042 27.0312 16.954 26.8563L24.154 23.2563C24.5821 23.0423 24.7961 22.9352 24.9525 22.7756C25.0908 22.6344 25.196 22.4642 25.2604 22.2774C25.3333 22.0661 25.3333 21.8268 25.3333 21.3482V13.3333M2.66663 11.3333L15.5229 4.90519C15.6978 4.81773 15.7853 4.774 15.877 4.75679C15.9583 4.74155 16.0416 4.74155 16.1229 4.75679C16.2146 4.774 16.3021 4.81773 16.477 4.90519L29.3333 11.3333L16.477 17.7615C16.3021 17.8489 16.2146 17.8927 16.1229 17.9099C16.0416 17.9251 15.9583 17.9251 15.877 17.9099C15.7853 17.8927 15.6978 17.8489 15.5229 17.7615L2.66663 11.3333Z" stroke="#0B89D0" stroke-width="2" stroke-linecap="round" stroke-linejoin="round"/>
</svg>
