<svg width="32" height="32" viewBox="0 0 32 32" fill="none" xmlns="http://www.w3.org/2000/svg">
<g clip-path="url(#clip0_841_40467)">
<path d="M26.6667 14V9.06667C26.6667 6.82646 26.6667 5.70636 26.2307 4.85071C25.8472 4.09806 25.2353 3.48614 24.4827 3.10265C23.627 2.66667 22.5069 2.66667 20.2667 2.66667H11.7334C9.49316 2.66667 8.37306 2.66667 7.51741 3.10265C6.76476 3.48614 6.15284 4.09806 5.76935 4.85071C5.33337 5.70636 5.33337 6.82646 5.33337 9.06667V22.9333C5.33337 25.1735 5.33337 26.2937 5.76935 27.1493C6.15284 27.9019 6.76476 28.5139 7.51741 28.8974C8.37306 29.3333 9.49316 29.3333 11.7334 29.3333H16M18.6667 14.6667H10.6667M14.6667 20H10.6667M21.3334 9.33334H10.6667" stroke="#0B89D0" stroke-width="2" stroke-linecap="round" stroke-linejoin="round"/>
<path d="M18.6666 24.5177L26.6666 24.5177" stroke="#0B89D0" stroke-width="2" stroke-linecap="round" stroke-linejoin="round"/>
<path d="M23.8058 20L28.3236 24.5177L23.8058 29.0355" stroke="#0B89D0" stroke-width="2" stroke-linecap="round" stroke-linejoin="round"/>
</g>
<defs>
<clipPath id="clip0_841_40467">
<rect width="32" height="32" fill="white"/>
</clipPath>
</defs>
</svg>
