<svg width="32" height="32" viewBox="0 0 32 32" fill="none" xmlns="http://www.w3.org/2000/svg">
<path d="M12 17.9291C12 17.2768 12 16.9507 12.0737 16.6438C12.139 16.3717 12.2468 16.1116 12.393 15.873C12.5579 15.6039 12.7885 15.3733 13.2497 14.9121L26 2.16177C27.1046 1.0572 28.8955 1.0572 30 2.16177C31.1046 3.26634 31.1046 5.0572 30 6.16177L17.2497 18.9121C16.7885 19.3733 16.5579 19.6039 16.2888 19.7688C16.0502 19.915 15.7901 20.0228 15.518 20.0881C15.2111 20.1618 14.885 20.1618 14.2327 20.1618H12V17.9291Z" stroke="#0B89D0" stroke-width="2" stroke-linecap="round" stroke-linejoin="round"/>
<path d="M27.4326 16.0954C27.6791 18.5512 27.1784 21.0241 25.9961 23.1906C24.8138 25.3571 23.0049 27.1161 20.8063 28.2375C18.6076 29.3588 16.1216 29.7902 13.6737 29.4752C11.2258 29.1602 8.93003 28.1135 7.0869 26.472C5.24378 24.8305 3.93919 22.6708 3.34389 20.2756C2.7486 17.8804 2.89034 15.3612 3.75056 13.0479C4.61078 10.7346 6.1494 8.73485 8.16502 7.3105C10.1806 5.88615 12.5793 5.10354 15.0471 5.06511" stroke="#0B89D0" stroke-width="2" stroke-linecap="round" stroke-linejoin="round"/>
</svg>
