<svg width="32" height="32" viewBox="0 0 32 32" fill="none" xmlns="http://www.w3.org/2000/svg">
<path d="M27.3333 10.6667V21.6C27.3333 23.8402 27.3333 24.9603 26.8973 25.816C26.5138 26.5686 25.9019 27.1805 25.1493 27.564C24.2936 28 23.1735 28 20.9333 28H11.0666C8.82642 28 7.70631 28 6.85066 27.564C6.09802 27.1805 5.48609 26.5686 5.1026 25.816C4.66663 24.9603 4.66663 23.8402 4.66663 21.6V10.6667M4.79996 4H27.2C27.9467 4 28.3201 4 28.6053 4.14532C28.8562 4.27316 29.0601 4.47713 29.188 4.72801C29.3333 5.01323 29.3333 5.3866 29.3333 6.13333V8.53333C29.3333 9.28007 29.3333 9.65344 29.188 9.93865C29.0601 10.1895 28.8562 10.3935 28.6053 10.5213C28.3201 10.6667 27.9467 10.6667 27.2 10.6667H4.79996C4.05322 10.6667 3.67985 10.6667 3.39464 10.5213C3.14376 10.3935 2.93978 10.1895 2.81195 9.93865C2.66663 9.65344 2.66663 9.28007 2.66663 8.53333V6.13333C2.66663 5.3866 2.66663 5.01323 2.81195 4.72801C2.93978 4.47713 3.14376 4.27316 3.39464 4.14532C3.67985 4 4.05322 4 4.79996 4ZM12.8 15.3333H19.2C19.9467 15.3333 20.3201 15.3333 20.6053 15.4787C20.8562 15.6065 21.0601 15.8105 21.188 16.0613C21.3333 16.3466 21.3333 16.7199 21.3333 17.4667V18.5333C21.3333 19.2801 21.3333 19.6534 21.188 19.9387C21.0601 20.1895 20.8562 20.3935 20.6053 20.5213C20.3201 20.6667 19.9467 20.6667 19.2 20.6667H12.8C12.0532 20.6667 11.6799 20.6667 11.3946 20.5213C11.1438 20.3935 10.9398 20.1895 10.812 19.9387C10.6666 19.6534 10.6666 19.2801 10.6666 18.5333V17.4667C10.6666 16.7199 10.6666 16.3466 10.812 16.0613C10.9398 15.8105 11.1438 15.6065 11.3946 15.4787C11.6799 15.3333 12.0532 15.3333 12.8 15.3333Z" stroke="#0B89D0" stroke-width="2" stroke-linecap="round" stroke-linejoin="round"/>
</svg>
