<svg width="32" height="32" viewBox="0 0 32 32" fill="none" xmlns="http://www.w3.org/2000/svg">
<path d="M14.6667 3.43646C15.4918 2.9601 16.5083 2.9601 17.3334 3.43646L26.2137 8.56352C27.0388 9.03988 27.547 9.92022 27.547 10.8729V21.1271C27.547 22.0798 27.0388 22.9601 26.2137 23.4365L17.3334 28.5635C16.5083 29.0399 15.4918 29.0399 14.6667 28.5635L5.78635 23.4365C4.96128 22.9601 4.45302 22.0798 4.45302 21.1271V10.8729C4.45302 9.92021 4.96128 9.03988 5.78635 8.56352L14.6667 3.43646Z" stroke="#0B89D0" stroke-width="2" stroke-linejoin="round"/>
<path d="M9.33331 14H22.6928C23.0381 14 23.1555 13.5394 22.8524 13.374L16.6666 10" stroke="#0B89D0" stroke-width="1.73333" stroke-linecap="round" stroke-linejoin="round"/>
<path d="M22.6667 18H9.30724C8.9619 18 8.84445 18.4606 9.14762 18.626L15.3334 22" stroke="#0B89D0" stroke-width="1.73333" stroke-linecap="round" stroke-linejoin="round"/>
</svg>
