<svg width="32" height="32" viewBox="0 0 32 32" fill="none" xmlns="http://www.w3.org/2000/svg">
<path d="M21.3333 24L24 26.6667L29.3333 21.3333M16 20H10.6666C8.1816 20 6.93909 20 5.95898 20.406C4.65216 20.9473 3.6139 21.9855 3.0726 23.2924C2.66663 24.2725 2.66663 25.515 2.66663 28M20.6666 4.38768C22.6212 5.17886 24 7.09508 24 9.33333C24 11.5716 22.6212 13.4878 20.6666 14.279M18 9.33333C18 12.2789 15.6121 14.6667 12.6666 14.6667C9.72111 14.6667 7.33329 12.2789 7.33329 9.33333C7.33329 6.38781 9.72111 4 12.6666 4C15.6121 4 18 6.38781 18 9.33333Z" stroke="#0B89D0" stroke-width="2" stroke-linecap="round" stroke-linejoin="round"/>
</svg>
