<svg width="32" height="32" viewBox="0 0 32 32" fill="none" xmlns="http://www.w3.org/2000/svg">
<path d="M4 6.13333C4 5.3866 4 5.01323 4.14532 4.72801C4.27316 4.47713 4.47713 4.27316 4.72801 4.14532C5.01323 4 5.3866 4 6.13333 4H9.86667C10.6134 4 10.9868 4 11.272 4.14532C11.5229 4.27316 11.7268 4.47713 11.8547 4.72801C12 5.01323 12 5.3866 12 6.13333V9.86667C12 10.6134 12 10.9868 11.8547 11.272C11.7268 11.5229 11.5229 11.7268 11.272 11.8547C10.9868 12 10.6134 12 9.86667 12H6.13333C5.3866 12 5.01323 12 4.72801 11.8547C4.47713 11.7268 4.27316 11.5229 4.14532 11.272C4 10.9868 4 10.6134 4 9.86667V6.13333Z" stroke="#0B89D0" stroke-width="2" stroke-linecap="round" stroke-linejoin="round"/>
<path d="M20 6.13333C20 5.3866 20 5.01323 20.1453 4.72801C20.2732 4.47713 20.4771 4.27316 20.728 4.14532C21.0132 4 21.3866 4 22.1333 4H25.8667C26.6134 4 26.9868 4 27.272 4.14532C27.5229 4.27316 27.7268 4.47713 27.8547 4.72801C28 5.01323 28 5.3866 28 6.13333V9.86667C28 10.6134 28 10.9868 27.8547 11.272C27.7268 11.5229 27.5229 11.7268 27.272 11.8547C26.9868 12 26.6134 12 25.8667 12H22.1333C21.3866 12 21.0132 12 20.728 11.8547C20.4771 11.7268 20.2732 11.5229 20.1453 11.272C20 10.9868 20 10.6134 20 9.86667V6.13333Z" stroke="#0B89D0" stroke-width="2" stroke-linecap="round" stroke-linejoin="round"/>
<path d="M20 22.1333C20 21.3866 20 21.0132 20.1453 20.728C20.2732 20.4771 20.4771 20.2732 20.728 20.1453C21.0132 20 21.3866 20 22.1333 20H25.8667C26.6134 20 26.9868 20 27.272 20.1453C27.5229 20.2732 27.7268 20.4771 27.8547 20.728C28 21.0132 28 21.3866 28 22.1333V25.8667C28 26.6134 28 26.9868 27.8547 27.272C27.7268 27.5229 27.5229 27.7268 27.272 27.8547C26.9868 28 26.6134 28 25.8667 28H22.1333C21.3866 28 21.0132 28 20.728 27.8547C20.4771 27.7268 20.2732 27.5229 20.1453 27.272C20 26.9868 20 26.6134 20 25.8667V22.1333Z" stroke="#0B89D0" stroke-width="2" stroke-linecap="round" stroke-linejoin="round"/>
<path d="M4 22.1333C4 21.3866 4 21.0132 4.14532 20.728C4.27316 20.4771 4.47713 20.2732 4.72801 20.1453C5.01323 20 5.3866 20 6.13333 20H9.86667C10.6134 20 10.9868 20 11.272 20.1453C11.5229 20.2732 11.7268 20.4771 11.8547 20.728C12 21.0132 12 21.3866 12 22.1333V25.8667C12 26.6134 12 26.9868 11.8547 27.272C11.7268 27.5229 11.5229 27.7268 11.272 27.8547C10.9868 28 10.6134 28 9.86667 28H6.13333C5.3866 28 5.01323 28 4.72801 27.8547C4.47713 27.7268 4.27316 27.5229 4.14532 27.272C4 26.9868 4 26.6134 4 25.8667V22.1333Z" stroke="#0B89D0" stroke-width="2" stroke-linecap="round" stroke-linejoin="round"/>
<path d="M12 8H20" stroke="#0B89D0" stroke-width="2" stroke-linecap="round" stroke-linejoin="round"/>
<path d="M12 24H20" stroke="#0B89D0" stroke-width="2" stroke-linecap="round" stroke-linejoin="round"/>
<path d="M24 12L24 20" stroke="#0B89D0" stroke-width="2" stroke-linecap="round" stroke-linejoin="round"/>
</svg>
