<svg width="32" height="32" viewBox="0 0 32 32" fill="none" xmlns="http://www.w3.org/2000/svg">
<path d="M12 15.3333L14.6667 18L20.6667 12M26.6667 16C26.6667 22.5446 19.5281 27.3045 16.9307 28.8198C16.6355 28.992 16.4879 29.0781 16.2796 29.1228C16.118 29.1575 15.8821 29.1575 15.7205 29.1228C15.5122 29.0781 15.3646 28.992 15.0694 28.8198C12.472 27.3045 5.33337 22.5446 5.33337 16V9.62346C5.33337 8.55744 5.33337 8.02444 5.50772 7.56626C5.66174 7.16151 5.91202 6.80036 6.23692 6.51403C6.6047 6.18991 7.10377 6.00276 8.10191 5.62845L15.251 2.94756C15.5282 2.84361 15.6668 2.79163 15.8094 2.77103C15.9358 2.75276 16.0643 2.75276 16.1907 2.77103C16.3333 2.79163 16.4719 2.84361 16.7491 2.94756L23.8982 5.62845C24.8963 6.00276 25.3954 6.18991 25.7632 6.51403C26.0881 6.80036 26.3383 7.16151 26.4924 7.56626C26.6667 8.02444 26.6667 8.55744 26.6667 9.62346V16Z" stroke="#0B89D0" stroke-width="2" stroke-linecap="round" stroke-linejoin="round"/>
</svg>
