<svg width="32" height="32" viewBox="0 0 32 32" fill="none" xmlns="http://www.w3.org/2000/svg">
<path d="M20.0002 25.3333C20.0002 27.5425 18.2094 29.3333 16.0002 29.3333C13.7911 29.3333 12.0002 27.5425 12.0002 25.3333M18.3956 8.31807C18.9762 7.71818 19.3336 6.90081 19.3336 5.99999C19.3336 4.15904 17.8412 2.66666 16.0002 2.66666C14.1593 2.66666 12.6669 4.15904 12.6669 5.99999C12.6669 6.90081 13.0242 7.71818 13.6049 8.31807M24.0002 14.9333C24.0002 13.0945 23.1574 11.331 21.6571 10.0307C20.1568 8.73046 18.122 7.99999 16.0002 7.99999C13.8785 7.99999 11.8437 8.73046 10.3434 10.0307C8.84309 11.331 8.00024 13.0945 8.00024 14.9333C8.00024 17.9757 7.24575 20.2008 6.30432 21.7929C5.23136 23.6075 4.69487 24.5148 4.71606 24.7315C4.7403 24.9795 4.78493 25.0577 4.98602 25.2048C5.1618 25.3333 6.04492 25.3333 7.81116 25.3333H24.1893C25.9556 25.3333 26.8387 25.3333 27.0145 25.2048C27.2156 25.0577 27.2602 24.9795 27.2844 24.7315C27.3056 24.5148 26.7691 23.6075 25.6962 21.7929C24.7547 20.2008 24.0002 17.9757 24.0002 14.9333Z" stroke="#0B89D0" stroke-width="2" stroke-linecap="round" stroke-linejoin="round"/>
</svg>
