<svg width="32" height="32" viewBox="0 0 32 32" fill="none" xmlns="http://www.w3.org/2000/svg">
<path d="M7.99996 8.00001L14 14M7.99996 8.00001H3.99996L2.66663 4.00001L3.99996 2.66667L7.99996 4.00001V8.00001ZM25.6786 3.65469L22.1751 7.15818C21.6471 7.6862 21.3831 7.95021 21.2842 8.25465C21.1972 8.52244 21.1972 8.8109 21.2842 9.07869C21.3831 9.38313 21.6471 9.64714 22.1751 10.1752L22.4915 10.4915C23.0195 11.0195 23.2835 11.2835 23.5879 11.3825C23.8557 11.4695 24.1442 11.4695 24.412 11.3825C24.7164 11.2835 24.9804 11.0195 25.5085 10.4915L28.7857 7.21429C29.1386 8.07319 29.3333 9.01386 29.3333 10C29.3333 14.0501 26.05 17.3333 22 17.3333C21.5117 17.3333 21.0345 17.2856 20.573 17.1946C19.9248 17.0667 19.6007 17.0028 19.4042 17.0224C19.1953 17.0432 19.0924 17.0745 18.9073 17.1736C18.7332 17.2667 18.5586 17.4414 18.2093 17.7906L8.66663 27.3333C7.56206 28.4379 5.7712 28.4379 4.66663 27.3333C3.56206 26.2288 3.56206 24.4379 4.66663 23.3333L14.2093 13.7906C14.5586 13.4414 14.7332 13.2667 14.8264 13.0927C14.9254 12.9076 14.9567 12.8046 14.9776 12.5958C14.9971 12.3993 14.9332 12.0752 14.8054 11.427C14.7143 10.9654 14.6666 10.4883 14.6666 10C14.6666 5.94992 17.9499 2.66667 22 2.66667C23.3406 2.66667 24.5973 3.02644 25.6786 3.65469ZM16 19.9999L23.3333 27.3332C24.4379 28.4378 26.2287 28.4378 27.3333 27.3332C28.4378 26.2286 28.4378 24.4378 27.3333 23.3332L21.3004 17.3004C20.8733 17.26 20.4569 17.1829 20.0543 17.0724C19.5356 16.9301 18.9666 17.0334 18.5862 17.4138L16 19.9999Z" stroke="#0B89D0" stroke-width="2" stroke-linecap="round" stroke-linejoin="round"/>
</svg>
