<svg width="56" height="55" viewBox="0 0 56 55" fill="none" xmlns="http://www.w3.org/2000/svg">
<mask id="mask0" mask-type="alpha" maskUnits="userSpaceOnUse" x="2" y="1" width="52" height="53">
<path d="M5.63835 10.5666C6.9696 6.56854 10.3833 3.62045 14.5326 2.88549L16.2571 2.58002C24.0252 1.20405 31.9748 1.20405 39.7429 2.58002L41.4674 2.88549C45.6167 3.62045 49.0304 6.56854 50.3617 10.5666C54.0218 21.5589 54.0218 33.4411 50.3617 44.4334C49.0304 48.4315 45.6167 51.3795 41.4674 52.1145L39.7429 52.42C31.9748 53.796 24.0252 53.796 16.2571 52.42L14.5326 52.1145C10.3833 51.3795 6.9696 48.4315 5.63835 44.4334C1.97823 33.4411 1.97823 21.5589 5.63835 10.5666Z" fill="#DEDEDE"/>
</mask>
<g mask="url(#mask0)">
<path d="M59.9928 -2.48608H-3.12354V59.283H59.9928V-2.48608Z" fill="#1B2738"/>
<path fill-rule="evenodd" clip-rule="evenodd" d="M68.778 7.84088L63.7232 16.7191C60.7805 21.8877 53.3305 21.8877 50.3877 16.7191C48.8688 14.0512 45.0233 14.0512 43.5044 16.7191C40.5617 21.8877 33.1116 21.8877 30.1689 16.7191C28.65 14.0512 24.8045 14.0512 23.2856 16.7191C20.3429 21.8877 12.8928 21.8877 9.95009 16.7191C8.43117 14.0512 4.58568 14.0512 3.06676 16.7191C0.124058 21.8877 -7.32604 21.8877 -10.2687 16.7191C-11.7877 14.0512 -15.6332 14.0512 -17.1521 16.7191L-22.2068 25.5973L-25.4329 23.7606L-20.3782 14.8824C-17.4355 9.71373 -9.98536 9.71373 -7.04266 14.8824C-5.52374 17.5502 -1.67825 17.5502 -0.159323 14.8824C2.78338 9.71373 10.2335 9.71373 13.1762 14.8824C14.6951 17.5502 18.5406 17.5502 20.0595 14.8824C23.0022 9.71373 30.4523 9.71373 33.395 14.8824C34.9139 17.5502 38.7594 17.5502 40.2783 14.8824C43.221 9.71373 50.6711 9.71373 53.6138 14.8824C55.1328 17.5502 58.9782 17.5502 60.4972 14.8824L65.5519 6.00415L68.778 7.84088Z" fill="#FFC267"/>
<path fill-rule="evenodd" clip-rule="evenodd" d="M89.8143 19.8038L84.7596 28.682C81.8169 33.8506 74.3668 33.8506 71.4241 28.682C69.9052 26.0141 66.0597 26.0141 64.5408 28.682C61.5981 33.8506 54.148 33.8506 51.2053 28.682C49.6864 26.0141 45.8409 26.0141 44.322 28.682C41.3793 33.8506 33.9292 33.8506 30.9865 28.682C29.4675 26.0141 25.6221 26.0141 24.1031 28.682C21.1604 33.8506 13.7103 33.8506 10.7676 28.682C9.24872 26.0141 5.40323 26.0141 3.8843 28.682L-1.1704 37.5602L-4.39648 35.7235L0.658221 26.8453C3.60092 21.6766 11.051 21.6766 13.9937 26.8453C15.5126 29.5131 19.3581 29.5131 20.8771 26.8453C23.8198 21.6766 31.2698 21.6766 34.2126 26.8453C35.7315 29.5131 39.577 29.5131 41.0959 26.8453C44.0386 21.6766 51.4887 21.6766 54.4314 26.8453C55.9503 29.5131 59.7958 29.5131 61.3147 26.8453C64.2574 21.6766 71.7075 21.6766 74.6502 26.8453C76.1691 29.5131 80.0146 29.5131 81.5335 26.8453L86.5883 17.967L89.8143 19.8038Z" fill="#FFC267"/>
<path fill-rule="evenodd" clip-rule="evenodd" d="M90.433 32.7669L85.3783 41.6451C82.4356 46.8138 74.9855 46.8138 72.0428 41.6451C70.5239 38.9772 66.6784 38.9772 65.1594 41.6451C62.2167 46.8138 54.7667 46.8138 51.8239 41.6451C50.305 38.9772 46.4595 38.9772 44.9406 41.6451C41.9979 46.8138 34.5478 46.8138 31.6051 41.6451C30.0862 38.9772 26.2407 38.9772 24.7218 41.6451C21.7791 46.8138 14.329 46.8138 11.3863 41.6451C9.86737 38.9772 6.02188 38.9772 4.50296 41.6451L-0.551751 50.5233L-3.77783 48.6866L1.27687 39.8084C4.21957 34.6398 11.6697 34.6398 14.6124 39.8084C16.1313 42.4763 19.9768 42.4763 21.4957 39.8084C24.4384 34.6398 31.8885 34.6398 34.8312 39.8084C36.3501 42.4763 40.1956 42.4763 41.7145 39.8084C44.6572 34.6398 52.1073 34.6398 55.05 39.8084C56.569 42.4763 60.4144 42.4763 61.9334 39.8084C64.8761 34.6398 72.3262 34.6398 75.2689 39.8084C76.7878 42.4763 80.6333 42.4763 82.1522 39.8084L87.2069 30.9302L90.433 32.7669Z" fill="#FFC267"/>
</g>
</svg>
