<svg width="21" height="25" viewBox="0 0 21 25" fill="none" xmlns="http://www.w3.org/2000/svg">
<path d="M17.3712 6.82797C12.8842 7.56872 11.882 6.56755 10.8798 5.5603C9.87766 6.56451 8.87852 7.56568 4.38745 6.82797" stroke="#5C94C8" stroke-width="1.5" stroke-linecap="round" stroke-linejoin="round"/>
<path d="M16.6376 10.0494L17.3652 6.78143C17.6296 5.63062 17.4373 4.42211 16.8287 3.41022C16.2201 2.39833 15.2428 1.66197 14.1023 1.35608C13.047 1.10461 11.9646 0.985468 10.8799 1.00141C9.79692 0.985888 8.7162 1.10502 7.66259 1.35608C6.52168 1.66196 5.54397 2.39864 4.93535 3.41098C4.32673 4.42333 4.1347 5.63235 4.39968 6.78345L5.12725 10.0514" stroke="#5C94C8" stroke-width="1.5" stroke-linecap="round" stroke-linejoin="round"/>
<path d="M3.28012 19.7391V20.7636C3.27127 20.9573 3.32436 21.1487 3.43168 21.3101C3.53901 21.4716 3.69498 21.5946 3.87697 21.6614L10.8801 23.8015V14.8508L4.31878 12.4452C4.18892 12.4101 4.05246 12.4072 3.9212 12.4366C3.78994 12.466 3.66782 12.527 3.56537 12.6142C3.46293 12.7013 3.38324 12.8121 3.33319 12.937C3.28314 13.0619 3.26423 13.197 3.2781 13.3308V15.1913" stroke="#5C94C8" stroke-width="1.5" stroke-linecap="round" stroke-linejoin="round"/>
<path d="M18.4933 19.5902V20.7636C18.5022 20.9571 18.4492 21.1485 18.3421 21.3099C18.235 21.4713 18.0792 21.5944 17.8974 21.6614L10.8801 23.8015V14.8508L17.4526 12.4452C17.5824 12.4101 17.7189 12.4072 17.8501 12.4366C17.9814 12.466 18.1035 12.527 18.206 12.6142C18.3084 12.7013 18.3881 12.8121 18.4382 12.937C18.4882 13.0619 18.5071 13.197 18.4933 13.3308V15.3474" stroke="#5C94C8" stroke-width="1.5" stroke-linecap="round" stroke-linejoin="round"/>
<path d="M4.78682 18.8423C4.78682 19.3489 4.21632 19.7542 3.51915 19.7482C2.12278 19.7421 0.99495 18.9203 1.00002 17.914V17.002C1.00002 15.9948 2.14001 15.1841 3.53333 15.1902C4.23152 15.1902 4.79493 15.6047 4.7929 16.1083L4.78682 18.8423Z" stroke="#5C94C8" stroke-width="1.5" stroke-linecap="round" stroke-linejoin="round"/>
<path d="M16.2071 18.8423C16.2071 19.3489 16.7776 19.7542 17.4768 19.7482C18.8752 19.7421 20.005 18.9203 20 17.914V17.002C20 15.9948 18.858 15.1841 17.4596 15.1902C16.7614 15.1902 16.1959 15.6047 16.199 16.1083L16.2071 18.8423Z" stroke="#5C94C8" stroke-width="1.5" stroke-linecap="round" stroke-linejoin="round"/>
<path d="M8.59985 10.1213V10.8813" stroke="#5C94C8" stroke-width="1.5" stroke-linecap="round" stroke-linejoin="round"/>
<path d="M13.1602 10.1213V10.8813" stroke="#5C94C8" stroke-width="1.5" stroke-linecap="round" stroke-linejoin="round"/>
</svg>
