<svg fill="none" height="40" viewBox="0 0 106 40" width="106" xmlns="http://www.w3.org/2000/svg"><g fill="#202020"><path d="m45.6123 22.5115h-1.9462c-.2937 0-.5277-.234-.5277-.5277v-6.1324c0-.2937-.2339-.5277-.5276-.5277h-1.7123c-.2937 0-.5277.234-.5277.5277v15.575c0 .2937.234.5277.5277.5277h1.7123c.2937 0 .5276-.234.5276-.5277v-6.0578c0-.2936.234-.5276.5277-.5276h1.9462c.2937 0 .5276.234.5276.5276v6.0578c0 .2937.234.5277.5277.5277h1.7123c.2937 0 .5276-.234.5276-.5277v-15.575c0-.2937-.2339-.5277-.5276-.5277h-1.7123c-.2937 0-.5277.234-.5277.5277v6.1324c0 .2937-.2389.5277-.5276.5277z"/><path d="m54.2436 15.7565-2.7626 15.5751c-.0597.3236.1891.6222.5177.6222h1.6974c.2588 0 .4828-.1891.5226-.443l.453-2.8572c.0398-.2588.2638-.443.5226-.443h2.1454c.2588 0 .4778.1842.5226.4381l.4928 2.8721c.0448.2538.2639.438.5227.438h1.7223c.3335 0 .5823-.3036.5176-.6272l-2.9617-15.5751c-.0498-.2488-.2638-.428-.5176-.428h-2.8722c-.2588-.005-.4778.1792-.5226.428zm2.5286 10.1196h-1.0552c-.3236 0-.5725-.2887-.5227-.6122l.5028-5.7144c.0945-.5923.9407-.5973 1.0403-.0099l.5525 5.7143c.0597.3236-.1891.6222-.5177.6222z"/><path d="m68.5743 22.3073h-1.8865c-.3634 0-.5575-.1693-.5575-.5277v-3.5938c0-.3584.1941-.5276.5575-.5276h1.0851c.3634 0 .5575.1692.5575.5276v1.7073c0 .2937.2339.5277.5276.5277h1.7372c.2937 0 .5276-.234.5276-.5277v-2.0707c0-1.6327-.9059-2.4938-2.6232-2.4938h-2.5336c-1.7173 0-2.6232.8611-2.6232 2.4938v4.2659c0 1.6476.891 2.5236 2.5734 2.5236h1.9114c.3634 0 .5277.1593.5277.5277v3.9572c0 .3683-.1643.5326-.5277.5326h-1.0851c-.3634 0-.5575-.1692-.5575-.5326v-1.7073c0-.2937-.2339-.5277-.5276-.5277h-1.7372c-.2937 0-.5276.234-.5276.5277v2.0707c0 1.6326.9059 2.4938 2.6232 2.4938h2.5087c1.7322 0 2.6531-.8612 2.6531-2.4938v-4.6541c-.005-1.6377-.901-2.4988-2.6033-2.4988z"/><path d="m79.0473 29.0966c0 .3684-.1593.5327-.5575.5327h-1.4734c-.3634 0-.5575-.1693-.5575-.5327v-13.2455c0-.2937-.2339-.5276-.5276-.5276h-1.7372c-.2937 0-.5277.2339-.5277.5276v13.6039c0 1.6327.9159 2.4938 2.6531 2.4938h2.8721c1.7323 0 2.6531-.8611 2.6531-2.4938v-13.6039c0-.2937-.2339-.5276-.5276-.5276h-1.7372c-.2937 0-.5276.2339-.5276.5276v13.2455z"/><path d="m92.8652 22.8895v-5.0722c0-1.6327-.906-2.4938-2.6232-2.4938h-4.9926c-.2937 0-.5277.2339-.5277.5276v15.5751c0 .2937.234.5276.5277.5276h1.7123c.2937 0 .5276-.2339.5276-.5276v-5.4904c0-.2936.234-.5276.5276-.5276.2191 0 .4182.1394.4928.3435l2.1753 5.8537c.0746.209.2737.3434.4928.3434h1.8417c.3733 0 .6272-.3733.4928-.7167l-2.1106-5.4356c-.1045-.2639.0299-.5476.2838-.677.7765-.3733 1.1797-1.1349 1.1797-2.23zm-2.7676-4.7088v4.3952c0 .3584-.1941.5277-.5575.5277h-1.5281c-.2937 0-.5277-.234-.5277-.5277v-4.4002c0-.2937.234-.5277.5277-.5277h1.5281c.3634 0 .5575.1743.5575.5327z"/><path d="m102.029 15.3235h-2.872c-.2539 0-.4729.1842-.5177.438l-2.7626 15.5751c-.0597.3235.1891.6222.5177.6222h1.6973c.2589 0 .4829-.1892.5227-.443l.453-2.8572c.0398-.2588.2638-.443.5226-.443h2.145c.259 0 .478.1842.523.438l.493 2.8721c.045.2539.264.4381.522.4381h1.723c.333 0 .582-.3037.517-.6272l-2.961-15.5751c-.055-.2588-.269-.438-.523-.438zm-.866 10.5526h-1.055c-.3239 0-.5727-.2887-.523-.6122l.503-5.2116c.094-.5924.941-.5974 1.04-.01l.553 5.2116c.059.3235-.19.6222-.518.6222z"/><path d="m33.3069 13.7963c1.1003-2.6656 1.1294-8.12559-.3363-12.36484-.3778-.759823-1.5196-.527307-1.5736.31971l-.0166.28234c-.2575 3.98183-1.7231 6.18242-3.8822 7.23704-.3529.17438-.9218.12871-1.2581-.08304-2.5743-1.62346-5.6219-2.56182-8.8895-2.56182-3.276 0-6.3278.94251-8.9062 2.57427-.32801.20761-.73906.25743-1.10444.12041-2.2089-.82626-3.75346-3.21784-4.01504-7.28271l-.01661-.28649c-.05398-.847017-1.19579-1.079533-1.57363-.31971-1.465675 4.24756-1.436611 9.71584-.33216 12.37724.55222 1.3329.58128 2.8318.12041 4.2019-.585444 1.7439-.888544 3.6206-.85948 5.5679.14117 8.8107 7.65224 16.301 16.46295 16.4173 9.3213.1245 16.9154-7.3948 16.9154-16.6871 0-1.856-.3031-3.6414-.8636-5.3105-.4609-1.3661-.4194-2.8649.1287-4.2019zm-16.1972 22.2052c-6.7886-.1246-12.32326-5.6634-12.45197-12.452-.13287-7.1997 5.72987-13.0666 12.93367-12.9337 6.7886.1246 12.3233 5.6634 12.452 12.452.1329 7.1997-5.7298 13.0666-12.9337 12.9337z"/><path d="m19.3145 21.947-2.9729-4.6212c-.4774-.7474-1.4781-.9633-2.2213-.4817-.465.299-.7432.8055-.7391 1.3868 0 .3073.1121.6104.2782.8678l2.0304 3.1597c.1494.2325.1245.5356-.0623.7391l-3.139 3.4586c-.5937.6561-.548 1.6733.1121 2.2712.3031.274.6976.4235 1.1086.4152.4402-.0083.8637-.1993 1.1626-.5273l2.3252-2.7362c.1785-.2118.5065-.1952.6643.0332l1.6484 2.375c.1162.1827.2615.3529.4401.4775.5688.4027 1.2705.3903 1.7978.0581.4692-.2948.7515-.8013.7515-1.3785 0-.3072-.1038-.6103-.2698-.8719z"/></g></svg>