<svg width="56" height="54" viewBox="0 0 56 54" fill="none" xmlns="http://www.w3.org/2000/svg">
<mask id="mask0" mask-type="alpha" maskUnits="userSpaceOnUse" x="2" y="1" width="52" height="52">
<path d="M5.63835 10.0666C6.9696 6.06854 10.3833 3.12045 14.5326 2.38549L16.2571 2.08002C24.0252 0.70405 31.9748 0.704051 39.7429 2.08002L41.4674 2.38549C45.6167 3.12045 49.0304 6.06854 50.3617 10.0666C54.0218 21.0589 54.0218 32.9411 50.3617 43.9334C49.0304 47.9315 45.6167 50.8796 41.4674 51.6145L39.7429 51.92C31.9748 53.296 24.0252 53.296 16.2571 51.92L14.5326 51.6145C10.3833 50.8795 6.9696 47.9315 5.63835 43.9334C1.97823 32.9411 1.97823 21.0589 5.63835 10.0666Z" fill="#DEDEDE"/>
</mask>
<g mask="url(#mask0)">
<path d="M73.9506 -7.99463H-57.9497V63.9949H73.9506V-7.99463Z" fill="#1B2738"/>
<path d="M41.0263 47.1238H24.5535C24.5535 51.6811 28.2412 55.3758 32.7899 55.3758C37.3386 55.3758 41.0263 51.6811 41.0263 47.1238Z" fill="#2EB67D"/>
<path d="M41.0264 47.1236H57.4992C57.4992 42.5663 53.8115 38.8716 49.2628 38.8716C44.7141 38.8692 41.0264 42.5663 41.0264 47.1236Z" fill="#2EB67D"/>
<path d="M8.08583 47.1238H-8.38696C-8.38696 51.6811 -4.69927 55.3758 -0.150564 55.3758C4.39814 55.3758 8.08583 51.6811 8.08583 47.1238Z" fill="#2EB67D"/>
<path d="M8.08569 47.1236H24.5585C24.5585 42.5663 20.8708 38.8716 16.3221 38.8716C11.7734 38.8692 8.08569 42.5663 8.08569 47.1236Z" fill="#FFC267"/>
<path d="M40.8602 27.582H24.3875C24.3875 32.1394 28.0751 35.834 32.6238 35.834C37.1726 35.834 40.8602 32.1394 40.8602 27.582Z" fill="#2EB67D"/>
<path d="M40.8599 27.5821H57.3327C57.3327 23.0248 53.645 19.3301 49.0963 19.3301C44.5476 19.3301 40.8599 23.0248 40.8599 27.5821Z" fill="#FFC267"/>
<path d="M7.91933 27.582H-8.55347C-8.55347 32.1394 -4.86578 35.834 -0.317068 35.834C4.23164 35.834 7.91933 32.1394 7.91933 27.582Z" fill="#2EB67D"/>
<path d="M7.91919 27.5821H24.392C24.392 23.0248 20.7043 19.3301 16.1556 19.3301C11.6069 19.3301 7.91919 23.0248 7.91919 27.5821Z" fill="#2EB67D"/>
<path d="M40.8602 8.09839H24.3875C24.3875 12.6557 28.0751 16.3504 32.6238 16.3504C37.1726 16.3504 40.8602 12.6557 40.8602 8.09839Z" fill="#2EB67D"/>
<path d="M40.8599 8.09847H57.3327C57.3327 3.54113 53.645 -0.153564 49.0963 -0.153564C44.5476 -0.153564 40.8599 3.54113 40.8599 8.09847Z" fill="#2EB67D"/>
<path d="M7.91933 8.09839H-8.55347C-8.55347 12.6557 -4.86578 16.3504 -0.317068 16.3504C4.23164 16.3504 7.91933 12.6557 7.91933 8.09839Z" fill="#2EB67D"/>
<path d="M7.91919 8.09847H24.392C24.392 3.54113 20.7043 -0.153564 16.1556 -0.153564C11.6069 -0.153564 7.91919 3.54113 7.91919 8.09847Z" fill="#FFC267"/>
</g>
</svg>
