<svg width="24" height="24" viewBox="0 0 24 24" fill="none" xmlns="http://www.w3.org/2000/svg">
<mask id="mask0" mask-type="alpha" maskUnits="userSpaceOnUse" x="0" y="0" width="24" height="24">
<rect x="0.5" y="0.5" width="23" height="23" rx="11.5" fill="#C4C4C4" stroke="black"/>
</mask>
<g mask="url(#mask0)">
<path d="M16.9054 15.437L7.12864 15.437C7.49004 13.062 9.54108 11.2421 12.017 11.2421C14.493 11.2421 16.544 13.062 16.9054 15.437Z" stroke="#5C94C8" stroke-width="1.5"/>
<path d="M-3.54969 24.0552L6.22708 24.0552C5.86567 26.4302 3.81464 28.2501 1.3387 28.2501C-1.13724 28.2501 -3.18828 26.4302 -3.54969 24.0552Z" stroke="#5C94C8" stroke-width="1.5"/>
<path d="M17.806 24.0552L27.5828 24.0552C27.2214 26.4302 25.1703 28.2501 22.6944 28.2501C20.2185 28.2501 18.1674 26.4302 17.806 24.0552Z" stroke="#5C94C8" stroke-width="1.5"/>
<path d="M-3.54969 8.39453L6.22708 8.39453C5.86567 10.7696 3.81464 12.5894 1.3387 12.5894C-1.13724 12.5894 -3.18828 10.7695 -3.54969 8.39453Z" stroke="#5C94C8" stroke-width="1.5"/>
<path d="M17.806 8.39453L27.5828 8.39453C27.2214 10.7696 25.1703 12.5894 22.6944 12.5894C20.2185 12.5894 18.1674 10.7695 17.806 8.39453Z" stroke="#5C94C8" stroke-width="1.5"/>
<path d="M17.806 0.563721L27.5828 0.563723C27.2214 2.93874 25.1703 4.75862 22.6944 4.75862C20.2185 4.75862 18.1674 2.93874 17.806 0.563721Z" stroke="#5C94C8" stroke-width="1.5"/>
<path d="M-3.54969 16.2249H6.22708C5.86567 18.5999 3.81464 20.4197 1.3387 20.4197C-1.13724 20.4197 -3.18828 18.5999 -3.54969 16.2249Z" stroke="#5C94C8" stroke-width="1.5"/>
<path d="M17.806 16.2249H27.5828C27.2214 18.5999 25.1704 20.4197 22.6944 20.4197C20.2185 20.4197 18.1674 18.5999 17.806 16.2249Z" stroke="#5C94C8" stroke-width="1.5"/>
<path d="M-3.54969 0.563721L6.22708 0.563721C5.86567 2.93874 3.81464 4.75862 1.3387 4.75862C-1.13724 4.75862 -3.18828 2.93874 -3.54969 0.563721Z" stroke="#5C94C8" stroke-width="1.5"/>
<path d="M16.9054 23.2671L7.12864 23.2671C7.49004 20.8921 9.54108 19.0722 12.017 19.0722C14.493 19.0722 16.544 20.8921 16.9054 23.2671Z" stroke="#5C94C8" stroke-width="1.5"/>
<path d="M16.9054 7.60645L7.12864 7.60644C7.49004 5.23143 9.54108 3.41155 12.017 3.41155C14.493 3.41155 16.544 5.23143 16.9054 7.60645Z" stroke="#5C94C8" stroke-width="1.5"/>
<path d="M16.9054 15.437L7.12864 15.437C7.49004 13.062 9.54108 11.2421 12.017 11.2421C14.493 11.2421 16.544 13.062 16.9054 15.437Z" stroke="#5C94C8" stroke-width="1.5"/>
<path d="M16.9054 -0.224121L7.12864 -0.224122C7.49004 -2.59914 9.54108 -4.41902 12.017 -4.41902C14.493 -4.41902 16.544 -2.59914 16.9054 -0.224121Z" stroke="#5C94C8" stroke-width="1.5"/>
<path d="M-3.54969 24.0552L6.22708 24.0552C5.86567 26.4302 3.81464 28.2501 1.3387 28.2501C-1.13724 28.2501 -3.18828 26.4302 -3.54969 24.0552Z" stroke="#5C94C8" stroke-width="1.5"/>
<path d="M-3.54969 8.39453L6.22708 8.39453C5.86567 10.7696 3.81464 12.5894 1.3387 12.5894C-1.13724 12.5894 -3.18828 10.7695 -3.54969 8.39453Z" stroke="#5C94C8" stroke-width="1.5"/>
<path d="M17.806 8.39453L27.5828 8.39453C27.2214 10.7696 25.1703 12.5894 22.6944 12.5894C20.2185 12.5894 18.1674 10.7695 17.806 8.39453Z" stroke="#5C94C8" stroke-width="1.5"/>
</g>
<circle cx="12" cy="12" r="11.25" stroke="#5C94C8" stroke-width="1.5"/>
</svg>
