<svg width="25" height="25" viewBox="0 0 25 25" fill="none" xmlns="http://www.w3.org/2000/svg">
<path d="M9.25 4C9.25 4.79565 9.56607 5.55871 10.1287 6.12132C10.6913 6.68393 11.4544 7 12.25 7C13.0456 7 13.8087 6.68393 14.3713 6.12132C14.9339 5.55871 15.25 4.79565 15.25 4C15.25 3.20435 14.9339 2.44129 14.3713 1.87868C13.8087 1.31607 13.0456 1 12.25 1C11.4544 1 10.6913 1.31607 10.1287 1.87868C9.56607 2.44129 9.25 3.20435 9.25 4V4Z" stroke="#5C94C8" stroke-width="1.5" stroke-linecap="round" stroke-linejoin="round"/>
<path d="M16 14.5V12.25C16 11.2554 15.6049 10.3016 14.9017 9.59835C14.1984 8.89509 13.2446 8.5 12.25 8.5C11.2554 8.5 10.3016 8.89509 9.59835 9.59835C8.89509 10.3016 8.5 11.2554 8.5 12.25V14.5H10L10.75 20.5H13.75L14.5 14.5H16Z" stroke="#5C94C8" stroke-width="1.5" stroke-linecap="round" stroke-linejoin="round"/>
<path d="M2.5 6.25C2.5 6.84674 2.73705 7.41903 3.15901 7.84099C3.58097 8.26295 4.15326 8.5 4.75 8.5C5.34674 8.5 5.91903 8.26295 6.34099 7.84099C6.76295 7.41903 7 6.84674 7 6.25C7 5.65326 6.76295 5.08097 6.34099 4.65901C5.91903 4.23705 5.34674 4 4.75 4C4.15326 4 3.58097 4.23705 3.15901 4.65901C2.73705 5.08097 2.5 5.65326 2.5 6.25V6.25Z" stroke="#5C94C8" stroke-width="1.5" stroke-linecap="round" stroke-linejoin="round"/>
<path d="M5.95 10.197C5.38585 10.0071 4.78463 9.9542 4.19598 10.0425C3.60733 10.1309 3.04813 10.358 2.56457 10.7051C2.081 11.0522 1.68693 11.5093 1.41488 12.0388C1.14284 12.5682 1.00063 13.1547 1 13.75V14.5H2.5L3.25 19H6.25L6.626 16.744" stroke="#5C94C8" stroke-width="1.5" stroke-linecap="round" stroke-linejoin="round"/>
<path d="M17.5 6.25C17.5 6.84674 17.7371 7.41903 18.159 7.84099C18.581 8.26295 19.1533 8.5 19.75 8.5C20.3467 8.5 20.919 8.26295 21.341 7.84099C21.7629 7.41903 22 6.84674 22 6.25C22 5.65326 21.7629 5.08097 21.341 4.65901C20.919 4.23705 20.3467 4 19.75 4C19.1533 4 18.581 4.23705 18.159 4.65901C17.7371 5.08097 17.5 5.65326 17.5 6.25Z" stroke="#5C94C8" stroke-width="1.5" stroke-linecap="round" stroke-linejoin="round"/>
<path d="M18.55 10.197C19.1142 10.0071 19.7154 9.9542 20.304 10.0425C20.8927 10.1309 21.4519 10.358 21.9355 10.7051C22.419 11.0522 22.8131 11.5093 23.0851 12.0388C23.3572 12.5682 23.4994 13.1547 23.5 13.75V14.5H22L21.25 19H18.25L17.874 16.744" stroke="#5C94C8" stroke-width="1.5" stroke-linecap="round" stroke-linejoin="round"/>
<path d="M23.5 21.25C23.5 22.493 18.463 23.5 12.25 23.5C6.037 23.5 1 22.493 1 21.25" stroke="#5C94C8" stroke-width="1.5" stroke-linecap="round" stroke-linejoin="round"/>
</svg>
