<svg width="57" height="55" viewBox="0 0 57 55" fill="none" xmlns="http://www.w3.org/2000/svg">
<mask id="mask0" mask-type="alpha" maskUnits="userSpaceOnUse" x="3" y="1" width="51" height="53">
<mask id="mask1" maskUnits="userSpaceOnUse" x="3" y="1" width="51" height="53">
<path d="M5.8617 10.6598C7.20528 6.62473 10.6506 3.64935 14.8383 2.90757L16.5788 2.59928C24.4188 1.21057 32.442 1.21057 40.282 2.59928L42.0225 2.90757C46.2102 3.64935 49.6555 6.62473 50.9991 10.6598C54.6931 21.7539 54.6931 33.7461 50.9991 44.8402C49.6555 48.8753 46.2102 51.8507 42.0225 52.5924L40.282 52.9007C32.442 54.2894 24.4188 54.2894 16.5788 52.9007L14.8383 52.5924C10.6506 51.8507 7.20528 48.8753 5.8617 44.8402C2.16769 33.7461 2.16769 21.7539 5.8617 10.6598Z" fill="#DEDEDE"/>
</mask>
<g mask="url(#mask1)">
<path d="M60.7194 -2.51367H-2.98132V59.8274H60.7194V-2.51367Z" fill="#2EB67D"/>
</g>
</mask>
<g mask="url(#mask0)">
<path d="M60.7194 -3.52295H-2.98132V58.8181H60.7194V-3.52295Z" fill="#2EB67D"/>
<rect x="28.4307" y="13.8417" width="19.6698" height="19.6698" transform="rotate(45 28.4307 13.8417)" stroke="#F8F8F8" stroke-width="2"/>
<circle cx="28.4308" cy="42.8266" r="5.36496" fill="#FFC267"/>
<circle cx="13.3545" cy="27.7502" r="5.36496" transform="rotate(90 13.3545 27.7502)" fill="#FFC267"/>
<circle cx="28.4308" cy="12.6743" r="5.36496" fill="#FFC267"/>
<circle cx="43.5067" cy="27.7502" r="5.36496" transform="rotate(90 43.5067 27.7502)" fill="#FFC267"/>
</g>
</svg>
