<svg width="17" height="20" viewBox="0 0 17 20" fill="none" xmlns="http://www.w3.org/2000/svg">
<path d="M17 20L12.5375 15.6522L13.073 17.3913H2.125C1.56141 17.3913 1.02091 17.1623 0.622398 16.7546C0.223883 16.3469 0 15.7939 0 15.2174V2.17391C0 1.59736 0.223883 1.04441 0.622398 0.636724C1.02091 0.229037 1.56141 0 2.125 0H14.875C15.4386 0 15.9791 0.229037 16.3776 0.636724C16.7761 1.04441 17 1.59736 17 2.17391V20ZM8.5 5.04348C6.222 5.04348 4.624 6.04348 4.624 6.04348C5.4995 5.24348 7.0295 4.78261 7.0295 4.78261L6.885 4.63478C5.4485 4.66087 4.148 5.67826 4.148 5.67826C2.686 8.8 2.7795 11.4957 2.7795 11.4957C3.9695 13.0696 5.7375 12.9565 5.7375 12.9565L6.341 12.1739C5.2785 11.9391 4.607 10.9739 4.607 10.9739C4.607 10.9739 6.205 12.087 8.5 12.087C10.795 12.087 12.393 10.9739 12.393 10.9739C12.393 10.9739 11.7215 11.9391 10.659 12.1739L11.2625 12.9565C11.2625 12.9565 13.0305 13.0696 14.2205 11.4957C14.2205 11.4957 14.314 8.8 12.852 5.67826C12.852 5.67826 11.5515 4.66087 10.115 4.63478L9.9705 4.78261C9.9705 4.78261 11.5005 5.24348 12.376 6.04348C12.376 6.04348 10.778 5.04348 8.5 5.04348ZM6.7405 8.33913C7.293 8.33913 7.7435 8.83478 7.735 9.44348C7.735 10.0435 7.293 10.5478 6.7405 10.5478C6.1965 10.5478 5.7545 10.0435 5.7545 9.44348C5.7545 8.83478 6.188 8.33913 6.7405 8.33913ZM10.285 8.33913C10.8375 8.33913 11.2795 8.83478 11.2795 9.44348C11.2795 10.0435 10.8375 10.5478 10.285 10.5478C9.741 10.5478 9.299 10.0435 9.299 9.44348C9.299 8.83478 9.7325 8.33913 10.285 8.33913Z" fill="#717780"/>
</svg>
