<svg xmlns="http://www.w3.org/2000/svg" width="11.559" height="13.211" viewBox="0 0 11.559 13.211">
    <defs>
        <style>
            .cls-1{fill:#24292e}
        </style>
    </defs>
    <path id="discord-brands" d="M7.669 6.275A.676.676 0 1 1 7 5.542a.7.7 0 0 1 .669.733zm-3.085-.733a.736.736 0 0 0 0 1.466.7.7 0 0 0 .674-.733.7.7 0 0 0-.674-.733zm6.975-4.181v11.85c-1.659-1.471-1.132-.984-3.065-2.781l.35 1.222h-7.49A1.357 1.357 0 0 1 0 10.291v-8.93A1.357 1.357 0 0 1 1.354 0h8.851a1.357 1.357 0 0 1 1.354 1.361zM9.677 7.623a8.846 8.846 0 0 0-.951-3.851 3.266 3.266 0 0 0-1.856-.694l-.092.106a4.4 4.4 0 0 1 1.645.839 5.612 5.612 0 0 0-4.934-.192c-.244.112-.39.192-.39.192a4.456 4.456 0 0 1 1.737-.865l-.066-.079a3.266 3.266 0 0 0-1.856.694 8.846 8.846 0 0 0-.951 3.851 2.4 2.4 0 0 0 2.015 1s.244-.3.443-.548A2.054 2.054 0 0 1 3.263 7.3c.1.068.257.156.271.165a4.815 4.815 0 0 0 4.122.235 3.78 3.78 0 0 0 .76-.39 2.084 2.084 0 0 1-1.2.786c.2.251.436.535.436.535a2.415 2.415 0 0 0 2.021-1z" class="cls-1"/>
</svg>
