<svg xmlns="http://www.w3.org/2000/svg" width="21" height="24" viewBox="0 0 21 24">
    <defs>
        <style>
            .cls-1{fill:#fff}
        </style>
    </defs>
    <path id="discord-brands" d="M13.932 11.4a1.228 1.228 0 1 1-1.224-1.332 1.278 1.278 0 0 1 1.224 1.332zm-5.6-1.332a1.337 1.337 0 0 0 0 2.664 1.278 1.278 0 0 0 1.22-1.332 1.271 1.271 0 0 0-1.224-1.332zM21 2.472V24c-3.023-2.672-2.056-1.787-5.568-5.052l.636 2.22H2.46A2.466 2.466 0 0 1 0 18.7V2.472A2.466 2.466 0 0 1 2.46 0h16.08A2.466 2.466 0 0 1 21 2.472zm-3.42 11.376a16.07 16.07 0 0 0-1.728-7 5.934 5.934 0 0 0-3.372-1.26l-.168.192A7.986 7.986 0 0 1 15.3 7.308a10.2 10.2 0 0 0-8.964-.348c-.444.2-.708.348-.708.348a8.1 8.1 0 0 1 3.156-1.572l-.12-.144a5.934 5.934 0 0 0-3.372 1.26 16.07 16.07 0 0 0-1.728 7 4.351 4.351 0 0 0 3.66 1.824s.444-.54.8-1a3.732 3.732 0 0 1-2.1-1.416c.177.124.468.284.492.3a8.747 8.747 0 0 0 7.488.42 6.867 6.867 0 0 0 1.38-.708 3.787 3.787 0 0 1-2.168 1.428c.36.456.792.972.792.972a4.387 4.387 0 0 0 3.672-1.824z" class="cls-1"/>
</svg>
