<?xml version="1.0" encoding="utf-8"?>
<!-- Generator: Adobe Illustrator 19.0.0, SVG Export Plug-In . SVG Version: 6.00 Build 0)  -->
<svg version="1.1" xmlns="http://www.w3.org/2000/svg" xmlns:xlink="http://www.w3.org/1999/xlink" x="0px" y="0px"
	 viewBox="-216 218 66 66" style="enable-background:new -216 218 66 66;" xml:space="preserve">
<style type="text/css">
	.st0{fill:#97A9FF;}
	.st1{fill:#FFFFFF;}
</style>
<g id="Layer_1">
	<title>Discord</title>
	<desc>Created with Sketch.</desc>
	<g id="Page-1">
		<g id="Hasura_Jun29-Update" transform="translate(-1157.000000, -872.000000)">
			<g id="Group-6" transform="translate(1066.000000, 872.000000)">
				<g id="Discord" transform="translate(91.000000, 0.000000)">
					<g>
						<g id="Twitter-Copy">
							<path id="back" class="st0" d="M-216,251c0-18.2,14.8-33,33-33s33,14.8,33,33s-14.8,33-33,33S-216,269.2-216,251z"/>
						</g>
					</g>
				</g>
			</g>
		</g>
	</g>
</g>
<g id="Layer_2">
	<g>
		<path class="st1" d="M-172.5,266.6l-2.5-2.9c4.8-1.3,6.7-4.6,6.7-4.6c-6.1,5.7-22.6,6-29.1,0c0,0,1.6,3,6.5,4.6l-2.7,2.9
			c-8.2-0.1-11.3-5.6-11.3-5.6c0-12.1,5.4-21.8,5.4-21.8c5.5-3.9,10.5-3.9,10.5-3.9l0.4,0.5c-6.8,1.9-9.7,4.9-9.7,4.9
			c7.9-5.4,24.3-4.9,30.7,0c0.1-0.1-3.9-3.3-10-4.9l0.6-0.5c0,0,5,0,10.5,3.9c0,0,5.4,9.7,5.4,21.8
			C-161.2,261-164.3,266.5-172.5,266.6z"/>
		<ellipse class="st0" cx="-190" cy="253.5" rx="3.9" ry="4.1"/>
		<ellipse class="st0" cx="-176.5" cy="253.5" rx="3.9" ry="4.1"/>
	</g>
</g>
</svg>
