<svg width="25" height="25" viewBox="0 0 25 25" fill="none" xmlns="http://www.w3.org/2000/svg">
<path d="M5.5 2.5H2.5C2.10218 2.5 1.72064 2.65804 1.43934 2.93934C1.15804 3.22064 1 3.60218 1 4V22C1 22.3978 1.15804 22.7794 1.43934 23.0607C1.72064 23.342 2.10218 23.5 2.5 23.5H22C22.3978 23.5 22.7794 23.342 23.0607 23.0607C23.342 22.7794 23.5 22.3978 23.5 22V4C23.5 3.60218 23.342 3.22064 23.0607 2.93934C22.7794 2.65804 22.3978 2.5 22 2.5H11.5" stroke="#5C94C8" stroke-width="1.5" stroke-linecap="round" stroke-linejoin="round"/>
<path d="M11.5 11.5L8.5 9.251L5.5 11.501V1.751C5.49987 1.65242 5.51917 1.55479 5.5568 1.46368C5.59444 1.37257 5.64966 1.28977 5.71932 1.22002C5.78897 1.15027 5.8717 1.09494 5.96276 1.05719C6.05382 1.01943 6.15143 1 6.25 1H10.75C10.9489 1 11.1397 1.07902 11.2803 1.21967C11.421 1.36032 11.5 1.55109 11.5 1.75V11.5Z" stroke="#5C94C8" stroke-width="1.5" stroke-linecap="round" stroke-linejoin="round"/>
<path d="M5.5 19H16" stroke="#5C94C8" stroke-width="1.5" stroke-linecap="round" stroke-linejoin="round"/>
<path d="M5.5 14.5H19" stroke="#5C94C8" stroke-width="1.5" stroke-linecap="round" stroke-linejoin="round"/>
<path d="M19 10H14.5" stroke="#5C94C8" stroke-width="1.5" stroke-linecap="round" stroke-linejoin="round"/>
</svg>
