<svg height="12.98" viewBox="0 0 44.891 12.98" width="44.891" xmlns="http://www.w3.org/2000/svg"><path d="m11.831-6.67a6.366 6.366 0 0 1 -1.694 4.77 6.705 6.705 0 0 1 -4.877 1.656h-3.493v-12.609h3.863a6.18 6.18 0 0 1 4.571 1.63 6.156 6.156 0 0 1 1.63 4.553zm-1.552.052a5.076 5.076 0 0 0 -1.238-3.717 4.96 4.96 0 0 0 -3.678-1.251h-2.13v10.074h1.785a5.428 5.428 0 0 0 3.942-1.288 5.105 5.105 0 0 0 1.319-3.818zm15.309.052a6.942 6.942 0 0 1 -1.531 4.761 5.382 5.382 0 0 1 -4.257 1.733 5.45 5.45 0 0 1 -4.3-1.7 7 7 0 0 1 -1.514-4.808 6.911 6.911 0 0 1 1.518-4.774 5.489 5.489 0 0 1 4.312-1.695 5.371 5.371 0 0 1 4.243 1.725 6.934 6.934 0 0 1 1.529 4.758zm-10.048 0a5.984 5.984 0 0 0 1.091 3.885 3.871 3.871 0 0 0 3.169 1.324 3.834 3.834 0 0 0 3.165-1.32 6.068 6.068 0 0 0 1.069-3.89 6.019 6.019 0 0 0 -1.065-3.86 3.817 3.817 0 0 0 -3.152-1.315 3.891 3.891 0 0 0 -3.187 1.324 5.923 5.923 0 0 0 -1.09 3.852zm18.26-5.158a4.123 4.123 0 0 0 -3.282 1.384 5.583 5.583 0 0 0 -1.2 3.791 5.7 5.7 0 0 0 1.16 3.825 4.123 4.123 0 0 0 3.308 1.35 11.293 11.293 0 0 0 3.01-.474v1.285a9.269 9.269 0 0 1 -3.234.492 5.471 5.471 0 0 1 -4.3-1.69 6.961 6.961 0 0 1 -1.514-4.8 7.582 7.582 0 0 1 .729-3.415 5.232 5.232 0 0 1 2.1-2.26 6.369 6.369 0 0 1 3.239-.793 7.814 7.814 0 0 1 3.467.724l-.621 1.259a6.683 6.683 0 0 0 -2.862-.678zm12.858 8.124a3.093 3.093 0 0 1 -1.208 2.6 5.236 5.236 0 0 1 -3.277.931 8.209 8.209 0 0 1 -3.45-.578v-1.417a9.083 9.083 0 0 0 1.69.517 8.894 8.894 0 0 0 1.811.19 3.654 3.654 0 0 0 2.208-.556 1.826 1.826 0 0 0 .742-1.548 1.987 1.987 0 0 0 -.263-1.074 2.444 2.444 0 0 0 -.88-.772 12.307 12.307 0 0 0 -1.876-.8 5.988 5.988 0 0 1 -2.514-1.493 3.294 3.294 0 0 1 -.755-2.251 2.8 2.8 0 0 1 1.1-2.32 4.552 4.552 0 0 1 2.9-.862 8.54 8.54 0 0 1 3.458.69l-.457 1.276a7.816 7.816 0 0 0 -3.036-.655 2.938 2.938 0 0 0 -1.82.5 1.648 1.648 0 0 0 -.655 1.389 2.128 2.128 0 0 0 .241 1.074 2.274 2.274 0 0 0 .815.768 10.127 10.127 0 0 0 1.755.772 6.948 6.948 0 0 1 2.725 1.519 2.985 2.985 0 0 1 .746 2.1z" fill="#fff" transform="translate(-1.767 13.052)"/></svg>