<svg width="24" height="24" viewBox="0 0 24 24" fill="none" xmlns="http://www.w3.org/2000/svg">
<mask id="mask0" mask-type="alpha" maskUnits="userSpaceOnUse" x="0" y="0" width="24" height="24">
<rect x="0.5" y="0.5" width="23" height="23" rx="11.5" fill="#C4C4C4" stroke="black"/>
</mask>
<g mask="url(#mask0)">
<path d="M6.3807 8.52177C6.3807 9.26015 5.78213 9.85873 5.04374 9.85873C4.30536 9.85873 3.70679 9.26015 3.70679 8.52177C3.70679 7.78339 4.30536 7.18481 5.04374 7.18482C5.78213 7.18482 6.3807 7.78339 6.3807 8.52177Z" stroke="#5C94C8" stroke-width="1.5"/>
<path d="M13.337 8.52177C13.337 9.26015 12.7384 9.85873 12 9.85873C11.2617 9.85873 10.6631 9.26015 10.6631 8.52177C10.6631 7.78339 11.2617 7.18481 12 7.18482C12.7384 7.18482 13.337 7.78339 13.337 8.52177Z" stroke="#5C94C8" stroke-width="1.5"/>
<path d="M-0.576086 8.52177C-0.576086 9.26015 -1.17466 9.85873 -1.91304 9.85873C-2.65143 9.85873 -3.25 9.26015 -3.25 8.52177C-3.25 7.78339 -2.65142 7.18481 -1.91304 7.18482C-1.17466 7.18482 -0.576086 7.78339 -0.576086 8.52177Z" stroke="#5C94C8" stroke-width="1.5"/>
<path d="M-0.521729 8.52173H3.65218" stroke="#5C94C8" stroke-width="1.5"/>
<path d="M6.43481 8.52173H10.6087" stroke="#5C94C8" stroke-width="1.5"/>
<path d="M5.04341 16.8153C4.30503 16.8153 3.70646 16.2167 3.70646 15.4783C3.70646 14.7399 4.30504 14.1414 5.04341 14.1414C5.78179 14.1414 6.38037 14.7399 6.38037 15.4783C6.38037 16.2167 5.78179 16.8153 5.04341 16.8153Z" stroke="#5C94C8" stroke-width="1.5"/>
<path d="M5.04317 2.90219C4.30479 2.90219 3.70621 2.30361 3.70621 1.56523C3.70621 0.826846 4.30479 0.22827 5.04317 0.228271C5.78155 0.228271 6.38013 0.826847 6.38013 1.56523C6.38013 2.30361 5.78155 2.90219 5.04317 2.90219Z" stroke="#5C94C8" stroke-width="1.5"/>
<path d="M5.04346 2.95654L5.04346 7.13046" stroke="#5C94C8" stroke-width="1.5"/>
<path d="M5.04346 9.91309L5.04346 14.087" stroke="#5C94C8" stroke-width="1.5"/>
<path d="M6.38046 15.4781C6.38046 16.2165 5.78188 16.815 5.0435 16.815C4.30512 16.815 3.70654 16.2164 3.70654 15.4781C3.70654 14.7397 4.30512 14.1411 5.0435 14.1411C5.78188 14.1411 6.38046 14.7397 6.38046 15.4781Z" stroke="#5C94C8" stroke-width="1.5"/>
<path d="M13.337 15.4783C13.337 16.2167 12.7384 16.8153 12 16.8153C11.2617 16.8153 10.6631 16.2167 10.6631 15.4783C10.6631 14.7399 11.2617 14.1414 12 14.1414C12.7384 14.1414 13.337 14.7399 13.337 15.4783Z" stroke="#5C94C8" stroke-width="1.5"/>
<path d="M-0.576086 15.4793C-0.576086 16.2177 -1.17466 16.8162 -1.91304 16.8162C-2.65143 16.8162 -3.25 16.2177 -3.25 15.4793C-3.25 14.7409 -2.65142 14.1423 -1.91304 14.1423C-1.17466 14.1423 -0.576086 14.7409 -0.576086 15.4793Z" stroke="#5C94C8" stroke-width="1.5"/>
<path d="M-0.521729 15.4783H3.65218" stroke="#5C94C8" stroke-width="1.5"/>
<path d="M6.43481 15.4783H10.6087" stroke="#5C94C8" stroke-width="1.5"/>
<path d="M5.04341 23.7718C4.30503 23.7718 3.70646 23.1732 3.70646 22.4349C3.70646 21.6965 4.30504 21.0979 5.04341 21.0979C5.78179 21.0979 6.38037 21.6965 6.38037 22.4349C6.38037 23.1732 5.78179 23.7718 5.04341 23.7718Z" stroke="#5C94C8" stroke-width="1.5"/>
<path d="M5.04317 9.85873C4.30479 9.85873 3.70621 9.26015 3.70621 8.52177C3.70621 7.78339 4.30479 7.18481 5.04317 7.18481C5.78155 7.18481 6.38013 7.78339 6.38013 8.52177C6.38013 9.26015 5.78155 9.85873 5.04317 9.85873Z" stroke="#5C94C8" stroke-width="1.5"/>
<path d="M5.04346 9.91309L5.04346 14.087" stroke="#5C94C8" stroke-width="1.5"/>
<path d="M5.04346 16.8696L5.04346 21.0435" stroke="#5C94C8" stroke-width="1.5"/>
<path d="M13.337 8.52177C13.337 9.26015 12.7384 9.85873 12 9.85873C11.2617 9.85873 10.6631 9.26015 10.6631 8.52177C10.6631 7.78339 11.2617 7.18481 12 7.18482C12.7384 7.18482 13.337 7.78339 13.337 8.52177Z" stroke="#5C94C8" stroke-width="1.5"/>
<path d="M20.2935 8.52177C20.2935 9.26015 19.695 9.85873 18.9566 9.85873C18.2182 9.85873 17.6196 9.26015 17.6196 8.52177C17.6196 7.78339 18.2182 7.18481 18.9566 7.18482C19.695 7.18482 20.2935 7.78339 20.2935 8.52177Z" stroke="#5C94C8" stroke-width="1.5"/>
<path d="M6.38046 8.52177C6.38046 9.26015 5.78188 9.85873 5.0435 9.85873C4.30512 9.85873 3.70654 9.26015 3.70654 8.52177C3.70654 7.78339 4.30512 7.18481 5.0435 7.18482C5.78188 7.18482 6.38046 7.78339 6.38046 8.52177Z" stroke="#5C94C8" stroke-width="1.5"/>
<path d="M6.43481 8.52173H10.6087" stroke="#5C94C8" stroke-width="1.5"/>
<path d="M13.3914 8.52173H17.5653" stroke="#5C94C8" stroke-width="1.5"/>
<path d="M12 16.8153C11.2616 16.8153 10.663 16.2167 10.663 15.4783C10.663 14.7399 11.2616 14.1414 12 14.1414C12.7383 14.1414 13.3369 14.7399 13.3369 15.4783C13.3369 16.2167 12.7383 16.8153 12 16.8153Z" stroke="#5C94C8" stroke-width="1.5"/>
<path d="M12 2.90219C11.2616 2.90219 10.663 2.30361 10.663 1.56523C10.663 0.826846 11.2616 0.22827 12 0.228271C12.7383 0.228271 13.3369 0.826847 13.3369 1.56523C13.3369 2.30361 12.7383 2.90219 12 2.90219Z" stroke="#5C94C8" stroke-width="1.5"/>
<path d="M12 2.95654L12 7.13046" stroke="#5C94C8" stroke-width="1.5"/>
<path d="M12 9.91309L12 14.087" stroke="#5C94C8" stroke-width="1.5"/>
<path d="M13.337 15.4781C13.337 16.2165 12.7384 16.815 12 16.815C11.2617 16.815 10.6631 16.2164 10.6631 15.4781C10.6631 14.7397 11.2617 14.1411 12 14.1411C12.7384 14.1411 13.337 14.7397 13.337 15.4781Z" stroke="#5C94C8" stroke-width="1.5"/>
<path d="M20.2935 15.4781C20.2935 16.2165 19.695 16.815 18.9566 16.815C18.2182 16.815 17.6196 16.2164 17.6196 15.4781C17.6196 14.7397 18.2182 14.1411 18.9566 14.1411C19.695 14.1411 20.2935 14.7397 20.2935 15.4781Z" stroke="#5C94C8" stroke-width="1.5"/>
<path d="M6.38046 15.479C6.38046 16.2174 5.78188 16.816 5.0435 16.816C4.30512 16.816 3.70654 16.2174 3.70654 15.479C3.70654 14.7407 4.30512 14.1421 5.0435 14.1421C5.78188 14.1421 6.38046 14.7407 6.38046 15.479Z" stroke="#5C94C8" stroke-width="1.5"/>
<path d="M6.43481 15.4783H10.6087" stroke="#5C94C8" stroke-width="1.5"/>
<path d="M13.3914 15.4783H17.5653" stroke="#5C94C8" stroke-width="1.5"/>
<path d="M12 23.7718C11.2616 23.7718 10.663 23.1732 10.663 22.4349C10.663 21.6965 11.2616 21.0979 12 21.0979C12.7383 21.0979 13.3369 21.6965 13.3369 22.4349C13.3369 23.1732 12.7383 23.7718 12 23.7718Z" stroke="#5C94C8" stroke-width="1.5"/>
<path d="M12 9.85873C11.2616 9.85873 10.663 9.26015 10.663 8.52177C10.663 7.78339 11.2616 7.18481 12 7.18481C12.7383 7.18481 13.3369 7.78339 13.3369 8.52177C13.3369 9.26015 12.7383 9.85873 12 9.85873Z" stroke="#5C94C8" stroke-width="1.5"/>
<path d="M12 9.91309L12 14.087" stroke="#5C94C8" stroke-width="1.5"/>
<path d="M12 16.8696L12 21.0435" stroke="#5C94C8" stroke-width="1.5"/>
<path d="M20.2935 8.52177C20.2935 9.26015 19.695 9.85873 18.9566 9.85873C18.2182 9.85873 17.6196 9.26015 17.6196 8.52177C17.6196 7.78339 18.2182 7.18481 18.9566 7.18482C19.695 7.18482 20.2935 7.78339 20.2935 8.52177Z" stroke="#5C94C8" stroke-width="1.5"/>
<path d="M27.2498 8.52177C27.2498 9.26015 26.6513 9.85873 25.9129 9.85873C25.1745 9.85873 24.5759 9.26015 24.5759 8.52177C24.5759 7.78339 25.1745 7.18481 25.9129 7.18482C26.6513 7.18482 27.2498 7.78339 27.2498 8.52177Z" stroke="#5C94C8" stroke-width="1.5"/>
<path d="M13.337 8.5225C13.337 9.26088 12.7384 9.85946 12 9.85946C11.2617 9.85946 10.6631 9.26088 10.6631 8.5225C10.6631 7.78412 11.2617 7.18555 12 7.18555C12.7384 7.18555 13.337 7.78412 13.337 8.5225Z" stroke="#5C94C8" stroke-width="1.5"/>
<path d="M13.3914 8.52173H17.5653" stroke="#5C94C8" stroke-width="1.5"/>
<path d="M20.3479 8.52173H24.5218" stroke="#5C94C8" stroke-width="1.5"/>
<path d="M18.9565 16.8153C18.2181 16.8153 17.6195 16.2167 17.6195 15.4783C17.6195 14.7399 18.2181 14.1414 18.9565 14.1414C19.6949 14.1414 20.2935 14.7399 20.2935 15.4783C20.2935 16.2167 19.6949 16.8153 18.9565 16.8153Z" stroke="#5C94C8" stroke-width="1.5"/>
<path d="M18.9563 2.90219C18.2179 2.90219 17.6193 2.30361 17.6193 1.56523C17.6193 0.826846 18.2179 0.22827 18.9563 0.228271C19.6946 0.228271 20.2932 0.826847 20.2932 1.56523C20.2932 2.30361 19.6946 2.90219 18.9563 2.90219Z" stroke="#5C94C8" stroke-width="1.5"/>
<path d="M18.9565 2.95654L18.9565 7.13046" stroke="#5C94C8" stroke-width="1.5"/>
<path d="M18.9565 9.91309L18.9565 14.087" stroke="#5C94C8" stroke-width="1.5"/>
<path d="M20.2935 15.4781C20.2935 16.2165 19.695 16.815 18.9566 16.815C18.2182 16.815 17.6196 16.2164 17.6196 15.4781C17.6196 14.7397 18.2182 14.1411 18.9566 14.1411C19.695 14.1411 20.2935 14.7397 20.2935 15.4781Z" stroke="#5C94C8" stroke-width="1.5"/>
<path d="M27.2498 15.4783C27.2498 16.2167 26.6513 16.8153 25.9129 16.8153C25.1745 16.8153 24.5759 16.2167 24.5759 15.4783C24.5759 14.7399 25.1745 14.1414 25.9129 14.1414C26.6513 14.1414 27.2498 14.7399 27.2498 15.4783Z" stroke="#5C94C8" stroke-width="1.5"/>
<path d="M13.337 15.4793C13.337 16.2177 12.7384 16.8162 12 16.8162C11.2617 16.8162 10.6631 16.2177 10.6631 15.4793C10.6631 14.7409 11.2617 14.1423 12 14.1423C12.7384 14.1423 13.337 14.7409 13.337 15.4793Z" stroke="#5C94C8" stroke-width="1.5"/>
<path d="M13.3914 15.4783H17.5653" stroke="#5C94C8" stroke-width="1.5"/>
<path d="M20.3479 15.4783H24.5218" stroke="#5C94C8" stroke-width="1.5"/>
<path d="M18.9565 23.7718C18.2181 23.7718 17.6195 23.1732 17.6195 22.4349C17.6195 21.6965 18.2181 21.0979 18.9565 21.0979C19.6949 21.0979 20.2935 21.6965 20.2935 22.4349C20.2935 23.1732 19.6949 23.7718 18.9565 23.7718Z" stroke="#5C94C8" stroke-width="1.5"/>
<path d="M18.9563 9.85873C18.2179 9.85873 17.6193 9.26015 17.6193 8.52177C17.6193 7.78339 18.2179 7.18481 18.9563 7.18481C19.6946 7.18481 20.2932 7.78339 20.2932 8.52177C20.2932 9.26015 19.6946 9.85873 18.9563 9.85873Z" stroke="#5C94C8" stroke-width="1.5"/>
<path d="M18.9565 9.91309L18.9565 14.087" stroke="#5C94C8" stroke-width="1.5"/>
<path d="M18.9565 16.8696L18.9565 21.0435" stroke="#5C94C8" stroke-width="1.5"/>
</g>
<circle cx="12" cy="12" r="11.25" stroke="#5C94C8" stroke-width="1.5"/>
</svg>
