<svg width="56" height="54" viewBox="0 0 56 54" fill="none" xmlns="http://www.w3.org/2000/svg">
<mask id="mask0" mask-type="alpha" maskUnits="userSpaceOnUse" x="2" y="1" width="52" height="52">
<path d="M5.63835 10.0666C6.9696 6.06854 10.3833 3.12045 14.5326 2.38549L16.2571 2.08002C24.0252 0.70405 31.9748 0.704051 39.7429 2.08002L41.4674 2.38549C45.6167 3.12045 49.0304 6.06854 50.3617 10.0666C54.0218 21.0589 54.0218 32.9411 50.3617 43.9334C49.0304 47.9315 45.6167 50.8796 41.4674 51.6145L39.7429 51.92C31.9748 53.296 24.0252 53.296 16.2571 51.92L14.5326 51.6145C10.3833 50.8795 6.9696 47.9315 5.63835 43.9334C1.97823 32.9411 1.97823 21.0589 5.63835 10.0666Z" fill="#DEDEDE"/>
</mask>
<g mask="url(#mask0)">
<mask id="mask1" mask-type="alpha" maskUnits="userSpaceOnUse" x="0" y="0" width="55" height="55">
<rect x="0.0583496" width="54.227" height="54.037" fill="#C4C4C4"/>
</mask>
<g mask="url(#mask1)">
<rect x="-0.111084" width="54.6331" height="54.037" fill="#111B29"/>
<path fill-rule="evenodd" clip-rule="evenodd" d="M57.5673 -9.60157L40.7249 -26.281L37.3916 -22.98L51.8565 -8.65503L32.0008 -8.65504V-3.95111L51.8616 -3.95111L40.7448 7.05816L40.7249 7.03845L37.3916 10.3395L37.4115 10.3592L37.3969 10.3736L40.7302 13.6747L40.7448 13.6602L51.8565 24.6645H32.0008V29.3684H51.8616L40.7448 40.3776L40.7249 40.3579L37.3916 43.6589L37.4115 43.6787L37.3969 43.6931L40.7302 46.9942L40.7448 46.9797L51.8565 57.9839H32.0008V62.6878H51.8617L37.3969 77.0126L40.7302 80.3137L58.5283 62.6878H80.7831V57.9839H58.5285L57.5701 57.0347L57.5673 57.0374L44.0781 43.6787L58.5282 29.3684H80.7831V24.6645H58.5286L57.5701 23.7152L57.5673 23.7179L44.0781 10.3592L58.5282 -3.95111L80.7831 -3.95111V-8.65503L58.5286 -8.65503L57.5701 -9.60432L57.5673 -9.60157ZM-2.49203 -2.99888L-2.48928 -3.0016L11 10.3571L-3.45032 24.6676H-25.7051V29.3715H-3.45044L-2.49203 30.3206L-2.48923 30.3178L11 43.6766L-3.45029 57.987H-25.7051V62.6909H-3.45047L-2.49203 63.6401L-2.48923 63.6373L14.3532 80.3168L17.6865 77.0157L3.22172 62.6909H23.0772V57.987H3.2163L14.3333 46.9776L14.3532 46.9973L17.6865 43.6963L17.6666 43.6766L17.6811 43.6622L14.3478 40.3611L14.3333 40.3755L3.22174 29.3715H23.0772V24.6676H3.21627L14.3332 13.6581L14.3532 13.6779L17.6865 10.3769L17.6665 10.3571L17.6811 10.3427L14.3478 7.04162L14.3332 7.05606L3.22163 -3.94804H23.0772V-8.65197H3.21629L17.6811 -22.9768L14.3478 -26.2779L-3.45029 -8.65197H-25.7051V-3.94804H-3.45046L-2.49203 -2.99888Z" fill="#F8F8F8"/>
<rect x="19.2693" y="-17.9878" width="16.3981" height="22.668" fill="#1EB4D4"/>
<rect x="19.2693" y="15.6853" width="16.3981" height="22.668" fill="#1EB4D4"/>
<rect x="19.2693" y="49.3582" width="16.3981" height="22.668" fill="#1EB4D4"/>
</g>
</g>
</svg>
