<svg width="20" height="21" viewBox="0 0 20 21" fill="none" xmlns="http://www.w3.org/2000/svg">
<path d="M10 0.871094C8.68678 0.871094 7.38642 1.12975 6.17317 1.6323C4.95991 2.13485 3.85752 2.87144 2.92893 3.80003C1.05357 5.67539 0 8.21893 0 10.8711C0 15.2911 2.87 19.0411 6.84 20.3711C7.34 20.4511 7.5 20.1411 7.5 19.8711C7.5 19.6411 7.5 19.0111 7.5 18.1811C4.73 18.7811 4.14 16.8411 4.14 16.8411C3.68 15.6811 3.03 15.3711 3.03 15.3711C2.12 14.7511 3.1 14.7711 3.1 14.7711C4.1 14.8411 4.63 15.8011 4.63 15.8011C5.5 17.3211 6.97 16.8711 7.54 16.6311C7.63 15.9811 7.89 15.5411 8.17 15.2911C5.95 15.0411 3.62 14.1811 3.62 10.3711C3.62 9.26109 4 8.37109 4.65 7.66109C4.55 7.41109 4.2 6.37109 4.75 5.02109C4.75 5.02109 5.59 4.75109 7.5 6.04109C8.29 5.82109 9.15 5.71109 10 5.71109C10.85 5.71109 11.71 5.82109 12.5 6.04109C14.41 4.75109 15.25 5.02109 15.25 5.02109C15.8 6.37109 15.45 7.41109 15.35 7.66109C16 8.37109 16.38 9.26109 16.38 10.3711C16.38 14.1911 14.04 15.0311 11.81 15.2811C12.17 15.5911 12.5 16.2011 12.5 17.1311C12.5 18.4711 12.5 19.5511 12.5 19.8711C12.5 20.1411 12.66 20.4611 13.17 20.3711C17.14 19.0311 20 15.2911 20 10.8711C20 9.55787 19.7413 8.25751 19.2388 7.04426C18.7362 5.831 17.9997 4.72861 17.0711 3.80003C16.1425 2.87144 15.0401 2.13485 13.8268 1.6323C12.6136 1.12975 11.3132 0.871094 10 0.871094Z" fill="#717780"/>
</svg>
