<svg xmlns="http://www.w3.org/2000/svg" width="24.554" height="24" viewBox="0 0 24.554 24">
    <defs>
        <style>
            .cls-1{fill:#fff}
        </style>
    </defs>
    <g id="streamline-icon-developer-community-github-1_40x40" data-name="streamline-icon-developer-community-github-1@40x40" transform="translate(.007 -.467)">
        <path id="Path_4289" d="M12.29.467a12.292 12.292 0 0 0-3.811 23.98h.3a1.025 1.025 0 0 0 1.086-.959.876.876 0 0 0 0-.127v-1.332a.543.543 0 0 0-.635-.44c-2.745.594-3.329-1.127-3.37-1.239a4.757 4.757 0 0 0-1.762-2.243 1.184 1.184 0 0 0-.154-.113.642.642 0 0 1 .389-.072 1.505 1.505 0 0 1 1.178.9 3.073 3.073 0 0 0 4.1 1.188.511.511 0 0 0 .3-.369 2.046 2.046 0 0 1 .574-1.26.512.512 0 0 0-.277-.891c-2.428-.277-4.907-1.127-4.907-5.316a4.1 4.1 0 0 1 1.068-2.847.51.51 0 0 0 .092-.543 3.608 3.608 0 0 1 .01-2.458A5.671 5.671 0 0 1 9.053 7.5a.5.5 0 0 0 .43.072A10.865 10.865 0 0 1 12.29 7.2a10.725 10.725 0 0 1 2.817.379.5.5 0 0 0 .42-.072 5.724 5.724 0 0 1 2.581-1.178 3.66 3.66 0 0 1 0 2.438.51.51 0 0 0 .092.543 4.1 4.1 0 0 1 1.076 2.817c0 4.19-2.489 5.03-4.927 5.306a.513.513 0 0 0-.457.562.507.507 0 0 0 .18.339 2.256 2.256 0 0 1 .625 1.782v3.257a1.085 1.085 0 0 0 .369.85 1.228 1.228 0 0 0 1.086.195A12.292 12.292 0 0 0 12.29.467z" class="cls-1" data-name="Path 4289"/>
    </g>
</svg>
