<svg xmlns="http://www.w3.org/2000/svg" width="13.546" height="13.211" viewBox="0 0 13.546 13.211">
    <path id="prefix__Path_7413" fill="#24292e" fill-rule="evenodd" d="M143.092 107.44a6.774 6.774 0 0 0-2.14 13.2c.339.062.462-.147.462-.326 0-.161-.006-.587-.009-1.152-1.884.41-2.281-.908-2.281-.908a1.794 1.794 0 0 0-.752-.991c-.615-.42.047-.412.047-.412a1.422 1.422 0 0 1 1.037.7 1.442 1.442 0 0 0 1.971.563 1.448 1.448 0 0 1 .43-.906c-1.5-.171-3.085-.752-3.085-3.347a2.618 2.618 0 0 1 .7-1.817 2.433 2.433 0 0 1 .067-1.792s.568-.182 1.862.694a6.423 6.423 0 0 1 3.391 0c1.293-.876 1.861-.694 1.861-.694a2.434 2.434 0 0 1 .068 1.792 2.614 2.614 0 0 1 .7 1.817c0 2.6-1.584 3.174-3.093 3.342a1.617 1.617 0 0 1 .46 1.254c0 .906-.008 1.636-.008 1.858 0 .181.122.392.466.326a6.774 6.774 0 0 0-2.145-13.2z" data-name="Path 7413" transform="translate(-136.32 -107.44)"/>
</svg>
