<svg width="56" height="54" viewBox="0 0 56 54" fill="none" xmlns="http://www.w3.org/2000/svg">
<mask id="mask0" mask-type="alpha" maskUnits="userSpaceOnUse" x="2" y="1" width="52" height="52">
<path d="M5.63835 10.0666C6.9696 6.06854 10.3833 3.12045 14.5326 2.38549L16.2571 2.08002C24.0252 0.70405 31.9748 0.704051 39.7429 2.08002L41.4674 2.38549C45.6167 3.12045 49.0304 6.06854 50.3617 10.0666C54.0218 21.0589 54.0218 32.9411 50.3617 43.9334C49.0304 47.9315 45.6167 50.8796 41.4674 51.6145L39.7429 51.92C31.9748 53.296 24.0252 53.296 16.2571 51.92L14.5326 51.6145C10.3833 50.8795 6.9696 47.9315 5.63835 43.9334C1.97823 32.9411 1.97823 21.0589 5.63835 10.0666Z" fill="#DEDEDE"/>
</mask>
<g mask="url(#mask0)">
<path d="M73.9506 -7.99463H-57.9497V63.9949H73.9506V-7.99463Z" fill="#1B2738"/>
<path d="M38.308 19.7458V-8.29113L8.80274 19.7458V-8.1553L-20.5564 19.7458V-8.33927L-50.111 19.7458V-8.13295L-77.9089 18.1158L-79.3003 16.608L-48.0723 -12.88V14.9781L-18.5177 -13.1069V14.9781L10.8415 -12.923V14.9781L40.3468 -13.0588V14.9781L69.6822 -12.8989V17.3628H67.6434V-8.13123L38.308 19.7458Z" fill="#E65678"/>
<path d="M27.9445 44.404V16.3671L-1.55907 44.404V16.5029L-30.92 44.404V16.3189L-60.4745 44.404V16.5253L-88.2724 42.7758L-89.6621 41.2662L-58.4358 11.7782V39.638L-28.8812 11.5513V39.638L0.479637 11.7352V39.638L29.9832 11.5994V39.638L59.3186 11.7593V42.021H57.2799V16.527L27.9445 44.404Z" fill="#E65678"/>
<path d="M18.3505 69.6195V41.5809L-11.1531 69.6195V41.7185L-40.514 69.6195V41.5345L-70.0685 69.6195V41.7391L-97.8664 67.9896L-99.2578 66.4818L-68.0298 36.9921V64.8519L-38.4752 36.7668V64.8519L-9.11436 36.9508V64.8519L20.3892 36.8133V64.8519L49.7246 36.9749V67.2348H47.6859V41.7425L18.3505 69.6195Z" fill="#E65678"/>
<path d="M9.8813 21.4014C12.4119 21.4014 14.4633 19.3253 14.4633 16.7644C14.4633 14.2035 12.4119 12.1274 9.8813 12.1274C7.35074 12.1274 5.29932 14.2035 5.29932 16.7644C5.29932 19.3253 7.35074 21.4014 9.8813 21.4014Z" fill="#E65678"/>
<path d="M39.8813 21.4014C42.4119 21.4014 44.4633 19.3253 44.4633 16.7644C44.4633 14.2035 42.4119 12.1274 39.8813 12.1274C37.3507 12.1274 35.2993 14.2035 35.2993 16.7644C35.2993 19.3253 37.3507 21.4014 39.8813 21.4014Z" fill="#E65678"/>
<path d="M-0.663865 46.0266C1.86669 46.0266 3.91811 43.9506 3.91811 41.3896C3.91811 38.8287 1.86669 36.7527 -0.663865 36.7527C-3.19442 36.7527 -5.24585 38.8287 -5.24585 41.3896C-5.24585 43.9506 -3.19442 46.0266 -0.663865 46.0266Z" fill="#FFC267"/>
<path d="M18.8549 44.7903C21.3855 44.7903 23.4369 42.7142 23.4369 40.1533C23.4369 37.5924 21.3855 35.5164 18.8549 35.5164C16.3244 35.5164 14.2729 37.5924 14.2729 40.1533C14.2729 42.7142 16.3244 44.7903 18.8549 44.7903Z" fill="#E65678"/>
<path d="M48.2163 44.7903C50.7468 44.7903 52.7982 42.7142 52.7982 40.1533C52.7982 37.5924 50.7468 35.5164 48.2163 35.5164C45.6857 35.5164 43.6343 37.5924 43.6343 40.1533C43.6343 42.7142 45.6857 44.7903 48.2163 44.7903Z" fill="#E65678"/>
</g>
</svg>
