<svg width="57" height="54" viewBox="0 0 57 54" fill="none" xmlns="http://www.w3.org/2000/svg">
<path d="M6.35978 10.0666C7.69103 6.06854 11.1047 3.12045 15.254 2.38549L16.9785 2.08002C24.7467 0.70405 32.6962 0.704051 40.4643 2.08002L42.1888 2.38549C46.3382 3.12045 49.7518 6.06854 51.0831 10.0666C54.7432 21.0589 54.7432 32.9411 51.0831 43.9334C49.7518 47.9315 46.3381 50.8796 42.1888 51.6145L40.4643 51.92C32.6962 53.296 24.7467 53.296 16.9785 51.92L15.254 51.6145C11.1047 50.8795 7.69103 47.9315 6.35978 43.9334C2.69967 32.9411 2.69967 21.0589 6.35978 10.0666Z" fill="#E65678"/>
<path d="M42.6814 31.4649C42.4214 31.3149 42.1414 31.2149 41.8614 31.1549V22.8449C42.1414 22.7749 42.4214 22.6849 42.6914 22.5249C44.1814 21.6549 44.6914 19.7649 43.8314 18.2749C42.9614 16.7849 41.0714 16.2749 39.5814 17.1349C39.3114 17.2949 39.0914 17.4849 38.8914 17.7049L31.6914 13.5449C31.7714 13.2649 31.8314 12.9749 31.8314 12.6649C31.8314 10.9449 30.4414 9.55493 28.7214 9.55493C27.0014 9.55493 25.6114 10.9449 25.6114 12.6649C25.6114 12.9749 25.6714 13.2649 25.7514 13.5449L18.5514 17.6949C18.3514 17.4849 18.1214 17.2849 17.8614 17.1349C16.3714 16.2649 14.4714 16.7749 13.6114 18.2649C12.7514 19.7549 13.2614 21.6549 14.7514 22.5149C15.0214 22.6649 15.2914 22.7649 15.5814 22.8349V31.1549C15.3014 31.2249 15.0214 31.3149 14.7614 31.4649C13.2714 32.3349 12.7614 34.2249 13.6214 35.7149C14.4814 37.2049 16.3714 37.7149 17.8714 36.8549C18.1314 36.7049 18.3514 36.5049 18.5514 36.2949L25.7514 40.4549C25.6714 40.7349 25.6114 41.0249 25.6114 41.3349C25.6114 43.0549 27.0014 44.4449 28.7214 44.4449C30.4414 44.4449 31.8314 43.0549 31.8314 41.3349C31.8314 40.9949 31.7614 40.6649 31.6614 40.3649L38.8214 36.2349C39.0414 36.4749 39.2814 36.6949 39.5814 36.8649C41.0714 37.7249 42.9714 37.2149 43.8314 35.7249C44.6914 34.2349 44.1814 32.3149 42.6814 31.4649ZM19.3214 33.4249C19.2514 33.1449 19.1614 32.8649 19.0114 32.6049C18.8614 32.3449 18.6614 32.1149 18.4514 31.9149L27.8514 15.6249C28.1314 15.7049 28.4114 15.7649 28.7114 15.7649H28.7214C29.0214 15.7649 29.3014 15.7049 29.5714 15.6249L38.9814 31.9149C38.7714 32.1149 38.5814 32.3349 38.4214 32.5949C38.2714 32.8549 38.1714 33.1349 38.1114 33.4149H19.3214V33.4249ZM38.1514 18.9749C37.9314 19.7549 38.0114 20.6249 38.4414 21.3749C38.8814 22.1349 39.5914 22.6349 40.3814 22.8349V31.1449C40.3414 31.1549 40.3014 31.1649 40.2614 31.1749L30.8614 14.8949C30.8914 14.8649 30.9214 14.8449 30.9514 14.8149L38.1514 18.9749ZM26.4914 14.8149C26.5214 14.8449 26.5414 14.8649 26.5714 14.8949L17.1714 31.1749C17.1314 31.1649 17.0914 31.1549 17.0514 31.1449V22.8349C17.8414 22.6349 18.5614 22.1349 19.0014 21.3749C19.4414 20.6249 19.5114 19.7549 19.2914 18.9649L26.4914 14.8149ZM31.0014 39.2349C30.4314 38.6149 29.6214 38.2149 28.7114 38.2149C27.8314 38.2149 27.0414 38.5849 26.4814 39.1649L19.2914 35.0249C19.3014 34.9849 19.3114 34.9449 19.3214 34.9049H38.1014C38.1214 34.9749 38.1414 35.0349 38.1614 35.1049L31.0014 39.2349Z" fill="white"/>
</svg>
