<svg width="24" height="24" viewBox="0 0 24 24" fill="none" xmlns="http://www.w3.org/2000/svg">
<mask id="mask0" mask-type="alpha" maskUnits="userSpaceOnUse" x="0" y="0" width="24" height="24">
<rect x="0.5" y="0.5" width="23" height="23" rx="11.5" fill="#C4C4C4" stroke="black"/>
</mask>
<g mask="url(#mask0)">
<path d="M-20.3228 8.39582L-7.57111 -3.46875V8.03076L4.07169 -3.46875V8.03076L15.7145 -3.46875V8.03076L27.3573 -3.46875V8.03076L39.0001 -3.46875V8.03076" stroke="#5C94C8" stroke-width="1.5"/>
<path d="M-23.8125 18.1668L-11.2109 6.30225V17.8018L0.294951 6.30225V17.8018L11.8008 6.30225V17.8018L23.3066 6.30225V17.8018L34.8124 6.30225V17.8018" stroke="#5C94C8" stroke-width="1.5"/>
<path d="M-28 27.9373L-15.3984 16.0728V27.5723L-3.89255 16.0728V27.5723L7.61328 16.0728V27.5723L19.1191 16.0728V27.5723L30.6249 16.0728V27.5723" stroke="#5C94C8" stroke-width="1.5"/>
</g>
<circle cx="12" cy="12" r="11.25" stroke="#5C94C8" stroke-width="1.5"/>
</svg>
