<svg width="24" height="26" viewBox="0 0 24 26" fill="none" xmlns="http://www.w3.org/2000/svg">
<path fill-rule="evenodd" clip-rule="evenodd" d="M12 24.5C12.8284 24.5 13.5 23.8284 13.5 23C13.5 22.1716 12.8284 21.5 12 21.5C11.1716 21.5 10.5 22.1716 10.5 23C10.5 23.8284 11.1716 24.5 12 24.5ZM12 26C13.6569 26 15 24.6569 15 23C15 22.7046 14.9573 22.4192 14.8778 22.1496L18.8974 20.1399C19.4388 20.6719 20.1811 21 21 21C22.6569 21 24 19.6569 24 18C24 16.6019 23.0436 15.4271 21.7493 15.0943V10.9057C23.0436 10.5729 24 9.39814 24 8C24 6.34314 22.6569 5 21 5C20.1813 5 19.4393 5.32792 18.8979 5.85958L14.8778 3.85039C14.9573 3.58079 15 3.29538 15 3C15 1.34315 13.6569 1.44847e-07 12 0C10.3431 -1.44847e-07 9 1.34315 9 3C9 3.29506 9.0426 3.58017 9.12197 3.84951L5.10192 5.85946C4.56063 5.32787 3.81861 5 3 5C1.34315 5 0 6.34314 0 8C0 9.39762 0.955718 10.572 2.24927 10.9053L2.24927 15.0947C0.95572 15.428 0 16.6024 0 18C0 19.6569 1.34315 21 3 21C3.81904 21 4.56143 20.6718 5.10279 20.1397L9.12252 22.1487C9.04279 22.4185 9 22.7043 9 23C9 24.6569 10.3431 26 12 26ZM14.1026 5.13988L18.1224 7.1489C18.0428 7.41872 18 7.70436 18 8C18 9.39761 18.9557 10.572 20.2493 10.9053V15.068L13.402 5.65294C13.6602 5.51621 13.896 5.34288 14.1026 5.13988ZM18.0945 17.25C18.2376 16.6942 18.5359 16.2008 18.9405 15.8186L12 6.2755L5.05954 15.8186C5.46412 16.2008 5.76244 16.6942 5.90549 17.25H18.0945ZM18.0945 18.75C18.1032 18.7837 18.1124 18.8172 18.1222 18.8504L14.1026 20.8602C13.5613 20.3282 12.819 20 12 20C11.1814 20 10.4394 20.3278 9.89814 20.8594L5.87784 18.8501C5.88762 18.817 5.89684 18.7836 5.90549 18.75H18.0945ZM10.598 5.65294C10.3395 5.51605 10.1035 5.3425 9.89671 5.1392L5.8775 7.14872C5.95722 7.41859 6 7.7043 6 8C6 9.39814 5.04356 10.5729 3.74927 10.9057L3.74927 15.07L10.598 5.65294ZM3 9.5C3.82843 9.5 4.5 8.82843 4.5 8C4.5 7.17157 3.82843 6.5 3 6.5C2.17157 6.5 1.5 7.17157 1.5 8C1.5 8.82843 2.17157 9.5 3 9.5ZM12 4.5C12.8284 4.5 13.5 3.82843 13.5 3C13.5 2.17157 12.8284 1.5 12 1.5C11.1716 1.5 10.5 2.17157 10.5 3C10.5 3.82843 11.1716 4.5 12 4.5ZM22.5 8C22.5 8.82843 21.8284 9.5 21 9.5C20.1716 9.5 19.5 8.82842 19.5 8C19.5 7.17157 20.1716 6.5 21 6.5C21.8284 6.5 22.5 7.17157 22.5 8ZM4.5 18C4.5 18.8284 3.82843 19.5 3 19.5C2.17157 19.5 1.5 18.8284 1.5 18C1.5 17.1716 2.17157 16.5 3 16.5C3.82843 16.5 4.5 17.1716 4.5 18ZM21 19.5C21.8284 19.5 22.5 18.8284 22.5 18C22.5 17.1716 21.8284 16.5 21 16.5C20.1716 16.5 19.5 17.1716 19.5 18C19.5 18.8284 20.1716 19.5 21 19.5Z" fill="#5C94C8"/>
</svg>
