<?xml version="1.0" encoding="utf-8"?>
<!-- Generator: Adobe Illustrator 22.1.0, SVG Export Plug-In . SVG Version: 6.00 Build 0)  -->
<svg version="1.1" id="Layer_1" xmlns="http://www.w3.org/2000/svg" xmlns:xlink="http://www.w3.org/1999/xlink" x="0px" y="0px"
	 viewBox="0 0 173.2 200" style="enable-background:new 0 0 173.2 200;" xml:space="preserve">
<style type="text/css">
	.st0{clip-path:url(#SVGID_2_);fill:#232323;}
	.st1{fill:#232323;}
	.st2{clip-path:url(#SVGID_4_);fill:#232323;}
	.st3{fill:#F1C61C;}
	.st4{fill:#D2962A;}
	.st5{fill:#D79A4F;}
	.st6{fill:#B7804E;}
	.st7{fill:#FFFFFF;}
	.st8{fill:#C2CFCE;}
	.st9{fill:#1D1D1D;}
	.st10{fill:#E66C6C;}
	.st11{fill:#C8605F;}
	.st12{fill:#E0B180;}
	.st13{fill:#CC3531;}
	.st14{fill:#181819;}
	.st15{fill:#E58183;}
</style>
<g>
	<defs>
		<path id="SVGID_1_" d="M37.5,74.2l5.1-0.5l7.5-21.8c0,0,6-17.2,24.5-10.7c16.9,6,19.3-0.8,27.2-2c10.9-1.6,17.2,3,19.3,10.9
			c2.1,7.9,7.1,23.3,7.1,23.3l6.7,0.7c0.3-3.1,5.6-51-49.2-45.5c-1-0.1-4.4-0.7-9-0.7C62.1,28,35.8,33.4,37.5,74.2"/>
	</defs>
	<clipPath id="SVGID_2_">
		<use xlink:href="#SVGID_1_"  style="overflow:visible;"/>
	</clipPath>
	<path class="st0" d="M37.5,78.1c-2.1,0-3.9-1.7-4-3.8C32.8,57.5,36.7,44.5,45,35.9C54.4,26.1,67.4,24,76.7,24
		c4.3,0,7.7,0.5,9.1,0.6c2.7-0.3,5.5-0.4,8.2-0.4c15,0,26.5,4.4,34.3,12.9c11.8,13,11,31.8,10.5,37.2c-0.1,1-0.6,2.1-1.4,2.7
		c-0.7,0.6-1.6,1-2.6,1c-0.1,0-0.2,0-0.4,0l-6.7-0.7c-1.5-0.2-2.9-1.2-3.3-2.7c-0.2-0.6-5.1-15.6-7.2-23.6
		c-1.5-5.6-5.2-8.3-11.4-8.3c-1.2,0-2.4,0.1-3.5,0.3c-1.8,0.3-3.3,0.9-5.1,1.7c-2.8,1.3-6,2.7-11,2.7c-3.8,0-8.1-0.9-13.1-2.7
		c-2.4-0.8-4.6-1.3-6.6-1.3c-9.3,0-12.7,9.1-12.8,9.5l-7.5,21.7c-0.5,1.5-1.8,2.5-3.3,2.6l-5.1,0.5C37.8,78.1,37.6,78.1,37.5,78.1"
		/>
</g>
<path class="st1" d="M86.5,186.1c-18.5,0-33-9.3-33-21.1c0-11.8,14.5-21.1,33-21.1c18.5,0,33,9.3,33,21.1
	C119.5,176.8,105,186.1,86.5,186.1"/>
<path class="st1" d="M86.5,178.2c-18.5,0-33-9.3-33-21.1c0-11.8,14.5-21.1,33-21.1c18.5,0,33,9.3,33,21.1
	C119.5,168.9,105,178.2,86.5,178.2 M42.9,64.6c-0.4,0-0.8-0.1-1.2-0.2c-23.5-7.8-29.6-36.2-27.5-48.9c1.1-7.1,4.7-8.2,6.7-8.2
	c4.4,0,6.8,5.1,7.6,6.8c8.5,18,28.2,18.8,28.4,18.8c1.4,0,2.7,0.8,3.3,2c0.7,1.2,0.7,2.7,0,3.9L46.3,62.7
	C45.6,63.9,44.3,64.6,42.9,64.6 M35.2,108.4c-7.8,0-14.2-7.7-14.2-17.1c0-9.4,6.4-17.1,14.2-17.1c7.8,0,14.2,7.7,14.2,17.1
	C49.3,100.7,43,108.4,35.2,108.4 M138.6,108.4c-7.8,0-14.2-7.7-14.2-17.1c0-9.4,6.4-17.1,14.2-17.1s14.2,7.7,14.2,17.1
	C152.8,100.7,146.4,108.4,138.6,108.4 M130.9,64.6c-1.4,0-2.7-0.8-3.4-2l-13.8-23.8c-1.1-1.9-0.4-4.3,1.4-5.4
	c0.6-0.3,1.2-0.5,1.9-0.5c0.8,0,19.9-0.9,28.4-18.8c0.8-1.7,3.2-6.8,7.6-6.8c2,0,5.6,1.1,6.7,8.2c2.1,12.8-4,41.2-27.5,48.9
	C131.7,64.6,131.3,64.6,130.9,64.6"/>
<path class="st1" d="M85.9,165.9c-32.7,0-58.3-27.7-58.3-63.1c0-0.3,0-0.7,0.1-1l13.8-51C45,35.4,61.8,26.2,86.6,26.2
	c25.1,0,43,9.4,45.7,24l0.4,1.6l11.3,50.2c0.1,0.3,0.1,0.6,0.1,0.9C144.1,138.2,118.5,165.9,85.9,165.9"/>
<path class="st1" d="M37.6,78.1c-2.1,0-3.9-1.7-4-3.8c-0.7-16.9,3.1-29.8,11.4-38.4C54.5,26.1,67.5,24,76.8,24
	c4.3,0,7.7,0.5,9.1,0.6c2.7-0.3,5.5-0.4,8.2-0.4c15,0,26.5,4.4,34.3,12.9C140,49.8,139.7,67.4,139,74.4c-0.1,1.1-0.6,2.1-1.4,2.8
	c-0.7,0.6-1.6,1-2.6,1c-0.1,0-0.2,0-0.4,0l-6.7-0.7c-1.5-0.2-2.8-1.2-3.3-2.7c-0.2-0.6-5.1-15.6-7.2-23.5c-1.5-5.6-5.2-8.3-11.4-8.3
	c-1.1,0-2.3,0.1-3.5,0.3c-1.8,0.3-3.3,0.9-5.1,1.7c-2.8,1.3-6,2.7-11,2.7c-3.8,0-8-0.9-13.1-2.7c-2.4-0.8-4.6-1.3-6.6-1.3
	c-9.4,0-12.8,9.4-12.8,9.5l-7.5,21.8c-0.5,1.5-1.8,2.5-3.3,2.6L38,78.1C37.9,78.1,37.7,78.1,37.6,78.1 M42,157c-2.2,0-3.9-1.8-4-3.9
	c0-0.7,0.2-1.5,0.6-2.1c7.3-11.7,5.2-17.5,3.1-18.9c-1.7-0.9-2.3-2.9-1.7-4.7c7.1-19.8,27.1-20.4,29.4-20.4l0.3,0
	c1.8,0.1,3.4,1.4,3.8,3.2c5,24.4-17.4,41.1-29.8,46.6C43,156.9,42.5,157,42,157 M131.4,157c-0.5,0-1.1-0.1-1.6-0.3
	c-12.5-5.5-34.8-22.2-29.8-46.6c0.4-1.8,1.9-3.1,3.8-3.2l0.3,0c2.3,0,22.2,0.6,29.4,20.4c0.7,1.8-0.1,3.9-1.8,4.8
	c-0.1,0.1-5.9,4.2,3.2,18.8c0.9,1.5,0.8,3.4-0.4,4.7C133.7,156.5,132.6,157,131.4,157"/>
<path class="st1" d="M55.5,134.6c-34.9,0-43.4-34.5-43.5-34.9c-0.4-1.7,0.4-3.5,1.9-4.4c0.6-0.3,1.3-0.5,1.9-0.5c1,0,2,0.4,2.8,1.2
	c2.7,2.7,7.5,4.1,14.1,4.1h0c16.2,0,37.4-8.4,39.7-9.3l0.2-0.1c1.1-0.5,2.5-0.4,3.6,0.2c1.1,0.6,1.8,1.7,2,3l3.8,31.9
	c0.2,1.8-0.9,3.6-2.6,4.2C70.8,133,62.8,134.6,55.5,134.6L55.5,134.6L55.5,134.6z M117.7,134.6c-7.3,0-15.4-1.6-23.9-4.6
	c-1.7-0.6-2.8-2.4-2.6-4.2L95,93.8c0.2-2,1.9-3.5,3.9-3.5c0.6,0,1.1,0.1,1.6,0.4c2.5,1,23.6,9.4,39.9,9.4c6.6,0,11.4-1.4,14.1-4.1
	c0.7-0.7,1.7-1.2,2.8-1.2c0.7,0,1.3,0.2,1.9,0.5c1.5,0.9,2.3,2.6,1.9,4.4C161.1,100,152.6,134.6,117.7,134.6 M87.5,192.7
	c-6.2,0-11.2-5-11.2-11.2s5-11.2,11.2-11.2s11.2,5,11.2,11.2S93.7,192.7,87.5,192.7 M42.6,73.6l7.5-21.8c0,0,6-17.2,24.5-10.7
	c16.9,6,19.3-0.8,27.2-2c10.9-1.6,17.2,3,19.3,10.9c2.1,7.9,7.1,23.3,7.1,23.3l6.7,0.7c0.3-3.1,5.6-51-49.2-45.5
	c-4.2-0.6-50.5-8.1-48.3,45.5L42.6,73.6L42.6,73.6z"/>
<g>
	<defs>
		<path id="SVGID_3_" d="M37.5,74.2l5.1-0.5l7.5-21.8c0,0,6-17.2,24.5-10.7c16.9,6,19.3-0.8,27.2-2c10.9-1.6,17.2,3,19.3,10.9
			c2.1,7.9,7.1,23.3,7.1,23.3l6.7,0.7c0.3-3.1,5.6-51-49.2-45.5c-1-0.1-4.4-0.7-9-0.7C62.1,28,35.8,33.4,37.5,74.2"/>
	</defs>
	<clipPath id="SVGID_4_">
		<use xlink:href="#SVGID_3_"  style="overflow:visible;"/>
	</clipPath>
	<path class="st2" d="M37.5,78.1c-2.1,0-3.9-1.7-4-3.8C32.8,57.5,36.7,44.5,45,35.9C54.4,26.1,67.4,24,76.7,24
		c4.3,0,7.7,0.5,9.1,0.6c2.7-0.3,5.5-0.4,8.2-0.4c15,0,26.5,4.4,34.3,12.9c11.8,13,11,31.8,10.5,37.2c-0.1,1-0.6,2.1-1.4,2.7
		c-0.7,0.6-1.6,1-2.6,1c-0.1,0-0.2,0-0.4,0l-6.7-0.7c-1.5-0.2-2.9-1.2-3.3-2.7c-0.2-0.6-5.1-15.6-7.2-23.6
		c-1.5-5.6-5.2-8.3-11.4-8.3c-1.2,0-2.4,0.1-3.5,0.3c-1.8,0.3-3.3,0.9-5.1,1.7c-2.8,1.3-6,2.7-11,2.7c-3.8,0-8.1-0.9-13.1-2.7
		c-2.4-0.8-4.6-1.3-6.6-1.3c-9.3,0-12.7,9.1-12.8,9.5l-7.5,21.7c-0.5,1.5-1.8,2.5-3.3,2.6l-5.1,0.5C37.8,78.1,37.6,78.1,37.5,78.1"
		/>
</g>
<path class="st3" d="M115.5,165c0,9.5-13,17.1-29,17.1c-16,0-29-7.7-29-17.1c0-9.5,13-17.1,29-17.1
	C102.6,147.9,115.5,155.5,115.5,165"/>
<path class="st1" d="M86.5,183.5c-8,0-15.5-1.8-21.2-5.2c-5.9-3.5-9.2-8.2-9.2-13.3c0-5.1,3.3-9.8,9.2-13.3
	c5.7-3.4,13.2-5.2,21.2-5.2s15.5,1.9,21.2,5.2c5.9,3.5,9.2,8.2,9.2,13.3c0,5.1-3.3,9.8-9.2,13.3C102.1,181.6,94.5,183.5,86.5,183.5z
	 M86.5,149.2c-15.2,0-27.6,7.1-27.6,15.8c0,8.7,12.4,15.8,27.6,15.8c15.2,0,27.6-7.1,27.6-15.8C114.2,156.3,101.8,149.2,86.5,149.2z
	"/>
<path class="st4" d="M114.9,160c0,10.4-12.8,18.8-28.5,18.8c-15.7,0-28.5-8.4-28.5-18.8c0-10.4,12.8-18.8,28.5-18.8
	C102.2,141.2,114.9,149.6,114.9,160"/>
<path class="st5" d="M115.5,157.1c0,9.4-13,17.1-29,17.1c-16,0-29-7.7-29-17.1c0-9.5,13-17.1,29-17.1
	C102.6,140,115.5,147.6,115.5,157.1"/>
<path class="st1" d="M86.5,175.6c-8,0-15.5-1.8-21.2-5.2c-5.9-3.5-9.2-8.2-9.2-13.3c0-5.1,3.3-9.8,9.2-13.3
	c5.7-3.4,13.2-5.2,21.2-5.2c8,0,15.5,1.8,21.2,5.2c5.9,3.5,9.2,8.2,9.2,13.3c0,5.1-3.3,9.8-9.2,13.3
	C102.1,173.7,94.5,175.6,86.5,175.6z M86.5,141.3c-15.2,0-27.6,7.1-27.6,15.8c0,8.7,12.4,15.7,27.6,15.7c15.2,0,27.6-7.1,27.6-15.7
	C114.2,148.4,101.8,141.3,86.5,141.3z"/>
<path class="st6" d="M114.9,150.3c0,10.6-12.9,19.2-28.7,19.2c-15.9,0-28.7-8.6-28.7-19.2c0-10.6,12.9-19.2,28.7-19.2
	C102.1,131.1,114.9,139.7,114.9,150.3"/>
<path class="st7" d="M56.7,36.9c0,0-22.2-0.6-31.8-21.1C15.3-4.7,10.6,50,42.9,60.7L56.7,36.9z"/>
<path class="st1" d="M42.9,62.1c-0.1,0-0.3,0-0.4-0.1c-22-7.3-27.7-34.1-25.8-46.1c0.8-5,2.7-6,4.2-6c1.9,0,3.6,1.7,5.3,5.3
	c9.2,19.4,30.4,20.3,30.6,20.3c0.5,0,0.9,0.3,1.2,0.7c0.2,0.4,0.2,0.9,0,1.4L44.1,61.4C43.9,61.8,43.4,62.1,42.9,62.1z M20.9,12.6
	c-0.1,0-1,0.7-1.5,3.7c-0.8,5.2,0,14.3,3.6,23C26,46.2,31.6,55,42.3,59l12.2-21c-2.3-0.3-6.2-1-10.5-2.8
	c-6.4-2.6-15.1-7.9-20.3-18.9C22.2,13.3,21.2,12.6,20.9,12.6z"/>
<path class="st8" d="M37.4,56.8c0,0-19-10.7-18.2-39.5c0,0,0.6-4.3,1.7-4.7c0,0-4,29.3,17.3,40.9L37.4,56.8z"/>
<path class="st5" d="M45.4,91.2c0,7.3-4.6,13.2-10.2,13.2c-5.7,0-10.2-5.9-10.2-13.2c0-7.3,4.6-13.2,10.2-13.2
	C40.8,78.1,45.4,84,45.4,91.2"/>
<path class="st1" d="M35.2,105.8c-6.4,0-11.6-6.5-11.6-14.5c0-8,5.2-14.5,11.6-14.5c6.4,0,11.6,6.5,11.6,14.5
	C46.8,99.3,41.6,105.8,35.2,105.8z M35.2,79.5c-4.9,0-8.8,5.3-8.8,11.8c0,6.5,4,11.8,8.8,11.8S44,97.7,44,91.2
	C44,84.7,40,79.5,35.2,79.5z"/>
<path class="st5" d="M128.3,91.2c0,7.3,4.6,13.2,10.2,13.2s10.2-5.9,10.2-13.2c0-7.3-4.6-13.2-10.2-13.2S128.3,84,128.3,91.2"/>
<path class="st1" d="M138.6,105.8c-6.4,0-11.6-6.5-11.6-14.5c0-8,5.2-14.5,11.6-14.5c6.4,0,11.6,6.5,11.6,14.5
	C150.2,99.3,145,105.8,138.6,105.8z M138.6,79.5c-4.9,0-8.9,5.3-8.9,11.8c0,6.5,4,11.8,8.9,11.8c4.9,0,8.8-5.3,8.8-11.8
	C147.4,84.7,143.5,79.5,138.6,79.5z"/>
<path class="st6" d="M142.7,91.1c0,4.4-2.3,7.9-5.1,7.9c-2.8,0-5.1-3.5-5.1-7.9c0-4.4,2.3-7.9,5.1-7.9
	C140.4,83.3,142.7,86.8,142.7,91.1 M30,91.1c0,4.4,2.3,7.9,5.1,7.9c2.8,0,5.1-3.5,5.1-7.9c0-4.4-2.3-7.9-5.1-7.9
	C32.3,83.3,30,86.8,30,91.1"/>
<path class="st7" d="M117,36.9c0,0,22.2-0.6,31.8-21.1c9.6-20.5,14.3,34.2-18,44.9L117,36.9L117,36.9z"/>
<path class="st1" d="M130.9,62.1c-0.5,0-0.9-0.3-1.2-0.7l-13.8-23.8c-0.2-0.4-0.2-0.9,0-1.4c0.2-0.4,0.7-0.7,1.2-0.7
	c0.2,0,21.5-0.9,30.6-20.3c1.7-3.6,3.4-5.3,5.3-5.3c1.5,0,3.4,1,4.2,6c1.9,12-3.8,38.8-25.8,46.1C131.2,62,131,62.1,130.9,62.1z
	 M119.3,38.1l12.2,21c10.7-4,16.3-12.8,19.2-19.7c3.7-8.7,4.5-17.8,3.6-23c-0.5-3-1.3-3.7-1.5-3.7c-0.3,0-1.3,0.7-2.8,3.8
	c-5.2,11-13.9,16.3-20.3,18.9C125.5,37,121.6,37.8,119.3,38.1L119.3,38.1z"/>
<path class="st5" d="M128.9,52.8l-0.5-1.7c-2.3-12.9-19.3-20.9-41.8-20.9c-22.5,0-38.2,7.9-41.3,21.7l-13.8,51
	c0,33.4,24.3,59.2,54.3,59.2c30,0,54.3-25.7,54.3-59.2L128.9,52.8L128.9,52.8z"/>
<path class="st1" d="M85.9,163.9c-15.1,0-29.3-6.3-39.8-17.7c-10.6-11.4-16.4-26.9-16.4-43.5c0-0.2,0-0.3,0.1-0.5l13.8-50.9
	c3.3-14.5,19.4-23.2,43.2-23.2c24.1,0,41.3,8.8,43.8,22.5l0.4,1.6c0,0,0,0.1,0,0.1l11.3,50c0,0.1,0,0.3,0,0.4
	c0,16.6-5.8,32-16.4,43.5C115.2,157.6,101,163.9,85.9,163.9L85.9,163.9z M33.5,103c0.1,31.9,23.1,56.9,52.3,56.9
	c29.3,0,52.2-25,52.3-57L127,53.2l-0.5-1.7c0-0.1,0-0.1,0-0.2c-2.1-11.5-18.1-19.3-39.9-19.3c-21.8,0-36.5,7.5-39.3,20.1l0,0.1
	C47.2,52.3,33.5,103,33.5,103z"/>
<path class="st9" d="M42.7,73.6l7.5-21.8c0,0,6-17.2,24.5-10.7c16.9,6,19.3-0.8,27.2-2c10.9-1.6,17.2,3,19.3,10.9
	c2.1,7.9,7.1,23.3,7.1,23.3l6.7,0.7c0.3-3.1,5.6-51-49.2-45.5c-4.2-0.6-50.5-8.1-48.3,45.5C37.6,74.2,42.7,73.6,42.7,73.6z"/>
<path class="st1" d="M135.1,75.5c0,0-0.1,0-0.1,0l-6.7-0.7c-0.5-0.1-1-0.4-1.2-0.9c0-0.2-5.1-15.5-7.1-23.4
	c-1.7-6.7-6.5-10.2-13.8-10.2c-1.3,0-2.6,0.1-3.9,0.3c-2.2,0.3-3.9,1.1-5.7,1.9c-2.6,1.2-5.5,2.5-9.9,2.5c-3.5,0-7.5-0.8-12.2-2.5
	c-2.6-0.9-5.2-1.4-7.5-1.4c-11.2,0-15.1,10.8-15.2,11.2L44,74.1c-0.2,0.5-0.6,0.9-1.2,0.9l-5.1,0.5c-0.8,0.1-1.4-0.5-1.5-1.2
	c0,0,0,0,0-0.1c-0.7-16.1,2.9-28.4,10.7-36.5c8.8-9.2,21.1-11.1,29.9-11.1c4.3,0,7.7,0.5,8.9,0.6l0.1,0c2.8-0.3,5.5-0.4,8.3-0.4
	c14.2,0,25.1,4.1,32.4,12.1c10.8,11.8,10.5,28.6,9.9,35.2l0,0.2C136.4,75,135.8,75.5,135.1,75.5z M129.4,72.2l4.4,0.5
	c0.4-6.1,0.3-21.4-9.3-31.9c-6.8-7.4-17-11.2-30.4-11.2c-2.6,0-5.3,0.1-8.2,0.4c-0.1,0-0.2,0-0.3,0l-0.3,0c-2.8-0.4-5.7-0.6-8.6-0.6
	c-8.2,0-19.8,1.8-27.9,10.3c-7,7.3-10.4,18.4-10,33l2.8-0.3l7.2-20.9c0-0.1,4.7-13.1,17.8-13.1c2.6,0,5.5,0.5,8.4,1.6
	c4.5,1.6,8.2,2.4,11.3,2.4c3.8,0,6.2-1.1,8.8-2.2c1.9-0.9,3.9-1.8,6.5-2.1c1.5-0.2,3-0.3,4.3-0.3c8.6,0,14.5,4.4,16.5,12.3
	C124.3,56.5,128.3,68.8,129.4,72.2L129.4,72.2z"/>
<path class="st7" d="M130.7,130.2c0,0-5.9,14.6-23.3,23.5l-1.6,2.7c0,0,18.6-7,27.2-27.1L130.7,130.2z M86.5,69.2l50.7,5.1
	c0,0-10,26.5-38.1,20.5L86.5,69.2z"/>
<path class="st1" d="M107,97.7c-2.7,0-5.6-0.3-8.4-0.9c-0.6-0.1-1.1-0.5-1.4-1.1L84.7,70.1c-0.3-0.6-0.3-1.4,0.2-2
	c0.4-0.6,1.1-0.9,1.8-0.8l50.7,5.1c1.1,0.1,1.9,1.1,1.8,2.2c0,0.2-0.1,0.3-0.1,0.5c-0.1,0.2-2.2,5.8-7.1,11.3
	C125.2,93.8,116.6,97.7,107,97.7z M100.4,93.1c2.3,0.4,4.5,0.7,6.7,0.7c16.1,0,24.3-12.4,27.1-17.7l-44.3-4.5
	C89.8,71.6,100.4,93.1,100.4,93.1z"/>
<path class="st7" d="M86.5,69.2l-50.7,5.1c0,0,10,26.5,38.1,20.5L86.5,69.2z"/>
<path class="st1" d="M65.9,97.7L65.9,97.7c-9.6,0-18.2-3.9-24.8-11.3C36.2,80.8,34,75.3,34,75c-0.2-0.6-0.2-1.2,0.2-1.7
	c0.3-0.5,0.9-0.9,1.5-0.9l50.7-5.1c0.7-0.1,1.4,0.2,1.8,0.8c0.4,0.6,0.5,1.4,0.2,2L75.7,95.7c-0.3,0.5-0.8,0.9-1.4,1.1
	C71.4,97.4,68.6,97.7,65.9,97.7z M38.8,76c1.5,2.8,3.3,5.4,5.4,7.8c5.9,6.6,13.2,9.9,21.7,9.9h0c2.1,0,4.4-0.2,6.7-0.7l10.6-21.5
	L38.8,76z"/>
<path class="st7" d="M43.7,128.7c0,0,10,5.6-1.8,24.3c0,0,33.2-14.5,27.5-42.1C69.5,110.9,50.3,110.4,43.7,128.7"/>
<path class="st1" d="M42,154.5c-0.8,0-1.4-0.6-1.4-1.4c0-0.3,0.1-0.5,0.2-0.7c5.7-9.1,5.9-14.7,5.2-17.9c-0.8-3.3-2.8-4.5-2.9-4.5
	c-0.6-0.3-0.8-1-0.6-1.7c6.5-18.2,24.9-18.7,26.9-18.7c0.1,0,0.2,0,0.2,0c0.6,0,1.2,0.5,1.3,1.1c2.4,11.8-1.8,23.1-12.1,32.7
	c-7.7,7.2-15.9,10.8-16.3,11C42.3,154.4,42.1,154.5,42,154.5z M45.4,128.3c1,0.9,2.5,2.6,3.2,5.4c1.1,4.4,0.1,9.8-3.1,16
	c3.1-1.7,7.4-4.6,11.5-8.4c9.3-8.7,13.2-18.5,11.4-29C64.4,112.6,50.9,114.3,45.4,128.3z"/>
<path class="st7" d="M129.7,128.7c0,0-10,5.6,1.7,24.3c0,0-33.2-14.5-27.6-42.1C103.9,110.9,123.1,110.4,129.7,128.7"/>
<path class="st1" d="M131.4,154.5c-0.2,0-0.4,0-0.6-0.1c-0.3-0.2-8.6-3.8-16.3-11c-10.3-9.6-14.5-20.9-12.1-32.7
	c0.1-0.6,0.7-1.1,1.3-1.1c0,0,0.1,0,0.2,0c2.1,0,20.4,0.5,26.9,18.7c0.2,0.6,0,1.3-0.6,1.7c-0.1,0-2.1,1.3-2.9,4.5
	c-0.8,3.1-0.5,8.7,5.1,17.7c0.5,0.6,0.4,1.5-0.2,1.9C132.1,154.4,131.8,154.5,131.4,154.5L131.4,154.5L131.4,154.5z M105,112.3
	c-3.3,19.8,14.6,32.6,22.9,37.3c-3.2-6.2-4.3-11.6-3.1-16c0.7-2.8,2.2-4.6,3.2-5.4C122.5,114.4,109,112.6,105,112.3z"/>
<path class="st10" d="M112.2,120.9c0,41.6-19.2,44-26.2,44c-7.8,0-26.2-2.4-26.2-44C59.8,120.9,112.2,120.9,112.2,120.9z"/>
<path class="st1" d="M86,166.5c-2.6,0-10.6,0-17.2-6.9c-7-7.3-10.6-20.4-10.6-38.7c0-0.9,0.7-1.6,1.6-1.6c0,0,0,0,0,0h52.4
	c0.9,0,1.6,0.7,1.6,1.6C113.8,160.6,96.4,166.5,86,166.5z M61.4,122.5c0.3,27.1,8.6,40.8,24.6,40.8c5.8,0,10.7-2,14.6-5.9
	c6.5-6.6,9.8-18.3,10-34.9H61.4z"/>
<path class="st9" d="M85.2,68.8c0,0-34.7-9-41.5,4.5L85.2,68.8z"/>
<path class="st1" d="M43.7,74.6c-0.8,0-1.4-0.6-1.4-1.4c0-0.2,0.1-0.4,0.1-0.6c2.7-5.4,9.6-8.2,20.4-8.2c11,0,22.2,2.9,22.7,3
	c0.7,0.2,1.2,0.9,1,1.7c-0.1,0.6-0.6,1-1.2,1l-41.5,4.5C43.8,74.6,43.7,74.6,43.7,74.6z M62.9,67.2c-7.8,0-13.2,1.5-16.2,4.4
	l29.5-3.2C72.3,67.7,67.5,67.2,62.9,67.2z"/>
<path class="st9" d="M87.7,69.1c0,0,34.7-9,41.5,4.5C129.2,73.6,87.7,69.1,87.7,69.1z"/>
<path class="st1" d="M129.2,75c0,0-0.1,0-0.1,0l-41.5-4.5c-0.8-0.1-1.3-0.8-1.2-1.5c0.1-0.6,0.5-1,1-1.2c0.5-0.1,11.6-3,22.7-3
	c10.7,0,17.6,2.7,20.3,8.1c0.4,0.6,0.2,1.5-0.4,1.9C129.8,74.9,129.5,75,129.2,75L129.2,75L129.2,75z M96.8,68.7l29.5,3.2
	c-3-2.9-8.4-4.4-16.2-4.4C105.4,67.5,100.7,68.1,96.8,68.7z"/>
<path class="st9" d="M74.2,94.3l-0.3,0.1C70,96,29.2,112.1,15.8,98.8c0,0,10.7,46,62.2,27.5C78,126.2,74.2,94.3,74.2,94.3z"/>
<path class="st1" d="M55.5,132L55.5,132c-17.2,0-27.4-9-33-16.5c-6-8.1-7.9-16.1-8-16.4c-0.2-0.7,0.3-1.5,1-1.7c0.5-0.1,1,0,1.3,0.4
	c3.2,3.2,8.6,4.8,15.9,4.8c16.8,0,38.3-8.5,40.7-9.5l0.3-0.1c0.7-0.3,1.5,0,1.8,0.7c0,0.1,0.1,0.2,0.1,0.4l3.8,31.9
	c0.1,0.6-0.3,1.2-0.9,1.5C70.3,130.5,62.5,132,55.5,132z M18.5,102.4c1.1,3,3.1,7.3,6.3,11.5c7.5,10.1,17.9,15.3,30.7,15.3h0
	c6.4,0,13.5-1.3,21.1-3.9l-3.5-29.1c-5.6,2.2-24.8,9.2-40.3,9.2C26.9,105.4,22.1,104.4,18.5,102.4z"/>
<path class="st9" d="M98.9,94.3l0.3,0.1c4,1.6,44.7,17.7,58.1,4.4c0,0-10.7,46-62.2,27.5C95.1,126.2,98.9,94.3,98.9,94.3z"/>
<path class="st1" d="M117.7,132c-7,0-14.8-1.5-23.1-4.5c-0.6-0.2-1-0.8-0.9-1.5l3.8-31.9c0.1-0.8,0.8-1.3,1.5-1.2
	c0.1,0,0.2,0,0.4,0.1c0,0,0.1,0,0.3,0.1c2.4,1,23.9,9.5,40.6,9.5c7.3,0,12.7-1.6,15.9-4.8c0.5-0.5,1.4-0.5,2,0
	c0.3,0.3,0.5,0.8,0.4,1.3c-0.1,0.3-2,8.3-8,16.4C145.1,123,134.9,132,117.7,132z M96.6,125.3c7.6,2.6,14.7,3.9,21.1,3.9
	c12.8,0,23.2-5.1,30.7-15.3c3.2-4.2,5.1-8.5,6.3-11.5c-3.6,2-8.4,3-14.2,3c-15.5,0-34.7-7-40.3-9.2
	C100.1,96.2,96.6,125.3,96.6,125.3z"/>
<path class="st5" d="M102.6,102.3L102.6,102.3L86.5,69.2l-16.2,32.5c0,0.1,0,0.1,0,0c-1.1,3.2-1.8,5.4-1.8,8.2
	c0,10,8.1,18.2,18,18.2c10,0,18-8,18-17.9C104.5,107.3,103.8,104.7,102.6,102.3"/>
<path class="st1" d="M86.5,129.7c-10.8,0-19.6-8.9-19.6-19.8c0-3.1,0.7-5.5,1.8-8.5c0-0.1,0.1-0.2,0.1-0.4l0-0.1L85,68.5
	c0.3-0.5,0.8-0.9,1.4-0.9h0c0.6,0,1.2,0.3,1.4,0.9l16.2,33.1c0,0.1,0.1,0.2,0.1,0.2c1.3,2.7,1.9,5.5,1.9,8.4
	C106.1,121,97.3,129.7,86.5,129.7L86.5,129.7z M71.7,102.3c-1.1,3.3-1.7,5.1-1.7,7.6c0,9.2,7.4,16.6,16.4,16.6
	c9.1,0,16.4-7.3,16.4-16.3c0-2.5-0.6-4.8-1.7-7.2c0-0.1-0.1-0.2-0.1-0.2L86.4,72.8L71.7,102.3z"/>
<path class="st11" d="M61.5,131.6c0,0,9.1-1.1,16.5-3.9c0,0,7.5,4.3,17.1-0.1c0,0,8.6,3.2,15.2,3.9l-0.4,4.3c0,0-9.3-3.4-14.8-4.8
	c0,0-7.7,4.2-17.1,0l-16,4.8L61.5,131.6z"/>
<path class="st12" d="M80.2,111.2c0,1.6-1,2.9-2.3,2.9c-1.3,0-2.3-1.3-2.3-2.9c0-1.6,1-2.9,2.3-2.9
	C79.2,108.2,80.2,109.5,80.2,111.2"/>
<path class="st1" d="M21.3,30c-1,0-2-0.1-3.2-0.4c-0.7-0.2-1.2-0.9-1-1.6c0.2-0.7,0.9-1.2,1.6-1l0,0c7.2,1.6,10-3.8,10-3.8
	c0.3-0.7,1.2-1,1.8-0.6c0.7,0.3,1,1.2,0.6,1.8l0,0C30.1,26.5,26.8,30,21.3,30z"/>
<path class="st13" d="M90.7,56.8c0,2.4-2,4.4-4.4,4.4c-2.4,0-4.4-2-4.4-4.4c0-2.4,2-4.4,4.4-4.4C88.7,52.4,90.7,54.4,90.7,56.8
	C90.7,56.8,90.7,56.8,90.7,56.8"/>
<path class="st1" d="M86.3,62.6c-3.2,0-5.8-2.6-5.8-5.8c0-3.2,2.6-5.8,5.8-5.8c3.2,0,5.8,2.6,5.8,5.8C92.1,60,89.5,62.6,86.3,62.6z
	 M86.3,53.8c-1.7,0-3,1.3-3,3c0,1.7,1.4,3,3,3c1.7,0,3-1.4,3-3C89.3,55.2,88,53.8,86.3,53.8z"/>
<path class="st14" d="M71.3,97l-4.6,1.4c0,0-11.5,15.1,3.9,28.7l4.4-1.2C74.9,125.9,60.1,116.9,71.3,97 M101.4,96.8l5.3,1.8
	c0,0,11.1,14.8-4.3,28.4l-4.4-1.3C98,125.7,112.6,116.6,101.4,96.8"/>
<path class="st6" d="M39,82.8L37.8,87c0,0,9.3,12,23.7,10.4C61.5,97.4,49.2,97.1,39,82.8 M134.1,82.5l0.9,3.8
	c0,0-7.3,12.7-23.2,11.1C111.8,97.4,123.9,96.8,134.1,82.5"/>
<path class="st8" d="M73.2,91.7c0,0-21.1,4.6-32.5-15.9l-2.9,0.3c0,0,7.7,23.5,34.2,18.2L73.2,91.7z M99.7,91.6
	c0,0,21.1,4.6,32.1-15.9l2.4,0.3c0,0-7.2,22.9-33.7,17.6L99.7,91.6z M116.1,132c0,0,0.1,7.9,11.7,17.6c0,0-6.8-2.8-15.3-12.4
	l0.7-5.4C113.2,131.8,116.1,132,116.1,132z M56,132c0,0,1.1,7.9-10.4,17.6c0,0,7.1-3.7,14.2-11l-0.9-6.8C58.8,131.9,56,132,56,132z"
	/>
<path class="st7" d="M134.2,82.4l4.6,20.3l-1.9-0.2l-4-18.2L134.2,82.4z M86.5,72.7l14.5,29.9c0,0,7.4,11.7-5.5,21.1
	c0,0,8-9,3.3-20.2C94.2,92.4,86.5,72.7,86.5,72.7 M125,67.6l-5.5-18.5c0,0-2-6.8-9.1-8.4c0,0,4.8,1.4,7.6,10.3
	c1.6,5.2,3.2,10.4,4.7,15.6C122.7,66.6,125,67.6,125,67.6z M154.3,102.6c0,0-6.1,20.2-25.1,24.9
	C129.3,127.6,146.4,118.7,154.3,102.6 M108,131.1c0,0-3,27.1-19.5,32c0,0,19,0.8,21.9-31.7L108,131.1L108,131.1z M136.8,79.7
	c0,0,8.4-2.7,10.6,10.1c0,0,1.4,8.9-5.3,12.2c0,0,6.6-5.5,2.5-14.9C144.7,87,143.1,80.7,136.8,79.7"/>
<path class="st8" d="M135.5,57.2c0,0,21.4-11.2,18.8-42.3c0,0-0.1-2.5-1.6-2.2c0,0,3.3,29.6-18,41.3
	C134.7,53.9,135.5,57.2,135.5,57.2z"/>
<path class="st1" d="M151.6,31.3c-5.5,0-8.8-3.5-9.9-5.7c-0.3-0.7-0.1-1.5,0.6-1.9c0.7-0.3,1.5-0.1,1.9,0.6c0.1,0.2,2.9,5.4,10,3.8
	c0.7-0.2,1.5,0.3,1.7,1c0.2,0.7-0.3,1.5-1,1.7c0,0-0.1,0-0.1,0C153.8,31.2,152.7,31.3,151.6,31.3z"/>
<path class="st9" d="M67.5,81.5c0,1.6-1.3,3-3,3c-1.6,0-3-1.3-3-3c0-1.6,1.3-3,3-3c0,0,0,0,0,0C66.1,78.5,67.5,79.8,67.5,81.5
	C67.5,81.4,67.5,81.4,67.5,81.5 M110.3,81.5c0,1.6-1.3,3-3,3c0,0,0,0,0,0c-1.6,0-3-1.3-3-3c0-1.6,1.3-3,2.9-3c0,0,0,0,0,0
	C108.9,78.5,110.3,79.8,110.3,81.5C110.3,81.4,110.3,81.4,110.3,81.5"/>
<path class="st7" d="M110.4,32c0,0,24.8,4.9,23.3,40.6l-2-0.2C131.8,72.4,133.7,41.7,110.4,32"/>
<path class="st12" d="M110.9,44.3c1.3,1.3,1.6,3.2,0.6,4.2c-1,1.1-2.9,0.9-4.2-0.4c-1.3-1.3-1.6-3.1-0.6-4.2
	C107.7,42.9,109.6,43.1,110.9,44.3 M115.3,51.2c0.2,1.1-0.3,2.2-1.2,2.4c-0.9,0.2-1.8-0.6-2.1-1.7c-0.2-1.1,0.3-2.2,1.2-2.4
	C114.2,49.3,115.1,50.1,115.3,51.2"/>
<path class="st15" d="M89.5,145.8c0.1,6.2-1.6,11.3-3.6,11.3c-2.1,0-3.8-5-3.9-11.2c-0.1-6.2,1.6-11.3,3.6-11.3
	C87.7,134.5,89.4,139.5,89.5,145.8"/>
<path class="st7" d="M85.8,141.7v8"/>
<path class="st1" d="M85.8,151.3c-0.9,0-1.6-0.7-1.6-1.6c0,0,0,0,0,0v-8c0-0.9,0.7-1.6,1.6-1.6c0.9,0,1.6,0.7,1.6,1.6v8
	C87.4,150.6,86.7,151.3,85.8,151.3C85.8,151.3,85.8,151.3,85.8,151.3z"/>
<path class="st3" d="M94.7,181.5c0,4-3.3,7.3-7.3,7.3s-7.3-3.3-7.3-7.3c0-4,3.2-7.3,7.2-7.4c4,0,7.3,3.2,7.4,7.2
	C94.7,181.4,94.7,181.4,94.7,181.5"/>
<path class="st1" d="M87.5,190.1c-4.8,0-8.7-3.9-8.7-8.6s3.9-8.7,8.7-8.7s8.7,3.9,8.7,8.7S92.2,190.1,87.5,190.1z M87.5,175.6
	c-3.2,0-5.9,2.6-5.9,5.9s2.6,5.9,5.9,5.9s5.9-2.6,5.9-5.9S90.7,175.6,87.5,175.6z"/>
<path class="st1" d="M89.4,184.8c-0.3,0-0.6-0.2-0.8-0.5l-2.8-5.4c-0.2-0.4,0-1,0.4-1.2c0.4-0.2,0.9,0,1.1,0.4l2.8,5.4
	c0.2,0.4,0.1,1-0.4,1.2c0,0,0,0,0,0C89.7,184.7,89.5,184.8,89.4,184.8L89.4,184.8z"/>
<path class="st1" d="M85.5,184.8c-0.5,0-0.9-0.4-0.9-0.9c0-0.2,0.1-0.5,0.3-0.6l2.5-2.5c0.4-0.3,0.9-0.3,1.2,0.1
	c0.3,0.3,0.3,0.8,0,1.2l-2.5,2.5C86,184.7,85.8,184.8,85.5,184.8L85.5,184.8z"/>
</svg>
