<svg width="18" height="22" viewBox="0 0 18 22" fill="none" xmlns="http://www.w3.org/2000/svg">
<path d="M17.576 7.08269C18.1609 5.66576 18.1764 2.7635 17.3973 0.510102C17.1964 0.106213 16.5895 0.229807 16.5608 0.680045L16.552 0.830124C16.4151 2.94668 15.636 4.11642 14.4884 4.67701C14.3008 4.7697 13.9984 4.74542 13.8196 4.63286C12.4513 3.76991 10.8313 3.27112 9.09436 3.27112C7.353 3.27112 5.73083 3.77212 4.36025 4.63949C4.18589 4.74984 3.9674 4.77632 3.77318 4.70349C2.59903 4.26429 1.77801 2.99303 1.63896 0.832331L1.63013 0.680045C1.60144 0.229807 0.994505 0.106213 0.793664 0.510102C0.0145764 2.76791 0.0300257 5.67459 0.6171 7.08931C0.910637 7.79777 0.926086 8.59451 0.681104 9.32284C0.369911 10.2498 0.208796 11.2474 0.224246 12.2825C0.299285 16.9658 4.29183 20.9473 8.97518 21.0091C13.93 21.0754 17.9667 17.0784 17.9667 12.139C17.9667 11.1525 17.8056 10.2034 17.5076 9.31622C17.2626 8.5901 17.2847 7.79335 17.576 7.08269ZM8.96635 18.886C5.35783 18.8198 2.41584 15.8756 2.34742 12.267C2.2768 8.44002 5.39315 5.32146 9.22237 5.39209C12.8309 5.4583 15.7729 8.4025 15.8413 12.011C15.9119 15.838 12.7956 18.9566 8.96635 18.886Z" fill="#F47E7E"/>
<path d="M5.75653 13.622H12.4348V15.8481H5.75653V13.622Z" fill="#F47E7E"/>
</svg>
