<svg width="44" height="50" fill="none" xmlns="http://www.w3.org/2000/svg"><path fill-rule="evenodd" clip-rule="evenodd" d="M25.701 30.744l5.282-6.85-7.405-4.933-1.672 2.326 4.884 3.246-3.45 4.524 2.361 1.687zM7.095 23.255a4.83 4.83 0 00-.822-3.4c-.486-.7-.922-1.7-1.261-2.865a18.818 18.818 0 01-.66-3.572 17.38 17.38 0 01.022-3.355c.012-.11.026-.22.04-.328.186-.665 1.195-.69 1.38 0l.054.23.054.186c.327 1.083.744 1.986 1.23 2.717.5.75 1.074 1.317 1.698 1.71.523.33 1.082.537 1.663.626.345.051.69-.05.929-.28a14.154 14.154 0 017.06-3.553 14.57 14.57 0 017.936.588c.292.102.796.05 1.062-.154a5.009 5.009 0 001.168-1.211c.402-.59.693-1.296.849-2.13.158-.849.177-1.831.03-2.965l-.03-.211-.027-.23c-.106-.716.823-1.1 1.274-.537a14.34 14.34 0 01.34.584c.474.858.878 1.787 1.205 2.728.4 1.147.685 2.314.844 3.396.188 1.268.203 2.419.027 3.285-.24 1.176 0 2.377.61 3.425a13.895 13.895 0 011.536 3.691 13.39 13.39 0 01.409 3.137c.074 6.544-4.713 12.44-11.686 13.746-6.62 1.23-13.386-2.468-15.95-8.33a12.798 12.798 0 01-.745-2.25 15.01 15.01 0 01-.156-.83 13.769 13.769 0 01-.083-3.848zm12.157-1.482l-2.495-1.508-4.725 7.233 7.75 4.37 1.487-2.453-5.15-2.889 3.133-4.753zm20.35-.56c2.152 10.04-4.663 19.61-14.784 21.507l-.004.001h-.003c-9.566 1.777-19.46-4.346-21.648-13.826l-.005-.026-.006-.026a18.265 18.265 0 01-.305-6.111l.003-.02.002-.02a.552.552 0 00-.099-.4C1.593 20.617.848 18.37.436 16.258c-.427-2.187-.59-4.698-.263-7.1l.04-.292.08-.284c.7-2.507 2.945-3.616 4.766-3.635 1.877-.02 4.177 1.107 4.869 3.675l.02.075.043.187c.167.562.348.983.515 1.293a18.337 18.337 0 017.159-3.008 18.884 18.884 0 017.676.036c.016-.326 0-.752-.08-1.299l-.009-.063-.028-.244c-.714-5.32 5.911-7.43 8.859-3.757l.167.21.14.227c1.266 2.058 2.144 4.416 2.648 6.59.483 2.086.729 4.469.316 6.498a.345.345 0 00.002.135c.012.063.041.158.108.274a18.04 18.04 0 012.138 5.437z" fill="url(#paint0_linear)"/><g filter="url(#filter0_d)"><path d="M35.416 22.105a13.768 13.768 0 00-1.646-4.166c-.61-1.048-.85-2.249-.61-3.425.477-2.351-.452-6.798-2.416-9.993-.451-.562-1.38-.179-1.274.537l.027.23c.477 3.271-.398 5.316-2.017 6.517-.266.205-.77.256-1.062.154a14.57 14.57 0 00-7.936-.588 14.154 14.154 0 00-7.06 3.552c-.24.23-.584.332-.93.281-1.99-.306-3.715-1.993-4.644-5.239l-.053-.23c-.186-.69-1.195-.665-1.38 0-.505 3.706.477 8.127 1.857 10.12a4.83 4.83 0 01.823 3.4 13.987 13.987 0 00.24 4.677c1.645 7.13 9.262 11.961 16.694 10.581 7.91-1.482 13.006-8.868 11.387-16.408zm-15.634 9.763l-7.75-4.37 4.724-7.233 2.495 1.508-3.132 4.753 5.15 2.889-1.487 2.453zm5.92-1.124l-2.363-1.687 3.45-4.524-4.883-3.246 1.672-2.326 7.405 4.933-5.282 6.85z" fill="url(#paint1_linear)"/><path fill-rule="evenodd" clip-rule="evenodd" d="M30.744 4.521c1.964 3.195 2.893 7.642 2.416 9.993-.24 1.176 0 2.377.61 3.425a13.77 13.77 0 011.645 4.166c1.62 7.54-3.476 14.926-11.386 16.408-7.432 1.38-15.05-3.45-16.695-10.58a13.987 13.987 0 01-.239-4.678 4.83 4.83 0 00-.823-3.4c-1.38-1.993-2.362-6.414-1.858-10.12.186-.665 1.195-.69 1.38 0l.054.23c.929 3.246 2.654 4.933 4.644 5.24.345.05.69-.052.93-.282a14.154 14.154 0 017.06-3.552 14.57 14.57 0 017.936.588c.292.102.796.05 1.061-.154 1.62-1.201 2.495-3.246 2.018-6.517l-.027-.23c-.106-.716.823-1.1 1.274-.537zm-1.878.615c-.194-1.372 1.547-2.002 2.354-.996l.024.03.02.032c1.022 1.663 1.767 3.637 2.197 5.494.428 1.846.56 3.643.296 4.94-.206 1.013-.004 2.062.539 2.994a14.376 14.376 0 011.716 4.348c1.695 7.896-3.646 15.593-11.87 17.134h-.002C16.404 40.55 8.463 35.536 6.74 28.07v-.003l-.002-.004a14.596 14.596 0 01-.248-4.881v-.006c.14-1.05-.115-2.1-.719-2.972-.757-1.093-1.37-2.789-1.733-4.649-.365-1.87-.49-3.97-.228-5.901l.006-.042.011-.04c.18-.642.756-.948 1.27-.954.524-.005 1.108.298 1.286.96l.003.01.052.225c.894 3.11 2.485 4.533 4.145 4.79a.495.495 0 00.416-.118l.004-.004.005-.005a14.763 14.763 0 017.357-3.703 15.18 15.18 0 018.257.612c.033.01.129.025.258.008a.553.553 0 00.227-.07l.005-.003.004-.004c1.39-1.03 2.233-2.823 1.777-5.939v-.01l-.027-.23z" fill="url(#paint2_linear)"/></g><defs><linearGradient id="paint0_linear" x1="33.938" y1="42.981" x2="6.401" y2="1.727" gradientUnits="userSpaceOnUse"><stop stop-color="#291473"/><stop offset="1" stop-color="#724EF5"/></linearGradient><linearGradient id="paint1_linear" x1="35.767" y1="38.713" x2="4.268" y2="6.604" gradientUnits="userSpaceOnUse"><stop stop-color="#EAEF20"/><stop offset="1" stop-color="#FBFF64"/></linearGradient><linearGradient id="paint2_linear" x1="32.312" y1="34.649" x2="17.883" y2="19.001" gradientUnits="userSpaceOnUse"><stop stop-color="#DEE239"/><stop offset="1" stop-color="#FEFFC1"/></linearGradient><filter id="filter0_d" x="2.67" y="3.646" width="40.655" height="45.712" filterUnits="userSpaceOnUse" color-interpolation-filters="sRGB"><feFlood flood-opacity="0" result="BackgroundImageFix"/><feColorMatrix in="SourceAlpha" values="0 0 0 0 0 0 0 0 0 0 0 0 0 0 0 0 0 0 127 0"/><feOffset dx="3" dy="6"/><feGaussianBlur stdDeviation="2"/><feColorMatrix values="0 0 0 0 0 0 0 0 0 0 0 0 0 0 0 0 0 0 0.25 0"/><feBlend in2="BackgroundImageFix" result="effect1_dropShadow"/><feBlend in="SourceGraphic" in2="effect1_dropShadow" result="shape"/></filter></defs></svg>