<svg width="18" height="22" viewBox="0 0 18 22" fill="none" xmlns="http://www.w3.org/2000/svg">
<path d="M17.3848 7.08269C17.9696 5.66576 17.9851 2.7635 17.206 0.510102C17.0051 0.106213 16.3982 0.229807 16.3695 0.680045L16.3607 0.830124C16.2238 2.94668 15.4448 4.11642 14.2971 4.67701C14.1095 4.7697 13.8071 4.74542 13.6284 4.63286C12.26 3.76991 10.64 3.27112 8.90308 3.27112C7.16172 3.27112 5.53954 3.77212 4.16897 4.63949C3.99461 4.74984 3.77611 4.77632 3.58189 4.70349C2.40774 4.26429 1.58672 2.99303 1.44768 0.832331L1.43885 0.680045C1.41016 0.229807 0.803221 0.106213 0.602379 0.510102C-0.176708 2.76791 -0.161258 5.67459 0.425816 7.08931C0.719353 7.79777 0.734802 8.59451 0.48982 9.32284C0.178627 10.2498 0.0175123 11.2474 0.0329616 12.2825C0.108001 16.9658 4.10055 20.9473 8.7839 21.0091C13.7387 21.0754 17.7754 17.0784 17.7754 12.139C17.7754 11.1525 17.6143 10.2034 17.3163 9.31622C17.0714 8.5901 17.0934 7.79335 17.3848 7.08269ZM8.77507 18.886C5.16655 18.8198 2.22456 15.8756 2.15614 12.267C2.08551 8.44002 5.20186 5.32146 9.03109 5.39209C12.6396 5.4583 15.5816 8.4025 15.65 12.011C15.7206 15.838 12.6043 18.9566 8.77507 18.886Z" fill="#5C94C8"/>
<path fill-rule="evenodd" clip-rule="evenodd" d="M5.84145 11.9524C5.84145 13.644 7.21275 15.0153 8.90432 15.0153C10.5959 15.0153 11.9672 13.644 11.9672 11.9524H13.913C13.913 14.7186 11.6706 16.9611 8.90432 16.9611C6.1381 16.9611 3.89563 14.7186 3.89563 11.9524H5.84145Z" fill="#5C94C8"/>
</svg>
