<svg width="22" height="22" viewBox="0 0 22 22" fill="none" xmlns="http://www.w3.org/2000/svg">
<path d="M7 10.75C7 11.7446 7.39509 12.6984 8.09835 13.4017C8.80161 14.1049 9.75544 14.5 10.75 14.5C11.7446 14.5 12.6984 14.1049 13.4017 13.4017C14.1049 12.6984 14.5 11.7446 14.5 10.75C14.5 9.75544 14.1049 8.80161 13.4017 8.09835C12.6984 7.39509 11.7446 7 10.75 7C9.75544 7 8.80161 7.39509 8.09835 8.09835C7.39509 8.80161 7 9.75544 7 10.75Z" stroke="#5C94C8" stroke-width="1.5" stroke-linecap="round" stroke-linejoin="round"/>
<path d="M15.8691 19.0509L11.2791 14.4609" stroke="#5C94C8" stroke-width="1.5" stroke-linecap="round" stroke-linejoin="round"/>
<path d="M14.4609 11.28L19.0509 15.869" stroke="#5C94C8" stroke-width="1.5" stroke-linecap="round" stroke-linejoin="round"/>
<path d="M2.44897 15.8691L7.03897 11.2791" stroke="#5C94C8" stroke-width="1.5" stroke-linecap="round" stroke-linejoin="round"/>
<path d="M10.2211 14.4619L5.6311 19.0509" stroke="#5C94C8" stroke-width="1.5" stroke-linecap="round" stroke-linejoin="round"/>
<path d="M5.6311 2.44995L10.2211 7.03895" stroke="#5C94C8" stroke-width="1.5" stroke-linecap="round" stroke-linejoin="round"/>
<path d="M7.03897 10.2211L2.44897 5.6311" stroke="#5C94C8" stroke-width="1.5" stroke-linecap="round" stroke-linejoin="round"/>
<path d="M19.0509 5.6311L14.4609 10.2211" stroke="#5C94C8" stroke-width="1.5" stroke-linecap="round" stroke-linejoin="round"/>
<path d="M11.2791 7.03895L15.8691 2.44995" stroke="#5C94C8" stroke-width="1.5" stroke-linecap="round" stroke-linejoin="round"/>
<path d="M1 10.75C1 13.3359 2.02723 15.8158 3.85571 17.6443C5.68419 19.4728 8.16414 20.5 10.75 20.5C13.3359 20.5 15.8158 19.4728 17.6443 17.6443C19.4728 15.8158 20.5 13.3359 20.5 10.75C20.5 8.16414 19.4728 5.68419 17.6443 3.85571C15.8158 2.02723 13.3359 1 10.75 1C8.16414 1 5.68419 2.02723 3.85571 3.85571C2.02723 5.68419 1 8.16414 1 10.75V10.75Z" stroke="#5C94C8" stroke-width="1.5" stroke-linecap="round" stroke-linejoin="round"/>
</svg>
