<svg width="57" height="55" viewBox="0 0 57 55" fill="none" xmlns="http://www.w3.org/2000/svg">
<path d="M6.35197 10.5666C7.68322 6.56854 11.0969 3.62045 15.2462 2.88549L16.9707 2.58002C24.7389 1.20405 32.6884 1.20405 40.4565 2.58002L42.181 2.88549C46.3303 3.62045 49.744 6.56854 51.0753 10.5666V10.5666C54.7354 21.5589 54.7354 33.4411 51.0753 44.4334V44.4334C49.744 48.4315 46.3303 51.3795 42.181 52.1145L40.4565 52.42C32.6884 53.796 24.7389 53.796 16.9707 52.42L15.2462 52.1145C11.0969 51.3795 7.68322 48.4315 6.35197 44.4334V44.4334C2.69186 33.4411 2.69186 21.5589 6.35197 10.5666V10.5666Z" fill="#1EB4D4"/>
<mask id="mask0" mask-type="alpha" maskUnits="userSpaceOnUse" x="10" y="9" width="37" height="37">
<path fill-rule="evenodd" clip-rule="evenodd" d="M28.7136 45.5988C38.6564 45.5988 46.7166 37.5386 46.7166 27.5958C46.7166 17.653 38.6564 9.59277 28.7136 9.59277C18.7708 9.59277 10.7106 17.653 10.7106 27.5958C10.7106 37.5386 18.7708 45.5988 28.7136 45.5988ZM28.7137 35.9245C33.3134 35.9245 37.0423 32.1956 37.0423 27.5959C37.0423 22.9961 33.3134 19.2673 28.7137 19.2673C24.1139 19.2673 20.3851 22.9961 20.3851 27.5959C20.3851 32.1956 24.1139 35.9245 28.7137 35.9245Z" fill="#1B2738"/>
</mask>
<g mask="url(#mask0)">
<path d="M48.1076 8.2666H9.3468V46.8913H48.1076V8.2666Z" fill="#1B2738"/>
<rect x="55.4412" y="21.2922" width="12.0346" height="53.3292" transform="rotate(90 55.4412 21.2922)" fill="white"/>
<rect x="22.7593" y="0.904541" width="12.0346" height="53.3292" fill="white"/>
</g>
</svg>
