<svg width="216" height="161" viewBox="0 0 216 161" fill="none" xmlns="http://www.w3.org/2000/svg">
<rect width="216" height="161" rx="8" fill="#1B2738"/>
<path d="M142.537 66.022C144.919 60.2515 144.982 48.4318 141.809 39.2547C140.991 37.6098 138.519 38.1132 138.402 39.9468L138.366 40.558C137.809 49.1778 134.636 53.9417 129.962 56.2247C129.198 56.6022 127.967 56.5033 127.239 56.0449C121.666 52.5305 115.069 50.4991 107.995 50.4991C100.903 50.4991 94.2966 52.5395 88.7148 56.0719C88.0048 56.5213 87.1149 56.6292 86.3239 56.3326C81.5421 54.5439 78.1985 49.3666 77.6322 40.567L77.5963 39.9468C77.4794 38.1132 75.0076 37.6098 74.1897 39.2547C71.0168 48.4498 71.0797 60.2874 73.4706 66.049C74.6661 68.9342 74.729 72.179 73.7313 75.1452C72.4639 78.9203 71.8078 82.983 71.8707 87.1985C72.1763 106.272 88.4362 122.487 107.509 122.738C127.688 123.008 144.128 106.73 144.128 86.6143C144.128 82.5965 143.472 78.7315 142.258 75.1182C141.261 72.161 141.351 68.9162 142.537 66.022ZM107.474 114.092C92.7776 113.822 80.7961 101.832 80.5175 87.1356C80.2298 71.5498 92.9214 58.8493 108.516 59.1369C123.212 59.4066 135.194 71.397 135.472 86.093C135.76 101.679 123.068 114.379 107.474 114.092Z" fill="#1EB4D4"/>
<path d="M112.245 83.6654L105.81 73.6614C104.776 72.0435 102.61 71.5761 101.001 72.6187C99.9941 73.2659 99.3919 74.3625 99.4009 75.6208C99.4009 76.286 99.6435 76.9421 100.003 77.4994L104.398 84.3395C104.722 84.8429 104.668 85.499 104.264 85.9394L97.4684 93.4267C96.183 94.8469 96.2819 97.049 97.711 98.3434C98.3672 98.9366 99.2211 99.2602 100.111 99.2422C101.064 99.2242 101.981 98.8108 102.628 98.1007L107.661 92.1774C108.048 91.719 108.758 91.7549 109.099 92.2493L112.668 97.3906C112.919 97.7861 113.234 98.1546 113.62 98.4243C114.852 99.2961 116.371 99.2692 117.512 98.5501C118.528 97.9119 119.139 96.8153 119.139 95.566C119.139 94.9008 118.915 94.2447 118.555 93.6784L112.245 83.6654Z" fill="#1EB4D4"/>
</svg>
