<svg xmlns="http://www.w3.org/2000/svg" width="24.005" height="24" viewBox="0 0 24.005 24">
    <defs>
        <style>
            .cls-1{fill:#fff}
        </style>
    </defs>
    <path id="instagram-brands" d="M11.93 37.672a6.153 6.153 0 1 0 6.153 6.153 6.144 6.144 0 0 0-6.153-6.153zm0 10.154a4 4 0 1 1 4-4 4.008 4.008 0 0 1-4 4zm7.84-10.406a1.435 1.435 0 1 1-1.435-1.435 1.432 1.432 0 0 1 1.436 1.435zm4.075 1.457a7.1 7.1 0 0 0-1.939-5.029 7.149 7.149 0 0 0-5.029-1.939c-1.981-.112-7.921-.112-9.9 0a7.139 7.139 0 0 0-5.029 1.933 7.126 7.126 0 0 0-1.939 5.029c-.112 1.981-.112 7.921 0 9.9A7.1 7.1 0 0 0 1.948 53.8a7.158 7.158 0 0 0 5.029 1.939c1.981.112 7.921.112 9.9 0a7.1 7.1 0 0 0 5.031-1.939 7.149 7.149 0 0 0 1.939-5.029c.112-1.979.112-7.913-.001-9.894zM21.286 50.9A4.05 4.05 0 0 1 19 53.181c-1.58.627-5.329.482-7.074.482s-5.5.139-7.074-.482A4.05 4.05 0 0 1 2.575 50.9c-.627-1.58-.482-5.329-.482-7.074s-.139-5.5.482-7.074a4.05 4.05 0 0 1 2.281-2.281c1.58-.627 5.329-.482 7.074-.482s5.5-.139 7.074.482a4.05 4.05 0 0 1 2.281 2.281c.627 1.58.482 5.329.482 7.074s.146 5.499-.481 7.074z" class="cls-1" transform="translate(.075 -31.825)"/>
</svg>
