<svg width="217" height="162" viewBox="0 0 217 162" fill="none" xmlns="http://www.w3.org/2000/svg">
<rect x="0.281738" y="0.990723" width="216" height="161" rx="8" fill="#1B2738"/>
<mask id="mask0" mask-type="alpha" maskUnits="userSpaceOnUse" x="0" y="0" width="217" height="162">
<rect x="0.281738" y="0.990723" width="216" height="161" rx="8" fill="#1B2738"/>
</mask>
<g mask="url(#mask0)">
<path d="M162.981 33.411V-59.0926L65.6322 33.411V-58.6445L-31.2342 33.411V-59.2515L-128.745 33.411V-58.5708L-220.46 28.0333L-225.051 23.0584L-122.019 -74.2329V17.6808L-24.5077 -74.9817V17.6808L72.3586 -74.3747V17.6808L169.707 -74.8229V17.6808L266.495 -74.2953V25.5487H259.769V-58.5651L162.981 33.411Z" fill="#2EB67D"/>
<path d="M128.788 114.769V22.2653L31.4451 114.769V22.7134L-65.4269 114.769V22.1064L-162.938 114.769V22.7872L-254.653 109.397L-259.238 104.416L-156.211 7.12501V99.0444L-58.7005 6.37622V99.0444L38.1715 6.9832V99.0444L135.514 6.53505V99.0444L232.302 7.06261V106.907H225.576V22.7928L128.788 114.769Z" fill="#2EB67D"/>
<path d="M97.1338 197.963V105.454L-0.209061 197.963V105.908L-97.0811 197.963V105.301L-194.592 197.963V105.976L-286.307 192.585L-290.898 187.61L-187.866 90.3134V182.233L-90.3546 89.5703V182.233L6.51738 90.1773V182.233L103.86 89.7235V182.233L200.648 90.2567V190.095H193.922V105.987L97.1338 197.963Z" fill="#2EB67D"/>
<path d="M98.798 116.043C107.147 116.043 113.916 109.193 113.916 100.744C113.916 92.2944 107.147 85.4448 98.798 85.4448C90.4488 85.4448 83.6804 92.2944 83.6804 100.744C83.6804 109.193 90.4488 116.043 98.798 116.043Z" fill="#E65678"/>
</g>
<mask id="mask1" mask-type="alpha" maskUnits="userSpaceOnUse" x="68" y="40" width="81" height="83">
<path d="M72.77 54.755C74.8693 48.5106 80.2158 43.9145 86.7046 42.7761L89.683 42.2536C101.988 40.0948 114.575 40.0948 126.88 42.2536L129.859 42.7761C136.348 43.9145 141.694 48.5106 143.793 54.755V54.755C149.625 72.1018 149.625 90.8797 143.793 108.226V108.226C141.694 114.471 136.348 119.067 129.859 120.205L126.88 120.728C114.575 122.887 101.988 122.887 89.683 120.728L86.7046 120.205C80.2158 119.067 74.8693 114.471 72.77 108.226V108.226C66.9382 90.8797 66.9382 72.1018 72.77 54.755V54.755Z" fill="#2B394E"/>
</mask>
<g mask="url(#mask1)">
<g filter="url(#filter0_d)">
<path d="M156.136 33.7861H60.4277V129.195H156.136V33.7861Z" fill="#111B29"/>
</g>
<path d="M108.282 68.528C100.657 68.528 95.3091 71.7997 95.3091 71.7997C98.2393 69.1823 103.36 67.6746 103.36 67.6746L102.876 67.1909C98.0686 67.2763 93.7159 70.6048 93.7159 70.6048C88.8227 80.818 89.1356 89.6372 89.1356 89.6372C93.1185 94.7865 99.0359 94.4166 99.0359 94.4166L101.056 91.8562C97.4996 91.0881 95.2522 87.9302 95.2522 87.9302C95.2522 87.9302 100.601 91.5717 108.282 91.5717C115.963 91.5717 121.311 87.9302 121.311 87.9302C121.311 87.9302 119.064 91.0881 115.508 91.8562L117.528 94.4166C117.528 94.4166 123.445 94.7865 127.428 89.6372C127.428 89.6372 127.741 80.818 122.848 70.6048C122.848 70.6048 118.495 67.2763 113.687 67.1909L113.203 67.6746C113.203 67.6746 118.324 69.1823 121.255 71.7997C121.255 71.7997 115.906 68.528 108.282 68.528ZM102.393 79.3102C104.242 79.3102 105.75 80.9318 105.721 82.9232C105.721 84.8862 104.242 86.5362 102.393 86.5362C100.572 86.5362 99.0928 84.8862 99.0928 82.9232C99.0928 80.9318 100.544 79.3102 102.393 79.3102ZM114.256 79.3102C116.105 79.3102 117.585 80.9318 117.585 82.9232C117.585 84.8862 116.105 86.5362 114.256 86.5362C112.435 86.5362 110.956 84.8862 110.956 82.9232C110.956 80.9318 112.407 79.3102 114.256 79.3102Z" fill="#2EB67D"/>
</g>
<defs>
<filter id="filter0_d" x="56.4277" y="33.7861" width="103.708" height="103.409" filterUnits="userSpaceOnUse" color-interpolation-filters="sRGB">
<feFlood flood-opacity="0" result="BackgroundImageFix"/>
<feColorMatrix in="SourceAlpha" type="matrix" values="0 0 0 0 0 0 0 0 0 0 0 0 0 0 0 0 0 0 127 0"/>
<feOffset dy="4"/>
<feGaussianBlur stdDeviation="2"/>
<feColorMatrix type="matrix" values="0 0 0 0 0 0 0 0 0 0 0 0 0 0 0 0 0 0 0.25 0"/>
<feBlend mode="normal" in2="BackgroundImageFix" result="effect1_dropShadow"/>
<feBlend mode="normal" in="SourceGraphic" in2="effect1_dropShadow" result="shape"/>
</filter>
</defs>
</svg>
