<?xml version="1.0" encoding="utf-8"?>
<!-- Generator: Adobe Illustrator 23.1.1, SVG Export Plug-In . SVG Version: 6.00 Build 0)  -->
<svg version="1.1" id="Layer_1" xmlns="http://www.w3.org/2000/svg" xmlns:xlink="http://www.w3.org/1999/xlink" x="0px" y="0px"
	 viewBox="0 0 217 161.4" style="enable-background:new 0 0 217 161.4;" xml:space="preserve">
<style type="text/css">
	.st0{fill:#5C94C8;}
	.st1{fill:#1EB4D4;}
	.st2{fill:#F8F8F8;}
	.st3{fill:#E9E9E9;}
	.st4{fill:#F2F2F2;}
	.st5{fill:#F47E7E;}
</style>
<path class="st0" d="M8.1,0.4h200c4.4,0,8,3.6,8,8v145c0,4.4-3.6,8-8,8H8.1c-4.4,0-8-3.6-8-8V8.4C0.1,4,3.7,0.4,8.1,0.4z"/>
<g>
	<path class="st1" d="M102.8,57.5c0-2.3,1.9-4.3,4.3-4.3h2.5c2.3,0,4.3,1.9,4.3,4.3v59.4c0,2.4-1.9,4.3-4.3,4.3h-2.5
		c-2.3,0-4.3-1.9-4.3-4.3V57.5z"/>
	<path class="st1" d="M62.6,38.3c0-2.1,2.2-3.4,4-2.3l39.1,23.7v57.1c0,2.1-2.2,3.4-4,2.3l-37.8-23c-0.8-0.5-1.3-1.4-1.3-2.3
		L62.6,38.3z"/>
	<path class="st2" d="M72.4,32.9l36,21.3v56.2l-36-21.2L72.4,32.9z"/>
	<path class="st3" d="M67.1,35.5l5.3-2.6l0,55.6c0,0.4,0.2,0.7,0.5,0.9l35.5,20.9l-4.9,2.4c-0.3,0.2-0.7,0.1-1,0L67.6,92
		c-0.3-0.2-0.5-0.5-0.5-0.9V35.5z"/>
	<path class="st1" d="M154.2,38.3c0-2.1-2.2-3.4-4-2.3l-39.1,23.7v57c0,2.1,2.2,3.4,4,2.3l37.8-22.9c0.8-0.5,1.3-1.4,1.3-2.3V38.3z"
		/>
	<path class="st4" d="M144.4,32.9l-36,21.3l0,56.2l36-21.2L144.4,32.9z"/>
	<path class="st3" d="M149.7,35.5l-5.3-2.6l0,55.6c0,0.4-0.2,0.7-0.5,0.9l-35.5,20.9l4.9,2.4c0.3,0.2,0.7,0.1,1,0L149.1,92
		c0.3-0.2,0.5-0.5,0.5-0.9V35.5z"/>
	<path class="st5" d="M113.4,51.2l4.5-2.6l0.5,24.7l-2.8-3.5l-2.3,5.6L113.4,51.2z"/>
</g>
</svg>
