<?xml version="1.0" encoding="utf-8"?>
<!-- Generator: Adobe Illustrator 22.1.0, SVG Export Plug-In . SVG Version: 6.00 Build 0)  -->
<svg version="1.1" id="Layer_1" xmlns="http://www.w3.org/2000/svg" xmlns:xlink="http://www.w3.org/1999/xlink" x="0px" y="0px"
	 viewBox="0 0 220 80" style="enable-background:new 0 0 220 80;" xml:space="preserve">
<style type="text/css">
	.st0{fill:#102954;}
	.st1{fill:#FFFFFF;}
</style>
<g>
	<g>
		<g>
			<path class="st0" d="M67.4,26.8c2.1-5.2,2.2-16-0.7-24.4l0,0c-0.7-1.5-3-1.1-3.1,0.7v0.6c-0.5,7.9-3.4,12.2-7.6,14.2
				c-0.7,0.3-1.8,0.2-2.5-0.2c-5.1-3.2-11-5.1-17.5-5.1s-12.4,1.9-17.5,5.1c-0.7,0.4-1.5,0.5-2.2,0.2C12,16.3,8.9,11.5,8.4,3.6V3.1
				c0-1.6-2.3-2.1-3.1-0.7c-3,8.3-2.9,19.1-0.7,24.4c1.1,2.6,1.1,5.6,0.2,8.3c-1.2,3.4-1.8,7.2-1.7,11c0.3,17.4,15.1,32.2,32.4,32.4
				c18.3,0.2,33.3-14.6,33.3-32.9c0-3.7-0.6-7.2-1.7-10.5C66.3,32.4,66.4,29.4,67.4,26.8z"/>
		</g>
		<ellipse class="st1" cx="36" cy="45.5" rx="25" ry="25"/>
		<path class="st0" d="M39.9,42.9L34,33.8c-1-1.5-2.9-1.9-4.4-1c-0.9,0.6-1.5,1.6-1.5,2.7c0,0.6,0.2,1.2,0.6,1.7l4,6.2
			c0.3,0.5,0.2,1.1-0.1,1.5l-6.2,6.8c-1.1,1.3-1.1,3.3,0.2,4.5c0.6,0.6,1.4,0.8,2.2,0.8c0.9,0,1.7-0.4,2.3-1.1l4.6-5.4
			c0.3-0.4,1-0.4,1.3,0.1l3.3,4.7c0.2,0.3,0.5,0.7,0.9,1c1.1,0.8,2.5,0.7,3.5,0.1l0,0c0.9-0.6,1.5-1.6,1.5-2.7
			c0-0.6-0.2-1.2-0.5-1.7L39.9,42.9z"/>
	</g>
	<g>
		<path class="st0" d="M96.8,45.6h-3.9c-0.6,0-1.1-0.5-1.1-1.1V32.2c0-0.6-0.5-1.1-1.1-1.1h-3.4c-0.6,0-1.1,0.5-1.1,1.1v31.3
			c0,0.6,0.5,1.1,1.1,1.1h3.4c0.6,0,1.1-0.5,1.1-1.1V51.3c0-0.6,0.5-1.1,1.1-1.1h3.9c0.6,0,1.1,0.5,1.1,1.1v12.2
			c0,0.6,0.5,1.1,1.1,1.1h3.4c0.6,0,1.1-0.5,1.1-1.1V32.2c0-0.6-0.5-1.1-1.1-1.1H99c-0.6,0-1.1,0.5-1.1,1.1v12.3
			C97.9,45.1,97.4,45.6,96.8,45.6z"/>
		<path class="st0" d="M114.2,32l-5.5,31.3c-0.1,0.6,0.4,1.2,1,1.2h3.4c0.5,0,1-0.4,1-0.9l0.9-5.7c0.1-0.5,0.5-0.9,1-0.9h4.3
			c0.5,0,1,0.4,1,0.9l1,5.8c0.1,0.5,0.5,0.9,1,0.9h3.5c0.7,0,1.2-0.6,1-1.3L122,32c-0.1-0.5-0.5-0.9-1-0.9h-5.8
			C114.7,31.1,114.3,31.5,114.2,32z M119.3,52.3h-2.2c-0.7,0-1.1-0.6-1-1.2l1-11.5c0.2-1.2,1.9-1.2,2.1,0l1.1,11.5
			C120.4,51.7,119.9,52.3,119.3,52.3z"/>
		<path class="st0" d="M143,45.2h-3.8c-0.7,0-1.1-0.3-1.1-1.1v-7.2c0-0.7,0.4-1.1,1.1-1.1h2.2c0.7,0,1.1,0.3,1.1,1.1v3.4
			c0,0.6,0.5,1.1,1.1,1.1h3.5c0.6,0,1.1-0.5,1.1-1.1v-4.2c0-3.3-1.8-5-5.3-5h-5.1c-3.5,0-5.3,1.7-5.3,5v8.6c0,3.3,1.8,5.1,5.2,5.1
			h3.8c0.7,0,1.1,0.3,1.1,1.1v8c0,0.7-0.3,1.1-1.1,1.1h-2.2c-0.7,0-1.1-0.3-1.1-1.1v-3.4c0-0.6-0.5-1.1-1.1-1.1h-3.5
			c-0.6,0-1.1,0.5-1.1,1.1v4.2c0,3.3,1.8,5,5.3,5h5c3.5,0,5.3-1.7,5.3-5v-9.4C148.2,46.9,146.4,45.2,143,45.2z"/>
		<path class="st0" d="M164,58.8c0,0.7-0.3,1.1-1.1,1.1h-3c-0.7,0-1.1-0.3-1.1-1.1V32.2c0-0.6-0.5-1.1-1.1-1.1h-3.5
			c-0.6,0-1.1,0.5-1.1,1.1v27.3c0,3.3,1.8,5,5.3,5h5.8c3.5,0,5.3-1.7,5.3-5V32.2c0-0.6-0.5-1.1-1.1-1.1h-3.3c-0.6,0-1.1,0.5-1.1,1.1
			L164,58.8L164,58.8z"/>
		<path class="st0" d="M191.8,46.3V36.1c0-3.3-1.8-5-5.3-5h-10c-0.6,0-1.1,0.5-1.1,1.1v31.3c0,0.6,0.5,1.1,1.1,1.1h3.4
			c0.6,0,1.1-0.5,1.1-1.1v-11c0-0.6,0.5-1.1,1.1-1.1l0,0c0.4,0,0.8,0.3,1,0.7l4.4,11.8c0.2,0.4,0.6,0.7,1,0.7h3.7
			c0.7,0,1.3-0.7,1-1.4L189,52.3c-0.2-0.5,0.1-1.1,0.6-1.4C190.9,50.1,191.8,48.5,191.8,46.3z M186.2,36.9v8.8
			c0,0.7-0.4,1.1-1.1,1.1H182c-0.6,0-1.1-0.5-1.1-1.1v-8.8c0-0.6,0.5-1.1,1.1-1.1h3.1C185.8,35.8,186.2,36.2,186.2,36.9z"/>
		<path class="st0" d="M210.2,31.1h-5.8c-0.5,0-1,0.4-1,0.9l-5.5,31.3c-0.1,0.6,0.4,1.2,1,1.2h3.4c0.5,0,1-0.4,1-0.9l0.9-5.7
			c0.1-0.5,0.5-0.9,1-0.9h4.3c0.5,0,1,0.4,1,0.9l1,5.8c0.1,0.5,0.5,0.9,1,0.9h3.5c0.7,0,1.2-0.6,1-1.3L211.2,32
			C211.1,31.5,210.7,31.1,210.2,31.1z M208.4,52.3h-2.1c-0.7,0-1.1-0.6-1-1.2l1-10.5c0.2-1.2,1.9-1.2,2.1,0l1.1,10.5
			C209.6,51.7,209.1,52.3,208.4,52.3z"/>
	</g>
</g>
</svg>
