<?xml version="1.0" ?><svg height="32px" version="1.1" viewBox="0 0 32 32" width="32px" xmlns="http://www.w3.org/2000/svg" xmlns:sketch="http://www.bohemiancoding.com/sketch/ns" xmlns:xlink="http://www.w3.org/1999/xlink"><title/><desc/><defs/><g fill="none" fill-rule="evenodd" stroke="none" stroke-width="1"><g fill="#929292"><path d="M6,11 L6,26.0012539 C6,26.5613852 6.45106594,27 7.00748397,27 L21,27 L21,22.0059191 C21,20.8865548 21.8944962,20 22.9979131,20 L27,20 L27,11 L6,11 L6,11 L6,11 Z M6,10 L6,6.99874609 C6,6.44715386 6.43861485,6 6.99874609,6 L26.0012539,6 C26.5528461,6 27,6.44994876 27,7.00684547 L27,10 L6,10 L6,10 Z M21.5,28 L7.00010618,28 C5.89547804,28 5,27.0983727 5,25.9991358 L5,7.00086422 C5,5.89581743 5.90162726,5 7.00086422,5 L25.9991358,5 C27.1041826,5 28,5.89451376 28,6.99406028 L28,20.5 L28,21 L22,28 L21.5,28 L21.5,28 L21.5,28 Z M22,26.5 L22,22.0087848 C22,21.4516483 22.4506511,21 22.9967388,21 L26.6999512,21 L22,26.5 L22,26.5 Z M8,14 L8,15 L25,15 L25,14 L8,14 L8,14 Z M8,17 L8,18 L25,18 L25,17 L8,17 L8,17 Z M8,20 L8,21 L19,21 L19,20 L8,20 L8,20 Z M8,23 L8,24 L19,24 L19,23 L8,23 L8,23 Z" /></g></g></svg>