<svg id="Layer_1" xmlns="http://www.w3.org/2000/svg" viewBox="-28.5 11 98 24"><style>.st0{fill:#4d4d4d}.st1{fill:#ffc627}.st2{fill:#232323}</style><title>Asset 1</title><g id="Layer_2"><path class="st0" d="M4 13.7h2.7v7.9H10v-7.9h2.7v18.5H9.9V24H6.7v8.2H4V13.7zm14.2 0h2.2l4.1 18.5h-2.7l-.8-4h-3.6l-.8 4H14l4.2-18.5zm1.1 5.3L18 25.7h2.7L19.3 19zm15.2 0h-2.7v-.6c0-.6-.1-1.1-.4-1.6-.3-.5-.9-.7-1.4-.7-.3 0-.6.1-.9.2-.2.1-.4.3-.5.5-.1.2-.2.5-.3.8-.1.3-.1.6-.1.9v.9c0 .2.1.4.2.6.1.2.3.4.5.5.3.2.5.3.8.4l2 .8c.5.2 1 .5 1.4.8.4.3.7.7.9 1.1.2.4.3.9.4 1.4.1.6.1 1.2.1 1.8 0 .7-.1 1.5-.2 2.2-.1.6-.4 1.2-.8 1.7s-.9.9-1.4 1.1c-.7.3-1.4.4-2.2.4-.6 0-1.2-.1-1.8-.3-1.1-.4-1.9-1.3-2.4-2.3-.2-.5-.4-1.1-.4-1.7v-1H28v.8c0 .5.1.9.4 1.3.4.4.9.6 1.5.6.4 0 .7 0 1.1-.2.2-.1.4-.3.6-.6.1-.3.2-.6.2-.9v-2.3c0-.3-.1-.5-.2-.8-.1-.2-.3-.4-.5-.5-.3-.1-.5-.3-.8-.4l-1.9-.8c-1-.3-1.8-1-2.3-1.8-.4-.9-.6-1.9-.6-2.9 0-.7.1-1.4.3-2 .2-.6.5-1.1.9-1.6s.9-.8 1.4-1.1c.6-.3 1.3-.4 2-.4.6 0 1.2.1 1.8.4.5.2 1 .6 1.4 1 .4.4.7.8.9 1.3.2.5.3 1 .3 1.5V19zm10.7 9.1c0 .6-.1 1.2-.3 1.7-.4 1-1.3 1.9-2.3 2.3-1.1.5-2.3.5-3.3 0-1-.4-1.8-1.3-2.3-2.3-.2-.5-.3-1.1-.3-1.7V13.7h2.7v14.1c0 .5.1 1.1.5 1.5.7.6 1.7.6 2.3 0 .3-.4.5-.9.5-1.5V13.7h2.7l-.2 14.4zm2.6-14.4h4.3c3.1 0 4.7 1.8 4.7 5.4 0 .9-.2 1.9-.5 2.8-.4.8-1 1.5-1.8 1.9l2.9 8.5h-2.8l-2.5-7.9h-1.6v7.9h-2.7V13.7zm2.7 8.3H52c.4 0 .8-.1 1.1-.2.3-.1.5-.3.6-.6.2-.3.3-.6.3-.9.1-.4.1-.8.1-1.2 0-.4 0-.8-.1-1.2 0-.3-.2-.6-.3-.9-.2-.3-.4-.4-.7-.6-.4-.1-.8-.2-1.2-.2h-1.4V22zM62 13.7h2.2l4.1 18.5h-2.6l-.8-4h-3.6l-.8 4h-2.7L62 13.7zm1.1 5.3l-1.3 6.7h2.6L63.1 19z" id="Layer_1-2"/></g><circle class="st1" cx="-16.4" cy="25.2" r="8"/><path class="st2" d="M-13.2 27.6l-3-5.9c-.3-.5-.9-.7-1.4-.5-.5.3-.7.9-.5 1.4l1.3 2.4-2.2 2.2c-.4.4-.4 1.1 0 1.5.2.2.5.3.7.3.3 0 .5-.1.7-.3l1.8-1.8.7 1.5c.2.4.6.6.9.6.2 0 .3 0 .5-.1.6-.1.8-.7.5-1.3"/><path class="st2" d="M-9.2 11.3c-.6.4.4 3.8-2 5.9-1.5-1-3.3-1.6-5.2-1.6-1.9 0-3.7.6-5.2 1.5-2.4-2-1.4-5.5-2-5.9-1-.6-2.8 3-2.6 5.2.1 1.2.4 3 1.3 4.4-.7 1.3-1 2.7-1 4.3 0 5.3 4.3 9.6 9.6 9.6s9.6-4.3 9.6-9.6c0-1.5-.4-3-1-4.3.9-1.4 1.2-3.2 1.3-4.4 0-2.2-1.8-5.7-2.8-5.1m-7.2 21.3c-4.1 0-7.4-3.3-7.4-7.5 0-4.1 3.3-7.4 7.4-7.4 4.1 0 7.5 3.3 7.5 7.4 0 4.2-3.4 7.5-7.5 7.5"/></svg>