<svg xmlns="http://www.w3.org/2000/svg" xmlns:xlink="http://www.w3.org/1999/xlink" version="1.1" id="Capa_1" x="0px" y="0px" width="21px" height="21px" viewBox="0 0 561 561" style="enable-background:new 0 0 561 561;" xml:space="preserve"><g><g id="thumb-down"><path d="M357,25.5H127.5c-20.4,0-38.25,12.75-45.9,30.6L5.1,237.15C2.55,242.25,0,247.35,0,255v48.45l0,0V306    c0,28.05,22.95,51,51,51h160.65l-25.5,117.3c0,2.55,0,5.101,0,7.65c0,10.2,5.1,20.399,10.2,28.05l28.05,25.5l168.3-168.3    c10.2-10.2,15.3-22.95,15.3-35.7v-255C408,48.45,385.05,25.5,357,25.5z M459,25.5v306h102v-306H459z" fill="#787878"/></g></g></svg>