<svg width="25" height="24" viewBox="0 0 25 24" fill="none" xmlns="http://www.w3.org/2000/svg">
<path d="M12.25 4.27747C9.01415 2.29387 5.32682 1.16616 1.535 1.00047C1.46607 0.997531 1.39726 1.0085 1.33266 1.03273C1.26806 1.05695 1.209 1.09393 1.159 1.14147C1.10912 1.18854 1.06931 1.24525 1.04198 1.30816C1.01465 1.37107 1.00037 1.43888 1 1.50747V18.2495C1.00014 18.3814 1.05116 18.5081 1.14245 18.6033C1.23373 18.6985 1.35823 18.7548 1.49 18.7605C3.20858 18.5157 4.95872 18.6159 6.63813 19.0553C8.31753 19.4946 9.89251 20.2644 11.271 21.3195C11.5807 21.4478 11.9182 21.4943 12.251 21.4545" stroke="#5C94C8" stroke-width="1.5" stroke-linecap="round" stroke-linejoin="round"/>
<path d="M12.25 4.27747C15.4859 2.29387 19.1732 1.16616 22.965 1.00047C23.034 0.997531 23.1028 1.0085 23.1674 1.03273C23.232 1.05695 23.291 1.09393 23.341 1.14147C23.3913 1.18889 23.4313 1.24609 23.4586 1.30954C23.486 1.373 23.5001 1.44137 23.5 1.51047V18.2495C23.4999 18.3814 23.4489 18.5081 23.3576 18.6033C23.2663 18.6985 23.1418 18.7548 23.01 18.7605C21.2914 18.5157 19.5413 18.6159 17.8619 19.0553C16.1825 19.4946 14.6075 20.2644 13.229 21.3195C12.9193 21.4478 12.5819 21.4943 12.249 21.4545" stroke="#5C94C8" stroke-width="1.5" stroke-linecap="round" stroke-linejoin="round"/>
<path d="M12.25 4.27734V21.4643" stroke="#5C94C8" stroke-width="1.5" stroke-linecap="round" stroke-linejoin="round"/>
<path d="M2.5 18.6815V21.9075C2.49979 21.9843 2.51686 22.0601 2.54995 22.1293C2.58305 22.1985 2.63131 22.2594 2.69116 22.3075C2.75101 22.3555 2.82091 22.3894 2.89567 22.4068C2.97043 22.4241 3.04813 22.4243 3.123 22.4075C6.12501 21.7816 9.18342 21.4659 12.25 21.4655C15.1363 21.464 18.0141 21.7782 20.832 22.4025C20.9068 22.419 20.9844 22.4184 21.059 22.4009C21.1336 22.3835 21.2033 22.3495 21.2631 22.3015C21.3229 22.2536 21.3711 22.1929 21.4043 22.1238C21.4375 22.0548 21.4548 21.9791 21.455 21.9025V18.6655" stroke="#5C94C8" stroke-width="1.5" stroke-linecap="round" stroke-linejoin="round"/>
</svg>
