<svg width="56" height="54" viewBox="0 0 56 54" fill="none" xmlns="http://www.w3.org/2000/svg">
<mask id="mask0" mask-type="alpha" maskUnits="userSpaceOnUse" x="2" y="1" width="52" height="52">
<path d="M5.63835 10.0666C6.9696 6.06854 10.3833 3.12045 14.5326 2.38549L16.2571 2.08002C24.0252 0.70405 31.9748 0.704051 39.7429 2.08002L41.4674 2.38549C45.6167 3.12045 49.0304 6.06854 50.3617 10.0666C54.0218 21.0589 54.0218 32.9411 50.3617 43.9334C49.0304 47.9315 45.6167 50.8795 41.4674 51.6145L39.7429 51.92C31.9748 53.296 24.0252 53.296 16.2571 51.92L14.5326 51.6145C10.3833 50.8795 6.9696 47.9315 5.63835 43.9334C1.97823 32.9411 1.97823 21.0589 5.63835 10.0666Z" fill="#DEDEDE"/>
</mask>
<g mask="url(#mask0)">
<path d="M59.9928 -2.98608H-3.12354V58.783H59.9928V-2.98608Z" fill="#1B2738"/>
<path d="M-5.39693 42.5976C-5.91903 41.6933 -5.60919 40.537 -4.70487 40.0148L-3.7357 39.4553C-2.83138 38.9332 -1.67503 39.243 -1.15293 40.1473L12.0406 62.9992C12.5627 63.9035 12.2529 65.0599 11.3485 65.582L10.3794 66.1415C9.47505 66.6636 8.31871 66.3538 7.7966 65.4495L-5.39693 42.5976Z" fill="#1EB4D4"/>
<path d="M-25.1499 44.1551C-25.6193 43.342 -25.0473 42.3396 -24.1257 42.3604L-3.81037 42.8189L8.88019 64.7996C9.34963 65.6127 8.77756 66.6151 7.85597 66.5943L-11.7819 66.1511C-12.2018 66.1416 -12.5905 65.9086 -12.8044 65.5381L-25.1499 44.1551Z" fill="#1EB4D4"/>
<path d="M-22.5888 39.8882L-4.00699 40.0761L8.48217 61.708L-10.1038 61.5409L-22.5888 39.8882Z" fill="#F8F8F8"/>
<path d="M-24.0304 42.0927L-22.5793 39.895L-10.2381 61.3061C-10.1545 61.4512 -10.0003 61.5413 -9.8328 61.5428L8.48529 61.7068L7.1174 63.7053C7.02827 63.8355 6.88005 63.9127 6.72226 63.911L-11.2774 63.7176C-11.4445 63.7158 -11.5982 63.626 -11.6817 63.4813L-24.0304 42.0927Z" fill="#E9E9E9"/>
<path d="M10.1 23.8027C9.6314 22.991 8.47776 22.9861 8.03457 23.7939L-1.73503 41.6011L10.9339 63.5443C11.4025 64.356 12.5562 64.3609 12.9994 63.5531L22.4432 46.3397C22.6451 45.9716 22.638 45.5191 22.4245 45.1492L10.1 23.8027Z" fill="#1EB4D4"/>
<path d="M5.12432 23.8891L-4.00384 40.0753L8.48332 61.7095L17.6334 45.5282L5.12432 23.8891Z" fill="#F2F2F2"/>
<path d="M7.75478 23.7424L5.12592 23.9002L17.4979 45.2936C17.5818 45.4385 17.5826 45.6171 17.5002 45.7629L8.48319 61.7088L10.8979 61.5234C11.0552 61.5114 11.1962 61.4216 11.2736 61.2841L20.106 45.5992C20.188 45.4537 20.187 45.2756 20.1035 45.131L7.75478 23.7424Z" fill="#E9E9E9"/>
<path d="M-2.73821 37.8358L-1.60227 35.8277L4.08336 45.203L2.21936 44.4664L2.56702 47.1417L-2.73821 37.8358Z" fill="#F47E7E"/>
<path d="M34.064 19.8151C33.5419 18.9108 33.8517 17.7545 34.7561 17.2324L35.7252 16.6728C36.6296 16.1507 37.7859 16.4606 38.308 17.3649L51.5015 40.2167C52.0236 41.1211 51.7138 42.2774 50.8095 42.7995L49.8403 43.3591C48.936 43.8812 47.7796 43.5713 47.2575 42.667L34.064 19.8151Z" fill="#1EB4D4"/>
<path d="M14.3107 21.3731C13.8412 20.56 14.4133 19.5576 15.3349 19.5784L35.6502 20.0369L48.3408 42.0176C48.8102 42.8307 48.2381 43.8331 47.3165 43.8123L27.6787 43.3691C27.2587 43.3596 26.8701 43.1266 26.6562 42.7561L14.3107 21.3731Z" fill="#1EB4D4"/>
<path d="M16.8722 17.1053L35.454 17.2932L47.9431 38.925L29.3571 38.758L16.8722 17.1053Z" fill="#F8F8F8"/>
<path d="M15.4298 19.3098L16.8809 17.112L29.2221 38.5232C29.3057 38.6683 29.4599 38.7583 29.6274 38.7598L47.9455 38.9238L46.5776 40.9223C46.4885 41.0526 46.3403 41.1297 46.1825 41.128L28.1828 40.9347C28.0158 40.9329 27.8621 40.843 27.7785 40.6984L15.4298 19.3098Z" fill="#E9E9E9"/>
<path d="M49.5605 1.01997C49.0919 0.208271 47.9382 0.203354 47.495 1.01117L37.7254 18.8184L50.3943 40.7616C50.863 41.5733 52.0166 41.5782 52.4598 40.7704L61.9036 23.557C62.1056 23.1889 62.0985 22.7364 61.8849 22.3665L49.5605 1.01997Z" fill="#1EB4D4"/>
<path d="M44.5845 1.10642L35.4564 17.2926L47.9435 38.9268L57.0936 22.7455L44.5845 1.10642Z" fill="#F2F2F2"/>
<path d="M47.215 0.959686L44.5861 1.11748L56.9581 22.5109C57.042 22.6558 57.0428 22.8344 56.9604 22.9802L47.9434 38.9261L50.3581 38.7407C50.5154 38.7287 50.6564 38.6389 50.7338 38.5014L59.5662 22.8165C59.6482 22.671 59.6472 22.4929 59.5637 22.3483L47.215 0.959686Z" fill="#E9E9E9"/>
<path d="M36.7224 15.0533L37.8583 13.0452L43.5439 22.4205L41.6799 21.6839L42.0276 24.3592L36.7224 15.0533Z" fill="#F47E7E"/>
<path d="M-9.50665 -10.1568C-9.97529 -10.9685 -11.1289 -10.9734 -11.5721 -10.1656L-21.3417 7.64163L-8.6728 29.5848C-8.20417 30.3965 -7.05052 30.4015 -6.60734 29.5936L2.83647 12.3802C3.03843 12.0121 3.03132 11.5596 2.81777 11.1897L-9.50665 -10.1568Z" fill="#1EB4D4"/>
<path d="M-11.8519 -10.2173L-14.4808 -10.0595L-2.10876 11.3338C-2.02492 11.4788 -2.02405 11.6574 -2.10649 11.8031L-11.1235 27.7491L-8.70878 27.5637C-8.55145 27.5516 -8.41052 27.4619 -8.33309 27.3244L0.499302 11.6395C0.581273 11.494 0.580316 11.3159 0.496786 11.1713L-11.8519 -10.2173Z" fill="#E9E9E9"/>
<path d="M14.4556 -14.1433C13.9335 -15.0477 14.2433 -16.204 15.1477 -16.7261L16.1168 -17.2857C17.0212 -17.8078 18.1775 -17.4979 18.6996 -16.5936L31.8931 6.25824C32.4152 7.16256 32.1054 8.31891 31.2011 8.84102L30.2319 9.40057C29.3276 9.92268 28.1712 9.61284 27.6491 8.70852L14.4556 -14.1433Z" fill="#1EB4D4"/>
<path d="M-5.29724 -12.5857C-5.76668 -13.3987 -5.19461 -14.4011 -4.27302 -14.3803L16.0423 -13.9219L28.7329 8.05886C29.2023 8.87194 28.6302 9.87435 27.7086 9.85355L8.07078 9.41034C7.65082 9.40086 7.26216 9.16787 7.04824 8.79735L-5.29724 -12.5857Z" fill="#1EB4D4"/>
<path d="M-2.7361 -16.853L15.8457 -16.6651L28.3348 4.96676L9.74885 4.79974L-2.7361 -16.853Z" fill="#F8F8F8"/>
<path d="M-4.17783 -14.6487L-2.72675 -16.8465L9.61444 4.56468C9.69808 4.70979 9.85226 4.7998 10.0197 4.8013L28.3378 4.96532L26.9699 6.96385C26.8808 7.09406 26.7326 7.17121 26.5748 7.16952L8.57513 6.97617C8.40808 6.97438 8.25439 6.88454 8.17086 6.73986L-4.17783 -14.6487Z" fill="#E9E9E9"/>
<path d="M29.9526 -32.9383C29.4839 -33.75 28.3303 -33.7549 27.8871 -32.9471L18.1175 -15.1399L30.7864 6.80335C31.2551 7.61505 32.4087 7.61997 32.8519 6.81215L42.2957 -10.4012C42.4977 -10.7694 42.4905 -11.2219 42.277 -11.5918L29.9526 -32.9383Z" fill="#1EB4D4"/>
<path d="M24.9767 -32.8518L15.8486 -16.6656L28.3357 4.96852L37.4858 -11.2128L24.9767 -32.8518Z" fill="#F2F2F2"/>
<path d="M27.6071 -32.9991L24.9782 -32.8413L37.3502 -11.4479C37.4341 -11.3029 37.4349 -11.1244 37.3525 -10.9786L28.3355 4.96735L30.7502 4.78199C30.9075 4.76991 31.0485 4.68012 31.1259 4.54262L39.9583 -11.1422C40.0403 -11.2878 40.0393 -11.4658 39.9558 -11.6105L27.6071 -32.9991Z" fill="#E9E9E9"/>
</g>
</svg>
