<svg width="66" height="66" xmlns="http://www.w3.org/2000/svg"><g fill="none" fill-rule="evenodd"><path d="M0 33C0 14.775 14.775 0 33 0s33 14.775 33 33-14.775 33-33 33S0 51.225 0 33z" fill="#55ACEE"/><path d="M32.536 26.74l.07 1.157-1.16-.142c-4.223-.543-7.911-2.386-11.043-5.48l-1.531-1.535-.395 1.134c-.835 2.527-.301 5.196 1.439 6.991.928.992.719 1.134-.882.543-.557-.189-1.044-.33-1.09-.26-.163.166.394 2.315.835 3.165.603 1.181 1.833 2.339 3.178 3.023l1.137.544-1.346.023c-1.299 0-1.345.024-1.206.52.464 1.535 2.297 3.165 4.338 3.873l1.439.496-1.253.756a12.98 12.98 0 01-6.218 1.748c-1.044.024-1.902.118-1.902.189 0 .236 2.83 1.559 4.478 2.078 4.941 1.535 10.81.874 15.219-1.748 3.132-1.865 6.264-5.573 7.725-9.163.789-1.914 1.578-5.41 1.578-7.086 0-1.086.07-1.228 1.369-2.527.765-.756 1.484-1.583 1.624-1.819.232-.449.208-.449-.975-.047-1.972.709-2.25.614-1.276-.449.72-.756 1.578-2.125 1.578-2.527 0-.07-.348.047-.743.26-.417.236-1.345.59-2.041.803l-1.253.401-1.137-.779c-.626-.425-1.508-.898-1.972-1.04-1.183-.33-2.993-.283-4.06.095-2.9 1.063-4.733 3.803-4.524 6.802z" fill="#FFF"/></g></svg>