<svg width="21" height="18" viewBox="0 0 21 18" fill="none" xmlns="http://www.w3.org/2000/svg">
<path d="M20.92 2.03906C20.15 2.38906 19.32 2.61906 18.46 2.72906C19.34 2.19906 20.02 1.35906 20.34 0.349062C19.51 0.849062 18.59 1.19906 17.62 1.39906C16.83 0.539063 15.72 0.0390625 14.46 0.0390625C12.11 0.0390625 10.19 1.95906 10.19 4.32906C10.19 4.66906 10.23 4.99906 10.3 5.30906C6.74 5.12906 3.57 3.41906 1.46 0.829062C1.09 1.45906 0.88 2.19906 0.88 2.97906C0.88 4.46906 1.63 5.78906 2.79 6.53906C2.08 6.53906 1.42 6.33906 0.84 6.03906C0.84 6.03906 0.84 6.03906 0.84 6.06906C0.84 8.14906 2.32 9.88906 4.28 10.2791C3.92 10.3791 3.54 10.4291 3.15 10.4291C2.88 10.4291 2.61 10.3991 2.35 10.3491C2.89 12.0391 4.46 13.2991 6.35 13.3291C4.89 14.4891 3.04 15.1691 1.02 15.1691C0.68 15.1691 0.34 15.1491 0 15.1091C1.9 16.3291 4.16 17.0391 6.58 17.0391C14.46 17.0391 18.79 10.4991 18.79 4.82906C18.79 4.63906 18.79 4.45906 18.78 4.26906C19.62 3.66906 20.34 2.90906 20.92 2.03906Z" fill="#717780"/>
</svg>
