<svg xmlns="http://www.w3.org/2000/svg" width="25.952" height="21.078" viewBox="0 0 25.952 21.078">
    <defs>
        <style>
            .cls-1{fill:#fff}
        </style>
    </defs>
    <path id="twitter-brands" d="M23.284 53.335c.016.231.016.461.016.692A15.029 15.029 0 0 1 8.168 69.16 15.03 15.03 0 0 1 0 66.772a11 11 0 0 0 1.284.066 10.652 10.652 0 0 0 6.6-2.272 5.328 5.328 0 0 1-4.973-3.689 6.706 6.706 0 0 0 1 .082 5.625 5.625 0 0 0 1.4-.181 5.32 5.32 0 0 1-4.265-5.22v-.066a5.357 5.357 0 0 0 2.4.675 5.327 5.327 0 0 1-1.647-7.114 15.119 15.119 0 0 0 10.967 5.566 6 6 0 0 1-.132-1.219 5.324 5.324 0 0 1 9.205-3.639 10.472 10.472 0 0 0 3.376-1.284 5.3 5.3 0 0 1-2.338 2.931 10.663 10.663 0 0 0 3.063-.823 11.433 11.433 0 0 1-2.668 2.75z" class="cls-1" transform="translate(0 -48.082)"/>
</svg>
