<svg xmlns="http://www.w3.org/2000/svg" width="12.517" height="10.166" viewBox="0 0 12.517 10.166">
    <defs>
        <style>
            .cls-1{fill:#24292e}
        </style>
    </defs>
    <path id="twitter-brands" d="M11.23 50.616c.008.111.008.222.008.334a7.249 7.249 0 0 1-7.3 7.3A7.249 7.249 0 0 1 0 57.1a5.307 5.307 0 0 0 .619.032 5.138 5.138 0 0 0 3.185-1.1 2.57 2.57 0 0 1-2.4-1.779 3.235 3.235 0 0 0 .484.04 2.713 2.713 0 0 0 .675-.087 2.566 2.566 0 0 1-2.055-2.518v-.032a2.584 2.584 0 0 0 1.16.326 2.569 2.569 0 0 1-.794-3.431 7.292 7.292 0 0 0 5.29 2.684 2.9 2.9 0 0 1-.064-.588 2.568 2.568 0 0 1 4.44-1.755 5.051 5.051 0 0 0 1.628-.619 2.558 2.558 0 0 1-1.128 1.414 5.143 5.143 0 0 0 1.477-.4 5.515 5.515 0 0 1-1.287 1.326z" class="cls-1" transform="translate(0 -48.082)"/>
</svg>
