<svg xmlns="http://www.w3.org/2000/svg" width="12.517" height="10.166"><path d="M11.23 2.534c.008.111.008.222.008.334a7.249 7.249 0 01-7.3 7.3A7.249 7.249 0 010 9.018a5.307 5.307 0 00.619.032 5.138 5.138 0 003.185-1.1 2.57 2.57 0 01-2.4-1.779 3.235 3.235 0 00.484.04 2.713 2.713 0 00.675-.087A2.566 2.566 0 01.508 3.606v-.032a2.584 2.584 0 001.16.326A2.569 2.569 0 01.874.469a7.292 7.292 0 005.29 2.684 2.9 2.9 0 01-.064-.588A2.568 2.568 0 0110.54.81a5.051 5.051 0 001.628-.619 2.558 2.558 0 01-1.128 1.414 5.143 5.143 0 001.477-.4 5.515 5.515 0 01-1.287 1.326z" fill="#24292e"/></svg>