<svg width="25" height="24" viewBox="0 0 25 24" fill="none" xmlns="http://www.w3.org/2000/svg">
<path d="M5.61383 17.6033C3.87749 16.0226 2.78472 13.8573 2.54449 11.5216C2.30426 9.1858 2.93343 6.84345 4.31167 4.94242C5.68992 3.04138 7.72054 1.71508 10.0152 1.21712C12.3099 0.719169 14.7076 1.08451 16.7498 2.24328" stroke="#5C94C8" stroke-width="1.5" stroke-linecap="round" stroke-linejoin="round"/>
<path d="M2.26594 17.5352C1.05294 19.6602 0.646939 21.3092 1.33194 21.9952C2.37194 23.0342 5.62594 21.5652 9.39394 18.5772" stroke="#5C94C8" stroke-width="1.5" stroke-linecap="round" stroke-linejoin="round"/>
<path d="M13.707 17.8223L10.127 14.2423L18.084 6.28529C18.733 5.63656 19.5464 5.17679 20.437 4.95529L22.484 4.44129C22.6253 4.40609 22.7733 4.40805 22.9136 4.44698C23.0539 4.48591 23.1818 4.56049 23.2848 4.66346C23.3878 4.76644 23.4623 4.89431 23.5013 5.03464C23.5402 5.17497 23.5422 5.32298 23.507 5.46429L22.995 7.51229C22.7725 8.40259 22.3121 9.21561 21.663 9.86429L13.707 17.8223Z" stroke="#5C94C8" stroke-width="1.5" stroke-linecap="round" stroke-linejoin="round"/>
<path d="M10.1271 14.2422L7.19505 13.2652C7.12657 13.2425 7.06503 13.2027 7.01631 13.1495C6.96759 13.0963 6.93332 13.0315 6.91677 12.9613C6.90023 12.8911 6.90195 12.8178 6.92178 12.7485C6.94161 12.6791 6.97889 12.616 7.03005 12.5652L8.05205 11.5432C8.49633 11.099 9.05554 10.7872 9.66701 10.6429C10.2785 10.4986 10.918 10.5275 11.5141 10.7262L13.1141 11.2582L10.1271 14.2422Z" stroke="#5C94C8" stroke-width="1.5" stroke-linecap="round" stroke-linejoin="round"/>
<path d="M13.707 17.8222L14.684 20.7552C14.7067 20.8237 14.7465 20.8852 14.7997 20.9339C14.8529 20.9826 14.9177 21.0169 14.9879 21.0335C15.0581 21.05 15.1314 21.0483 15.2007 21.0285C15.2701 21.0086 15.3332 20.9713 15.384 20.9202L16.406 19.8982C16.8502 19.4539 17.162 18.8947 17.3063 18.2832C17.4506 17.6718 17.4217 17.0322 17.223 16.4362L16.691 14.8362L13.707 17.8222Z" stroke="#5C94C8" stroke-width="1.5" stroke-linecap="round" stroke-linejoin="round"/>
</svg>
