<svg enable-background="new 0 0 270 80" viewBox="0 0 270 80" xmlns="http://www.w3.org/2000/svg"><g fill="#fff"><path d="m110 45.5h-5.1c-.8 0-1.4-.7-1.4-1.4v-16.1c0-.8-.7-1.4-1.4-1.4h-4.4c-.8 0-1.4.7-1.4 1.4v40.7c0 .8.7 1.4 1.4 1.4h4.4c.8 0 1.4-.7 1.4-1.4v-15.8c0-.8.7-1.4 1.4-1.4h5.1c.8 0 1.4.7 1.4 1.4v15.9c0 .8.7 1.4 1.4 1.4h4.4c.8 0 1.4-.7 1.4-1.4v-40.8c0-.8-.7-1.4-1.4-1.4h-4.4c-.8 0-1.4.7-1.4 1.4v16c0 .8-.6 1.5-1.4 1.5z"/><path d="m132.6 27.8-7.2 40.7c-.1.8.5 1.6 1.3 1.6h4.4c.7 0 1.3-.5 1.3-1.2l1.2-7.4c.1-.7.7-1.2 1.3-1.2h5.6c.7 0 1.3.5 1.3 1.2l1.3 7.5c.1.7.7 1.2 1.3 1.2h4.6c.9 0 1.6-.8 1.3-1.7l-7.5-40.7c-.1-.7-.7-1.2-1.3-1.2h-7.5c-.7 0-1.2.5-1.4 1.2zm6.7 26.4h-2.9c-.9 0-1.4-.8-1.3-1.6l1.3-15c.3-1.6 2.5-1.6 2.7 0l1.4 15c.2.8-.4 1.6-1.2 1.6z"/><path d="m170.1 44.9h-4.9c-.9 0-1.4-.4-1.4-1.4v-9.4c0-.9.5-1.4 1.4-1.4h2.9c.9 0 1.4.4 1.4 1.4v4.4c0 .8.7 1.4 1.4 1.4h4.6c.8 0 1.4-.7 1.4-1.4v-5.5c0-4.3-2.3-6.5-6.9-6.5h-6.6c-4.6 0-6.9 2.2-6.9 6.5v11.2c0 4.3 2.3 6.6 6.8 6.6h4.9c.9 0 1.4.4 1.4 1.4v10.4c0 .9-.4 1.4-1.4 1.4h-2.9c-.9 0-1.4-.4-1.4-1.4v-4.4c0-.8-.7-1.4-1.4-1.4h-4.6c-.8 0-1.4.7-1.4 1.4v5.5c0 4.3 2.3 6.5 6.9 6.5h6.5c4.6 0 6.9-2.2 6.9-6.5v-12.1c.1-4.5-2.3-6.7-6.7-6.7z"/><path d="m197.4 62.6c0 .9-.4 1.4-1.4 1.4h-3.9c-.9 0-1.4-.4-1.4-1.4v-34.6c0-.8-.7-1.4-1.4-1.4h-4.6c-.8 0-1.4.7-1.4 1.4v35.5c0 4.3 2.3 6.5 6.9 6.5h7.5c4.6 0 6.9-2.2 6.9-6.5v-35.5c0-.8-.7-1.4-1.4-1.4h-4.3c-.8 0-1.4.7-1.4 1.4z"/><path d="m233.6 46.4v-13.3c0-4.3-2.3-6.5-6.9-6.5h-13c-.8 0-1.4.7-1.4 1.4v40.7c0 .8.7 1.4 1.4 1.4h4.4c.8 0 1.4-.7 1.4-1.4v-14.3c0-.8.7-1.4 1.4-1.4.5 0 1 .4 1.3.9l5.7 15.3c.3.5.8.9 1.3.9h4.8c.9 0 1.7-.9 1.3-1.8l-5.5-14.2c-.3-.7.1-1.4.8-1.8 1.8-1 3-3.1 3-5.9zm-7.3-12.3v11.4c0 .9-.5 1.4-1.4 1.4h-4c-.8 0-1.4-.7-1.4-1.4v-11.4c0-.8.7-1.4 1.4-1.4h4c.9 0 1.4.5 1.4 1.4z"/><path d="m257.5 26.6h-7.5c-.7 0-1.3.5-1.3 1.2l-7.2 40.7c-.1.8.5 1.6 1.3 1.6h4.4c.7 0 1.3-.5 1.3-1.2l1.2-7.4c.1-.7.7-1.2 1.3-1.2h5.6c.7 0 1.3.5 1.3 1.2l1.3 7.5c.1.7.7 1.2 1.3 1.2h4.6c.9 0 1.6-.8 1.3-1.7l-7.5-40.7c-.2-.7-.7-1.2-1.4-1.2zm-2.3 27.6h-2.7c-.9 0-1.4-.8-1.3-1.6l1.3-13.7c.3-1.6 2.5-1.6 2.7 0l1.4 13.7c.1.8-.5 1.6-1.4 1.6z"/><path d="m68.2 26.8c2.2-5.3 2.2-16.1-.7-24.4-.8-1.5-3-1-3.1.6v.6c-.5 7.9-3.4 12.2-7.7 14.3-.7.3-1.8.3-2.5-.2-5.1-3.2-11.1-5.1-17.6-5.1s-12.5 1.9-17.6 5.1c-.7.4-1.5.5-2.2.2-4.4-1.6-7.4-6.4-7.9-14.4v-.6c-.1-1.6-2.4-2.1-3.1-.6-2.9 8.4-2.8 19.2-.7 24.5 1.1 2.6 1.1 5.6.2 8.3-1.2 3.4-1.8 7.2-1.7 11 .4 17.4 15.2 32.2 32.6 32.5 18.4.2 33.4-14.6 33.4-33 0-3.7-.6-7.2-1.7-10.5-.9-2.7-.8-5.7.3-8.3zm-32 43.9c-13.4-.3-24.4-11.2-24.6-24.6-.3-14.3 11.3-25.9 25.5-25.6 13.4.2 24.4 11.2 24.6 24.6.3 14.2-11.3 25.8-25.5 25.6z"/><path d="m40.5 42.9-5.9-9.1c-.9-1.5-2.9-1.9-4.4-1-.9.6-1.5 1.6-1.5 2.7 0 .6.2 1.2.5 1.7l4 6.2c.3.5.2 1.1-.1 1.5l-6.2 6.8c-1.2 1.3-1.1 3.3.2 4.5.6.5 1.4.8 2.2.8.9 0 1.7-.4 2.3-1l4.6-5.4c.4-.4 1-.4 1.3.1l3.3 4.7c.2.4.5.7.9.9 1.1.8 2.5.8 3.6.1.9-.6 1.5-1.6 1.5-2.7 0-.6-.2-1.2-.5-1.7z"/></g></svg>