<svg xmlns="http://www.w3.org/2000/svg" width="25.711" height="18.078" viewBox="0 0 25.711 18.078">
    <defs>
        <style>
            .cls-1{fill:#fff}
        </style>
    </defs>
    <path id="youtube-brands" d="M40.106 66.829a3.231 3.231 0 0 0-2.273-2.288C35.828 64 27.788 64 27.788 64s-8.04 0-10.045.541a3.231 3.231 0 0 0-2.273 2.288 36.374 36.374 0 0 0 0 12.457 3.182 3.182 0 0 0 2.273 2.251c2.005.541 10.045.541 10.045.541s8.04 0 10.045-.541a3.182 3.182 0 0 0 2.273-2.251 36.374 36.374 0 0 0 0-12.457zM25.159 76.88v-7.646l6.72 3.823z" class="cls-1" transform="translate(-14.933 -64)"/>
</svg>
