<svg width="19" height="18" viewBox="0 0 19 18" fill="none" xmlns="http://www.w3.org/2000/svg">
<g clip-path="url(#clip0_41_33459)">
<path d="M9.93371 9.8153C9.19572 10.5533 9.19572 11.7499 9.93371 12.4879C10.6717 13.2259 11.8683 13.2259 12.6063 12.4879C13.3443 11.7499 13.3443 10.5533 12.6063 9.8153C11.8683 9.07731 10.6717 9.07731 9.93371 9.8153ZM11.9316 11.8149C11.5661 12.1804 10.9739 12.1804 10.6084 11.8149C10.243 11.4494 10.243 10.8573 10.6084 10.4918C10.9739 10.1263 11.5661 10.1263 11.9316 10.4918C12.297 10.8555 12.297 11.4494 11.9316 11.8149ZM12.5747 0.51659L11.4167 1.67454C11.1901 1.90121 11.1901 2.27372 11.4167 2.50039L15.9378 7.02147C16.1645 7.24814 16.537 7.24814 16.7637 7.02147L17.9216 5.86352C18.1483 5.63686 18.1483 5.26434 17.9216 5.03768L13.3988 0.51659C13.1721 0.289921 12.8013 0.289921 12.5747 0.51659ZM4.46202 15.3133C4.66761 15.1078 4.66761 14.7722 4.46202 14.5666L3.87338 13.9779C3.6678 13.7723 3.33219 13.7723 3.12661 13.9779L1.91067 15.1939L1.90892 15.1956L1.57506 14.8618C1.39057 14.6773 1.0901 14.6773 0.907356 14.8618C0.722857 15.0463 0.722857 15.3467 0.907356 15.5295L2.91048 17.5326C3.09498 17.7171 3.39545 17.7171 3.57819 17.5326C3.76093 17.3481 3.76269 17.0476 3.57819 16.8649L3.24433 16.531L3.24609 16.5293L4.46202 15.3133Z" fill="#F5A800"/>
<path d="M10.5874 3.84108L8.01495 6.41351C7.78652 6.64194 7.78652 7.01796 8.01495 7.24639L9.60339 8.83483C10.7262 8.02655 12.3006 8.12671 13.3109 9.13706L14.5971 7.85084C14.8256 7.62241 14.8256 7.24639 14.5971 7.01796L11.4203 3.84108C11.1918 3.6109 10.8158 3.6109 10.5874 3.84108ZM8.93568 9.5043L7.99738 8.56599C7.77774 8.34635 7.41753 8.34635 7.19789 8.56599L3.88922 11.8764C3.66958 12.0961 3.66958 12.4563 3.88922 12.6759L5.76407 14.5508C5.98371 14.7704 6.34392 14.7704 6.56356 14.5508L8.69144 12.4194C8.24162 11.4898 8.32245 10.367 8.93568 9.5043Z" fill="#425CC7"/>
</g>
<defs>
<clipPath id="clip0_41_33459">
<rect width="18" height="18" fill="white" transform="translate(0.420654)"/>
</clipPath>
</defs>
</svg>
