<svg width="94" height="12" viewBox="0 0 94 12" fill="none" xmlns="http://www.w3.org/2000/svg">
<path d="M3.4141 5.21895C3.37969 5.17507 3.33434 5.14055 3.28241 5.11882C3.23048 5.09708 3.17371 5.08884 3.11759 5.09484C3.06145 5.10083 3.00784 5.12092 2.9619 5.15307C2.91597 5.18529 2.87926 5.22857 2.85531 5.27876L0.0299805 10.8198C0.0069589 10.8706 -0.00305503 10.9262 0.000809407 10.9817C0.00467384 11.0372 0.0222996 11.0909 0.0521544 11.1382C0.0820089 11.1855 0.123189 11.225 0.172114 11.2531C0.221038 11.2812 0.276227 11.2972 0.33288 11.2996H4.2671C4.32992 11.3009 4.39178 11.2844 4.44522 11.2519C4.49866 11.2195 4.54139 11.1726 4.56826 11.117C5.41777 9.39566 4.90249 6.78312 3.4141 5.21895Z" fill="url(#paint0_linear_322_14601)"/>
<path d="M5.4857 0.178197C4.78186 1.24092 4.37168 2.46478 4.29539 3.72987C4.21909 4.9949 4.4793 6.25775 5.0505 7.39439L6.94797 11.117C6.97617 11.172 7.0194 11.2183 7.07295 11.2505C7.12644 11.2828 7.18807 11.2998 7.25089 11.2996H11.1833C11.2411 11.2998 11.2979 11.2855 11.3483 11.258C11.3987 11.2306 11.4412 11.1909 11.4716 11.1428C11.5019 11.0946 11.5192 11.0397 11.5218 10.9832C11.5244 10.9266 11.5121 10.8704 11.4863 10.8198C11.4863 10.8198 6.19421 0.436037 6.06017 0.176483C6.03404 0.123453 5.99315 0.0787885 5.94223 0.047563C5.89131 0.0163375 5.83244 -0.000130969 5.77239 7.84396e-07C5.71234 0.000198414 5.65356 0.0169969 5.60284 0.0485519C5.55211 0.0801068 5.51151 0.125035 5.4857 0.178197Z" fill="#7B869A"/>
<path d="M85.7298 2.00364V11.2997H87.7495V4.21156L88.6001 6.09326L91.4552 11.2997H93.9951V2.00364H91.9761V8.00408L91.2096 6.26237L88.9172 2.00364H85.7298Z" fill="#7B869A"/>
<path d="M72.8862 2.00364H70.6785V11.2997H72.8862V2.00364Z" fill="#7B869A"/>
<path d="M68.1405 8.55573C68.1405 6.92838 67.2594 6.16513 64.779 5.64089C63.409 5.34378 63.0783 5.04661 63.0783 4.61631C63.0783 4.07842 63.5674 3.85306 64.4709 3.85306C65.5676 3.85306 66.6484 4.1775 67.6738 4.63001V2.49897C66.6908 2.06029 65.6204 1.8427 64.5406 1.862C62.0878 1.862 60.8187 2.9105 60.8187 4.62145C60.8187 5.98753 61.468 7.08378 64.0061 7.56534C65.5206 7.87608 65.8374 8.11686 65.8374 8.61206C65.8374 9.10725 65.5206 9.40436 64.4535 9.40436C63.1641 9.38123 61.9004 9.04572 60.7752 8.42767V10.6629C61.5394 11.0317 62.549 11.4415 64.4309 11.4415C67.0853 11.4415 68.1385 10.2821 68.1385 8.55573" fill="#7B869A"/>
<path d="M58.9439 8.55573C58.9439 6.92845 58.0648 6.16513 55.5841 5.64095C54.2141 5.34378 53.8816 5.04668 53.8816 4.61637C53.8816 4.07849 54.3725 3.85313 55.2742 3.85313C56.371 3.85313 57.452 4.17757 58.4756 4.63008V2.49897C57.4926 2.05996 56.422 1.84237 55.3422 1.86207C52.8911 1.86207 51.6221 2.9105 51.6221 4.62151C51.6221 5.9876 52.2696 7.08385 54.8095 7.56534C56.324 7.87615 56.6408 8.11693 56.6408 8.61212C56.6408 9.10732 56.324 9.40442 55.2568 9.40442C53.9674 9.3813 52.7038 9.04572 51.5785 8.42767V10.6629C52.3428 11.0317 53.3524 11.4415 55.2342 11.4415C57.889 11.4415 58.9404 10.2821 58.9404 8.55573" fill="#7B869A"/>
<path d="M34.489 2.00364V11.2997H39.0256L39.7393 9.29157H36.7103V2.00364H34.489Z" fill="#7B869A"/>
<path d="M25.5276 2.00364V4.01347H27.9787V11.2997H30.1999V4.01347H32.8251V2.00364H25.5276Z" fill="#7B869A"/>
<path d="M22.3053 2.00173H19.3981L16.0907 11.2994H18.6148L19.0831 9.73361C20.2367 10.0662 21.4634 10.0662 22.6169 9.73361L23.0852 11.2994H25.6094L22.3053 2.00173ZM20.85 8.05678C20.4376 8.05724 20.0272 7.9998 19.6314 7.88603L20.85 3.8271L22.0685 7.88603C21.6729 8.00059 21.2625 8.05869 20.85 8.0585V8.05678Z" fill="#7B869A"/>
<path d="M46.8435 2.00173H43.9329L40.6254 11.2978H43.1496L43.6178 9.73189C44.7714 10.0644 45.9981 10.0644 47.1516 9.73189L47.6199 11.2978H50.1441L46.8435 2.00173ZM45.3882 8.0585C44.9758 8.05896 44.5654 8.00145 44.1697 7.88774L45.3882 3.82882L46.6068 7.88774C46.211 8.00145 45.8006 8.05896 45.3882 8.0585Z" fill="#7B869A"/>
<path d="M80.8385 2.00173H77.9258L74.6186 11.2978H77.1427L77.6107 9.73189C78.7645 10.0648 79.9925 10.0648 81.1463 9.73189L81.6143 11.2978H84.1384L80.8385 2.00173ZM79.3828 8.05678C78.9704 8.05751 78.56 8 78.1641 7.88603L79.3828 3.8271L80.6015 7.88603C80.2056 8.00059 79.7952 8.05869 79.3828 8.0585V8.05678Z" fill="#7B869A"/>
<defs>
<linearGradient id="paint0_linear_322_14601" x1="93.696" y1="1.80939" x2="93.0097" y2="14.2238" gradientUnits="userSpaceOnUse">
<stop stop-color="#364765"/>
<stop offset="0.92" stop-color="#7B869A"/>
</linearGradient>
</defs>
</svg>
