<svg width="74" height="14" viewBox="0 0 74 14" fill="none" xmlns="http://www.w3.org/2000/svg">
<path d="M34.109 4.70992C34.109 2.19408 32.4685 0.281899 29.0877 0.281899H22.2858V13.5055H25.4867V3.13981H29.1076C30.4481 3.13981 30.9279 3.9049 30.9279 4.79033C30.9279 5.69613 30.4279 6.44091 29.0874 6.44091H25.9866L30.3878 13.5055H34.0289C34.0289 13.5055 31.0279 8.7554 31.0481 8.7554C32.9088 8.31275 34.109 7.00444 34.109 4.70992Z" fill="#888F99"/>
<path d="M20.1252 0.281899H16.9243V13.5057H20.1252V0.281899Z" fill="#888F99"/>
<path d="M6.70184 0.281899L0 13.5055H3.60085L4.68645 11.2916H10.0825L8.74229 8.5139H6.04859L8.04192 4.44833H8.08215L12.5632 13.5055H16.2443L9.54243 0.281899H6.70184Z" fill="#888F99"/>
<path d="M45.7929 6.64227C46.8133 6.07847 47.3535 5.17287 47.3535 3.84446C47.3535 1.71096 45.773 0.281899 43.1123 0.281899H35.6299V13.5055H43.4124C46.133 13.5055 47.9136 12.0361 47.9136 9.80204C47.9134 8.25251 47.0534 7.08505 45.7929 6.64227ZM38.8312 3.07951H43.1123C43.7526 3.07951 44.2527 3.58259 44.2527 4.24697C44.2527 4.91128 43.7526 5.41436 43.0922 5.41436H38.831L38.8312 3.07951ZM43.1921 10.7278H38.831V8.03078H43.1921C43.9724 8.03078 44.5726 8.59451 44.5726 9.35926C44.5728 10.1441 43.9724 10.7278 43.1921 10.7278Z" fill="#888F99"/>
<path d="M58.0161 7.66861C58.0161 9.67575 57.0957 10.7883 55.2754 10.7883C53.475 10.7883 52.5547 9.67575 52.5547 7.66861V0.281899H49.274V7.42712C49.274 11.5131 51.4146 13.7875 55.2754 13.7875C59.1364 13.7875 61.297 11.5131 61.297 7.42712V0.281899H58.0161V7.66861Z" fill="#888F99"/>
<path d="M69.8392 5.53518C66.8003 4.7908 66.1382 4.71967 66.1382 3.84432C66.1382 3.16709 66.8983 2.83795 68.1789 2.83795C69.8789 2.83795 71.6899 3.26712 72.7198 3.90476L73.7403 1.20773C72.4198 0.503291 70.4789 0 68.2186 0C64.8376 0 62.937 1.69085 62.937 3.96507C62.937 6.41221 64.3567 7.40648 67.6185 8.11126C70.1574 8.67445 70.6989 9.02586 70.6989 9.74147C70.6989 10.5189 69.9986 10.8688 68.6189 10.8688C66.618 10.8688 64.8074 10.3799 63.3571 9.58065L62.3769 12.3984C63.9573 13.2437 66.3179 13.7873 68.6982 13.7873C72.0195 13.7873 74 12.2373 74 9.64089C74 7.55782 72.6606 6.21966 69.8392 5.53518Z" fill="#888F99"/>
</svg>
