<svg width="19" height="18" viewBox="0 0 19 18" fill="none" xmlns="http://www.w3.org/2000/svg">
<path d="M9.34401 0.105316C4.4598 0.105316 0.5 4.11095 0.5 9.05242C0.5 13.9937 4.4598 17.9997 9.34401 17.9997C14.2282 17.9997 18.1879 13.9937 18.1879 9.05242C18.1879 4.11095 14.2281 0.105316 9.34401 0.105316ZM9.34401 16.8508C7.95436 16.8508 6.82769 15.9117 6.82769 14.7535H11.8603C11.8603 15.9115 10.7337 16.8508 9.34401 16.8508ZM13.5001 14.0589H5.1874V12.534H13.5003V14.0589H13.5001ZM13.4703 11.7491H5.21112C5.18365 11.7171 5.15556 11.6855 5.12903 11.6529C4.27814 10.6077 4.07774 10.062 3.88313 9.50589C3.87985 9.48758 4.9149 9.71984 5.6489 9.8869C5.6489 9.8869 6.02659 9.97532 6.57876 10.0772C6.04859 9.44842 5.7338 8.64916 5.7338 7.83221C5.7338 6.03868 7.09348 4.47142 6.60295 3.20463C7.08037 3.24395 7.59103 4.224 7.62552 5.75637C8.13306 5.04679 8.34547 3.75095 8.34547 2.95642C8.34547 2.13379 8.88126 1.17821 9.4172 1.14553C8.93948 1.94211 9.54097 2.625 10.0757 4.31905C10.2762 4.95537 10.2506 6.02621 10.4054 6.70532C10.4568 5.29484 10.6965 3.23684 11.581 2.52632C11.1908 3.42111 11.6387 4.54074 11.9451 5.079C12.4393 5.94742 12.739 6.60537 12.739 7.84974C12.739 8.68405 12.4345 9.46958 11.9209 10.0836C12.5049 9.97279 12.9082 9.87284 12.9082 9.87284L14.8047 9.49847C14.8049 9.49832 14.5293 10.6449 13.4703 11.7491Z" fill="#E6522C"/>
</svg>
