<svg width="60" height="18" viewBox="0 0 60 18" fill="none" xmlns="http://www.w3.org/2000/svg">
<path d="M51.3111 0H51.5106C51.748 0.141426 51.8381 0.407216 51.9689 0.627382C53.7699 3.7922 55.5736 6.95564 57.3768 10.1196C58.2483 11.661 59.1376 13.1942 60.0001 14.7397V14.7698C59.9488 14.8569 59.9078 14.9938 59.7753 14.9816C58.8993 14.9842 58.022 14.9859 57.1465 14.9808C56.9364 14.9887 56.8797 14.7736 56.8003 14.6351C56.641 14.3513 56.4691 14.0747 56.3254 13.7834C56.0796 13.3921 55.886 12.9753 55.6401 12.5844C55.4513 12.1977 55.2072 11.839 55.0171 11.4531C54.8997 11.2195 54.7453 11.0044 54.6289 10.7705C54.4562 10.4231 54.2326 10.1013 54.0649 9.75141C53.8119 9.34051 53.6025 8.90813 53.3496 8.49708C53.1719 8.12877 52.9355 7.78937 52.7561 7.42192C52.6306 7.16915 52.4629 6.93684 52.3384 6.68327C52.1759 6.35429 51.96 6.05162 51.8052 5.71938C51.7279 5.5909 51.6748 5.41217 51.5124 5.36068C51.408 5.3528 51.2616 5.32815 51.2027 5.43321C50.9297 5.84454 50.7298 6.29355 50.4665 6.71038C50.2781 7.09677 50.0323 7.45533 49.8431 7.84129C49.7307 8.06557 49.5829 8.27229 49.4696 8.49578C49.3835 8.66367 49.296 8.83098 49.1943 8.99135C49.0144 9.27587 48.8859 9.58605 48.7039 9.86934C48.545 10.118 48.4321 10.3896 48.2736 10.6382C48.1072 10.8948 47.9912 11.1759 47.8275 11.4334C47.6401 11.7263 47.5079 12.0465 47.3201 12.3391C47.1617 12.5877 47.0493 12.8589 46.8904 13.1075C46.7239 13.364 46.6079 13.6452 46.4442 13.9027C46.2679 14.1784 46.1384 14.4773 45.9724 14.7577C45.9158 14.841 45.8614 14.9456 45.7498 14.9698C45.5784 14.9983 45.4031 14.9815 45.2299 14.9836C44.5601 14.9832 43.8903 14.9812 43.2206 14.9858C43.0992 14.9836 42.9537 14.9853 42.8707 14.8874C42.8449 14.7807 42.8541 14.6651 42.9162 14.571C45.6484 9.76862 48.3864 4.96938 51.1211 0.167817C51.1631 0.0942117 51.2384 0.0456961 51.3111 0Z" fill="#888F99"/>
<path d="M0.000116026 2.50171C0.183034 2.31647 0.460444 2.37706 0.69693 2.37077C3.078 2.372 5.45848 2.37077 7.83971 2.37128C8.54 2.34858 9.249 2.45031 9.90629 2.68595C11.0126 3.06713 11.9646 3.92328 12.3226 5.01211C12.4811 5.42511 12.5155 5.86963 12.5474 6.30483C12.5182 6.77097 12.4594 7.24471 12.276 7.68114C12.056 8.19203 11.7386 8.68421 11.2652 9.01268C11.1511 9.11854 10.9742 9.16344 10.891 9.29647C11.5209 9.5149 12.0626 9.9287 12.4711 10.4338C13.1427 11.2775 13.3296 12.3939 13.2155 13.4297C13.1554 14.1126 12.9511 14.7904 12.58 15.3785C12.3323 15.7442 12.0265 16.0794 11.6554 16.3337C10.8454 16.9113 9.84279 17.1774 8.85271 17.287C8.64986 17.3135 8.44157 17.2991 8.2425 17.3527H0.181641C0.114586 17.3008 0.0522952 17.2431 0 17.177L0.000116026 2.50171ZM2.67242 4.64719C2.59619 4.7367 2.6171 4.85897 2.6128 4.96612C2.61966 6.07801 2.60234 7.19019 2.6214 8.30172C2.69241 8.38682 2.8013 8.44495 2.9167 8.43902C4.45592 8.44025 5.99556 8.43736 7.53457 8.44069C7.74886 8.44951 7.95964 8.40641 8.17093 8.378C8.65 8.31097 9.12864 8.12891 9.46278 7.78171C9.69136 7.56321 9.7955 7.26018 9.8725 6.96728C9.89121 6.73005 9.97014 6.49188 9.90136 6.25501C9.86821 5.85416 9.69879 5.46458 9.41614 5.16705C9.02021 4.82224 8.49014 4.65738 7.96757 4.59665C7.80036 4.58074 7.63043 4.60467 7.4645 4.57286C7.25807 4.53013 7.04682 4.55066 6.83776 4.5482C5.57429 4.54683 4.31082 4.54943 3.04786 4.54654C2.91631 4.54654 2.78479 4.5811 2.67242 4.64719ZM2.75814 10.6708C2.70678 10.6862 2.65762 10.7155 2.64194 10.7687C2.54908 10.9411 2.56825 11.1394 2.56919 11.3268C2.57093 12.471 2.56791 13.6151 2.57046 14.759C2.57302 14.9227 2.66796 15.1545 2.8732 15.1344C4.49948 15.1352 6.12611 15.1336 7.75229 15.1349C7.91564 15.1403 8.07893 15.1349 8.24014 15.1065C8.81236 15.0595 9.40471 14.9495 9.88686 14.6327C10.2744 14.369 10.4874 13.933 10.5702 13.494C10.6799 12.9873 10.639 12.457 10.4857 11.9625C10.3484 11.5808 10.0776 11.2331 9.69778 11.0481C9.19614 10.7828 8.62036 10.7034 8.05807 10.6572C6.34428 10.6577 4.63051 10.6577 2.91659 10.6572C2.86347 10.656 2.81044 10.6607 2.75814 10.6708Z" fill="#888F99"/>
<path d="M16.5449 2.38162C16.7149 2.35313 16.8885 2.37323 17.0601 2.36991C19.4296 2.36947 21.7995 2.37114 24.1696 2.36904C25.2408 2.42515 26.3291 2.80886 27.1029 3.59148C27.6912 4.18705 28.0459 5.00437 28.1308 5.84259C28.1291 6.17447 28.1443 6.50728 28.1219 6.83865C28.0201 7.55012 27.7471 8.26658 27.2242 8.76461C27.0764 8.92324 26.9159 9.0706 26.7279 9.17761C26.6891 9.21109 26.6069 9.22786 26.6311 9.29575C27.2324 9.54679 27.7754 9.96652 28.1492 10.5136C28.3098 10.7392 28.4253 10.9936 28.5365 11.2477C28.7575 11.7586 28.7988 12.324 28.8311 12.8748C28.8037 13.3008 28.7787 13.7306 28.6795 14.1474C28.5349 14.8739 28.166 15.5473 27.6508 16.0654C27.4404 16.2434 27.2279 16.4216 26.9919 16.5631C26.3259 16.9807 25.5509 17.1737 24.7836 17.2774C24.5696 17.3147 24.349 17.2946 24.1377 17.3527H16.5814C16.4637 17.2824 16.3499 17.1716 16.3649 17.0188C16.3657 12.2473 16.3657 7.47565 16.3649 2.70424C16.3599 2.57243 16.4366 2.4485 16.5449 2.38162ZM19.0764 4.56115C18.9979 4.58002 18.9126 4.6093 18.8705 4.68587C18.7974 4.7918 18.8181 4.9273 18.8154 5.04913C18.819 6.06782 18.8165 7.08644 18.8161 8.10469C18.8092 8.23744 18.8954 8.35204 18.9942 8.42774C19.288 8.45421 19.5842 8.43078 19.8791 8.43823C21.1326 8.43751 22.3855 8.43996 23.6391 8.43751C24.0595 8.38892 24.4946 8.33274 24.8635 8.10346C25.2435 7.92856 25.4836 7.54976 25.6127 7.15758C25.7099 6.84038 25.6765 6.50518 25.6781 6.1783C25.6503 5.94649 25.5781 5.71837 25.475 5.50999C25.1805 4.99222 24.6131 4.70684 24.0501 4.62268C23.8286 4.56578 23.5986 4.61263 23.3764 4.56577C23.2064 4.53194 23.0332 4.54871 22.862 4.54698C21.6495 4.54568 20.437 4.54821 19.2246 4.54531C19.1744 4.54568 19.125 4.55059 19.0764 4.56115ZM18.9942 10.6709C18.8726 10.698 18.8109 10.8295 18.8174 10.9483C18.8165 12.1486 18.8181 13.3484 18.8165 14.5483C18.8181 14.7011 18.8018 14.8606 18.8598 15.0057C18.8889 15.1083 19.0114 15.1317 19.1021 15.1338C20.6546 15.136 22.2073 15.1321 23.7604 15.136C23.9655 15.1464 24.1661 15.0924 24.3704 15.0828C24.8936 15.0158 25.4309 14.8614 25.8345 14.4973C26.1528 14.1687 26.3084 13.7088 26.3428 13.2544C26.3836 13.0292 26.3931 12.7986 26.3477 12.5734C26.308 12.0637 26.1341 11.5196 25.7214 11.2012C25.2221 10.8065 24.575 10.7153 23.9655 10.6567C22.4129 10.6571 20.86 10.6571 19.3076 10.6567C19.203 10.6592 19.0968 10.6478 18.9942 10.6709Z" fill="#888F99"/>
<path d="M28.8536 2.68746C28.773 2.53425 28.9327 2.35009 29.1063 2.36896C29.9396 2.36846 30.7734 2.37272 31.6071 2.3673C31.704 2.36267 31.8111 2.37562 31.8628 2.46441C32.0604 2.74892 32.2202 3.05571 32.379 3.36083C32.4794 3.55583 32.6078 3.73667 32.7083 3.93174C32.8934 4.30794 33.133 4.65738 33.3163 5.03452C33.5616 5.42576 33.7556 5.84259 34.0011 6.23354C34.2116 6.65623 34.4762 7.05224 34.6841 7.47608C34.8647 7.77246 35.0289 8.07671 35.1926 8.38176C35.4005 8.69773 35.546 9.04435 35.7512 9.36198C35.8944 9.59553 36.0006 9.847 36.1486 10.078C36.3365 10.3706 36.468 10.6912 36.6559 10.9833C36.8419 11.2763 36.9683 11.5994 37.1685 11.8844C37.2582 12.0426 37.5518 12.043 37.6419 11.8844C37.8413 11.5989 37.9679 11.2763 38.154 10.9833C38.3199 10.7272 38.4368 10.4463 38.6001 10.1885C38.7875 9.89559 38.9195 9.57543 39.1074 9.28245C39.293 8.97819 39.4375 8.65297 39.6333 8.35378C39.8617 7.9047 40.1374 7.47912 40.3628 7.02881C40.5475 6.73453 40.7031 6.42608 40.8718 6.124C41.069 5.8256 41.2054 5.49698 41.3986 5.19692C41.5655 4.92823 41.6878 4.63815 41.8568 4.3707C42.0281 4.10534 42.1477 3.81454 42.3194 3.54918C42.5488 3.18716 42.6969 2.77958 42.9681 2.44098C43.0297 2.35176 43.1505 2.37186 43.2478 2.36687C44.0664 2.37403 44.8855 2.36817 45.7041 2.36896C45.8153 2.35725 45.909 2.42681 45.9616 2.51343C46.0137 2.65775 45.9019 2.7892 45.8312 2.90806C43.2282 7.47073 40.6327 12.037 38.0306 16.6002C37.8816 16.8609 37.7557 17.1442 37.5251 17.3531H37.3289C37.0331 17.1794 36.9335 16.8408 36.7645 16.5722C34.1266 11.9448 31.4941 7.31325 28.8536 2.68746Z" fill="#888F99"/>
</svg>
