<svg width="56" height="36" viewBox="0 0 56 36" fill="none" xmlns="http://www.w3.org/2000/svg">
<path fill-rule="evenodd" clip-rule="evenodd" d="M4.53523 26.2535C5.6253 26.2535 6.3894 25.9655 6.89063 25.5025C7.59259 24.9006 7.8679 24.1116 7.9431 23.084C7.9807 22.5955 8.00587 20.4029 8.00587 20.228C8.00587 20.0524 8.00587 18.2731 8.03073 18.1479C8.06833 17.9975 8.10592 17.6467 8.56955 17.6467H9.0832C9.14565 17.6467 9.1584 17.5967 9.1584 17.5215V17.2458C9.1584 17.2082 9.14565 17.1582 9.03285 17.1582C8.92005 17.1582 8.5192 17.1958 7.65473 17.1958C6.81543 17.1958 6.239 17.1582 6.11378 17.1582C6.0389 17.1582 6.02615 17.1834 6.02615 17.2458V17.5466C6.02615 17.6094 6.0389 17.6467 6.11378 17.6467H6.66503C6.99068 17.6467 7.1911 17.8723 7.2287 18.1979C7.2663 18.5112 7.29148 19.2377 7.29148 20.1898V22.8708C7.29148 23.7981 7.12865 24.5501 6.64017 25.0758C6.20172 25.527 5.4749 25.7647 4.76082 25.7647C4.034 25.7647 3.2323 25.5394 2.76868 24.863C2.48063 24.4366 2.38025 23.8478 2.36783 23.2717C2.3554 22.8708 2.30537 21.2795 2.30537 20.6161V19.7889C2.30537 19.1497 2.3178 18.2728 2.33023 18.16C2.3554 17.8844 2.56825 17.6464 2.93182 17.6464H3.55827C3.6459 17.6464 3.65832 17.6212 3.65832 17.5588V17.2331C3.65832 17.1828 3.64558 17.1579 3.54553 17.1579C3.40787 17.1579 2.80628 17.1955 1.829 17.1955C0.852048 17.1955 0.238025 17.1579 0.112799 17.1579C0.0124271 17.1579 0 17.1831 0 17.258V17.5336C0 17.6212 0.0124272 17.6464 0.0876266 17.6464H0.676476C1.06458 17.6464 1.15253 17.8468 1.15253 18.2853V21.2668C1.15253 22.9078 1.20255 23.7474 1.35263 24.3114C1.55306 25.1007 1.99151 25.6519 2.84356 25.9906C3.25747 26.1659 3.88392 26.2535 4.53523 26.2535Z" fill="#7B869A"/>
<path fill-rule="evenodd" clip-rule="evenodd" d="M14.5543 21.934C14.5543 21.3764 14.5272 20.5189 14.5951 19.8928C14.6221 19.7023 14.6903 19.6067 15.0306 19.6067H15.1667C15.2212 19.6067 15.2483 19.5662 15.2483 19.5114V19.2259C15.2483 19.1443 15.2212 19.1169 15.153 19.1169C15.0577 19.1169 14.5814 19.158 14.2955 19.158C13.86 19.158 13.2746 19.1169 13.1793 19.1169C13.1115 19.1169 13.0841 19.1443 13.0841 19.1848V19.5114C13.0841 19.5799 13.1112 19.6067 13.1793 19.6067H13.411C13.6423 19.6067 13.8466 19.6889 13.9144 19.852C13.9826 20.0158 14.0234 20.8048 14.0234 21.1317C14.0505 21.5673 14.0642 21.9891 14.0642 22.7654V23.6633H14.0097C13.8463 23.4864 12.5806 21.8939 12.3356 21.6084C12.0498 21.2681 10.4843 19.2938 10.4435 19.2396C10.389 19.158 10.3074 19.1306 10.1169 19.1306C9.95341 19.1306 9.66791 19.158 9.44996 19.158C9.3002 19.158 9.08256 19.1443 8.9054 19.1306C8.72855 19.1306 8.57879 19.1169 8.55171 19.1169C8.49722 19.1169 8.47013 19.158 8.47013 19.1985V19.5251C8.47013 19.5799 8.49722 19.6067 8.55171 19.6067H8.67406C9.05516 19.6067 9.39547 19.8383 9.39547 20.3287V21.7575C9.39547 23.2959 9.36838 24.2623 9.35468 24.4255C9.31358 24.7384 9.09595 24.8337 8.95989 24.8337H8.64666C8.60587 24.8337 8.59217 24.8474 8.59217 24.8748V25.2288C8.59217 25.2966 8.60587 25.324 8.63296 25.324C8.74193 25.324 9.35436 25.2829 9.54491 25.2829C9.93971 25.2829 10.4843 25.324 10.5795 25.324C10.6477 25.324 10.6477 25.2966 10.6477 25.2418V24.9159C10.6477 24.8611 10.6477 24.8337 10.5795 24.8337H10.2937C10.1577 24.8337 10.0079 24.6842 9.96711 24.3713C9.94003 24.2486 9.88522 22.8877 9.88522 22.0704V20.2057H9.91231C10.1303 20.4511 11.2328 21.921 11.5594 22.3017C11.7091 22.4792 12.2945 23.1729 12.9206 23.9217C13.4785 24.5889 13.9412 25.1466 14.0368 25.2418C14.091 25.2829 14.2274 25.3782 14.3497 25.3782C14.5132 25.3782 14.554 25.2418 14.554 25.1198L14.5543 21.934ZM17.5192 21.7983C17.5192 21.703 17.5326 20.083 17.5326 19.9467C17.546 19.6611 17.6687 19.6063 18.0364 19.6063H18.268C18.3359 19.6063 18.3496 19.5659 18.3496 19.5111V19.1845C18.3496 19.144 18.3222 19.1166 18.268 19.1166C18.1591 19.1166 17.4648 19.1577 17.07 19.1577C16.4304 19.1714 15.5864 19.1166 15.5048 19.1166C15.4503 19.1166 15.4232 19.144 15.4232 19.1982V19.5111C15.4232 19.5659 15.4366 19.6063 15.5048 19.6063H15.7498C16.3215 19.6063 16.4441 19.7427 16.4441 19.8925C16.4441 20.083 16.4712 21.444 16.4712 21.6619V22.2606C16.4712 22.7236 16.4578 24.4526 16.4441 24.5752C16.4167 24.82 16.1991 24.8337 15.8588 24.8337H15.5596C15.5051 24.8337 15.4777 24.8748 15.4777 24.9159V25.2148C15.4777 25.2833 15.5051 25.3244 15.5596 25.3244C15.6412 25.3244 16.4308 25.2833 16.8934 25.2833C17.5059 25.2833 18.2139 25.3244 18.3225 25.3244C18.3904 25.3244 18.4041 25.2833 18.4041 25.2291V24.9018C18.4041 24.8614 18.3904 24.834 18.3225 24.834H18.1183C17.7235 24.834 17.5603 24.6434 17.5329 24.3305C17.5196 24.1263 17.5196 22.5611 17.5196 22.4795L17.5192 21.7983ZM31.1192 22.1791C31.1055 23.0091 31.1192 23.8127 31.1055 24.48C31.1055 24.7792 30.9423 24.8333 30.6157 24.8333H30.4519C30.3978 24.8333 30.3704 24.8607 30.3704 24.9012V25.2141C30.3704 25.2826 30.3978 25.3237 30.4519 25.3237C30.5479 25.3237 31.2419 25.2826 31.5822 25.2826C32.0308 25.2826 32.7666 25.3237 32.8618 25.3237C32.9434 25.3237 32.9708 25.2963 32.9708 25.2285V24.9012C32.9708 24.8607 32.9434 24.8333 32.8886 24.8333H32.5352C32.2628 24.8333 32.1812 24.6839 32.1538 24.493V22.6965C32.2491 22.6698 32.3718 22.6698 32.5078 22.6698C33.0798 22.6698 33.284 22.969 33.7738 23.8131C33.8965 24.0173 34.4952 25.1201 34.7539 25.3103C35.044 25.2931 35.3345 25.2839 35.6251 25.2829C35.7608 25.2829 35.9243 25.2966 36.047 25.2966C36.1827 25.3103 36.2917 25.324 36.3191 25.324C36.3739 25.324 36.4007 25.2829 36.4007 25.2288V24.9563C36.4007 24.8748 36.3876 24.8337 36.3328 24.8337C36.0874 24.8337 35.9109 24.82 35.7204 24.6842C35.4616 24.493 35.1484 24.0849 34.9579 23.8131C34.3996 23.0231 34.1278 22.6013 33.8146 22.5334V22.506C34.89 22.1252 35.4202 21.5806 35.4202 20.6413C35.4202 20.3284 35.2434 19.933 34.9442 19.6474C34.6038 19.3482 33.9914 19.1166 33.1747 19.1166C32.9973 19.1166 31.8138 19.1577 31.65 19.1577C31.4047 19.1577 30.5609 19.1166 30.4931 19.1166C30.4382 19.1166 30.4115 19.144 30.4115 19.1845V19.5111C30.4115 19.5659 30.4252 19.6063 30.4656 19.6063H30.602C30.9828 19.6063 31.1055 19.7564 31.1192 20.0282V22.1791ZM32.1535 19.8514C32.1535 19.606 32.3577 19.5522 32.5617 19.5522C33.1062 19.5522 33.4876 19.6749 33.855 19.9062C34.1004 20.0693 34.3043 20.4364 34.3043 20.8452C34.3043 21.1992 34.0727 22.2603 32.5617 22.2603C32.4252 22.2611 32.2887 22.2521 32.1535 22.2335V19.8514ZM38.5458 25.4458C39.7843 25.4458 40.4379 24.5752 40.4379 23.5537C40.4379 22.8734 40.2741 22.5331 40.0023 22.2472C39.662 21.8932 39.1585 21.7432 38.5324 21.5121C38.2736 21.4162 37.7836 21.2123 37.5796 20.9539C37.4296 20.7764 37.3617 20.4909 37.3617 20.2866C37.3617 20.0413 37.5796 19.4566 38.3281 19.4566C38.7226 19.4566 39.0221 19.593 39.2261 19.8237C39.5116 20.1503 39.6205 20.627 39.7028 20.7901C39.7158 20.8312 39.7432 20.8586 39.7843 20.8449L40.029 20.7901C40.0701 20.7764 40.0839 20.7496 40.0839 20.7085C40.0701 20.518 39.9475 19.6331 39.9475 19.1838C39.9475 19.116 39.9344 19.0618 39.8248 19.0618C39.7158 19.0618 39.6754 19.0618 39.6479 19.1023L39.5938 19.1975C39.5664 19.266 39.4985 19.2523 39.3621 19.1708C39.1983 19.0885 38.9128 18.9933 38.3957 18.9933C37.9059 18.9933 37.4703 19.116 37.116 19.4015C36.8168 19.6602 36.531 20.0824 36.531 20.5454C36.531 21.212 36.6941 21.6476 37.007 21.9468C37.4152 22.3145 38.0688 22.5598 38.3415 22.6551C39.0629 22.9272 39.5938 23.2675 39.5938 24.0434C39.5938 24.6285 38.9402 24.9688 38.5047 24.9688C38.0012 24.9688 37.5519 24.6963 37.3477 24.2878C37.1023 23.8392 37.1023 23.5527 37.1023 23.3625C37.1023 23.3083 37.0481 23.2809 36.9933 23.2672L36.748 23.2398C36.6938 23.2398 36.6664 23.2809 36.6527 23.3351C36.6396 23.553 36.5437 24.6422 36.5033 25.0229C36.4896 25.0914 36.5307 25.1456 36.6122 25.173C36.7212 25.2004 36.7891 25.173 36.8165 25.1051L36.857 24.9962C36.8844 24.8872 36.9659 24.9003 37.0612 24.9688C37.3751 25.2141 37.8511 25.4458 38.5458 25.4458ZM42.7432 21.7983C42.7432 21.703 42.7569 20.083 42.7569 19.9467C42.77 19.6611 42.8927 19.6063 43.2604 19.6063H43.492C43.5599 19.6063 43.5736 19.5659 43.5736 19.5111V19.1845C43.5736 19.144 43.5462 19.1166 43.492 19.1166C43.3831 19.1166 42.6887 19.1577 42.2939 19.1577C41.6541 19.1714 40.8104 19.1166 40.7288 19.1166C40.674 19.1166 40.6466 19.144 40.6466 19.1982V19.5111C40.6466 19.5659 40.6603 19.6063 40.7288 19.6063H40.9735C41.5455 19.6063 41.6681 19.7427 41.6681 19.8925C41.6681 20.083 41.6955 21.444 41.6955 21.6619V22.2606C41.6955 22.7236 41.6818 24.4526 41.6681 24.5752C41.6407 24.82 41.4228 24.8337 41.0825 24.8337H40.7833C40.7291 24.8337 40.7017 24.8748 40.7017 24.9159V25.2148C40.7017 25.2833 40.7291 25.3244 40.7833 25.3244C40.8655 25.3244 41.6544 25.2833 42.1177 25.2833C42.7302 25.2833 43.4379 25.3244 43.5465 25.3244C43.615 25.3244 43.6281 25.2833 43.6281 25.2291V24.9018C43.6281 24.8614 43.615 24.834 43.5465 24.834H43.3423C42.9478 24.834 42.7847 24.6434 42.7573 24.3305C42.7436 24.1263 42.7435 22.5611 42.7435 22.4795L42.7432 21.7983ZM6.87469 29.6455C8.12377 29.6455 8.87322 27.9315 8.87322 26.9835C8.87322 26.3979 8.52845 25.976 7.95139 25.976C6.80555 25.976 5.98728 27.4491 5.98728 28.5344C5.98728 29.1892 6.40087 29.6455 6.87469 29.6455ZM6.74565 29.2322C6.53885 29.2322 6.34925 29.0684 6.34925 28.7928C6.34925 28.3878 6.55605 27.8623 6.84888 27.3975C7.27969 26.6993 7.7363 26.3717 8.09796 26.3717C8.38219 26.3717 8.53737 26.5878 8.52876 26.8548C8.52876 27.4229 7.64135 29.2322 6.74565 29.2322ZM20.7974 29.8637C20.7974 29.7685 20.8108 28.1491 20.8108 28.0127C20.8245 27.7272 20.9469 27.6724 21.3146 27.6724H21.5459C21.6141 27.6724 21.6275 27.6313 21.6275 27.5772V27.2506C21.6275 27.2095 21.6004 27.1827 21.5459 27.1827C21.4373 27.1827 20.7429 27.2232 20.3481 27.2232C19.7083 27.2369 18.8645 27.1827 18.7827 27.1827C18.7285 27.1827 18.7011 27.2095 18.7011 27.2643V27.5772C18.7011 27.6313 18.7148 27.6724 18.7827 27.6724H19.0277C19.5993 27.6724 19.722 27.8088 19.722 27.9579C19.722 28.1491 19.7491 29.51 19.7491 29.728V30.3267C19.7491 30.7897 19.7354 32.518 19.722 32.6407C19.6946 32.8861 19.4767 32.8994 19.1367 32.8994H18.8375C18.783 32.8994 18.7559 32.9405 18.7559 32.981V33.2802C18.7559 33.3487 18.783 33.3892 18.8375 33.3892C18.919 33.3892 19.7086 33.3487 20.1713 33.3487C20.7837 33.3487 21.4917 33.3892 21.6004 33.3892C21.6686 33.3892 21.6823 33.3487 21.6823 33.2939V32.9673C21.6823 32.9262 21.6686 32.8994 21.6004 32.8994H21.3962C21.0014 32.8994 20.8382 32.7089 20.8108 32.3953C20.7974 32.1911 20.7974 30.6259 20.7974 30.5444V29.8637ZM22.8635 30.2455C22.8498 31.0755 22.8635 31.8785 22.8498 32.5457C22.8498 32.845 22.6863 32.8998 22.3597 32.8998H22.1963C22.1421 32.8998 22.1147 32.9265 22.1147 32.9676V33.2805C22.1147 33.349 22.1418 33.3895 22.1963 33.3895C22.2915 33.3895 22.9859 33.349 23.3258 33.349C23.7751 33.349 24.5102 33.3895 24.6055 33.3895C24.6874 33.3895 24.7145 33.3621 24.7145 33.2942V32.9676C24.7145 32.9265 24.6874 32.8998 24.6329 32.8998H24.2792C24.0071 32.8998 23.9255 32.7497 23.8981 32.5594V30.7626C23.9937 30.7352 24.1161 30.7352 24.2521 30.7352C24.8238 30.7352 25.028 31.0344 25.5181 31.8785C25.6405 32.0834 26.2395 33.1856 26.4982 33.3758C26.7883 33.3587 27.0788 33.3498 27.3694 33.349C27.5055 33.349 27.6689 33.3621 27.7916 33.3621C27.9277 33.3758 28.0366 33.3895 28.0637 33.3895C28.1182 33.3895 28.1453 33.349 28.1453 33.2942V33.0221C28.1453 32.9405 28.1319 32.8994 28.0774 32.8994C27.8324 32.8994 27.6555 32.8857 27.465 32.7494C27.2066 32.5588 26.8934 32.1506 26.7028 31.8782C26.1449 31.0889 25.8727 30.667 25.5595 30.5985V30.5718C26.6349 30.1903 27.1658 29.6464 27.1658 28.7064C27.1658 28.3935 26.9886 27.9987 26.6894 27.7132C26.3491 27.4134 25.7367 27.1824 24.9197 27.1824C24.7428 27.1824 23.5588 27.2228 23.3953 27.2228C23.1503 27.2228 22.3065 27.1824 22.2383 27.1824C22.1842 27.1824 22.1567 27.2091 22.1567 27.2502V27.5768C22.1567 27.631 22.1705 27.6721 22.2112 27.6721H22.3476C22.7287 27.6721 22.8511 27.8222 22.8648 28.094V30.2455H22.8635ZM23.9765 27.9178C23.9765 27.6724 24.1808 27.6186 24.385 27.6186C24.9292 27.6186 25.3107 27.7406 25.6781 27.972C25.9231 28.1357 26.1273 28.5028 26.1273 28.911C26.1273 29.265 25.896 30.3267 24.385 30.3267C24.2078 30.3267 24.0718 30.313 23.9765 30.2993V27.9178Z" fill="#7B869A"/>
<path fill-rule="evenodd" clip-rule="evenodd" d="M33.082 31.4974C33.082 31.2658 33.3404 31.2119 33.4765 31.2119H33.7081C33.7486 31.2119 33.776 31.1708 33.776 31.1297V30.8037C33.776 30.7626 33.7486 30.7352 33.6944 30.7352C33.6396 30.7352 33.0272 30.7626 32.5238 30.7626C31.7886 30.7626 31.1217 30.7352 31.0402 30.7352C30.9854 30.7352 30.9717 30.7626 30.9717 30.8037V31.1297C30.9717 31.1708 30.9854 31.1982 31.0402 31.1982H31.3668C31.7208 31.1982 32.0334 31.2935 32.0334 31.6064V32.1098C32.0334 32.3823 32.0066 32.5591 31.8291 32.6955C31.6118 32.8723 31.1756 32.9947 30.6995 32.9947C30.3188 32.9947 29.7742 32.7905 29.3925 32.3823C28.8616 31.824 28.5624 31.0478 28.5624 29.9998C28.5624 29.3874 28.8616 28.666 29.2707 28.2167C29.7742 27.6721 30.3051 27.522 30.7269 27.522C31.3531 27.522 31.7338 27.7945 32.1016 28.1756C32.4282 28.5022 32.6598 28.9244 32.7551 29.142C32.7956 29.251 32.823 29.2647 32.8641 29.251L33.1225 29.1694C33.1636 29.1557 33.1773 29.1283 33.1773 29.0604C33.1499 28.8151 32.973 27.5494 32.973 27.4816C32.973 27.3863 32.9456 27.3315 32.823 27.3315C32.714 27.3315 32.6729 27.3726 32.6461 27.4268L32.5776 27.5494C32.5508 27.5905 32.496 27.5905 32.3871 27.4953C32.1286 27.3047 31.4891 27.0597 30.8356 27.0597C29.8692 27.0597 29.0388 27.3452 28.3993 27.8897C27.7457 28.4617 27.3917 29.2918 27.3917 30.1222C27.3917 31.1839 27.6638 31.919 28.2087 32.5177C28.8485 33.226 29.937 33.5115 30.645 33.5115C31.5156 33.5115 32.2507 33.321 32.9727 32.967C33.068 32.9259 33.1222 32.8854 33.1222 32.8175C33.1222 32.749 33.0817 32.6675 33.0817 32.5451L33.082 31.4974Z" fill="#7B869A"/>
<path fill-rule="evenodd" clip-rule="evenodd" d="M35.7376 29.8637C35.7376 29.7685 35.7519 28.1491 35.7519 28.0127C35.765 27.7272 35.8877 27.6724 36.2554 27.6724H36.4864C36.5549 27.6724 36.5686 27.6313 36.5686 27.5772V27.2506C36.5686 27.2095 36.5412 27.1827 36.4864 27.1827C36.3774 27.1827 35.6834 27.2232 35.2889 27.2232C34.6491 27.2369 33.8053 27.1827 33.7238 27.1827C33.669 27.1827 33.6416 27.2095 33.6416 27.2643V27.5772C33.6416 27.6313 33.6553 27.6724 33.7238 27.6724H33.9685C34.5404 27.6724 34.6631 27.8088 34.6631 27.9579C34.6631 28.1491 34.6899 29.51 34.6899 29.728V30.3267C34.6899 30.7897 34.6768 32.518 34.6631 32.6407C34.6357 32.8861 34.4178 32.8994 34.0774 32.8994H33.7782C33.7241 32.8994 33.6967 32.9405 33.6967 32.981V33.2802C33.6967 33.3487 33.7241 33.3892 33.7782 33.3892C33.8598 33.3892 34.6494 33.3487 35.1127 33.3487C35.7251 33.3487 36.4329 33.3892 36.5415 33.3892C36.6094 33.3892 36.6231 33.3487 36.6231 33.2939V32.9673C36.6231 32.9262 36.6094 32.8994 36.5415 32.8994H36.3373C35.9428 32.8994 35.779 32.7089 35.7522 32.3953C35.7379 32.1911 35.7379 30.6259 35.7379 30.5444L35.7376 29.8637ZM43.0663 30.0001C43.0663 29.4419 43.0396 28.5844 43.1074 27.9583C43.1348 27.7677 43.2027 27.6728 43.543 27.6728H43.6788C43.7336 27.6728 43.761 27.6317 43.761 27.5775V27.292C43.761 27.2098 43.7336 27.183 43.6657 27.183C43.5698 27.183 43.0937 27.2235 42.8082 27.2235C42.3727 27.2235 41.787 27.183 41.6917 27.183C41.6238 27.183 41.5964 27.2098 41.5964 27.2509V27.5775C41.5964 27.6454 41.6238 27.6728 41.6917 27.6728H41.9234C42.155 27.6728 42.3589 27.7543 42.4268 27.9181C42.4953 28.0813 42.5358 28.8708 42.5358 29.1978C42.5632 29.6334 42.5769 30.0552 42.5769 30.8308V31.7294H42.5221C42.3589 31.5525 41.0933 29.96 40.8479 29.6738C40.5624 29.3335 38.997 27.3599 38.9559 27.3057C38.901 27.2235 38.8195 27.1967 38.6292 27.1967C38.4661 27.1967 38.18 27.2235 37.962 27.2235C37.8126 27.2235 37.5949 27.2098 37.4175 27.1967C37.2406 27.1967 37.0908 27.183 37.0641 27.183C37.0093 27.183 36.9825 27.2235 36.9825 27.2646V27.5912C36.9825 27.6454 37.0093 27.6728 37.0641 27.6728H37.1868C37.5675 27.6728 37.9082 27.9044 37.9082 28.3942V29.8236C37.9082 31.3614 37.8808 32.3278 37.8671 32.4916C37.8266 32.8045 37.6086 32.8998 37.4726 32.8998H37.1597C37.1186 32.8998 37.1049 32.9135 37.1049 32.9409V33.2942C37.1049 33.3621 37.1186 33.3895 37.146 33.3895C37.2549 33.3895 37.8674 33.349 38.0576 33.349C38.4527 33.349 38.9973 33.3895 39.0926 33.3895C39.1604 33.3895 39.1604 33.3621 39.1604 33.3079V32.9813C39.1604 32.9265 39.1604 32.8998 39.0926 32.8998H38.8064C38.6707 32.8998 38.5209 32.7497 38.4798 32.4368C38.453 32.3141 38.3982 30.9532 38.3982 30.1365V28.2712H38.4256C38.6436 28.5165 39.7458 29.9864 40.0724 30.3678C40.2225 30.5447 40.8081 31.2384 41.4339 31.9872C41.9916 32.6544 42.4545 33.2127 42.5498 33.3079C42.6046 33.349 42.7404 33.4443 42.8627 33.4443C43.0265 33.4443 43.067 33.3079 43.067 33.1856L43.0663 30.0001ZM9.83456 26.4409H9.06791C9.02457 26.4409 9.00354 26.3985 9.02106 26.3383L9.05548 26.192C9.07268 26.1318 9.13227 25.9935 9.2011 25.9935H9.95054C10.209 25.253 10.4597 24.6504 10.916 24.1419C11.1572 23.8663 11.6311 23.5562 12.1909 23.5562C12.6905 23.5562 12.9665 23.8573 12.9665 24.0641C12.9665 24.3312 12.7941 24.4605 12.6217 24.4605C12.3461 24.4605 12.2687 24.3057 12.2429 24.1158C12.2342 24.0297 12.1479 23.8663 11.8898 23.8663C11.0887 23.8663 10.9154 25.0038 10.6312 25.9687C10.6312 25.9687 11.8283 26.0012 12.8056 26.0012C13.858 26.0012 14.4217 25.9639 14.5345 25.9639C14.6473 25.9639 14.6597 26.0012 14.6597 26.0515V26.3396C14.6597 26.4017 14.6473 26.4524 14.5597 26.4524H13.9584C13.6076 26.4524 13.4323 26.5652 13.4323 26.7777C13.4323 26.8777 13.4448 27.0285 13.4824 27.204C13.5572 27.6546 14.0209 29.1458 14.2465 29.8472C14.3969 30.3232 15.1234 32.4785 15.4114 33.2426C15.6995 32.6538 16.6767 30.0731 16.7771 29.7847C16.9023 29.4463 17.3784 28.0054 17.5664 27.4542C17.6665 27.1413 17.742 26.916 17.742 26.7404C17.742 26.5897 17.6543 26.4524 17.3411 26.4524H17.0155C16.9654 26.4524 16.953 26.4144 16.953 26.3396V26.0515C16.953 25.9887 16.9654 25.9639 17.0282 25.9639C17.141 25.9639 17.7171 26.0012 18.5067 26.0012C19.4212 26.0012 19.7344 25.9639 19.8472 25.9639C19.9221 25.9639 19.9349 25.9887 19.9349 26.0515V26.3644C19.9349 26.4141 19.9221 26.452 19.8472 26.452H19.5088C19.0952 26.452 18.8572 26.6525 18.6192 26.9405C18.2935 27.3414 17.2911 29.9096 17.0782 30.4357C16.9278 30.8496 15.3117 34.8333 15.2489 34.9588C15.1989 35.0589 15.1361 35.1213 15.0737 35.1213C14.9736 35.1213 14.9233 34.9961 14.8608 34.8333C14.3393 33.345 13.8131 31.8585 13.2823 30.3736L13.157 29.9472C12.8562 29.0579 12.2674 27.2413 12.1046 26.8653C11.979 26.5773 11.8541 26.452 11.5909 26.452L10.426 26.4409C10.202 27.1384 9.80588 28.6121 9.37508 29.7149C8.84964 31.0593 8.23816 32.0152 7.31633 32.0152C6.97156 32.0152 6.69625 31.7826 6.69625 31.5067C6.69625 31.3088 6.84251 31.1364 7.06683 31.1364C7.31665 31.1364 7.4457 31.3779 7.47183 31.5242C7.48904 31.6102 7.54926 31.6704 7.61808 31.6704C8.03168 31.6704 8.49658 30.9471 8.9618 29.3536L9.83456 26.4409ZM43.8903 19.0959C43.9079 19.0841 43.9021 19.0841 43.9432 19.0886C44.1555 19.1121 44.9278 19.1845 46.4232 19.1845H46.9678C47.4123 19.1845 47.8912 19.1663 48.4103 19.1453C48.6709 19.1379 50.2699 19.1577 50.5965 19.1577C50.8957 19.1577 51.8213 19.1166 51.9172 19.1166C51.9714 19.1166 52.0125 19.144 52.0125 19.2119V19.5111C52.0125 19.5659 51.9988 19.6063 51.9172 19.6063H51.7124C51.4676 19.6063 51.4539 19.7564 51.5081 19.838C51.5897 19.9607 52.7199 21.7709 52.9375 22.0978C53.1418 21.7575 54.2714 20.1108 54.3259 20.0018C54.4348 19.7838 54.4485 19.6067 54.1484 19.6067H53.9311C53.8626 19.6067 53.8351 19.5662 53.8351 19.5114V19.2122C53.8351 19.158 53.8626 19.1169 53.9311 19.1169C54.0126 19.1169 54.6929 19.158 55.1017 19.158C55.3465 19.158 55.8232 19.1169 55.9047 19.1169C55.9726 19.1169 56 19.1443 56 19.2259V19.5114C56 19.5799 55.9726 19.6067 55.9184 19.6067H55.782C55.5641 19.6067 55.4143 19.6478 55.2923 19.7156C55.088 19.8246 53.5085 22.0433 53.1956 22.52V23.6633C53.2093 24.0036 53.1956 24.3716 53.223 24.5345C53.2504 24.82 53.4684 24.8337 53.7134 24.8337H53.8903C53.9581 24.8337 53.9855 24.8611 53.9855 24.9015V25.2288C53.9855 25.2829 53.9581 25.324 53.8766 25.324C53.795 25.324 53.0328 25.2829 52.5832 25.2829C52.284 25.2829 51.4947 25.324 51.4125 25.324C51.3446 25.324 51.3172 25.2966 51.3172 25.2144V24.9156C51.3172 24.8744 51.3446 24.8333 51.3988 24.8333H51.6031C52.0386 24.8333 52.1209 24.7518 52.1339 24.5612C52.1476 24.4385 52.1476 23.9488 52.1476 23.1455V22.6557C52.0256 22.4104 50.3645 19.9741 50.1469 19.7698C50.0318 19.6548 49.8387 19.6172 49.7161 19.6086C49.797 19.9776 49.9066 20.4613 49.95 20.6951C49.9637 20.7499 49.9362 20.7767 49.8814 20.8041L49.6504 20.8726C49.5682 20.8994 49.5278 20.8863 49.5003 20.8178C49.3372 20.4775 49.1059 20.0279 48.82 19.7698C48.4797 19.6471 47.484 19.6334 47.2386 19.6334V21.9206C47.2386 23.3494 47.2386 24.3707 47.2523 24.4797C47.2797 24.697 47.3476 24.833 47.5652 24.833H48.0824C48.1503 24.833 48.1777 24.8741 48.1777 24.9557V25.2412C48.1777 25.2823 48.1503 25.3234 48.0824 25.3234C47.9871 25.3234 47.1434 25.2823 46.6941 25.2823C46.3133 25.2823 45.4281 25.3234 45.3195 25.3234C45.2379 25.3234 45.2105 25.2823 45.2105 25.2007V24.9283C45.2105 24.8604 45.2379 24.833 45.292 24.833H45.8366C46.0409 24.833 46.1358 24.724 46.1495 24.6151C46.1906 24.0979 46.1906 23.3765 46.1906 22.5602V19.6331C45.9319 19.6331 45.1675 19.6194 44.664 19.7558C44.3237 20.0145 44.0379 20.4504 43.8607 20.8038C43.8339 20.8586 43.7928 20.8991 43.7387 20.8723L43.4933 20.7764C43.4254 20.7496 43.4254 20.6948 43.4385 20.6407C43.5175 20.3931 43.754 19.5541 43.8648 19.1421C43.8719 19.1207 43.8735 19.1077 43.8903 19.0959ZM48.9147 30.5584H50.7657C50.7115 30.3678 50.0717 28.326 50.0443 28.217C50.0169 28.1354 50.0032 28.0806 49.9627 28.0806C49.9216 28.0806 49.8942 28.1217 49.8537 28.2307C49.8126 28.3397 48.9826 30.422 48.9147 30.5584ZM46.089 29.8637V30.5447C46.089 30.6262 46.089 32.1914 46.1027 32.3957C46.1301 32.7092 46.2939 32.8998 46.6883 32.8998H46.8451C47.0768 32.8998 47.2944 32.7634 47.4034 32.6143C47.4986 32.5053 48.1926 30.8716 48.5199 30.191C48.6145 30.0004 49.4178 28.1498 49.4994 27.9181C49.5268 27.8365 49.6084 27.6865 49.5131 27.6457C49.4857 27.6189 49.4452 27.5504 49.4583 27.5099C49.4452 27.4825 49.472 27.4414 49.5947 27.414C49.8534 27.3736 50.2345 27.1285 50.3572 27.0195C50.3723 26.9895 50.3959 26.9646 50.425 26.9477C50.454 26.9307 50.4874 26.9226 50.521 26.9243C50.6025 26.9243 50.6299 26.9791 50.6567 27.0744C50.8472 27.6189 51.5416 29.5649 51.7184 30.1094C51.9227 30.7903 52.5083 32.396 52.6033 32.5324C52.7801 32.7777 53.0115 32.9001 53.2431 32.9001H53.5015C53.5563 32.9001 53.57 32.9412 53.57 32.9816V33.2672C53.57 33.3083 53.5563 33.3898 53.4748 33.3898C53.311 33.3898 52.5899 33.3494 52.2767 33.3494C52.0179 33.3494 51.215 33.3898 51.0381 33.3898C50.9428 33.3898 50.9291 33.322 50.9291 33.2672V32.9816C50.9291 32.9412 50.9428 32.9001 50.997 32.9001H51.215C51.3781 32.9001 51.4329 32.7774 51.4329 32.6684C51.3781 32.396 51.011 31.3075 50.9021 30.9943H48.7101C48.6559 31.1574 48.2204 32.2876 48.1662 32.4505C48.084 32.7226 48.1251 32.8998 48.4109 32.8998H48.7512C48.8328 32.8998 48.8465 32.9409 48.8465 32.995V33.2942C48.8465 33.349 48.8328 33.3895 48.7649 33.3895C48.6559 33.3895 47.9349 33.349 47.7169 33.349H45.4635C45.0011 33.349 44.2112 33.3895 44.1296 33.3895C44.0748 33.3895 44.0481 33.349 44.0481 33.2805V32.9813C44.0481 32.9409 44.0748 32.8998 44.1296 32.8998H44.4288C44.7692 32.8998 44.9871 32.8861 45.0139 32.641C45.0276 32.5183 45.0413 30.79 45.0413 30.327V29.7283C45.0413 29.5104 45.0139 28.1494 45.0139 27.9583C45.0139 27.8088 44.8918 27.6728 44.3199 27.6728H44.0745C44.0066 27.6728 43.9929 27.6317 43.9929 27.5775V27.2646C43.9929 27.2098 44.0203 27.183 44.0745 27.183C44.1567 27.183 45.0005 27.2372 45.6403 27.2235C46.0348 27.2235 46.7288 27.183 46.8378 27.183C46.8926 27.183 46.92 27.2098 46.92 27.2509V27.5775C46.92 27.6317 46.9063 27.6728 46.8378 27.6728H46.6061C46.239 27.6728 46.1164 27.7276 46.1027 28.0131C46.1027 28.1491 46.089 29.7685 46.089 29.8637ZM21.1913 19.2119V19.5248C21.1913 19.5796 21.1505 19.6063 21.096 19.6063H20.7831C20.6062 19.6063 20.402 19.6337 20.402 19.8112C20.402 20.1241 20.6336 20.655 21.0007 21.7983C21.1097 22.1386 21.6135 23.7175 21.695 23.9354H21.7358C21.8174 23.6493 22.4846 21.9614 22.5525 21.7572C23.0697 20.2462 23.2468 19.8788 23.2468 19.7427C23.2468 19.6749 23.1923 19.6063 22.9607 19.6063H22.8112C22.7568 19.6063 22.7293 19.5796 22.7293 19.5111V19.1982C22.7293 19.1577 22.7568 19.1166 22.8112 19.1166C22.8928 19.1166 23.6008 19.1577 23.9137 19.1577H25.9945L29.0436 19.144C29.1799 19.144 29.3565 19.1166 29.4106 19.1166C29.438 19.1166 29.4654 19.144 29.4928 19.3071C29.5196 19.4298 29.901 20.6005 29.9278 20.6955C29.9415 20.7503 29.9415 20.777 29.9147 20.7907L29.6968 20.8866C29.6694 20.8997 29.6146 20.8997 29.5741 20.8318C29.5467 20.7907 28.8932 20.0285 28.6625 19.8112C28.5193 19.6842 28.336 19.6116 28.1447 19.6063L26.7019 19.5796V21.8936C26.7834 21.8936 27.5864 21.8524 27.6954 21.8257C28.0491 21.7298 28.1854 21.5395 28.1854 21.1173C28.1854 21.0632 28.1991 21.0495 28.2533 21.0495L28.5532 21.0632C28.6073 21.0632 28.6484 21.0906 28.6347 21.1447C28.6073 21.2674 28.6073 21.9885 28.6073 22.1112C28.6073 22.4104 28.6484 22.8326 28.6621 23.0091C28.6621 23.0639 28.6347 23.0776 28.5936 23.0776L28.3081 23.1044C28.267 23.1044 28.2403 23.1044 28.2266 23.0502C28.1584 22.7099 28.0765 22.492 27.7225 22.4104C27.3143 22.3151 26.8376 22.3151 26.7015 22.3151V22.7781C26.7015 23.2542 26.7286 24.0441 26.7286 24.2206C26.7286 24.8604 27.1234 24.9009 27.7088 24.9009C28.3078 24.9009 28.6889 24.8878 29.1519 24.5201C29.2609 24.4385 29.7369 23.8261 29.8733 23.6085C29.9412 23.5132 30.0097 23.4995 30.0501 23.5269L30.2681 23.649C30.2955 23.6627 30.3229 23.7038 30.3092 23.7449L29.8194 25.1874C29.792 25.2552 29.7235 25.3237 29.6694 25.3237C29.5741 25.3237 28.853 25.2826 25.9942 25.2826C25.7491 25.2826 25.0003 25.3237 24.8372 25.3237C24.7693 25.3237 24.7556 25.2826 24.7556 25.2285V24.9156C24.7556 24.8607 24.7827 24.8333 24.8509 24.8333H24.9735C25.6134 24.8333 25.6542 24.7792 25.6542 24.5886V21.6893C25.6542 20.9679 25.6405 20.083 25.6271 19.9467C25.5863 19.6612 25.5044 19.6063 24.9602 19.6063H24.6355C24.3767 19.6063 24.1862 19.6886 24.0638 19.8112C23.8051 20.0696 23.0703 21.8524 22.9342 22.2068C22.8119 22.4923 21.6957 25.1606 21.5867 25.3378C21.5459 25.4056 21.4777 25.4461 21.3687 25.4461C21.2598 25.4461 21.1916 25.3508 21.1508 25.2418C20.8513 24.4389 20.1299 22.4649 20.0212 22.1657L19.9259 21.8665C19.6946 21.2403 19.2861 20.0018 19.1908 19.8657C19.0819 19.7156 18.9729 19.607 18.796 19.607H18.66C18.6055 19.607 18.5918 19.5665 18.5918 19.5254V19.1851C18.5918 19.1446 18.6189 19.1172 18.6734 19.1172C18.7412 19.1172 19.49 19.1583 19.844 19.1583C20.1703 19.1583 21.0007 19.1172 21.0826 19.1172C21.1642 19.1166 21.1913 19.144 21.1913 19.2119Z" fill="#7B869A"/>
<path fill-rule="evenodd" clip-rule="evenodd" d="M31.1533 14.2933V7.62541H32.5531V14.2933H31.1533ZM23.5932 14.2933V7.62541H24.9487V14.2933H23.5932ZM25.4155 14.2933V7.62541H26.8609V14.2933H25.4155ZM27.3283 14.2933V7.62541H28.7737V14.2933H27.3283ZM30.6861 7.62541V14.2933H29.2405V7.62541H30.6861ZM31.9518 7.15446H24.1642L28.1612 4.69519L31.9518 7.15446ZM23.2672 7.15446H19.931V4.66969H27.306L23.2672 7.15446ZM28.9859 4.66969H36.1709V7.15446H32.815L28.9859 4.66969ZM35.1427 4.19842H20.9593C22.3479 1.69294 25.0032 0 28.0503 0C31.0982 0 33.7531 1.69326 35.1427 4.19842ZM22.2456 13.8998L22.1641 14.1486L22.376 13.9947L22.5876 14.1486L22.5069 13.8998L22.7188 13.7459H22.4572L22.3763 13.497L22.2954 13.7459H22.0338L22.2456 13.8998ZM21.089 12.3595L21.0077 12.608L21.2196 12.4544L21.4315 12.608L21.3506 12.3592L21.5625 12.2053H21.3009L21.2199 11.9564L21.139 12.2053H20.8774L21.089 12.3595ZM20.2943 10.4789L20.2127 10.7277L20.4246 10.5738L20.6365 10.7277L20.5556 10.4789L20.7675 10.3249H20.5059L20.4249 10.0761L20.3443 10.3249H20.0827L20.2943 10.4789ZM23.1267 14.2933H19.931V8.33885L20.0378 8.4166L19.9565 8.66546L20.1684 8.51156L20.3803 8.66546L20.2994 8.4166L20.5113 8.2627H20.2494L20.1687 8.01384L20.0878 8.2627H19.9314V7.62541H23.1267V14.2933ZM23.1267 14.7643V16.5343H19.931V14.7643H23.1267ZM33.0199 14.7643H36.1709V16.5343H33.0199V14.7643ZM30.2187 16.0251L30.4309 15.8712H30.169L30.0887 15.6224L30.0071 15.8712H29.7458L29.9574 16.0251L29.8765 16.274L30.0887 16.1204L30.3003 16.274L30.2187 16.0251ZM32.0907 15.2706L32.3029 15.1167H32.041L31.9601 14.8678L31.8791 15.1167H31.6179L31.8294 15.2706L31.7485 15.5194L31.9601 15.3655L32.1723 15.5194L32.0907 15.2706ZM25.8833 16.0251L25.802 16.274L26.0139 16.1204L26.2258 16.274L26.1449 16.0251L26.3568 15.8712H26.0948L26.0139 15.6224L25.933 15.8712H25.671L25.8833 16.0251ZM24.0112 15.2706L23.93 15.5194L24.1419 15.3655L24.3538 15.5194L24.2728 15.2706L24.4847 15.1167H24.2231L24.1422 14.8678L24.0613 15.1167H23.7997L24.0112 15.2706ZM32.5531 14.7643V16.5343H28.2664L28.1925 16.3062L28.404 16.1526H28.1424L28.0615 15.9037L27.9806 16.1526H27.719L27.9312 16.3062L27.8569 16.5343H23.5935V14.7643H32.5531ZM28.2447 16.5343H27.8786L28.0618 16.4014L28.2447 16.5343ZM33.8563 13.8998L34.0685 13.7459H33.8072L33.7263 13.497L33.6454 13.7459H33.3834L33.595 13.8998L33.5141 14.1486L33.7263 13.9947L33.9379 14.1486L33.8563 13.8998ZM35.0127 12.3595L35.2249 12.2056H34.9636L34.8827 11.9567L34.8017 12.2056H34.5395L34.7511 12.3595L34.6704 12.608L34.8827 12.4544L35.0942 12.608L35.0127 12.3595ZM35.808 10.4789L36.0202 10.3249H35.7583L35.6773 10.0761L35.5964 10.3249H35.3351L35.5467 10.4789L35.4658 10.7277L35.6773 10.5738L35.8896 10.7277L35.808 10.4789ZM36.1709 14.2933H33.0199V7.62541H36.1709V8.2627H36.0148L35.9339 8.01384L35.8529 8.2627H35.591L35.8026 8.4166L35.7216 8.66546L35.9339 8.51156L36.1454 8.66546L36.0639 8.4166L36.1709 8.33885V14.2933Z" fill="#7B869A"/>
</svg>
