<svg width="60" height="17" viewBox="0 0 60 17" fill="none" xmlns="http://www.w3.org/2000/svg">
<path fill-rule="evenodd" clip-rule="evenodd" d="M25.1204 16.1223V12.0143C25.2048 12.0826 25.2835 12.1485 25.3588 12.2117C25.5218 12.3485 25.6693 12.4722 25.827 12.5783C27.4981 13.7029 30.05 13.2954 31.4722 11.665C32.6536 10.31 32.9719 8.70892 32.6719 6.97655C32.2673 4.65766 30.7648 2.86995 28.1864 2.78313C26.9792 2.74283 25.8978 3.04365 25.0864 4.01918C25.0726 4.03595 25.0515 4.04644 25.0175 4.06334C24.9975 4.07335 24.9729 4.08556 24.9428 4.10254V3.12225H22.2223V16.1223H25.1204ZM27.4478 10.4686C26.1168 10.4693 25.0006 9.33919 24.9911 7.98086C25.0428 6.86924 25.8005 5.52112 27.4179 5.51629C28.0701 5.51353 28.6961 5.77397 29.1555 6.23924C29.6149 6.70451 29.8692 7.33561 29.8616 7.99114C29.8473 9.36721 28.7788 10.4679 27.4478 10.4686Z" fill="#888F99"/>
<path fill-rule="evenodd" clip-rule="evenodd" d="M41.2216 16.1223V12.0619C41.3445 12.1465 41.4618 12.2333 41.5769 12.3184C41.8194 12.4977 42.0521 12.6696 42.3064 12.7993C44.1398 13.7326 46.6293 13.0594 47.8746 11.3013C48.9159 9.83131 49.1084 8.19748 48.6661 6.49058C48.2019 4.69831 47.1737 3.36758 45.2967 2.9402C43.7396 2.58583 42.2676 2.75649 41.1379 4.07901C41.1341 4.08363 41.1205 4.08004 41.0977 4.07404C41.0832 4.07025 41.065 4.06548 41.0433 4.06127V3.13681H38.3334V16.1223H41.2216ZM43.5477 10.4752C42.2118 10.4704 41.0984 9.34181 41.0937 7.98714C41.1488 6.86806 41.9117 5.52919 43.5259 5.52919C44.1788 5.52623 44.8055 5.78695 45.2646 6.2527C45.7237 6.71845 45.9766 7.34996 45.9664 8.00487C45.9459 9.38274 44.8836 10.4799 43.5477 10.4752Z" fill="#888F99"/>
<path fill-rule="evenodd" clip-rule="evenodd" d="M52.2622 8.65778H59.3589C59.7734 6.61224 58.6884 3.74086 55.8095 2.9656C53.0804 2.23298 50.4 3.72713 49.6483 6.35297C48.8777 9.04314 50.3544 11.797 52.9959 12.5723C55.7673 13.3862 58.2212 11.7739 59.0772 9.55975C59.075 9.55754 59.0723 9.55471 59.0701 9.55188C59.065 9.54622 59.0606 9.5407 59.0561 9.5407C58.8467 9.54022 58.6372 9.53911 58.4278 9.53794C57.7872 9.53456 57.1478 9.53111 56.5078 9.54595C56.3156 9.55319 56.1323 9.62565 55.9889 9.75077C55.3872 10.3311 54.6757 10.5017 53.8656 10.3705C52.9657 10.2228 52.2676 9.48232 52.2622 8.65778ZM54.1245 5.18049C55.3959 5.08925 56.3617 5.70241 56.5628 6.76517H52.3333C52.3548 6.04512 53.1427 5.25074 54.1245 5.18049Z" fill="#888F99"/>
<path d="M0.00204751 16.1222V15.8632C0.00204751 12.6225 -0.00255939 9.38184 0.00204751 6.13849C0.00533854 4.46291 1.12089 3.08243 2.75309 2.83337C3.47047 2.72433 4.21746 2.81501 5 2.81501V3.08767C5 6.27361 5 9.45961 5 12.6455C5 14.6825 3.56393 16.1116 1.52434 16.1188C1.03533 16.1235 0.542384 16.1222 0.00204751 16.1222Z" fill="#888F99"/>
<path d="M6.66672 10.5465V0.000148604C7.5938 0.0485939 8.51753 -0.116065 9.41353 0.207662C10.7332 0.675001 11.6304 1.96184 11.6553 3.42265C11.6732 4.59859 11.6659 5.77446 11.6613 6.95032C11.6527 8.95618 10.3742 10.4088 8.47132 10.5471C7.88187 10.5831 7.28849 10.5465 6.66672 10.5465Z" fill="#888F99"/>
<path d="M36.6666 12.787H33.8888V3.33597H36.6666V12.787Z" fill="#888F99"/>
<path d="M36.6666 1.0533e-05V2.2238H33.8888V1.0533e-05H36.6666Z" fill="#888F99"/>
</svg>
