<svg width="74" height="20" viewBox="0 0 74 20" fill="none" xmlns="http://www.w3.org/2000/svg">
<path fill-rule="evenodd" clip-rule="evenodd" d="M26.8011 6.03009L26.863 7.12104C27.5693 6.27726 28.4965 5.85537 29.6443 5.85537C31.6332 5.85537 32.6456 6.98108 32.6808 9.23248V15.4705H30.5363V9.35458C30.5363 8.7555 30.4054 8.31226 30.1437 8.02389C29.8819 7.73601 29.4535 7.59207 28.859 7.59207C27.9936 7.59207 27.3488 7.97922 26.9259 8.75252V15.4705H24.7804V6.03009H26.8021H26.8011ZM39.073 15.6452C37.7138 15.6452 36.6114 15.2223 35.7672 14.3761C34.9225 13.5298 34.5001 12.4026 34.5001 10.995V10.7334C34.5001 9.79136 34.6839 8.94907 35.0518 8.20754C35.4193 7.466 35.9363 6.88876 36.6013 6.4753C37.2663 6.06284 38.0078 5.85637 38.8263 5.85637C40.1266 5.85637 41.1319 6.26634 41.8407 7.0863C42.5505 7.90675 42.9049 9.0667 42.9049 10.5676V11.4228H36.6627C36.7282 12.2021 36.9909 12.8185 37.4531 13.2722C37.9152 13.7259 38.4966 13.9527 39.1968 13.9527C40.1795 13.9527 40.9799 13.5606 41.5981 12.7749L42.7544 13.8658C42.3718 14.4297 41.8613 14.8674 41.223 15.1787C40.5842 15.4899 39.8674 15.6452 39.073 15.6452ZM38.8173 7.55783C38.2283 7.55783 37.7536 7.76133 37.3916 8.16833C37.0292 8.57533 36.7986 9.14264 36.6985 9.86978H40.7861V9.71244C40.7388 9.00268 40.5475 8.46663 40.2122 8.10281C39.8764 7.73949 39.4118 7.55783 38.8173 7.55783ZM47.2568 3.736V6.03058H48.9432V7.60101H47.2568V12.8707C47.2568 13.231 47.3293 13.4911 47.4733 13.6514C47.6172 13.8112 47.875 13.8911 48.246 13.8911C48.4986 13.8904 48.7502 13.8611 48.9961 13.8038V15.4442C48.5078 15.5782 48.0371 15.6447 47.5835 15.6447C45.9359 15.6447 45.1118 14.7463 45.1118 12.9491V7.60051H43.5392V6.03009H45.1108V3.7355H47.2558L47.2568 3.736ZM52.8632 15.471H50.7177V2.06978H52.8632V15.471ZM57.4804 15.471H55.3349V6.03058H57.4804V15.471ZM55.2025 3.57866C55.2025 3.25355 55.3067 2.98305 55.5156 2.76763C55.725 2.55272 56.0235 2.44501 56.4117 2.44501C56.8003 2.44501 57.1003 2.55272 57.3127 2.76763C57.5242 2.98305 57.6299 3.25355 57.6299 3.57915C57.6299 3.8988 57.5242 4.16483 57.3127 4.37727C57.1003 4.5897 56.8003 4.69592 56.4117 4.69592C56.0235 4.69592 55.725 4.5897 55.5156 4.37727C55.3067 4.16533 55.2025 3.8983 55.2025 3.57866ZM60.5703 15.471V7.60051H59.1134V6.03009H60.5703V5.16645C60.5703 4.11917 60.8642 3.31113 61.4527 2.74083C62.0417 2.17103 62.8653 1.88613 63.9244 1.88613C64.3015 1.88613 64.7017 1.93825 65.1255 2.04298L65.0727 3.70076C64.8019 3.65121 64.527 3.62794 64.2516 3.63127C63.2272 3.63127 62.7152 4.15143 62.7152 5.19276V6.03009H64.6574V7.60051H62.7152V15.4705L60.5703 15.471ZM69.566 12.4349L71.5082 6.03058H73.7946L69.999 16.9019C69.416 18.4897 68.4273 19.2839 67.0324 19.2839C66.7203 19.2839 66.376 19.2313 65.9994 19.1266V17.4861L66.4057 17.5124C66.9468 17.5124 67.3546 17.4152 67.6284 17.2201C67.9018 17.0255 68.1183 16.6985 68.2773 16.2388L68.5859 15.4273L65.2312 6.03058H67.5444L69.566 12.4349Z" fill="#888F99"/>
<path d="M13.9729 6.60435L13.9659 6.60138C13.9618 6.59989 13.9578 6.5984 13.9543 6.59492C13.9485 6.58881 13.9442 6.58146 13.9418 6.57346C13.9393 6.56546 13.9388 6.55701 13.9402 6.54876L14.3293 4.20305L16.1541 6.00279L14.2563 6.79892C14.2511 6.80102 14.2454 6.80203 14.2397 6.8019H14.2322C14.2296 6.80041 14.2271 6.79842 14.2221 6.79346C14.1515 6.71592 14.067 6.65183 13.9729 6.60435ZM16.6198 6.46141L18.571 8.38523C18.9762 8.78528 19.1791 8.98481 19.2531 9.2161C19.2642 9.25035 19.2732 9.2846 19.2803 9.31984L14.6173 7.37269C14.6148 7.37167 14.6122 7.37068 14.6097 7.36971C14.5911 7.36227 14.5694 7.35383 14.5694 7.33497C14.5694 7.31611 14.5916 7.30717 14.6102 7.29973L14.6163 7.29725L16.6198 6.46141ZM19.2007 9.93729C19.1001 10.1239 18.9037 10.3175 18.5715 10.6456L16.3716 12.8141L13.5264 12.2299L13.5113 12.2269C13.4861 12.2229 13.4594 12.2185 13.4594 12.1961C13.4486 12.0804 13.4138 11.9681 13.3571 11.8662C13.3003 11.7644 13.2229 11.6751 13.1297 11.604C13.1181 11.5926 13.1212 11.5747 13.1247 11.5583C13.1247 11.5559 13.1247 11.5534 13.1257 11.5514L13.6608 8.31227L13.6628 8.30135C13.6658 8.27653 13.6704 8.24774 13.693 8.24774C13.8077 8.23367 13.9184 8.19725 14.0186 8.14058C14.1189 8.08391 14.2067 8.00814 14.277 7.91767C14.2815 7.91271 14.2845 7.90725 14.2906 7.90427C14.3067 7.89683 14.3258 7.90427 14.3424 7.91122L19.2007 9.93729ZM15.8657 13.3129L12.2483 16.8796L12.8674 13.1273L12.8684 13.1223C12.869 13.1173 12.87 13.1124 12.8715 13.1079C12.8765 13.096 12.8896 13.091 12.9022 13.0861L12.9082 13.0836C13.0438 13.0266 13.1637 12.9386 13.2581 12.827C13.2702 12.8131 13.2848 12.7997 13.3034 12.7972C13.3082 12.7964 13.3132 12.7964 13.318 12.7972L15.8657 13.3129ZM11.4826 17.6346L11.0748 18.0366L6.56687 11.6129C6.56524 11.6106 6.56356 11.6083 6.56184 11.606C6.55479 11.5966 6.54724 11.5871 6.54875 11.5762C6.54875 11.5683 6.55429 11.5613 6.55982 11.5554L6.56486 11.5489C6.57845 11.5291 6.59003 11.5092 6.60261 11.4879L6.61268 11.4705L6.61419 11.469C6.62124 11.4571 6.62778 11.4457 6.63986 11.4392C6.65043 11.4343 6.66503 11.4362 6.67661 11.4387L11.6709 12.4542C11.6848 12.4564 11.698 12.462 11.7091 12.4706C11.7157 12.4771 11.7172 12.484 11.7187 12.492C11.7535 12.6219 11.8184 12.7422 11.9081 12.8433C11.9979 12.9445 12.1102 13.0238 12.2362 13.0752C12.2503 13.0821 12.2442 13.0975 12.2377 13.1139C12.2344 13.1211 12.2319 13.1285 12.2301 13.1362C12.1672 13.5134 11.6276 16.7585 11.4826 17.6346ZM10.6308 18.4739C10.3303 18.7672 10.1531 18.9226 9.95275 18.9851C9.7552 19.0467 9.54319 19.0467 9.34565 18.9851C9.11106 18.9116 8.90819 18.7121 8.50295 18.3121L3.97586 13.8485L5.15835 12.0403C5.16389 12.0314 5.16943 12.0234 5.17849 12.017C5.19107 12.008 5.2092 12.012 5.2243 12.017C5.49571 12.0977 5.78712 12.0831 6.04887 11.9758C6.06246 11.9708 6.07605 11.9673 6.08663 11.9768C6.09191 11.9815 6.09664 11.9868 6.10072 11.9926L10.6308 18.4739ZM3.53891 13.4181L2.5009 12.3942L4.55175 11.5315C4.557 11.5293 4.56265 11.5281 4.56837 11.5281C4.58548 11.5281 4.59555 11.5449 4.60461 11.5603C4.62522 11.5916 4.64705 11.6221 4.67005 11.6517L4.6766 11.6596C4.68264 11.668 4.67861 11.6765 4.67257 11.6844L3.53992 13.4181H3.53891ZM2.04079 11.941L0.726912 10.6456C0.503401 10.4252 0.341306 10.2654 0.228544 10.1279L4.22354 10.9449C4.22856 10.9458 4.23359 10.9466 4.23864 10.9473C4.26331 10.9513 4.29049 10.9558 4.29049 10.9786C4.29049 11.0034 4.26079 11.0148 4.23562 11.0243L4.22404 11.0292L2.04079 11.941ZM0 9.46179C0.00455284 9.37834 0.0197753 9.29579 0.0453061 9.2161C0.11981 8.98481 0.322177 8.78528 0.727918 8.38523L2.40928 6.72745C3.18343 7.83522 3.95967 8.94157 4.73801 10.0465C4.75161 10.0644 4.76671 10.0842 4.7511 10.0991C4.67761 10.179 4.60411 10.2664 4.55226 10.3612C4.54663 10.3733 4.53798 10.3839 4.52709 10.3919C4.52054 10.3959 4.5135 10.3944 4.50595 10.3929H4.50494L0 9.46179ZM2.85932 6.28372L5.11959 4.05465C5.33253 4.14647 6.10626 4.4686 6.79743 4.75647C7.32097 4.97486 7.79819 5.1734 7.9482 5.23793C7.96331 5.24388 7.9769 5.24984 7.98344 5.26473C7.98747 5.27366 7.98546 5.28508 7.98344 5.29451C7.94766 5.45541 7.95298 5.62256 7.99893 5.78093C8.04489 5.9393 8.13004 6.08393 8.24672 6.20182C8.26182 6.21671 8.24672 6.23805 8.23363 6.25642L8.22658 6.26684L5.93107 9.7725C5.92503 9.78243 5.9195 9.79087 5.90943 9.79732C5.89735 9.80476 5.88023 9.80129 5.86614 9.79782C5.77686 9.77475 5.68507 9.76242 5.59279 9.76109C5.51023 9.76109 5.42063 9.77598 5.33001 9.79236C5.31995 9.79385 5.31038 9.79583 5.30233 9.78987C5.29343 9.78271 5.28578 9.77416 5.27967 9.76456L2.85932 6.28372ZM5.57668 3.60447L8.50346 0.718736C8.90869 0.319181 9.11156 0.119156 9.34615 0.0461933C9.5437 -0.0153978 9.75571 -0.0153978 9.95325 0.0461933C10.1878 0.119156 10.3907 0.319181 10.7959 0.718736L11.4302 1.34413L9.34816 4.5222C9.34301 4.53145 9.33599 4.53956 9.32752 4.54603C9.31494 4.55446 9.29732 4.55099 9.28222 4.54603C9.1181 4.49692 8.94432 4.48798 8.77591 4.51998C8.60751 4.55198 8.44954 4.62395 8.31569 4.72967C8.3021 4.74357 8.28196 4.73563 8.26484 4.72818C7.99301 4.61154 5.87922 3.73103 5.57668 3.60447ZM11.8722 1.77991L13.7942 3.67495L13.3311 6.5031V6.51055C13.3307 6.51699 13.3293 6.52334 13.327 6.52941C13.322 6.53933 13.3119 6.54132 13.3019 6.5443C13.2029 6.57387 13.1096 6.61968 13.026 6.6798C13.0224 6.68232 13.0191 6.68515 13.0159 6.68824C13.0104 6.69419 13.0049 6.69965 12.9958 6.70064C12.9884 6.70087 12.9811 6.69969 12.9742 6.69717L10.0454 5.47021L10.0398 5.46773C10.0212 5.46029 9.99906 5.45135 9.99906 5.43249C9.98185 5.27157 9.92854 5.11644 9.84301 4.97834C9.82891 4.95551 9.81331 4.93168 9.82539 4.90835L11.8722 1.77991ZM9.89184 6.05093L12.6374 7.19748C12.6525 7.20443 12.6691 7.21088 12.6756 7.22627C12.6783 7.23552 12.6783 7.24531 12.6756 7.25456C12.6676 7.29427 12.6605 7.33944 12.6605 7.3851V7.46104C12.6605 7.4799 12.6409 7.48784 12.6228 7.49529L12.6173 7.49727C12.1823 7.68042 6.51099 10.0648 6.50244 10.0648C6.49388 10.0648 6.48482 10.0648 6.47626 10.0564C6.46116 10.0415 6.47626 10.0207 6.48985 10.0018C6.49225 9.99854 6.4946 9.99523 6.4969 9.99188L8.75314 6.54727L8.75717 6.54132C8.77026 6.52047 8.78536 6.49714 8.80952 6.49714L8.83218 6.50062C8.88352 6.50757 8.92883 6.51402 8.97464 6.51402C9.31695 6.51402 9.6341 6.34973 9.82539 6.0688C9.82995 6.0613 9.83573 6.05459 9.8425 6.04895C9.85609 6.03902 9.87623 6.04398 9.89184 6.05093ZM6.74759 10.6098L12.9294 8.01049C12.9294 8.01049 12.9384 8.01049 12.947 8.01893C12.9807 8.05218 13.0094 8.07452 13.0371 8.09536L13.0507 8.1038C13.0633 8.11075 13.0758 8.11869 13.0769 8.1316C13.0769 8.13656 13.0769 8.13954 13.0758 8.14401L12.5468 11.3519L12.5448 11.3648C12.5412 11.3896 12.5377 11.4179 12.5141 11.4179C12.3729 11.4273 12.2361 11.4705 12.1157 11.5437C11.9953 11.617 11.8947 11.7181 11.8229 11.8383L11.8204 11.8422C11.8133 11.8537 11.8068 11.8646 11.7952 11.8705C11.7846 11.8755 11.771 11.8735 11.76 11.871L6.83015 10.8684C6.82512 10.8674 6.75313 10.6103 6.74759 10.6098Z" fill="#888F99"/>
</svg>
