<svg width="400" height="174" viewBox="0 0 400 174" fill="none" xmlns="http://www.w3.org/2000/svg">
<g clip-path="url(#clip0_93_3280)">
<g filter="url(#filter0_dd_93_3280)">
<rect width="400" height="174" fill="#6366F1"/>
</g>
<g filter="url(#filter1_d_93_3280)">
<rect x="34" y="30" width="98" height="37" rx="2" fill="white"/>
</g>
<path d="M91.75 40.8571V42.6429C91.75 44.2165 87.8307 45.5 83 45.5C78.1693 45.5 74.25 44.2165 74.25 42.6429V40.8571C74.25 39.2835 78.1693 38 83 38C87.8307 38 91.75 39.2835 91.75 40.8571ZM91.75 44.875V48.8929C91.75 50.4665 87.8307 51.75 83 51.75C78.1693 51.75 74.25 50.4665 74.25 48.8929V44.875C76.1299 46.1696 79.5706 46.7723 83 46.7723C86.4294 46.7723 89.8701 46.1696 91.75 44.875ZM91.75 51.125V55.1429C91.75 56.7165 87.8307 58 83 58C78.1693 58 74.25 56.7165 74.25 55.1429V51.125C76.1299 52.4196 79.5706 53.0223 83 53.0223C86.4294 53.0223 89.8701 52.4196 91.75 51.125Z" fill="#3B82F6"/>
<g filter="url(#filter2_d_93_3280)">
<rect x="34" y="107" width="98" height="37" rx="2" fill="white"/>
</g>
<path d="M91.75 118.857V120.643C91.75 122.217 87.8307 123.5 83 123.5C78.1693 123.5 74.25 122.217 74.25 120.643V118.857C74.25 117.283 78.1693 116 83 116C87.8307 116 91.75 117.283 91.75 118.857ZM91.75 122.875V126.893C91.75 128.467 87.8307 129.75 83 129.75C78.1693 129.75 74.25 128.467 74.25 126.893V122.875C76.1299 124.17 79.5706 124.772 83 124.772C86.4294 124.772 89.8701 124.17 91.75 122.875ZM91.75 129.125V133.143C91.75 134.717 87.8307 136 83 136C78.1693 136 74.25 134.717 74.25 133.143V129.125C76.1299 130.42 79.5706 131.022 83 131.022C86.4294 131.022 89.8701 130.42 91.75 129.125Z" fill="#3B82F6"/>
<line x1="247.308" y1="87.6923" x2="297.692" y2="87.6923" stroke="#F59E0B" stroke-width="2.61538" stroke-linecap="round" stroke-dasharray="3.92 3.92"/>
<g filter="url(#filter3_d_93_3280)">
<rect x="299" y="69" width="68" height="37" rx="2.61538" fill="white"/>
</g>
<path d="M338.25 76H327.75C326.508 76 325.5 77.0078 325.5 78.25V97.75C325.5 98.9922 326.508 100 327.75 100H338.25C339.492 100 340.5 98.9922 340.5 97.75V78.25C340.5 77.0078 339.492 76 338.25 76ZM333 98.5C332.17 98.5 331.5 97.8297 331.5 97C331.5 96.1703 332.17 95.5 333 95.5C333.83 95.5 334.5 96.1703 334.5 97C334.5 97.8297 333.83 98.5 333 98.5Z" fill="#3B82F6"/>
<g filter="url(#filter4_d_93_3280)">
<rect x="176" y="108" width="37.9231" height="36.6154" rx="18.3077" fill="white"/>
</g>
<g clip-path="url(#clip1_93_3280)">
<path d="M203.192 124.25C203.697 122.726 203.394 119.683 202.415 118.56C202.288 118.413 202.047 118.434 201.941 118.596L200.736 120.43C200.437 120.798 199.9 120.881 199.497 120.625C198.19 119.796 196.627 119.314 194.947 119.314C193.267 119.314 191.704 119.796 190.397 120.625C189.994 120.881 189.458 120.795 189.159 120.43L187.953 118.596C187.847 118.434 187.607 118.413 187.479 118.56C186.501 119.683 186.198 122.726 186.702 124.25C186.869 124.756 186.916 125.291 186.817 125.814C186.719 126.33 186.62 126.955 186.62 127.388C186.62 131.845 190.349 135.462 194.947 135.462C199.547 135.462 203.275 131.848 203.275 127.388C203.275 126.953 203.177 126.33 203.078 125.814C202.978 125.291 203.026 124.756 203.192 124.25ZM194.947 133.657C191.393 133.657 188.501 130.853 188.501 127.407C188.501 127.293 188.505 127.182 188.509 127.071C188.639 124.722 190.109 122.714 192.192 121.757C193.027 121.37 193.962 121.156 194.947 121.156C195.932 121.156 196.867 121.373 197.705 121.759C199.787 122.716 201.257 124.724 201.387 127.071C201.394 127.182 201.396 127.293 201.396 127.407C201.394 130.853 198.502 133.657 194.947 133.657Z" fill="black"/>
<path d="M197.739 129.812L196.092 127.043L194.679 124.735C194.646 124.68 194.586 124.647 194.518 124.647H193.168C193.101 124.647 193.04 124.682 193.007 124.737C192.975 124.794 192.975 124.863 193.01 124.917L194.36 127.121L192.546 129.803C192.51 129.858 192.505 129.929 192.538 129.988C192.57 130.047 192.633 130.082 192.7 130.082H194.06C194.122 130.082 194.181 130.051 194.215 130.001L195.196 128.515L196.075 129.992C196.107 130.049 196.17 130.082 196.235 130.082H197.575C197.642 130.082 197.703 130.049 197.735 129.992C197.774 129.935 197.774 129.868 197.739 129.812Z" fill="black"/>
</g>
<g filter="url(#filter5_d_93_3280)">
<rect x="176" y="30" width="37.9231" height="36.6154" rx="18.3077" fill="white"/>
</g>
<g clip-path="url(#clip2_93_3280)">
<path d="M203.192 46.25C203.697 44.7263 203.394 41.6831 202.415 40.5602C202.288 40.4133 202.047 40.4343 201.941 40.5959L200.736 42.4302C200.437 42.7975 199.9 42.8815 199.497 42.6254C198.19 41.7964 196.627 41.3137 194.947 41.3137C193.267 41.3137 191.704 41.7964 190.397 42.6254C189.994 42.8815 189.458 42.7954 189.159 42.4302L187.953 40.5959C187.847 40.4343 187.607 40.4133 187.479 40.5602C186.501 41.6831 186.198 44.7263 186.702 46.25C186.869 46.7558 186.916 47.291 186.817 47.8136C186.719 48.3299 186.62 48.9553 186.62 49.3876C186.62 53.8454 190.349 57.4616 194.947 57.4616C199.547 57.4616 203.275 53.8475 203.275 49.3876C203.275 48.9532 203.177 48.3299 203.078 47.8136C202.978 47.291 203.026 46.7558 203.192 46.25ZM194.947 55.6566C191.393 55.6566 188.501 52.8527 188.501 49.4065C188.501 49.2932 188.505 49.1819 188.509 49.0707C188.639 46.7222 190.109 44.7137 192.192 43.7566C193.027 43.3705 193.962 43.1564 194.947 43.1564C195.932 43.1564 196.867 43.3726 197.705 43.7587C199.787 44.7158 201.257 46.7243 201.387 49.0707C201.394 49.1819 201.396 49.2932 201.396 49.4065C201.394 52.8527 198.502 55.6566 194.947 55.6566Z" fill="black"/>
<path d="M197.739 51.8117L196.092 49.0434L194.679 46.7347C194.646 46.6802 194.586 46.6466 194.518 46.6466H193.168C193.101 46.6466 193.04 46.6823 193.007 46.7368C192.975 46.7935 192.975 46.8628 193.01 46.9174L194.36 49.1211L192.546 51.8033C192.51 51.8578 192.505 51.9292 192.538 51.988C192.57 52.0467 192.633 52.0824 192.7 52.0824H194.06C194.122 52.0824 194.181 52.0509 194.215 52.0006L195.196 50.5146L196.075 51.9922C196.107 52.0488 196.17 52.0824 196.235 52.0824H197.575C197.642 52.0824 197.703 52.0488 197.735 51.9922C197.774 51.9355 197.774 51.8683 197.739 51.8117Z" fill="black"/>
</g>
<g filter="url(#filter6_d_93_3280)">
<rect x="244" y="69.1924" width="37.9231" height="36.6154" rx="18.3077" fill="white"/>
</g>
<g clip-path="url(#clip3_93_3280)">
<path d="M271.192 85.4424C271.697 83.9187 271.394 80.8754 270.415 79.7526C270.288 79.6057 270.047 79.6267 269.941 79.7883L268.736 81.6226C268.437 81.9899 267.9 82.0738 267.497 81.8178C266.19 80.9888 264.627 80.5061 262.947 80.5061C261.267 80.5061 259.704 80.9888 258.397 81.8178C257.994 82.0738 257.458 81.9878 257.159 81.6226L255.953 79.7883C255.847 79.6267 255.607 79.6057 255.479 79.7526C254.501 80.8754 254.198 83.9187 254.702 85.4424C254.869 85.9482 254.916 86.4833 254.817 87.0059C254.719 87.5222 254.62 88.1477 254.62 88.58C254.62 93.0378 258.349 96.654 262.947 96.654C267.547 96.654 271.275 93.0399 271.275 88.58C271.275 88.1456 271.177 87.5222 271.078 87.0059C270.978 86.4833 271.026 85.9482 271.192 85.4424ZM262.947 94.849C259.393 94.849 256.501 92.0451 256.501 88.5989C256.501 88.4856 256.505 88.3743 256.509 88.2631C256.639 85.9146 258.109 83.9061 260.192 82.949C261.027 82.5629 261.962 82.3488 262.947 82.3488C263.932 82.3488 264.867 82.565 265.705 82.9511C267.787 83.9082 269.257 85.9167 269.387 88.2631C269.394 88.3743 269.396 88.4856 269.396 88.5989C269.394 92.0451 266.502 94.849 262.947 94.849Z" fill="black"/>
<path d="M265.739 91.0041L264.092 88.2358L262.679 85.9271C262.646 85.8726 262.586 85.839 262.518 85.839H261.168C261.101 85.839 261.04 85.8747 261.007 85.9292C260.975 85.9859 260.975 86.0552 261.01 86.1097L262.36 88.3134L260.546 90.9957C260.51 91.0502 260.505 91.1216 260.538 91.1803C260.57 91.2391 260.633 91.2748 260.7 91.2748H262.06C262.122 91.2748 262.181 91.2433 262.215 91.1929L263.196 89.707L264.075 91.1845C264.107 91.2412 264.17 91.2748 264.235 91.2748H265.575C265.642 91.2748 265.703 91.2412 265.735 91.1845C265.774 91.1279 265.774 91.0607 265.739 91.0041Z" fill="black"/>
</g>
<rect x="272.266" y="62.151" width="19.3136" height="19.3136" rx="9.65681" fill="white"/>
<g clip-path="url(#clip4_93_3280)">
<path d="M277.504 74.2993L277.908 74.5184L282.419 67.1941L282.014 66.975L277.504 74.2993Z" fill="#E535AB"/>
<path d="M286.432 73.7141H277.411V74.1524H286.432V73.7141Z" fill="#E535AB"/>
<path d="M277.589 73.9604L282.102 76.4029L282.335 76.0233L277.823 73.5808L277.589 73.9604Z" fill="#E535AB"/>
<path d="M281.509 67.5946L286.021 70.0371L286.255 69.6575L281.743 67.215L281.509 67.5946Z" fill="#E535AB"/>
<path d="M277.591 69.6559L277.824 70.0355L282.337 67.593L282.103 67.2134L277.591 69.6559Z" fill="#E535AB"/>
<path d="M281.428 67.1941L285.938 74.5184L286.343 74.2993L281.833 66.975L281.428 67.1941Z" fill="#E535AB"/>
<path d="M278.236 69.3653H277.768V74.2503H278.236V69.3653Z" fill="#E535AB"/>
<path d="M286.077 69.3653H285.61V74.2503H286.077V69.3653Z" fill="#E535AB"/>
<path d="M281.818 75.886L282.022 76.2175L285.947 74.0932L285.742 73.7616L281.818 75.886Z" fill="#E535AB"/>
<path d="M286.697 74.3928C286.426 74.8338 285.824 74.9843 285.353 74.7308C284.883 74.4773 284.722 73.9122 284.993 73.4713C285.263 73.0303 285.866 72.8798 286.336 73.1333C286.81 73.3894 286.97 73.9518 286.697 74.3928Z" fill="#E535AB"/>
<path d="M278.85 70.1442C278.58 70.5852 277.977 70.7357 277.506 70.4822C277.036 70.2287 276.876 69.6636 277.146 69.2226C277.416 68.7817 278.019 68.6312 278.489 68.8846C278.96 69.1408 279.12 69.7032 278.85 70.1442Z" fill="#E535AB"/>
<path d="M277.149 74.3928C276.878 73.9518 277.039 73.3894 277.509 73.1333C277.98 72.8798 278.58 73.0303 278.853 73.4713C279.123 73.9122 278.963 74.4747 278.492 74.7308C278.019 74.9843 277.419 74.8338 277.149 74.3928Z" fill="#E535AB"/>
<path d="M284.996 70.1442C284.725 69.7032 284.886 69.1408 285.356 68.8846C285.827 68.6312 286.427 68.7817 286.7 69.2226C286.97 69.6636 286.81 70.226 286.339 70.4822C285.869 70.7357 285.266 70.5852 284.996 70.1442Z" fill="#E535AB"/>
<path d="M281.923 76.9779C281.379 76.9779 280.94 76.566 280.94 76.0564C280.94 75.5467 281.379 75.1348 281.923 75.1348C282.467 75.1348 282.906 75.5467 282.906 76.0564C282.906 76.5634 282.467 76.9779 281.923 76.9779Z" fill="#E535AB"/>
<path d="M281.923 68.4806C281.379 68.4806 280.94 68.0687 280.94 67.5591C280.94 67.0495 281.379 66.6375 281.923 66.6375C282.467 66.6375 282.906 67.0495 282.906 67.5591C282.906 68.0687 282.467 68.4806 281.923 68.4806Z" fill="#E535AB"/>
</g>
<rect x="272.266" y="62.151" width="19.3136" height="19.3136" rx="9.65681" stroke="#6366F1" stroke-width="1.60947"/>
<path d="M217.923 126.308V126.308C224.019 126.308 228.961 121.366 228.961 115.269V98.5386C228.961 92.4422 233.903 87.5001 240 87.5001V87.5001" stroke="white" stroke-opacity="0.1" stroke-width="2" stroke-miterlimit="0" stroke-linecap="round" stroke-linejoin="bevel"/>
<path d="M217.923 48.3077V48.3077C224.04 48.3077 229 53.267 229 59.3846V76.5001C229 82.5752 233.925 87.5001 240 87.5001V87.5001" stroke="white" stroke-opacity="0.1" stroke-width="2" stroke-miterlimit="0" stroke-linecap="round" stroke-linejoin="bevel"/>
<path d="M146 43.8675C146 43.3153 145.324 42.9247 144.845 43.2009L137.155 47.641C136.676 47.9172 136.676 48.6982 137.155 48.9744L144.845 53.4145C145.324 53.6907 146 53.3002 146 52.7479V43.8675ZM162 52.7479C162 53.3002 162.676 53.6907 163.155 53.4145L170.845 48.9744C171.324 48.6982 171.324 47.9172 170.845 47.641L163.155 43.2009C162.676 42.9247 162 43.3153 162 43.8675V52.7479ZM145 49.3077H163V47.3077H145V49.3077Z" fill="white" fill-opacity="0.1"/>
<path d="M146 121.868C146 121.315 145.324 120.925 144.845 121.201L137.155 125.641C136.676 125.917 136.676 126.698 137.155 126.974L144.845 131.415C145.324 131.691 146 131.3 146 130.748V121.868ZM162 130.748C162 131.3 162.676 131.691 163.155 131.415L170.845 126.974C171.324 126.698 171.324 125.917 170.845 125.641L163.155 121.201C162.676 120.925 162 121.315 162 121.868V130.748ZM145 127.308H163V125.308H145V127.308Z" fill="white" fill-opacity="0.1"/>
</g>
<defs>
<filter id="filter0_dd_93_3280" x="-0.9375" y="-0.625" width="401.875" height="175.875" filterUnits="userSpaceOnUse" color-interpolation-filters="sRGB">
<feFlood flood-opacity="0" result="BackgroundImageFix"/>
<feColorMatrix in="SourceAlpha" type="matrix" values="0 0 0 0 0 0 0 0 0 0 0 0 0 0 0 0 0 0 127 0" result="hardAlpha"/>
<feMorphology radius="0.3125" operator="erode" in="SourceAlpha" result="effect1_dropShadow_93_3280"/>
<feOffset dy="0.3125"/>
<feGaussianBlur stdDeviation="0.3125"/>
<feComposite in2="hardAlpha" operator="out"/>
<feColorMatrix type="matrix" values="0 0 0 0 0 0 0 0 0 0 0 0 0 0 0 0 0 0 0.1 0"/>
<feBlend mode="normal" in2="BackgroundImageFix" result="effect1_dropShadow_93_3280"/>
<feColorMatrix in="SourceAlpha" type="matrix" values="0 0 0 0 0 0 0 0 0 0 0 0 0 0 0 0 0 0 127 0" result="hardAlpha"/>
<feOffset dy="0.3125"/>
<feGaussianBlur stdDeviation="0.46875"/>
<feComposite in2="hardAlpha" operator="out"/>
<feColorMatrix type="matrix" values="0 0 0 0 0 0 0 0 0 0 0 0 0 0 0 0 0 0 0.1 0"/>
<feBlend mode="normal" in2="effect1_dropShadow_93_3280" result="effect2_dropShadow_93_3280"/>
<feBlend mode="normal" in="SourceGraphic" in2="effect2_dropShadow_93_3280" result="shape"/>
</filter>
<filter id="filter1_d_93_3280" x="32" y="29" width="102" height="41" filterUnits="userSpaceOnUse" color-interpolation-filters="sRGB">
<feFlood flood-opacity="0" result="BackgroundImageFix"/>
<feColorMatrix in="SourceAlpha" type="matrix" values="0 0 0 0 0 0 0 0 0 0 0 0 0 0 0 0 0 0 127 0" result="hardAlpha"/>
<feOffset dy="1"/>
<feGaussianBlur stdDeviation="1"/>
<feComposite in2="hardAlpha" operator="out"/>
<feColorMatrix type="matrix" values="0 0 0 0 0 0 0 0 0 0 0 0 0 0 0 0 0 0 0.05 0"/>
<feBlend mode="normal" in2="BackgroundImageFix" result="effect1_dropShadow_93_3280"/>
<feBlend mode="normal" in="SourceGraphic" in2="effect1_dropShadow_93_3280" result="shape"/>
</filter>
<filter id="filter2_d_93_3280" x="32" y="106" width="102" height="41" filterUnits="userSpaceOnUse" color-interpolation-filters="sRGB">
<feFlood flood-opacity="0" result="BackgroundImageFix"/>
<feColorMatrix in="SourceAlpha" type="matrix" values="0 0 0 0 0 0 0 0 0 0 0 0 0 0 0 0 0 0 127 0" result="hardAlpha"/>
<feOffset dy="1"/>
<feGaussianBlur stdDeviation="1"/>
<feComposite in2="hardAlpha" operator="out"/>
<feColorMatrix type="matrix" values="0 0 0 0 0 0 0 0 0 0 0 0 0 0 0 0 0 0 0.05 0"/>
<feBlend mode="normal" in2="BackgroundImageFix" result="effect1_dropShadow_93_3280"/>
<feBlend mode="normal" in="SourceGraphic" in2="effect1_dropShadow_93_3280" result="shape"/>
</filter>
<filter id="filter3_d_93_3280" x="296.385" y="67.6923" width="73.2308" height="42.2308" filterUnits="userSpaceOnUse" color-interpolation-filters="sRGB">
<feFlood flood-opacity="0" result="BackgroundImageFix"/>
<feColorMatrix in="SourceAlpha" type="matrix" values="0 0 0 0 0 0 0 0 0 0 0 0 0 0 0 0 0 0 127 0" result="hardAlpha"/>
<feOffset dy="1.30769"/>
<feGaussianBlur stdDeviation="1.30769"/>
<feComposite in2="hardAlpha" operator="out"/>
<feColorMatrix type="matrix" values="0 0 0 0 0 0 0 0 0 0 0 0 0 0 0 0 0 0 0.05 0"/>
<feBlend mode="normal" in2="BackgroundImageFix" result="effect1_dropShadow_93_3280"/>
<feBlend mode="normal" in="SourceGraphic" in2="effect1_dropShadow_93_3280" result="shape"/>
</filter>
<filter id="filter4_d_93_3280" x="173.385" y="106.692" width="43.1539" height="41.8462" filterUnits="userSpaceOnUse" color-interpolation-filters="sRGB">
<feFlood flood-opacity="0" result="BackgroundImageFix"/>
<feColorMatrix in="SourceAlpha" type="matrix" values="0 0 0 0 0 0 0 0 0 0 0 0 0 0 0 0 0 0 127 0" result="hardAlpha"/>
<feOffset dy="1.30769"/>
<feGaussianBlur stdDeviation="1.30769"/>
<feComposite in2="hardAlpha" operator="out"/>
<feColorMatrix type="matrix" values="0 0 0 0 0 0 0 0 0 0 0 0 0 0 0 0 0 0 0.05 0"/>
<feBlend mode="normal" in2="BackgroundImageFix" result="effect1_dropShadow_93_3280"/>
<feBlend mode="normal" in="SourceGraphic" in2="effect1_dropShadow_93_3280" result="shape"/>
</filter>
<filter id="filter5_d_93_3280" x="173.385" y="28.6923" width="43.1539" height="41.8462" filterUnits="userSpaceOnUse" color-interpolation-filters="sRGB">
<feFlood flood-opacity="0" result="BackgroundImageFix"/>
<feColorMatrix in="SourceAlpha" type="matrix" values="0 0 0 0 0 0 0 0 0 0 0 0 0 0 0 0 0 0 127 0" result="hardAlpha"/>
<feOffset dy="1.30769"/>
<feGaussianBlur stdDeviation="1.30769"/>
<feComposite in2="hardAlpha" operator="out"/>
<feColorMatrix type="matrix" values="0 0 0 0 0 0 0 0 0 0 0 0 0 0 0 0 0 0 0.05 0"/>
<feBlend mode="normal" in2="BackgroundImageFix" result="effect1_dropShadow_93_3280"/>
<feBlend mode="normal" in="SourceGraphic" in2="effect1_dropShadow_93_3280" result="shape"/>
</filter>
<filter id="filter6_d_93_3280" x="241.385" y="67.8847" width="43.1539" height="41.8462" filterUnits="userSpaceOnUse" color-interpolation-filters="sRGB">
<feFlood flood-opacity="0" result="BackgroundImageFix"/>
<feColorMatrix in="SourceAlpha" type="matrix" values="0 0 0 0 0 0 0 0 0 0 0 0 0 0 0 0 0 0 127 0" result="hardAlpha"/>
<feOffset dy="1.30769"/>
<feGaussianBlur stdDeviation="1.30769"/>
<feComposite in2="hardAlpha" operator="out"/>
<feColorMatrix type="matrix" values="0 0 0 0 0 0 0 0 0 0 0 0 0 0 0 0 0 0 0.05 0"/>
<feBlend mode="normal" in2="BackgroundImageFix" result="effect1_dropShadow_93_3280"/>
<feBlend mode="normal" in="SourceGraphic" in2="effect1_dropShadow_93_3280" result="shape"/>
</filter>
<clipPath id="clip0_93_3280">
<rect width="400" height="174" fill="white"/>
</clipPath>
<clipPath id="clip1_93_3280">
<rect width="17" height="17" fill="white" transform="translate(186.461 118.462)"/>
</clipPath>
<clipPath id="clip2_93_3280">
<rect width="17" height="17" fill="white" transform="translate(186.461 40.4615)"/>
</clipPath>
<clipPath id="clip3_93_3280">
<rect width="17" height="17" fill="white" transform="translate(254.461 79.6539)"/>
</clipPath>
<clipPath id="clip4_93_3280">
<rect width="11.2663" height="10.5621" fill="white" transform="translate(276.29 66.5267)"/>
</clipPath>
</defs>
</svg>
