<svg width="400" height="174" viewBox="0 0 400 174" fill="none" xmlns="http://www.w3.org/2000/svg">
<g clip-path="url(#clip0_93_3118)">
<rect width="400" height="174" fill="#3B82F6"/>
<g filter="url(#filter0_d_93_3118)">
<rect x="75" y="69" width="98" height="37" rx="2.61538" fill="white"/>
</g>
<path d="M122.459 96.5813L120.171 95.9175C119.931 95.85 119.796 95.5988 119.864 95.3588L124.982 77.7263C125.05 77.4863 125.301 77.3513 125.541 77.4188L127.829 78.0825C128.069 78.15 128.204 78.4013 128.136 78.6413L123.017 96.2738C122.946 96.5138 122.699 96.6525 122.459 96.5813ZM118.184 92.3738L119.815 90.6338C119.987 90.45 119.976 90.1575 119.785 89.9888L116.387 87L119.785 84.0113C119.976 83.8425 119.991 83.55 119.815 83.3663L118.184 81.6263C118.015 81.4463 117.73 81.435 117.546 81.6075L112.142 86.67C111.951 86.8463 111.951 87.15 112.142 87.3263L117.546 92.3925C117.73 92.565 118.015 92.5575 118.184 92.3738ZM130.454 92.3963L135.857 87.33C136.049 87.1538 136.049 86.85 135.857 86.6738L130.454 81.6038C130.274 81.435 129.989 81.4425 129.816 81.6225L128.185 83.3625C128.012 83.5463 128.024 83.8388 128.215 84.0075L131.612 87L128.215 89.9888C128.024 90.1575 128.009 90.45 128.185 90.6338L129.816 92.3738C129.985 92.5575 130.27 92.565 130.454 92.3963Z" fill="#3B82F6"/>
<g filter="url(#filter1_d_93_3118)">
<rect x="75" y="118" width="98" height="37" rx="2.61538" fill="white"/>
</g>
<path d="M132.75 129.857V131.643C132.75 133.217 128.831 134.5 124 134.5C119.169 134.5 115.25 133.217 115.25 131.643V129.857C115.25 128.283 119.169 127 124 127C128.831 127 132.75 128.283 132.75 129.857ZM132.75 133.875V137.893C132.75 139.467 128.831 140.75 124 140.75C119.169 140.75 115.25 139.467 115.25 137.893V133.875C117.13 135.17 120.571 135.772 124 135.772C127.429 135.772 130.87 135.17 132.75 133.875ZM132.75 140.125V144.143C132.75 145.717 128.831 147 124 147C119.169 147 115.25 145.717 115.25 144.143V140.125C117.13 141.42 120.571 142.022 124 142.022C127.429 142.022 130.87 141.42 132.75 140.125Z" fill="#3B82F6"/>
<g filter="url(#filter2_d_93_3118)">
<rect x="75" y="19" width="98" height="37" rx="2.61538" fill="white"/>
</g>
<path d="M132.75 30.8571V32.6429C132.75 34.2165 128.831 35.5 124 35.5C119.169 35.5 115.25 34.2165 115.25 32.6429V30.8571C115.25 29.2835 119.169 28 124 28C128.831 28 132.75 29.2835 132.75 30.8571ZM132.75 34.875V38.8929C132.75 40.4665 128.831 41.75 124 41.75C119.169 41.75 115.25 40.4665 115.25 38.8929V34.875C117.13 36.1696 120.571 36.7723 124 36.7723C127.429 36.7723 130.87 36.1696 132.75 34.875ZM132.75 41.125V45.1429C132.75 46.7165 128.831 48 124 48C119.169 48 115.25 46.7165 115.25 45.1429V41.125C117.13 42.4196 120.571 43.0223 124 43.0223C127.429 43.0223 130.87 42.4196 132.75 41.125Z" fill="#3B82F6"/>
<line x1="174.385" y1="87.5" x2="272.462" y2="87.5" stroke="#F59E0B" stroke-width="2.61538" stroke-linecap="round" stroke-dasharray="3.92 3.92"/>
<g filter="url(#filter3_d_93_3118)">
<rect x="257" y="69" width="68" height="37" rx="2.61538" fill="white"/>
</g>
<path d="M296.25 76H285.75C284.508 76 283.5 77.0078 283.5 78.25V97.75C283.5 98.9922 284.508 100 285.75 100H296.25C297.492 100 298.5 98.9922 298.5 97.75V78.25C298.5 77.0078 297.492 76 296.25 76ZM291 98.5C290.17 98.5 289.5 97.8297 289.5 97C289.5 96.1703 290.17 95.5 291 95.5C291.83 95.5 292.5 96.1703 292.5 97C292.5 97.8297 291.83 98.5 291 98.5Z" fill="#3B82F6"/>
<g filter="url(#filter4_d_93_3118)">
<rect x="196.615" y="69.1923" width="37.9231" height="36.6154" rx="18.3077" fill="white"/>
</g>
<g clip-path="url(#clip1_93_3118)">
<path d="M223.808 85.4423C224.312 83.9186 224.009 80.8754 223.031 79.7525C222.903 79.6056 222.663 79.6266 222.557 79.7882L221.351 81.6225C221.052 81.9898 220.515 82.0738 220.113 81.8177C218.805 80.9887 217.242 80.506 215.563 80.506C213.883 80.506 212.32 80.9887 211.013 81.8177C210.61 82.0738 210.073 81.9877 209.774 81.6225L208.569 79.7882C208.463 79.6266 208.222 79.6056 208.095 79.7525C207.116 80.8754 206.813 83.9186 207.317 85.4423C207.484 85.9481 207.532 86.4833 207.432 87.0059C207.335 87.5222 207.235 88.1476 207.235 88.5799C207.235 93.0377 210.965 96.6539 215.563 96.6539C220.163 96.6539 223.89 93.0398 223.89 88.5799C223.89 88.1455 223.793 87.5222 223.693 87.0059C223.594 86.4833 223.641 85.9481 223.808 85.4423ZM215.563 94.849C212.008 94.849 209.116 92.045 209.116 88.5988C209.116 88.4855 209.121 88.3743 209.125 88.263C209.255 85.9145 210.725 83.906 212.807 82.949C213.643 82.5628 214.578 82.3487 215.563 82.3487C216.548 82.3487 217.483 82.5649 218.32 82.9511C220.403 83.9081 221.873 85.9166 222.003 88.263C222.009 88.3743 222.011 88.4855 222.011 88.5988C222.009 92.045 219.117 94.849 215.563 94.849Z" fill="black"/>
<path d="M218.355 91.004L216.708 88.2357L215.294 85.9271C215.262 85.8725 215.201 85.8389 215.134 85.8389H213.783C213.716 85.8389 213.655 85.8746 213.623 85.9292C213.59 85.9858 213.59 86.0551 213.625 86.1097L214.976 88.3134L213.162 90.9956C213.125 91.0502 213.121 91.1215 213.153 91.1803C213.186 91.2391 213.248 91.2747 213.316 91.2747H214.675C214.738 91.2747 214.796 91.2432 214.831 91.1929L215.811 89.707L216.69 91.1845C216.723 91.2411 216.786 91.2747 216.85 91.2747H218.19C218.258 91.2747 218.318 91.2411 218.351 91.1845C218.39 91.1278 218.39 91.0607 218.355 91.004Z" fill="black"/>
</g>
<rect x="224.882" y="62.1509" width="19.3136" height="19.3136" rx="9.65681" fill="white"/>
<g clip-path="url(#clip2_93_3118)">
<path d="M230.119 74.2992L230.524 74.5184L235.035 67.1941L234.63 66.9749L230.119 74.2992Z" fill="#E535AB"/>
<path d="M239.048 73.7141H230.026V74.1524H239.048V73.7141Z" fill="#E535AB"/>
<path d="M230.205 73.9604L234.717 76.4028L234.951 76.0233L230.438 73.5808L230.205 73.9604Z" fill="#E535AB"/>
<path d="M234.125 67.5946L238.637 70.0371L238.871 69.6575L234.358 67.215L234.125 67.5946Z" fill="#E535AB"/>
<path d="M230.206 69.6559L230.44 70.0355L234.952 67.593L234.719 67.2134L230.206 69.6559Z" fill="#E535AB"/>
<path d="M234.043 67.1941L238.554 74.5184L238.959 74.2992L234.448 66.9749L234.043 67.1941Z" fill="#E535AB"/>
<path d="M230.851 69.3653H230.384V74.2503H230.851V69.3653Z" fill="#E535AB"/>
<path d="M238.693 69.3653H238.225V74.2503H238.693V69.3653Z" fill="#E535AB"/>
<path d="M234.433 75.8859L234.637 76.2175L238.562 74.0932L238.358 73.7616L234.433 75.8859Z" fill="#E535AB"/>
<path d="M239.312 74.3928C239.042 74.8338 238.439 74.9843 237.969 74.7308C237.498 74.4773 237.338 73.9122 237.608 73.4712C237.879 73.0303 238.481 72.8798 238.952 73.1333C239.425 73.3894 239.586 73.9518 239.312 74.3928Z" fill="#E535AB"/>
<path d="M231.465 70.1442C231.195 70.5851 230.592 70.7356 230.122 70.4821C229.652 70.2286 229.491 69.6636 229.761 69.2226C230.032 68.7816 230.635 68.6311 231.105 68.8846C231.575 69.1407 231.736 69.7032 231.465 70.1442Z" fill="#E535AB"/>
<path d="M229.764 74.3928C229.494 73.9518 229.654 73.3894 230.125 73.1333C230.595 72.8798 231.195 73.0303 231.468 73.4712C231.739 73.9122 231.578 74.4746 231.108 74.7308C230.635 74.9843 230.035 74.8338 229.764 74.3928Z" fill="#E535AB"/>
<path d="M237.611 70.1442C237.341 69.7032 237.501 69.1407 237.972 68.8846C238.442 68.6311 239.042 68.7816 239.315 69.2226C239.586 69.6636 239.425 70.226 238.955 70.4821C238.484 70.7356 237.882 70.5851 237.611 70.1442Z" fill="#E535AB"/>
<path d="M234.538 76.9779C233.995 76.9779 233.555 76.566 233.555 76.0564C233.555 75.5467 233.995 75.1348 234.538 75.1348C235.082 75.1348 235.521 75.5467 235.521 76.0564C235.521 76.5633 235.082 76.9779 234.538 76.9779Z" fill="#E535AB"/>
<path d="M234.538 68.4806C233.995 68.4806 233.555 68.0687 233.555 67.5591C233.555 67.0495 233.995 66.6375 234.538 66.6375C235.082 66.6375 235.521 67.0495 235.521 67.5591C235.521 68.0687 235.082 68.4806 234.538 68.4806Z" fill="#E535AB"/>
</g>
<rect x="224.882" y="62.1509" width="19.3136" height="19.3136" rx="9.65681" stroke="#3B82F6" stroke-width="1.60947"/>
<path d="M177 136.5V136.5C181.333 136.5 184.846 132.987 184.846 128.654V95.2694C184.846 90.9785 188.325 87.5 192.615 87.5V87.5" stroke="white" stroke-opacity="0.1" stroke-width="2" stroke-miterlimit="0" stroke-linecap="round" stroke-linejoin="bevel"/>
<path d="M177.418 39.3783V39.3783C181.52 39.3783 184.846 42.7041 184.846 46.8066V79.7307C184.846 84.0216 188.325 87.5001 192.615 87.5001V87.5001" stroke="white" stroke-opacity="0.1" stroke-width="2" stroke-miterlimit="0" stroke-linecap="round" stroke-linejoin="bevel"/>
</g>
<defs>
<filter id="filter0_d_93_3118" x="72.3846" y="67.6923" width="103.231" height="42.2308" filterUnits="userSpaceOnUse" color-interpolation-filters="sRGB">
<feFlood flood-opacity="0" result="BackgroundImageFix"/>
<feColorMatrix in="SourceAlpha" type="matrix" values="0 0 0 0 0 0 0 0 0 0 0 0 0 0 0 0 0 0 127 0" result="hardAlpha"/>
<feOffset dy="1.30769"/>
<feGaussianBlur stdDeviation="1.30769"/>
<feComposite in2="hardAlpha" operator="out"/>
<feColorMatrix type="matrix" values="0 0 0 0 0 0 0 0 0 0 0 0 0 0 0 0 0 0 0.05 0"/>
<feBlend mode="normal" in2="BackgroundImageFix" result="effect1_dropShadow_93_3118"/>
<feBlend mode="normal" in="SourceGraphic" in2="effect1_dropShadow_93_3118" result="shape"/>
</filter>
<filter id="filter1_d_93_3118" x="72.3846" y="116.692" width="103.231" height="42.2308" filterUnits="userSpaceOnUse" color-interpolation-filters="sRGB">
<feFlood flood-opacity="0" result="BackgroundImageFix"/>
<feColorMatrix in="SourceAlpha" type="matrix" values="0 0 0 0 0 0 0 0 0 0 0 0 0 0 0 0 0 0 127 0" result="hardAlpha"/>
<feOffset dy="1.30769"/>
<feGaussianBlur stdDeviation="1.30769"/>
<feComposite in2="hardAlpha" operator="out"/>
<feColorMatrix type="matrix" values="0 0 0 0 0 0 0 0 0 0 0 0 0 0 0 0 0 0 0.05 0"/>
<feBlend mode="normal" in2="BackgroundImageFix" result="effect1_dropShadow_93_3118"/>
<feBlend mode="normal" in="SourceGraphic" in2="effect1_dropShadow_93_3118" result="shape"/>
</filter>
<filter id="filter2_d_93_3118" x="72.3846" y="17.6923" width="103.231" height="42.2308" filterUnits="userSpaceOnUse" color-interpolation-filters="sRGB">
<feFlood flood-opacity="0" result="BackgroundImageFix"/>
<feColorMatrix in="SourceAlpha" type="matrix" values="0 0 0 0 0 0 0 0 0 0 0 0 0 0 0 0 0 0 127 0" result="hardAlpha"/>
<feOffset dy="1.30769"/>
<feGaussianBlur stdDeviation="1.30769"/>
<feComposite in2="hardAlpha" operator="out"/>
<feColorMatrix type="matrix" values="0 0 0 0 0 0 0 0 0 0 0 0 0 0 0 0 0 0 0.05 0"/>
<feBlend mode="normal" in2="BackgroundImageFix" result="effect1_dropShadow_93_3118"/>
<feBlend mode="normal" in="SourceGraphic" in2="effect1_dropShadow_93_3118" result="shape"/>
</filter>
<filter id="filter3_d_93_3118" x="254.385" y="67.6923" width="73.2308" height="42.2308" filterUnits="userSpaceOnUse" color-interpolation-filters="sRGB">
<feFlood flood-opacity="0" result="BackgroundImageFix"/>
<feColorMatrix in="SourceAlpha" type="matrix" values="0 0 0 0 0 0 0 0 0 0 0 0 0 0 0 0 0 0 127 0" result="hardAlpha"/>
<feOffset dy="1.30769"/>
<feGaussianBlur stdDeviation="1.30769"/>
<feComposite in2="hardAlpha" operator="out"/>
<feColorMatrix type="matrix" values="0 0 0 0 0 0 0 0 0 0 0 0 0 0 0 0 0 0 0.05 0"/>
<feBlend mode="normal" in2="BackgroundImageFix" result="effect1_dropShadow_93_3118"/>
<feBlend mode="normal" in="SourceGraphic" in2="effect1_dropShadow_93_3118" result="shape"/>
</filter>
<filter id="filter4_d_93_3118" x="194" y="67.8846" width="43.1539" height="41.8462" filterUnits="userSpaceOnUse" color-interpolation-filters="sRGB">
<feFlood flood-opacity="0" result="BackgroundImageFix"/>
<feColorMatrix in="SourceAlpha" type="matrix" values="0 0 0 0 0 0 0 0 0 0 0 0 0 0 0 0 0 0 127 0" result="hardAlpha"/>
<feOffset dy="1.30769"/>
<feGaussianBlur stdDeviation="1.30769"/>
<feComposite in2="hardAlpha" operator="out"/>
<feColorMatrix type="matrix" values="0 0 0 0 0 0 0 0 0 0 0 0 0 0 0 0 0 0 0.05 0"/>
<feBlend mode="normal" in2="BackgroundImageFix" result="effect1_dropShadow_93_3118"/>
<feBlend mode="normal" in="SourceGraphic" in2="effect1_dropShadow_93_3118" result="shape"/>
</filter>
<clipPath id="clip0_93_3118">
<rect width="400" height="174" fill="white"/>
</clipPath>
<clipPath id="clip1_93_3118">
<rect width="17" height="17" fill="white" transform="translate(207.077 79.6539)"/>
</clipPath>
<clipPath id="clip2_93_3118">
<rect width="11.2663" height="10.5621" fill="white" transform="translate(228.905 66.5267)"/>
</clipPath>
</defs>
</svg>
