<svg xmlns="http://www.w3.org/2000/svg" data-name="Artwork" viewBox="0 0 24 24" fill="undefined"><path fill="#4285f4" d="M20 8.49v7.919l-8 3.975-8-3.975V8.492L2 7.473v10.176l10 4.967 10-4.967V7.472L20 8.49z"/><path fill="#4285f4" d="M4.219 7.482 12 3.616l7.78 3.865L22 6.35 12 1.384 2 6.351l2.219 1.131z"/><path fill="#669df6" d="M4.996 9.002v6.819l1.993.969v-6.773L4.996 9.002zm14 0v6.819l-1.993.969v-6.773l1.993-1.015z"/><path fill="#aecbfa" d="m5.3 8.035 2.038 1.033 4.653-2.301 4.653 2.301 2.038-1.033L12 4.726 5.3 8.035z"/><path fill="#aecbfa" d="M15.996 11.652V9.868l-4.005-1.986-3.999 1.97v1.8L12 13.693l3.996-2.041z"/><path fill="#669df6" d="m15.996 12.78-4.005 2.03-3.99-1.996v2.255l3.99 1.972 4.005-1.979V12.78z"/></svg>