<svg xmlns="http://www.w3.org/2000/svg" viewBox="0 0 641 641" xml:space="preserve"><path d="M492 448.7 451.7 489c-4.7 4.6-4.8 12.2-.2 16.9l.2.2 100.5 100.5c4.6 4.6 12.1 4.6 16.8 0l40.6-40.6c4.6-4.6 4.6-12.1 0-16.8L509 448.7c-4.6-4.7-12.2-4.8-16.9-.2 0 .1 0 .1-.1.2" fill-rule="evenodd" clip-rule="evenodd" fill="#4285f4"/><path d="M300.6 42C159.4 42 45 156.4 45 297.6s114.4 255.6 255.6 255.6 255.6-114.4 255.6-255.6S441.7 42 300.6 42m0 445.6c-104.8-.2-189.6-85.2-189.4-190 .2-104.8 85.2-189.6 190-189.4 104.5.2 189.3 84.9 189.4 189.4.2 104.8-84.6 189.8-189.4 190h-.6" fill-rule="evenodd" clip-rule="evenodd" fill="#669df6"/><path d="M300.6 487.6c-104.8-.2-189.6-85.2-189.4-190 .2-104.8 85.2-189.6 190-189.4 104.5.2 189.3 84.9 189.4 189.4.2 104.8-84.6 189.8-189.4 190h-.6" fill-rule="evenodd" clip-rule="evenodd" fill="#fff"/><g fill-rule="evenodd" clip-rule="evenodd"><path d="M179.3 292.8v74.7c11.8 20.3 28.5 37.3 48.6 49.4V292.8h-48.6z" fill="#aecbfa"/><path d="M269.1 224v213.8c10.5 1.3 21 1.9 31.5 1.7 9.5.6 18.9.6 28.4 0V224h-59.9z" fill="#669df6"/><path d="M375.6 322v93.4a142.6 142.6 0 0 0 48.3-51.7V322h-48.3z" fill="#aecbfa"/></g></svg>