<svg alt="Citus logo" xmlns="http://www.w3.org/2000/svg" viewBox="0 0 145 32.86"><path d="M103.01 3.33h3.45v19.06h-3.45v-1.45a6.78 6.78 0 01-2 1.38 5.71 5.71 0 01-2.2.42 6.09 6.09 0 01-4.61-2.06 7.2 7.2 0 01-1.95-5.14 7.38 7.38 0 011.89-5.22 6 6 0 014.57-2 5.87 5.87 0 012.32.47 6.47 6.47 0 012 1.4zm-3.63 8.14a3.51 3.51 0 00-2.66 1.13 4.51 4.51 0 000 5.83 3.48 3.48 0 002.65 1.15 3.56 3.56 0 002.7-1.13 4.14 4.14 0 001.07-3 4 4 0 00-1.07-2.91 3.62 3.62 0 00-2.69-1.07zm19.18-2.83h3.45v13.75h-3.45v-1.45a6.78 6.78 0 01-2 1.38 5.71 5.71 0 01-2.2.42 6.09 6.09 0 01-4.61-2.06 7.2 7.2 0 01-2-5.14 7.38 7.38 0 011.89-5.22 6 6 0 014.57-2 5.87 5.87 0 012.32.47 6.47 6.47 0 012 1.4zm-3.63 2.83a3.51 3.51 0 00-2.66 1.13 4.51 4.51 0 000 5.83 3.48 3.48 0 002.65 1.15 3.56 3.56 0 002.7-1.13 4.14 4.14 0 001.07-3 4 4 0 00-1.07-2.91 3.62 3.62 0 00-2.69-1.07zm10.26-7.9h3.45v5.07h2.05v3h-2.05v10.78h-3.45V11.61h-1.77v-3h1.77zm16.36 5.07H145v13.75h-3.45v-1.45a6.62 6.62 0 01-2 1.38 5.72 5.72 0 01-2.21.42 6.09 6.09 0 01-4.6-2.06 7.2 7.2 0 01-2-5.14 7.42 7.42 0 011.88-5.22 6 6 0 014.57-2 5.88 5.88 0 012.33.47 6.32 6.32 0 012 1.4zm-3.62 2.83a3.49 3.49 0 00-2.66 1.13 4 4 0 00-1.06 2.9 4.09 4.09 0 001.08 2.93 3.48 3.48 0 002.65 1.15 3.56 3.56 0 002.7-1.13 4.14 4.14 0 001.07-3 4 4 0 00-1.07-2.91 3.62 3.62 0 00-2.71-1.07zM23.8 13.18c.49-2.48-6.59-3.52-10.65 1.48-4.57 5.62 4.62 11.47 15 3.61 6.67-5 8.78-11.95 4.86-15.5C25.49-4.08 7.1 2.34.98 16.04 7.13 5.67 22.56.77 28.71 7.1c2.57 2.64 1.14 7.95-3.58 10.22-7.63 3.54-6.87-4.28-1.33-4.14z" fill="#09436a"></path><path d="M53.37 11.42l-2.87 1.62a4.25 4.25 0 00-3.45-1.51 4.35 4.35 0 00-3.14 1.16 4 4 0 00-1.19 3 3.78 3.78 0 001.15 2.86 4.19 4.19 0 003 1.11 4.37 4.37 0 003.6-1.58l2.72 1.87a8.39 8.39 0 01-11.92.73 7.21 7.21 0 01-1.06-8.71A7.19 7.19 0 0143 9.32a8.3 8.3 0 014-1 8.19 8.19 0 013.68.82 7 7 0 012.69 2.28zm-.76-5.06V3.57h7.19v2.79zm1.87 2.28h3.45v13.75h-3.45zm7-5.07h3.45v5.07h2.05v3h-2.05v10.78H61.5V11.61h-1.77v-3h1.77zm6.86 5.07h3.49v6.62a9.07 9.07 0 00.27 2.69 2.32 2.32 0 00.85 1.17 2.8 2.8 0 002.92 0 2.41 2.41 0 00.89-1.2 9.58 9.58 0 00.21-2.55V8.64h3.45v5.82a14.54 14.54 0 01-.56 4.93 5.45 5.45 0 01-2.05 2.49 6.33 6.33 0 01-3.44.86 6.05 6.05 0 01-3.66-1 5.26 5.26 0 01-2-2.82 17 17 0 01-.41-4.55zm22.5 1.92l-2.13 2.14a3.62 3.62 0 00-2.37-1.29 1.53 1.53 0 00-.91.24.77.77 0 00-.32.62.8.8 0 00.2.51 4.23 4.23 0 001 .64l1.27.63a7.42 7.42 0 012.74 2 4.17 4.17 0 01-.6 5.46 5.14 5.14 0 01-3.61 1.22 5.73 5.73 0 01-4.8-2.35l2.12-2.31a5 5 0 001.42 1.14 3.2 3.2 0 001.45.44 1.72 1.72 0 001.1-.33 1 1 0 00.42-.76c0-.53-.5-1.05-1.51-1.55l-1.16-.58c-2.22-1.12-3.34-2.53-3.34-4.21a3.65 3.65 0 011.29-2.78 4.58 4.58 0 013.22-1.16 5.62 5.62 0 012.52.59 5.51 5.51 0 012.02 1.69zM23.37 7.75c-12.63-3.8-29.76 11.72-21 21.92 5.85 6.79 26.17 3.5 32.73-17-7.77 14.16-22.37 16.22-27.9 12.17C.73 20.04 8.84 6.67 23.39 7.75z" fill="#1e873d"></path></svg>