<svg xmlns="http://www.w3.org/2000/svg" viewBox="-216 218 66 66"><style>.st0{fill:#97a9ff}</style><g id="Layer_1"><g id="Page-1"><g id="Hasura_Jun29-Update" transform="translate(-1157 -872)"><g id="Group-6" transform="translate(1066 872)"><g transform="translate(91)" id="Discord"><g id="Twitter-Copy"><path id="back" class="st0" d="M-216 251c0-18.2 14.8-33 33-33s33 14.8 33 33-14.8 33-33 33-33-14.8-33-33z"/></g></g></g></g></g></g><g id="Layer_2"><path d="M-172.5 266.6l-2.5-2.9c4.8-1.3 6.7-4.6 6.7-4.6-6.1 5.7-22.6 6-29.1 0 0 0 1.6 3 6.5 4.6l-2.7 2.9c-8.2-.1-11.3-5.6-11.3-5.6 0-12.1 5.4-21.8 5.4-21.8 5.5-3.9 10.5-3.9 10.5-3.9l.4.5c-6.8 1.9-9.7 4.9-9.7 4.9 7.9-5.4 24.3-4.9 30.7 0 .1-.1-3.9-3.3-10-4.9l.6-.5s5 0 10.5 3.9c0 0 5.4 9.7 5.4 21.8-.1 0-3.2 5.5-11.4 5.6z" fill="#fff"/><ellipse class="st0" cx="-190" cy="253.5" rx="3.9" ry="4.1"/><ellipse class="st0" cx="-176.5" cy="253.5" rx="3.9" ry="4.1"/></g></svg>