<svg version="1.1" id="Layer_1" xmlns="http://www.w3.org/2000/svg" x="0" y="0" viewBox="0 0 220 80" xml:space="preserve"><style>.st0{fill:#102954}</style><path class="st0" d="M67.4 26.8c2.1-5.2 2.2-16-.7-24.4-.7-1.5-3-1.1-3.1.7v.6c-.5 7.9-3.4 12.2-7.6 14.2-.7.3-1.8.2-2.5-.2-5.1-3.2-11-5.1-17.5-5.1s-12.4 1.9-17.5 5.1c-.7.4-1.5.5-2.2.2-4.3-1.6-7.4-6.4-7.9-14.3v-.5c0-1.6-2.3-2.1-3.1-.7-3 8.3-2.9 19.1-.7 24.4 1.1 2.6 1.1 5.6.2 8.3-1.2 3.4-1.8 7.2-1.7 11 .3 17.4 15.1 32.2 32.4 32.4 18.3.2 33.3-14.6 33.3-32.9 0-3.7-.6-7.2-1.7-10.5-.8-2.7-.7-5.7.3-8.3z"/><circle cx="36" cy="45.5" fill="#fff" r="25"/><path class="st0" d="M39.9 42.9L34 33.8c-1-1.5-2.9-1.9-4.4-1-.9.6-1.5 1.6-1.5 2.7 0 .6.2 1.2.6 1.7l4 6.2c.3.5.2 1.1-.1 1.5l-6.2 6.8c-1.1 1.3-1.1 3.3.2 4.5.6.6 1.4.8 2.2.8.9 0 1.7-.4 2.3-1.1l4.6-5.4c.3-.4 1-.4 1.3.1l3.3 4.7c.2.3.5.7.9 1 1.1.8 2.5.7 3.5.1.9-.6 1.5-1.6 1.5-2.7 0-.6-.2-1.2-.5-1.7l-5.8-9.1z"/><g><path class="st0" d="M96.8 45.6h-3.9c-.6 0-1.1-.5-1.1-1.1V32.2c0-.6-.5-1.1-1.1-1.1h-3.4c-.6 0-1.1.5-1.1 1.1v31.3c0 .6.5 1.1 1.1 1.1h3.4c.6 0 1.1-.5 1.1-1.1V51.3c0-.6.5-1.1 1.1-1.1h3.9c.6 0 1.1.5 1.1 1.1v12.2c0 .6.5 1.1 1.1 1.1h3.4c.6 0 1.1-.5 1.1-1.1V32.2c0-.6-.5-1.1-1.1-1.1H99c-.6 0-1.1.5-1.1 1.1v12.3c0 .6-.5 1.1-1.1 1.1zM114.2 32l-5.5 31.3c-.1.6.4 1.2 1 1.2h3.4c.5 0 1-.4 1-.9l.9-5.7c.1-.5.5-.9 1-.9h4.3c.5 0 1 .4 1 .9l1 5.8c.1.5.5.9 1 .9h3.5c.7 0 1.2-.6 1-1.3L122 32c-.1-.5-.5-.9-1-.9h-5.8c-.5 0-.9.4-1 .9zm5.1 20.3h-2.2c-.7 0-1.1-.6-1-1.2l1-11.5c.2-1.2 1.9-1.2 2.1 0l1.1 11.5c.1.6-.4 1.2-1 1.2zM143 45.2h-3.8c-.7 0-1.1-.3-1.1-1.1v-7.2c0-.7.4-1.1 1.1-1.1h2.2c.7 0 1.1.3 1.1 1.1v3.4c0 .6.5 1.1 1.1 1.1h3.5c.6 0 1.1-.5 1.1-1.1v-4.2c0-3.3-1.8-5-5.3-5h-5.1c-3.5 0-5.3 1.7-5.3 5v8.6c0 3.3 1.8 5.1 5.2 5.1h3.8c.7 0 1.1.3 1.1 1.1v8c0 .7-.3 1.1-1.1 1.1h-2.2c-.7 0-1.1-.3-1.1-1.1v-3.4c0-.6-.5-1.1-1.1-1.1h-3.5c-.6 0-1.1.5-1.1 1.1v4.2c0 3.3 1.8 5 5.3 5h5c3.5 0 5.3-1.7 5.3-5v-9.4c.1-3.4-1.7-5.1-5.1-5.1zM164 58.8c0 .7-.3 1.1-1.1 1.1h-3c-.7 0-1.1-.3-1.1-1.1V32.2c0-.6-.5-1.1-1.1-1.1h-3.5c-.6 0-1.1.5-1.1 1.1v27.3c0 3.3 1.8 5 5.3 5h5.8c3.5 0 5.3-1.7 5.3-5V32.2c0-.6-.5-1.1-1.1-1.1h-3.3c-.6 0-1.1.5-1.1 1.1v26.6zM191.8 46.3V36.1c0-3.3-1.8-5-5.3-5h-10c-.6 0-1.1.5-1.1 1.1v31.3c0 .6.5 1.1 1.1 1.1h3.4c.6 0 1.1-.5 1.1-1.1v-11c0-.6.5-1.1 1.1-1.1.4 0 .8.3 1 .7l4.4 11.8c.2.4.6.7 1 .7h3.7c.7 0 1.3-.7 1-1.4L189 52.3c-.2-.5.1-1.1.6-1.4 1.3-.8 2.2-2.4 2.2-4.6zm-5.6-9.4v8.8c0 .7-.4 1.1-1.1 1.1H182c-.6 0-1.1-.5-1.1-1.1v-8.8c0-.6.5-1.1 1.1-1.1h3.1c.7 0 1.1.4 1.1 1.1zM210.2 31.1h-5.8c-.5 0-1 .4-1 .9l-5.5 31.3c-.1.6.4 1.2 1 1.2h3.4c.5 0 1-.4 1-.9l.9-5.7c.1-.5.5-.9 1-.9h4.3c.5 0 1 .4 1 .9l1 5.8c.1.5.5.9 1 .9h3.5c.7 0 1.2-.6 1-1.3L211.2 32c-.1-.5-.5-.9-1-.9zm-1.8 21.2h-2.1c-.7 0-1.1-.6-1-1.2l1-10.5c.2-1.2 1.9-1.2 2.1 0l1.1 10.5c.1.6-.4 1.2-1.1 1.2z"/></g></svg>