<svg width="45" height="36" viewBox="0 0 45 36" fill="none" xmlns="http://www.w3.org/2000/svg">
<path d="M36 31.0005C35.034 31.0005 34.1592 31.3923 33.525 32.0266C32.8927 32.6589 32.5 33.5348 32.5 34.5C32.5 33.5338 32.1083 32.6589 31.475 32.0266C30.8418 31.3932 29.966 31.0005 29 31.0005C29.966 31.0005 30.8408 30.6096 31.475 29.9753C32.1073 29.342 32.5 28.4671 32.5 27.5C32.501 29.4342 34.067 31.0005 36 31.0005Z" fill="#5C94C8"/>
<path d="M16.4997 13.5C16.4997 12.81 16.2198 12.1851 15.7667 11.7321C15.315 11.2805 14.6894 11 14 11C14.6901 11 15.315 10.7202 15.7667 10.2679C16.2191 9.81554 16.4997 9.19003 16.4997 8.5C16.4997 9.19003 16.7788 9.81486 17.2319 10.2679C17.6843 10.7195 18.3092 11 19 11C17.6184 11.0007 16.4997 12.1193 16.4997 13.5Z" fill="#5C94C8"/>
<circle cx="1" cy="32.5" r="1" fill="#F47E7E"/>
<path d="M6.5 20L16.5 30L41.5 3" stroke="#2EB67D" stroke-width="7"/>
</svg>
