<svg width="285" height="84" viewBox="0 0 285 84" fill="none" xmlns="http://www.w3.org/2000/svg">
<g clip-path="url(#clip0_241_169)">
<path d="M81.7705 28.7986C84.2257 21.333 82.7489 6.43945 77.9912 0.940982C77.3677 0.219719 76.2075 0.322757 75.6894 1.11895L69.8294 10.102C68.3809 11.9004 65.7722 12.3126 63.8056 11.0574C57.4466 6.99211 49.8506 4.63159 41.6884 4.63159C33.5262 4.63159 25.93 6.99211 19.571 11.0574C17.6143 12.3126 15.0055 11.8911 13.5476 10.102L7.68739 1.11895C7.16947 0.322757 6.00889 0.229086 5.38548 0.940982C0.628213 6.44878 -0.84884 21.3424 1.60652 28.7986C2.42178 31.2808 2.64238 33.9036 2.16282 36.4514C1.68325 38.9805 1.20369 42.0342 1.20369 44.1605C1.20369 65.9952 19.3312 83.6892 41.6788 83.6892C64.036 83.6892 82.1537 65.9859 82.1537 44.1605C82.1537 42.0342 81.6744 38.9805 81.195 36.4514C80.7249 33.9036 80.9548 31.2808 81.7705 28.7986ZM41.6788 74.8659C24.3954 74.8659 10.3442 61.1335 10.3442 44.2542C10.3442 43.7015 10.3633 43.1582 10.3921 42.6149C11.0156 31.1122 18.1706 21.2862 28.2894 16.6027C32.3465 14.7105 36.8928 13.6614 41.6884 13.6614C46.484 13.6614 51.0207 14.7105 55.0875 16.612C65.2061 21.2956 72.3611 31.1309 72.9846 42.6243C73.0135 43.1676 73.0326 43.7202 73.0326 44.2635C73.0228 61.1335 58.9623 74.8659 41.6788 74.8659Z" fill="#1EB4D4"/>
<path d="M55.2596 56.0379L47.251 42.4742L40.3837 31.1682C40.2206 30.8965 39.9233 30.7373 39.6068 30.7373H33.0463C32.7202 30.7373 32.4229 30.9059 32.2599 31.1869C32.0968 31.4586 32.1064 31.7958 32.2695 32.0674L38.8395 42.8489L30.0251 55.9817C29.8429 56.2533 29.8333 56.5997 29.9867 56.8806C30.1402 57.1615 30.4471 57.3399 30.7828 57.3399H37.3912C37.6981 57.3399 37.9859 57.1899 38.1489 56.9368L42.9158 49.6681L47.1934 56.909C47.3565 57.1806 47.6538 57.3492 47.9704 57.3492H54.4828C54.8087 57.3492 55.1062 57.1806 55.2596 56.909C55.4229 56.6466 55.4229 56.3095 55.2596 56.0379Z" fill="#1EB4D4"/>
<path d="M119.484 21.5305H127.838V66.2672H119.484V47.2056H110.046V66.2771H101.692V21.5305H110.046V40.9578H119.484V21.5305Z" fill="#1B2738"/>
<path d="M153.61 66.276L151.864 56.9842H141.842L140.24 66.276H131.886L141.103 21.5391H152.353L162.012 66.276H153.61ZM142.935 50.811H150.704L146.714 29.398L142.935 50.811Z" fill="#1B2738"/>
<path d="M180.619 58.1171V48.5442C180.619 47.7855 180.476 47.2797 180.188 47.0174C179.9 46.7551 179.363 46.624 178.586 46.624H172.707C167.719 46.624 165.226 44.2635 165.226 39.5331V28.555C165.226 23.8714 167.834 21.5391 173.061 21.5391H181.051C186.278 21.5391 188.887 23.8808 188.887 28.555V34.7934H180.466V29.6884C180.466 28.9296 180.322 28.4238 180.035 28.1615C179.747 27.8993 179.21 27.7682 178.433 27.7682H175.671C174.846 27.7682 174.289 27.8993 174.002 28.1615C173.714 28.4238 173.57 28.9296 173.57 29.6884V38.6901C173.57 39.4488 173.714 39.9546 174.002 40.2169C174.289 40.4792 174.846 40.6103 175.671 40.6103H181.406C186.489 40.6103 189.031 42.924 189.031 47.5607V59.2603C189.031 63.9436 186.394 66.276 181.118 66.276H173.273C167.998 66.276 165.36 63.9343 165.36 59.2603V53.0872H173.704V58.1171C173.704 58.8758 173.848 59.382 174.136 59.6443C174.424 59.9062 174.98 60.0376 175.805 60.0376H178.567C179.344 60.0376 179.871 59.9062 180.169 59.6443C180.466 59.382 180.619 58.8758 180.619 58.1171Z" fill="#1B2738"/>
<path d="M211.32 21.5305H219.664V59.2516C219.664 63.9349 217.027 66.2672 211.752 66.2672H202.899C197.624 66.2672 194.986 63.9256 194.986 59.2516V21.5305H203.34V58.1181C203.34 58.8769 203.484 59.3825 203.772 59.6449C204.059 59.9072 204.597 60.0381 205.374 60.0381H209.219C210.044 60.0381 210.601 59.9072 210.888 59.6449C211.176 59.3825 211.32 58.8769 211.32 58.1181V21.5305Z" fill="#1B2738"/>
<path d="M234.914 48.8354V66.2771H226.569V21.5305H243.412C248.687 21.5305 251.324 23.8723 251.324 28.5464V41.8101C251.324 45.6881 249.56 47.9549 246.021 48.62L253.646 66.2771H244.64L237.667 48.8354H234.914ZM234.914 27.7689V42.803H240.937C241.714 42.803 242.242 42.6719 242.539 42.4096C242.827 42.1473 242.97 41.6415 242.97 40.8828V29.6892C242.97 28.9305 242.827 28.4246 242.539 28.1624C242.251 27.9001 241.714 27.7689 240.937 27.7689H234.914Z" fill="#1B2738"/>
<path d="M276.589 66.276L274.843 56.9842H264.82L263.218 66.276H254.874L264.091 21.5391H275.342L285 66.276H276.589ZM265.923 50.811H273.692L269.702 29.398L265.923 50.811Z" fill="#1B2738"/>
</g>
<defs>
<clipPath id="clip0_241_169">
<rect width="285" height="84" fill="white"/>
</clipPath>
</defs>
</svg>
