<svg width="108" height="32" viewBox="0 0 108 32" fill="none" xmlns="http://www.w3.org/2000/svg">
<path d="M30.8325 10.8966C31.7633 8.02639 31.2034 2.30038 29.4 0.186435C29.1636 -0.0908618 28.7237 -0.051248 28.5273 0.254859L26.3058 3.70847C25.7568 4.39991 24.7678 4.55837 24.0225 4.0758C21.6119 2.51285 18.7322 1.60533 15.6381 1.60533C12.544 1.60533 9.66433 2.51285 7.25374 4.0758C6.51202 4.55837 5.52305 4.39631 4.9704 3.70847L2.74887 0.254859C2.55253 -0.051248 2.11259 -0.0872606 1.87625 0.186435C0.0728518 2.30398 -0.487076 8.02999 0.443713 10.8966C0.752764 11.8509 0.836389 12.8593 0.654594 13.8388C0.4728 14.8112 0.291005 15.9852 0.291005 16.8027C0.291005 25.1972 7.16284 32 15.6345 32C24.1097 32 30.9779 25.1936 30.9779 16.8027C30.9779 15.9852 30.7961 14.8112 30.6143 13.8388C30.4362 12.8593 30.5234 11.8509 30.8325 10.8966ZM15.6345 28.6076C9.08259 28.6076 3.75601 23.3282 3.75601 16.8387C3.75601 16.6262 3.76328 16.4173 3.77419 16.2085C4.01052 11.7861 6.7229 8.00838 10.5588 6.20775C12.0967 5.48029 13.8202 5.07695 15.6381 5.07695C17.456 5.07695 19.1758 5.48029 20.7174 6.21135C24.5533 8.01198 27.2657 11.7933 27.502 16.2121C27.5129 16.4209 27.5202 16.6334 27.5202 16.8423C27.5166 23.3282 22.1863 28.6076 15.6345 28.6076Z" fill="#33BDDB"/>
<path d="M20.7814 21.3691L17.7455 16.1545L15.1422 11.8077C15.0803 11.7033 14.9676 11.6421 14.8476 11.6421H12.3607C12.2371 11.6421 12.1244 11.7069 12.0626 11.815C12.0007 11.9194 12.0044 12.049 12.0662 12.1535L14.5568 16.2985L11.2154 21.3475C11.1463 21.4519 11.1427 21.5852 11.2008 21.6932C11.259 21.8013 11.3754 21.8697 11.5026 21.8697H14.0078C14.1241 21.8697 14.2332 21.8121 14.295 21.7148L16.102 18.9202L17.7236 21.704C17.7854 21.8085 17.8982 21.8733 18.0181 21.8733H20.4869C20.6105 21.8733 20.7233 21.8085 20.7814 21.704C20.8432 21.6032 20.8432 21.4735 20.7814 21.3691Z" fill="#33BDDB"/>
<path d="M45.1274 8.10205H48.2942V25.3017H45.1274V17.9731H41.5497V25.3053H38.3828V8.10205H41.5497V15.5711H45.1274V8.10205Z" fill="#00315F"/>
<path d="M58.0639 25.3053L57.4022 21.7329H53.6026L52.9955 25.3053H49.8286L53.3227 8.10571H57.5876L61.2489 25.3053H58.0639ZM54.0171 19.3597H56.9622L55.4497 11.1272L54.0171 19.3597Z" fill="#00315F"/>
<path d="M68.3044 22.1684V18.4879C68.3044 18.1962 68.2498 18.0017 68.1408 17.9009C68.0317 17.8001 67.8281 17.7497 67.5336 17.7497H65.3048C63.4141 17.7497 62.4688 16.8421 62.4688 15.0235V10.8028C62.4688 9.00218 63.4577 8.10547 65.4393 8.10547H68.468C70.4495 8.10547 71.4385 9.00578 71.4385 10.8028V13.2013H68.2462V11.2386C68.2462 10.9469 68.1917 10.7524 68.0826 10.6516C67.9735 10.5507 67.7699 10.5003 67.4754 10.5003H66.4282C66.1156 10.5003 65.9047 10.5507 65.7956 10.6516C65.6865 10.7524 65.632 10.9469 65.632 11.2386V14.6994C65.632 14.9911 65.6865 15.1856 65.7956 15.2864C65.9047 15.3872 66.1156 15.4376 66.4282 15.4376H68.6025C70.5295 15.4376 71.4931 16.3272 71.4931 18.1098V22.6078C71.4931 24.4084 70.4932 25.3051 68.4934 25.3051H65.5193C63.5195 25.3051 62.5197 24.4048 62.5197 22.6078V20.2345H65.6829V22.1684C65.6829 22.4601 65.7374 22.6546 65.8465 22.7554C65.9556 22.8562 66.1665 22.9067 66.4791 22.9067H67.5263C67.8208 22.9067 68.0208 22.8562 68.1335 22.7554C68.2462 22.6546 68.3044 22.4601 68.3044 22.1684Z" fill="#00315F"/>
<path d="M79.941 8.10205H83.1043V22.6043C83.1043 24.405 82.1044 25.3017 80.1047 25.3017H76.7487C74.749 25.3017 73.7491 24.4014 73.7491 22.6043V8.10205H76.916V22.1686C76.916 22.4603 76.9705 22.6548 77.0796 22.7556C77.1887 22.8564 77.3923 22.9068 77.6868 22.9068H79.1448C79.4575 22.9068 79.6683 22.8564 79.7774 22.7556C79.8865 22.6548 79.941 22.4603 79.941 22.1686V8.10205Z" fill="#00315F"/>
<path d="M88.8853 18.5997V25.3053H85.7221V8.10205H92.1067C94.1065 8.10205 95.1063 9.00237 95.1063 10.7994V15.8988C95.1063 17.3897 94.4373 18.2612 93.0957 18.5169L95.9862 25.3053H92.5721L89.9288 18.5997H88.8853ZM88.8853 10.5005V16.2805H91.1687C91.4632 16.2805 91.6632 16.2301 91.7759 16.1293C91.8849 16.0284 91.9395 15.834 91.9395 15.5423V11.2388C91.9395 10.947 91.8849 10.7526 91.7759 10.6517C91.6668 10.5509 91.4632 10.5005 91.1687 10.5005H88.8853Z" fill="#00315F"/>
<path d="M104.685 25.3051L104.023 21.7326H100.224L99.6164 25.3051H96.4531L99.9472 8.10547H104.212L107.873 25.3051H104.685ZM100.642 19.3594H103.587L102.074 11.1269L100.642 19.3594Z" fill="#00315F"/>
</svg>
