<svg xmlns="http://www.w3.org/2000/svg" width="60" height="60" viewBox="0 0 60 60">
    <defs>
        <style>
            .cls-1{opacity:.604}.cls-2{fill:none}.cls-3{fill:#c3c3c3}
        </style>
    </defs>
    <g id="Group_942" class="cls-1" data-name="Group 942" transform="translate(133 -9345)">
        <path id="Path_541" d="M0 0h60v60H0z" class="cls-2" data-name="Path 541" transform="translate(-133 9345)"/>
        <g id="Android_greenrobot" transform="translate(-130.6 9343.5)">
            <path id="Path_490" d="M251.549 117.574a2.974 2.974 0 1 0-5.949 0v12.393a2.974 2.974 0 1 0 5.949 0z" class="cls-3" data-name="Path 490" transform="translate(-203.299 -91.485)"/>
            <path id="Path_491" d="M13.549 117.574a2.974 2.974 0 1 0-5.949 0v12.393a2.974 2.974 0 0 0 5.949 0z" class="cls-3" data-name="Path 491" transform="translate(0 -91.485)"/>
            <g id="Group_885" data-name="Group 885" transform="translate(14.657 7.5)">
                <path id="Path_492" d="M75.771 11.918l2.1-3.791a.409.409 0 0 0-.16-.569.475.475 0 0 0-.2-.058.4.4 0 0 0-.365.219l-2.129 3.835a14.24 14.24 0 0 0-11.489 0l-2.119-3.835a.418.418 0 1 0-.729.408l2.1 3.791A12.087 12.087 0 0 0 56 22.576h26.536a12.1 12.1 0 0 0-6.765-10.658zm-12.626 5.8a1.108 1.108 0 1 1 1.108-1.108 1.108 1.108 0 0 1-1.109 1.111zm12.247 0a1.108 1.108 0 1 1 1.108-1.105 1.108 1.108 0 0 1-1.108 1.108z" class="cls-3" data-name="Path 492" transform="translate(-56 -7.5)"/>
                <path id="Path_493" d="M56 118.1v19.231a3.2 3.2 0 0 0 3.208 3.208h2.129v6.561a2.974 2.974 0 1 0 5.949 0v-6.561h3.966v6.561a2.974 2.974 0 1 0 5.949 0v-6.561h2.129a3.2 3.2 0 0 0 3.208-3.208V118.1z" class="cls-3" data-name="Path 493" transform="translate(-56 -101.974)"/>
            </g>
        </g>
    </g>
</svg>
