<?xml version="1.0" encoding="utf-8"?>
<!-- Generator: Adobe Illustrator 22.1.0, SVG Export Plug-In . SVG Version: 6.00 Build 0)  -->
<svg version="1.1" id="Layer_1" xmlns="http://www.w3.org/2000/svg" xmlns:xlink="http://www.w3.org/1999/xlink" x="0px" y="0px"
	 viewBox="0 0 30 30" style="enable-background:new 0 0 30 30;" xml:space="preserve">
<style type="text/css">
	.st0{fill:#B3B3B3;}
	.st1{fill:#3E3E3E;}
	.st2{fill:#555555;}
	.st3{fill:#F2F2F2;}
</style>
<title>Angular Logo</title>
<g>
	<path class="st0" d="M14.9,3L3.4,7l1.8,15l9.7,5.3l9.7-5.4l1.8-15L14.9,3z"/>
	<path class="st1" d="M25.3,7.8L14.8,4.3v21.8l8.7-4.8L25.3,7.8L25.3,7.8z"/>
	<path class="st2" d="M4.7,7.9l1.6,13.4l8.6,4.8V4.3L4.7,7.9L4.7,7.9z"/>
	<path class="st3" d="M17.7,15.9l-2.9,1.3h-3l-1.4,3.6l-2.6,0l7.1-15.8L17.7,15.9L17.7,15.9z M17.4,15.2l-2.6-5.1l-2.1,5h2.1
		L17.4,15.2L17.4,15.2z"/>
	<path class="st0" d="M14.8,5.1l0,5.1l2.4,5h-2.4l0,2.1l3.3,0l1.6,3.6l2.5,0L14.8,5.1L14.8,5.1z"/>
</g>
</svg>
