<svg enable-background="new 0 0 98 72" viewBox="0 0 98 72" xmlns="http://www.w3.org/2000/svg"><path d="m72.2 71s-3-3.6-5.5-6.8c10.9-3.1 15.1-9.9 15.1-9.9-3.4 2.3-6.7 3.8-9.6 4.9-4.2 1.8-8.2 3-12.1 3.6-8 1.5-15.3 1.1-21.6-.1-4.8-.9-8.8-2.3-12.3-3.6-1.9-.8-4-1.7-6.1-2.8-.2-.2-.5-.3-.7-.4s-.3-.2-.3-.2c-1.5-.8-2.3-1.4-2.3-1.4s4 6.7 14.6 9.8c-2.5 3.2-5.6 6.9-5.6 6.9-18.5-.6-25.5-12.7-25.5-12.7 0-26.8 12-48.6 12-48.6 12-9 23.4-8.8 23.4-8.8l.8 1c-15 4.3-21.9 10.9-21.9 10.9s1.8-1 4.9-2.4c8.9-3.9 16-5 18.9-5.3.5-.1.9-.2 1.4-.2 5.6-.7 11.2-.8 16.8-.2 7.9.9 16.4 3.3 25.1 8 0 0-6.6-6.3-20.8-10.6l1.4-1.1s11.4-.3 23.4 8.8c0 0 12 21.8 12 48.6 0-.1-7.1 12-25.5 12.6z" fill="#fff"/><g fill="#222"><path d="m33.4 32.1c-4.8 0-8.5 4.2-8.5 9.3s3.8 9.3 8.5 9.3c4.8 0 8.5-4.2 8.5-9.3.1-5.1-3.7-9.3-8.5-9.3"/><path d="m63.8 32.1c-4.8 0-8.5 4.2-8.5 9.3s3.8 9.3 8.5 9.3c4.8 0 8.5-4.2 8.5-9.3s-3.7-9.3-8.5-9.3"/></g></svg>