<svg xmlns="http://www.w3.org/2000/svg" width="60" height="60" viewBox="0 0 60 60">
    <defs>
        <style>
            .cls-1{fill:none}.cls-2{clip-path:url(#clip-path)}.cls-3{fill:#39cefd}.cls-4{fill:#03569b}.cls-5{fill:url(#linear-gradient)}.cls-6{fill:#16b9fd}.cls-7{fill:url(#radial-gradient)}
        </style>
        <clipPath id="clip-path">
            <path id="Path_549" d="M45.678 23.13L32.929 35.884l12.749 12.754H31.109L18.355 35.884 31.109 23.13zM31.109 1.275L7.43 24.954l7.287 7.287L45.678 1.275z" data-name="Path 549" transform="translate(-7.43 -1.275)"/>
        </clipPath>
        <linearGradient id="linear-gradient" x1=".197" x2=".699" y1="1.193" y2=".448" gradientUnits="objectBoundingBox">
            <stop offset="0" stop-color="#1a237e" stop-opacity=".4"/>
            <stop offset="1" stop-color="#1a237e" stop-opacity="0"/>
        </linearGradient>
        <radialGradient id="radial-gradient" cx="8.505" cy="4.503" r="46.791" gradientTransform="matrix(1.238 0 0 -1.238 -.256 7.226)" gradientUnits="userSpaceOnUse">
            <stop offset="0" stop-color="#fff" stop-opacity=".102"/>
            <stop offset="1" stop-color="#fff" stop-opacity="0"/>
        </radialGradient>
    </defs>
    <g id="Group_1027" data-name="Group 1027" transform="translate(-852 -2653)">
        <path id="Path_542" d="M0 0h60v60H0z" class="cls-1" data-name="Path 542" transform="translate(852 2653)"/>
        <g id="flutterio-icon" transform="translate(855.57 2657.725)">
            <g id="Group_1022" class="cls-2" data-name="Group 1022" transform="translate(7.43 1.275)">
                <path id="Path_548" d="M22.2 43.559l7.282 7.287L49.516 30.8H34.947z" class="cls-3" data-name="Path 548" transform="translate(-11.268 -8.95)"/>
            </g>
            <g id="Group_1023" class="cls-2" data-name="Group 1023" transform="translate(7.43 1.275)">
                <path id="Path_550" d="M31.109 1.275h14.569L14.717 32.241 7.43 24.954z" class="cls-3" data-name="Path 550" transform="translate(-7.43 -1.275)"/>
            </g>
            <g id="Group_1024" class="cls-2" data-name="Group 1024" transform="translate(7.43 1.275)">
                <path id="Path_552" d="M32.037 55.324l5.463 5.463h14.573l-12.749-12.75z" class="cls-4" data-name="Path 552" transform="translate(-13.825 -13.428)"/>
            </g>
            <g id="Group_1025" class="cls-2" data-name="Group 1025" transform="translate(7.43 1.275)">
                <path id="Path_554" d="M42.844 51.58l-3.52-3.543-7.287 7.287z" class="cls-5" data-name="Path 554" transform="translate(-13.825 -13.428)"/>
            </g>
            <g id="Group_1026" class="cls-2" data-name="Group 1026" transform="translate(7.43 1.275)">
                <path id="Path_556" d="M22.2 45.475l7.287-7.287 7.287 7.287-7.287 7.287z" class="cls-6" data-name="Path 556" transform="translate(-11.268 -10.869)"/>
            </g>
            <path id="Path_558" d="M45.678 23.13L32.929 35.884l12.749 12.754H31.109L18.355 35.884 31.109 23.13zM31.109 1.275L7.43 24.954l7.287 7.287L45.678 1.275z" class="cls-7" data-name="Path 558"/>
        </g>
    </g>
</svg>
