<?xml version="1.0" encoding="UTF-8"?>
<svg width="64px" height="70px" viewBox="0 0 64 70" version="1.1" xmlns="http://www.w3.org/2000/svg" xmlns:xlink="http://www.w3.org/1999/xlink">
    <!-- Generator: Sketch 52.4 (67378) - http://www.bohemiancoding.com/sketch -->
    <title>Group 4</title>
    <desc>Created with Sketch.</desc>
    <defs>
        <linearGradient x1="144.807282%" y1="214.768094%" x2="-150.054671%" y2="214.768094%" id="linearGradient-1">
            <stop stop-color="#FFAE4F" offset="0%"></stop>
            <stop stop-color="#FF3447" offset="100%"></stop>
        </linearGradient>
        <path d="M37.3447816,35.5235794 C36.7201052,35.5235794 36.2131215,36.0358891 36.2131215,36.6696861 L36.2131215,52.7209115 L2.26332009,52.7209115 L2.26332009,9.16885417 L36.2131215,9.16885417 L36.2131215,25.2120568 C36.2131215,25.8458538 36.7201052,26.3581635 37.3447816,26.3581635 C37.9694579,26.3581635 38.4764416,25.8458538 38.4764416,25.2120568 L38.4764416,5.04860033 C38.4764416,2.26585309 36.2402814,0 33.4903474,0 L4.98496251,0 C2.23616025,0 0,2.26585309 0,5.04860033 L0,63.7166598 C0,66.5005532 2.23616025,68.7664063 4.98496251,68.7664063 L33.4903474,68.7664063 C36.2391497,68.7664063 38.4753099,66.5005532 38.4753099,63.7178059 L38.4753099,36.6696861 C38.4764416,36.0358891 37.9694579,35.5235794 37.3447816,35.5235794 Z M4.98496251,2.29221354 L33.4903474,2.29221354 C34.9909287,2.29221354 36.2119898,3.52886275 36.2119898,5.04860033 L36.2119898,6.87664063 L2.26218843,6.87664063 L2.26218843,5.04860033 C2.26332009,3.52886275 3.48438129,2.29221354 4.98496251,2.29221354 Z M33.4903474,66.4741927 L4.98496251,66.4741927 C3.48438129,66.4741927 2.26332009,65.2375435 2.26332009,63.7178059 L2.26332009,55.013125 L36.2131215,55.013125 L36.2131215,63.7178059 C36.2131215,65.2375435 34.9920603,66.4741927 33.4903474,66.4741927 Z" id="path-2"></path>
        <path d="M39.3499242,0 L55.0496105,0 C59.4678885,-8.11624501e-16 63.0496105,3.581722 63.0496105,8 L63.0496105,61.3961353 C63.0496105,65.8144133 59.4678885,69.3961353 55.0496105,69.3961353 L35.6139291,69.3961353" id="path-4"></path>
        <mask id="mask-5" maskContentUnits="userSpaceOnUse" maskUnits="objectBoundingBox" x="0" y="0" width="27.4356814" height="69.3961353" fill="white">
            <use xlink:href="#path-4"></use>
        </mask>
    </defs>
    <g id="Welcome" stroke="none" stroke-width="1" fill="none" fill-rule="evenodd">
        <g id="Hasura-website-design-V3" transform="translate(-729.000000, -735.000000)">
            <g id="Group-4" transform="translate(729.000000, 735.000000)">
                <g id="Group-3">
                    <g id="Rectangle">
                        <mask id="mask-3" fill="white">
                            <use xlink:href="#path-2"></use>
                        </mask>
                        <use id="Mask" fill="url(#linearGradient-1)" fill-rule="nonzero" xlink:href="#path-2"></use>
                    </g>
                    <path d="M19.2382208,63.2405343 C17.9966392,63.2405343 16.9869396,62.2308347 16.9869396,60.9892532 C16.9869396,59.7476716 17.9966392,58.737972 19.2382208,58.737972 C20.4798024,58.737972 21.489502,59.7476716 21.489502,60.9892532 C21.489502,62.2308347 20.4798024,63.2405343 19.2382208,63.2405343 Z" id="Shape" stroke="url(#linearGradient-1)" stroke-width="2" fill-rule="nonzero"></path>
                </g>
                <use id="Rectangle" stroke="url(#linearGradient-1)" mask="url(#mask-5)" stroke-width="5" stroke-linecap="square" stroke-linejoin="bevel" stroke-dasharray="1,12" xlink:href="#path-4"></use>
                <path d="M40.2979066,7.32689211 L45.4788017,2.14599701" id="Path-2" stroke="url(#linearGradient-1)" stroke-width="2" stroke-linecap="round"></path>
                <path d="M40.2979066,16.9950461 L54.5453681,2.74758454" id="Path-2-Copy" stroke="url(#linearGradient-1)" stroke-width="2" stroke-linecap="round"></path>
                <path d="M48.5406602,65.6928433 L60.1976742,54.0358293" id="Path-2-Copy-6" stroke="url(#linearGradient-1)" stroke-width="2" stroke-linecap="round"></path>
                <path d="M40.2979066,27.6711102 L59.7262632,8.24275362" id="Path-2-Copy-2" stroke="url(#linearGradient-1)" stroke-width="2" stroke-linecap="round"></path>
                <path d="M40.2979066,38.6614484 L59.7262632,19.2330918" id="Path-2-Copy-3" stroke="url(#linearGradient-1)" stroke-width="2" stroke-linecap="round"></path>
                <path d="M39.3820451,51.8628718 L60.1056255,31.1392915" id="Path-2-Copy-4" stroke="url(#linearGradient-1)" stroke-width="2" stroke-linecap="round"></path>
                <path d="M40.2979066,62.4738478 L59.7262632,43.0454911" id="Path-2-Copy-5" stroke="url(#linearGradient-1)" stroke-width="2" stroke-linecap="round"></path>
            </g>
        </g>
    </g>
</svg>