<svg xmlns="http://www.w3.org/2000/svg" width="60" height="60" viewBox="0 0 60 60">
    <defs>
        <style>
            .cls-1{fill:none}.cls-2{fill:#102954}
        </style>
    </defs>
    <g id="Group_958" data-name="Group 958" transform="translate(19 -9470)">
        <path id="Path_541" d="M0 0h60v60H0z" class="cls-1" data-name="Path 541" transform="translate(-19 9470)"/>
        <g id="Group_932" data-name="Group 932" transform="translate(-11.693 9473.532)">
            <path id="Path_204" d="M48.449 19.038c1.528-3.68 1.528-11.18-.486-16.944a1.14 1.14 0 0 0-2.153.417v.417c-.347 5.486-2.361 8.472-5.347 9.93a1.929 1.929 0 0 1-1.736-.139 22.859 22.859 0 0 0-24.443 0 1.71 1.71 0 0 1-1.528.139c-3.055-1.111-5.139-4.444-5.486-10v-.416a1.142 1.142 0 0 0-2.153-.417C3.1 7.858 3.174 15.358 4.632 19.038a8.231 8.231 0 0 1 .139 5.762 21.479 21.479 0 0 0-1.181 7.64 23.481 23.481 0 0 0 22.638 22.569A22.943 22.943 0 0 0 48.241 24.8a8.235 8.235 0 0 1 .208-5.762zM26.228 49.523a17.432 17.432 0 1 1 17.708-17.777 17.486 17.486 0 0 1-17.708 17.777z" class="cls-2" data-name="Path 204" transform="translate(-3.568 -1.402)"/>
            <path id="Path_205" d="M36.087 39.668l-4.1-6.319a2.227 2.227 0 0 0-3.055-.694 2.279 2.279 0 0 0-1.042 1.875 2.341 2.341 0 0 0 .347 1.18l2.778 4.305a.942.942 0 0 1-.069 1.042l-4.305 4.722a2.2 2.2 0 0 0 .139 3.125 2.427 2.427 0 0 0 1.528.556 2.261 2.261 0 0 0 1.6-.694l3.194-3.75a.553.553 0 0 1 .9.069l2.298 3.263a1.363 1.363 0 0 0 .625.625 2.2 2.2 0 0 0 2.5.069 2.279 2.279 0 0 0 1.042-1.875 2.341 2.341 0 0 0-.347-1.18z" class="cls-2" data-name="Path 205" transform="translate(-10.441 -10.851)"/>
        </g>
    </g>
</svg>
