<svg enable-background="new 0 0 173.2 200" viewBox="0 0 173.2 200" xmlns="http://www.w3.org/2000/svg" xmlns:xlink="http://www.w3.org/1999/xlink"><clipPath id="a"><path d="m37.5 74.2 5.1-.5 7.5-21.8s6-17.2 24.5-10.7c16.9 6 19.3-.8 27.2-2 10.9-1.6 17.2 3 19.3 10.9s7.1 23.3 7.1 23.3l6.7.7c.3-3.1 5.6-51-49.2-45.5-1-.1-4.4-.7-9-.7-14.6.1-40.9 5.5-39.2 46.3"/></clipPath><clipPath id="b"><path d="m37.5 74.2 5.1-.5 7.5-21.8s6-17.2 24.5-10.7c16.9 6 19.3-.8 27.2-2 10.9-1.6 17.2 3 19.3 10.9s7.1 23.3 7.1 23.3l6.7.7c.3-3.1 5.6-51-49.2-45.5-1-.1-4.4-.7-9-.7-14.6.1-40.9 5.5-39.2 46.3"/></clipPath><g fill="#232323"><path clip-path="url(#a)" d="m37.5 78.1c-2.1 0-3.9-1.7-4-3.8-.7-16.8 3.2-29.8 11.5-38.4 9.4-9.8 22.4-11.9 31.7-11.9 4.3 0 7.7.5 9.1.6 2.7-.3 5.5-.4 8.2-.4 15 0 26.5 4.4 34.3 12.9 11.8 13 11 31.8 10.5 37.2-.1 1-.6 2.1-1.4 2.7-.7.6-1.6 1-2.6 1-.1 0-.2 0-.4 0l-6.7-.7c-1.5-.2-2.9-1.2-3.3-2.7-.2-.6-5.1-15.6-7.2-23.6-1.5-5.6-5.2-8.3-11.4-8.3-1.2 0-2.4.1-3.5.3-1.8.3-3.3.9-5.1 1.7-2.8 1.3-6 2.7-11 2.7-3.8 0-8.1-.9-13.1-2.7-2.4-.8-4.6-1.3-6.6-1.3-9.3 0-12.7 9.1-12.8 9.5l-7.5 21.7c-.5 1.5-1.8 2.5-3.3 2.6l-5.1.5c0 .4-.2.4-.3.4"/><path d="m86.5 186.1c-18.5 0-33-9.3-33-21.1s14.5-21.1 33-21.1 33 9.3 33 21.1-14.5 21.1-33 21.1"/><path d="m86.5 178.2c-18.5 0-33-9.3-33-21.1s14.5-21.1 33-21.1 33 9.3 33 21.1-14.5 21.1-33 21.1m-43.6-113.6c-.4 0-.8-.1-1.2-.2-23.5-7.8-29.6-36.2-27.5-48.9 1.1-7.1 4.7-8.2 6.7-8.2 4.4 0 6.8 5.1 7.6 6.8 8.5 18 28.2 18.8 28.4 18.8 1.4 0 2.7.8 3.3 2 .7 1.2.7 2.7 0 3.9l-13.9 23.9c-.7 1.2-2 1.9-3.4 1.9m-7.7 43.8c-7.8 0-14.2-7.7-14.2-17.1s6.4-17.1 14.2-17.1 14.2 7.7 14.2 17.1c-.1 9.4-6.4 17.1-14.2 17.1m103.4 0c-7.8 0-14.2-7.7-14.2-17.1s6.4-17.1 14.2-17.1 14.2 7.7 14.2 17.1-6.4 17.1-14.2 17.1m-7.7-43.8c-1.4 0-2.7-.8-3.4-2l-13.8-23.8c-1.1-1.9-.4-4.3 1.4-5.4.6-.3 1.2-.5 1.9-.5.8 0 19.9-.9 28.4-18.8.8-1.7 3.2-6.8 7.6-6.8 2 0 5.6 1.1 6.7 8.2 2.1 12.8-4 41.2-27.5 48.9-.5.2-.9.2-1.3.2"/><path d="m85.9 165.9c-32.7 0-58.3-27.7-58.3-63.1 0-.3 0-.7.1-1l13.8-51c3.5-15.4 20.3-24.6 45.1-24.6 25.1 0 43 9.4 45.7 24l.4 1.6 11.3 50.2c.1.3.1.6.1.9 0 35.3-25.6 63-58.2 63"/><path d="m37.6 78.1c-2.1 0-3.9-1.7-4-3.8-.7-16.9 3.1-29.8 11.4-38.4 9.5-9.8 22.5-11.9 31.8-11.9 4.3 0 7.7.5 9.1.6 2.7-.3 5.5-.4 8.2-.4 15 0 26.5 4.4 34.3 12.9 11.6 12.7 11.3 30.3 10.6 37.3-.1 1.1-.6 2.1-1.4 2.8-.7.6-1.6 1-2.6 1-.1 0-.2 0-.4 0l-6.7-.7c-1.5-.2-2.8-1.2-3.3-2.7-.2-.6-5.1-15.6-7.2-23.5-1.5-5.6-5.2-8.3-11.4-8.3-1.1 0-2.3.1-3.5.3-1.8.3-3.3.9-5.1 1.7-2.8 1.3-6 2.7-11 2.7-3.8 0-8-.9-13.1-2.7-2.4-.8-4.6-1.3-6.6-1.3-9.4 0-12.8 9.4-12.8 9.5l-7.5 21.8c-.5 1.5-1.8 2.5-3.3 2.6l-5.1.5c-.1 0-.3 0-.4 0m4.4 78.9c-2.2 0-3.9-1.8-4-3.9 0-.7.2-1.5.6-2.1 7.3-11.7 5.2-17.5 3.1-18.9-1.7-.9-2.3-2.9-1.7-4.7 7.1-19.8 27.1-20.4 29.4-20.4h.3c1.8.1 3.4 1.4 3.8 3.2 5 24.4-17.4 41.1-29.8 46.6-.7.1-1.2.2-1.7.2m89.4 0c-.5 0-1.1-.1-1.6-.3-12.5-5.5-34.8-22.2-29.8-46.6.4-1.8 1.9-3.1 3.8-3.2h.3c2.3 0 22.2.6 29.4 20.4.7 1.8-.1 3.9-1.8 4.8-.1.1-5.9 4.2 3.2 18.8.9 1.5.8 3.4-.4 4.7-.8.9-1.9 1.4-3.1 1.4"/><path d="m55.5 134.6c-34.9 0-43.4-34.5-43.5-34.9-.4-1.7.4-3.5 1.9-4.4.6-.3 1.3-.5 1.9-.5 1 0 2 .4 2.8 1.2 2.7 2.7 7.5 4.1 14.1 4.1 16.2 0 37.4-8.4 39.7-9.3l.2-.1c1.1-.5 2.5-.4 3.6.2s1.8 1.7 2 3l3.8 31.9c.2 1.8-.9 3.6-2.6 4.2-8.6 3-16.6 4.6-23.9 4.6zm62.2 0c-7.3 0-15.4-1.6-23.9-4.6-1.7-.6-2.8-2.4-2.6-4.2l3.8-32c.2-2 1.9-3.5 3.9-3.5.6 0 1.1.1 1.6.4 2.5 1 23.6 9.4 39.9 9.4 6.6 0 11.4-1.4 14.1-4.1.7-.7 1.7-1.2 2.8-1.2.7 0 1.3.2 1.9.5 1.5.9 2.3 2.6 1.9 4.4 0 .3-8.5 34.9-43.4 34.9m-30.2 58.1c-6.2 0-11.2-5-11.2-11.2s5-11.2 11.2-11.2 11.2 5 11.2 11.2-5 11.2-11.2 11.2m-44.9-119.1 7.5-21.8s6-17.2 24.5-10.7c16.9 6 19.3-.8 27.2-2 10.9-1.6 17.2 3 19.3 10.9s7.1 23.3 7.1 23.3l6.7.7c.3-3.1 5.6-51-49.2-45.5-4.2-.6-50.5-8.1-48.3 45.5z"/><path clip-path="url(#b)" d="m37.5 78.1c-2.1 0-3.9-1.7-4-3.8-.7-16.8 3.2-29.8 11.5-38.4 9.4-9.8 22.4-11.9 31.7-11.9 4.3 0 7.7.5 9.1.6 2.7-.3 5.5-.4 8.2-.4 15 0 26.5 4.4 34.3 12.9 11.8 13 11 31.8 10.5 37.2-.1 1-.6 2.1-1.4 2.7-.7.6-1.6 1-2.6 1-.1 0-.2 0-.4 0l-6.7-.7c-1.5-.2-2.9-1.2-3.3-2.7-.2-.6-5.1-15.6-7.2-23.6-1.5-5.6-5.2-8.3-11.4-8.3-1.2 0-2.4.1-3.5.3-1.8.3-3.3.9-5.1 1.7-2.8 1.3-6 2.7-11 2.7-3.8 0-8.1-.9-13.1-2.7-2.4-.8-4.6-1.3-6.6-1.3-9.3 0-12.7 9.1-12.8 9.5l-7.5 21.7c-.5 1.5-1.8 2.5-3.3 2.6l-5.1.5c0 .4-.2.4-.3.4"/></g><path d="m115.5 165c0 9.5-13 17.1-29 17.1s-29-7.7-29-17.1c0-9.5 13-17.1 29-17.1 16.1 0 29 7.6 29 17.1" fill="#f1c61c"/><path d="m86.5 183.5c-8 0-15.5-1.8-21.2-5.2-5.9-3.5-9.2-8.2-9.2-13.3s3.3-9.8 9.2-13.3c5.7-3.4 13.2-5.2 21.2-5.2s15.5 1.9 21.2 5.2c5.9 3.5 9.2 8.2 9.2 13.3s-3.3 9.8-9.2 13.3c-5.6 3.3-13.2 5.2-21.2 5.2zm0-34.3c-15.2 0-27.6 7.1-27.6 15.8s12.4 15.8 27.6 15.8 27.6-7.1 27.6-15.8c.1-8.7-12.3-15.8-27.6-15.8z" fill="#232323"/><path d="m114.9 160c0 10.4-12.8 18.8-28.5 18.8s-28.5-8.4-28.5-18.8 12.8-18.8 28.5-18.8c15.8 0 28.5 8.4 28.5 18.8" fill="#d2962a"/><path d="m115.5 157.1c0 9.4-13 17.1-29 17.1s-29-7.7-29-17.1c0-9.5 13-17.1 29-17.1 16.1 0 29 7.6 29 17.1" fill="#d79a4f"/><path d="m86.5 175.6c-8 0-15.5-1.8-21.2-5.2-5.9-3.5-9.2-8.2-9.2-13.3s3.3-9.8 9.2-13.3c5.7-3.4 13.2-5.2 21.2-5.2s15.5 1.8 21.2 5.2c5.9 3.5 9.2 8.2 9.2 13.3s-3.3 9.8-9.2 13.3c-5.6 3.3-13.2 5.2-21.2 5.2zm0-34.3c-15.2 0-27.6 7.1-27.6 15.8s12.4 15.7 27.6 15.7 27.6-7.1 27.6-15.7c.1-8.7-12.3-15.8-27.6-15.8z" fill="#232323"/><path d="m114.9 150.3c0 10.6-12.9 19.2-28.7 19.2-15.9 0-28.7-8.6-28.7-19.2s12.9-19.2 28.7-19.2c15.9 0 28.7 8.6 28.7 19.2" fill="#b7804e"/><path d="m56.7 36.9s-22.2-.6-31.8-21.1-14.3 34.2 18 44.9z" fill="#fff"/><path d="m42.9 62.1c-.1 0-.3 0-.4-.1-22-7.3-27.7-34.1-25.8-46.1.8-5 2.7-6 4.2-6 1.9 0 3.6 1.7 5.3 5.3 9.2 19.4 30.4 20.3 30.6 20.3.5 0 .9.3 1.2.7.2.4.2.9 0 1.4l-13.9 23.8c-.2.4-.7.7-1.2.7zm-22-49.5c-.1 0-1 .7-1.5 3.7-.8 5.2 0 14.3 3.6 23 3 6.9 8.6 15.7 19.3 19.7l12.2-21c-2.3-.3-6.2-1-10.5-2.8-6.4-2.6-15.1-7.9-20.3-18.9-1.5-3-2.5-3.7-2.8-3.7z" fill="#232323"/><path d="m37.4 56.8s-19-10.7-18.2-39.5c0 0 .6-4.3 1.7-4.7 0 0-4 29.3 17.3 40.9z" fill="#c2cfce"/><path d="m45.4 91.2c0 7.3-4.6 13.2-10.2 13.2-5.7 0-10.2-5.9-10.2-13.2s4.6-13.2 10.2-13.2c5.6.1 10.2 6 10.2 13.2" fill="#d79a4f"/><path d="m35.2 105.8c-6.4 0-11.6-6.5-11.6-14.5s5.2-14.5 11.6-14.5 11.6 6.5 11.6 14.5-5.2 14.5-11.6 14.5zm0-26.3c-4.9 0-8.8 5.3-8.8 11.8s4 11.8 8.8 11.8 8.8-5.4 8.8-11.9-4-11.7-8.8-11.7z" fill="#232323"/><path d="m128.3 91.2c0 7.3 4.6 13.2 10.2 13.2s10.2-5.9 10.2-13.2-4.6-13.2-10.2-13.2-10.2 6-10.2 13.2" fill="#d79a4f"/><path d="m138.6 105.8c-6.4 0-11.6-6.5-11.6-14.5s5.2-14.5 11.6-14.5 11.6 6.5 11.6 14.5-5.2 14.5-11.6 14.5zm0-26.3c-4.9 0-8.9 5.3-8.9 11.8s4 11.8 8.9 11.8 8.8-5.3 8.8-11.8c0-6.6-3.9-11.8-8.8-11.8z" fill="#232323"/><path d="m142.7 91.1c0 4.4-2.3 7.9-5.1 7.9s-5.1-3.5-5.1-7.9 2.3-7.9 5.1-7.9c2.8.1 5.1 3.6 5.1 7.9m-112.7 0c0 4.4 2.3 7.9 5.1 7.9s5.1-3.5 5.1-7.9-2.3-7.9-5.1-7.9c-2.8.1-5.1 3.6-5.1 7.9" fill="#b7804e"/><path d="m117 36.9s22.2-.6 31.8-21.1 14.3 34.2-18 44.9z" fill="#fff"/><path d="m130.9 62.1c-.5 0-.9-.3-1.2-.7l-13.8-23.8c-.2-.4-.2-.9 0-1.4.2-.4.7-.7 1.2-.7.2 0 21.5-.9 30.6-20.3 1.7-3.6 3.4-5.3 5.3-5.3 1.5 0 3.4 1 4.2 6 1.9 12-3.8 38.8-25.8 46.1-.2 0-.4.1-.5.1zm-11.6-24 12.2 21c10.7-4 16.3-12.8 19.2-19.7 3.7-8.7 4.5-17.8 3.6-23-.5-3-1.3-3.7-1.5-3.7-.3 0-1.3.7-2.8 3.8-5.2 11-13.9 16.3-20.3 18.9-4.2 1.6-8.1 2.4-10.4 2.7z" fill="#232323"/><path d="m128.9 52.8-.5-1.7c-2.3-12.9-19.3-20.9-41.8-20.9s-38.2 7.9-41.3 21.7l-13.8 51c0 33.4 24.3 59.2 54.3 59.2s54.3-25.7 54.3-59.2z" fill="#d79a4f"/><path d="m85.9 163.9c-15.1 0-29.3-6.3-39.8-17.7-10.6-11.4-16.4-26.9-16.4-43.5 0-.2 0-.3.1-.5l13.8-50.9c3.3-14.5 19.4-23.2 43.2-23.2 24.1 0 41.3 8.8 43.8 22.5l.4 1.6v.1l11.3 50v.4c0 16.6-5.8 32-16.4 43.5-10.7 11.4-24.9 17.7-40 17.7zm-52.4-60.9c.1 31.9 23.1 56.9 52.3 56.9 29.3 0 52.2-25 52.3-57l-11.1-49.7-.5-1.7c0-.1 0-.1 0-.2-2.1-11.5-18.1-19.3-39.9-19.3s-36.5 7.5-39.3 20.1v.1c-.1.1-13.8 50.8-13.8 50.8z" fill="#232323"/><path d="m42.7 73.6 7.5-21.8s6-17.2 24.5-10.7c16.9 6 19.3-.8 27.2-2 10.9-1.6 17.2 3 19.3 10.9s7.1 23.3 7.1 23.3l6.7.7c.3-3.1 5.6-51-49.2-45.5-4.2-.6-50.5-8.1-48.3 45.5.1.2 5.2-.4 5.2-.4z" fill="#1d1d1d"/><path d="m135.1 75.5h-.1l-6.7-.7c-.5-.1-1-.4-1.2-.9 0-.2-5.1-15.5-7.1-23.4-1.7-6.7-6.5-10.2-13.8-10.2-1.3 0-2.6.1-3.9.3-2.2.3-3.9 1.1-5.7 1.9-2.6 1.2-5.5 2.5-9.9 2.5-3.5 0-7.5-.8-12.2-2.5-2.6-.9-5.2-1.4-7.5-1.4-11.2 0-15.1 10.8-15.2 11.2l-7.8 21.8c-.2.5-.6.9-1.2.9l-5.1.5c-.8.1-1.4-.5-1.5-1.2 0 0 0 0 0-.1-.7-16.1 2.9-28.4 10.7-36.5 8.8-9.2 21.1-11.1 29.9-11.1 4.3 0 7.7.5 8.9.6h.1c2.8-.3 5.5-.4 8.3-.4 14.2 0 25.1 4.1 32.4 12.1 10.8 11.8 10.5 28.6 9.9 35.2v.2c0 .7-.6 1.2-1.3 1.2zm-5.7-3.3 4.4.5c.4-6.1.3-21.4-9.3-31.9-6.8-7.4-17-11.2-30.4-11.2-2.6 0-5.3.1-8.2.4-.1 0-.2 0-.3 0h-.3c-2.8-.4-5.7-.6-8.6-.6-8.2 0-19.8 1.8-27.9 10.3-7 7.3-10.4 18.4-10 33l2.8-.3 7.2-20.9c0-.1 4.7-13.1 17.8-13.1 2.6 0 5.5.5 8.4 1.6 4.5 1.6 8.2 2.4 11.3 2.4 3.8 0 6.2-1.1 8.8-2.2 1.9-.9 3.9-1.8 6.5-2.1 1.5-.2 3-.3 4.3-.3 8.6 0 14.5 4.4 16.5 12.3 1.9 6.4 5.9 18.7 7 22.1z" fill="#232323"/><path d="m130.7 130.2s-5.9 14.6-23.3 23.5l-1.6 2.7s18.6-7 27.2-27.1zm-44.2-61 50.7 5.1s-10 26.5-38.1 20.5z" fill="#fff"/><path d="m107 97.7c-2.7 0-5.6-.3-8.4-.9-.6-.1-1.1-.5-1.4-1.1l-12.5-25.6c-.3-.6-.3-1.4.2-2 .4-.6 1.1-.9 1.8-.8l50.7 5.1c1.1.1 1.9 1.1 1.8 2.2 0 .2-.1.3-.1.5-.1.2-2.2 5.8-7.1 11.3-6.8 7.4-15.4 11.3-25 11.3zm-6.6-4.6c2.3.4 4.5.7 6.7.7 16.1 0 24.3-12.4 27.1-17.7l-44.3-4.5c-.1 0 10.5 21.5 10.5 21.5z" fill="#232323"/><path d="m86.5 69.2-50.7 5.1s10 26.5 38.1 20.5z" fill="#fff"/><path d="m65.9 97.7c-9.6 0-18.2-3.9-24.8-11.3-4.9-5.6-7.1-11.1-7.1-11.4-.2-.6-.2-1.2.2-1.7.3-.5.9-.9 1.5-.9l50.7-5.1c.7-.1 1.4.2 1.8.8s.5 1.4.2 2l-12.7 25.6c-.3.5-.8.9-1.4 1.1-2.9.6-5.7.9-8.4.9zm-27.1-21.7c1.5 2.8 3.3 5.4 5.4 7.8 5.9 6.6 13.2 9.9 21.7 9.9 2.1 0 4.4-.2 6.7-.7l10.6-21.5z" fill="#232323"/><path d="m43.7 128.7s10 5.6-1.8 24.3c0 0 33.2-14.5 27.5-42.1.1 0-19.1-.5-25.7 17.8" fill="#fff"/><path d="m42 154.5c-.8 0-1.4-.6-1.4-1.4 0-.3.1-.5.2-.7 5.7-9.1 5.9-14.7 5.2-17.9-.8-3.3-2.8-4.5-2.9-4.5-.6-.3-.8-1-.6-1.7 6.5-18.2 24.9-18.7 26.9-18.7h.2c.6 0 1.2.5 1.3 1.1 2.4 11.8-1.8 23.1-12.1 32.7-7.7 7.2-15.9 10.8-16.3 11-.2 0-.4.1-.5.1zm3.4-26.2c1 .9 2.5 2.6 3.2 5.4 1.1 4.4.1 9.8-3.1 16 3.1-1.7 7.4-4.6 11.5-8.4 9.3-8.7 13.2-18.5 11.4-29-4 .3-17.5 2-23 16z" fill="#232323"/><path d="m129.7 128.7s-10 5.6 1.7 24.3c0 0-33.2-14.5-27.6-42.1.1 0 19.3-.5 25.9 17.8" fill="#fff"/><path d="m131.4 154.5c-.2 0-.4 0-.6-.1-.3-.2-8.6-3.8-16.3-11-10.3-9.6-14.5-20.9-12.1-32.7.1-.6.7-1.1 1.3-1.1h.2c2.1 0 20.4.5 26.9 18.7.2.6 0 1.3-.6 1.7-.1 0-2.1 1.3-2.9 4.5-.8 3.1-.5 8.7 5.1 17.7.5.6.4 1.5-.2 1.9-.1.3-.4.4-.8.4zm-26.4-42.2c-3.3 19.8 14.6 32.6 22.9 37.3-3.2-6.2-4.3-11.6-3.1-16 .7-2.8 2.2-4.6 3.2-5.4-5.5-13.8-19-15.6-23-15.9z" fill="#232323"/><path d="m112.2 120.9c0 41.6-19.2 44-26.2 44-7.8 0-26.2-2.4-26.2-44z" fill="#e66c6c"/><path d="m86 166.5c-2.6 0-10.6 0-17.2-6.9-7-7.3-10.6-20.4-10.6-38.7 0-.9.7-1.6 1.6-1.6h52.4c.9 0 1.6.7 1.6 1.6 0 39.7-17.4 45.6-27.8 45.6zm-24.6-44c.3 27.1 8.6 40.8 24.6 40.8 5.8 0 10.7-2 14.6-5.9 6.5-6.6 9.8-18.3 10-34.9z" fill="#232323"/><path d="m85.2 68.8s-34.7-9-41.5 4.5z" fill="#1d1d1d"/><path d="m43.7 74.6c-.8 0-1.4-.6-1.4-1.4 0-.2.1-.4.1-.6 2.7-5.4 9.6-8.2 20.4-8.2 11 0 22.2 2.9 22.7 3 .7.2 1.2.9 1 1.7-.1.6-.6 1-1.2 1l-41.5 4.5zm19.2-7.4c-7.8 0-13.2 1.5-16.2 4.4l29.5-3.2c-3.9-.7-8.7-1.2-13.3-1.2z" fill="#232323"/><path d="m87.7 69.1s34.7-9 41.5 4.5c0 0-41.5-4.5-41.5-4.5z" fill="#1d1d1d"/><path d="m129.2 75h-.1l-41.5-4.5c-.8-.1-1.3-.8-1.2-1.5.1-.6.5-1 1-1.2.5-.1 11.6-3 22.7-3 10.7 0 17.6 2.7 20.3 8.1.4.6.2 1.5-.4 1.9-.2.1-.5.2-.8.2zm-32.4-6.3 29.5 3.2c-3-2.9-8.4-4.4-16.2-4.4-4.7 0-9.4.6-13.3 1.2z" fill="#232323"/><path d="m74.2 94.3-.3.1c-3.9 1.6-44.7 17.7-58.1 4.4 0 0 10.7 46 62.2 27.5 0-.1-3.8-32-3.8-32z" fill="#1d1d1d"/><path d="m55.5 132c-17.2 0-27.4-9-33-16.5-6-8.1-7.9-16.1-8-16.4-.2-.7.3-1.5 1-1.7.5-.1 1 0 1.3.4 3.2 3.2 8.6 4.8 15.9 4.8 16.8 0 38.3-8.5 40.7-9.5l.3-.1c.7-.3 1.5 0 1.8.7 0 .1.1.2.1.4l3.8 31.9c.1.6-.3 1.2-.9 1.5-8.2 3-16 4.5-23 4.5zm-37-29.6c1.1 3 3.1 7.3 6.3 11.5 7.5 10.1 17.9 15.3 30.7 15.3 6.4 0 13.5-1.3 21.1-3.9l-3.5-29.1c-5.6 2.2-24.8 9.2-40.3 9.2-5.9 0-10.7-1-14.3-3z" fill="#232323"/><path d="m98.9 94.3.3.1c4 1.6 44.7 17.7 58.1 4.4 0 0-10.7 46-62.2 27.5 0-.1 3.8-32 3.8-32z" fill="#1d1d1d"/><path d="m117.7 132c-7 0-14.8-1.5-23.1-4.5-.6-.2-1-.8-.9-1.5l3.8-31.9c.1-.8.8-1.3 1.5-1.2.1 0 .2 0 .4.1 0 0 .1 0 .3.1 2.4 1 23.9 9.5 40.6 9.5 7.3 0 12.7-1.6 15.9-4.8.5-.5 1.4-.5 2 0 .3.3.5.8.4 1.3-.1.3-2 8.3-8 16.4-5.5 7.5-15.7 16.5-32.9 16.5zm-21.1-6.7c7.6 2.6 14.7 3.9 21.1 3.9 12.8 0 23.2-5.1 30.7-15.3 3.2-4.2 5.1-8.5 6.3-11.5-3.6 2-8.4 3-14.2 3-15.5 0-34.7-7-40.3-9.2-.1 0-3.6 29.1-3.6 29.1z" fill="#232323"/><path d="m102.6 102.3-16.1-33.1-16.2 32.5c0 .1 0 .1 0 0-1.1 3.2-1.8 5.4-1.8 8.2 0 10 8.1 18.2 18 18.2 10 0 18-8 18-17.9 0-2.9-.7-5.5-1.9-7.9" fill="#d79a4f"/><path d="m86.5 129.7c-10.8 0-19.6-8.9-19.6-19.8 0-3.1.7-5.5 1.8-8.5 0-.1.1-.2.1-.4v-.1l16.2-32.4c.3-.5.8-.9 1.4-.9.6 0 1.2.3 1.4.9l16.2 33.1c0 .1.1.2.1.2 1.3 2.7 1.9 5.5 1.9 8.4.1 10.8-8.7 19.5-19.5 19.5zm-14.8-27.4c-1.1 3.3-1.7 5.1-1.7 7.6 0 9.2 7.4 16.6 16.4 16.6 9.1 0 16.4-7.3 16.4-16.3 0-2.5-.6-4.8-1.7-7.2 0-.1-.1-.2-.1-.2l-14.6-30z" fill="#232323"/><path d="m61.5 131.6s9.1-1.1 16.5-3.9c0 0 7.5 4.3 17.1-.1 0 0 8.6 3.2 15.2 3.9l-.4 4.3s-9.3-3.4-14.8-4.8c0 0-7.7 4.2-17.1 0l-16 4.8z" fill="#c8605f"/><path d="m80.2 111.2c0 1.6-1 2.9-2.3 2.9s-2.3-1.3-2.3-2.9 1-2.9 2.3-2.9c1.3-.1 2.3 1.2 2.3 2.9" fill="#e0b180"/><path d="m21.3 30c-1 0-2-.1-3.2-.4-.7-.2-1.2-.9-1-1.6s.9-1.2 1.6-1c7.2 1.6 10-3.8 10-3.8.3-.7 1.2-1 1.8-.6.7.3 1 1.2.6 1.8-1 2.1-4.3 5.6-9.8 5.6z" fill="#232323"/><path d="m90.7 56.8c0 2.4-2 4.4-4.4 4.4s-4.4-2-4.4-4.4 2-4.4 4.4-4.4 4.4 2 4.4 4.4z" fill="#cc3531"/><path d="m86.3 62.6c-3.2 0-5.8-2.6-5.8-5.8s2.6-5.8 5.8-5.8 5.8 2.6 5.8 5.8-2.6 5.8-5.8 5.8zm0-8.8c-1.7 0-3 1.3-3 3s1.4 3 3 3c1.7 0 3-1.4 3-3s-1.3-3-3-3z" fill="#232323"/><path d="m71.3 97-4.6 1.4s-11.5 15.1 3.9 28.7l4.4-1.2c-.1 0-14.9-9-3.7-28.9m30.1-.2 5.3 1.8s11.1 14.8-4.3 28.4l-4.4-1.3s14.6-9.1 3.4-28.9" fill="#181819"/><path d="m39 82.8-1.2 4.2s9.3 12 23.7 10.4c0 0-12.3-.3-22.5-14.6m95.1-.3.9 3.8s-7.3 12.7-23.2 11.1c0 0 12.1-.6 22.3-14.9" fill="#b7804e"/><path d="m73.2 91.7s-21.1 4.6-32.5-15.9l-2.9.3s7.7 23.5 34.2 18.2zm26.5-.1s21.1 4.6 32.1-15.9l2.4.3s-7.2 22.9-33.7 17.6zm16.4 40.4s.1 7.9 11.7 17.6c0 0-6.8-2.8-15.3-12.4l.7-5.4s2.9.2 2.9.2zm-60.1 0s1.1 7.9-10.4 17.6c0 0 7.1-3.7 14.2-11l-.9-6.8c-.1.1-2.9.2-2.9.2z" fill="#c2cfce"/><path d="m134.2 82.4 4.6 20.3-1.9-.2-4-18.2zm-47.7-9.7 14.5 29.9s7.4 11.7-5.5 21.1c0 0 8-9 3.3-20.2-4.6-11.1-12.3-30.8-12.3-30.8m38.5-5.1-5.5-18.5s-2-6.8-9.1-8.4c0 0 4.8 1.4 7.6 10.3 1.6 5.2 3.2 10.4 4.7 15.6 0 0 2.3 1 2.3 1zm29.3 35s-6.1 20.2-25.1 24.9c.1.1 17.2-8.8 25.1-24.9m-46.3 28.5s-3 27.1-19.5 32c0 0 19 .8 21.9-31.7zm28.8-51.4s8.4-2.7 10.6 10.1c0 0 1.4 8.9-5.3 12.2 0 0 6.6-5.5 2.5-14.9.1-.1-1.5-6.4-7.8-7.4" fill="#fff"/><path d="m135.5 57.2s21.4-11.2 18.8-42.3c0 0-.1-2.5-1.6-2.2 0 0 3.3 29.6-18 41.3 0-.1.8 3.2.8 3.2z" fill="#c2cfce"/><path d="m151.6 31.3c-5.5 0-8.8-3.5-9.9-5.7-.3-.7-.1-1.5.6-1.9.7-.3 1.5-.1 1.9.6.1.2 2.9 5.4 10 3.8.7-.2 1.5.3 1.7 1s-.3 1.5-1 1.7h-.1c-1 .4-2.1.5-3.2.5z" fill="#232323"/><path d="m67.5 81.5c0 1.6-1.3 3-3 3-1.6 0-3-1.3-3-3 0-1.6 1.3-3 3-3 1.6 0 3 1.3 3 3 0-.1 0-.1 0 0m42.8 0c0 1.6-1.3 3-3 3-1.6 0-3-1.3-3-3 0-1.6 1.3-3 2.9-3 1.7 0 3.1 1.3 3.1 3 0-.1 0-.1 0 0" fill="#1d1d1d"/><path d="m110.4 32s24.8 4.9 23.3 40.6l-2-.2c.1 0 2-30.7-21.3-40.4" fill="#fff"/><path d="m110.9 44.3c1.3 1.3 1.6 3.2.6 4.2-1 1.1-2.9.9-4.2-.4s-1.6-3.1-.6-4.2c1-1 2.9-.8 4.2.4m4.4 6.9c.2 1.1-.3 2.2-1.2 2.4s-1.8-.6-2.1-1.7c-.2-1.1.3-2.2 1.2-2.4 1-.2 1.9.6 2.1 1.7" fill="#e0b180"/><path d="m89.5 145.8c.1 6.2-1.6 11.3-3.6 11.3-2.1 0-3.8-5-3.9-11.2s1.6-11.3 3.6-11.3c2.1-.1 3.8 4.9 3.9 11.2" fill="#e58183"/><path d="m85.8 141.7v8" fill="#fff"/><path d="m85.8 151.3c-.9 0-1.6-.7-1.6-1.6v-8c0-.9.7-1.6 1.6-1.6s1.6.7 1.6 1.6v8c0 .9-.7 1.6-1.6 1.6z" fill="#232323"/><path d="m94.7 181.5c0 4-3.3 7.3-7.3 7.3s-7.3-3.3-7.3-7.3 3.2-7.3 7.2-7.4c4 0 7.3 3.2 7.4 7.2z" fill="#f1c61c"/><path d="m87.5 190.1c-4.8 0-8.7-3.9-8.7-8.6s3.9-8.7 8.7-8.7 8.7 3.9 8.7 8.7-4 8.6-8.7 8.6zm0-14.5c-3.2 0-5.9 2.6-5.9 5.9s2.6 5.9 5.9 5.9 5.9-2.6 5.9-5.9-2.7-5.9-5.9-5.9z" fill="#232323"/><path d="m89.4 184.8c-.3 0-.6-.2-.8-.5l-2.8-5.4c-.2-.4 0-1 .4-1.2s.9 0 1.1.4l2.8 5.4c.2.4.1 1-.4 1.2s-.2.1-.3.1z" fill="#232323"/><path d="m85.5 184.8c-.5 0-.9-.4-.9-.9 0-.2.1-.5.3-.6l2.5-2.5c.4-.3.9-.3 1.2.1.3.3.3.8 0 1.2l-2.5 2.5c-.1.1-.3.2-.6.2z" fill="#232323"/></svg>