<svg xmlns="http://www.w3.org/2000/svg" width="60" height="60" viewBox="0 0 60 60">
    <defs>
        <style>
            .cls-1{fill:none}.cls-2{fill:#2b0785}.cls-3{fill:#fff;fill-rule:evenodd}
        </style>
    </defs>
    <g id="Group_1071" data-name="Group 1071" transform="translate(-962 -2559)">
        <path id="Path_540" d="M0 0h60v60H0z" class="cls-1" data-name="Path 540" transform="translate(962 2559)"/>
        <g id="Group_1028" data-name="Group 1028" transform="translate(892.111 2489.111)">
            <rect id="Rectangle_1943" width="48" height="48" class="cls-2" data-name="Rectangle 1943" rx="10.258" transform="translate(75.889 75.889)"/>
            <path id="Path_559" d="M83.271 108.628h-1.13V93.54h1.13zm-.581-18.786a.862.862 0 1 1 .879-.854.862.862 0 0 1-.878.854z" class="cls-3" data-name="Path 559" transform="translate(.507 1.045)"/>
            <path id="Path_560" d="M93.969 108.922c-5.521 0-9.008-4.019-9.008-10.411 0-6.359 3.5-10.394 9.008-10.394s9.006 4.036 9.006 10.394c0 6.389-3.487 10.411-9.006 10.411zm0-19.766c-4.805 0-7.874 3.628-7.874 9.356s3.083 9.374 7.874 9.374 7.873-3.642 7.873-9.374-3.067-9.356-7.873-9.356z" class="cls-3" data-name="Path 560" transform="translate(.775 1.045)"/>
            <path id="Path_561" d="M109.537 108.922c-4.144 0-7.116-2.34-7.284-5.688h1.107c.168 2.745 2.746 4.665 6.262 4.665 3.431 0 5.826-1.948 5.826-4.581 0-2.118-1.428-3.335-4.817-4.189l-2.395-.588c-3.739-.954-5.437-2.467-5.437-5 0-3.152 2.944-5.422 6.628-5.422 3.81 0 6.654 2.241 6.781 5.211H115.1c-.154-2.423-2.521-4.189-5.7-4.189-3.041 0-5.464 1.821-5.464 4.371 0 2.019 1.485 3.18 4.734 3.992l2.256.574c3.908.966 5.66 2.467 5.66 5.155 0 3.348-2.815 5.688-7.046 5.688z" class="cls-3" data-name="Path 561" transform="translate(2.253 1.045)"/>
        </g>
    </g>
</svg>
