<svg xmlns="http://www.w3.org/2000/svg" width="60" height="60" viewBox="0 0 60 60">
    <defs>
        <style>
            .cls-1{fill:none}.cls-2{fill:#2b0785}.cls-3{fill:#fff;fill-rule:evenodd}
        </style>
    </defs>
    <g id="Group_947" data-name="Group 947" transform="translate(239 -9345)">
        <path id="Path_540" d="M0 0h60v60H0z" class="cls-1" data-name="Path 540" transform="translate(-239 9345)"/>
        <g id="Group_920" data-name="Group 920" transform="translate(-295.77 9288.229)">
            <rect id="Rectangle_1870" width="48" height="48" class="cls-2" data-name="Rectangle 1870" rx="10" transform="translate(62.77 62.77)"/>
            <path id="Path_527" d="M73.671 102.764h-1.13V87.677h1.13zm-.581-18.786a.862.862 0 1 1 .88-.854.862.862 0 0 1-.88.854z" class="cls-3" data-name="Path 527" transform="translate(-3.012 -6.211)"/>
            <path id="Path_528" d="M86.232 103.058c-5.521 0-9.008-4.02-9.008-10.411 0-6.359 3.5-10.394 9.008-10.394s9.007 4.036 9.007 10.394c0 6.391-3.488 10.411-9.007 10.411zm0-19.767c-4.806 0-7.873 3.628-7.873 9.356s3.082 9.374 7.873 9.374 7.874-3.642 7.874-9.374-3.068-9.356-7.874-9.356z" class="cls-3" data-name="Path 528" transform="translate(-4.607 -6.21)"/>
            <path id="Path_529" d="M112.061 103.059c-4.145 0-7.116-2.341-7.285-5.688h1.107c.169 2.745 2.747 4.665 6.262 4.665 3.431 0 5.827-1.949 5.827-4.581 0-2.117-1.429-3.335-4.818-4.189l-2.395-.589c-3.739-.954-5.437-2.467-5.437-5 0-3.152 2.944-5.422 6.628-5.422 3.81 0 6.654 2.242 6.78 5.211h-1.107c-.155-2.423-2.521-4.188-5.7-4.188-3.042 0-5.465 1.822-5.465 4.372 0 2.019 1.485 3.18 4.733 3.991l2.256.575c3.908.966 5.659 2.467 5.659 5.155 0 3.347-2.814 5.688-7.045 5.688z" class="cls-3" data-name="Path 529" transform="translate(-13.389 -6.211)"/>
        </g>
    </g>
</svg>
