<?xml version="1.0" encoding="utf-8"?>
<!-- Generator: Adobe Illustrator 22.1.0, SVG Export Plug-In . SVG Version: 6.00 Build 0)  -->
<svg version="1.1" xmlns="http://www.w3.org/2000/svg" xmlns:xlink="http://www.w3.org/1999/xlink" x="0px" y="0px"
	 viewBox="0 0 806 324" style="enable-background:new 0 0 806 324;" xml:space="preserve">
<style type="text/css">
	.st0{filter:url(#Adobe_OpacityMaskFilter);}
	.st1{fill:#FFFFFF;}
	.st2{filter:url(#Adobe_OpacityMaskFilter_1_);}
	
		.st3{opacity:0.7048;fill:none;stroke:url(#Rectangle-Copy-7_1_);stroke-width:1.5;stroke-linecap:round;stroke-linejoin:round;stroke-dasharray:0,4;enable-background:new    ;}
	
		.st4{opacity:0.7048;fill:none;stroke:url(#Path-5_1_);stroke-width:1.5;stroke-linecap:round;stroke-linejoin:round;stroke-dasharray:0,4;enable-background:new    ;}
	.st5{fill:url(#Oval-Copy-12_1_);}
	
		.st6{opacity:0.7048;fill:none;stroke:url(#Rectangle-Copy-8_1_);stroke-width:1.5;stroke-linecap:round;stroke-linejoin:round;stroke-dasharray:0,4;enable-background:new    ;}
	
		.st7{opacity:0.7048;fill:none;stroke:url(#Path-4_1_);stroke-width:1.5;stroke-linecap:round;stroke-linejoin:round;stroke-dasharray:0,4;enable-background:new    ;}
	.st8{fill:url(#Oval-Copy-2_1_);}
	.st9{fill:none;}
	.st10{fill:#464646;}
	.st11{font-family:'OpenSans';}
	.st12{font-size:13px;}
</style>
<g id="Layer_1">
	<title>Group 7</title>
	<desc>Created with Sketch.</desc>
	<g id="Welcome">
		<g id="Hasura-website-design-V3" transform="translate(-231.000000, -1238.000000)">
			<g id="Group-7" transform="translate(231.000000, 1187.000000)">
				<g id="MacBook-Air---Silver">
					<g id="Mask">
					</g>
					<defs>
						<filter id="Adobe_OpacityMaskFilter" filterUnits="userSpaceOnUse" x="34.6" y="-51.8" width="695.9" height="521.9">
							<feColorMatrix  type="matrix" values="1 0 0 0 0  0 1 0 0 0  0 0 1 0 0  0 0 0 1 0"/>
						</filter>
					</defs>
					<mask maskUnits="userSpaceOnUse" x="34.6" y="-51.8" width="695.9" height="521.9" id="mask-2_1_">
						<g class="st0">
							<polygon id="path-1_1_" class="st1" points="102,0 664,0 664,418.4 102,418.4 							"/>
						</g>
					</mask>
					<g transform="matrix(1 0 0 1 0 0)" style="mask:url(#mask-2_1_);enable-background:new    ;">
						
							<image style="overflow:visible;" width="4000" height="3000" xlink:href="5D7DBFC90ACBCC3A.png"  transform="matrix(0.174 0 0 0.174 34.6339 -51.7821)">
						</image>
					</g>
				</g>
				<g id="Screen-Shot-2018-11-17-at-9.54.24-PM" transform="translate(64.000000, 73.000000)">
					<g id="Mask_1_">
					</g>
					<defs>
						<filter id="Adobe_OpacityMaskFilter_1_" filterUnits="userSpaceOnUse" x="108.7" y="-29.7" width="467.1" height="292">
							<feColorMatrix  type="matrix" values="1 0 0 0 0  0 1 0 0 0  0 0 1 0 0  0 0 0 1 0"/>
						</filter>
					</defs>
					<mask maskUnits="userSpaceOnUse" x="108.7" y="-29.7" width="467.1" height="292" id="mask-4_1_">
						<g class="st2">
							<polygon id="path-3_1_" class="st1" points="102,0 536,0 536,272 102,272 							"/>
						</g>
					</mask>
					<g transform="matrix(1 0 0 1 0 1.907349e-06)" style="mask:url(#mask-4_1_);enable-background:new    ;">
						
							<image style="overflow:visible;" width="1280" height="800" xlink:href="5D7DBFC90ACBCC3E.png"  transform="matrix(0.365 0 0 0.365 108.7309 -29.6822)">
						</image>
					</g>
				</g>
			</g>
		</g>
	</g>
</g>
<g id="Layer_2">
</g>
<g id="Layer_3">
	<g id="Welcome_1_">
		<g id="Hasura-website-design-V3_1_" transform="translate(-491.000000, -1278.000000)">
			<g id="Group-11" transform="translate(491.000000, 1278.000000)">
				
					<linearGradient id="Rectangle-Copy-7_1_" gradientUnits="userSpaceOnUse" x1="-211.2261" y1="226.0644" x2="-214.1747" y2="226.0644" gradientTransform="matrix(178 0 0 -101 38479 22966)">
					<stop  offset="0" style="stop-color:#FFAE4F"/>
					<stop  offset="1" style="stop-color:#FF3447"/>
				</linearGradient>
				<path id="Rectangle-Copy-7" class="st3" d="M623,83h170c4.4,0,8,3.6,8,8v85c0,4.4-3.6,8-8,8H623V83z"/>
				
					<linearGradient id="Path-5_1_" gradientUnits="userSpaceOnUse" x1="-212.7688" y1="227" x2="-215.7174" y2="227" gradientTransform="matrix(332 0 0 -38 71500 8690)">
					<stop  offset="0" style="stop-color:#FFAE4F"/>
					<stop  offset="1" style="stop-color:#FF3447"/>
				</linearGradient>
				<path id="Path-5" class="st4" d="M380,45h320c6.6,0,12,5.4,12,12v26"/>
				
					<linearGradient id="Oval-Copy-12_1_" gradientUnits="userSpaceOnUse" x1="-140.5519" y1="232.625" x2="-143.5005" y2="232.625" gradientTransform="matrix(8 0 0 -8 1512 1906)">
					<stop  offset="0" style="stop-color:#FFAE4F"/>
					<stop  offset="1" style="stop-color:#FF3447"/>
				</linearGradient>
				<circle id="Oval-Copy-12" class="st5" cx="380" cy="45" r="4"/>
			</g>
		</g>
	</g>
	<g id="Welcome_2_">
		<g id="Hasura-website-design-V3_2_" transform="translate(-134.000000, -1294.000000)">
			<g id="Group-5" transform="translate(135.000000, 1294.000000)">
				
					<linearGradient id="Rectangle-Copy-8_1_" gradientUnits="userSpaceOnUse" x1="-217.0435" y1="225.0644" x2="-219.9921" y2="225.0644" gradientTransform="matrix(-150 0 0 101 -32616 -22585)">
					<stop  offset="0" style="stop-color:#FFAE4F"/>
					<stop  offset="1" style="stop-color:#FF3447"/>
				</linearGradient>
				<path id="Rectangle-Copy-8" class="st6" d="M157.7,197h-142c-4.4,0-8-3.6-8-8v-85c0-4.4,3.6-8,8-8h142V197z"/>
				
					<linearGradient id="Path-4_1_" gradientUnits="userSpaceOnUse" x1="-212.5688" y1="226.6579" x2="-215.5175" y2="226.6579" gradientTransform="matrix(75 0 0 -38 16133 8690)">
					<stop  offset="0" style="stop-color:#FFAE4F"/>
					<stop  offset="1" style="stop-color:#FF3447"/>
				</linearGradient>
				<path id="Path-4" class="st7" d="M156.7,58h-63c-6.6,0-12,5.4-12,12v26"/>
				
					<linearGradient id="Oval-Copy-2_1_" gradientUnits="userSpaceOnUse" x1="-187.5856" y1="231" x2="-190.5342" y2="231" gradientTransform="matrix(8 0 0 -8 1665 1906)">
					<stop  offset="0" style="stop-color:#FFAE4F"/>
					<stop  offset="1" style="stop-color:#FF3447"/>
				</linearGradient>
				<circle id="Oval-Copy-2" class="st8" cx="156.7" cy="58" r="4"/>
			</g>
		</g>
	</g>
</g>
<g id="Layer_4">
	<rect x="22.1" y="124.5" class="st9" width="120.9" height="44.5"/>
	<text transform="matrix(1 0 0 1 24.6465 134.3555)"><tspan x="0" y="0" class="st10 st11 st12">Learn collaborative </tspan><tspan x="1.9" y="15.6" class="st10 st11 st12">real time GraphQL </tspan><tspan x="-2.2" y="31.2" class="st10 st11 st12">with personal todos</tspan></text>
	<rect x="643.1" y="104.5" class="st9" width="134.9" height="61.5"/>
	<text transform="matrix(1 0 0 1 673.7812 114.3555)"><tspan x="0" y="0" class="st10 st11 st12">Learn about </tspan><tspan x="-17.1" y="15.6" class="st10 st11 st12">authorization and </tspan><tspan x="-25" y="31.2" class="st10 st11 st12">authentications with </tspan><tspan x="-0.5" y="46.8" class="st10 st11 st12">public todos</tspan></text>
</g>
</svg>
