<?xml version="1.0" encoding="UTF-8"?>
<svg width="206px" height="172px" viewBox="0 0 206 172" version="1.1" xmlns="http://www.w3.org/2000/svg" xmlns:xlink="http://www.w3.org/1999/xlink">
    <!-- Generator: Sketch 52.4 (67378) - http://www.bohemiancoding.com/sketch -->
    <title>pencil (1)</title>
    <desc>Created with Sketch.</desc>
    <g id="Welcome" stroke="none" stroke-width="1" fill="none" fill-rule="evenodd">
        <g id="Hasura-website-design-V3" transform="translate(-730.000000, -1908.000000)" fill="#3C2C75">
            <g id="pencil-(1)" transform="translate(730.000000, 1908.000000)">
                <g id="Group" transform="translate(0.000000, 49.000000)">
                    <path d="M107.514438,122.930287 L28.327432,122.930287 C12.7075503,122.930287 0,110.276912 0,94.7236221 L0,28.3733355 C0,12.8200456 12.7075503,0.16667101 28.327432,0.16667101 L107.514438,0.16667101 C123.13432,0.16667101 135.84187,12.8200456 135.84187,28.3733355 L135.84187,94.7236221 C135.84187,110.276912 123.134722,122.930287 107.514438,122.930287 Z M28.327432,12.5844625 C19.584,12.5844625 12.4709586,19.6671792 12.4709586,28.3733355 L12.4709586,94.7236221 C12.4709586,103.429378 19.584,110.512495 28.327432,110.512495 L107.514438,110.512495 C116.257467,110.512495 123.370911,103.429779 123.370911,94.7236221 L123.370911,28.3733355 C123.370911,19.6675798 116.25787,12.5844625 107.514438,12.5844625 C107.514438,12.5844625 28.327432,12.5844625 28.327432,12.5844625 Z" id="Shape" fill-rule="nonzero"></path>
                    <path d="M59.1946036,92.4611433 C59.0429112,92.4611433 58.8916213,92.4587394 58.7387219,92.4535309 C55.3910296,92.3381433 52.2187692,90.9526906 49.8073846,88.5523876 L49.5422249,88.2719316 L26.0049704,61.7303746 L35.3527574,53.5110098 L58.7073373,79.8458306 C58.8976568,80.0024853 59.0751006,80.0401466 59.1692544,80.0433518 L100.456118,32.770886 L109.866675,40.9201368 L68.1191006,88.7190586 L67.9657988,88.8717068 C65.632071,91.1970879 62.5318343,92.4611433 59.1946036,92.4611433 Z" id="Path"></path>
                </g>
                <path d="M206,57 L149,57 L149,18.0096029 C149,8.07835034 157.116043,0 167.091845,0 L187.906551,0 C197.882754,0 205.999198,8.07914883 205.999198,18.0096029 L206,57 Z M161.430749,44.6257591 L193.56885,44.6257591 L193.56885,18.0096029 C193.56885,14.9022687 191.028476,12.3742409 187.907353,12.3742409 L167.092647,12.3742409 C163.971123,12.3742409 161.431551,14.9022687 161.431551,18.0096029 L161.430749,44.6257591 Z" id="Shape" fill-rule="nonzero"></path>
                <g id="Group" transform="translate(148.000000, 39.000000)">
                    <path d="M29.1776503,132.930295 C26.5773846,132.930295 24.1348951,131.674407 22.6431189,129.569642 L1.82963636,100.201078 C0.117622378,97.7866476 -0.090041958,94.6615482 1.28897902,92.0452139 C2.668,89.4288795 5.37899301,87.8036355 8.36457343,87.8036355 L49.9927552,87.8036355 C52.9783357,87.8036355 55.6893287,89.4284789 57.0683497,92.044012 C58.4473706,94.6595452 58.2401119,97.7846446 56.5285035,100.201078 L35.7146154,129.569642 C34.2216224,131.674407 31.7783217,132.930295 29.1776503,132.930295 Z M17.1878741,100.220708 L29.1780559,117.138548 L41.1682378,100.220708 L17.1878741,100.220708 Z" id="Shape" fill-rule="nonzero"></path>
                    <polygon id="Path" points="58 97.1348675 45.429007 97.1348675 45.429007 12.4459157 12.9279161 12.4459157 12.9279161 97.1348675 0.356923077 97.1348675 0.356923077 0.0296445783 58 0.0296445783"></polygon>
                </g>
            </g>
        </g>
    </g>
</svg>