<svg xmlns="http://www.w3.org/2000/svg" width="60" height="60" viewBox="0 0 60 60">
    <defs>
        <style>
            .cls-1{opacity:.599}.cls-2{fill:none}.cls-3{fill:#c3c3c3}.cls-4{fill:#fff}
        </style>
    </defs>
    <g id="Group_1087" class="cls-1" data-name="Group 1087" transform="translate(-610 -2556)">
        <path id="Path_541" d="M0 0h60v60H0z" class="cls-2" data-name="Path 541" transform="translate(610 2556)"/>
        <g id="postgresql" transform="translate(613.703 2558.635)">
            <path id="Path_566" d="M51.984 32.37a2.629 2.629 0 0 0-2.184-1.759 5 5 0 0 0-1.742.1 15.654 15.654 0 0 1-2.684.353 51.759 51.759 0 0 0 5.479-13.033c1.818-7.039.847-10.246-.289-11.7A15.722 15.722 0 0 0 37.889.366a22.465 22.465 0 0 0-6.59.923 24.536 24.536 0 0 0-3.853-.353 12.528 12.528 0 0 0-6.712 1.654 30.6 30.6 0 0 0-4.741-1.19C11.358.639 7.622 1.232 4.89 3.163 1.581 5.5.047 9.561.33 15.232a69.364 69.364 0 0 0 2.684 12.476A43.086 43.086 0 0 0 5.9 35.08c1.426 2.7 2.952 4.293 4.665 4.864a4.585 4.585 0 0 0 4.539-.984 3.969 3.969 0 0 0 .955.821 6.351 6.351 0 0 0 1.8.759 9.672 9.672 0 0 0 6.3-.375c.011.327.02.64.027.909.012.438.024.867.04 1.268a22.212 22.212 0 0 0 .841 6.3c.03.081.07.2.113.336a7.585 7.585 0 0 0 1.89 3.33 5.639 5.639 0 0 0 3.989 1.483 8.964 8.964 0 0 0 1.864-.207 8.763 8.763 0 0 0 5.893-3.409c1.548-2.2 2.3-5.523 2.436-10.753l.05-.424.032-.276.365.032.094.006a14.429 14.429 0 0 0 6.035-1.046c1.2-.559 5.064-2.6 4.155-5.347" class="cls-3" data-name="Path 566"/>
            <path id="Path_567" d="M57.322 41.716c-6.035 1.245-6.45-.8-6.45-.8 6.372-9.455 9.035-21.456 6.737-24.393C51.338 8.511 40.483 12.3 40.3 12.4l-.058.011a21.523 21.523 0 0 0-4.026-.419 9.945 9.945 0 0 0-6.373 1.908S10.479 5.92 11.379 23.931c.192 3.832 5.492 28.992 11.814 21.392a112.648 112.648 0 0 1 4.543-5.123 5.86 5.86 0 0 0 3.828.977l.108-.092a4.217 4.217 0 0 0 .043 1.082c-1.629 1.82-1.15 2.139-4.406 2.809-3.294.679-1.359 1.888-.1 2.2a6.693 6.693 0 0 0 7.47-2.427l-.1.383c.638.511 1.086 3.324 1.011 5.875s-.125 4.3.377 5.669 1 4.445 5.284 3.528c3.576-.766 5.429-2.752 5.687-6.065.183-2.355.6-2.007.623-4.113l.332-1c.383-3.193.061-4.223 2.264-3.743l.536.047a12.2 12.2 0 0 0 4.99-.84c2.682-1.245 4.273-3.323 1.628-2.777" class="cls-3" data-name="Path 567" transform="translate(-8.809 -8.811)"/>
            <path id="Path_568" d="M102.244 79.938a1.872 1.872 0 0 0-1.285.183.472.472 0 0 0-.2.314.916.916 0 0 0 .222.6 1.68 1.68 0 0 0 1.067.666 1.216 1.216 0 0 0 .171.012 1.383 1.383 0 0 0 1.31-.891c.066-.474-.622-.79-1.29-.883m18.016.015c-.052-.372-.713-.477-1.34-.39s-1.234.37-1.183.742a1.272 1.272 0 0 0 1.182.784 1.129 1.129 0 0 0 .158-.011 1.524 1.524 0 0 0 .86-.471.948.948 0 0 0 .323-.654" class="cls-4" data-name="Path 568" transform="translate(-80.076 -63.104)"/>
            <path id="Path_569" d="M56.225 38.345c-.23-.7-.971-.92-2.2-.666-3.654.754-4.962.232-5.392-.085a50.237 50.237 0 0 0 6.436-14.435 27.428 27.428 0 0 0 .954-6.207 6.7 6.7 0 0 0-.972-4.193 14.278 14.278 0 0 0-11.543-5.39 19.775 19.775 0 0 0-6.672 1.051 16.634 16.634 0 0 0-3.754-.482 10.847 10.847 0 0 0-6.433 1.774A28.72 28.72 0 0 0 21.42 8.34c-4.235-.682-7.6-.165-10 1.536-2.866 2.03-4.189 5.66-3.933 10.787A67.719 67.719 0 0 0 10.1 32.778c2.042 6.689 4.261 10.476 6.6 11.255a2.954 2.954 0 0 0 .936.155A3.911 3.911 0 0 0 20.62 42.5q1.988-2.385 4.111-4.652a6.624 6.624 0 0 0 2.958.8c0 .027 0 .054.007.081q-.266.318-.522.644c-.715.907-.863 1.1-3.164 1.57-.654.135-2.392.493-2.418 1.712-.028 1.331 2.055 1.89 2.292 1.949a9.815 9.815 0 0 0 2.383.309 6.934 6.934 0 0 0 4.772-1.782c-.04 4.746.158 9.422.728 10.846.467 1.166 1.607 4.017 5.208 4.017a8.354 8.354 0 0 0 1.75-.2c3.758-.806 5.39-2.467 6.022-6.129.338-1.957.918-6.631 1.19-9.138a7.364 7.364 0 0 0 2.117.262 12.6 12.6 0 0 0 4.807-.916c1.358-.631 3.808-2.178 3.364-3.523zM47.275 21.4a15.2 15.2 0 0 1-.222 2.113A19.518 19.518 0 0 0 46.786 26a18.811 18.811 0 0 0 .2 2.805c.225 1.871.456 3.8-.438 5.7a7.408 7.408 0 0 1-.4-.814c-.111-.269-.352-.7-.686-1.3-1.3-2.329-4.339-7.782-2.783-10.007.464-.662 1.64-1.343 4.594-.977zm-3.58-12.533a12.627 12.627 0 0 1 10.178 4.813c1.86 2.376-.188 13.19-6.116 22.518l-.18-.227-.075-.094c1.532-2.53 1.232-5.033.966-7.252a17.391 17.391 0 0 1-.187-2.579 18.266 18.266 0 0 1 .25-2.3 14.529 14.529 0 0 0 .234-2.848 1.18 1.18 0 0 0 .025-.4 15.992 15.992 0 0 0-3.648-6.861 16.43 16.43 0 0 0-5.8-4.359 19.552 19.552 0 0 1 4.351-.409zM19.47 41.541c-1.2 1.44-2.024 1.164-2.3 1.073-1.772-.591-3.827-4.335-5.639-10.273a67.105 67.105 0 0 1-2.553-11.752c-.229-4.582.882-7.775 3.3-9.49 3.937-2.792 10.411-1.121 13.012-.273-.037.037-.076.071-.113.109-4.269 4.311-4.167 11.676-4.157 12.126 0 .174.014.42.034.758a30.472 30.472 0 0 1-.155 6.155 7.785 7.785 0 0 0 2.052 6.516q.253.263.531.5a109.43 109.43 0 0 0-4.013 4.551zm4.561-6.086a6.3 6.3 0 0 1-1.65-5.274 31.857 31.857 0 0 0 .167-6.451c-.011-.181-.02-.339-.026-.464.624-.553 3.513-2.1 5.574-1.629a2.268 2.268 0 0 1 1.752 1.957c1.233 5.7.163 8.08-.7 9.99-.177.393-.345.765-.487 1.15l-.111.3a19.5 19.5 0 0 0-.7 2.115 5.32 5.32 0 0 1-3.819-1.692zm.216 7.691a3.306 3.306 0 0 1-1-.429 4.873 4.873 0 0 1 1.063-.317c2.706-.557 3.124-.95 4.037-2.109.209-.266.446-.567.775-.934.489-.548.713-.455 1.119-.287a1.583 1.583 0 0 1 .779 1 1.115 1.115 0 0 1-.1.937c-1.898 2.673-4.677 2.638-6.672 2.139zm14.164 13.18c-3.311.709-4.483-.98-5.256-2.911-.5-1.247-.744-6.869-.57-13.078a.748.748 0 0 0-.032-.237 3.134 3.134 0 0 0-.093-.439 3.031 3.031 0 0 0-1.644-1.972 2.319 2.319 0 0 0-1.514-.183 18.292 18.292 0 0 1 .652-1.951l.111-.3c.125-.337.283-.687.449-1.057.9-2 2.131-4.736.794-10.919-.5-2.316-2.173-3.447-4.709-3.184A10.865 10.865 0 0 0 23 21.216c-.149.075-.286.149-.413.22.194-2.334.925-6.695 3.661-9.454a8.989 8.989 0 0 1 6.812-2.549A14.439 14.439 0 0 1 44.089 14.7a16.743 16.743 0 0 1 3.019 5.177c-2.791-.284-4.69.267-5.652 1.643-2.094 2.993 1.145 8.8 2.7 11.593.286.512.532.954.609 1.142a10.365 10.365 0 0 0 1.642 2.647c.147.183.289.361.4.517-.845.244-2.364.807-2.225 3.622-.112 1.412-.905 8.025-1.308 10.361-.532 3.086-1.668 4.236-4.861 4.921zm13.82-15.815a10.9 10.9 0 0 1-3.685.767 4.622 4.622 0 0 1-2.472-.318c-.085-1.754.568-1.937 1.259-2.131.109-.03.214-.06.317-.1a2.581 2.581 0 0 0 .209.153c1.22.805 3.4.892 6.468.258l.034-.007a8.271 8.271 0 0 1-2.13 1.378z" class="cls-4" data-name="Path 569" transform="translate(-5.704 -5.582)"/>
        </g>
    </g>
</svg>
