<svg xmlns="http://www.w3.org/2000/svg" width="60" height="60" viewBox="0 0 60 60">
    <defs>
        <style>
            .cls-1{opacity:.601}.cls-2{fill:none}.cls-3{fill:#c3c3c3}.cls-4{fill:#fff}
        </style>
    </defs>
    <g id="Group_941" class="cls-1" data-name="Group 941" transform="translate(98 -9182)">
        <path id="Path_541" d="M0 0h60v60H0z" class="cls-2" data-name="Path 541" transform="translate(-98 9182)"/>
        <g id="postgresql" transform="translate(-94.312 9184.78)">
            <path id="Path_543" d="M51.578 32.118a2.608 2.608 0 0 0-2.165-1.744 4.959 4.959 0 0 0-1.728.1 15.531 15.531 0 0 1-2.663.35 51.353 51.353 0 0 0 5.436-12.931c1.8-6.984.84-10.166-.286-11.6A15.6 15.6 0 0 0 37.594.366a22.289 22.289 0 0 0-6.538.916 24.343 24.343 0 0 0-3.823-.35 12.429 12.429 0 0 0-6.66 1.641 30.365 30.365 0 0 0-4.7-1.181c-4.6-.755-8.305-.167-11.016 1.749C1.571 5.46.049 9.489.33 15.116a68.819 68.819 0 0 0 2.663 12.377 42.747 42.747 0 0 0 2.866 7.314c1.415 2.681 2.929 4.259 4.628 4.826a4.549 4.549 0 0 0 4.5-.976 3.938 3.938 0 0 0 .947.815 6.3 6.3 0 0 0 1.787.753 9.6 9.6 0 0 0 6.247-.372c.011.325.02.635.027.9.012.434.024.86.04 1.258a22.038 22.038 0 0 0 .834 6.251c.03.081.07.2.112.334a7.526 7.526 0 0 0 1.876 3.3 5.6 5.6 0 0 0 3.957 1.471 8.894 8.894 0 0 0 1.85-.206 8.694 8.694 0 0 0 5.847-3.382c1.536-2.186 2.282-5.48 2.417-10.668l.049-.42.032-.274.362.032.093.006a14.316 14.316 0 0 0 5.988-1.038c1.195-.554 5.024-2.576 4.122-5.305" class="cls-3" data-name="Path 543"/>
            <path id="Path_544" d="M56.961 41.478c-5.988 1.235-6.4-.792-6.4-.792 6.322-9.381 8.965-21.288 6.684-24.2-6.222-7.949-16.992-4.19-17.172-4.092l-.058.01a21.354 21.354 0 0 0-3.995-.416 9.867 9.867 0 0 0-6.32 1.891s-19.215-7.916-18.321 9.954c.19 3.8 5.449 28.764 11.721 21.225 2.293-2.757 4.508-5.088 4.508-5.088a5.814 5.814 0 0 0 3.8.97l.107-.091a4.184 4.184 0 0 0 .043 1.073c-1.616 1.805-1.141 2.122-4.371 2.787-3.269.674-1.349 1.873-.095 2.186a6.641 6.641 0 0 0 7.408-2.407l-.095.38c.633.507 1.078 3.3 1 5.829s-.124 4.268.374 5.625 1 4.41 5.243 3.5c3.548-.76 5.387-2.731 5.643-6.018.181-2.337.592-1.991.618-4.08l.33-.989c.38-3.168.06-4.189 2.246-3.714l.532.047a12.108 12.108 0 0 0 4.95-.833c2.661-1.235 4.24-3.3 1.615-2.755" class="cls-3" data-name="Path 544" transform="translate(-8.827 -8.829)"/>
            <path id="Path_545" d="M102.232 79.935a1.858 1.858 0 0 0-1.275.182.468.468 0 0 0-.194.311.909.909 0 0 0 .221.6 1.667 1.667 0 0 0 1.059.66 1.205 1.205 0 0 0 .17.012 1.372 1.372 0 0 0 1.3-.884c.065-.47-.617-.784-1.279-.876m17.875.015c-.052-.369-.707-.474-1.33-.387s-1.224.367-1.174.737a1.262 1.262 0 0 0 1.173.778 1.122 1.122 0 0 0 .157-.011 1.513 1.513 0 0 0 .854-.467.941.941 0 0 0 .32-.649" class="cls-4" data-name="Path 545" transform="translate(-80.236 -63.231)"/>
            <path id="Path_546" d="M55.842 38.1c-.228-.69-.963-.912-2.184-.66-3.625.748-4.923.23-5.349-.084A49.843 49.843 0 0 0 54.7 23.035a27.212 27.212 0 0 0 .946-6.159 6.651 6.651 0 0 0-.964-4.16 14.166 14.166 0 0 0-11.457-5.348 19.62 19.62 0 0 0-6.62 1.043 16.5 16.5 0 0 0-3.725-.478 10.761 10.761 0 0 0-6.38 1.76 28.494 28.494 0 0 0-5.187-1.36c-4.2-.676-7.541-.164-9.924 1.524-2.843 2.014-4.156 5.615-3.9 10.7a67.187 67.187 0 0 0 2.6 12.019c2.026 6.637 4.228 10.394 6.545 11.167a2.931 2.931 0 0 0 .929.154 3.88 3.88 0 0 0 2.96-1.677q1.972-2.366 4.079-4.616a6.572 6.572 0 0 0 2.935.789c0 .027 0 .054.007.08q-.264.315-.517.639c-.709.9-.857 1.088-3.139 1.557-.649.134-2.374.489-2.4 1.7-.027 1.321 2.038 1.875 2.274 1.934a9.738 9.738 0 0 0 2.364.307 6.879 6.879 0 0 0 4.734-1.768c-.04 4.708.157 9.348.722 10.761.463 1.157 1.594 3.985 5.167 3.985a8.288 8.288 0 0 0 1.736-.2c3.729-.8 5.348-2.447 5.974-6.081.335-1.942.91-6.579 1.181-9.066a7.306 7.306 0 0 0 2.1.26 12.5 12.5 0 0 0 4.76-.901c1.347-.626 3.779-2.161 3.338-3.5zm-8.88-16.807a15.085 15.085 0 0 1-.22 2.1 19.365 19.365 0 0 0-.265 2.461 18.664 18.664 0 0 0 .195 2.783c.223 1.856.452 3.767-.434 5.653a7.351 7.351 0 0 1-.393-.807c-.11-.267-.349-.7-.68-1.289-1.288-2.31-4.305-7.721-2.761-9.929.46-.657 1.628-1.333 4.558-.969zM43.41 8.855a12.528 12.528 0 0 1 10.1 4.776c1.845 2.358-.187 13.086-6.068 22.341l-.178-.225-.074-.093c1.52-2.51 1.223-4.993.958-7.2a17.255 17.255 0 0 1-.185-2.559 18.122 18.122 0 0 1 .248-2.283 14.416 14.416 0 0 0 .232-2.826 1.171 1.171 0 0 0 .025-.4 15.866 15.866 0 0 0-3.619-6.807 16.3 16.3 0 0 0-5.753-4.325 19.4 19.4 0 0 1 4.317-.406zM19.376 41.273c-1.188 1.428-2.008 1.154-2.278 1.065-1.758-.586-3.8-4.3-5.6-10.192a66.579 66.579 0 0 1-2.537-11.66c-.227-4.546.875-7.714 3.275-9.416 3.907-2.77 10.329-1.112 12.91-.271-.037.037-.076.071-.112.108-4.234 4.276-4.134 11.584-4.119 12.031 0 .172.014.416.034.752a30.233 30.233 0 0 1-.154 6.107 7.724 7.724 0 0 0 2.036 6.464q.251.261.527.5c-.726.777-2.3 2.5-3.981 4.515zm4.524-6.038A6.249 6.249 0 0 1 22.264 30a31.607 31.607 0 0 0 .165-6.4 37.17 37.17 0 0 1-.026-.46c.619-.549 3.486-2.085 5.531-1.616a2.25 2.25 0 0 1 1.738 1.942c1.223 5.658.162 8.016-.691 9.911-.176.39-.342.759-.484 1.141l-.11.3a19.346 19.346 0 0 0-.7 2.1 5.279 5.279 0 0 1-3.787-1.684zm.214 7.63a3.28 3.28 0 0 1-.99-.426 4.834 4.834 0 0 1 1.055-.314c2.685-.553 3.1-.943 4.005-2.093.208-.264.443-.563.769-.927.485-.544.707-.451 1.11-.284a1.57 1.57 0 0 1 .773.994 1.107 1.107 0 0 1-.095.93c-1.889 2.65-4.641 2.615-6.625 2.12zm14.055 13.077c-3.285.7-4.448-.972-5.214-2.888-.495-1.237-.738-6.815-.565-12.975a.742.742 0 0 0-.032-.236 3.11 3.11 0 0 0-.092-.435 3.007 3.007 0 0 0-1.632-1.957 2.3 2.3 0 0 0-1.5-.182 18.148 18.148 0 0 1 .647-1.936l.111-.3c.124-.335.281-.682.446-1.049.892-1.983 2.115-4.7.788-10.834-.5-2.3-2.156-3.42-4.672-3.159a10.78 10.78 0 0 0-3.576 1.113c-.148.075-.283.147-.41.218.192-2.315.918-6.642 3.632-9.38a8.919 8.919 0 0 1 6.758-2.529A14.326 14.326 0 0 1 43.8 14.647a16.612 16.612 0 0 1 3 5.136c-2.769-.282-4.653.265-5.607 1.63-2.077 2.969 1.136 8.732 2.681 11.5.283.508.528.946.6 1.133a10.284 10.284 0 0 0 1.626 2.628c.146.182.287.359.395.513-.839.242-2.345.8-2.208 3.593-.111 1.4-.9 7.962-1.3 10.28-.528 3.062-1.655 4.2-4.823 4.882zM51.88 40.251a10.818 10.818 0 0 1-3.656.761 4.585 4.585 0 0 1-2.453-.316c-.085-1.74.563-1.922 1.249-2.115.108-.03.213-.06.314-.1a2.561 2.561 0 0 0 .208.152c1.21.8 3.369.885 6.417.256l.033-.007a8.206 8.206 0 0 1-2.112 1.369z" class="cls-4" data-name="Path 546" transform="translate(-5.715 -5.593)"/>
        </g>
    </g>
</svg>
