<?xml version="1.0" encoding="utf-8"?>
<!-- Generator: Adobe Illustrator 23.0.3, SVG Export Plug-In . SVG Version: 6.00 Build 0)  -->
<svg version="1.1" id="Layer_1" xmlns="http://www.w3.org/2000/svg" xmlns:xlink="http://www.w3.org/1999/xlink" x="0px" y="0px"
	 viewBox="0 0 60 60" style="enable-background:new 0 0 60 60;" xml:space="preserve">
<style type="text/css">
	.st0{opacity:0.597;}
	.st1{opacity:0.605;}
	.st2{fill:#909090;}
	.st3{fill:#FFFFFF;}
</style>
<g id="Group_938" transform="translate(183 -9219)" class="st0">
	<g id="Group_934" transform="translate(-177.153 9225)" class="st1">
		<path id="Path_547" class="st2" d="M-3.6-3.7h55.4v55.4H-3.6V-3.7z"/>
		<path id="Path_503" class="st3" d="M29.3,46.8H23l-3-5.9h-4.2v5.9h-5.5V25.6h9.5c5.6,0,8.9,2.8,8.9,7.5c0.2,2.9-1.3,5.5-3.8,6.8
			L29.3,46.8z M15.8,30v6.5h4.1c2.2,0,3.5-1.1,3.5-3.3c0-2.1-1.3-3.2-3.5-3.2L15.8,30L15.8,30z M32.2,25.6h16.7V30H37.7v4h10.1v4.4
			H37.7v4h11.6v4.4H32.2V25.6z"/>
	</g>
</g>
</svg>
