<?xml version="1.0" encoding="utf-8"?>
<!-- Generator: Adobe Illustrator 23.0.3, SVG Export Plug-In . SVG Version: 6.00 Build 0)  -->
<svg version="1.1" id="Layer_1" xmlns="http://www.w3.org/2000/svg" xmlns:xlink="http://www.w3.org/1999/xlink" x="0px" y="0px"
	 viewBox="0 0 60 60" style="enable-background:new 0 0 60 60;" xml:space="preserve">
<style type="text/css">
	.st0{fill:none;}
	.st1{fill:#505050;}
</style>
<g id="Group_946" transform="translate(349 -9345)">
	<path id="Path_539" class="st0" d="M-349,9345h60v60h-60V9345z"/>
	<g id="React-icon" transform="translate(-346 9351)">
		<path id="Path_487" class="st1" d="M53.3,23.7c0-3.5-4.4-6.9-11.2-8.9c1.6-6.9,0.9-12.4-2.2-14.2C39.1,0.2,38.3,0,37.4,0v2.4
			c0.4,0,0.9,0.1,1.2,0.3c1.5,0.8,2.1,4.1,1.6,8.2c-0.1,1.1-0.3,2.1-0.6,3.2c-2.3-0.5-4.6-0.9-6.9-1.2C31.5,11,30,9.2,28.3,7.5
			c3.5-3.3,6.9-5.1,9.1-5.1V0c-3,0-6.9,2.1-10.8,5.8C22.7,2.1,18.7,0,15.8,0v2.4c2.2,0,5.6,1.8,9.1,5.1c-1.6,1.7-3.1,3.5-4.5,5.4
			c-2.3,0.2-4.6,0.6-6.9,1.2c-0.2-1-0.4-2.1-0.6-3.1c-0.5-4.1,0.1-7.4,1.6-8.2c0.4-0.2,0.8-0.3,1.2-0.3V0.1c-0.9,0-1.7,0.2-2.5,0.6
			c-3.1,1.8-3.7,7.2-2.2,14.1C4.4,16.9,0,20.2,0,23.7s4.4,6.9,11.2,8.9c-1.6,6.9-0.9,12.4,2.2,14.2c0.7,0.4,1.6,0.6,2.4,0.6
			c3,0,6.9-2.1,10.8-5.8c4,3.7,7.9,5.8,10.8,5.8c0.9,0,1.7-0.2,2.5-0.6c3.1-1.8,3.7-7.2,2.2-14.1C48.9,30.6,53.3,27.2,53.3,23.7
			L53.3,23.7z M39.1,16.5c-0.4,1.4-0.9,2.8-1.5,4.3c-0.4-0.9-0.9-1.7-1.4-2.6s-1-1.7-1.6-2.5C36.2,15.8,37.7,16.1,39.1,16.5z
			 M34.1,28c-0.8,1.4-1.7,2.8-2.6,4.1c-1.6,0.1-3.3,0.2-4.9,0.2s-3.3-0.1-4.9-0.2c-0.9-1.3-1.8-2.7-2.6-4.1
			c-0.8-1.4-1.6-2.8-2.3-4.3c0.7-1.5,1.4-2.9,2.2-4.3c0.8-1.4,1.7-2.8,2.6-4.1c1.6-0.1,3.3-0.2,4.9-0.2s3.3,0.1,4.9,0.2
			c0.9,1.3,1.8,2.7,2.6,4.1c0.8,1.4,1.6,2.9,2.3,4.3C35.7,25.2,35,26.6,34.1,28L34.1,28z M37.7,26.6c0.6,1.4,1.1,2.9,1.5,4.3
			c-1.4,0.3-2.9,0.6-4.5,0.9c0.5-0.8,1.1-1.7,1.6-2.6S37.2,27.5,37.7,26.6L37.7,26.6z M26.6,38.2c-1.1-1.1-2.1-2.3-3-3.5
			c1,0,2,0.1,3,0.1s2,0,3-0.1C28.7,35.9,27.7,37.1,26.6,38.2z M18.6,31.8c-1.5-0.2-3-0.5-4.4-0.9c0.4-1.4,0.9-2.8,1.5-4.3
			c0.4,0.9,0.9,1.7,1.4,2.6S18,31,18.6,31.8z M26.6,9.2c1.1,1.1,2.1,2.3,3,3.5c-1,0-2-0.1-3-0.1s-2,0-3,0.1
			C24.5,11.5,25.5,10.3,26.6,9.2L26.6,9.2z M18.6,15.6c-0.5,0.8-1.1,1.7-1.6,2.6s-1,1.7-1.4,2.6c-0.6-1.4-1.1-2.9-1.5-4.3
			C15.6,16.1,17.1,15.8,18.6,15.6L18.6,15.6z M8.7,29.2c-3.8-1.6-6.3-3.8-6.3-5.5s2.5-3.9,6.3-5.5c0.9-0.4,2-0.8,3-1.1
			c0.7,2.3,1.5,4.5,2.4,6.6c-1,2.1-1.8,4.3-2.4,6.6C10.7,30,9.7,29.6,8.7,29.2L8.7,29.2z M14.6,44.7c-1.5-0.8-2.1-4.1-1.6-8.2
			c0.1-1.1,0.3-2.1,0.6-3.2c2.3,0.5,4.6,0.9,6.9,1.2c1.4,1.9,2.9,3.7,4.5,5.4c-3.5,3.3-6.9,5.1-9.1,5.1C15.4,45,15,44.9,14.6,44.7
			L14.6,44.7z M40.3,36.4c0.5,4.1-0.1,7.4-1.6,8.2c-0.4,0.2-0.8,0.3-1.2,0.3c-2.2,0-5.6-1.8-9.1-5.1c1.6-1.7,3.1-3.5,4.5-5.4
			c2.3-0.2,4.6-0.6,6.9-1.2C40,34.3,40.2,35.4,40.3,36.4L40.3,36.4z M44.5,29.2c-0.9,0.4-2,0.8-3,1.1c-0.7-2.3-1.5-4.5-2.4-6.6
			c1-2.1,1.8-4.3,2.4-6.6c1.1,0.3,2.1,0.7,3.1,1.1c3.8,1.6,6.3,3.8,6.3,5.5S48.3,27.6,44.5,29.2L44.5,29.2z"/>
		<ellipse id="Ellipse_262" class="st1" cx="26.6" cy="23.7" rx="5" ry="5"/>
	</g>
</g>
</svg>
