<svg xmlns="http://www.w3.org/2000/svg" width="60" height="60" viewBox="0 0 60 60">
    <defs>
        <style>
            .cls-1{fill:none}.cls-2{fill:#2b0785}
        </style>
    </defs>
    <g id="Group_946" data-name="Group 946" transform="translate(349 -9345)">
        <path id="Path_539" d="M0 0h60v60H0z" class="cls-1" data-name="Path 539" transform="translate(-349 9345)"/>
        <g id="React-icon" transform="translate(-346 9351)">
            <path id="Path_487" d="M228.953 101.717c0-3.528-4.418-6.871-11.191-8.944 1.563-6.9.868-12.4-2.193-14.155a4.759 4.759 0 0 0-2.431-.608v2.421a2.514 2.514 0 0 1 1.237.282c1.476.847 2.117 4.071 1.617 8.217a33.23 33.23 0 0 1-.554 3.191 52.6 52.6 0 0 0-6.893-1.183 52.939 52.939 0 0 0-4.516-5.427c3.539-3.289 6.86-5.091 9.118-5.091V78c-2.985 0-6.893 2.128-10.844 5.818-3.951-3.669-7.859-5.775-10.844-5.775v2.421c2.247 0 5.579 1.791 9.118 5.058a51.263 51.263 0 0 0-4.483 5.417 50.677 50.677 0 0 0-6.9 1.194 32.507 32.507 0 0 1-.564-3.148c-.51-4.146.119-7.37 1.585-8.228a2.416 2.416 0 0 1 1.248-.282v-2.421a4.84 4.84 0 0 0-2.453.608c-3.05 1.758-3.734 7.24-2.16 14.122-6.75 2.084-11.15 5.416-11.15 8.933s4.418 6.871 11.191 8.944c-1.563 6.9-.868 12.4 2.193 14.155a4.772 4.772 0 0 0 2.442.608c2.985 0 6.893-2.128 10.844-5.818 3.951 3.669 7.859 5.775 10.844 5.775a4.84 4.84 0 0 0 2.453-.608c3.05-1.758 3.734-7.24 2.16-14.122 6.73-2.073 11.126-5.417 11.126-8.934zm-14.133-7.24c-.4 1.4-.9 2.844-1.465 4.288-.445-.868-.912-1.737-1.422-2.605s-1.031-1.715-1.563-2.54c1.541.228 3.03.51 4.45.857zm-4.971 11.56a57.84 57.84 0 0 1-2.616 4.146c-1.617.141-3.256.217-4.906.217s-3.278-.076-4.885-.206q-1.352-1.938-2.627-4.125a56.686 56.686 0 0 1-2.258-4.32 56.563 56.563 0 0 1 2.247-4.331 57.84 57.84 0 0 1 2.616-4.146c1.617-.141 3.256-.217 4.906-.217s3.278.076 4.885.206q1.351 1.938 2.627 4.125 1.237 2.133 2.258 4.32a60.81 60.81 0 0 1-2.247 4.332zm3.506-1.411a47.296 47.296 0 0 1 1.5 4.32c-1.422.347-2.92.64-4.472.868.532-.836 1.064-1.693 1.563-2.573s.964-1.746 1.409-2.614zm-11.007 11.582a44.77 44.77 0 0 1-3.018-3.473c.977.043 1.976.076 2.985.076s2.03-.022 3.018-.076a42.362 42.362 0 0 1-2.985 3.473zm-8.076-6.393a48.791 48.791 0 0 1-4.45-.858c.4-1.4.9-2.844 1.465-4.288.445.868.912 1.737 1.422 2.605s1.032 1.716 1.563 2.541zm8.022-22.589a44.739 44.739 0 0 1 3.018 3.473c-.977-.043-1.976-.076-2.985-.076s-2.03.022-3.018.076a42.369 42.369 0 0 1 2.985-3.472zm-8.032 6.393c-.532.836-1.064 1.693-1.563 2.573s-.966 1.737-1.411 2.605a47.401 47.401 0 0 1-1.5-4.32 53 53 0 0 1 4.474-.857zm-9.824 13.59c-3.843-1.639-6.328-3.788-6.328-5.492s2.486-3.864 6.328-5.492c.934-.4 1.954-.76 3.007-1.1a52.132 52.132 0 0 0 2.442 6.611 51.4 51.4 0 0 0-2.41 6.578 31.607 31.607 0 0 1-3.039-1.104zm5.84 15.511c-1.476-.847-2.117-4.071-1.617-8.217a33.23 33.23 0 0 1 .554-3.191 52.6 52.6 0 0 0 6.893 1.183 52.941 52.941 0 0 0 4.516 5.427c-3.539 3.289-6.86 5.091-9.118 5.091a2.59 2.59 0 0 1-1.228-.292zm25.747-8.271c.51 4.146-.119 7.37-1.585 8.228a2.416 2.416 0 0 1-1.248.282c-2.247 0-5.579-1.791-9.118-5.058a51.267 51.267 0 0 0 4.483-5.416 50.691 50.691 0 0 0 6.9-1.194 30.38 30.38 0 0 1 .568 3.159zm4.179-7.24c-.934.4-1.954.76-3.007 1.1a52.146 52.146 0 0 0-2.442-6.61 51.4 51.4 0 0 0 2.41-6.578c1.075.336 2.095.706 3.05 1.107 3.843 1.639 6.328 3.788 6.328 5.492s-2.496 3.862-6.343 5.49z" class="cls-2" data-name="Path 487" transform="translate(-175.7 -78)"/>
            <ellipse id="Ellipse_262" cx="4.961" cy="4.961" class="cls-2" data-name="Ellipse 262" rx="4.961" ry="4.961" transform="translate(21.655 18.757)"/>
        </g>
    </g>
</svg>
