<svg xmlns="http://www.w3.org/2000/svg" width="60" height="60" viewBox="0 0 60 60">
    <defs>
        <style>
            .cls-1{opacity:.599}.cls-2{fill:none}.cls-3{fill:#c3c3c3}
        </style>
    </defs>
    <g id="Group_1092" class="cls-1" data-name="Group 1092" transform="translate(711 -9345)">
        <path id="Path_536" d="M0 0h60v60H0z" class="cls-2" data-name="Path 536" transform="translate(-711 9345)"/>
        <g id="React-icon" transform="translate(-882.7 9274)">
            <path id="Path_487" d="M226.907 100.806c0-3.392-4.248-6.607-10.761-8.6 1.5-6.638.835-11.92-2.108-13.611a4.576 4.576 0 0 0-2.338-.585v2.328a2.417 2.417 0 0 1 1.19.271c1.419.814 2.035 3.914 1.555 7.9a31.51 31.51 0 0 1-.532 3.069 50.583 50.583 0 0 0-6.628-1.138 50.912 50.912 0 0 0-4.342-5.219c3.4-3.163 6.6-4.9 8.768-4.9V78c-2.87 0-6.628 2.046-10.427 5.595-3.8-3.528-7.557-5.553-10.427-5.553v2.328c2.161 0 5.365 1.722 8.768 4.864a49.3 49.3 0 0 0-4.311 5.208 48.742 48.742 0 0 0-6.638 1.148 31.433 31.433 0 0 1-.543-3.027c-.491-3.987.115-7.087 1.524-7.912a2.323 2.323 0 0 1 1.2-.271v-2.328a4.654 4.654 0 0 0-2.359.585c-2.933 1.691-3.59 6.962-2.077 13.579-6.492 2-10.719 5.208-10.719 8.59s4.248 6.607 10.761 8.6c-1.5 6.638-.835 11.92 2.108 13.611a4.588 4.588 0 0 0 2.348.585c2.87 0 6.628-2.046 10.427-5.595 3.8 3.528 7.557 5.553 10.427 5.553a4.654 4.654 0 0 0 2.359-.585c2.933-1.691 3.591-6.962 2.077-13.579 6.47-1.996 10.698-5.208 10.698-8.59zm-13.59-6.962a46.895 46.895 0 0 1-1.409 4.123c-.428-.835-.877-1.67-1.367-2.505s-.992-1.649-1.5-2.442c1.479.219 2.909.49 4.276.824zm-4.78 11.116a55.666 55.666 0 0 1-2.515 3.987 54.179 54.179 0 0 1-9.418.009q-1.3-1.863-2.526-3.966-1.19-2.051-2.171-4.154c.647-1.4 1.378-2.8 2.161-4.165a55.666 55.666 0 0 1 2.515-3.987 54.179 54.179 0 0 1 9.418-.009q1.3 1.863 2.526 3.966 1.19 2.051 2.171 4.154a58.827 58.827 0 0 1-2.161 4.165zm3.371-1.357c.564 1.4 1.044 2.8 1.44 4.154a46.792 46.792 0 0 1-4.3.835c.511-.8 1.023-1.628 1.5-2.474s.932-1.68 1.36-2.518zm-10.584 11.137a43.026 43.026 0 0 1-2.9-3.34c.939.042 1.9.073 2.87.073s1.952-.021 2.9-.073a40.74 40.74 0 0 1-2.87 3.34zm-7.766-6.148a47.011 47.011 0 0 1-4.279-.825 46.895 46.895 0 0 1 1.409-4.123c.428.835.877 1.67 1.367 2.505s.992 1.651 1.504 2.443zm7.713-21.721a43.032 43.032 0 0 1 2.9 3.34c-.939-.042-1.9-.073-2.87-.073s-1.952.021-2.9.073a40.737 40.737 0 0 1 2.871-3.339zm-7.724 6.148c-.511.8-1.023 1.628-1.5 2.474s-.929 1.67-1.357 2.505c-.564-1.4-1.044-2.8-1.44-4.154a50.652 50.652 0 0 1 4.298-.824zm-9.447 13.068c-3.695-1.576-6.085-3.643-6.085-5.281s2.39-3.716 6.085-5.281a32.36 32.36 0 0 1 2.891-1.054 50.13 50.13 0 0 0 2.348 6.356 49.42 49.42 0 0 0-2.317 6.325 31.748 31.748 0 0 1-2.922-1.065zM189.718 121c-1.42-.814-2.035-3.914-1.555-7.9.115-.981.3-2.014.532-3.069a50.582 50.582 0 0 0 6.628 1.138 50.912 50.912 0 0 0 4.342 5.219c-3.4 3.163-6.6 4.9-8.768 4.9a2.491 2.491 0 0 1-1.179-.288zm24.758-7.953c.491 3.987-.115 7.087-1.524 7.912a2.323 2.323 0 0 1-1.2.271c-2.161 0-5.365-1.722-8.768-4.864a49.3 49.3 0 0 0 4.311-5.208 48.737 48.737 0 0 0 6.638-1.148 29.217 29.217 0 0 1 .543 3.039zm4.018-6.962c-.9.386-1.879.731-2.891 1.054a50.132 50.132 0 0 0-2.348-6.356 49.426 49.426 0 0 0 2.317-6.325 33.08 33.08 0 0 1 2.933 1.065c3.695 1.576 6.085 3.643 6.085 5.281s-2.401 3.718-6.096 5.283z" class="cls-3" data-name="Path 487"/>
            <circle id="Ellipse_262" cx="4.77" cy="4.77" r="4.77" class="cls-3" data-name="Ellipse 262" transform="translate(196.523 96.036)"/>
        </g>
    </g>
</svg>
