<?xml version="1.0" encoding="UTF-8"?>
<svg width="64px" height="70px" viewBox="0 0 64 70" version="1.1" xmlns="http://www.w3.org/2000/svg" xmlns:xlink="http://www.w3.org/1999/xlink">
    <!-- Generator: Sketch 52.4 (67378) - http://www.bohemiancoding.com/sketch -->
    <title>smartphone (1)</title>
    <desc>Created with Sketch.</desc>
    <defs>
        <linearGradient x1="144.807282%" y1="214.768094%" x2="-150.054671%" y2="214.768094%" id="linearGradient-1">
            <stop stop-color="#FFAE4F" offset="0%"></stop>
            <stop stop-color="#FF3447" offset="100%"></stop>
        </linearGradient>
    </defs>
    <g id="Welcome" stroke="none" stroke-width="1" fill="none" fill-rule="evenodd">
        <g id="Hasura-website-design-V3" transform="translate(-257.000000, -735.000000)">
            <g id="smartphone-(1)" transform="translate(257.000000, 735.000000)">
                <path d="M37.8738063,36.026805 C37.2402808,36.026805 36.7261152,36.5463721 36.7261152,37.1891475 L36.7261152,53.4677539 L2.2953822,53.4677539 L2.2953822,9.29873981 L36.7261152,9.29873981 L36.7261152,25.5692098 C36.7261152,26.2119852 37.2402808,26.7315523 37.8738063,26.7315523 C38.5073318,26.7315523 39.0214974,26.2119852 39.0214974,25.5692098 L39.0214974,5.12011861 C39.0214974,2.29795107 36.7536598,0 33.9647704,0 L5.0555793,0 C2.26783761,0 0,2.29795107 0,5.12011861 L0,64.6192676 C0,67.4425975 2.26783761,69.7405486 5.0555793,69.7405486 L33.9647704,69.7405486 C36.7525121,69.7405486 39.0203497,67.4425975 39.0203497,64.6204299 L39.0203497,37.1891475 C39.0214974,36.5463721 38.5073318,36.026805 37.8738063,36.026805 Z M5.0555793,2.32468495 L33.9647704,2.32468495 C35.4866088,2.32468495 36.7249675,3.57885248 36.7249675,5.12011861 L36.7249675,6.97405486 L2.29423451,6.97405486 L2.29423451,5.12011861 C2.2953822,3.57885248 3.5337409,2.32468495 5.0555793,2.32468495 Z M33.9647704,67.4158636 L5.0555793,67.4158636 C3.5337409,67.4158636 2.2953822,66.1616961 2.2953822,64.6204299 L2.2953822,55.7924388 L36.7261152,55.7924388 L36.7261152,64.6204299 C36.7261152,66.1616961 35.4877565,67.4158636 33.9647704,67.4158636 Z" id="Shape" fill="url(#linearGradient-1)" fill-rule="nonzero"></path>
                <path d="M19.5107487,64.1363973 C18.2515789,64.1363973 17.227576,63.1123944 17.227576,61.8532246 C17.227576,60.5940549 18.2515789,59.5700519 19.5107487,59.5700519 C20.7699185,59.5700519 21.7939214,60.5940549 21.7939214,61.8532246 C21.7939214,63.1123944 20.7699185,64.1363973 19.5107487,64.1363973 Z" id="Shape" stroke="url(#linearGradient-1)" stroke-width="2" fill-rule="nonzero"></path>
                <path d="M63.0105414,31.9885708 C63.1279416,31.7080785 63.1279416,31.3908004 63.0105414,31.1103081 C62.95126,30.9689125 62.865244,30.8413115 62.7583052,30.7344025 L48.8109219,16.9420005 C48.3564318,16.4925232 47.6218084,16.4925232 47.1673183,16.9420005 C46.7128282,17.3914779 46.7128282,18.1179988 47.1673183,18.5674761 L59.1316833,30.399881 L17.7672713,30.399881 C17.1256382,30.399881 16.6048925,30.9137337 16.6048925,31.5494395 C16.6048925,32.1851453 17.1256382,32.6989979 17.7672713,32.6989979 L59.1316833,32.6989979 L47.1673183,44.5314028 C46.7128282,44.9808801 46.7128282,45.7074011 47.1673183,46.1568784 C47.3939822,46.3810423 47.6915511,46.493699 47.9891201,46.493699 C48.2866891,46.493699 48.5842581,46.3810423 48.8109219,46.1568784 L62.7583052,32.3633268 C62.865244,32.2575675 62.95126,32.1299665 63.0105414,31.9885708 Z" id="Path" fill="url(#linearGradient-1)"></path>
            </g>
        </g>
    </g>
</svg>