<svg xmlns="http://www.w3.org/2000/svg" width="22.5" height="24" viewBox="0 0 22.5 24">
    <defs>
        <style>
            .cls-1{fill:none;stroke:#1cd3c6;stroke-linecap:round;stroke-linejoin:round;stroke-width:1.5px}
        </style>
    </defs>
    <g id="streamline-icon-hierarchy-4_24x24" data-name="streamline-icon-hierarchy-4@24x24" transform="translate(-.75 .002)">
        <path id="Path_3036" d="M3.75 18.748a6.291 6.291 0 0 1 6.545-6H13.7a6.291 6.291 0 0 1 6.545 6" class="cls-1" data-name="Path 3036"/>
        <path id="Path_3037" d="M12 6.748v12" class="cls-1" data-name="Path 3037"/>
        <path id="Path_3038" d="M12 .748a3 3 0 1 1-3 3 3 3 0 0 1 3-3z" class="cls-1" data-name="Path 3038"/>
        <path id="Path_3039" d="M3.75 18.748A2.25 2.25 0 1 1 1.5 21a2.25 2.25 0 0 1 2.25-2.252z" class="cls-1" data-name="Path 3039"/>
        <path id="Path_3040" d="M12 18.748A2.25 2.25 0 1 1 9.75 21 2.25 2.25 0 0 1 12 18.748z" class="cls-1" data-name="Path 3040"/>
        <path id="Path_3041" d="M20.25 18.748A2.25 2.25 0 1 1 18 21a2.25 2.25 0 0 1 2.25-2.252z" class="cls-1" data-name="Path 3041"/>
    </g>
</svg>
