<?xml version="1.0" encoding="utf-8"?>
<!-- Generator: Adobe Illustrator 22.1.0, SVG Export Plug-In . SVG Version: 6.00 Build 0)  -->
<svg version="1.1" id="Layer_1" xmlns="http://www.w3.org/2000/svg" xmlns:xlink="http://www.w3.org/1999/xlink" x="0px" y="0px"
	 viewBox="0 0 100 100" style="enable-background:new 0 0 100 100;" xml:space="preserve">
<style type="text/css">
	.st0{fill:#E24444;}
	.st1{fill:#FFD00B;}
</style>
<g>
	<g>
		<path class="st0" d="M88.8,35.2c2.6-6.4,2.7-19.6-0.8-29.8l0,0c-0.9-1.8-3.7-1.3-3.8,0.8l0,0.7c-0.6,9.6-4.2,14.9-9.3,17.4
			c-0.9,0.4-2.2,0.3-3-0.2c-6.2-3.9-13.5-6.2-21.4-6.2c-7.9,0-15.2,2.3-21.4,6.2c-0.8,0.5-1.8,0.6-2.7,0.3c-5.3-2-9-7.8-9.7-17.5
			l0-0.7c-0.1-2-2.9-2.6-3.8-0.8c-3.5,10.2-3.5,23.4-0.8,29.8c1.3,3.2,1.4,6.8,0.3,10.1c-1.4,4.2-2.1,8.7-2.1,13.4
			C10.5,79.9,28.6,98,49.8,98.2c22.4,0.3,40.7-17.8,40.7-40.2c0-4.5-0.7-8.8-2.1-12.8C87.4,42,87.4,38.4,88.8,35.2z"/>
	</g>
	<ellipse transform="matrix(0.7062 -0.708 0.708 0.7062 -26.3149 52.7024)" class="st1" cx="50.3" cy="58.1" rx="30.6" ry="30.6"/>
	<path class="st0" d="M55.1,54.8l-7.2-11.1c-1.2-1.8-3.6-2.3-5.4-1.2c-1.1,0.7-1.8,1.9-1.8,3.3c0,0.7,0.3,1.5,0.7,2.1l4.9,7.6
		c0.4,0.6,0.3,1.3-0.1,1.8l-7.6,8.3c-1.4,1.6-1.3,4,0.3,5.5c0.7,0.7,1.7,1,2.7,1c1.1,0,2.1-0.5,2.8-1.3l5.6-6.6
		c0.4-0.5,1.2-0.5,1.6,0.1l4,5.7c0.3,0.4,0.6,0.8,1.1,1.2c1.4,1,3.1,0.9,4.3,0.1h0c1.1-0.7,1.8-1.9,1.8-3.3c0-0.7-0.3-1.5-0.6-2.1
		L55.1,54.8z"/>
</g>
</svg>
