<svg width="468" height="160" viewBox="0 0 468 160" fill="none"
	xmlns="http://www.w3.org/2000/svg">
	<g clip-path="url(#clip0)">
		<path d="M152.548 54.4799C157.147 40.1391 154.383 11.4972 145.462 0.929262C144.298 -0.453454 142.107 -0.255924 141.14 1.26506L130.147 18.5293C127.423 21.9861 122.528 22.7762 118.857 20.3663C106.936 12.5638 92.6861 8.02062 77.3703 8.02062C62.0545 8.02062 47.8045 12.5638 35.8834 20.3663C32.2124 22.7762 27.3176 21.9663 24.594 18.5293L13.6005 1.26506C12.6334 -0.255924 10.4426 -0.453454 9.27817 0.929262C0.357115 11.4972 -2.40604 40.1391 2.19264 54.4799C3.71238 59.2404 4.14659 64.2774 3.23869 69.1959C2.35054 74.0552 1.44264 79.9416 1.44264 84.0107C1.44264 125.966 35.4492 160.001 77.3703 160.001C119.311 160.001 153.298 125.986 153.298 84.0107C153.298 79.9219 152.41 74.0552 151.502 69.1959C150.594 64.2774 151.028 59.2404 152.548 54.4799ZM77.3703 143.013C44.9624 143.013 18.594 116.623 18.594 84.1885C18.594 83.1219 18.6334 82.0749 18.6729 81.028C19.8571 58.9243 33.2584 40.0206 52.2453 31.0132C59.8637 27.3786 68.39 25.3638 77.3703 25.3638C86.3505 25.3638 94.8769 27.3984 102.515 31.033C121.502 40.0404 134.903 58.9441 136.087 81.028C136.147 82.0749 136.166 83.1219 136.166 84.1885C136.147 116.623 109.778 143.013 77.3703 143.013Z" fill="white"/>
		<path d="M102.83 106.825L87.8102 80.7704L74.922 59.042C74.6259 58.5284 74.0733 58.2123 73.4615 58.2123H61.1457C60.5338 58.2123 59.9812 58.5481 59.6852 59.0617C59.3891 59.5951 59.3891 60.2469 59.7049 60.7605L72.0207 81.5012L55.4812 106.746C55.1457 107.259 55.1062 107.931 55.4023 108.484C55.6983 109.037 56.2707 109.373 56.8825 109.373H69.2773C69.8496 109.373 70.3825 109.077 70.6983 108.602L79.6391 94.6173L87.6523 108.523C87.9483 109.057 88.5207 109.373 89.1128 109.373H101.33C101.942 109.373 102.494 109.057 102.79 108.523C103.146 107.99 103.146 107.358 102.83 106.825Z" fill="white"/>
		<path d="M211.165 47.3277H224.113V118.478H211.165V88.1375H196.521V118.459H183.573V47.3277H196.521V78.2215H211.165V47.3277Z" fill="white"/>
		<path d="M264.119 118.459L261.415 103.684H245.863L243.376 118.459H230.429L244.738 47.3284H262.205L277.185 118.479H264.119V118.459ZM247.56 93.8864H259.619L253.422 59.8321L247.56 93.8864Z" fill="white"/>
		<path d="M306.021 105.501V90.2716C306.021 89.0667 305.804 88.2568 305.35 87.842C304.896 87.4272 304.067 87.2296 302.863 87.2296H293.744C286.008 87.2296 282.139 83.4766 282.139 75.9506V58.4691C282.139 51.0222 286.185 47.3087 294.297 47.3087H306.692C314.804 47.3087 318.85 51.0222 318.85 58.4691V68.3852H305.784V60.2667C305.784 59.0617 305.567 58.2519 305.113 57.8371C304.659 57.4222 303.83 57.2247 302.626 57.2247H298.343C297.06 57.2247 296.211 57.442 295.758 57.8371C295.304 58.2321 295.086 59.0617 295.086 60.2667V74.5877C295.086 75.7926 295.304 76.6025 295.758 77.0173C296.211 77.4321 297.08 77.6296 298.343 77.6296H307.244C315.139 77.6296 319.067 81.3235 319.067 88.6716V107.279C319.067 114.726 314.981 118.44 306.79 118.44H294.613C286.422 118.44 282.336 114.726 282.336 107.279V97.4617H295.284V105.462C295.284 106.667 295.501 107.477 295.955 107.891C296.409 108.306 297.277 108.504 298.54 108.504H302.823C304.027 108.504 304.856 108.306 305.31 107.891C305.784 107.516 306.021 106.706 306.021 105.501Z" fill="white"/>
		<path d="M353.665 47.3284H366.613V107.319C366.613 114.765 362.527 118.479 354.336 118.479H340.6C332.409 118.479 328.323 114.765 328.323 107.319V47.3284H341.271V105.501C341.271 106.706 341.488 107.516 341.942 107.931C342.396 108.346 343.225 108.543 344.429 108.543H350.409C351.692 108.543 352.54 108.346 352.994 107.931C353.448 107.516 353.665 106.706 353.665 105.501V47.3284Z" fill="white"/>
		<path d="M390.277 90.7259V118.459H377.33V47.3284H403.461C411.652 47.3284 415.738 51.042 415.738 58.4889V79.5654C415.738 85.7284 412.994 89.3432 407.508 90.3901L419.33 118.459H405.356L394.54 90.7259H390.277ZM390.277 57.2444V81.1457H399.633C400.836 81.1457 401.665 80.9482 402.119 80.5333C402.573 80.1185 402.79 79.3086 402.79 78.1037V60.2864C402.79 59.0815 402.573 58.2716 402.119 57.8568C401.665 57.442 400.836 57.2444 399.633 57.2444H390.277Z" fill="white"/>
		<path d="M454.935 118.459L452.231 103.684H436.679L434.211 118.459H421.264L435.573 47.3087H453.04L468.021 118.459H454.935ZM438.376 93.8864H450.435L444.238 59.8321L438.376 93.8864Z" fill="white"/>
	</g>
	<defs>
		<clipPath id="clip0">
			<rect width="468" height="160" fill="white"/>
		</clipPath>
	</defs>
</svg>
