<svg width="98" height="42" viewBox="0 0 98 42" fill="none" xmlns="http://www.w3.org/2000/svg">
<path d="M28.17 41.9141C27.547 41.9699 26.9196 42 26.288 42C15.2319 42 6.24261 32.9978 6.24691 21.946C6.24691 21.0179 6.4016 19.7116 6.70669 18.0659C6.85278 17.2795 6.78833 16.4244 6.52621 15.6037C5.25001 11.6247 5.95901 4.08783 8.60165 0.963933C9.15166 0.306496 9.99387 -0.0501521 10.8533 0.00570851C11.717 0.0658661 12.5076 0.534236 12.9717 1.26472L15.4209 5.11051C18.6652 3.00929 22.425 1.90067 26.3052 1.90067C30.1853 1.90067 33.9452 3.01359 37.1894 5.1191L39.6387 1.27331C40.1027 0.54283 40.9106 0.07446 41.7571 0.0185994C42.6122 -0.0372612 43.4544 0.31509 44.0087 0.96823C46.6513 4.09642 47.3517 11.6333 46.0755 15.608C45.8091 16.433 45.7489 17.2838 45.8907 18.0702C46.1958 19.7202 46.3505 21.0265 46.3462 21.9546C46.3462 27.3087 44.2579 32.3447 40.468 36.126C37.1292 39.4648 32.8151 41.4801 28.1743 41.9055L28.17 41.9141Z" fill="#E7EBEF"/>
<path d="M43.765 15.0848C44.835 11.759 44.1947 5.11154 42.1236 2.65797C41.8529 2.33999 41.3458 2.38296 41.1224 2.73531L38.57 6.74009C37.9383 7.53933 36.7996 7.7241 35.9488 7.16549C33.1816 5.35217 29.8686 4.29511 26.315 4.29511C22.7571 4.29511 19.4485 5.34787 16.6769 7.1569C15.8218 7.7155 14.6874 7.53073 14.0558 6.7272L11.5077 2.71812C11.2842 2.36577 10.7772 2.31851 10.5065 2.64078C8.43103 5.09435 7.78648 11.7375 8.85643 15.0633C9.20878 16.1676 9.30761 17.3364 9.09706 18.4794C8.88651 19.6052 8.68025 20.9717 8.68025 21.917C8.68025 31.6539 16.5695 39.5561 26.3064 39.5561C36.0477 39.5561 43.9455 31.6668 43.9455 21.9299C43.9455 20.9845 43.7392 19.6181 43.5287 18.4923C43.3181 17.3536 43.417 16.1805 43.7736 15.0805L43.765 15.0848Z" fill="url(#paint0_radial_6499_41587)"/>
<path d="M43.765 15.0848C44.835 11.759 44.1947 5.11154 42.1236 2.65797C41.8529 2.33999 41.3458 2.38296 41.1224 2.73531L38.57 6.74009C37.9383 7.53933 36.7996 7.7241 35.9488 7.16549C33.1816 5.35217 29.8686 4.29511 26.315 4.29511C22.7571 4.29511 19.4485 5.34787 16.6769 7.1569C15.8218 7.7155 14.6874 7.53073 14.0558 6.7272L11.5077 2.71812C11.2842 2.36577 10.7772 2.31851 10.5065 2.64078C8.43103 5.09435 7.78648 11.7375 8.85643 15.0633C9.20878 16.1676 9.30761 17.3364 9.09706 18.4794C8.88651 19.6052 8.68025 20.9717 8.68025 21.917C8.68025 31.6539 16.5695 39.5561 26.3064 39.5561C36.0477 39.5561 43.9455 31.6668 43.9455 21.9299C43.9455 20.9845 43.7392 19.6181 43.5287 18.4923C43.3181 17.3536 43.417 16.1805 43.7736 15.0805L43.765 15.0848Z" fill="url(#paint1_radial_6499_41587)"/>
<path d="M8.82992 17.0219C6.61269 18.7149 4.70483 19.5571 3.34699 22.3759C2.98605 23.2783 2.83995 24.3998 3.30832 25.2635C3.98724 26.5225 5.63298 26.8835 6.94785 26.9307C11.0643 26.978 13.6812 25.7405 17.3895 23.9701C20.436 22.4662 23.3838 20.6915 26.2627 18.8009C26.5377 18.6204 26.8428 18.4958 27.1651 18.4399C27.4874 18.3841 27.8139 18.3927 28.1319 18.47C28.4499 18.5473 28.7464 18.6891 29.0128 18.8868C29.2792 19.0845 29.5026 19.338 29.6745 19.6259C29.8593 19.9353 29.9753 20.2833 30.0226 20.6443C30.0698 21.0052 30.0441 21.3747 29.9495 21.7228C29.855 22.0752 29.6874 22.3974 29.464 22.6767C29.2405 22.956 28.9655 23.1838 28.6518 23.3428C25.4592 24.967 22.1978 26.471 18.8118 27.687C14.1754 29.3929 3.02902 32.5984 0.309035 26.544C-0.266759 25.1045 0.0168408 23.4846 0.708653 22.1697C2.3501 19.1231 5.59431 17.3743 8.70531 16.5793C8.75688 16.5707 8.81274 16.5793 8.85571 16.6094C8.90297 16.6395 8.93735 16.6825 8.95024 16.7383C8.96743 16.7942 8.96313 16.85 8.94165 16.9016C8.92016 16.9532 8.88149 16.9918 8.82992 17.0176V17.0219Z" fill="url(#paint2_linear_6499_41587)"/>
<path d="M25.3814 13.743L27.8651 17.924C27.994 18.1431 28.2518 18.2548 28.501 18.2033L32.8066 17.2923C33.3738 17.172 33.7605 17.8552 33.3652 18.2806L30.3573 21.5119C30.1854 21.6967 30.1468 21.976 30.2671 22.1994L32.5617 26.4577C32.8281 26.9562 32.321 27.5105 31.8011 27.2871L27.5256 25.4308C27.2979 25.3319 27.0315 25.3835 26.8596 25.5683L23.6454 28.9414C23.2544 29.3496 22.5712 29.0359 22.6228 28.473L23.0782 23.6561C23.104 23.4026 22.9622 23.162 22.7302 23.0588L18.6996 21.2541C18.1711 21.0178 18.257 20.2357 18.8285 20.1283L23.147 19.2904C23.3962 19.2431 23.5896 19.0412 23.624 18.7877L24.2814 13.9707C24.3587 13.4121 25.0935 13.2617 25.3814 13.7473V13.743Z" fill="white"/>
<path d="M57.6387 10.563L59.6745 10.563L59.6745 21.6622L57.6527 21.6622L57.6527 16.9353L55.3519 16.9353L55.3519 21.6622L53.3301 21.6622L53.3301 10.563L55.3519 10.563L55.3519 15.3875L57.6387 15.3875L57.6387 10.563Z" fill="#23303D"/>
<path d="M65.9043 21.6622L65.486 19.3615L63.0597 19.3615L62.6693 21.6622L60.6475 21.6622L62.8785 10.563L65.6115 10.563L67.954 21.6622L65.9043 21.6622ZM63.3247 17.8277L65.2071 17.8277L64.245 12.5151L63.3247 17.8277Z" fill="#23303D"/>
<path d="M72.4586 19.6404L72.4586 17.27C72.4586 17.0887 72.4168 16.9632 72.3471 16.8935C72.2773 16.8237 72.1519 16.7959 71.9566 16.7959L70.5344 16.7959C69.3213 16.7959 68.7217 16.2102 68.7217 15.0389L68.7217 12.306C68.7217 11.1486 69.3492 10.563 70.618 10.563L72.5562 10.563C73.8251 10.563 74.4526 11.1486 74.4526 12.306L74.4526 13.8537L72.4168 13.8537L72.4168 12.5848C72.4168 12.4036 72.375 12.2781 72.3052 12.2084C72.2355 12.1386 72.11 12.1107 71.9148 12.1107L71.2455 12.1107C71.0503 12.1107 70.9109 12.1386 70.8411 12.2084C70.7714 12.2781 70.7296 12.4036 70.7296 12.5848L70.7296 14.8158C70.7296 14.9971 70.7714 15.1366 70.8411 15.1923C70.9109 15.262 71.0503 15.2899 71.2455 15.2899L72.6399 15.2899C73.8669 15.2899 74.4805 15.8616 74.4805 17.019L74.4805 19.9193C74.4805 21.0766 73.839 21.6622 72.5562 21.6622L70.6599 21.6622C69.377 21.6622 68.7356 21.0766 68.7356 19.9193L68.7356 18.3855L70.7575 18.3855L70.7575 19.6404C70.7575 19.8217 70.7993 19.9611 70.869 20.0169C70.9387 20.0866 71.0782 20.1145 71.2734 20.1145L71.9427 20.1145C72.124 20.1145 72.2634 20.0866 72.3331 20.0169C72.4168 19.9472 72.4586 19.8217 72.4586 19.6404Z" fill="#23303D"/>
<path d="M79.889 10.563L81.9109 10.563L81.9109 19.9193C81.9109 21.0766 81.2695 21.6622 79.9866 21.6622L77.8393 21.6622C76.5565 21.6622 75.915 21.0766 75.915 19.9193L75.915 10.563L77.9369 10.563L77.9369 19.6404C77.9369 19.8217 77.9787 19.9611 78.0484 20.0169C78.1182 20.0866 78.2437 20.1145 78.4389 20.1145L79.3731 20.1145C79.5683 20.1145 79.7078 20.0866 79.7775 20.0169C79.8472 19.9472 79.889 19.8217 79.889 19.6404L79.889 10.563Z" fill="#23303D"/>
<path d="M85.6078 17.3397L85.6078 21.6622L83.5859 21.6622L83.5859 10.563L87.6715 10.563C88.9543 10.563 89.5957 11.1486 89.5957 12.306L89.5957 15.5967C89.5957 16.5588 89.1634 17.1166 88.3129 17.2839L90.1535 21.6622L87.9782 21.6622L86.291 17.3397L85.6078 17.3397ZM85.6078 12.1107L85.6078 15.8337L87.0719 15.8337C87.2532 15.8337 87.3926 15.8059 87.4623 15.7361C87.532 15.6664 87.5739 15.5409 87.5739 15.3597L87.5739 12.5848C87.5739 12.4036 87.532 12.2781 87.4623 12.2084C87.3926 12.1386 87.2671 12.1107 87.0719 12.1107L85.6078 12.1107V12.1107Z" fill="#23303D"/>
<path d="M95.7021 21.6622L95.2838 19.3615L92.8576 19.3615L92.4672 21.6622L90.4453 21.6622L92.6763 10.563L95.4093 10.563L97.7519 21.6622L95.7021 21.6622ZM93.1225 17.8277L95.0049 17.8277L94.0428 12.5151L93.1225 17.8277Z" fill="#23303D"/>
<path d="M59.1426 27.8389L57.1068 27.8389L57.1068 26.1098C57.1068 25.9286 57.065 25.8031 56.9953 25.7334C56.9256 25.6636 56.8001 25.6358 56.6049 25.6358L55.7822 25.6358C55.6009 25.6358 55.4615 25.6636 55.3918 25.7334C55.322 25.8031 55.2802 25.9286 55.2802 26.1098L55.2802 33.3188C55.2802 33.5001 55.322 33.6395 55.3918 33.6953C55.4615 33.765 55.587 33.7929 55.7822 33.7929L56.6049 33.7929C56.7861 33.7929 56.9256 33.765 56.9953 33.6953C57.065 33.6255 57.1068 33.5001 57.1068 33.3188L57.1068 31.6316L59.1426 31.6316L59.1426 33.5279C59.1426 34.6853 58.5012 35.2709 57.2184 35.2709L55.1547 35.2709C53.8719 35.2709 53.2305 34.6853 53.2305 33.5279L53.2305 25.9007C53.2305 24.7434 53.8719 24.1577 55.1547 24.1577L57.2184 24.1577C58.5012 24.1577 59.1426 24.7434 59.1426 25.9007L59.1426 27.8389Z" fill="#23303D"/>
<path d="M62.4057 24.1582L64.553 24.1582C65.8359 24.1582 66.4773 24.7438 66.4773 25.9012L66.4773 33.5145C66.4773 34.6718 65.8359 35.2575 64.553 35.2575L62.4057 35.2575C61.1229 35.2575 60.4814 34.6718 60.4814 33.5145L60.4814 25.9012C60.4954 24.7438 61.1368 24.1582 62.4057 24.1582ZM64.4554 33.2356L64.4554 26.1801C64.4554 25.9988 64.4136 25.8733 64.3439 25.8036C64.2742 25.7339 64.1487 25.706 63.9535 25.706L63.0192 25.706C62.824 25.706 62.6846 25.7339 62.6148 25.8036C62.5451 25.8733 62.5033 25.9988 62.5033 26.1801L62.5033 33.2356C62.5033 33.4169 62.5451 33.5563 62.6148 33.6121C62.6846 33.6818 62.824 33.7097 63.0192 33.7097L63.9535 33.7097C64.1347 33.7097 64.2742 33.6818 64.3439 33.6121C64.4136 33.5424 64.4554 33.4169 64.4554 33.2356Z" fill="#23303D"/>
<path d="M72.4011 24.1582L74.2417 24.1582L74.2417 35.2575L72.3454 35.2575L69.9749 27.9091L69.9749 35.2575L68.1064 35.2575L68.1064 24.1582L70.0586 24.1582L72.4011 31.409L72.4011 24.1582Z" fill="#23303D"/>
<path d="M75.707 24.1582L77.8683 24.1582L77.8683 25.4271L76.3345 29.0385L75.707 29.0385L75.707 24.1582Z" fill="#23303D"/>
<path d="M80.9095 26.1801L80.9095 27.8394L78.8877 27.8394L78.8877 25.9012C78.8877 24.7438 79.5291 24.1582 80.8119 24.1582L82.4991 24.1582C83.7959 24.1582 84.4373 24.7438 84.4373 25.9012L84.4373 27.1561C84.4373 28.0206 84.1724 28.8712 83.6425 29.6939L81.3418 33.7097L84.4931 33.7097L84.4931 35.2575L78.9574 35.2575L78.9574 33.7934L81.8298 29.1501C82.2342 28.5226 82.4434 27.8533 82.4434 27.1143L82.4434 26.1801C82.4434 25.9988 82.4015 25.8733 82.3318 25.8036C82.2621 25.7339 82.1366 25.706 81.9414 25.706L81.4255 25.706C81.2303 25.706 81.0908 25.7339 81.0211 25.8036C80.9514 25.8593 80.9095 25.9988 80.9095 26.1801Z" fill="#23303D"/>
<path d="M87.3256 26.1801L87.3256 27.8394L85.3037 27.8394L85.3037 25.9012C85.3037 24.7438 85.9451 24.1582 87.228 24.1582L88.9152 24.1582C90.2119 24.1582 90.8533 24.7438 90.8533 25.9012L90.8533 27.1561C90.8533 28.0206 90.5884 28.8712 90.0585 29.6939L87.7578 33.7097L90.9091 33.7097L90.9091 35.2575L85.3734 35.2575L85.3734 33.7934L88.2459 29.1501C88.6502 28.5226 88.8594 27.8533 88.8594 27.1143L88.8594 26.1801C88.8594 25.9988 88.8175 25.8733 88.7478 25.8036C88.6781 25.7339 88.5526 25.706 88.3574 25.706L87.8415 25.706C87.6463 25.706 87.5068 25.7339 87.4371 25.8036C87.3674 25.8593 87.3256 25.9988 87.3256 26.1801Z" fill="#23303D"/>
<defs>
<radialGradient id="paint0_radial_6499_41587" cx="0" cy="0" r="1" gradientUnits="userSpaceOnUse" gradientTransform="translate(12.4358 39.1006) scale(53.4328)">
<stop stop-color="#5870B6"/>
<stop offset="0.34" stop-color="#62C6C5"/>
<stop offset="1" stop-color="#62C6C5"/>
</radialGradient>
<radialGradient id="paint1_radial_6499_41587" cx="0" cy="0" r="1" gradientUnits="userSpaceOnUse" gradientTransform="translate(-0.063433 12.98) rotate(11.631) scale(79.6549 79.9409)">
<stop stop-color="#5175F4"/>
<stop offset="0.61" stop-color="#31E4D6"/>
<stop offset="1" stop-color="#FFAB2D"/>
</radialGradient>
<linearGradient id="paint2_linear_6499_41587" x1="-0.94837" y1="15.5089" x2="18.9674" y2="24.3603" gradientUnits="userSpaceOnUse">
<stop stop-color="white"/>
<stop offset="0.12" stop-color="#1FB4D3"/>
<stop offset="0.16" stop-color="#4FB7BC"/>
<stop offset="0.2" stop-color="#7DBAA6"/>
<stop offset="0.25" stop-color="#A5BD93"/>
<stop offset="0.3" stop-color="#C5BF84"/>
<stop offset="0.35" stop-color="#DEC078"/>
<stop offset="0.4" stop-color="#F0C270"/>
<stop offset="0.46" stop-color="#FAC26B"/>
<stop offset="0.53" stop-color="#FEC36A"/>
<stop offset="0.64" stop-color="#FBB36E"/>
<stop offset="0.87" stop-color="#F58B7A"/>
<stop offset="0.94" stop-color="#F37E7E"/>
</linearGradient>
</defs>
</svg>
