<svg width="709" height="92" viewBox="0 0 709 92" fill="none" xmlns="http://www.w3.org/2000/svg">
<g clip-path="url(#clip0_6499_41577)">
<rect width="709" height="92" rx="8" fill="#EAEEF2"/>
<g filter="url(#filter0_f_6499_41577)">
<path d="M428.983 258.351C398.705 406.547 134.489 326.193 -70.2286 284.366C-274.946 242.539 -395.239 -27.3412 -364.96 -175.537C-350.154 -248.004 -185.798 83.5828 -111.441 48.4777C-33.7364 11.792 -71.5653 61.2867 -9.98781 -10.4776C-21.2788 100.298 54.1968 112.121 106.536 196.389C138.466 247.798 440.456 202.199 428.983 258.351Z" fill="url(#paint0_linear_6499_41577)"/>
</g>
<g filter="url(#filter1_f_6499_41577)">
<path d="M422.673 290.125C390.08 449.648 105.67 363.152 -114.693 318.128C-335.056 273.105 -623.97 246.681 -591.378 87.1585C-575.44 9.15328 -250.749 185.988 -170.709 148.2C-87.0652 108.71 418.686 62.4652 484.97 -14.7838C472.816 104.458 19.2419 132.719 75.581 223.428C109.951 278.766 435.022 229.681 422.673 290.125Z" fill="url(#paint1_linear_6499_41577)"/>
</g>
<g style="mix-blend-mode:color-dodge" filter="url(#filter2_f_6499_41577)">
<path d="M413.269 102.43C407.459 130.866 182.73 187.328 147.642 232.959C84.82 214.048 33.2925 223.924 39.1025 195.488C44.9125 167.051 -29.4919 -167.116 39.0731 -153.107C140.051 -66.266 108.006 172.27 413.269 102.43Z" fill="url(#paint2_linear_6499_41577)"/>
</g>
<g style="mix-blend-mode:color-dodge" filter="url(#filter3_f_6499_41577)">
<path d="M-403.393 -23.3876C-407.205 -4.73194 -296.146 129.992 -286.714 166.559C-243.936 171.313 222.068 247.013 225.879 228.358C229.691 209.702 -334.599 178.683 -155.797 -2.77313C-239.081 23.6472 -237.15 97.314 -403.393 -23.3876Z" fill="url(#paint3_linear_6499_41577)"/>
</g>
<g filter="url(#filter4_f_6499_41577)">
<path d="M20.2414 317.814C95.1456 339.459 183.031 352.272 262.152 333.341C286.001 327.192 309.834 315.861 316.793 299.996C326.979 276.934 301.506 252.501 276.656 235.808C197.006 184.704 87.9506 156.171 -17.6057 131.364C-105.278 111.575 -196.032 96.1429 -287.685 82.97C-296.459 81.7172 -304.746 79.3895 -312.07 76.1203C-319.395 72.8511 -325.614 68.7045 -330.371 63.918C-335.128 59.1314 -338.33 53.7989 -339.793 48.2258C-341.256 42.6527 -340.952 36.9485 -338.897 31.4398C-336.699 25.5615 -332.558 20.0335 -326.744 15.2143C-320.929 10.3951 -313.571 6.39226 -305.145 3.46562C-296.72 0.538983 -287.416 -1.24602 -277.837 -1.77396C-268.258 -2.30189 -258.618 -1.56102 -249.542 0.4011C-156.749 20.5815 -64.871 43.0316 24.0775 70.3444C146.602 107.308 424.539 206.614 364.703 310.885C349.1 334.814 313.296 350.31 275.277 357.177C186.3 372.682 90.1811 353.344 14.5996 324.465C13.382 323.94 12.5165 323.152 12.1676 322.25C11.8187 321.348 12.011 320.396 12.7078 319.575C13.4046 318.753 14.5573 318.12 15.9465 317.795C17.3357 317.471 18.8642 317.477 20.2414 317.814Z" fill="url(#paint4_linear_6499_41577)"/>
<g filter="url(#filter5_f_6499_41577)">
<path d="M20.2414 317.814C95.1456 339.459 183.031 352.272 262.152 333.341C286.001 327.192 309.834 315.861 316.793 299.996C326.979 276.934 301.506 252.501 276.656 235.808C197.006 184.704 87.9506 156.171 -17.6057 131.364C-105.278 111.575 -196.032 96.1429 -287.685 82.97C-296.459 81.7172 -304.746 79.3895 -312.07 76.1203C-319.395 72.8511 -325.614 68.7045 -330.371 63.918C-335.128 59.1314 -338.33 53.7989 -339.793 48.2258C-341.256 42.6527 -340.952 36.9485 -338.897 31.4398C-336.699 25.5615 -332.558 20.0335 -326.744 15.2143C-320.929 10.3951 -313.571 6.39226 -305.145 3.46562C-296.72 0.538983 -287.416 -1.24602 -277.837 -1.77396C-268.258 -2.30189 -258.618 -1.56102 -249.542 0.4011C-156.749 20.5815 -64.871 43.0316 24.0775 70.3444C146.602 107.308 424.539 206.614 364.703 310.885C349.1 334.814 313.296 350.31 275.277 357.177C186.3 372.682 90.1811 353.344 14.5996 324.465C13.382 323.94 12.5165 323.152 12.1676 322.25C11.8187 321.348 12.011 320.396 12.7078 319.575C13.4046 318.753 14.5573 318.12 15.9465 317.795C17.3357 317.471 18.8642 317.477 20.2414 317.814Z" fill="url(#paint5_linear_6499_41577)"/>
</g>
<g filter="url(#filter6_f_6499_41577)">
<path d="M20.2414 317.814C95.1456 339.459 183.031 352.272 262.152 333.341C286.001 327.192 309.834 315.861 316.793 299.996C326.979 276.934 301.506 252.501 276.656 235.808C197.006 184.704 87.9506 156.171 -17.6057 131.364C-105.278 111.575 -196.032 96.1429 -287.685 82.97C-296.459 81.7172 -304.746 79.3895 -312.07 76.1203C-319.395 72.8511 -325.614 68.7045 -330.371 63.918C-335.128 59.1314 -338.33 53.7989 -339.793 48.2258C-341.256 42.6527 -340.952 36.9485 -338.897 31.4398C-336.699 25.5615 -332.558 20.0335 -326.744 15.2143C-320.929 10.3951 -313.571 6.39226 -305.145 3.46562C-296.72 0.538983 -287.416 -1.24602 -277.837 -1.77396C-268.258 -2.30189 -258.618 -1.56102 -249.542 0.4011C-156.749 20.5815 -64.871 43.0316 24.0775 70.3444C146.602 107.308 424.539 206.614 364.703 310.885C349.1 334.814 313.296 350.31 275.277 357.177C186.3 372.682 90.1811 353.344 14.5996 324.465C13.382 323.94 12.5165 323.152 12.1676 322.25C11.8187 321.348 12.011 320.396 12.7078 319.575C13.4046 318.753 14.5573 318.12 15.9465 317.795C17.3357 317.471 18.8642 317.477 20.2414 317.814Z" fill="url(#paint6_linear_6499_41577)"/>
</g>
</g>
</g>
<defs>
<filter id="filter0_f_6499_41577" x="-580.081" y="-396.412" width="1219.87" height="950.885" filterUnits="userSpaceOnUse" color-interpolation-filters="sRGB">
<feFlood flood-opacity="0" result="BackgroundImageFix"/>
<feBlend mode="normal" in="SourceGraphic" in2="BackgroundImageFix" result="shape"/>
<feGaussianBlur stdDeviation="105.242" result="effect1_foregroundBlur_6499_41577"/>
</filter>
<filter id="filter1_f_6499_41577" x="-804.394" y="-225.268" width="1499.85" height="818.06" filterUnits="userSpaceOnUse" color-interpolation-filters="sRGB">
<feFlood flood-opacity="0" result="BackgroundImageFix"/>
<feBlend mode="normal" in="SourceGraphic" in2="BackgroundImageFix" result="shape"/>
<feGaussianBlur stdDeviation="105.242" result="effect1_foregroundBlur_6499_41577"/>
</filter>
<filter id="filter2_f_6499_41577" x="-34.8243" y="-198.217" width="492.775" height="475.858" filterUnits="userSpaceOnUse" color-interpolation-filters="sRGB">
<feFlood flood-opacity="0" result="BackgroundImageFix"/>
<feBlend mode="normal" in="SourceGraphic" in2="BackgroundImageFix" result="shape"/>
<feGaussianBlur stdDeviation="22.3409" result="effect1_foregroundBlur_6499_41577"/>
</filter>
<filter id="filter3_f_6499_41577" x="-448.171" y="-68.0695" width="718.751" height="344.06" filterUnits="userSpaceOnUse" color-interpolation-filters="sRGB">
<feFlood flood-opacity="0" result="BackgroundImageFix"/>
<feBlend mode="normal" in="SourceGraphic" in2="BackgroundImageFix" result="shape"/>
<feGaussianBlur stdDeviation="22.3409" result="effect1_foregroundBlur_6499_41577"/>
</filter>
<filter id="filter4_f_6499_41577" x="-349.103" y="-10.3396" width="730.538" height="381.411" filterUnits="userSpaceOnUse" color-interpolation-filters="sRGB">
<feFlood flood-opacity="0" result="BackgroundImageFix"/>
<feBlend mode="normal" in="SourceGraphic" in2="BackgroundImageFix" result="shape"/>
<feGaussianBlur stdDeviation="4.20031" result="effect1_foregroundBlur_6499_41577"/>
</filter>
<filter id="filter5_f_6499_41577" x="-343.432" y="-4.66916" width="719.197" height="370.07" filterUnits="userSpaceOnUse" color-interpolation-filters="sRGB">
<feFlood flood-opacity="0" result="BackgroundImageFix"/>
<feBlend mode="normal" in="SourceGraphic" in2="BackgroundImageFix" result="shape"/>
<feGaussianBlur stdDeviation="1.3651" result="effect1_foregroundBlur_6499_41577"/>
</filter>
<filter id="filter6_f_6499_41577" x="-350.873" y="-12.1097" width="734.078" height="384.951" filterUnits="userSpaceOnUse" color-interpolation-filters="sRGB">
<feFlood flood-opacity="0" result="BackgroundImageFix"/>
<feBlend mode="normal" in="SourceGraphic" in2="BackgroundImageFix" result="shape"/>
<feGaussianBlur stdDeviation="5.08537" result="effect1_foregroundBlur_6499_41577"/>
</filter>
<linearGradient id="paint0_linear_6499_41577" x1="90.6932" y1="263.595" x2="-186.388" y2="21.6257" gradientUnits="userSpaceOnUse">
<stop stop-color="#1EB4D4"/>
<stop offset="0.385417" stop-color="#FFC267"/>
<stop offset="1" stop-color="#F47E7E"/>
</linearGradient>
<linearGradient id="paint1_linear_6499_41577" x1="58.5278" y1="295.77" x2="-239.731" y2="35.3073" gradientUnits="userSpaceOnUse">
<stop stop-color="#1EB4D4"/>
<stop offset="0.385417" stop-color="#FFC267"/>
<stop offset="1" stop-color="#F47E7E"/>
</linearGradient>
<linearGradient id="paint2_linear_6499_41577" x1="37.7959" y1="211.773" x2="87.7511" y2="0.16586" gradientUnits="userSpaceOnUse">
<stop stop-color="#5175F4"/>
<stop offset="1" stop-color="#5175F4" stop-opacity="0"/>
</linearGradient>
<linearGradient id="paint3_linear_6499_41577" x1="-204.946" y1="139.22" x2="-180.638" y2="-1.33304" gradientUnits="userSpaceOnUse">
<stop stop-color="#FFAB2D"/>
<stop offset="1" stop-color="#F47E7E" stop-opacity="0"/>
</linearGradient>
<linearGradient id="paint4_linear_6499_41577" x1="-82.2191" y1="109.789" x2="-0.0326168" y2="375.085" gradientUnits="userSpaceOnUse">
<stop stop-color="white"/>
<stop offset="0.3422" stop-color="#1EB4D4"/>
<stop offset="0.6354" stop-color="#FFC267"/>
<stop offset="1" stop-color="#F47E7E" stop-opacity="0.31"/>
</linearGradient>
<linearGradient id="paint5_linear_6499_41577" x1="-275.348" y1="143.402" x2="186.907" y2="326.031" gradientUnits="userSpaceOnUse">
<stop stop-color="white"/>
<stop offset="0.3422" stop-color="#1EB4D4"/>
<stop offset="0.6354" stop-color="#FFC267"/>
<stop offset="1" stop-color="#F47E7E"/>
</linearGradient>
<linearGradient id="paint6_linear_6499_41577" x1="-275.348" y1="143.402" x2="95.3134" y2="293.57" gradientUnits="userSpaceOnUse">
<stop stop-color="white"/>
<stop offset="1" stop-color="white" stop-opacity="0"/>
</linearGradient>
<clipPath id="clip0_6499_41577">
<rect width="709" height="92" rx="8" fill="white"/>
</clipPath>
</defs>
</svg>
