<svg fill="none" height="32" viewBox="0 0 105 32" width="105" xmlns="http://www.w3.org/2000/svg"><path d="m30.2318 10.8966c.9126-2.87021.3636-8.59622-1.4046-10.710165-.2318-.2772968-.6631-.237683-.8557.068424l-2.1782 3.453611c-.5383.69144-1.508.8499-2.2389.36733-2.3636-1.56295-5.1871-2.47047-8.221-2.47047-3.0338 0-5.85736.90752-8.22099 2.47047-.72727.48257-1.69696.32051-2.23885-.36733l-2.17825-3.453611c-.19251-.306107-.62388-.3421196-.85561-.068424-1.7682676 2.117545-2.317286 7.843555-1.404632 10.710165.303029.9543.385026 1.9627.206773 2.9422-.178253.9724-.356505 2.1464-.356505 2.9639 0 8.3945 6.737954 15.1973 15.044564 15.1973 8.3101 0 15.0445-6.8064 15.0445-15.1973 0-.8175-.1783-1.9915-.3565-2.9639-.1747-.9795-.0891-1.9879.2139-2.9422zm-14.9019 17.711c-6.42427 0-11.64707-5.2794-11.64707-11.7689 0-.2125.00713-.4214.01783-.6302.23173-4.4224 2.89126-8.20012 6.65234-10.00075 1.5081-.72746 3.1979-1.1308 4.9804-1.1308 1.7826 0 3.4688.40334 4.9804 1.1344 3.7611 1.80063 6.4207 5.58195 6.6524 10.00075.0107.2088.0178.4213.0178.6302-.0035 6.4859-5.2299 11.7653-11.6541 11.7653z" fill="#3970fd"/><path d="m20.3769 21.3693-2.9768-5.2146-2.5526-4.3467c-.0606-.1044-.1711-.1657-.2887-.1657h-2.4385c-.1212 0-.2318.0649-.2924.1729-.0606.1044-.057.2341.0036.3385l2.4421 4.1451-3.2763 5.0489c-.0678.1045-.0713.2377-.0143.3458.0571.108.1711.1764.2959.1764h2.4563c.1141 0 .2211-.0576.2817-.1548l1.7718-2.7946 1.59 2.7838c.0606.1044.1711.1692.2888.1692h2.4207c.1212 0 .2317-.0648.2887-.1692.0606-.1009.0606-.2305 0-.335z" fill="#3970fd"/><g fill="#000615"><path d="m43.2928 8.00012h3.1112v17.06318h-3.1112v-7.2704h-3.5148v7.2739h-3.1111v-17.06668h3.1111v7.40978h3.5148z"/><path d="m56.0016 25.0666-.6501-3.5441h-3.7327l-.5965 3.5441h-3.1112l3.4327-17.06318h4.1898l3.597 17.06318zm-3.9756-5.8985h2.8933l-1.486-8.1672z"/><path d="m66.0605 21.9548v-3.6513c0-.2894-.0536-.4823-.1608-.5824-.1071-.1-.3071-.15-.5965-.15h-2.1896c-1.8574 0-2.7861-.9003-2.7861-2.7046v-4.1871c0-1.78638.9716-2.67598 2.9183-2.67598h2.9754c1.9467 0 2.9183.89317 2.9183 2.67598v2.3794h-3.1362v-1.9471c0-.2894-.0536-.4824-.1607-.5824-.1072-.1-.3072-.15-.5965-.15h-1.0287c-.3072 0-.5144.05-.6216.15-.1071.1-.1607.293-.1607.5824v3.4333c0 .2894.0536.4823.1607.5824.1072.1.3144.15.6216.15h2.136c1.8931 0 2.8397.8825 2.8397 2.6509v4.4623c0 1.7864-.9823 2.676-2.9469 2.676h-2.9218c-1.9646 0-2.9469-.8932-2.9469-2.676v-2.3544h3.1076v1.9186c0 .2893.0536.4823.1608.5823.1071.1.3143.1501.6215.1501h1.0287c.2893 0 .4858-.0501.5965-.1501s.1679-.293.1679-.5823z"/><path d="m77.4943 7.99988h3.1076v14.38722c0 1.7863-.9823 2.6759-2.9469 2.6759h-3.2969c-1.9646 0-2.9468-.8931-2.9468-2.6759v-14.38722h3.1111v13.95492c0 .2894.0536.4823.1608.5823.1071.1001.3071.1501.5965.1501h1.4323c.3072 0 .5144-.05.6215-.1501.1072-.1.1608-.2929.1608-.5823z"/><path d="m86.2815 18.4143v6.6523h-3.1075v-17.06672h6.2723c1.9645 0 2.9468.89317 2.9468 2.67592v5.0589c0 1.4791-.6572 2.3437-1.9753 2.5974l2.8397 6.7345h-3.354l-2.5968-6.6523zm0-8.035v5.7342h2.2432c.2893 0 .4858-.0501.5965-.1501.1072-.1.1608-.293.1608-.5824v-4.2693c0-.2894-.0536-.4823-.1608-.5824-.1071-.1-.3072-.15-.5965-.15z"/><path d="m101.801 25.0666-.65-3.5441h-3.7324l-.5965 3.5441h-3.1076l3.4326-17.06318h4.1899l3.597 17.06318zm-3.9717-5.8985h2.8937l-1.4863-8.1672z"/></g></svg>