<?xml version="1.0" encoding="utf-8"?>
<!-- Generator: Adobe Illustrator 23.0.3, SVG Export Plug-In . SVG Version: 6.00 Build 0)  -->
<svg version="1.1" id="Layer_1" xmlns="http://www.w3.org/2000/svg" xmlns:xlink="http://www.w3.org/1999/xlink" x="0px" y="0px"
	 viewBox="0 0 35 27" style="enable-background:new 0 0 35 27;" xml:space="preserve">
<style type="text/css">
	.st0{fill-rule:evenodd;clip-rule:evenodd;fill:#FFFFFF;}
</style>
<path class="st0" d="M17,7.2l0.1,1.2l-1.3-0.1c-4.6-0.5-8.6-2.4-12-5.5L2.1,1.1L1.7,2.3C0.8,4.8,1.3,7.5,3.2,9.3c1,1,0.8,1.1-1,0.5
	C1.7,9.7,1.1,9.5,1.1,9.6C0.9,9.8,1.5,11.9,2,12.8c0.7,1.2,2,2.4,3.5,3.1l1.2,0.5l-1.5,0c-1.4,0-1.5,0-1.3,0.5
	c0.5,1.5,2.5,3.2,4.7,3.9l1.6,0.5l-1.4,0.8c-2,1.1-4.4,1.7-6.8,1.8C0.9,23.9,0,24,0,24.1c0,0.2,3.1,1.6,4.9,2.1
	c5.4,1.5,11.8,0.9,16.6-1.8c3.4-1.9,6.8-5.6,8.4-9.2c0.9-1.9,1.7-5.5,1.7-7.1c0-1.1,0.1-1.2,1.5-2.6c0.8-0.8,1.6-1.6,1.8-1.8
	c0.3-0.5,0.2-0.5-1.1,0c-2.1,0.7-2.5,0.6-1.4-0.5c0.8-0.8,1.7-2.1,1.7-2.5c0-0.1-0.4,0-0.8,0.3c-0.5,0.2-1.5,0.6-2.2,0.8l-1.4,0.4
	l-1.2-0.8c-0.7-0.4-1.6-0.9-2.1-1c-1.3-0.3-3.3-0.3-4.4,0.1C18.8,1.4,16.8,4.2,17,7.2z"/>
</svg>
