<svg width="82" height="97" viewBox="0 0 82 97" fill="none" xmlns="http://www.w3.org/2000/svg">
<path d="M79.8478 32.1466C82.5341 25.6387 82.6051 12.3087 79.0267 1.95886C78.1043 0.103807 75.3166 0.671474 75.1849 2.73941L75.1443 3.42872C74.5158 13.15 70.9375 18.5226 65.6663 21.0974C64.8046 21.5231 63.4159 21.4116 62.5948 20.8946C56.3099 16.9311 48.8694 14.6401 40.8917 14.6401C32.8936 14.6401 25.443 16.9412 19.148 20.925C18.3472 21.4319 17.3436 21.5535 16.4516 21.219C11.0587 19.2018 7.28778 13.3629 6.64916 3.43885L6.60861 2.73941C6.47683 0.671474 3.68918 0.103807 2.76672 1.95886C-0.811615 12.3289 -0.740657 25.6793 1.95576 32.177C3.30397 35.431 3.37493 39.0904 2.24973 42.4356C0.820429 46.6931 0.0804335 51.275 0.151392 56.0292C0.496047 77.5397 18.8337 95.8267 40.3443 96.1106C63.1017 96.4147 81.6421 78.0567 81.6421 55.3703C81.6421 50.8391 80.9021 46.4802 79.5336 42.4052C78.4084 39.0701 78.5098 35.4107 79.8478 32.1466ZM40.3037 86.3588C23.7299 86.0547 10.2174 72.5321 9.90311 55.9582C9.57873 38.3808 23.8921 24.0573 41.4796 24.3817C58.0535 24.6858 71.566 38.2085 71.8802 54.7823C72.2046 72.3598 57.8913 86.6832 40.3037 86.3588Z" fill="#717780"/>
<path d="M45.6867 52.0453L38.4286 40.7629C37.2629 38.9383 34.8199 38.4111 33.0054 39.587C31.87 40.3169 31.1909 41.5536 31.201 42.9728C31.201 43.7229 31.4747 44.4629 31.8802 45.0914L36.8371 52.8056C37.2021 53.3732 37.1412 54.1132 36.6851 54.6099L29.0216 63.054C27.572 64.6556 27.6835 67.1392 29.2953 68.5989C30.0353 69.2679 30.9983 69.6328 32.0018 69.6126C33.0763 69.5923 34.1103 69.126 34.8401 68.3252L40.5168 61.645C40.9527 61.128 41.7535 61.1685 42.1387 61.726L46.1631 67.5244C46.4469 67.9704 46.8017 68.386 47.2376 68.6901C48.6264 69.6734 50.3395 69.643 51.6269 68.832C52.7724 68.1123 53.4617 66.8756 53.4617 65.4666C53.4617 64.7164 53.2082 63.9764 52.8028 63.3378L45.6867 52.0453Z" fill="#717780"/>
</svg>
