<svg width="24" height="28" viewBox="0 0 24 28" fill="none" xmlns="http://www.w3.org/2000/svg">
<path d="M24 27.6L17.7 21.6L18.456 24H3C2.20435 24 1.44129 23.6839 0.87868 23.1213C0.316071 22.5587 0 21.7956 0 21V3C0 2.20435 0.316071 1.44129 0.87868 0.87868C1.44129 0.31607 2.20435 0 3 0H21C21.7957 0 22.5587 0.31607 23.1213 0.87868C23.6839 1.44129 24 2.20435 24 3V27.6ZM12 6.96C8.784 6.96 6.528 8.34 6.528 8.34C7.764 7.236 9.924 6.6 9.924 6.6L9.72 6.396C7.692 6.432 5.856 7.836 5.856 7.836C3.792 12.144 3.924 15.864 3.924 15.864C5.604 18.036 8.1 17.88 8.1 17.88L8.952 16.8C7.452 16.476 6.504 15.144 6.504 15.144C6.504 15.144 8.76 16.68 12 16.68C15.24 16.68 17.496 15.144 17.496 15.144C17.496 15.144 16.548 16.476 15.048 16.8L15.9 17.88C15.9 17.88 18.396 18.036 20.076 15.864C20.076 15.864 20.208 12.144 18.144 7.836C18.144 7.836 16.308 6.432 14.28 6.396L14.076 6.6C14.076 6.6 16.236 7.236 17.472 8.34C17.472 8.34 15.216 6.96 12 6.96ZM9.516 11.508C10.296 11.508 10.932 12.192 10.92 13.032C10.92 13.86 10.296 14.556 9.516 14.556C8.748 14.556 8.124 13.86 8.124 13.032C8.124 12.192 8.736 11.508 9.516 11.508ZM14.52 11.508C15.3 11.508 15.924 12.192 15.924 13.032C15.924 13.86 15.3 14.556 14.52 14.556C13.752 14.556 13.128 13.86 13.128 13.032C13.128 12.192 13.74 11.508 14.52 11.508Z" fill="#717780"/>
</svg>
