<svg xmlns="http://www.w3.org/2000/svg" version="1.1" 
    xmlns:xlink="http://www.w3.org/1999/xlink" 
    xmlns:svgjs="http://svgjs.com/svgjs" viewBox="5 0 30 24" height="24" width="24">
    <title>Exported from Streamline App (https://app.streamlineicons.com)</title>
    <path d="M12.249,23.739c-0.65-0.454-0.811-1.348-0.36-2l6.583-9.463c0.115-0.165,0.115-0.384,0-0.549L11.889,2.26 c-0.454-0.653-0.293-1.551,0.36-2.004c0.653-0.454,1.551-0.293,2.005,0.36c0,0,0,0,0,0l6.582,9.463 c0.799,1.154,0.799,2.683,0,3.837l-6.582,9.463C13.8,24.032,12.903,24.193,12.249,23.739 C12.249,23.739,12.249,23.739,12.249,23.739z " stroke="none" fill="#505050" stroke-width="0" stroke-linecap="round" stroke-linejoin="round"></path>
</svg>