<svg xmlns="http://www.w3.org/2000/svg" version="1.1" 
    xmlns:xlink="http://www.w3.org/1999/xlink" 
    xmlns:svgjs="http://svgjs.com/svgjs" viewBox="0 0 24 24" width="24" height="24">
    <title>Exported from Streamline App (https://app.streamlineicons.com)</title>
    <g transform="matrix(1,0,0,1,0,0)">
        <path d="M22.826,3.58c0.734-1.003,0.516-2.412-0.488-3.146C21.953,0.152,21.488,0,21.01,0H2.992c-1.243,0-2.25,1.007-2.251,2.249 c0,0.471,0.148,0.931,0.423,1.314l7.1,10.171v8.015c0,1.248,1.011,2.259,2.259,2.259c0.065,0,0.129-0.003,0.193-0.008 c0.553,0.017,1.098-0.125,1.573-0.408c2.733-1.7,2.445-1.524,2.471-1.543c0.565-0.426,0.898-1.092,0.9-1.8v-6.512L22.826,3.58z M13.389,12.62c-0.149,0.211-0.229,0.463-0.229,0.721v6.481c0,0.176-0.093,0.34-0.244,0.43c-0.328,0.194-0.923,0.547-1.405,0.827 c-0.239,0.139-0.545,0.057-0.683-0.181c-0.044-0.076-0.067-0.163-0.068-0.251v-7.306c0-0.256-0.078-0.506-0.225-0.715L4.018,3.287 C3.86,3.06,3.916,2.749,4.142,2.591c0.084-0.058,0.184-0.09,0.286-0.09h15.135c0.276,0,0.5,0.224,0.5,0.5 c0,0.103-0.032,0.204-0.091,0.288L13.389,12.62z" stroke="none" fill="#606060" stroke-width="0" stroke-linecap="round" stroke-linejoin="round"></path>
    </g>
</svg> 