<svg xmlns="http://www.w3.org/2000/svg" width="24.24" height="24.4" viewBox="0 0 24.24 24.4">
  <g id="Group_4469" data-name="Group 4469" transform="translate(-2871 -16719)">
    <g id="streamline-icon-cog_24x24_1_" data-name="streamline-icon-cog@24x24 (1)" transform="translate(2871.244 16719.246)">
      <path id="Path_3475" data-name="Path 3475" d="M10.546,2.438a1.957,1.957,0,0,0,2.908,0L14.4,1.4a1.959,1.959,0,0,1,3.41,1.413l-.071,1.4A1.958,1.958,0,0,0,19.6,6.267c.065,0,.129,0,.194,0l1.4-.071a1.959,1.959,0,0,1,1.41,3.41l-1.042.94a1.961,1.961,0,0,0-.141,2.768,1.876,1.876,0,0,0,.141.141l1.042.94a1.959,1.959,0,0,1-1.413,3.41l-1.4-.071a1.958,1.958,0,0,0-2.056,1.855q0,.1,0,.2l.071,1.4a1.959,1.959,0,0,1-3.4,1.41l-.941-1.041a1.959,1.959,0,0,0-2.767-.141c-.049.045-.1.092-.141.141L9.606,22.6A1.959,1.959,0,0,1,6.2,21.192l.072-1.4a1.958,1.958,0,0,0-1.855-2.056q-.1,0-.2,0l-1.4.071A1.958,1.958,0,0,1,1.4,14.4l1.041-.94a1.961,1.961,0,0,0,.141-2.768,1.876,1.876,0,0,0-.141-.141L1.4,9.606A1.958,1.958,0,0,1,2.809,6.2l1.4.071A1.958,1.958,0,0,0,6.267,4.419a1.8,1.8,0,0,0,0-.208L6.2,2.81A1.959,1.959,0,0,1,9.606,1.4Z" fill="none" stroke="#000" stroke-linecap="round" stroke-linejoin="round" stroke-width="1.5"/>
      <path id="Path_3476" data-name="Path 3476" d="M12,7.5A4.5,4.5,0,1,1,7.5,12,4.5,4.5,0,0,1,12,7.5Z" fill="none" stroke="#000" stroke-linecap="round" stroke-linejoin="round" stroke-width="1.5"/>
    </g>
    <rect id="Rectangle_4652" data-name="Rectangle 4652" width="24" height="24" transform="translate(2871 16719)" fill="none"/>
  </g>
</svg>
