<svg xmlns="http://www.w3.org/2000/svg" version="1.1" xmlns:xlink="http://www.w3.org/1999/xlink" xmlns:svgjs="http://svgjs.com/svgjs" viewBox="0 0 24 24" height="24" width="24"><title>Exported from Streamline App (https://app.streamlineicons.com)</title><g transform="matrix(1,0,0,1,0,0)"><path d="M 12,0.75c6.213,0,11.25,5.037,11.25,11.25S18.213,23.25,12,23.25S0.75,18.213,0.75,12S5.787,0.75,12,0.75z " stroke="#000000" fill="none" stroke-width="1.5" stroke-linecap="round" stroke-linejoin="round"></path><path d="M 3.75,12.75h3L9.01,7.1c0.155-0.384,0.591-0.569,0.975-0.414c0.198,0.08,0.353,0.241,0.425,0.443l3.292,9.325 c0.138,0.391,0.566,0.595,0.957,0.457c0.169-0.06,0.312-0.179,0.401-0.334l2.19-3.827h3" stroke="#000000" fill="none" stroke-width="1.5" stroke-linecap="round" stroke-linejoin="round"></path></g></svg>