<svg xmlns="http://www.w3.org/2000/svg" version="1.1" xmlns:xlink="http://www.w3.org/1999/xlink" xmlns:svgjs="http://svgjs.com/svgjs" viewBox="0 0 24 24" height="24" width="24"><title>Exported from Streamline App (https://app.streamlineicons.com)</title><g transform="matrix(1,0,0,1,0,0)"><path d="M 3.375,9.398C4.825,9.398,6,10.573,6,12.023s-1.175,2.625-2.625,2.625S0.75,13.473,0.75,12.023 S1.925,9.398,3.375,9.398z " stroke="#000000" fill="none" stroke-width="1.5" stroke-linecap="round" stroke-linejoin="round"></path><path d="M 20.625,9.398c1.45,0,2.625,1.175,2.625,2.625s-1.175,2.625-2.625,2.625S18,13.473,18,12.023 S19.175,9.398,20.625,9.398z " stroke="#000000" fill="none" stroke-width="1.5" stroke-linecap="round" stroke-linejoin="round"></path><path d="M 12,9.398c1.45,0,2.625,1.175,2.625,2.625S13.45,14.648,12,14.648s-2.625-1.175-2.625-2.625 S10.55,9.398,12,9.398z" stroke="#000000" fill="none" stroke-width="1.5" stroke-linecap="round" stroke-linejoin="round"></path></g></svg>