<svg xmlns="http://www.w3.org/2000/svg" version="1.1" xmlns:xlink="http://www.w3.org/1999/xlink" xmlns:svgjs="http://svgjs.com/svgjs" viewBox="0 0 24 24" height="24" width="24"><title>Exported from Streamline App (https://app.streamlineicons.com)</title><g transform="matrix(1,0,0,1,0,0)"><path d="M 8.25,9.75h7.5c0.828,0,1.5,0.672,1.5,1.5v6c0,0.828-0.672,1.5-1.5,1.5h-7.5c-0.828,0-1.5-0.672-1.5-1.5v-6 C6.75,10.422,7.422,9.75,8.25,9.75z " stroke="#000000" fill="none" stroke-width="1.5" stroke-linecap="round" stroke-linejoin="round"></path><path d="M 12,13.875c-0.207,0-0.375,0.168-0.375,0.375s0.168,0.375,0.375,0.375s0.375-0.168,0.375-0.375 c0.001-0.207-0.166-0.374-0.373-0.375C12.001,13.875,12.001,13.875,12,13.875L12,13.875 " stroke="#000000" fill="none" stroke-width="1.5" stroke-linecap="round" stroke-linejoin="round"></path><path d="M 8.25,9.75V7.5 c0-2.071,1.679-3.75,3.75-3.75s3.75,1.679,3.75,3.75v2.25 " stroke="#000000" fill="none" stroke-width="1.5" stroke-linecap="round" stroke-linejoin="round"></path><path d="M 12,0.75c6.213,0,11.25,5.037,11.25,11.25S18.213,23.25,12,23.25 S0.75,18.213,0.75,12S5.787,0.75,12,0.75z" stroke="#000000" fill="none" stroke-width="1.5" stroke-linecap="round" stroke-linejoin="round"></path></g></svg>