<svg xmlns="http://www.w3.org/2000/svg" version="1.1" 
    xmlns:xlink="http://www.w3.org/1999/xlink" 
    xmlns:svgjs="http://svgjs.com/svgjs" viewBox="0 0 20 20" height="20" width="20">
    <title>Exported from Streamline App (https://app.streamlineicons.com)</title>
    <g transform="matrix(0.8333333333333334,0,0,0.8333333333333334,0,0)">
        <path d="M20.485,3.534C15.796-1.152,8.196-1.15,3.51,3.539s-4.684,12.289,0.005,16.975c4.606,4.507,11.931,4.629,16.684,0.277 c1.003-0.938,1.839-2.041,2.471-3.26c0.604-1.173,1.01-2.438,1.2-3.744c0.086-0.584,0.129-1.173,0.13-1.763 C24.009,8.838,22.743,5.781,20.485,3.534z M5.292,5.292c3.302-3.234,8.437-3.663,12.23-1.023c0.118,0.086,0.144,0.251,0.058,0.369 c-0.008,0.011-0.017,0.021-0.027,0.031L4.667,17.561c-0.104,0.103-0.272,0.102-0.375-0.002C4.283,17.55,4.275,17.54,4.267,17.53 C1.572,13.748,2.005,8.573,5.292,5.292z M18.749,18.756c-3.283,3.275-8.449,3.707-12.231,1.023 C6.4,19.693,6.374,19.528,6.459,19.41c0.008-0.011,0.017-0.022,0.027-0.031L19.373,6.486c0.104-0.103,0.272-0.102,0.375,0.002 c0.009,0.009,0.018,0.019,0.025,0.029C22.469,10.298,22.037,15.475,18.749,18.756L18.749,18.756z" stroke="none" fill="#303030" stroke-width="0" stroke-linecap="round" stroke-linejoin="round"></path>
    </g>
</svg>