<?xml version="1.0" standalone="no"?>
<!DOCTYPE svg PUBLIC "-//W3C//DTD SVG 20010904//EN"
 "http://www.w3.org/TR/2001/REC-SVG-20010904/DTD/svg10.dtd">
<svg version="1.0" xmlns="http://www.w3.org/2000/svg"
 width="20" height="20" viewBox="0 0 140.000000 140.000000"
 preserveAspectRatio="xMidYMid meet">

<g transform="translate(0.000000,140.000000) scale(0.100000,-0.100000)"
fill="#505050" stroke="none">
<path d="M468 1180 c-9 -6 -51 -92 -93 -192 -43 -101 -84 -193 -91 -205 -14
-22 -21 -23 -134 -23 -94 0 -122 -3 -134 -16 -20 -19 -20 -48 -1 -64 22 -18
272 -10 303 10 28 17 57 74 137 263 32 75 61 137 65 137 3 0 68 -192 143 -427
147 -458 154 -473 217 -473 53 0 74 33 155 250 42 113 84 211 93 218 10 8 55
12 134 12 106 0 118 2 128 19 14 27 13 37 -6 55 -12 13 -39 16 -123 16 -60 0
-123 -3 -140 -6 -59 -12 -81 -49 -161 -263 -41 -110 -77 -201 -80 -201 -3 0
-31 82 -63 183 -178 557 -220 680 -238 698 -21 21 -82 26 -111 9z"/>
</g>
</svg>
