<svg xmlns="http://www.w3.org/2000/svg" width="51.643" height="40" viewBox="0 0 51.643 40">
    <defs>
        <style>
            .cls-1{fill:#0089d6}
        </style>
    </defs>
    <g id="Microsoft_Azure_Logo" transform="translate(626.281 -331.964)">
        <g id="layer1-1" transform="translate(-626.281 331.964)">
            <path id="path21" d="M56.126 52.467A8244.436 8244.436 0 0 0 68.3 50.311l.115-.024-6.264-7.451c-3.445-4.1-6.264-7.467-6.264-7.486 0-.037 6.468-17.848 6.5-17.912.012-.021 4.414 7.578 10.67 18.422L83.8 54.46l.082.143H44.066zm-23.892-2.273c0-.01 2.951-5.134 6.559-11.386l6.559-11.367L53 21.027c4.2-3.528 7.655-6.419 7.669-6.424a1.337 1.337 0 0 1-.123.309l-8.3 17.8L44.09 50.2l-5.928.007c-3.262.003-5.928-.007-5.928-.013z" class="cls-1" transform="translate(-32.234 -14.602)"/>
        </g>
    </g>
</svg>
