<?xml version="1.0" encoding="UTF-8" standalone="no"?>
<svg xmlns:svg="http://www.w3.org/2000/svg" xmlns="http://www.w3.org/2000/svg" version="1.1" width="590.96881" height="159.0246" id="svg3030">
  <defs id="defs3032"/>
  <g transform="translate(-115.94417,-501.42131)" id="layer1">
    <path d="m 414.48046,501.42155 c -0.40947,0.005 -0.82364,0.10273 -1.18907,0.31708 -0.72963,0.42837 -1.18908,1.21508 -1.18908,2.06106 l 0,60.64254 c 0,0.59586 -0.27746,1.12831 -0.79271,1.42714 -0.51655,0.29958 -1.14689,0.29958 -1.6647,0 l -9.90893,-5.70755 c -1.47635,-0.85131 -3.27961,-0.8508 -4.75629,0 L 355.42323,582.992 c -1.47889,0.85309 -2.37815,2.49432 -2.37815,4.20126 l 0,45.66036 c 0,1.70566 0.90053,3.2675 2.37815,4.12211 l 39.55645,22.83018 c 1.47889,0.85334 3.2774,0.85334 4.75629,0 l 39.55645,-22.83018 c 1.47762,-0.85461 2.37815,-2.41645 2.37815,-4.12211 l 0,-113.83381 c 0,-1.73162 -0.94492,-3.35667 -2.45742,-4.20139 l -23.54362,-13.15906 c -0.36972,-0.20623 -0.7796,-0.24225 -1.18907,-0.23768 z M 160.0191,558.4176 c -0.75434,0.0304 -1.46304,0.16234 -2.14033,0.55502 l -39.55646,22.83018 c -1.47394,0.85207 -2.37814,2.40402 -2.37814,4.12212 l 0.0791,61.2767 c 0,0.85233 0.43971,1.64377 1.18908,2.06131 0.73449,0.43961 1.64613,0.43961 2.37814,0 l 23.46435,-13.4764 c 1.48635,-0.88302 2.45741,-2.41898 2.45741,-4.12211 l 0,-28.61687 c 0,-1.70694 0.89794,-3.27359 2.37815,-4.12212 l 9.9882,-5.78668 c 0.74548,-0.43099 1.54581,-0.63418 2.37814,-0.63418 0.81525,0 1.65329,0.20294 2.37815,0.63418 l 9.9882,5.78668 c 1.48016,0.84853 2.37814,2.41518 2.37814,4.12212 l 0,28.61687 c 0,1.70313 0.98076,3.24899 2.45742,4.12211 l 23.46435,13.4764 c 0.73691,0.43961 1.64727,0.43961 2.37814,0 0.72836,-0.41754 1.18907,-1.20898 1.18907,-2.06131 l 0.0791,-61.2767 c 0,-1.7181 -0.89418,-3.27005 -2.37814,-4.12212 L 162.6348,558.97262 c -0.66905,-0.39268 -1.38089,-0.52408 -2.14033,-0.55502 l -0.47563,0 z m 355.45319,0.55502 c -0.8264,-10e-4 -1.63617,0.20801 -2.37815,0.63417 l -39.55645,22.83018 c -1.47762,0.85334 -2.37814,2.41518 -2.37814,4.12212 l 0,45.66035 c 0,1.71683 0.96711,3.2736 2.45741,4.12212 l 39.23937,22.35455 c 1.44908,0.82747 3.21842,0.88936 4.67701,0.0786 l 23.78144,-13.23846 c 0.75466,-0.41856 1.26517,-1.20036 1.26834,-2.06106 0.005,-0.86095 -0.44392,-1.63261 -1.18907,-2.06106 l -39.79427,-22.83018 c -0.74515,-0.42489 -1.26834,-1.28584 -1.26834,-2.14045 l 0,-14.26886 c 0,-0.85309 0.52953,-1.6349 1.26834,-2.06081 l 12.36635,-7.13468 c 0.73564,-0.42566 1.63933,-0.42566 2.37814,0 l 12.36635,7.13468 c 0.73881,0.42591 1.18907,1.20772 1.18907,2.06081 l 0,11.2568 c 0,0.85435 0.45026,1.63489 1.18907,2.0608 0.74198,0.42718 1.63934,0.42895 2.37815,0 l 23.70216,-13.79298 c 1.47128,-0.85461 2.37814,-2.42051 2.37814,-4.12211 l 0,-11.01886 c 0,-1.70187 -0.90369,-3.26751 -2.37814,-4.12212 l -39.31864,-22.83018 c -0.74041,-0.4292 -1.55174,-0.63315 -2.37814,-0.63417 z m -118.27301,34.08673 c 0.20623,0 0.44899,0.0507 0.63417,0.15727 l 13.55542,7.848 c 0.36782,0.21308 0.63417,0.60551 0.63417,1.0304 l 0,15.69575 c 0,0.42616 -0.26381,0.81884 -0.63417,1.03066 l -13.55542,7.84774 c -0.36909,0.21055 -0.81998,0.21055 -1.18907,0 l -13.55542,-7.84774 c -0.36909,-0.21308 -0.63417,-0.6045 -0.63417,-1.03066 l 0,-15.69575 c 0,-0.42489 0.26635,-0.8163 0.63417,-1.0304 l 13.55542,-7.84673 c 0.18518,-0.10654 0.34864,-0.15727 0.5549,-0.15727 z" id="path22" style="fill:#404137;fill-opacity:1;fill-rule:evenodd;stroke:none"/>
    <path d="m 633.98311,557.86282 c -1.37141,0 -2.70474,0.2836 -3.8843,0.95126 l -37.33686,21.56183 c -2.41619,1.39112 -3.8843,4.02065 -3.8843,6.81735 l 0,43.04452 c 0,2.79518 1.46811,5.42166 3.8843,6.8171 l 9.75039,5.6284 c 4.73726,2.33476 6.48441,2.29874 8.64059,2.29874 7.01394,0 11.01873,-4.2558 11.01873,-11.65278 l 0,-42.48949 c 0,-0.60069 -0.52002,-1.03066 -1.1098,-1.03066 l -4.67701,0 c -0.5993,0 -1.10981,0.42997 -1.10981,1.03066 l 0,42.48949 c 0,3.27867 -3.41501,6.57586 -8.95767,3.80503 l -10.14674,-5.94523 c -0.35831,-0.19532 -0.63418,-0.54006 -0.63418,-0.95126 l 0,-43.04452 c 0,-0.40866 0.2727,-0.82366 0.63418,-1.0304 l 37.25758,-21.48269 c 0.34879,-0.2004 0.76417,-0.2004 1.1098,0 l 37.25758,21.48269 c 0.35514,0.21308 0.63417,0.60931 0.63417,1.0304 l 0,43.04452 c 0,0.4112 -0.20623,0.83229 -0.5549,1.03041 l -37.33685,21.48269 c -0.32026,0.19025 -0.76101,0.19025 -1.1098,0 l -9.59185,-5.70755 c -0.28538,-0.16742 -0.67539,-0.15474 -0.95126,0 -2.64766,1.50096 -3.14549,1.67548 -5.62827,2.53669 -0.61197,0.21308 -1.54104,0.54463 0.31709,1.58543 l 12.52489,7.37212 c 1.19224,0.68997 2.52083,1.0304 3.8843,1.0304 1.38249,0 2.69206,-0.34043 3.8843,-1.0304 l 37.33685,-21.48269 c 2.4162,-1.40533 3.8843,-4.02192 3.8843,-6.8171 l 0,-43.04452 c 0,-2.7967 -1.4681,-5.42039 -3.8843,-6.81735 l -37.33685,-21.56183 c -1.17005,-0.66766 -2.51289,-0.95126 -3.8843,-0.95126 z M 278.847,558.73468 c -0.82427,0 -1.63996,0.20801 -2.37814,0.63417 l -39.55645,22.75104 c -1.47889,0.85232 -2.37815,2.49584 -2.37815,4.20126 l 0,45.66035 c 0,1.70745 0.90022,3.26802 2.37815,4.12212 l 39.55645,22.83018 c 1.47889,0.8541 3.2774,0.8541 4.75629,0 l 39.55645,-22.83018 c 1.47635,-0.8541 2.37815,-2.41467 2.37815,-4.12212 l 0,-45.66035 c 0,-1.70795 -0.89926,-3.34894 -2.37815,-4.20126 l -39.55645,-22.75104 c -0.73818,-0.42616 -1.55388,-0.63417 -2.37815,-0.63417 z m 410.54685,0.23845 0,1.1098 3.09159,0 0,8.16483 1.26834,0 0,-8.16483 3.17086,0 0,-1.1098 -7.53079,0 z m 8.64059,0 0,9.27463 1.18907,0 0,-5.4696 c 0,-0.22323 0.0101,-0.56847 0,-1.0304 -0.0152,-0.47056 0,-0.88074 0,-1.11006 l 0,-0.23844 2.61596,7.84774 1.26834,0 2.69523,-7.84774 c 0,0.49922 -0.0667,0.98119 -0.0791,1.42688 -0.005,0.43377 0,0.75949 0,0.95126 l 0,5.4696 1.18907,0 0,-9.27463 -1.74397,0 -2.69523,7.848 -2.61596,-7.848 -1.82324,0 z m -54.06313,29.64752 c -10.63189,0 -16.96409,4.52469 -16.96409,12.04926 0,8.16281 6.28464,10.40549 16.48846,11.41509 12.20781,1.19504 13.15906,2.98746 13.15906,5.39046 0,4.16803 -3.32306,5.94523 -11.17727,5.94523 -9.86771,0 -12.03658,-2.46337 -12.76271,-7.37211 -0.0855,-0.52637 -0.49148,-0.95126 -1.03052,-0.95126 l -4.83556,0 c -0.59612,0 -1.1098,0.51266 -1.1098,1.1098 0,6.28337 3.41818,13.71409 19.73859,13.71409 11.81462,0 18.62879,-4.63757 18.62879,-12.76283 0,-8.055 -5.50461,-10.21702 -16.96409,-11.73218 -11.57998,-1.53216 -12.68343,-2.282 -12.68343,-4.99397 0,-2.23863 0.9354,-5.23217 9.51257,-5.23217 7.66079,0 10.49237,1.65214 11.6529,6.8176 0.10147,0.48552 0.52954,0.87185 1.03053,0.87185 l 4.83556,0 c 0.29806,0 0.58661,-0.18264 0.79272,-0.39648 0.20293,-0.2283 0.34562,-0.48552 0.31708,-0.79246 -0.74832,-8.89591 -6.681,-13.07992 -18.62879,-13.07992 z m -128.57829,10.86032 c -0.15804,0 -0.33294,0 -0.47563,0.0786 l -7.61006,4.4392 c -0.28538,0.16235 -0.47563,0.46446 -0.47563,0.79271 l 0,8.71986 c 0,0.32825 0.19025,0.6291 0.47563,0.79272 l 7.61006,4.3598 c 0.28537,0.16488 0.58978,0.16488 0.87198,0 l 7.61006,-4.3598 c 0.28221,-0.16235 0.47563,-0.46447 0.47563,-0.79272 l 0,-8.71986 c 0,-0.32825 -0.19329,-0.62935 -0.47563,-0.79271 l -7.61006,-4.4392 c -0.14104,-0.0837 -0.23819,-0.0786 -0.39635,-0.0786 z" id="path28" style="fill:#83cd29;fill-opacity:1;fill-rule:evenodd;stroke:none"/>
  </g>
</svg>