<?xml version="1.0" encoding="utf-8"?>
<!-- Generator: Adobe Illustrator 24.1.0, SVG Export Plug-In . SVG Version: 6.00 Build 0)  -->
<svg version="1.1" id="Layer_1" xmlns="http://www.w3.org/2000/svg" xmlns:xlink="http://www.w3.org/1999/xlink" x="0px" y="0px"
	 viewBox="0 0 741 320" style="enable-background:new 0 0 741 320;" xml:space="preserve">
<style type="text/css">
	.st0{fill:#FEC53D;}
	.st1{enable-background:new    ;}
	.st2{fill:#001934;}
	.st3{fill:none;}
	.st4{fill:none;stroke:#909090;stroke-dasharray:4,4;}
	.st5{fill:none;stroke:#909090;}
	.st6{fill:none;stroke:#FEC53D;stroke-linecap:round;stroke-dasharray:4,4;}
	.st7{fill:#FFFFFF;}
	.st8{fill:#FF3264;}
	.st9{fill:none;stroke:#FEC53D;stroke-dasharray:4,4;}
	.st10{fill:#909090;}
</style>
<g id="streamline-icon-arrow-button-right-3_24x24" transform="translate(192 158)">
	<path id="Path_2176" class="st0" d="M6.6,3.8L3,0.1C2.9,0,2.8,0,2.7,0H0.3C0.1,0,0,0.2,0,0.3c0,0.1,0,0.2,0.1,0.2l3.4,3.4
		c0,0,0,0.1,0,0.1c0,0,0,0,0,0L0.1,7.4C0,7.6,0,7.8,0.1,7.9C0.2,8,0.2,8,0.3,8h2.4C2.8,8,2.9,8,3,7.9l3.6-3.7
		C6.7,4.1,6.7,3.9,6.6,3.8z"/>
</g>
<g id="streamline-icon-arrow-button-right-3_24x24-2" transform="translate(655.258 225.213) rotate(-90)">
	<path id="Path_2176-2" class="st0" d="M9.6,5.5L4.3,0.1C4.2,0.1,4.1,0,4,0H0.5C0.2,0,0,0.2,0,0.5c0,0.1,0.1,0.3,0.1,0.3l4.9,4.9
		c0,0,0,0.1,0,0.2l-4.9,4.9c-0.2,0.2-0.2,0.5,0,0.7c0.1,0.1,0.2,0.1,0.3,0.1H4c0.1,0,0.3-0.1,0.3-0.1l5.3-5.4C9.8,6,9.8,5.7,9.6,5.5
		C9.6,5.5,9.6,5.5,9.6,5.5z"/>
</g>
<g id="streamline-icon-arrow-button-right-3_24x24-3" transform="translate(545.229 274.473)">
	<path id="Path_2176-3" class="st0" d="M9.6,5.5L4.3,0.1C4.2,0.1,4.1,0,4,0H0.5C0.2,0,0,0.2,0,0.5c0,0.1,0.1,0.3,0.1,0.3l4.9,4.9
		c0,0,0,0.1,0,0.2l-4.9,4.9c-0.2,0.2-0.2,0.5,0,0.7c0.1,0.1,0.2,0.1,0.3,0.1H4c0.1,0,0.3-0.1,0.3-0.1l5.3-5.4C9.8,6,9.8,5.7,9.6,5.5
		C9.6,5.5,9.6,5.5,9.6,5.5z"/>
</g>
<g id="streamline-icon-arrow-button-right-3_24x24-4" transform="translate(545.229 154.473)">
	<path id="Path_2176-4" class="st0" d="M9.6,5.5L4.3,0.1C4.2,0.1,4.1,0,4,0H0.5C0.2,0,0,0.2,0,0.5c0,0.1,0.1,0.3,0.1,0.3l4.9,4.9
		c0,0,0,0.1,0,0.2l-4.9,4.9c-0.2,0.2-0.2,0.5,0,0.7c0.1,0.1,0.2,0.1,0.3,0.1H4c0.1,0,0.3-0.1,0.3-0.1l5.3-5.4C9.8,6,9.8,5.7,9.6,5.5
		C9.6,5.5,9.6,5.5,9.6,5.5z"/>
</g>
<g id="streamline-icon-arrow-button-right-3_24x24-5" transform="translate(545.229 34.473)">
	<path id="Path_2176-5" class="st0" d="M9.6,5.5L4.3,0.1C4.2,0.1,4.1,0,4,0H0.5C0.2,0,0,0.2,0,0.5c0,0.1,0.1,0.3,0.1,0.3l4.9,4.9
		c0,0,0,0.1,0,0.2l-4.9,4.9c-0.2,0.2-0.2,0.5,0,0.7c0.1,0.1,0.2,0.1,0.3,0.1H4c0.1,0,0.3-0.1,0.3-0.1l5.3-5.4C9.8,6,9.8,5.7,9.6,5.5
		C9.6,5.5,9.6,5.5,9.6,5.5z"/>
</g>
<g class="st1">
	<path class="st2" d="M423.5,120.9c0.8,0.6,1.3,1.4,1.6,2.4h-1.3c-0.3-0.7-0.7-1.2-1.2-1.6c-0.6-0.4-1.2-0.6-2.1-0.6
		c-0.6,0-1.2,0.2-1.7,0.5c-0.5,0.3-0.9,0.8-1.2,1.3c-0.3,0.6-0.4,1.3-0.4,2.1c0,0.8,0.1,1.5,0.4,2c0.3,0.6,0.7,1,1.2,1.3
		c0.5,0.3,1.1,0.5,1.7,0.5c0.8,0,1.5-0.2,2.1-0.6c0.6-0.4,1-0.9,1.2-1.6h1.3c-0.3,1-0.8,1.8-1.6,2.4s-1.8,0.9-3,0.9
		c-0.9,0-1.7-0.2-2.5-0.6c-0.7-0.4-1.3-1-1.7-1.8s-0.6-1.6-0.6-2.6c0-1,0.2-1.9,0.6-2.6s0.9-1.4,1.7-1.8c0.7-0.4,1.5-0.6,2.5-0.6
		C421.8,120,422.8,120.3,423.5,120.9z"/>
	<path class="st2" d="M432.1,130l-2.6-4h-1.4v4h-1.3v-9.9h3.2c1.1,0,2,0.3,2.5,0.8c0.6,0.5,0.8,1.2,0.8,2.1c0,0.8-0.2,1.4-0.7,1.9
		s-1.1,0.8-1.9,0.9l2.7,4.1H432.1z M428.1,125h1.9c1.4,0,2.2-0.6,2.2-1.9c0-1.3-0.7-1.9-2.2-1.9h-1.9V125z"/>
	<path class="st2" d="M436.2,120.1v5.9c0,1,0.2,1.7,0.6,2.1s1,0.7,1.8,0.7c0.7,0,1.3-0.2,1.8-0.7s0.6-1.2,0.6-2.1v-5.9h1.3v5.9
		c0,1.3-0.3,2.4-1,3c-0.7,0.7-1.6,1-2.7,1c-1.1,0-2-0.3-2.7-1s-1-1.7-1-3v-5.9H436.2z"/>
	<path class="st2" d="M452,127.7c-0.4,0.7-1,1.3-1.8,1.7c-0.8,0.4-1.7,0.6-2.8,0.6h-3.1v-9.9h3.1c1.1,0,2,0.2,2.8,0.6
		c0.8,0.4,1.4,1,1.8,1.7c0.4,0.7,0.6,1.6,0.6,2.6C452.6,126.1,452.4,126.9,452,127.7z M450.3,127.9c0.7-0.7,1-1.6,1-2.8
		s-0.3-2.1-1-2.8s-1.7-1-3-1h-1.8v7.6h1.8C448.6,128.9,449.6,128.5,450.3,127.9z"/>
	<path class="st2" d="M464.4,125.5h-3v3h-1.2v-3h-2.9v-1.2h2.9v-3h1.2v3h3V125.5z"/>
	<path class="st2" d="M471.7,122.6c0.5-0.3,1.1-0.4,1.7-0.4v1.4H473c-0.7,0-1.3,0.2-1.8,0.6c-0.5,0.4-0.7,1-0.7,1.8v4h-1.3v-7.7h1.3
		v1.6C470.8,123.3,471.2,122.9,471.7,122.6z"/>
	<path class="st2" d="M481.7,126.4h-6.1c0,0.9,0.3,1.5,0.7,2c0.5,0.4,1,0.7,1.7,0.7c0.6,0,1.1-0.2,1.5-0.5c0.4-0.3,0.7-0.7,0.8-1.3
		h1.4c-0.1,0.5-0.3,1-0.6,1.4c-0.3,0.4-0.7,0.7-1.3,1s-1.1,0.3-1.7,0.3c-0.7,0-1.4-0.2-2-0.5s-1-0.8-1.3-1.4
		c-0.3-0.6-0.5-1.3-0.5-2.1s0.2-1.5,0.5-2.1c0.3-0.6,0.8-1.1,1.3-1.4s1.2-0.5,2-0.5c0.7,0,1.4,0.2,2,0.5c0.6,0.3,1,0.7,1.3,1.3
		s0.4,1.1,0.4,1.8C481.8,126,481.7,126.2,481.7,126.4z M480.2,124.4c-0.2-0.4-0.5-0.7-0.9-0.9c-0.4-0.2-0.8-0.3-1.2-0.3
		c-0.7,0-1.3,0.2-1.8,0.7c-0.5,0.4-0.7,1.1-0.8,1.9h4.9C480.5,125.2,480.4,124.8,480.2,124.4z"/>
	<path class="st2" d="M488.5,122.8c0.5,0.4,0.9,0.9,1.1,1.5v-2h1.3v7.7h-1.3v-2c-0.2,0.6-0.6,1.1-1.1,1.5c-0.5,0.4-1.2,0.6-1.9,0.6
		c-0.7,0-1.3-0.2-1.8-0.5s-0.9-0.8-1.3-1.4s-0.5-1.3-0.5-2.1s0.2-1.5,0.5-2.1c0.3-0.6,0.7-1.1,1.3-1.4s1.1-0.5,1.8-0.5
		C487.3,122.2,487.9,122.4,488.5,122.8z M485,124.1c-0.5,0.5-0.7,1.2-0.7,2.1s0.2,1.6,0.7,2.1c0.5,0.5,1.1,0.7,1.9,0.7
		c0.5,0,1-0.1,1.4-0.3s0.7-0.6,0.9-1c0.2-0.4,0.3-0.9,0.3-1.5c0-0.6-0.1-1.1-0.3-1.5c-0.2-0.4-0.5-0.8-0.9-1s-0.8-0.3-1.4-0.3
		C486.1,123.3,485.5,123.6,485,124.1z"/>
	<path class="st2" d="M494.1,119.6V130h-1.3v-10.4H494.1z"/>
	<path class="st2" d="M499.8,128.9v1.1h-1c-0.8,0-1.4-0.2-1.8-0.6c-0.4-0.4-0.6-1-0.6-1.9v-4.1h-1.1v-1.1h1.1v-1.9h1.3v1.9h2v1.1h-2
		v4.2c0,0.5,0.1,0.8,0.3,1c0.2,0.2,0.5,0.3,0.9,0.3H499.8z"/>
	<path class="st2" d="M501.4,119.5c0.2-0.1,0.4-0.2,0.6-0.2c0.3,0,0.5,0.1,0.6,0.2c0.2,0.1,0.2,0.3,0.2,0.6c0,0.2-0.1,0.4-0.2,0.6
		c-0.2,0.1-0.4,0.2-0.6,0.2c-0.3,0-0.5-0.1-0.6-0.2c-0.2-0.1-0.2-0.3-0.2-0.6C501.2,119.8,501.2,119.6,501.4,119.5z M502.7,122.3
		v7.7h-1.3v-7.7H502.7z"/>
	<path class="st2" d="M516.3,123c0.5,0.6,0.8,1.4,0.8,2.5v4.5h-1.3v-4.4c0-0.8-0.2-1.3-0.6-1.7c-0.4-0.4-0.9-0.6-1.5-0.6
		c-0.7,0-1.2,0.2-1.6,0.7c-0.4,0.4-0.6,1.1-0.6,2v4.1h-1.3v-4.4c0-0.8-0.2-1.3-0.6-1.7c-0.4-0.4-0.9-0.6-1.5-0.6
		c-0.7,0-1.2,0.2-1.6,0.7c-0.4,0.4-0.6,1.1-0.6,2v4.1h-1.3v-7.7h1.3v1.8c0.2-0.6,0.5-1.1,1-1.4c0.5-0.3,1-0.5,1.7-0.5
		c0.7,0,1.2,0.2,1.7,0.5c0.5,0.3,0.8,0.8,1,1.5c0.2-0.6,0.6-1.1,1.1-1.4c0.5-0.3,1.1-0.5,1.7-0.5C515.1,122.2,515.8,122.5,516.3,123
		z"/>
	<path class="st2" d="M526.1,126.4H520c0,0.9,0.3,1.5,0.7,2c0.5,0.4,1,0.7,1.7,0.7c0.6,0,1.1-0.2,1.5-0.5c0.4-0.3,0.7-0.7,0.8-1.3
		h1.4c-0.1,0.5-0.3,1-0.6,1.4c-0.3,0.4-0.7,0.7-1.3,1c-0.5,0.2-1.1,0.3-1.7,0.3c-0.7,0-1.4-0.2-2-0.5s-1-0.8-1.3-1.4
		c-0.3-0.6-0.5-1.3-0.5-2.1s0.2-1.5,0.5-2.1c0.3-0.6,0.8-1.1,1.3-1.4s1.2-0.5,2-0.5c0.7,0,1.4,0.2,2,0.5s1,0.7,1.3,1.3
		s0.4,1.1,0.4,1.8C526.2,126,526.2,126.2,526.1,126.4z M524.6,124.4c-0.2-0.4-0.5-0.7-0.9-0.9c-0.4-0.2-0.8-0.3-1.2-0.3
		c-0.7,0-1.3,0.2-1.8,0.7c-0.5,0.4-0.7,1.1-0.8,1.9h4.9C524.9,125.2,524.8,124.8,524.6,124.4z"/>
</g>
<g class="st1">
	<path class="st2" d="M415.3,139.1l-2.5,9.9h-1.6l-2.3-8.1l-2.3,8.1h-1.6l-2.5-9.9h1.4l1.9,8.4l2.3-8.4h1.4l2.3,8.4l1.9-8.4H415.3z"
		/>
	<path class="st2" d="M416.8,138.5c0.2-0.1,0.4-0.2,0.6-0.2c0.3,0,0.5,0.1,0.6,0.2c0.2,0.1,0.2,0.3,0.2,0.6c0,0.2-0.1,0.4-0.2,0.6
		c-0.2,0.1-0.4,0.2-0.6,0.2c-0.3,0-0.5-0.1-0.6-0.2s-0.2-0.3-0.2-0.6C416.6,138.8,416.6,138.6,416.8,138.5z M418.1,141.3v7.7h-1.3
		v-7.7H418.1z"/>
	<path class="st2" d="M423.8,147.9v1.1h-1c-0.8,0-1.4-0.2-1.8-0.6c-0.4-0.4-0.6-1-0.6-1.9v-4.1h-1.1v-1.1h1.1v-1.9h1.3v1.9h2v1.1h-2
		v4.2c0,0.5,0.1,0.8,0.3,1c0.2,0.2,0.5,0.3,0.9,0.3H423.8z"/>
	<path class="st2" d="M431.5,142c0.6,0.6,0.8,1.4,0.8,2.5v4.5h-1.3v-4.4c0-0.8-0.2-1.4-0.6-1.8c-0.4-0.4-0.9-0.6-1.6-0.6
		c-0.7,0-1.3,0.2-1.7,0.7c-0.4,0.5-0.6,1.1-0.6,2v4.1h-1.3v-10.4h1.3v4.5c0.2-0.6,0.5-1.1,1-1.4c0.5-0.3,1.1-0.5,1.7-0.5
		C430.3,141.2,431,141.5,431.5,142z"/>
	<path class="st2" d="M442.8,141.8c0.5,0.4,0.9,0.9,1.1,1.5v-2h1.3v7.7h-1.3v-2c-0.2,0.6-0.6,1.1-1.1,1.5c-0.5,0.4-1.2,0.6-1.9,0.6
		c-0.7,0-1.3-0.2-1.8-0.5c-0.5-0.3-1-0.8-1.3-1.4c-0.3-0.6-0.5-1.3-0.5-2.1s0.2-1.5,0.5-2.1c0.3-0.6,0.7-1.1,1.3-1.4
		c0.5-0.3,1.1-0.5,1.8-0.5C441.7,141.2,442.3,141.4,442.8,141.8z M439.4,143.1c-0.5,0.5-0.7,1.2-0.7,2.1s0.2,1.6,0.7,2.1
		c0.5,0.5,1.1,0.7,1.9,0.7c0.5,0,1-0.1,1.4-0.3c0.4-0.2,0.7-0.6,0.9-1c0.2-0.4,0.3-0.9,0.3-1.5c0-0.6-0.1-1.1-0.3-1.5
		c-0.2-0.4-0.5-0.8-0.9-1c-0.4-0.2-0.8-0.3-1.4-0.3C440.5,142.3,439.9,142.6,439.4,143.1z"/>
	<path class="st2" d="M453.1,142c0.6,0.5,1,1.2,1.2,2.1h-1.3c-0.1-0.5-0.3-1-0.8-1.3c-0.4-0.3-0.9-0.5-1.5-0.5
		c-0.4,0-0.9,0.1-1.2,0.3c-0.4,0.2-0.7,0.5-0.9,0.9s-0.3,1-0.3,1.6s0.1,1.2,0.3,1.6s0.5,0.7,0.9,0.9c0.4,0.2,0.8,0.3,1.2,0.3
		c0.6,0,1.1-0.2,1.5-0.5c0.4-0.3,0.7-0.8,0.8-1.3h1.3c-0.1,0.9-0.5,1.6-1.2,2.1c-0.6,0.5-1.5,0.8-2.4,0.8c-0.7,0-1.4-0.2-2-0.5
		s-1-0.8-1.3-1.4c-0.3-0.6-0.5-1.3-0.5-2.1s0.2-1.5,0.5-2.1c0.3-0.6,0.8-1.1,1.3-1.4s1.2-0.5,2-0.5
		C451.6,141.2,452.4,141.5,453.1,142z"/>
	<path class="st2" d="M461.8,142c0.6,0.5,1,1.2,1.2,2.1h-1.3c-0.1-0.5-0.3-1-0.8-1.3c-0.4-0.3-0.9-0.5-1.5-0.5
		c-0.4,0-0.9,0.1-1.2,0.3c-0.4,0.2-0.7,0.5-0.9,0.9c-0.2,0.4-0.3,1-0.3,1.6s0.1,1.2,0.3,1.6c0.2,0.4,0.5,0.7,0.9,0.9
		c0.4,0.2,0.8,0.3,1.2,0.3c0.6,0,1.1-0.2,1.5-0.5c0.4-0.3,0.7-0.8,0.8-1.3h1.3c-0.1,0.9-0.5,1.6-1.2,2.1c-0.6,0.5-1.5,0.8-2.4,0.8
		c-0.7,0-1.4-0.2-2-0.5s-1-0.8-1.3-1.4s-0.5-1.3-0.5-2.1s0.2-1.5,0.5-2.1c0.3-0.6,0.8-1.1,1.3-1.4s1.2-0.5,2-0.5
		C460.3,141.2,461.1,141.5,461.8,142z"/>
	<path class="st2" d="M471.6,145.4h-6.1c0,0.9,0.3,1.5,0.7,2c0.5,0.4,1,0.7,1.7,0.7c0.6,0,1.1-0.2,1.5-0.5c0.4-0.3,0.7-0.7,0.8-1.3
		h1.4c-0.1,0.5-0.3,1-0.6,1.4c-0.3,0.4-0.7,0.7-1.3,1s-1.1,0.3-1.7,0.3c-0.7,0-1.4-0.2-2-0.5s-1-0.8-1.3-1.4
		c-0.3-0.6-0.5-1.3-0.5-2.1s0.2-1.5,0.5-2.1c0.3-0.6,0.8-1.1,1.3-1.4s1.2-0.5,2-0.5c0.7,0,1.4,0.2,2,0.5c0.6,0.3,1,0.7,1.3,1.3
		s0.4,1.1,0.4,1.8C471.7,145,471.7,145.2,471.6,145.4z M470.1,143.4c-0.2-0.4-0.5-0.7-0.9-0.9c-0.4-0.2-0.8-0.3-1.2-0.3
		c-0.7,0-1.3,0.2-1.8,0.7c-0.5,0.4-0.7,1.1-0.8,1.9h4.9C470.4,144.2,470.3,143.8,470.1,143.4z"/>
	<path class="st2" d="M477.8,141.9c0.5,0.5,0.8,1.1,1,1.8h-1.2c-0.1-0.5-0.2-0.8-0.6-1.1c-0.3-0.3-0.8-0.4-1.3-0.4
		c-0.5,0-0.8,0.1-1.1,0.3c-0.3,0.2-0.4,0.5-0.4,0.9c0,0.3,0.1,0.5,0.3,0.7c0.2,0.2,0.4,0.3,0.6,0.4s0.6,0.2,1.1,0.3
		c0.6,0.1,1,0.3,1.4,0.4c0.3,0.1,0.6,0.4,0.9,0.7s0.4,0.7,0.4,1.2c0,0.6-0.2,1.1-0.7,1.5c-0.5,0.4-1.1,0.6-1.9,0.6
		c-0.9,0-1.7-0.2-2.2-0.7c-0.6-0.4-0.9-1.1-1-1.8h1.2c0,0.5,0.2,0.8,0.6,1.1s0.8,0.4,1.4,0.4c0.4,0,0.8-0.1,1-0.3
		c0.2-0.2,0.4-0.5,0.4-0.9c0-0.3-0.1-0.5-0.3-0.7c-0.2-0.2-0.4-0.3-0.7-0.4c-0.3-0.1-0.6-0.2-1.1-0.3c-0.6-0.1-1-0.3-1.4-0.4
		c-0.3-0.1-0.6-0.3-0.9-0.6c-0.2-0.3-0.4-0.7-0.4-1.2c0-0.6,0.2-1.2,0.7-1.6c0.5-0.4,1.1-0.6,1.9-0.6
		C476.6,141.2,477.3,141.4,477.8,141.9z"/>
	<path class="st2" d="M485.1,141.9c0.5,0.5,0.8,1.1,1,1.8h-1.2c-0.1-0.5-0.2-0.8-0.6-1.1c-0.3-0.3-0.8-0.4-1.3-0.4
		c-0.5,0-0.8,0.1-1.1,0.3c-0.3,0.2-0.4,0.5-0.4,0.9c0,0.3,0.1,0.5,0.3,0.7c0.2,0.2,0.4,0.3,0.6,0.4s0.6,0.2,1.1,0.3
		c0.6,0.1,1,0.3,1.4,0.4c0.3,0.1,0.6,0.4,0.9,0.7s0.4,0.7,0.4,1.2c0,0.6-0.2,1.1-0.7,1.5c-0.5,0.4-1.1,0.6-1.9,0.6
		c-0.9,0-1.7-0.2-2.2-0.7c-0.6-0.4-0.9-1.1-1-1.8h1.2c0,0.5,0.2,0.8,0.6,1.1s0.8,0.4,1.4,0.4c0.4,0,0.8-0.1,1-0.3
		c0.2-0.2,0.4-0.5,0.4-0.9c0-0.3-0.1-0.5-0.3-0.7c-0.2-0.2-0.4-0.3-0.7-0.4c-0.3-0.1-0.6-0.2-1.1-0.3c-0.6-0.1-1-0.3-1.4-0.4
		c-0.3-0.1-0.6-0.3-0.9-0.6c-0.2-0.3-0.4-0.7-0.4-1.2c0-0.6,0.2-1.2,0.7-1.6c0.5-0.4,1.1-0.6,1.9-0.6
		C483.9,141.2,484.6,141.4,485.1,141.9z"/>
	<path class="st2" d="M497.1,142c0.6,0.5,1,1.2,1.2,2.1H497c-0.1-0.5-0.3-1-0.8-1.3c-0.4-0.3-0.9-0.5-1.5-0.5
		c-0.4,0-0.9,0.1-1.2,0.3c-0.4,0.2-0.7,0.5-0.9,0.9s-0.3,1-0.3,1.6s0.1,1.2,0.3,1.6s0.5,0.7,0.9,0.9c0.4,0.2,0.8,0.3,1.2,0.3
		c0.6,0,1.1-0.2,1.5-0.5c0.4-0.3,0.7-0.8,0.8-1.3h1.3c-0.1,0.9-0.5,1.6-1.2,2.1c-0.6,0.5-1.5,0.8-2.4,0.8c-0.7,0-1.4-0.2-2-0.5
		s-1-0.8-1.3-1.4c-0.3-0.6-0.5-1.3-0.5-2.1s0.2-1.5,0.5-2.1c0.3-0.6,0.8-1.1,1.3-1.4s1.2-0.5,2-0.5
		C495.7,141.2,496.5,141.5,497.1,142z"/>
	<path class="st2" d="M505.4,141.7c0.6,0.3,1,0.8,1.4,1.4c0.3,0.6,0.5,1.3,0.5,2.1s-0.2,1.5-0.5,2.1c-0.3,0.6-0.8,1-1.4,1.4
		c-0.6,0.3-1.2,0.5-2,0.5s-1.4-0.2-2-0.5c-0.6-0.3-1-0.8-1.4-1.4s-0.5-1.3-0.5-2.1s0.2-1.5,0.5-2.1c0.3-0.6,0.8-1.1,1.4-1.4
		c0.6-0.3,1.2-0.5,2-0.5S504.9,141.4,505.4,141.7z M502.2,142.6c-0.4,0.2-0.7,0.5-0.9,0.9s-0.4,1-0.4,1.6c0,0.6,0.1,1.1,0.4,1.6
		c0.2,0.4,0.6,0.7,0.9,0.9c0.4,0.2,0.8,0.3,1.3,0.3s0.9-0.1,1.3-0.3c0.4-0.2,0.7-0.5,0.9-0.9c0.2-0.4,0.4-0.9,0.4-1.6
		c0-0.6-0.1-1.2-0.4-1.6s-0.6-0.7-0.9-0.9c-0.4-0.2-0.8-0.3-1.3-0.3S502.6,142.4,502.2,142.6z"/>
	<path class="st2" d="M515.2,142c0.6,0.6,0.8,1.4,0.8,2.5v4.5h-1.3v-4.4c0-0.8-0.2-1.4-0.6-1.8c-0.4-0.4-0.9-0.6-1.6-0.6
		c-0.7,0-1.3,0.2-1.7,0.7c-0.4,0.5-0.6,1.1-0.6,2v4.1H509v-7.7h1.3v1.8c0.2-0.6,0.5-1.1,1-1.4c0.5-0.3,1.1-0.5,1.7-0.5
		C513.9,141.2,514.6,141.5,515.2,142z"/>
	<path class="st2" d="M521.6,147.9v1.1h-1c-0.8,0-1.4-0.2-1.8-0.6c-0.4-0.4-0.6-1-0.6-1.9v-4.1h-1.1v-1.1h1.1v-1.9h1.3v1.9h2v1.1h-2
		v4.2c0,0.5,0.1,0.8,0.3,1c0.2,0.2,0.5,0.3,0.9,0.3H521.6z"/>
	<path class="st2" d="M525.6,141.6c0.5-0.3,1.1-0.4,1.7-0.4v1.4h-0.4c-0.7,0-1.3,0.2-1.8,0.6c-0.5,0.4-0.7,1-0.7,1.8v4h-1.3v-7.7
		h1.3v1.6C524.7,142.3,525.1,141.9,525.6,141.6z"/>
	<path class="st2" d="M534,141.7c0.6,0.3,1,0.8,1.4,1.4c0.3,0.6,0.5,1.3,0.5,2.1s-0.2,1.5-0.5,2.1c-0.3,0.6-0.8,1-1.4,1.4
		c-0.6,0.3-1.2,0.5-2,0.5s-1.4-0.2-2-0.5c-0.6-0.3-1-0.8-1.4-1.4c-0.3-0.6-0.5-1.3-0.5-2.1s0.2-1.5,0.5-2.1c0.3-0.6,0.8-1.1,1.4-1.4
		c0.6-0.3,1.2-0.5,2-0.5S533.5,141.4,534,141.7z M530.8,142.6c-0.4,0.2-0.7,0.5-0.9,0.9c-0.2,0.4-0.4,1-0.4,1.6
		c0,0.6,0.1,1.1,0.4,1.6c0.2,0.4,0.6,0.7,0.9,0.9c0.4,0.2,0.8,0.3,1.3,0.3s0.9-0.1,1.3-0.3c0.4-0.2,0.7-0.5,0.9-0.9
		c0.2-0.4,0.4-0.9,0.4-1.6c0-0.6-0.1-1.2-0.4-1.6s-0.6-0.7-0.9-0.9c-0.4-0.2-0.8-0.3-1.3-0.3S531.2,142.4,530.8,142.6z"/>
	<path class="st2" d="M538.8,138.6V149h-1.3v-10.4H538.8z"/>
</g>
<g class="st1">
	<path class="st2" d="M114.4,194.9c0.8,0.6,1.3,1.3,1.6,2.3h-1.3c-0.2-0.6-0.6-1.1-1.2-1.4c-0.5-0.4-1.2-0.5-1.9-0.5
		c-0.7,0-1.3,0.2-1.8,0.5c-0.5,0.3-0.9,0.8-1.3,1.3c-0.3,0.6-0.5,1.3-0.5,2c0,0.8,0.2,1.5,0.5,2.1c0.3,0.6,0.7,1,1.3,1.3
		s1.2,0.5,1.9,0.5c0.6,0,1.2-0.1,1.7-0.4c0.5-0.3,0.9-0.6,1.2-1.1c0.3-0.5,0.5-1.1,0.6-1.8h-3.9v-1h5v1.2c-0.1,0.8-0.3,1.5-0.7,2.1
		s-0.9,1.1-1.6,1.5s-1.5,0.6-2.3,0.6c-1,0-1.8-0.2-2.5-0.6s-1.3-1-1.7-1.8c-0.4-0.8-0.6-1.6-0.6-2.6c0-1,0.2-1.9,0.6-2.6
		c0.4-0.8,1-1.4,1.7-1.8c0.7-0.4,1.6-0.6,2.5-0.6C112.6,194,113.6,194.3,114.4,194.9z"/>
	<path class="st2" d="M123.1,204l-2.6-4h-1.4v4h-1.3v-9.9h3.2c1.1,0,2,0.3,2.5,0.8c0.6,0.5,0.8,1.2,0.8,2.1c0,0.8-0.2,1.4-0.7,1.9
		c-0.4,0.5-1.1,0.8-1.9,0.9l2.7,4.1H123.1z M119.2,199h1.9c1.4,0,2.2-0.6,2.2-1.9c0-1.3-0.7-1.9-2.2-1.9h-1.9V199z"/>
	<path class="st2" d="M131.9,201.7h-4.3l-0.8,2.3h-1.4l3.7-9.7h1.4l3.6,9.7h-1.4L131.9,201.7z M131.5,200.7l-1.8-5l-1.8,5H131.5z"/>
	<path class="st2" d="M136.6,200v4h-1.3v-9.9h3.1c1.1,0,2,0.3,2.5,0.8s0.8,1.2,0.8,2.2c0,0.9-0.3,1.6-0.9,2.2
		c-0.6,0.5-1.4,0.8-2.5,0.8H136.6z M140,198.5c0.3-0.3,0.5-0.8,0.5-1.4c0-0.6-0.2-1.1-0.5-1.4c-0.3-0.3-0.9-0.5-1.7-0.5h-1.8v3.8
		h1.8C139.1,199,139.7,198.8,140,198.5z"/>
	<path class="st2" d="M150.9,194.1v9.9h-1.3v-4.6h-5v4.6h-1.3v-9.9h1.3v4.3h5v-4.3H150.9z"/>
	<path class="st2" d="M160.9,205.9l-2-2c-0.5,0.1-0.9,0.2-1.4,0.2c-0.9,0-1.7-0.2-2.5-0.6c-0.7-0.4-1.3-1-1.7-1.8
		c-0.4-0.8-0.6-1.6-0.6-2.6c0-1,0.2-1.8,0.6-2.6c0.4-0.8,1-1.4,1.7-1.8c0.7-0.4,1.6-0.6,2.5-0.6s1.7,0.2,2.5,0.6
		c0.7,0.4,1.3,1,1.7,1.8c0.4,0.8,0.6,1.6,0.6,2.6c0,1-0.2,1.9-0.6,2.6c-0.4,0.8-1,1.4-1.7,1.8l2.6,2.5H160.9z M154.4,201.1
		c0.3,0.6,0.7,1,1.3,1.4s1.1,0.5,1.8,0.5c0.7,0,1.3-0.2,1.8-0.5s1-0.8,1.3-1.4c0.3-0.6,0.5-1.3,0.5-2c0-0.8-0.2-1.5-0.5-2.1
		c-0.3-0.6-0.7-1-1.3-1.3s-1.1-0.5-1.8-0.5c-0.7,0-1.3,0.2-1.8,0.5s-1,0.8-1.3,1.3c-0.3,0.6-0.5,1.3-0.5,2.1
		C153.9,199.8,154.1,200.5,154.4,201.1z"/>
	<path class="st2" d="M165.3,203h3.5v1H164v-9.9h1.3V203z"/>
</g>
<g class="st1">
	<path class="st2" d="M18.8,164.7h-4.3l-0.8,2.3h-1.4l3.7-9.7h1.4L21,167h-1.4L18.8,164.7z M18.4,163.7l-1.8-5l-1.8,5H18.4z"/>
	<path class="st2" d="M23.6,163v4h-1.3v-9.9h3.1c1.1,0,2,0.3,2.5,0.8s0.8,1.2,0.8,2.2c0,0.9-0.3,1.6-0.9,2.2
		c-0.6,0.5-1.4,0.8-2.5,0.8H23.6z M27,161.5c0.3-0.3,0.5-0.8,0.5-1.4c0-0.6-0.2-1.1-0.5-1.4c-0.3-0.3-0.9-0.5-1.7-0.5h-1.8v3.8h1.8
		C26.1,162,26.6,161.8,27,161.5z"/>
	<path class="st2" d="M31.6,163v4h-1.3v-9.9h3.1c1.1,0,2,0.3,2.5,0.8s0.8,1.2,0.8,2.2c0,0.9-0.3,1.6-0.9,2.2
		c-0.6,0.5-1.4,0.8-2.5,0.8H31.6z M35,161.5c0.3-0.3,0.5-0.8,0.5-1.4c0-0.6-0.2-1.1-0.5-1.4c-0.3-0.3-0.9-0.5-1.7-0.5h-1.8v3.8h1.8
		C34.1,162,34.6,161.8,35,161.5z"/>
</g>
<g id="Rectangle_10446" transform="translate(223 95)">
	<path class="st3" d="M16,0h140c8.8,0,16,7.2,16,16v98c0,8.8-7.2,16-16,16H16c-8.8,0-16-7.2-16-16V16C0,7.2,7.2,0,16,0z"/>
	<path class="st4" d="M16,0.5h140c8.6,0,15.5,6.9,15.5,15.5v98c0,8.6-6.9,15.5-15.5,15.5H16c-8.6,0-15.5-6.9-15.5-15.5V16
		C0.5,7.4,7.4,0.5,16,0.5z"/>
</g>
<g id="Rectangle_10447" transform="translate(0 117)">
	<path class="st3" d="M8,0h37c4.4,0,8,3.6,8,8v74c0,4.4-3.6,8-8,8H8c-4.4,0-8-3.6-8-8V8C0,3.6,3.6,0,8,0z"/>
	<path class="st5" d="M8,0.5h37c4.1,0,7.5,3.4,7.5,7.5v74c0,4.1-3.4,7.5-7.5,7.5H8c-4.1,0-7.5-3.4-7.5-7.5V8C0.5,3.9,3.9,0.5,8,0.5z
		"/>
</g>
<path id="Rectangle_10430" class="st0" d="M586,120h150c2.8,0,5,2.2,5,5v70c0,2.8-2.2,5-5,5H586c-2.8,0-5-2.2-5-5v-70
	C581,122.2,583.2,120,586,120z"/>
<path id="Rectangle_10431" class="st0" d="M586,0h150c2.8,0,5,2.2,5,5v70c0,2.8-2.2,5-5,5H586c-2.8,0-5-2.2-5-5V5
	C581,2.2,583.2,0,586,0z"/>
<path id="Rectangle_10432" class="st0" d="M586,240h150c2.8,0,5,2.2,5,5v70c0,2.8-2.2,5-5,5H586c-2.8,0-5-2.2-5-5v-70
	C581,242.2,583.2,240,586,240z"/>
<g class="st1">
	<path class="st2" d="M641.4,16.9c0.8,0.6,1.3,1.5,1.6,2.5h-1.7c-0.2-0.6-0.6-1.1-1.1-1.4c-0.5-0.4-1.1-0.5-1.9-0.5
		c-0.6,0-1.1,0.1-1.6,0.4c-0.5,0.3-0.8,0.7-1.1,1.2c-0.3,0.5-0.4,1.2-0.4,1.9c0,0.7,0.1,1.3,0.4,1.9c0.3,0.5,0.6,1,1.1,1.2
		s1,0.4,1.6,0.4c0.7,0,1.4-0.2,1.9-0.5c0.5-0.4,0.9-0.8,1.1-1.4h1.7c-0.3,1.1-0.8,1.9-1.6,2.5s-1.8,0.9-3,0.9
		c-0.9,0-1.8-0.2-2.5-0.6s-1.3-1-1.7-1.8s-0.6-1.6-0.6-2.6c0-1,0.2-1.8,0.6-2.6s0.9-1.4,1.7-1.8s1.5-0.6,2.5-0.6
		C639.6,16,640.6,16.3,641.4,16.9z"/>
	<path class="st2" d="M651.8,18.3V26h-1.6v-1.7c-0.2,0.6-0.5,1-1,1.3c-0.5,0.3-1.1,0.5-1.7,0.5c-0.9,0-1.6-0.3-2.2-0.9
		c-0.5-0.6-0.8-1.4-0.8-2.5v-4.5h1.6v4.3c0,0.7,0.2,1.2,0.5,1.6s0.8,0.6,1.5,0.6c0.6,0,1.1-0.2,1.5-0.6c0.4-0.4,0.6-1,0.6-1.8v-4.1
		H651.8z"/>
	<path class="st2" d="M658.4,18.9c0.5,0.5,0.9,1.1,1,1.9h-1.5c-0.1-0.4-0.2-0.8-0.5-1c-0.3-0.3-0.7-0.4-1.2-0.4
		c-0.4,0-0.7,0.1-0.9,0.3s-0.3,0.5-0.3,0.8c0,0.2,0.1,0.4,0.2,0.6s0.4,0.3,0.6,0.3c0.2,0.1,0.6,0.2,1,0.3c0.6,0.1,1,0.3,1.4,0.4
		c0.4,0.1,0.7,0.4,0.9,0.7c0.3,0.3,0.4,0.7,0.4,1.2c0,0.6-0.2,1.2-0.7,1.6c-0.5,0.4-1.2,0.6-2,0.6c-1,0-1.7-0.2-2.3-0.7
		c-0.6-0.4-1-1.1-1.1-1.9h1.6c0,0.4,0.2,0.8,0.6,1c0.3,0.3,0.8,0.4,1.3,0.4c0.4,0,0.7-0.1,0.9-0.3c0.2-0.2,0.3-0.5,0.3-0.8
		c0-0.3-0.1-0.5-0.3-0.6c-0.2-0.2-0.4-0.3-0.6-0.4c-0.3-0.1-0.6-0.2-1-0.3c-0.6-0.1-1-0.3-1.4-0.4c-0.3-0.1-0.6-0.3-0.9-0.6
		s-0.4-0.7-0.4-1.2c0-0.7,0.2-1.2,0.7-1.6s1.2-0.6,2-0.6C657.1,18.2,657.8,18.4,658.4,18.9z"/>
	<path class="st2" d="M664.9,24.6V26h-1c-0.8,0-1.4-0.2-1.9-0.6c-0.4-0.4-0.6-1.1-0.6-2v-3.8h-1.1v-1.4h1.1v-1.9h1.6v1.9h1.9v1.4
		h-1.9v3.8c0,0.4,0.1,0.7,0.2,0.9s0.5,0.3,0.9,0.3H664.9z"/>
	<path class="st2" d="M672,18.7c0.6,0.3,1.1,0.8,1.4,1.4s0.5,1.3,0.5,2.1c0,0.8-0.2,1.5-0.5,2.1s-0.8,1.1-1.4,1.4s-1.3,0.5-2,0.5
		c-0.7,0-1.4-0.2-2-0.5c-0.6-0.3-1.1-0.8-1.4-1.4c-0.3-0.6-0.5-1.3-0.5-2.1s0.2-1.5,0.5-2.1s0.8-1.1,1.4-1.4c0.6-0.3,1.3-0.5,2-0.5
		C670.7,18.2,671.4,18.3,672,18.7z M668.8,19.9c-0.3,0.2-0.6,0.5-0.8,0.9c-0.2,0.4-0.3,0.9-0.3,1.4c0,0.6,0.1,1,0.3,1.4
		c0.2,0.4,0.5,0.7,0.8,0.9c0.3,0.2,0.7,0.3,1.1,0.3c0.4,0,0.8-0.1,1.1-0.3s0.6-0.5,0.8-0.9s0.3-0.9,0.3-1.4c0-0.6-0.1-1-0.3-1.4
		c-0.2-0.4-0.5-0.7-0.8-0.9c-0.3-0.2-0.7-0.3-1.1-0.3C669.6,19.6,669.2,19.7,668.8,19.9z"/>
	<path class="st2" d="M687.3,19c0.5,0.6,0.8,1.4,0.8,2.5V26h-1.6v-4.3c0-0.7-0.2-1.2-0.5-1.6c-0.3-0.4-0.8-0.6-1.4-0.6
		c-0.6,0-1.1,0.2-1.5,0.6s-0.6,1-0.6,1.7V26H681v-4.3c0-0.7-0.2-1.2-0.5-1.6c-0.3-0.4-0.8-0.6-1.4-0.6c-0.6,0-1.1,0.2-1.5,0.6
		c-0.4,0.4-0.6,1-0.6,1.7V26h-1.6v-7.7h1.6v1.6c0.2-0.6,0.5-1,1-1.3s1-0.4,1.6-0.4c0.6,0,1.2,0.2,1.7,0.5c0.5,0.3,0.8,0.8,1,1.4
		c0.2-0.6,0.6-1,1.1-1.4c0.5-0.3,1.1-0.5,1.7-0.5C686,18.2,686.7,18.4,687.3,19z"/>
</g>
<g class="st1">
	<path class="st2" d="M618.5,37.7c0.5,0.3,0.9,0.8,1.2,1.4c0.3,0.6,0.4,1.3,0.4,2.1c0,0.8-0.1,1.5-0.4,2.1c-0.3,0.6-0.7,1.1-1.2,1.4
		s-1.1,0.5-1.8,0.5c-0.7,0-1.3-0.2-1.8-0.5c-0.5-0.3-0.8-0.8-1-1.4V45h-1.6V34.6h1.6v4.4c0.2-0.6,0.5-1,1-1.4
		c0.5-0.3,1.1-0.5,1.8-0.5C617.3,37.2,617.9,37.3,618.5,37.7z M615,38.9c-0.4,0.2-0.6,0.5-0.8,0.9c-0.2,0.4-0.3,0.8-0.3,1.3
		c0,0.5,0.1,1,0.3,1.3c0.2,0.4,0.5,0.7,0.8,0.9s0.8,0.3,1.2,0.3c0.7,0,1.3-0.2,1.7-0.7c0.4-0.5,0.6-1.1,0.6-1.9
		c0-0.8-0.2-1.4-0.6-1.9c-0.4-0.5-1-0.7-1.7-0.7C615.7,38.6,615.3,38.7,615,38.9z"/>
	<path class="st2" d="M628.8,37.3V45h-1.6v-1.7c-0.2,0.6-0.5,1-1,1.3c-0.5,0.3-1,0.5-1.7,0.5c-0.9,0-1.6-0.3-2.2-0.9
		s-0.8-1.4-0.8-2.5v-4.5h1.6v4.3c0,0.7,0.2,1.2,0.5,1.6c0.4,0.4,0.8,0.6,1.5,0.6c0.6,0,1.1-0.2,1.5-0.6c0.4-0.4,0.6-1,0.6-1.8v-4.1
		H628.8z"/>
	<path class="st2" d="M635.4,37.9c0.5,0.5,0.9,1.1,1,1.9h-1.5c-0.1-0.4-0.2-0.8-0.5-1c-0.3-0.3-0.7-0.4-1.2-0.4
		c-0.4,0-0.7,0.1-0.9,0.3c-0.2,0.2-0.3,0.5-0.3,0.8c0,0.2,0.1,0.4,0.2,0.6c0.2,0.1,0.4,0.3,0.6,0.3s0.6,0.2,1,0.3
		c0.6,0.1,1,0.3,1.4,0.4c0.4,0.1,0.7,0.4,0.9,0.7c0.3,0.3,0.4,0.7,0.4,1.2c0,0.6-0.2,1.2-0.7,1.6s-1.2,0.6-2,0.6
		c-1,0-1.7-0.2-2.3-0.7s-0.9-1.1-1.1-1.9h1.6c0,0.4,0.2,0.8,0.6,1c0.3,0.3,0.8,0.4,1.3,0.4c0.4,0,0.7-0.1,0.9-0.3
		c0.2-0.2,0.3-0.5,0.3-0.8c0-0.3-0.1-0.5-0.3-0.6c-0.2-0.2-0.4-0.3-0.6-0.4c-0.3-0.1-0.6-0.2-1-0.3c-0.6-0.1-1-0.3-1.4-0.4
		c-0.3-0.1-0.6-0.3-0.9-0.6c-0.2-0.3-0.4-0.7-0.4-1.2c0-0.7,0.2-1.2,0.7-1.6c0.5-0.4,1.2-0.6,2-0.6
		C634.1,37.2,634.9,37.4,635.4,37.9z"/>
	<path class="st2" d="M638.2,34.4c0.2-0.2,0.4-0.3,0.7-0.3s0.6,0.1,0.7,0.3c0.2,0.2,0.3,0.4,0.3,0.7s-0.1,0.5-0.3,0.7
		s-0.4,0.3-0.7,0.3s-0.6-0.1-0.7-0.3s-0.3-0.4-0.3-0.7S638,34.6,638.2,34.4z M639.7,37.3V45h-1.6v-7.7H639.7z"/>
	<path class="st2" d="M648.1,38c0.5,0.6,0.8,1.4,0.8,2.5V45h-1.6v-4.3c0-0.7-0.2-1.2-0.5-1.6s-0.8-0.6-1.5-0.6
		c-0.6,0-1.1,0.2-1.5,0.6c-0.4,0.4-0.6,1-0.6,1.8V45h-1.6v-7.7h1.6V39c0.2-0.6,0.6-1,1-1.3c0.5-0.3,1-0.5,1.7-0.5
		C646.8,37.2,647.6,37.4,648.1,38z"/>
	<path class="st2" d="M657.9,41.5h-5.9c0,0.8,0.2,1.4,0.7,1.8c0.4,0.4,0.9,0.6,1.5,0.6c0.5,0,1-0.1,1.4-0.4c0.4-0.3,0.6-0.6,0.7-1.1
		h1.7c-0.1,0.5-0.3,1-0.6,1.4c-0.3,0.4-0.8,0.7-1.3,1c-0.5,0.2-1.1,0.4-1.8,0.4c-0.7,0-1.4-0.2-2-0.5c-0.6-0.3-1-0.8-1.4-1.4
		c-0.3-0.6-0.5-1.3-0.5-2.1c0-0.8,0.2-1.5,0.5-2.1c0.3-0.6,0.8-1.1,1.4-1.4c0.6-0.3,1.2-0.5,2-0.5c0.8,0,1.4,0.2,2,0.5
		c0.6,0.3,1,0.7,1.3,1.3s0.5,1.2,0.5,1.8C657.9,41,657.9,41.3,657.9,41.5z M656.1,39.5c-0.2-0.3-0.5-0.6-0.8-0.8s-0.7-0.2-1.1-0.2
		c-0.6,0-1.1,0.2-1.6,0.6s-0.6,0.9-0.7,1.7h4.4C656.3,40.2,656.3,39.8,656.1,39.5z"/>
	<path class="st2" d="M664.2,37.9c0.5,0.5,0.9,1.1,1,1.9h-1.5c-0.1-0.4-0.2-0.8-0.5-1c-0.3-0.3-0.7-0.4-1.2-0.4
		c-0.4,0-0.7,0.1-0.9,0.3c-0.2,0.2-0.3,0.5-0.3,0.8c0,0.2,0.1,0.4,0.2,0.6c0.2,0.1,0.4,0.3,0.6,0.3c0.2,0.1,0.6,0.2,1,0.3
		c0.6,0.1,1,0.3,1.4,0.4c0.4,0.1,0.7,0.4,0.9,0.7c0.3,0.3,0.4,0.7,0.4,1.2c0,0.6-0.2,1.2-0.7,1.6c-0.5,0.4-1.2,0.6-2,0.6
		c-1,0-1.7-0.2-2.3-0.7s-1-1.1-1.1-1.9h1.6c0,0.4,0.2,0.8,0.6,1c0.3,0.3,0.8,0.4,1.3,0.4c0.4,0,0.7-0.1,0.9-0.3
		c0.2-0.2,0.3-0.5,0.3-0.8c0-0.3-0.1-0.5-0.3-0.6c-0.2-0.2-0.4-0.3-0.6-0.4c-0.3-0.1-0.6-0.2-1-0.3c-0.6-0.1-1-0.3-1.4-0.4
		c-0.4-0.1-0.6-0.3-0.9-0.6s-0.4-0.7-0.4-1.2c0-0.7,0.2-1.2,0.7-1.6s1.2-0.6,2-0.6C662.9,37.2,663.6,37.4,664.2,37.9z"/>
	<path class="st2" d="M671.6,37.9c0.5,0.5,0.9,1.1,1,1.9h-1.5c-0.1-0.4-0.2-0.8-0.5-1c-0.3-0.3-0.7-0.4-1.2-0.4
		c-0.4,0-0.7,0.1-0.9,0.3c-0.2,0.2-0.3,0.5-0.3,0.8c0,0.2,0.1,0.4,0.2,0.6c0.2,0.1,0.4,0.3,0.6,0.3s0.6,0.2,1,0.3
		c0.6,0.1,1,0.3,1.4,0.4c0.4,0.1,0.7,0.4,0.9,0.7c0.3,0.3,0.4,0.7,0.4,1.2c0,0.6-0.2,1.2-0.7,1.6s-1.2,0.6-2,0.6
		c-1,0-1.7-0.2-2.3-0.7s-0.9-1.1-1.1-1.9h1.6c0,0.4,0.2,0.8,0.6,1c0.3,0.3,0.8,0.4,1.3,0.4c0.4,0,0.7-0.1,0.9-0.3
		c0.2-0.2,0.3-0.5,0.3-0.8c0-0.3-0.1-0.5-0.3-0.6c-0.2-0.2-0.4-0.3-0.6-0.4c-0.3-0.1-0.6-0.2-1-0.3c-0.6-0.1-1-0.3-1.4-0.4
		c-0.3-0.1-0.6-0.3-0.9-0.6c-0.2-0.3-0.4-0.7-0.4-1.2c0-0.7,0.2-1.2,0.7-1.6c0.5-0.4,1.2-0.6,2-0.6C670.3,37.2,671,37.4,671.6,37.9z
		"/>
	<path class="st2" d="M679.1,34.6V45h-1.6V34.6H679.1z"/>
	<path class="st2" d="M686.6,37.7c0.6,0.3,1.1,0.8,1.4,1.4s0.5,1.3,0.5,2.1c0,0.8-0.2,1.5-0.5,2.1s-0.8,1.1-1.4,1.4s-1.3,0.5-2,0.5
		c-0.7,0-1.4-0.2-2-0.5s-1.1-0.8-1.4-1.4c-0.3-0.6-0.5-1.3-0.5-2.1s0.2-1.5,0.5-2.1s0.8-1.1,1.4-1.4s1.3-0.5,2-0.5
		C685.3,37.2,686,37.3,686.6,37.7z M683.5,38.9c-0.3,0.2-0.6,0.5-0.8,0.9c-0.2,0.4-0.3,0.9-0.3,1.4c0,0.6,0.1,1,0.3,1.4
		s0.5,0.7,0.8,0.9c0.3,0.2,0.7,0.3,1.1,0.3c0.4,0,0.8-0.1,1.1-0.3c0.3-0.2,0.6-0.5,0.8-0.9s0.3-0.9,0.3-1.4c0-0.6-0.1-1-0.3-1.4
		c-0.2-0.4-0.5-0.7-0.8-0.9c-0.3-0.2-0.7-0.3-1.1-0.3C684.2,38.6,683.8,38.7,683.5,38.9z"/>
	<path class="st2" d="M694.9,37.7c0.5,0.3,0.8,0.8,1,1.4v-1.8h1.6v7.8c0,0.7-0.1,1.4-0.4,1.9c-0.3,0.6-0.7,1-1.3,1.3s-1.2,0.5-2,0.5
		c-1.1,0-2-0.3-2.6-0.8c-0.7-0.5-1.1-1.2-1.3-2.1h1.6c0.1,0.5,0.4,0.8,0.8,1.1s0.8,0.4,1.4,0.4c0.6,0,1.2-0.2,1.6-0.6s0.6-1,0.6-1.7
		v-1.9c-0.2,0.6-0.6,1-1,1.4c-0.5,0.3-1.1,0.5-1.8,0.5c-0.7,0-1.3-0.2-1.8-0.5c-0.5-0.3-0.9-0.8-1.2-1.4s-0.4-1.3-0.4-2.1
		c0-0.8,0.1-1.5,0.4-2.1s0.7-1.1,1.2-1.4c0.5-0.3,1.1-0.5,1.8-0.5C693.8,37.2,694.4,37.4,694.9,37.7z M691.9,39.3
		c-0.4,0.5-0.6,1.1-0.6,1.9c0,0.8,0.2,1.4,0.6,1.9c0.4,0.5,1,0.7,1.7,0.7c0.4,0,0.8-0.1,1.2-0.3s0.6-0.5,0.8-0.9
		c0.2-0.4,0.3-0.8,0.3-1.3c0-0.5-0.1-0.9-0.3-1.3c-0.2-0.4-0.5-0.7-0.8-0.9s-0.8-0.3-1.2-0.3C692.9,38.6,692.4,38.8,691.9,39.3z"/>
	<path class="st2" d="M699.6,34.4c0.2-0.2,0.4-0.3,0.7-0.3c0.3,0,0.6,0.1,0.7,0.3c0.2,0.2,0.3,0.4,0.3,0.7s-0.1,0.5-0.3,0.7
		c-0.2,0.2-0.4,0.3-0.7,0.3c-0.3,0-0.6-0.1-0.7-0.3c-0.2-0.2-0.3-0.4-0.3-0.7S699.4,34.6,699.6,34.4z M701.1,37.3V45h-1.6v-7.7
		H701.1z"/>
	<path class="st2" d="M708.9,38c0.7,0.5,1.1,1.2,1.2,2.1h-1.7c-0.1-0.5-0.3-0.9-0.7-1.1s-0.8-0.4-1.4-0.4c-0.6,0-1.1,0.2-1.5,0.7
		c-0.4,0.4-0.6,1.1-0.6,1.9s0.2,1.5,0.6,1.9c0.4,0.4,0.9,0.7,1.5,0.7c0.5,0,1-0.1,1.4-0.4s0.6-0.7,0.7-1.1h1.7
		c-0.2,0.9-0.6,1.6-1.2,2.2s-1.5,0.8-2.5,0.8c-0.7,0-1.4-0.2-2-0.5c-0.6-0.3-1-0.8-1.4-1.4c-0.3-0.6-0.5-1.3-0.5-2.1
		c0-0.8,0.2-1.5,0.5-2.1c0.3-0.6,0.8-1.1,1.4-1.4c0.6-0.3,1.2-0.5,2-0.5C707.5,37.2,708.3,37.5,708.9,38z"/>
</g>
<g class="st1">
	<path class="st2" d="M595.5,53.6c0.7-1.4,1.6-2.5,2.7-3.4h1.6v0.2c-2.5,2-3.7,4.7-3.7,8.1s1.2,6,3.7,8.1v0.2h-1.6
		c-1.1-0.9-2-2-2.7-3.4c-0.7-1.4-1-3-1-4.8C594.4,56.6,594.8,55,595.5,53.6z"/>
	<path class="st2" d="M607.5,60.5h-5.9c0,0.8,0.2,1.4,0.7,1.8c0.4,0.4,0.9,0.6,1.5,0.6c0.5,0,1-0.1,1.4-0.4c0.4-0.3,0.6-0.6,0.7-1.1
		h1.7c-0.1,0.5-0.3,1-0.6,1.4c-0.3,0.4-0.8,0.7-1.3,1c-0.5,0.2-1.1,0.4-1.8,0.4c-0.7,0-1.4-0.2-2-0.5c-0.6-0.3-1-0.8-1.4-1.4
		c-0.3-0.6-0.5-1.3-0.5-2.1c0-0.8,0.2-1.5,0.5-2.1c0.3-0.6,0.8-1.1,1.4-1.4c0.6-0.3,1.2-0.5,2-0.5c0.8,0,1.4,0.2,2,0.5
		c0.6,0.3,1,0.7,1.3,1.3s0.5,1.2,0.5,1.8C607.5,60,607.5,60.3,607.5,60.5z M605.7,58.5c-0.2-0.3-0.5-0.6-0.8-0.8s-0.7-0.2-1.1-0.2
		c-0.6,0-1.1,0.2-1.6,0.6s-0.6,0.9-0.7,1.7h4.4C605.9,59.2,605.8,58.8,605.7,58.5z"/>
	<path class="st2" d="M610.3,62.2V64h-1.8v-1.8H610.3z"/>
	<path class="st2" d="M616.6,56.7c0.5,0.3,0.8,0.8,1,1.4v-1.8h1.6v7.8c0,0.7-0.1,1.4-0.4,1.9c-0.3,0.6-0.7,1-1.3,1.3s-1.2,0.5-2,0.5
		c-1.1,0-2-0.3-2.6-0.8c-0.7-0.5-1.1-1.2-1.3-2.1h1.6c0.1,0.5,0.4,0.8,0.8,1.1c0.4,0.3,0.8,0.4,1.4,0.4c0.6,0,1.2-0.2,1.6-0.6
		c0.4-0.4,0.6-1,0.6-1.7v-1.9c-0.2,0.6-0.6,1-1,1.4c-0.5,0.3-1.1,0.5-1.8,0.5c-0.7,0-1.3-0.2-1.8-0.5s-0.9-0.8-1.2-1.4
		s-0.4-1.3-0.4-2.1c0-0.8,0.1-1.5,0.4-2.1s0.7-1.1,1.2-1.4s1.1-0.5,1.8-0.5C615.5,56.2,616.1,56.4,616.6,56.7z M613.6,58.3
		c-0.4,0.5-0.6,1.1-0.6,1.9c0,0.8,0.2,1.4,0.6,1.9c0.4,0.5,1,0.7,1.7,0.7c0.4,0,0.8-0.1,1.2-0.3s0.6-0.5,0.8-0.9s0.3-0.8,0.3-1.3
		c0-0.5-0.1-0.9-0.3-1.3c-0.2-0.4-0.5-0.7-0.8-0.9s-0.8-0.3-1.2-0.3C614.6,57.6,614,57.8,613.6,58.3z"/>
	<path class="st2" d="M622.4,62.2V64h-1.8v-1.8H622.4z"/>
	<path class="st2" d="M628.5,58.3v1.3h-5.8v-1.3H628.5z"/>
	<path class="st2" d="M640.4,56.7c0.5,0.3,0.9,0.8,1.2,1.4c0.3,0.6,0.4,1.3,0.4,2.1c0,0.8-0.1,1.5-0.4,2.1c-0.3,0.6-0.7,1.1-1.2,1.4
		s-1.1,0.5-1.8,0.5c-0.7,0-1.3-0.2-1.8-0.5c-0.5-0.3-0.8-0.8-1-1.4v5.5h-1.6V56.3h1.6v1.8c0.2-0.6,0.5-1,1-1.4
		c0.5-0.3,1.1-0.5,1.8-0.5C639.3,56.2,639.9,56.3,640.4,56.7z M636.9,57.9c-0.4,0.2-0.6,0.5-0.8,0.9c-0.2,0.4-0.3,0.8-0.3,1.3
		c0,0.5,0.1,1,0.3,1.3c0.2,0.4,0.5,0.7,0.8,0.9s0.8,0.3,1.2,0.3c0.7,0,1.3-0.2,1.7-0.7c0.4-0.5,0.6-1.1,0.6-1.9
		c0-0.8-0.2-1.4-0.6-1.9c-0.4-0.5-1-0.7-1.7-0.7C637.7,57.6,637.3,57.7,636.9,57.9z"/>
	<path class="st2" d="M648.5,56.7c0.5,0.3,0.8,0.8,1,1.4v-1.8h1.6V64h-1.6v-1.8c-0.2,0.6-0.6,1-1,1.4c-0.5,0.3-1.1,0.5-1.8,0.5
		c-0.7,0-1.3-0.2-1.8-0.5s-0.9-0.8-1.2-1.4s-0.4-1.3-0.4-2.1c0-0.8,0.1-1.5,0.4-2.1s0.7-1.1,1.2-1.4s1.1-0.5,1.8-0.5
		C647.4,56.2,648,56.4,648.5,56.7z M645.5,58.3c-0.4,0.5-0.6,1.1-0.6,1.9c0,0.8,0.2,1.4,0.6,1.9c0.4,0.5,1,0.7,1.7,0.7
		c0.4,0,0.8-0.1,1.2-0.3s0.6-0.5,0.8-0.9s0.3-0.8,0.3-1.3c0-0.5-0.1-0.9-0.3-1.3c-0.2-0.4-0.5-0.7-0.8-0.9s-0.8-0.3-1.2-0.3
		C646.5,57.6,645.9,57.8,645.5,58.3z"/>
	<path class="st2" d="M654,56.3l2.3,5.7l2.1-5.7h1.8l-4.7,11.4h-1.8l1.7-3.8l-3.2-7.5H654z"/>
	<path class="st2" d="M673.1,57c0.5,0.6,0.8,1.4,0.8,2.5V64h-1.6v-4.3c0-0.7-0.2-1.2-0.5-1.6c-0.3-0.4-0.8-0.6-1.4-0.6
		c-0.6,0-1.1,0.2-1.5,0.6c-0.4,0.4-0.6,1-0.6,1.7V64h-1.6v-4.3c0-0.7-0.2-1.2-0.5-1.6c-0.3-0.4-0.8-0.6-1.4-0.6
		c-0.6,0-1.1,0.2-1.5,0.6c-0.4,0.4-0.6,1-0.6,1.7V64h-1.6v-7.7h1.6v1.6c0.2-0.6,0.5-1,1-1.3s1-0.4,1.6-0.4c0.6,0,1.2,0.2,1.7,0.5
		s0.8,0.8,1,1.4c0.2-0.6,0.6-1,1.1-1.4c0.5-0.3,1.1-0.5,1.7-0.5C671.8,56.2,672.6,56.4,673.1,57z"/>
	<path class="st2" d="M682.9,60.5H677c0,0.8,0.2,1.4,0.7,1.8c0.4,0.4,0.9,0.6,1.5,0.6c0.5,0,1-0.1,1.4-0.4c0.4-0.3,0.6-0.6,0.7-1.1
		h1.7c-0.1,0.5-0.3,1-0.6,1.4c-0.3,0.4-0.8,0.7-1.3,1c-0.5,0.2-1.1,0.4-1.8,0.4c-0.7,0-1.4-0.2-2-0.5s-1-0.8-1.4-1.4
		c-0.3-0.6-0.5-1.3-0.5-2.1c0-0.8,0.2-1.5,0.5-2.1c0.3-0.6,0.8-1.1,1.4-1.4s1.2-0.5,2-0.5c0.8,0,1.4,0.2,2,0.5s1,0.7,1.3,1.3
		c0.3,0.5,0.5,1.2,0.5,1.8C683,60,682.9,60.3,682.9,60.5z M681.1,58.5c-0.2-0.3-0.5-0.6-0.8-0.8c-0.3-0.2-0.7-0.2-1.1-0.2
		c-0.6,0-1.1,0.2-1.6,0.6S677,59,677,59.7h4.4C681.4,59.2,681.3,58.8,681.1,58.5z"/>
	<path class="st2" d="M691,57c0.5,0.6,0.8,1.4,0.8,2.5V64h-1.6v-4.3c0-0.7-0.2-1.2-0.5-1.6s-0.8-0.6-1.5-0.6c-0.6,0-1.1,0.2-1.5,0.6
		c-0.4,0.4-0.6,1-0.6,1.8V64h-1.6v-7.7h1.6V58c0.2-0.6,0.6-1,1-1.3c0.5-0.3,1-0.5,1.7-0.5C689.7,56.2,690.4,56.4,691,57z"/>
	<path class="st2" d="M697.5,62.6V64h-1c-0.8,0-1.4-0.2-1.9-0.6c-0.4-0.4-0.6-1.1-0.6-2v-3.8h-1.1v-1.4h1.1v-1.9h1.6v1.9h1.9v1.4
		h-1.9v3.8c0,0.4,0.1,0.7,0.2,0.9s0.5,0.3,0.9,0.3H697.5z"/>
	<path class="st2" d="M708.2,61.9H704l-0.8,2.1h-1.7l3.6-9.7h1.8l3.6,9.7h-1.7L708.2,61.9z M707.7,60.6l-1.6-4.6l-1.6,4.6H707.7z"/>
	<path class="st2" d="M713.4,60.2V64h-1.6v-9.9h3.4c1.1,0,2,0.3,2.6,0.8c0.6,0.5,0.9,1.3,0.9,2.2c0,0.9-0.3,1.7-0.9,2.2
		c-0.6,0.5-1.4,0.8-2.5,0.8H713.4z M717,57.2c0-0.6-0.2-1-0.5-1.3s-0.8-0.4-1.5-0.4h-1.6v3.4h1.6C716.4,58.9,717,58.3,717,57.2z"/>
	<path class="st2" d="M721.6,54.1V64H720v-9.9H721.6z"/>
	<path class="st2" d="M726.5,63.2c-0.7,1.4-1.6,2.6-2.7,3.4h-1.6v-0.2c2.5-2,3.7-4.7,3.7-8.1c0-3.3-1.2-6-3.7-8.1v-0.2h1.6
		c1.1,0.9,2,2,2.7,3.4c0.7,1.4,1,3,1,4.8S727.2,61.8,726.5,63.2z"/>
</g>
<g class="st1">
	<path class="st2" d="M615,263.7c-0.4,0.7-1,1.3-1.8,1.7c-0.8,0.4-1.7,0.6-2.8,0.6h-3.3v-9.9h3.3c1.1,0,2,0.2,2.8,0.6
		c0.8,0.4,1.4,1,1.8,1.7s0.6,1.6,0.6,2.6S615.4,262.9,615,263.7z M613,263.6c0.6-0.6,1-1.5,1-2.6c0-1.1-0.3-2-1-2.6
		s-1.5-0.9-2.7-0.9h-1.6v7h1.6C611.5,264.6,612.4,264.2,613,263.6z"/>
	<path class="st2" d="M622.1,258.7c0.5,0.3,0.8,0.8,1,1.4v-1.8h1.6v7.7h-1.6v-1.8c-0.2,0.6-0.6,1-1,1.4c-0.5,0.3-1.1,0.5-1.8,0.5
		c-0.7,0-1.3-0.2-1.8-0.5s-0.9-0.8-1.2-1.4s-0.4-1.3-0.4-2.1c0-0.8,0.1-1.5,0.4-2.1s0.7-1.1,1.2-1.4s1.1-0.5,1.8-0.5
		C621,258.2,621.6,258.4,622.1,258.7z M619.1,260.3c-0.4,0.5-0.6,1.1-0.6,1.9c0,0.8,0.2,1.4,0.6,1.9c0.4,0.5,1,0.7,1.7,0.7
		c0.4,0,0.8-0.1,1.2-0.3s0.6-0.5,0.8-0.9s0.3-0.8,0.3-1.3c0-0.5-0.1-0.9-0.3-1.3c-0.2-0.4-0.5-0.7-0.8-0.9s-0.8-0.3-1.2-0.3
		C620.1,259.6,619.5,259.8,619.1,260.3z"/>
	<path class="st2" d="M630.5,264.6v1.4h-1c-0.8,0-1.4-0.2-1.9-0.6c-0.4-0.4-0.6-1.1-0.6-2v-3.8h-1.1v-1.4h1.1v-1.9h1.6v1.9h1.9v1.4
		h-1.9v3.8c0,0.4,0.1,0.7,0.2,0.9s0.5,0.3,0.9,0.3H630.5z"/>
	<path class="st2" d="M636.9,258.7c0.5,0.3,0.8,0.8,1,1.4v-1.8h1.6v7.7H638v-1.8c-0.2,0.6-0.6,1-1,1.4c-0.5,0.3-1.1,0.5-1.8,0.5
		c-0.7,0-1.3-0.2-1.8-0.5c-0.5-0.3-0.9-0.8-1.2-1.4s-0.4-1.3-0.4-2.1c0-0.8,0.1-1.5,0.4-2.1s0.7-1.1,1.2-1.4
		c0.5-0.3,1.1-0.5,1.8-0.5C635.8,258.2,636.4,258.4,636.9,258.7z M633.9,260.3c-0.4,0.5-0.6,1.1-0.6,1.9c0,0.8,0.2,1.4,0.6,1.9
		c0.4,0.5,1,0.7,1.7,0.7c0.4,0,0.8-0.1,1.2-0.3s0.6-0.5,0.8-0.9c0.2-0.4,0.3-0.8,0.3-1.3c0-0.5-0.1-0.9-0.3-1.3
		c-0.2-0.4-0.5-0.7-0.8-0.9s-0.8-0.3-1.2-0.3C634.9,259.6,634.3,259.8,633.9,260.3z"/>
	<path class="st2" d="M645.8,256.1l2.8,8.2l2.9-8.2h1.7l-3.6,9.9h-2l-3.6-9.9H645.8z"/>
	<path class="st2" d="M659.3,258.7c0.5,0.3,0.8,0.8,1,1.4v-1.8h1.6v7.7h-1.6v-1.8c-0.2,0.6-0.6,1-1,1.4c-0.5,0.3-1.1,0.5-1.8,0.5
		c-0.7,0-1.3-0.2-1.8-0.5c-0.5-0.3-0.9-0.8-1.2-1.4s-0.4-1.3-0.4-2.1c0-0.8,0.1-1.5,0.4-2.1s0.7-1.1,1.2-1.4
		c0.5-0.3,1.1-0.5,1.8-0.5C658.2,258.2,658.8,258.4,659.3,258.7z M656.3,260.3c-0.4,0.5-0.6,1.1-0.6,1.9c0,0.8,0.2,1.4,0.6,1.9
		c0.4,0.5,1,0.7,1.7,0.7c0.4,0,0.8-0.1,1.2-0.3s0.6-0.5,0.8-0.9c0.2-0.4,0.3-0.8,0.3-1.3c0-0.5-0.1-0.9-0.3-1.3
		c-0.2-0.4-0.5-0.7-0.8-0.9s-0.8-0.3-1.2-0.3C657.3,259.6,656.7,259.8,656.3,260.3z"/>
	<path class="st2" d="M665.4,255.6V266h-1.6v-10.4H665.4z"/>
	<path class="st2" d="M667.4,255.4c0.2-0.2,0.4-0.3,0.7-0.3s0.6,0.1,0.7,0.3c0.2,0.2,0.3,0.4,0.3,0.7s-0.1,0.5-0.3,0.7
		s-0.4,0.3-0.7,0.3s-0.6-0.1-0.7-0.3s-0.3-0.4-0.3-0.7S667.2,255.6,667.4,255.4z M669,258.3v7.7h-1.6v-7.7H669z"/>
	<path class="st2" d="M675.8,258.7c0.5,0.3,0.8,0.8,1,1.4v-4.4h1.6V266h-1.6v-1.8c-0.2,0.6-0.5,1-1,1.4c-0.5,0.3-1.1,0.5-1.8,0.5
		c-0.7,0-1.3-0.2-1.8-0.5c-0.5-0.3-0.9-0.8-1.2-1.4s-0.4-1.3-0.4-2.1c0-0.8,0.1-1.5,0.4-2.1s0.7-1.1,1.2-1.4
		c0.5-0.3,1.1-0.5,1.8-0.5C674.7,258.2,675.3,258.4,675.8,258.7z M672.8,260.3c-0.4,0.5-0.6,1.1-0.6,1.9c0,0.8,0.2,1.4,0.6,1.9
		c0.4,0.5,1,0.7,1.7,0.7c0.4,0,0.8-0.1,1.2-0.3s0.6-0.5,0.8-0.9c0.2-0.4,0.3-0.8,0.3-1.3c0-0.5-0.1-0.9-0.3-1.3
		c-0.2-0.4-0.5-0.7-0.8-0.9s-0.8-0.3-1.2-0.3C673.8,259.6,673.2,259.8,672.8,260.3z"/>
	<path class="st2" d="M685.2,258.7c0.5,0.3,0.8,0.8,1,1.4v-1.8h1.6v7.7h-1.6v-1.8c-0.2,0.6-0.6,1-1,1.4c-0.5,0.3-1.1,0.5-1.8,0.5
		c-0.7,0-1.3-0.2-1.8-0.5s-0.9-0.8-1.2-1.4s-0.4-1.3-0.4-2.1c0-0.8,0.1-1.5,0.4-2.1s0.7-1.1,1.2-1.4s1.1-0.5,1.8-0.5
		C684.1,258.2,684.7,258.4,685.2,258.7z M682.2,260.3c-0.4,0.5-0.6,1.1-0.6,1.9c0,0.8,0.2,1.4,0.6,1.9c0.4,0.5,1,0.7,1.7,0.7
		c0.4,0,0.8-0.1,1.2-0.3s0.6-0.5,0.8-0.9s0.3-0.8,0.3-1.3c0-0.5-0.1-0.9-0.3-1.3c-0.2-0.4-0.5-0.7-0.8-0.9s-0.8-0.3-1.2-0.3
		C683.2,259.6,682.6,259.8,682.2,260.3z"/>
	<path class="st2" d="M693.7,264.6v1.4h-1c-0.8,0-1.4-0.2-1.9-0.6c-0.4-0.4-0.6-1.1-0.6-2v-3.8h-1.1v-1.4h1.1v-1.9h1.6v1.9h1.9v1.4
		h-1.9v3.8c0,0.4,0.1,0.7,0.2,0.9s0.5,0.3,0.9,0.3H693.7z"/>
	<path class="st2" d="M695.2,255.4c0.2-0.2,0.4-0.3,0.7-0.3c0.3,0,0.6,0.1,0.7,0.3c0.2,0.2,0.3,0.4,0.3,0.7s-0.1,0.5-0.3,0.7
		c-0.2,0.2-0.4,0.3-0.7,0.3c-0.3,0-0.6-0.1-0.7-0.3c-0.2-0.2-0.3-0.4-0.3-0.7S695,255.6,695.2,255.4z M696.8,258.3v7.7h-1.6v-7.7
		H696.8z"/>
	<path class="st2" d="M704.2,258.7c0.6,0.3,1.1,0.8,1.4,1.4s0.5,1.3,0.5,2.1c0,0.8-0.2,1.5-0.5,2.1s-0.8,1.1-1.4,1.4s-1.3,0.5-2,0.5
		c-0.7,0-1.4-0.2-2-0.5s-1.1-0.8-1.4-1.4c-0.3-0.6-0.5-1.3-0.5-2.1s0.2-1.5,0.5-2.1s0.8-1.1,1.4-1.4s1.3-0.5,2-0.5
		C703,258.2,703.6,258.3,704.2,258.7z M701.1,259.9c-0.3,0.2-0.6,0.5-0.8,0.9c-0.2,0.4-0.3,0.9-0.3,1.4c0,0.6,0.1,1,0.3,1.4
		s0.5,0.7,0.8,0.9c0.3,0.2,0.7,0.3,1.1,0.3c0.4,0,0.8-0.1,1.1-0.3c0.3-0.2,0.6-0.5,0.8-0.9s0.3-0.9,0.3-1.4c0-0.6-0.1-1-0.3-1.4
		c-0.2-0.4-0.5-0.7-0.8-0.9c-0.3-0.2-0.7-0.3-1.1-0.3C701.8,259.6,701.4,259.7,701.1,259.9z"/>
	<path class="st2" d="M714.1,259c0.5,0.6,0.8,1.4,0.8,2.5v4.5h-1.6v-4.3c0-0.7-0.2-1.2-0.5-1.6c-0.4-0.4-0.8-0.6-1.5-0.6
		c-0.6,0-1.1,0.2-1.5,0.6c-0.4,0.4-0.6,1-0.6,1.8v4.1h-1.6v-7.7h1.6v1.7c0.2-0.6,0.6-1,1-1.3s1-0.5,1.7-0.5
		C712.9,258.2,713.6,258.4,714.1,259z"/>
</g>
<g class="st1">
	<path class="st2" d="M634.3,277.7c0.5,0.3,0.8,0.8,1,1.4v-1.8h1.6v7.7h-1.6v-1.8c-0.2,0.6-0.6,1-1,1.4c-0.5,0.3-1.1,0.5-1.8,0.5
		c-0.7,0-1.3-0.2-1.8-0.5c-0.5-0.3-0.9-0.8-1.2-1.4s-0.4-1.3-0.4-2.1c0-0.8,0.1-1.5,0.4-2.1s0.7-1.1,1.2-1.4
		c0.5-0.3,1.1-0.5,1.8-0.5C633.2,277.2,633.8,277.4,634.3,277.7z M631.3,279.3c-0.4,0.5-0.6,1.1-0.6,1.9c0,0.8,0.2,1.4,0.6,1.9
		c0.4,0.5,1,0.7,1.7,0.7c0.4,0,0.8-0.1,1.2-0.3s0.6-0.5,0.8-0.9c0.2-0.4,0.3-0.8,0.3-1.3c0-0.5-0.1-0.9-0.3-1.3
		c-0.2-0.4-0.5-0.7-0.8-0.9s-0.8-0.3-1.2-0.3C632.3,278.6,631.8,278.8,631.3,279.3z"/>
	<path class="st2" d="M645.4,278c0.5,0.6,0.8,1.4,0.8,2.5v4.5h-1.6v-4.3c0-0.7-0.2-1.2-0.5-1.6c-0.4-0.4-0.8-0.6-1.5-0.6
		c-0.6,0-1.1,0.2-1.5,0.6c-0.4,0.4-0.6,1-0.6,1.8v4.1h-1.6v-7.7h1.6v1.7c0.2-0.6,0.6-1,1-1.3s1-0.5,1.7-0.5
		C644.1,277.2,644.8,277.4,645.4,278z"/>
	<path class="st2" d="M652.9,277.7c0.5,0.3,0.8,0.8,1,1.4v-4.4h1.6V285H654v-1.8c-0.2,0.6-0.5,1-1,1.4c-0.5,0.3-1.1,0.5-1.8,0.5
		c-0.7,0-1.3-0.2-1.8-0.5c-0.5-0.3-0.9-0.8-1.2-1.4s-0.4-1.3-0.4-2.1c0-0.8,0.1-1.5,0.4-2.1s0.7-1.1,1.2-1.4
		c0.5-0.3,1.1-0.5,1.8-0.5C651.8,277.2,652.4,277.4,652.9,277.7z M649.9,279.3c-0.4,0.5-0.6,1.1-0.6,1.9c0,0.8,0.2,1.4,0.6,1.9
		c0.4,0.5,1,0.7,1.7,0.7c0.4,0,0.8-0.1,1.2-0.3s0.6-0.5,0.8-0.9c0.2-0.4,0.3-0.8,0.3-1.3c0-0.5-0.1-0.9-0.3-1.3
		c-0.2-0.4-0.5-0.7-0.8-0.9s-0.8-0.3-1.2-0.3C650.9,278.6,650.3,278.8,649.9,279.3z"/>
	<path class="st2" d="M665.6,277.7c0.5,0.3,0.8,0.8,1,1.4v-4.4h1.6V285h-1.6v-1.8c-0.2,0.6-0.5,1-1,1.4c-0.5,0.3-1.1,0.5-1.8,0.5
		c-0.7,0-1.3-0.2-1.8-0.5c-0.5-0.3-0.9-0.8-1.2-1.4s-0.4-1.3-0.4-2.1c0-0.8,0.1-1.5,0.4-2.1s0.7-1.1,1.2-1.4
		c0.5-0.3,1.1-0.5,1.8-0.5C664.6,277.2,665.2,277.4,665.6,277.7z M662.6,279.3c-0.4,0.5-0.6,1.1-0.6,1.9c0,0.8,0.2,1.4,0.6,1.9
		c0.4,0.5,1,0.7,1.7,0.7c0.4,0,0.8-0.1,1.2-0.3s0.6-0.5,0.8-0.9c0.2-0.4,0.3-0.8,0.3-1.3c0-0.5-0.1-0.9-0.3-1.3
		c-0.2-0.4-0.5-0.7-0.8-0.9s-0.8-0.3-1.2-0.3C663.6,278.6,663.1,278.8,662.6,279.3z"/>
	<path class="st2" d="M675.1,277.7c0.5,0.3,0.8,0.8,1,1.4v-1.8h1.6v7.7h-1.6v-1.8c-0.2,0.6-0.6,1-1,1.4c-0.5,0.3-1.1,0.5-1.8,0.5
		c-0.7,0-1.3-0.2-1.8-0.5c-0.5-0.3-0.9-0.8-1.2-1.4s-0.4-1.3-0.4-2.1c0-0.8,0.1-1.5,0.4-2.1s0.7-1.1,1.2-1.4
		c0.5-0.3,1.1-0.5,1.8-0.5C674,277.2,674.6,277.4,675.1,277.7z M672.1,279.3c-0.4,0.5-0.6,1.1-0.6,1.9c0,0.8,0.2,1.4,0.6,1.9
		c0.4,0.5,1,0.7,1.7,0.7c0.4,0,0.8-0.1,1.2-0.3s0.6-0.5,0.8-0.9c0.2-0.4,0.3-0.8,0.3-1.3c0-0.5-0.1-0.9-0.3-1.3
		c-0.2-0.4-0.5-0.7-0.8-0.9s-0.8-0.3-1.2-0.3C673.1,278.6,672.5,278.8,672.1,279.3z"/>
	<path class="st2" d="M683.5,283.6v1.4h-1c-0.8,0-1.4-0.2-1.9-0.6c-0.4-0.4-0.6-1.1-0.6-2v-3.8h-1.1v-1.4h1.1v-1.9h1.6v1.9h1.9v1.4
		h-1.9v3.8c0,0.4,0.1,0.7,0.2,0.9s0.5,0.3,0.9,0.3H683.5z"/>
	<path class="st2" d="M689.9,277.7c0.5,0.3,0.8,0.8,1,1.4v-1.8h1.6v7.7H691v-1.8c-0.2,0.6-0.6,1-1,1.4c-0.5,0.3-1.1,0.5-1.8,0.5
		c-0.7,0-1.3-0.2-1.8-0.5s-0.9-0.8-1.2-1.4s-0.4-1.3-0.4-2.1c0-0.8,0.1-1.5,0.4-2.1s0.7-1.1,1.2-1.4s1.1-0.5,1.8-0.5
		C688.8,277.2,689.4,277.4,689.9,277.7z M686.9,279.3c-0.4,0.5-0.6,1.1-0.6,1.9c0,0.8,0.2,1.4,0.6,1.9c0.4,0.5,1,0.7,1.7,0.7
		c0.4,0,0.8-0.1,1.2-0.3s0.6-0.5,0.8-0.9s0.3-0.8,0.3-1.3c0-0.5-0.1-0.9-0.3-1.3c-0.2-0.4-0.5-0.7-0.8-0.9s-0.8-0.3-1.2-0.3
		C687.9,278.6,687.3,278.8,686.9,279.3z"/>
</g>
<g class="st1">
	<path class="st2" d="M627.8,300.5h-5.9c0,0.8,0.2,1.4,0.7,1.8c0.4,0.4,0.9,0.6,1.5,0.6c0.5,0,1-0.1,1.4-0.4
		c0.4-0.3,0.6-0.6,0.7-1.1h1.7c-0.1,0.5-0.3,1-0.6,1.4c-0.3,0.4-0.8,0.7-1.3,1c-0.5,0.2-1.1,0.4-1.8,0.4c-0.7,0-1.4-0.2-2-0.5
		c-0.6-0.3-1-0.8-1.4-1.4c-0.3-0.6-0.5-1.3-0.5-2.1c0-0.8,0.2-1.5,0.5-2.1c0.3-0.6,0.8-1.1,1.4-1.4c0.6-0.3,1.2-0.5,2-0.5
		c0.8,0,1.4,0.2,2,0.5c0.6,0.3,1,0.7,1.3,1.3s0.5,1.2,0.5,1.8C627.9,300,627.9,300.3,627.8,300.5z M626,298.5
		c-0.2-0.3-0.5-0.6-0.8-0.8s-0.7-0.2-1.1-0.2c-0.6,0-1.1,0.2-1.6,0.6s-0.6,0.9-0.7,1.7h4.4C626.3,299.2,626.2,298.8,626,298.5z"/>
	<path class="st2" d="M635.9,297c0.5,0.6,0.8,1.4,0.8,2.5v4.5h-1.6v-4.3c0-0.7-0.2-1.2-0.5-1.6c-0.4-0.4-0.8-0.6-1.5-0.6
		c-0.6,0-1.1,0.2-1.5,0.6c-0.4,0.4-0.6,1-0.6,1.8v4.1h-1.6v-7.7h1.6v1.7c0.2-0.6,0.6-1,1-1.3s1-0.5,1.7-0.5
		C634.6,296.2,635.3,296.4,635.9,297z"/>
	<path class="st2" d="M641.3,296.6c0.5-0.3,1-0.4,1.7-0.4v1.7h-0.5c-0.7,0-1.3,0.2-1.7,0.5s-0.6,0.9-0.6,1.7v3.9h-1.6v-7.7h1.6v1.5
		C640.4,297.3,640.8,296.9,641.3,296.6z"/>
	<path class="st2" d="M644.2,293.4c0.2-0.2,0.4-0.3,0.7-0.3s0.6,0.1,0.7,0.3c0.2,0.2,0.3,0.4,0.3,0.7s-0.1,0.5-0.3,0.7
		s-0.4,0.3-0.7,0.3s-0.6-0.1-0.7-0.3s-0.3-0.4-0.3-0.7S644,293.6,644.2,293.4z M645.7,296.3v7.7h-1.6v-7.7H645.7z"/>
	<path class="st2" d="M653.6,297c0.7,0.5,1.1,1.2,1.2,2.1h-1.7c-0.1-0.5-0.3-0.9-0.7-1.1s-0.8-0.4-1.4-0.4c-0.6,0-1.1,0.2-1.5,0.7
		c-0.4,0.4-0.6,1.1-0.6,1.9s0.2,1.5,0.6,1.9c0.4,0.4,0.9,0.7,1.5,0.7c0.5,0,1-0.1,1.4-0.4s0.6-0.7,0.7-1.1h1.7
		c-0.2,0.9-0.6,1.6-1.2,2.2s-1.5,0.8-2.5,0.8c-0.7,0-1.4-0.2-2-0.5c-0.6-0.3-1-0.8-1.4-1.4c-0.3-0.6-0.5-1.3-0.5-2.1
		c0-0.8,0.2-1.5,0.5-2.1c0.3-0.6,0.8-1.1,1.4-1.4c0.6-0.3,1.2-0.5,2-0.5C652.1,296.2,652.9,296.5,653.6,297z"/>
	<path class="st2" d="M662.8,297c0.5,0.6,0.8,1.4,0.8,2.5v4.5H662v-4.3c0-0.7-0.2-1.2-0.5-1.6s-0.8-0.6-1.5-0.6
		c-0.6,0-1.1,0.2-1.5,0.6c-0.4,0.4-0.6,1-0.6,1.8v4.1h-1.6v-10.4h1.6v4.3c0.2-0.6,0.6-1,1-1.3c0.5-0.3,1-0.5,1.7-0.5
		C661.5,296.2,662.3,296.4,662.8,297z"/>
	<path class="st2" d="M677.3,297c0.5,0.6,0.8,1.4,0.8,2.5v4.5h-1.6v-4.3c0-0.7-0.2-1.2-0.5-1.6c-0.3-0.4-0.8-0.6-1.4-0.6
		c-0.6,0-1.1,0.2-1.5,0.6c-0.4,0.4-0.6,1-0.6,1.7v4.1H671v-4.3c0-0.7-0.2-1.2-0.5-1.6c-0.3-0.4-0.8-0.6-1.4-0.6
		c-0.6,0-1.1,0.2-1.5,0.6c-0.4,0.4-0.6,1-0.6,1.7v4.1h-1.6v-7.7h1.6v1.6c0.2-0.6,0.5-1,1-1.3c0.5-0.3,1-0.4,1.6-0.4
		c0.6,0,1.2,0.2,1.7,0.5c0.5,0.3,0.8,0.8,1,1.4c0.2-0.6,0.6-1,1.1-1.4c0.5-0.3,1.1-0.5,1.7-0.5C676,296.2,676.8,296.4,677.3,297z"/>
	<path class="st2" d="M687.1,300.5h-5.9c0,0.8,0.2,1.4,0.7,1.8c0.4,0.4,0.9,0.6,1.5,0.6c0.5,0,1-0.1,1.4-0.4
		c0.4-0.3,0.6-0.6,0.7-1.1h1.7c-0.1,0.5-0.3,1-0.6,1.4c-0.3,0.4-0.8,0.7-1.3,1c-0.5,0.2-1.1,0.4-1.8,0.4c-0.7,0-1.4-0.2-2-0.5
		s-1-0.8-1.4-1.4c-0.3-0.6-0.5-1.3-0.5-2.1c0-0.8,0.2-1.5,0.5-2.1c0.3-0.6,0.8-1.1,1.4-1.4s1.2-0.5,2-0.5c0.8,0,1.4,0.2,2,0.5
		s1,0.7,1.3,1.3c0.3,0.5,0.5,1.2,0.5,1.8C687.2,300,687.1,300.3,687.1,300.5z M685.3,298.5c-0.2-0.3-0.5-0.6-0.8-0.8
		c-0.3-0.2-0.7-0.2-1.1-0.2c-0.6,0-1.1,0.2-1.6,0.6s-0.6,0.9-0.7,1.7h4.4C685.6,299.2,685.5,298.8,685.3,298.5z"/>
	<path class="st2" d="M695.2,297c0.5,0.6,0.8,1.4,0.8,2.5v4.5h-1.6v-4.3c0-0.7-0.2-1.2-0.5-1.6c-0.4-0.4-0.8-0.6-1.5-0.6
		c-0.6,0-1.1,0.2-1.5,0.6c-0.4,0.4-0.6,1-0.6,1.8v4.1h-1.6v-7.7h1.6v1.7c0.2-0.6,0.6-1,1-1.3s1-0.5,1.7-0.5
		C693.9,296.2,694.6,296.4,695.2,297z"/>
	<path class="st2" d="M701.7,302.6v1.4h-1c-0.8,0-1.4-0.2-1.9-0.6s-0.6-1.1-0.6-2v-3.8h-1.1v-1.4h1.1v-1.9h1.6v1.9h1.9v1.4h-1.9v3.8
		c0,0.4,0.1,0.7,0.2,0.9s0.5,0.3,0.9,0.3H701.7z"/>
</g>
<path id="Path_5946" class="st6" d="M309,280.5h272"/>
<path id="Path_6018" class="st6" d="M309,40.5h272"/>
<path id="Path_6019" class="st6" d="M395,160.5h186"/>
<path id="Path_6020" class="st6" d="M660.9,200v40"/>
<path id="Path_6021" class="st6" d="M52.9,162.5H223"/>
<circle id="Ellipse_1089" class="st7" cx="138" cy="162" r="20"/>
<g id="Group_7671" transform="translate(-20674.001 -2694)">
	<path id="Path_5898" class="st8" d="M20798,2865.7l-1.4-0.8l15.8-27.4l1.4,0.8L20798,2865.7z"/>
	<path id="Path_5899" class="st8" d="M20796.2,2862.6h31.6v1.6h-31.6V2862.6z"/>
	<path id="Path_5900" class="st8" d="M20812.7,2872.7l-15.8-9.1l0.8-1.4l15.8,9.1L20812.7,2872.7z M20826.4,2848.9l-15.8-9.1
		l0.8-1.4l15.8,9.1L20826.4,2848.9z"/>
	<path id="Path_5901" class="st8" d="M20797.7,2848.9l-0.8-1.4l15.8-9.1l0.8,1.4L20797.7,2848.9z"/>
	<path id="Path_5902" class="st8" d="M20826.1,2865.7l-15.8-27.4l1.4-0.8l15.8,27.4L20826.1,2865.7z M20797.5,2846.4h1.6v18.3h-1.6
		V2846.4z M20825,2846.4h1.6v18.3h-1.6L20825,2846.4z"/>
	<path id="Path_5903" class="st8" d="M20812.4,2872l-0.7-1.2l13.7-7.9l0.7,1.2L20812.4,2872z"/>
	<path id="Path_5904" class="st8" d="M20828.8,2865.2c-1,1.6-3.1,2.2-4.7,1.2s-2.2-3.1-1.2-4.7c1-1.6,3.1-2.2,4.7-1.2
		c0.8,0.5,1.4,1.2,1.6,2.1C20829.3,2863.4,20829.2,2864.4,20828.8,2865.2 M20801.3,2849.3c-1,1.6-3.1,2.2-4.7,1.3s-2.2-3.1-1.3-4.7
		c1-1.6,3.1-2.2,4.7-1.3C20801.7,2845.5,20802.2,2847.7,20801.3,2849.3C20801.3,2849.3,20801.3,2849.3,20801.3,2849.3
		 M20795.3,2865.2c-0.9-1.6-0.4-3.8,1.3-4.7s3.8-0.4,4.7,1.3c0.9,1.6,0.4,3.7-1.3,4.7C20798.4,2867.4,20796.3,2866.8,20795.3,2865.2
		 M20822.8,2849.3c-0.9-1.6-0.4-3.8,1.3-4.7c1.6-0.9,3.8-0.4,4.7,1.3c0.9,1.6,0.4,3.7-1.3,4.7
		C20825.9,2851.5,20823.8,2851,20822.8,2849.3 M20812,2874.8c-1.9,0-3.4-1.5-3.4-3.4c0-1.9,1.5-3.4,3.4-3.4c1.9,0,3.4,1.5,3.4,3.4
		c0,0,0,0,0,0C20815.5,2873.3,20813.9,2874.8,20812,2874.8 M20812,2843.1c-1.9,0-3.4-1.6-3.4-3.4c0-1.9,1.6-3.4,3.4-3.4
		c1.9,0,3.4,1.6,3.4,3.4c0,0.9-0.4,1.8-1,2.4C20813.8,2842.7,20813,2843.1,20812,2843.1"/>
</g>
<path id="bottom" class="st9" d="M309,95V40"/>
<path id="bottom-2" class="st9" d="M309,280v-55"/>
<g class="st1">
	<path class="st2" d="M632.6,181.2v3.8H631v-9.9h3.4c1.1,0,2,0.3,2.6,0.8c0.6,0.5,0.9,1.3,0.9,2.2c0,0.9-0.3,1.7-0.9,2.2
		c-0.6,0.5-1.4,0.8-2.5,0.8H632.6z M636.2,178.2c0-0.6-0.2-1-0.5-1.3c-0.3-0.3-0.8-0.4-1.5-0.4h-1.6v3.4h1.6
		C635.5,179.9,636.2,179.3,636.2,178.2z"/>
	<path class="st2" d="M644.8,177.7c0.6,0.3,1.1,0.8,1.4,1.4s0.5,1.3,0.5,2.1c0,0.8-0.2,1.5-0.5,2.1s-0.8,1.1-1.4,1.4
		c-0.6,0.3-1.3,0.5-2,0.5s-1.4-0.2-2-0.5s-1.1-0.8-1.4-1.4c-0.3-0.6-0.5-1.3-0.5-2.1s0.2-1.5,0.5-2.1s0.8-1.1,1.4-1.4s1.3-0.5,2-0.5
		S644.2,177.3,644.8,177.7z M641.6,178.9c-0.3,0.2-0.6,0.5-0.8,0.9c-0.2,0.4-0.3,0.9-0.3,1.4c0,0.6,0.1,1,0.3,1.4s0.5,0.7,0.8,0.9
		c0.3,0.2,0.7,0.3,1.1,0.3s0.8-0.1,1.1-0.3c0.3-0.2,0.6-0.5,0.8-0.9s0.3-0.9,0.3-1.4c0-0.6-0.1-1-0.3-1.4c-0.2-0.4-0.5-0.7-0.8-0.9
		c-0.3-0.2-0.7-0.3-1.1-0.3S642,178.7,641.6,178.9z"/>
	<path class="st2" d="M652.9,177.9c0.5,0.5,0.9,1.1,1,1.9h-1.5c-0.1-0.4-0.2-0.8-0.5-1c-0.3-0.3-0.7-0.4-1.2-0.4
		c-0.4,0-0.7,0.1-0.9,0.3c-0.2,0.2-0.3,0.5-0.3,0.8c0,0.2,0.1,0.4,0.2,0.6c0.2,0.1,0.4,0.3,0.6,0.3c0.2,0.1,0.6,0.2,1,0.3
		c0.6,0.1,1,0.3,1.4,0.4c0.4,0.1,0.7,0.4,0.9,0.7c0.3,0.3,0.4,0.7,0.4,1.2c0,0.6-0.2,1.2-0.7,1.6c-0.5,0.4-1.2,0.6-2,0.6
		c-1,0-1.7-0.2-2.3-0.7s-1-1.1-1.1-1.9h1.6c0,0.4,0.2,0.8,0.6,1c0.3,0.3,0.8,0.4,1.3,0.4c0.4,0,0.7-0.1,0.9-0.3
		c0.2-0.2,0.3-0.5,0.3-0.8c0-0.3-0.1-0.5-0.3-0.6c-0.2-0.2-0.4-0.3-0.6-0.4c-0.3-0.1-0.6-0.2-1-0.3c-0.6-0.1-1-0.3-1.4-0.4
		c-0.4-0.1-0.6-0.3-0.9-0.6s-0.4-0.7-0.4-1.2c0-0.7,0.2-1.2,0.7-1.6s1.2-0.6,2-0.6C651.7,177.2,652.4,177.4,652.9,177.9z"/>
	<path class="st2" d="M659.5,183.6v1.4h-1c-0.8,0-1.4-0.2-1.9-0.6s-0.6-1.1-0.6-2v-3.8h-1.1v-1.4h1.1v-1.9h1.6v1.9h1.9v1.4h-1.9v3.8
		c0,0.4,0.1,0.7,0.2,0.9s0.5,0.3,0.9,0.3H659.5z"/>
	<path class="st2" d="M665.9,177.7c0.5,0.3,0.8,0.8,1,1.4v-1.8h1.6v7.8c0,0.7-0.1,1.4-0.4,1.9c-0.3,0.6-0.7,1-1.3,1.3
		s-1.2,0.5-2,0.5c-1.1,0-2-0.3-2.6-0.8c-0.7-0.5-1.1-1.2-1.3-2.1h1.6c0.1,0.5,0.4,0.8,0.8,1.1s0.8,0.4,1.4,0.4
		c0.6,0,1.2-0.2,1.6-0.6s0.6-1,0.6-1.7v-1.9c-0.2,0.6-0.6,1-1,1.4c-0.5,0.3-1.1,0.5-1.8,0.5c-0.7,0-1.3-0.2-1.8-0.5
		c-0.5-0.3-0.9-0.8-1.2-1.4s-0.4-1.3-0.4-2.1c0-0.8,0.1-1.5,0.4-2.1s0.7-1.1,1.2-1.4c0.5-0.3,1.1-0.5,1.8-0.5
		C664.8,177.2,665.4,177.4,665.9,177.7z M662.9,179.3c-0.4,0.5-0.6,1.1-0.6,1.9c0,0.8,0.2,1.4,0.6,1.9c0.4,0.5,1,0.7,1.7,0.7
		c0.4,0,0.8-0.1,1.2-0.3s0.6-0.5,0.8-0.9c0.2-0.4,0.3-0.8,0.3-1.3c0-0.5-0.1-0.9-0.3-1.3c-0.2-0.4-0.5-0.7-0.8-0.9s-0.8-0.3-1.2-0.3
		C663.9,178.6,663.3,178.8,662.9,179.3z"/>
	<path class="st2" d="M673.1,177.6c0.5-0.3,1-0.4,1.7-0.4v1.7h-0.5c-0.7,0-1.3,0.2-1.7,0.5c-0.4,0.3-0.6,0.9-0.6,1.7v3.9h-1.6v-7.7
		h1.6v1.5C672.3,178.3,672.7,177.9,673.1,177.6z"/>
	<path class="st2" d="M683.1,181.5h-5.9c0,0.8,0.2,1.4,0.7,1.8c0.4,0.4,0.9,0.6,1.5,0.6c0.5,0,1-0.1,1.4-0.4
		c0.4-0.3,0.6-0.6,0.7-1.1h1.7c-0.1,0.5-0.3,1-0.6,1.4c-0.3,0.4-0.8,0.7-1.3,1c-0.5,0.2-1.1,0.4-1.8,0.4c-0.7,0-1.4-0.2-2-0.5
		c-0.6-0.3-1-0.8-1.4-1.4c-0.3-0.6-0.5-1.3-0.5-2.1c0-0.8,0.2-1.5,0.5-2.1c0.3-0.6,0.8-1.1,1.4-1.4c0.6-0.3,1.2-0.5,2-0.5
		c0.8,0,1.4,0.2,2,0.5c0.6,0.3,1,0.7,1.3,1.3s0.5,1.2,0.5,1.8C683.2,181,683.2,181.3,683.1,181.5z M681.3,179.5
		c-0.2-0.3-0.5-0.6-0.8-0.8s-0.7-0.2-1.1-0.2c-0.6,0-1.1,0.2-1.6,0.6s-0.6,0.9-0.7,1.7h4.4C681.6,180.2,681.5,179.8,681.3,179.5z"/>
	<path class="st2" d="M689.4,177.9c0.5,0.5,0.9,1.1,1,1.9h-1.5c-0.1-0.4-0.2-0.8-0.5-1c-0.3-0.3-0.7-0.4-1.2-0.4
		c-0.4,0-0.7,0.1-0.9,0.3c-0.2,0.2-0.3,0.5-0.3,0.8c0,0.2,0.1,0.4,0.2,0.6c0.2,0.1,0.4,0.3,0.6,0.3c0.2,0.1,0.6,0.2,1,0.3
		c0.6,0.1,1,0.3,1.4,0.4c0.4,0.1,0.7,0.4,0.9,0.7c0.3,0.3,0.4,0.7,0.4,1.2c0,0.6-0.2,1.2-0.7,1.6c-0.5,0.4-1.2,0.6-2,0.6
		c-1,0-1.7-0.2-2.3-0.7s-1-1.1-1.1-1.9h1.6c0,0.4,0.2,0.8,0.6,1c0.3,0.3,0.8,0.4,1.3,0.4c0.4,0,0.7-0.1,0.9-0.3
		c0.2-0.2,0.3-0.5,0.3-0.8c0-0.3-0.1-0.5-0.3-0.6c-0.2-0.2-0.4-0.3-0.6-0.4c-0.3-0.1-0.6-0.2-1-0.3c-0.6-0.1-1-0.3-1.4-0.4
		c-0.4-0.1-0.6-0.3-0.9-0.6s-0.4-0.7-0.4-1.2c0-0.7,0.2-1.2,0.7-1.6s1.2-0.6,2-0.6C688.2,177.2,688.9,177.4,689.4,177.9z"/>
</g>
<g id="Group_4203" transform="translate(10865.598 -3521.012)">
	<g id="streamline-icon-database-2-alternate_80x80" transform="translate(-10219.146 3656)">
		<path id="Path_3088" class="st2" d="M14.4,0C7.4,0,0,2.4,0,6.8v17.5c0,4.5,7.4,6.9,14.4,6.9s14.4-2.4,14.4-6.9V6.9
			C28.8,2.4,21.4,0,14.4,0z M26.1,24.3c0,1.7-4.5,4.1-11.7,4.1S2.7,26,2.7,24.3v-1.1c0-0.2,0.1-0.3,0.3-0.3c0.1,0,0.1,0,0.2,0
			c7.1,3.2,15.2,3.2,22.3,0c0.2-0.1,0.4,0,0.5,0.1c0,0.1,0,0.1,0,0.2L26.1,24.3z M26.1,18.5c0,1.7-4.5,4.1-11.7,4.1
			S2.7,20.2,2.7,18.5v-1.1c0-0.2,0.1-0.3,0.3-0.3c0.1,0,0.1,0,0.2,0c7.1,3.2,15.2,3.2,22.3,0c0.2-0.1,0.4,0,0.5,0.1
			c0,0.1,0,0.1,0,0.2L26.1,18.5z M26.1,12.7c0,1.7-4.5,4.1-11.7,4.1S2.7,14.4,2.7,12.7v-1.1c0-0.2,0.1-0.3,0.3-0.3c0,0,0,0,0,0l0,0
			c0.1,0,0.1,0,0.2,0c7.1,3.2,15.2,3.2,22.3,0c0.2-0.1,0.4,0,0.5,0.1c0,0.1,0,0.1,0,0.2L26.1,12.7z M26.1,6.9L26.1,6.9
			c0,1.7-4.6,4.1-11.7,4.1S2.7,8.5,2.7,6.9s4.5-4.1,11.7-4.1S26.1,5.2,26.1,6.9L26.1,6.9z"/>
	</g>
</g>
<path id="Rectangle_10448" class="st10" d="M18.5,199h17c0.8,0,1.5,0.7,1.5,1.5l0,0c0,0.8-0.7,1.5-1.5,1.5h-17
	c-0.8,0-1.5-0.7-1.5-1.5l0,0C17,199.7,17.7,199,18.5,199z"/>
<g id="hasura_logo_horizontal_white" transform="translate(263.207 121.295)">
	<g id="Group_3" transform="translate(3.568 1.402)">
		<g id="Group_1" transform="translate(27.33 7.397)">
			<path id="Path_1" class="st2" d="M4,5.6H2.5c-0.2,0-0.4-0.2-0.4-0.4V0.4C2.1,0.2,1.9,0,1.7,0H0.4C0.2,0,0,0.2,0,0.4v12
				c0,0.2,0.2,0.4,0.4,0.4h1.3c0.2,0,0.4-0.2,0.4-0.4V7.8c0-0.2,0.2-0.4,0.4-0.4H4c0.2,0,0.4,0.2,0.4,0.4v4.7c0,0.2,0.2,0.4,0.4,0.4
				h1.3c0.2,0,0.4-0.2,0.4-0.4v-12C6.6,0.2,6.4,0,6.2,0H4.9C4.6,0,4.5,0.2,4.5,0.4v4.7C4.5,5.4,4.3,5.6,4,5.6z"/>
			<path id="Path_2" class="st2" d="M10.7,0.4l-2.1,12c0,0.2,0.1,0.4,0.3,0.5c0,0,0,0,0,0h1.3c0.2,0,0.4-0.1,0.4-0.3c0,0,0,0,0,0
				l0.4-2.2c0-0.2,0.2-0.3,0.4-0.4H13c0.2,0,0.4,0.1,0.4,0.3c0,0,0,0,0,0l0.4,2.2c0,0.2,0.2,0.3,0.4,0.4h1.4c0.2,0,0.4-0.2,0.4-0.4
				c0,0,0-0.1,0-0.1l-2.2-12c0-0.2-0.2-0.3-0.4-0.4h-2.2C10.9,0,10.7,0.2,10.7,0.4z M12.7,8.2h-0.9c-0.2,0-0.4-0.2-0.4-0.4
				c0,0,0,0,0-0.1l0.4-4.4c0-0.2,0.2-0.4,0.4-0.4c0.2,0,0.4,0.2,0.4,0.4L13,7.7C13.1,7.9,13,8.1,12.7,8.2
				C12.7,8.2,12.7,8.2,12.7,8.2L12.7,8.2z"/>
			<path id="Path_3" class="st2" d="M21.8,5.4h-1.4c-0.2,0-0.4-0.1-0.4-0.3c0,0,0-0.1,0-0.1V2.2c0-0.2,0.1-0.4,0.3-0.4
				c0,0,0.1,0,0.1,0h0.9c0.2,0,0.4,0.1,0.4,0.3c0,0,0,0.1,0,0.1v1.3c0,0.2,0.2,0.4,0.4,0.4h1.4c0.2,0,0.4-0.2,0.4-0.4V1.9
				c0-1.3-0.7-1.9-2-1.9h-1.9c-1.4,0-2,0.6-2,1.9v3.3c-0.1,1,0.6,1.8,1.5,2c0.1,0,0.3,0,0.5,0h1.4c0.2,0,0.4,0.1,0.4,0.3
				c0,0,0,0.1,0,0.1v3.1c0,0.2-0.1,0.4-0.3,0.4c0,0-0.1,0-0.1,0h-0.9c-0.2,0-0.4-0.1-0.4-0.3c0,0,0-0.1,0-0.1V9.3
				c0-0.2-0.2-0.4-0.4-0.4h-1.4c-0.2,0-0.4,0.2-0.4,0.4V11c0,1.3,0.7,1.9,2,1.9h1.9c1.4,0,2-0.6,2-1.9V7.4c0.1-0.9-0.5-1.8-1.5-2
				C22.1,5.4,21.9,5.4,21.8,5.4z"/>
			<path id="Path_4" class="st2" d="M29.8,10.6c0,0.2-0.1,0.4-0.3,0.4c0,0-0.1,0-0.1,0h-1.1c-0.2,0-0.4-0.1-0.4-0.3c0,0,0-0.1,0-0.1
				V0.4c0-0.2-0.2-0.4-0.4-0.4h-1.4c-0.2,0-0.4,0.2-0.4,0.4v10.5c0,1.3,0.7,1.9,2,1.9h2.2c1.4,0,2-0.6,2-1.9V0.4
				c0-0.2-0.2-0.4-0.4-0.4h-1.3c-0.2,0-0.4,0.2-0.4,0.4L29.8,10.6L29.8,10.6z"/>
			<path id="Path_5" class="st2" d="M40.5,5.9V1.9c0-1.3-0.7-1.9-2-1.9h-3.8c-0.2,0-0.4,0.2-0.4,0.4v12c0,0.2,0.2,0.4,0.4,0.4h1.3
				c0.2,0,0.4-0.2,0.4-0.4V8.2c0-0.2,0.2-0.4,0.4-0.4l0,0c0.2,0,0.3,0.1,0.4,0.3l1.7,4.5c0.1,0.1,0.2,0.2,0.4,0.3h1.4
				c0.2,0,0.4-0.2,0.4-0.4c0-0.1,0-0.1,0-0.2l-1.6-4.2c-0.1-0.2,0-0.4,0.2-0.5C40.2,7.2,40.5,6.6,40.5,5.9z M38.3,2.2v3.4
				C38.3,5.8,38.2,6,38,6c0,0-0.1,0-0.1,0h-1.2c-0.2,0-0.4-0.2-0.4-0.4V2.2c0-0.2,0.2-0.4,0.4-0.4h1.2C38.1,1.8,38.3,2,38.3,2.2
				C38.3,2.2,38.3,2.2,38.3,2.2L38.3,2.2z"/>
			<path id="Path_6" class="st2" d="M47.5,0h-2.2c-0.2,0-0.4,0.1-0.4,0.3c0,0,0,0,0,0l-2.1,12c0,0.2,0.1,0.4,0.3,0.5c0,0,0,0,0,0
				h1.3c0.2,0,0.4-0.1,0.4-0.3c0,0,0,0,0,0l0.4-2.2c0-0.2,0.2-0.3,0.4-0.4h1.6c0.2,0,0.4,0.1,0.4,0.3c0,0,0,0,0,0l0.4,2.2
				c0,0.2,0.2,0.3,0.4,0.4h1.4c0.2,0,0.4-0.2,0.4-0.4c0,0,0-0.1,0-0.1l-2.2-12C47.9,0.2,47.7,0,47.5,0z M46.8,8.2H46
				c-0.2,0-0.4-0.2-0.4-0.4c0,0,0,0,0-0.1l0.4-4c0-0.2,0.2-0.4,0.4-0.4c0.2,0,0.4,0.2,0.4,0.4l0.4,4C47.3,7.9,47.1,8.1,46.8,8.2
				C46.9,8.2,46.8,8.2,46.8,8.2z"/>
		</g>
		<g id="Group_2">
			<path id="Path_7" class="st2" d="M19,7.5c0.7-2.4,0.6-4.9-0.2-7.2l0,0c-0.1-0.2-0.4-0.3-0.7-0.2c-0.1,0.1-0.2,0.2-0.3,0.4v0.2
				c-0.1,2.3-1,3.6-2.3,4.2c-0.2,0.1-0.5,0.1-0.7-0.1c-3.2-2-7.2-2-10.4,0C4.4,4.9,4.1,5,3.9,4.9C2.6,4.4,1.7,3,1.6,0.6V0.4
				C1.5,0.2,1.3,0,1,0C0.9,0,0.7,0.1,0.7,0.3c-0.8,2.3-0.9,4.8-0.2,7.2c0.3,0.8,0.3,1.7,0.1,2.4C0.1,11,0,12.1,0,13.2
				c0.2,5.2,4.4,9.4,9.6,9.6c5.4,0.1,9.8-4.3,9.8-9.6c0-1.1-0.2-2.2-0.5-3.2C18.7,9.1,18.7,8.3,19,7.5z M9.6,20.4
				c-4.1-0.1-7.3-3.4-7.3-7.5s3.4-7.3,7.5-7.3c4,0.1,7.2,3.3,7.3,7.3c0.1,4.1-3.2,7.5-7.3,7.5C9.8,20.4,9.7,20.4,9.6,20.4z"/>
			<path id="Path_8" class="st2" d="M10.9,12.2L9.1,9.5C8.9,9.1,8.3,9,7.8,9.3c-0.3,0.2-0.4,0.5-0.4,0.8c0,0.2,0.1,0.3,0.1,0.5
				l1.2,1.8c0.1,0.1,0.1,0.3,0,0.4l-1.8,2c-0.3,0.4-0.3,1,0.1,1.3c0,0,0,0,0,0c0.2,0.2,0.4,0.2,0.6,0.2c0.3,0,0.5-0.1,0.7-0.3
				l1.4-1.6c0.1-0.1,0.2-0.1,0.3,0c0,0,0,0,0.1,0.1l1,1.4c0.1,0.1,0.1,0.2,0.3,0.3c0.3,0.2,0.7,0.2,1.1,0l0,0
				c0.3-0.2,0.4-0.5,0.4-0.8c0-0.2-0.1-0.3-0.1-0.5L10.9,12.2z"/>
		</g>
	</g>
</g>
<path id="Rectangle_10445" class="st0" d="M264,156h90c2.8,0,5,2.2,5,5v30c0,2.8-2.2,5-5,5h-90c-2.8,0-5-2.2-5-5v-30
	C259,158.2,261.2,156,264,156z"/>
<g class="st1">
	<path class="st2" d="M289.5,178.9h-4.2l-0.8,2.1h-1.7l3.6-9.7h1.8l3.6,9.7h-1.7L289.5,178.9z M289.1,177.6l-1.6-4.6l-1.6,4.6H289.1
		z"/>
	<path class="st2" d="M299.1,174c0.7,0.5,1.1,1.2,1.2,2.1h-1.7c-0.1-0.5-0.3-0.9-0.7-1.1c-0.4-0.3-0.8-0.4-1.4-0.4
		c-0.6,0-1.1,0.2-1.5,0.7c-0.4,0.4-0.6,1.1-0.6,1.9s0.2,1.5,0.6,1.9c0.4,0.4,0.9,0.7,1.5,0.7c0.5,0,1-0.1,1.4-0.4
		c0.4-0.3,0.6-0.7,0.7-1.1h1.7c-0.2,0.9-0.6,1.6-1.2,2.2s-1.5,0.8-2.5,0.8c-0.7,0-1.4-0.2-2-0.5c-0.6-0.3-1-0.8-1.4-1.4
		s-0.5-1.3-0.5-2.1c0-0.8,0.2-1.5,0.5-2.1s0.8-1.1,1.4-1.4c0.6-0.3,1.2-0.5,2-0.5C297.6,173.2,298.4,173.5,299.1,174z"/>
	<path class="st2" d="M305.7,179.6v1.4h-1c-0.8,0-1.4-0.2-1.9-0.6c-0.4-0.4-0.6-1.1-0.6-2v-3.8h-1.1v-1.4h1.1v-1.9h1.6v1.9h1.9v1.4
		h-1.9v3.8c0,0.4,0.1,0.7,0.2,0.9s0.5,0.3,0.9,0.3H305.7z"/>
	<path class="st2" d="M307.3,170.4c0.2-0.2,0.4-0.3,0.7-0.3c0.3,0,0.6,0.1,0.7,0.3c0.2,0.2,0.3,0.4,0.3,0.7s-0.1,0.5-0.3,0.7
		c-0.2,0.2-0.4,0.3-0.7,0.3c-0.3,0-0.6-0.1-0.7-0.3c-0.2-0.2-0.3-0.4-0.3-0.7S307.1,170.6,307.3,170.4z M308.8,173.3v7.7h-1.6v-7.7
		H308.8z"/>
	<path class="st2" d="M316.3,173.7c0.6,0.3,1.1,0.8,1.4,1.4s0.5,1.3,0.5,2.1c0,0.8-0.2,1.5-0.5,2.1s-0.8,1.1-1.4,1.4
		c-0.6,0.3-1.3,0.5-2,0.5c-0.7,0-1.4-0.2-2-0.5s-1.1-0.8-1.4-1.4c-0.3-0.6-0.5-1.3-0.5-2.1s0.2-1.5,0.5-2.1s0.8-1.1,1.4-1.4
		s1.3-0.5,2-0.5C315,173.2,315.7,173.3,316.3,173.7z M313.2,174.9c-0.3,0.2-0.6,0.5-0.8,0.9c-0.2,0.4-0.3,0.9-0.3,1.4
		c0,0.6,0.1,1,0.3,1.4s0.5,0.7,0.8,0.9s0.7,0.3,1.1,0.3c0.4,0,0.8-0.1,1.1-0.3s0.6-0.5,0.8-0.9s0.3-0.9,0.3-1.4c0-0.6-0.1-1-0.3-1.4
		c-0.2-0.4-0.5-0.7-0.8-0.9c-0.3-0.2-0.7-0.3-1.1-0.3C313.9,174.6,313.5,174.7,313.2,174.9z"/>
	<path class="st2" d="M326.2,174c0.5,0.6,0.8,1.4,0.8,2.5v4.5h-1.6v-4.3c0-0.7-0.2-1.2-0.5-1.6c-0.4-0.4-0.8-0.6-1.5-0.6
		c-0.6,0-1.1,0.2-1.5,0.6c-0.4,0.4-0.6,1-0.6,1.8v4.1h-1.6v-7.7h1.6v1.7c0.2-0.6,0.6-1,1-1.3c0.5-0.3,1-0.5,1.7-0.5
		C325,173.2,325.7,173.4,326.2,174z"/>
	<path class="st2" d="M333.6,173.9c0.5,0.5,0.9,1.1,1,1.9h-1.5c-0.1-0.4-0.2-0.8-0.5-1c-0.3-0.3-0.7-0.4-1.2-0.4
		c-0.4,0-0.7,0.1-0.9,0.3s-0.3,0.5-0.3,0.8c0,0.2,0.1,0.4,0.2,0.6s0.4,0.3,0.6,0.3c0.2,0.1,0.6,0.2,1,0.3c0.6,0.1,1,0.3,1.4,0.4
		c0.4,0.1,0.7,0.4,0.9,0.7c0.3,0.3,0.4,0.7,0.4,1.2c0,0.6-0.2,1.2-0.7,1.6c-0.5,0.4-1.2,0.6-2,0.6c-1,0-1.7-0.2-2.3-0.7
		s-0.9-1.1-1.1-1.9h1.6c0,0.4,0.2,0.8,0.6,1c0.3,0.3,0.8,0.4,1.3,0.4c0.4,0,0.7-0.1,0.9-0.3c0.2-0.2,0.3-0.5,0.3-0.8
		c0-0.3-0.1-0.5-0.3-0.6c-0.2-0.2-0.4-0.3-0.6-0.4c-0.3-0.1-0.6-0.2-1-0.3c-0.6-0.1-1-0.3-1.4-0.4c-0.4-0.1-0.6-0.3-0.9-0.6
		c-0.2-0.3-0.4-0.7-0.4-1.2c0-0.7,0.2-1.2,0.7-1.6c0.5-0.4,1.2-0.6,2-0.6C332.3,173.2,333.1,173.4,333.6,173.9z"/>
</g>
</svg>
