<?xml version="1.0" encoding="utf-8"?>
<!-- Generator: Adobe Illustrator 19.0.0, SVG Export Plug-In . SVG Version: 6.00 Build 0)  -->
<svg version="1.1" id="Layer_1" xmlns="http://www.w3.org/2000/svg" xmlns:xlink="http://www.w3.org/1999/xlink" x="0px" y="0px"
	 viewBox="-28.5 11 98 24" style="enable-background:new -28.5 11 98 24;" xml:space="preserve">
<style type="text/css">
	.st0{fill:#4D4D4D;}
	.st1{fill:#FFC627;}
	.st2{fill:#232323;}
</style>
<title>Asset 1</title>
<g id="Layer_2">
	<g id="Layer_1-2">
		<path class="st0" d="M4,13.7h2.7v7.9h3.3v-7.9h2.7v18.5H9.9V24H6.7v8.2H4V13.7z"/>
		<path class="st0" d="M18.2,13.7h2.2l4.1,18.5h-2.7l-0.8-4h-3.6l-0.8,4H14L18.2,13.7z M19.3,19L19.3,19l-1.3,6.7h2.7L19.3,19z"/>
		<path class="st0" d="M34.5,19h-2.7v-0.6c0-0.6-0.1-1.1-0.4-1.6c-0.3-0.5-0.9-0.7-1.4-0.7c-0.3,0-0.6,0.1-0.9,0.2
			c-0.2,0.1-0.4,0.3-0.5,0.5c-0.1,0.2-0.2,0.5-0.3,0.8c-0.1,0.3-0.1,0.6-0.1,0.9c0,0.3,0,0.6,0,0.9c0,0.2,0.1,0.4,0.2,0.6
			c0.1,0.2,0.3,0.4,0.5,0.5c0.3,0.2,0.5,0.3,0.8,0.4l2,0.8c0.5,0.2,1,0.5,1.4,0.8c0.4,0.3,0.7,0.7,0.9,1.1c0.2,0.4,0.3,0.9,0.4,1.4
			c0.1,0.6,0.1,1.2,0.1,1.8c0,0.7-0.1,1.5-0.2,2.2c-0.1,0.6-0.4,1.2-0.8,1.7c-0.4,0.5-0.9,0.9-1.4,1.1c-0.7,0.3-1.4,0.4-2.2,0.4
			c-0.6,0-1.2-0.1-1.8-0.3c-1.1-0.4-1.9-1.3-2.4-2.3c-0.2-0.5-0.4-1.1-0.4-1.7v-1H28v0.8c0,0.5,0.1,0.9,0.4,1.3
			c0.4,0.4,0.9,0.6,1.5,0.6c0.4,0,0.7,0,1.1-0.2c0.2-0.1,0.4-0.3,0.6-0.6c0.1-0.3,0.2-0.6,0.2-0.9c0-0.4,0-0.7,0-1.1
			c0-0.4,0-0.8,0-1.2c0-0.3-0.1-0.5-0.2-0.8c-0.1-0.2-0.3-0.4-0.5-0.5c-0.3-0.1-0.5-0.3-0.8-0.4l-1.9-0.8c-1-0.3-1.8-1-2.3-1.8
			c-0.4-0.9-0.6-1.9-0.6-2.9c0-0.7,0.1-1.4,0.3-2c0.2-0.6,0.5-1.1,0.9-1.6c0.4-0.5,0.9-0.8,1.4-1.1c0.6-0.3,1.3-0.4,2-0.4
			c0.6,0,1.2,0.1,1.8,0.4c0.5,0.2,1,0.6,1.4,1c0.4,0.4,0.7,0.8,0.9,1.3c0.2,0.5,0.3,1,0.3,1.5V19z"/>
		<path class="st0" d="M45.2,28.1c0,0.6-0.1,1.2-0.3,1.7c-0.4,1-1.3,1.9-2.3,2.3c-1.1,0.5-2.3,0.5-3.3,0c-1-0.4-1.8-1.3-2.3-2.3
			c-0.2-0.5-0.3-1.1-0.3-1.7V13.7h2.7v14.1c0,0.5,0.1,1.1,0.5,1.5c0.7,0.6,1.7,0.6,2.3,0c0.3-0.4,0.5-0.9,0.5-1.5V13.7h2.7
			L45.2,28.1z"/>
		<path class="st0" d="M47.8,13.7h4.3c3.1,0,4.7,1.8,4.7,5.4c0,0.9-0.2,1.9-0.5,2.8c-0.4,0.8-1,1.5-1.8,1.9l2.9,8.5h-2.8l-2.5-7.9
			h-1.6v7.9h-2.7V13.7z M50.5,22H52c0.4,0,0.8-0.1,1.1-0.2c0.3-0.1,0.5-0.3,0.6-0.6c0.2-0.3,0.3-0.6,0.3-0.9
			c0.1-0.4,0.1-0.8,0.1-1.2c0-0.4,0-0.8-0.1-1.2c0-0.3-0.2-0.6-0.3-0.9c-0.2-0.3-0.4-0.4-0.7-0.6c-0.4-0.1-0.8-0.2-1.2-0.2h-1.4V22z
			"/>
		<path class="st0" d="M62,13.7h2.2l4.1,18.5h-2.6l-0.8-4h-3.6l-0.8,4h-2.7L62,13.7z M63.1,19L63.1,19l-1.3,6.7h2.6L63.1,19z"/>
	</g>
</g>
<g>
	<circle class="st1" cx="-16.4" cy="25.2" r="8"/>
	<path class="st2" d="M-13.2,27.6l-3-5.9c-0.3-0.5-0.9-0.7-1.4-0.5c-0.5,0.3-0.7,0.9-0.5,1.4l1.3,2.4l-2.2,2.2
		c-0.4,0.4-0.4,1.1,0,1.5c0.2,0.2,0.5,0.3,0.7,0.3c0.3,0,0.5-0.1,0.7-0.3l1.8-1.8l0.7,1.5c0.2,0.4,0.6,0.6,0.9,0.6
		c0.2,0,0.3,0,0.5-0.1C-13.1,28.8-12.9,28.2-13.2,27.6"/>
	<path class="st2" d="M-9.2,11.3c-0.6,0.4,0.4,3.8-2,5.9c-1.5-1-3.3-1.6-5.2-1.6c-1.9,0-3.7,0.6-5.2,1.5c-2.4-2-1.4-5.5-2-5.9
		c-1-0.6-2.8,3-2.6,5.2c0.1,1.2,0.4,3,1.3,4.4c-0.7,1.3-1,2.7-1,4.3c0,5.3,4.3,9.6,9.6,9.6c5.3,0,9.6-4.3,9.6-9.6c0-1.5-0.4-3-1-4.3
		c0.9-1.4,1.2-3.2,1.3-4.4C-6.4,14.2-8.2,10.7-9.2,11.3 M-16.4,32.6c-4.1,0-7.4-3.3-7.4-7.5c0-4.1,3.3-7.4,7.4-7.4
		c4.1,0,7.5,3.3,7.5,7.4C-8.9,29.3-12.3,32.6-16.4,32.6"/>
</g>
</svg>
