<?xml version="1.0" encoding="utf-8"?>
<!-- Generator: Adobe Illustrator 19.0.0, SVG Export Plug-In . SVG Version: 6.00 Build 0)  -->
<svg version="1.1" id="Layer_1" xmlns="http://www.w3.org/2000/svg" xmlns:xlink="http://www.w3.org/1999/xlink" x="0px" y="0px"
	 viewBox="-200 239 98 24" style="enable-background:new -200 239 98 24;" xml:space="preserve">
<style type="text/css">
	.st0{fill:#FFFFFF;}
	.st1{fill:#FFC627;}
	.st2{fill:#232323;}
</style>
<title>Asset 1</title>
<g>
	<g id="Layer_2">
		<g id="Layer_1-2">
			<path class="st0" d="M-168,241.8h2.7v7.9h3.3v-7.9h2.7v18.5h-2.8v-8.2h-3.2v8.2h-2.7V241.8z M-153.8,241.8h2.2l4.1,18.5h-2.7
				l-0.8-4h-3.6l-0.8,4h-2.6C-158,260.3-153.8,241.8-153.8,241.8z M-152.7,247.1l-1.3,6.7h2.7C-151.3,253.8-152.7,247.1-152.7,247.1
				z M-137.5,247.1h-2.7v-0.6c0-0.6-0.1-1.1-0.4-1.6c-0.3-0.5-0.9-0.7-1.4-0.7c-0.3,0-0.6,0.1-0.9,0.2c-0.2,0.1-0.4,0.3-0.5,0.5
				c-0.1,0.2-0.2,0.5-0.3,0.8c-0.1,0.3-0.1,0.6-0.1,0.9v0.9c0,0.2,0.1,0.4,0.2,0.6c0.1,0.2,0.3,0.4,0.5,0.5c0.3,0.2,0.5,0.3,0.8,0.4
				l2,0.8c0.5,0.2,1,0.5,1.4,0.8c0.4,0.3,0.7,0.7,0.9,1.1c0.2,0.4,0.3,0.9,0.4,1.4c0.1,0.6,0.1,1.2,0.1,1.8c0,0.7-0.1,1.5-0.2,2.2
				c-0.1,0.6-0.4,1.2-0.8,1.7s-0.9,0.9-1.4,1.1c-0.7,0.3-1.4,0.4-2.2,0.4c-0.6,0-1.2-0.1-1.8-0.3c-1.1-0.4-1.9-1.3-2.4-2.3
				c-0.2-0.5-0.4-1.1-0.4-1.7v-1h2.7v0.8c0,0.5,0.1,0.9,0.4,1.3c0.4,0.4,0.9,0.6,1.5,0.6c0.4,0,0.7,0,1.1-0.2
				c0.2-0.1,0.4-0.3,0.6-0.6c0.1-0.3,0.2-0.6,0.2-0.9v-1.1v-1.2c0-0.3-0.1-0.5-0.2-0.8c-0.1-0.2-0.3-0.4-0.5-0.5
				c-0.3-0.1-0.5-0.3-0.8-0.4l-1.9-0.8c-1-0.3-1.8-1-2.3-1.8c-0.4-0.9-0.6-1.9-0.6-2.9c0-0.7,0.1-1.4,0.3-2c0.2-0.6,0.5-1.1,0.9-1.6
				c0.4-0.5,0.9-0.8,1.4-1.1c0.6-0.3,1.3-0.4,2-0.4c0.6,0,1.2,0.1,1.8,0.4c0.5,0.2,1,0.6,1.4,1c0.4,0.4,0.7,0.8,0.9,1.3
				s0.3,1,0.3,1.5V247.1z M-126.8,256.2c0,0.6-0.1,1.2-0.3,1.7c-0.4,1-1.3,1.9-2.3,2.3c-1.1,0.5-2.3,0.5-3.3,0
				c-1-0.4-1.8-1.3-2.3-2.3c-0.2-0.5-0.3-1.1-0.3-1.7v-14.4h2.7v14.1c0,0.5,0.1,1.1,0.5,1.5c0.7,0.6,1.7,0.6,2.3,0
				c0.3-0.4,0.5-0.9,0.5-1.5v-14.1h2.7C-126.6,241.8-126.8,256.2-126.8,256.2z M-124.2,241.8h4.3c3.1,0,4.7,1.8,4.7,5.4
				c0,0.9-0.2,1.9-0.5,2.8c-0.4,0.8-1,1.5-1.8,1.9l2.9,8.5h-2.8l-2.5-7.9h-1.6v7.9h-2.7C-124.2,260.4-124.2,241.8-124.2,241.8z
				 M-121.5,250.1h1.5c0.4,0,0.8-0.1,1.1-0.2c0.3-0.1,0.5-0.3,0.6-0.6c0.2-0.3,0.3-0.6,0.3-0.9c0.1-0.4,0.1-0.8,0.1-1.2
				c0-0.4,0-0.8-0.1-1.2c0-0.3-0.2-0.6-0.3-0.9c-0.2-0.3-0.4-0.4-0.7-0.6c-0.4-0.1-0.8-0.2-1.2-0.2h-1.4v5.8H-121.5z M-110,241.8
				h2.2l4.1,18.5h-2.6l-0.8-4h-3.6l-0.8,4h-2.7L-110,241.8z M-108.9,247.1l-1.3,6.7h2.6L-108.9,247.1z"/>
		</g>
	</g>
	<g>
		<circle class="st1" cx="-188.4" cy="253.3" r="8"/>
		<path class="st2" d="M-185.2,255.7l-3-5.9c-0.3-0.5-0.9-0.7-1.4-0.5c-0.5,0.3-0.7,0.9-0.5,1.4l1.3,2.4l-2.2,2.2
			c-0.4,0.4-0.4,1.1,0,1.5c0.2,0.2,0.5,0.3,0.7,0.3c0.3,0,0.5-0.1,0.7-0.3l1.8-1.8l0.7,1.5c0.2,0.4,0.6,0.6,0.9,0.6
			c0.2,0,0.3,0,0.5-0.1C-185.1,256.9-184.9,256.3-185.2,255.7"/>
		<path class="st2" d="M-181.2,239.4c-0.6,0.4,0.4,3.8-2,5.9c-1.5-1-3.3-1.6-5.2-1.6c-1.9,0-3.7,0.6-5.2,1.5c-2.4-2-1.4-5.5-2-5.9
			c-1-0.6-2.8,3-2.6,5.2c0.1,1.2,0.4,3,1.3,4.4c-0.7,1.3-1,2.7-1,4.3c0,5.3,4.3,9.6,9.6,9.6s9.6-4.3,9.6-9.6c0-1.5-0.4-3-1-4.3
			c0.9-1.4,1.2-3.2,1.3-4.4C-178.4,242.3-180.2,238.8-181.2,239.4 M-188.4,260.7c-4.1,0-7.4-3.3-7.4-7.5c0-4.1,3.3-7.4,7.4-7.4
			c4.1,0,7.5,3.3,7.5,7.4C-180.9,257.4-184.3,260.7-188.4,260.7"/>
	</g>
</g>
</svg>
