<?xml version="1.0" encoding="utf-8"?>
<!-- Generator: Adobe Illustrator 23.0.6, SVG Export Plug-In . SVG Version: 6.00 Build 0)  -->
<svg version="1.1" id="Layer_1" xmlns="http://www.w3.org/2000/svg" xmlns:xlink="http://www.w3.org/1999/xlink" x="0px" y="0px"
	 viewBox="0 0 80 80" style="enable-background:new 0 0 80 80;" xml:space="preserve">
<style type="text/css">
	.st0{fill:#FFFFFF;}
</style>
<g>
	<path class="st0" d="M71.5,26.8c2.2-5.3,2.2-16.1-0.7-24.4c-0.8-1.5-3-1-3.1,0.6v0.6c-0.5,7.9-3.4,12.2-7.7,14.3
		c-0.7,0.3-1.8,0.3-2.5-0.2c-5.1-3.2-11.1-5.1-17.6-5.1s-12.5,1.9-17.6,5.1c-0.7,0.4-1.5,0.5-2.2,0.2c-4.4-1.6-7.4-6.4-7.9-14.4V2.9
		c-0.1-1.6-2.4-2.1-3.1-0.6c-2.9,8.4-2.8,19.2-0.7,24.5c1.1,2.6,1.1,5.6,0.2,8.3c-1.2,3.4-1.8,7.2-1.7,11
		c0.4,17.4,15.2,32.2,32.6,32.5c18.4,0.2,33.4-14.6,33.4-33c0-3.7-0.6-7.2-1.7-10.5C70.3,32.4,70.4,29.4,71.5,26.8z M39.5,70.7
		c-13.4-0.3-24.4-11.2-24.6-24.6c-0.3-14.3,11.3-25.9,25.5-25.6C53.8,20.7,64.8,31.7,65,45.1C65.3,59.3,53.7,70.9,39.5,70.7z"/>
	<path class="st0" d="M43.8,42.9l-5.9-9.1c-0.9-1.5-2.9-1.9-4.4-1c-0.9,0.6-1.5,1.6-1.5,2.7c0,0.6,0.2,1.2,0.5,1.7l4,6.2
		c0.3,0.5,0.2,1.1-0.1,1.5l-6.2,6.8C29,53,29.1,55,30.4,56.2c0.6,0.5,1.4,0.8,2.2,0.8c0.9,0,1.7-0.4,2.3-1l4.6-5.4
		c0.4-0.4,1-0.4,1.3,0.1l3.3,4.7c0.2,0.4,0.5,0.7,0.9,0.9c1.1,0.8,2.5,0.8,3.6,0.1c0.9-0.6,1.5-1.6,1.5-2.7c0-0.6-0.2-1.2-0.5-1.7
		L43.8,42.9z"/>
</g>
</svg>
