<svg width="100%" viewBox="0 0 693 281" fill="none" xmlns="http://www.w3.org/2000/svg">
<rect x="1" y="1" width="691" height="279" rx="3" fill="#E2E8F0"/>
<g filter="url(#filter0_d_318_22815)">
<rect x="316.271" y="113.743" width="53.7472" height="53.5135" rx="3.5" fill="white" shape-rendering="crispEdges"/>
<g clip-path="url(#clip0_318_22815)">
<path d="M354.764 136.672C355.476 134.521 355.049 130.225 353.667 128.639C353.487 128.432 353.148 128.462 352.998 128.69L351.296 131.279C350.874 131.798 350.116 131.916 349.548 131.555C347.702 130.385 345.495 129.703 343.124 129.703C340.752 129.703 338.546 130.385 336.7 131.555C336.132 131.916 335.374 131.795 334.952 131.279L333.25 128.69C333.1 128.462 332.761 128.432 332.581 128.639C331.199 130.225 330.771 134.521 331.484 136.672C331.719 137.386 331.786 138.142 331.646 138.879C331.508 139.608 331.367 140.491 331.367 141.102C331.367 147.395 336.633 152.5 343.124 152.5C349.618 152.5 354.88 147.398 354.88 141.102C354.88 140.488 354.743 139.608 354.602 138.879C354.462 138.142 354.529 137.386 354.764 136.672ZM343.124 149.952C338.106 149.952 334.023 145.993 334.023 141.128C334.023 140.968 334.029 140.811 334.035 140.654C334.219 137.339 336.294 134.503 339.234 133.152C340.413 132.607 341.733 132.305 343.124 132.305C344.514 132.305 345.835 132.61 347.017 133.155C349.957 134.506 352.032 137.342 352.216 140.654C352.225 140.811 352.228 140.968 352.228 141.128C352.225 145.993 348.142 149.952 343.124 149.952Z" fill="black"/>
<path d="M347.066 144.524L344.741 140.616L342.745 137.356C342.699 137.279 342.614 137.232 342.519 137.232H340.612C340.517 137.232 340.432 137.282 340.386 137.359C340.34 137.439 340.34 137.537 340.389 137.614L342.296 140.725L339.735 144.512C339.683 144.589 339.677 144.69 339.723 144.773C339.768 144.856 339.857 144.906 339.952 144.906H341.871C341.96 144.906 342.042 144.861 342.091 144.79L343.475 142.693L344.716 144.778C344.762 144.858 344.851 144.906 344.942 144.906H346.834C346.929 144.906 347.014 144.858 347.06 144.778C347.115 144.698 347.115 144.604 347.066 144.524Z" fill="black"/>
</g>
</g>
<rect x="30.5" y="30.5" width="167.213" height="47.5676" rx="3.5" fill="#CBD5E1"/>
<path d="M49.039 52.3151H46.6724L47.5461 49.6531C47.6281 49.3414 47.3923 49.0338 47.0703 49.0338H44.1172C43.8711 49.0338 43.6619 49.2163 43.6291 49.4604L42.9728 54.3823C42.9339 54.6776 43.1635 54.9401 43.4609 54.9401H45.8952L44.9498 58.9288C44.8759 59.2406 45.1138 59.5338 45.4276 59.5338C45.5999 59.5338 45.7639 59.4436 45.8542 59.2877L49.4635 53.0533C49.6543 52.7273 49.4184 52.3151 49.039 52.3151Z" fill="#94A3B8"/>
<path d="M59.486 54.852H59.342V58.488H57.602V50.088H60.266C61.17 50.088 61.846 50.288 62.294 50.688C62.742 51.08 62.966 51.644 62.966 52.38C62.966 52.828 62.81 53.24 62.498 53.616C62.186 53.984 61.806 54.196 61.358 54.252C61.678 54.34 61.926 54.488 62.102 54.696C62.278 54.896 62.462 55.224 62.654 55.68L63.842 58.488H62.054L60.89 55.8C60.722 55.416 60.542 55.164 60.35 55.044C60.166 54.916 59.878 54.852 59.486 54.852ZM60.218 51.456H59.342V53.484H60.098C60.418 53.484 60.666 53.38 60.842 53.172C61.026 52.964 61.118 52.708 61.118 52.404C61.118 51.772 60.818 51.456 60.218 51.456ZM69.8365 58.5H64.8325V50.1H69.8365V51.48H66.5725V53.244H69.5365V54.648H66.5725V57.12H69.8365V58.5ZM76.0404 50.4L75.7524 51.804L75.0084 51.6C74.4804 51.48 74.0204 51.42 73.6284 51.42C73.0844 51.42 72.8124 51.68 72.8124 52.2C72.8124 52.4 72.9044 52.584 73.0884 52.752C73.2804 52.912 73.5204 53.048 73.8084 53.16C74.0964 53.264 74.4044 53.396 74.7324 53.556C75.0604 53.716 75.3684 53.888 75.6564 54.072C75.9444 54.256 76.1804 54.508 76.3644 54.828C76.5564 55.148 76.6524 55.516 76.6524 55.932C76.6524 56.756 76.3844 57.404 75.8484 57.876C75.3204 58.34 74.5724 58.572 73.6044 58.572C73.1084 58.572 72.6124 58.508 72.1164 58.38C71.6284 58.244 71.2244 58.088 70.9044 57.912L71.4204 56.628C72.1564 56.964 72.8844 57.132 73.6044 57.132C74.0124 57.132 74.3324 57.04 74.5644 56.856C74.7964 56.664 74.9124 56.42 74.9124 56.124C74.9124 55.828 74.7804 55.584 74.5164 55.392C74.2524 55.192 73.9324 55.016 73.5564 54.864C73.1804 54.704 72.8044 54.528 72.4284 54.336C72.0524 54.136 71.7324 53.86 71.4684 53.508C71.2044 53.148 71.0724 52.724 71.0724 52.236C71.0724 51.508 71.3004 50.952 71.7564 50.568C72.2124 50.176 72.8244 49.98 73.5924 49.98C74.3684 49.98 75.1844 50.12 76.0404 50.4ZM79.2658 58.5V51.504H77.3338V50.1H82.9018V51.504H80.9938V58.5H79.2658ZM91.9966 58.5H86.9926V50.1H91.9966V51.48H88.7326V53.244H91.6966V54.648H88.7326V57.12H91.9966V58.5ZM98.7045 58.5H97.1205V54.912C97.1205 54.584 97.0565 54.32 96.9285 54.12C96.8005 53.912 96.5885 53.808 96.2925 53.808C95.9965 53.808 95.6285 53.992 95.1885 54.36V58.5H93.6165V52.5H94.9365L95.1885 53.04C95.5325 52.784 95.8285 52.612 96.0765 52.524C96.3325 52.428 96.6285 52.38 96.9645 52.38C97.5005 52.38 97.9245 52.56 98.2365 52.92C98.5485 53.272 98.7045 53.796 98.7045 54.492V58.5ZM105.196 58.5H104.02L103.78 57.816C103.108 58.32 102.496 58.572 101.944 58.572C101.4 58.572 100.948 58.316 100.588 57.804C100.236 57.284 100.06 56.52 100.06 55.512C100.06 54.496 100.26 53.72 100.66 53.184C101.068 52.648 101.6 52.38 102.256 52.38C102.688 52.38 103.152 52.58 103.648 52.98V50.1H105.196V58.5ZM103.636 56.652V54.264C103.212 53.912 102.856 53.736 102.568 53.736C102.28 53.736 102.048 53.884 101.872 54.18C101.704 54.476 101.62 54.916 101.62 55.5C101.62 56.62 101.924 57.18 102.532 57.18C102.844 57.18 103.212 57.004 103.636 56.652ZM108.712 61.344H107.152V52.5H108.34L108.628 53.136C108.924 52.888 109.192 52.7 109.432 52.572C109.68 52.444 109.956 52.38 110.26 52.38C110.924 52.38 111.428 52.656 111.772 53.208C112.124 53.76 112.3 54.532 112.3 55.524C112.3 56.516 112.076 57.276 111.628 57.804C111.18 58.324 110.652 58.584 110.044 58.584C109.604 58.584 109.16 58.392 108.712 58.008V61.344ZM108.712 54.348V56.544C108.968 56.96 109.284 57.168 109.66 57.168C110.044 57.168 110.308 57.032 110.452 56.76C110.604 56.488 110.68 56.072 110.68 55.512C110.68 54.952 110.6 54.52 110.44 54.216C110.28 53.912 110.08 53.76 109.84 53.76C109.496 53.76 109.12 53.956 108.712 54.348ZM118.658 55.512C118.658 56.472 118.414 57.224 117.926 57.768C117.438 58.312 116.746 58.584 115.85 58.584C114.954 58.584 114.274 58.312 113.81 57.768C113.346 57.224 113.114 56.468 113.114 55.5C113.114 54.532 113.346 53.772 113.81 53.22C114.274 52.66 114.942 52.38 115.814 52.38C116.686 52.38 117.378 52.664 117.89 53.232C118.402 53.792 118.658 54.552 118.658 55.512ZM117.062 55.488C117.062 54.264 116.67 53.652 115.886 53.652C115.086 53.652 114.686 54.26 114.686 55.476C114.686 56.692 115.09 57.3 115.898 57.3C116.33 57.3 116.63 57.148 116.798 56.844C116.974 56.532 117.062 56.08 117.062 55.488ZM121.543 51.6H119.983V50.1H121.543V51.6ZM121.543 58.5H119.983V52.5H121.543V58.5ZM128.529 58.5H126.945V54.912C126.945 54.584 126.881 54.32 126.753 54.12C126.625 53.912 126.413 53.808 126.117 53.808C125.821 53.808 125.453 53.992 125.013 54.36V58.5H123.441V52.5H124.761L125.013 53.04C125.357 52.784 125.653 52.612 125.901 52.524C126.157 52.428 126.453 52.38 126.789 52.38C127.325 52.38 127.749 52.56 128.061 52.92C128.373 53.272 128.529 53.796 128.529 54.492V58.5ZM130.412 57.204V53.82H129.8V52.5H130.424V50.784H131.972V52.5H133.232V53.82H131.96V56.436C131.96 56.972 132.124 57.24 132.452 57.24C132.636 57.24 132.832 57.216 133.04 57.168L133.292 58.416C132.924 58.52 132.532 58.572 132.116 58.572C131.708 58.572 131.32 58.468 130.952 58.26C130.592 58.044 130.412 57.692 130.412 57.204ZM134.512 56.904C135.048 57.176 135.596 57.312 136.156 57.312C136.724 57.312 137.008 57.104 137.008 56.688C137.008 56.304 136.688 56.02 136.048 55.836C135.776 55.764 135.504 55.68 135.232 55.584C134.968 55.48 134.74 55.316 134.548 55.092C134.364 54.86 134.272 54.564 134.272 54.204C134.272 53.62 134.452 53.172 134.812 52.86C135.172 52.54 135.672 52.38 136.312 52.38C136.96 52.38 137.572 52.492 138.148 52.716L137.896 53.964C137.368 53.748 136.852 53.64 136.348 53.64C135.996 53.64 135.82 53.76 135.82 54C135.82 54.248 136.056 54.436 136.528 54.564C137.024 54.692 137.464 54.876 137.848 55.116C138.048 55.236 138.216 55.416 138.352 55.656C138.488 55.896 138.556 56.184 138.556 56.52C138.556 57.152 138.344 57.652 137.92 58.02C137.496 58.388 136.912 58.572 136.168 58.572C135.424 58.572 134.76 58.4 134.176 58.056L134.512 56.904Z" fill="#94A3B8"/>
<rect x="360.715" y="106.5" width="24" height="24" rx="12" fill="white"/>
<path d="M367.223 121.596L367.726 121.869L373.332 112.767L372.828 112.495L367.223 121.596Z" fill="#E535AB"/>
<path d="M378.318 120.869H367.108V121.414H378.318V120.869Z" fill="#E535AB"/>
<path d="M367.33 121.175L372.937 124.21L373.228 123.739L367.62 120.703L367.33 121.175Z" fill="#E535AB"/>
<path d="M372.201 113.265L377.808 116.3L378.099 115.828L372.491 112.793L372.201 113.265Z" fill="#E535AB"/>
<path d="M367.331 115.826L367.622 116.298L373.229 113.263L372.939 112.791L367.331 115.826Z" fill="#E535AB"/>
<path d="M372.099 112.767L377.705 121.869L378.208 121.596L372.602 112.495L372.099 112.767Z" fill="#E535AB"/>
<path d="M368.133 115.465H367.552V121.535H368.133V115.465Z" fill="#E535AB"/>
<path d="M377.877 115.465H377.296V121.535H377.877V115.465Z" fill="#E535AB"/>
<path d="M372.584 123.568L372.838 123.98L377.715 121.34L377.461 120.928L372.584 123.568Z" fill="#E535AB"/>
<path d="M378.647 121.712C378.311 122.26 377.562 122.447 376.978 122.132C376.393 121.817 376.194 121.115 376.53 120.567C376.866 120.019 377.615 119.832 378.199 120.147C378.787 120.465 378.987 121.164 378.647 121.712Z" fill="#E535AB"/>
<path d="M368.896 116.433C368.56 116.981 367.811 117.168 367.227 116.853C366.642 116.538 366.443 115.836 366.779 115.288C367.115 114.74 367.864 114.553 368.448 114.868C369.033 115.186 369.232 115.885 368.896 116.433Z" fill="#E535AB"/>
<path d="M366.782 121.712C366.446 121.164 366.646 120.465 367.23 120.147C367.815 119.832 368.56 120.019 368.9 120.567C369.236 121.115 369.036 121.814 368.452 122.132C367.864 122.447 367.118 122.26 366.782 121.712Z" fill="#E535AB"/>
<path d="M376.533 116.433C376.197 115.885 376.397 115.186 376.981 114.868C377.566 114.553 378.311 114.74 378.651 115.288C378.987 115.836 378.787 116.535 378.203 116.853C377.618 117.168 376.869 116.981 376.533 116.433Z" fill="#E535AB"/>
<path d="M372.715 124.925C372.039 124.925 371.493 124.413 371.493 123.78C371.493 123.146 372.039 122.634 372.715 122.634C373.39 122.634 373.936 123.146 373.936 123.78C373.936 124.41 373.39 124.925 372.715 124.925Z" fill="#E535AB"/>
<path d="M372.715 114.366C372.039 114.366 371.493 113.854 371.493 113.22C371.493 112.587 372.039 112.075 372.715 112.075C373.39 112.075 373.936 112.587 373.936 113.22C373.936 113.854 373.39 114.366 372.715 114.366Z" fill="#E535AB"/>
<rect x="360.715" y="106.5" width="24" height="24" rx="12" stroke="#E2E8F0" stroke-width="2"/>
<rect x="30.5" y="202.932" width="167.213" height="47.5676" rx="3.5" fill="#CBD5E1"/>
<path d="M48.875 222.123C48.875 221.949 48.8059 221.782 48.6828 221.659C48.5597 221.535 48.3928 221.466 48.2188 221.466C48.0447 221.466 47.8778 221.535 47.7547 221.659C47.6316 221.782 47.5625 221.949 47.5625 222.123V224.091H48.875V222.123ZM49.8594 224.748H42.6406C42.5536 224.748 42.4701 224.782 42.4086 224.844C42.3471 224.905 42.3125 224.989 42.3125 225.076V225.732C42.3125 225.819 42.3471 225.902 42.4086 225.964C42.4701 226.025 42.5536 226.06 42.6406 226.06H42.9688V226.716C42.9689 227.473 43.2302 228.206 43.7085 228.792C44.1868 229.378 44.8527 229.78 45.5938 229.932V231.966H46.9062V229.932C47.6473 229.78 48.3132 229.378 48.7915 228.792C49.2698 228.206 49.5311 227.473 49.5312 226.716V226.06H49.8594C49.9464 226.06 50.0299 226.025 50.0914 225.964C50.1529 225.902 50.1875 225.819 50.1875 225.732V225.076C50.1875 224.989 50.1529 224.905 50.0914 224.844C50.0299 224.782 49.9464 224.748 49.8594 224.748ZM44.9375 222.123C44.9375 221.949 44.8684 221.782 44.7453 221.659C44.6222 221.535 44.4553 221.466 44.2812 221.466C44.1072 221.466 43.9403 221.535 43.8172 221.659C43.6941 221.782 43.625 221.949 43.625 222.123V224.091H44.9375V222.123Z" fill="#94A3B8"/>
<path d="M61.094 231.004C59.862 231.004 58.882 230.612 58.154 229.828C57.426 229.044 57.062 228 57.062 226.696C57.062 225.384 57.406 224.344 58.094 223.576C58.79 222.8 59.754 222.412 60.986 222.412C61.802 222.412 62.63 222.556 63.47 222.844L63.254 224.188C62.95 224.076 62.554 223.984 62.066 223.912C61.578 223.832 61.198 223.792 60.926 223.792C60.262 223.792 59.742 224.048 59.366 224.56C58.99 225.064 58.802 225.748 58.802 226.612C58.802 227.476 59.002 228.196 59.402 228.772C59.81 229.34 60.33 229.624 60.962 229.624C61.33 229.624 61.666 229.544 61.97 229.384V227.752H60.578V226.372H63.71V230.356C62.87 230.788 61.998 231.004 61.094 231.004ZM67.0518 226.948V230.932H65.4798V224.932H66.7278L66.8718 225.52C67.1918 225.264 67.4598 225.084 67.6758 224.98C67.8918 224.868 68.0798 224.812 68.2398 224.812C68.4078 224.812 68.5198 224.816 68.5758 224.824C68.6318 224.824 68.6798 224.828 68.7198 224.836C68.7598 224.844 68.8278 224.86 68.9238 224.884L68.7798 226.312C68.6358 226.264 68.4398 226.24 68.1918 226.24C67.8558 226.24 67.4758 226.476 67.0518 226.948ZM73.3473 230.932L73.1073 230.332C72.8273 230.588 72.5793 230.768 72.3633 230.872C72.1473 230.968 71.8873 231.016 71.5833 231.016C71.0713 231.016 70.6233 230.84 70.2393 230.488C69.8633 230.128 69.6753 229.652 69.6753 229.06C69.6753 228.468 69.9073 228.004 70.3713 227.668C70.8353 227.324 71.5353 227.152 72.4713 227.152H72.9633C72.9633 226.808 72.8793 226.532 72.7113 226.324C72.5513 226.116 72.3033 226.012 71.9673 226.012C71.3833 226.012 70.7913 226.092 70.1913 226.252L69.9273 225.196C70.7193 224.94 71.5153 224.812 72.3153 224.812C73.7713 224.812 74.4993 225.492 74.4993 226.852V230.932H73.3473ZM72.9393 228.304H72.4233C71.9753 228.304 71.6713 228.364 71.5113 228.484C71.3513 228.604 71.2713 228.78 71.2713 229.012C71.2713 229.236 71.3313 229.42 71.4513 229.564C71.5713 229.708 71.7273 229.78 71.9193 229.78C72.1913 229.78 72.5313 229.564 72.9393 229.132V228.304ZM77.7625 233.776H76.2025V224.932H77.3905L77.6785 225.568C77.9745 225.32 78.2425 225.132 78.4825 225.004C78.7305 224.876 79.0065 224.812 79.3105 224.812C79.9745 224.812 80.4785 225.088 80.8225 225.64C81.1745 226.192 81.3505 226.964 81.3505 227.956C81.3505 228.948 81.1265 229.708 80.6785 230.236C80.2305 230.756 79.7025 231.016 79.0945 231.016C78.6545 231.016 78.2105 230.824 77.7625 230.44V233.776ZM77.7625 226.78V228.976C78.0185 229.392 78.3345 229.6 78.7105 229.6C79.0945 229.6 79.3585 229.464 79.5025 229.192C79.6545 228.92 79.7305 228.504 79.7305 227.944C79.7305 227.384 79.6505 226.952 79.4905 226.648C79.3305 226.344 79.1305 226.192 78.8905 226.192C78.5465 226.192 78.1705 226.388 77.7625 226.78ZM87.8293 230.932H86.2693V227.344C86.2693 227.016 86.2053 226.752 86.0773 226.552C85.9493 226.344 85.7333 226.24 85.4293 226.24C85.1253 226.24 84.7533 226.424 84.3133 226.792V230.932H82.7533V222.532H84.3133V225.472C84.6573 225.216 84.9533 225.044 85.2013 224.956C85.4573 224.86 85.7533 224.812 86.0893 224.812C86.6253 224.812 87.0493 224.992 87.3613 225.352C87.6733 225.704 87.8293 226.228 87.8293 226.924V230.932ZM95.4968 229.6L96.6128 230.752L95.6648 231.7L94.5248 230.488C94.0368 230.84 93.4088 231.016 92.6408 231.016C91.8728 231.016 91.2168 230.812 90.6728 230.404C89.6328 229.644 89.1128 228.4 89.1128 226.672C89.1128 225.416 89.4128 224.392 90.0128 223.6C90.6208 222.808 91.5088 222.412 92.6768 222.412C93.8528 222.412 94.7448 222.808 95.3528 223.6C95.9608 224.392 96.2648 225.404 96.2648 226.636C96.2648 227.86 96.0088 228.848 95.4968 229.6ZM93.8288 227.836L94.2128 228.304C94.4208 227.896 94.5248 227.324 94.5248 226.588C94.5248 225.844 94.3608 225.192 94.0328 224.632C93.7128 224.064 93.2528 223.78 92.6528 223.78C92.0528 223.78 91.6048 224.06 91.3088 224.62C91.0128 225.18 90.8648 225.872 90.8648 226.696C90.8648 227.52 91.0208 228.216 91.3328 228.784C91.6448 229.344 92.0968 229.624 92.6888 229.624C93.0008 229.624 93.2528 229.552 93.4448 229.408L92.8688 228.784L93.8288 227.836ZM102.449 230.932H97.4692V222.532H99.2092V229.552H102.449V230.932ZM110.845 222.832L110.557 224.236L109.813 224.032C109.285 223.912 108.825 223.852 108.433 223.852C107.889 223.852 107.617 224.112 107.617 224.632C107.617 224.832 107.709 225.016 107.893 225.184C108.085 225.344 108.325 225.48 108.613 225.592C108.901 225.696 109.209 225.828 109.537 225.988C109.865 226.148 110.173 226.32 110.461 226.504C110.749 226.688 110.985 226.94 111.169 227.26C111.361 227.58 111.457 227.948 111.457 228.364C111.457 229.188 111.189 229.836 110.653 230.308C110.125 230.772 109.377 231.004 108.409 231.004C107.913 231.004 107.417 230.94 106.921 230.812C106.433 230.676 106.029 230.52 105.709 230.344L106.225 229.06C106.961 229.396 107.689 229.564 108.409 229.564C108.817 229.564 109.137 229.472 109.369 229.288C109.601 229.096 109.717 228.852 109.717 228.556C109.717 228.26 109.585 228.016 109.321 227.824C109.057 227.624 108.737 227.448 108.361 227.296C107.985 227.136 107.609 226.96 107.233 226.768C106.857 226.568 106.537 226.292 106.273 225.94C106.009 225.58 105.877 225.156 105.877 224.668C105.877 223.94 106.105 223.384 106.561 223C107.017 222.608 107.629 222.412 108.397 222.412C109.173 222.412 109.989 222.552 110.845 222.832ZM117.238 230.56C116.478 230.856 115.774 231.004 115.126 231.004C113.246 231.004 112.306 229.988 112.306 227.956C112.306 226.924 112.534 226.144 112.99 225.616C113.446 225.08 114.11 224.812 114.982 224.812C115.702 224.812 116.278 225.036 116.71 225.484C117.142 225.932 117.358 226.596 117.358 227.476C117.358 227.828 117.342 228.136 117.31 228.4H113.842C113.842 228.872 113.97 229.22 114.226 229.444C114.482 229.668 114.826 229.78 115.258 229.78C115.69 229.78 116.262 229.684 116.974 229.492L117.238 230.56ZM115.858 227.296V227.212C115.858 226.844 115.778 226.548 115.618 226.324C115.458 226.1 115.206 225.988 114.862 225.988C114.518 225.988 114.262 226.112 114.094 226.36C113.926 226.608 113.838 226.92 113.83 227.296H115.858ZM120.384 226.948V230.932H118.812V224.932H120.06L120.204 225.52C120.524 225.264 120.792 225.084 121.008 224.98C121.224 224.868 121.412 224.812 121.572 224.812C121.74 224.812 121.852 224.816 121.908 224.824C121.964 224.824 122.012 224.828 122.052 224.836C122.092 224.844 122.16 224.86 122.256 224.884L122.112 226.312C121.968 226.264 121.772 226.24 121.524 226.24C121.188 226.24 120.808 226.476 120.384 226.948ZM128.095 224.932L126.187 230.932H124.435L122.539 224.932H124.159L125.323 229.372L126.499 224.932H128.095ZM130.589 224.032H129.029V222.532H130.589V224.032ZM130.589 230.932H129.029V224.932H130.589V230.932ZM136.208 229.624L136.4 230.704C135.704 230.904 135.152 231.004 134.744 231.004C133.752 231.004 133.036 230.744 132.596 230.224C132.156 229.704 131.936 228.948 131.936 227.956C131.936 226.956 132.164 226.184 132.62 225.64C133.076 225.088 133.74 224.812 134.612 224.812C135.124 224.812 135.708 224.908 136.364 225.1L135.8 226.192C135.36 226.056 134.996 225.988 134.708 225.988C134.42 225.988 134.192 226.044 134.024 226.156C133.864 226.268 133.748 226.428 133.676 226.636C133.556 226.98 133.496 227.452 133.496 228.052C133.496 228.644 133.62 229.08 133.868 229.36C134.116 229.64 134.476 229.78 134.948 229.78C135.42 229.78 135.84 229.728 136.208 229.624ZM142.012 230.56C141.252 230.856 140.548 231.004 139.9 231.004C138.02 231.004 137.08 229.988 137.08 227.956C137.08 226.924 137.308 226.144 137.764 225.616C138.22 225.08 138.884 224.812 139.756 224.812C140.476 224.812 141.052 225.036 141.484 225.484C141.916 225.932 142.132 226.596 142.132 227.476C142.132 227.828 142.116 228.136 142.084 228.4H138.616C138.616 228.872 138.744 229.22 139 229.444C139.256 229.668 139.6 229.78 140.032 229.78C140.464 229.78 141.036 229.684 141.748 229.492L142.012 230.56ZM140.632 227.296V227.212C140.632 226.844 140.552 226.548 140.392 226.324C140.232 226.1 139.98 225.988 139.636 225.988C139.292 225.988 139.036 226.112 138.868 226.36C138.7 226.608 138.612 226.92 138.604 227.296H140.632ZM143.477 229.336C144.013 229.608 144.561 229.744 145.121 229.744C145.689 229.744 145.973 229.536 145.973 229.12C145.973 228.736 145.653 228.452 145.013 228.268C144.741 228.196 144.469 228.112 144.197 228.016C143.933 227.912 143.705 227.748 143.513 227.524C143.329 227.292 143.237 226.996 143.237 226.636C143.237 226.052 143.417 225.604 143.777 225.292C144.137 224.972 144.637 224.812 145.277 224.812C145.925 224.812 146.537 224.924 147.113 225.148L146.861 226.396C146.333 226.18 145.817 226.072 145.313 226.072C144.961 226.072 144.785 226.192 144.785 226.432C144.785 226.68 145.021 226.868 145.493 226.996C145.989 227.124 146.429 227.308 146.813 227.548C147.013 227.668 147.181 227.848 147.317 228.088C147.453 228.328 147.521 228.616 147.521 228.952C147.521 229.584 147.309 230.084 146.885 230.452C146.461 230.82 145.877 231.004 145.133 231.004C144.389 231.004 143.725 230.832 143.141 230.488L143.477 229.336Z" fill="#94A3B8"/>
<path d="M201.713 226.716H269.922C283.177 226.716 293.922 215.971 293.922 202.716V158.848C293.922 148.715 302.137 140.5 312.271 140.5V140.5" stroke="#64748B" stroke-opacity="0.15" stroke-width="6" stroke-miterlimit="0" stroke-linecap="round" stroke-linejoin="bevel"/>
<g filter="url(#filter1_d_318_22815)">
<rect x="30.5" y="116.716" width="167.213" height="47.5676" rx="3.5" fill="white" shape-rendering="crispEdges"/>
<path d="M50.8438 136.75V137.687C50.8438 138.514 48.7861 139.188 46.25 139.188C43.7139 139.188 41.6562 138.514 41.6562 137.687V136.75C41.6562 135.924 43.7139 135.25 46.25 135.25C48.7861 135.25 50.8438 135.924 50.8438 136.75ZM50.8438 138.859V140.969C50.8438 141.795 48.7861 142.469 46.25 142.469C43.7139 142.469 41.6562 141.795 41.6562 140.969V138.859C42.6432 139.539 44.4496 139.855 46.25 139.855C48.0504 139.855 49.8568 139.539 50.8438 138.859ZM50.8438 142.141V144.25C50.8438 145.076 48.7861 145.75 46.25 145.75C43.7139 145.75 41.6562 145.076 41.6562 144.25V142.141C42.6432 142.82 44.4496 143.137 46.25 143.137C48.0504 143.137 49.8568 142.82 50.8438 142.141Z" fill="#0F172A"/>
<path d="M64.154 140.216C64.154 141.568 63.762 142.656 62.978 143.48C62.194 144.304 61.146 144.716 59.834 144.716H57.602V136.316H60.206C61.398 136.316 62.354 136.68 63.074 137.408C63.794 138.136 64.154 139.072 64.154 140.216ZM62.342 140.12C62.342 139.368 62.138 138.776 61.73 138.344C61.322 137.912 60.83 137.696 60.254 137.696H59.294V143.336H59.942C60.614 143.336 61.182 143.052 61.646 142.484C62.11 141.908 62.342 141.12 62.342 140.12ZM68.6715 144.716L68.4315 144.116C68.1515 144.372 67.9035 144.552 67.6875 144.656C67.4715 144.752 67.2115 144.8 66.9075 144.8C66.3955 144.8 65.9475 144.624 65.5635 144.272C65.1875 143.912 64.9995 143.436 64.9995 142.844C64.9995 142.252 65.2315 141.788 65.6955 141.452C66.1595 141.108 66.8595 140.936 67.7955 140.936H68.2875C68.2875 140.592 68.2035 140.316 68.0355 140.108C67.8755 139.9 67.6275 139.796 67.2915 139.796C66.7075 139.796 66.1155 139.876 65.5155 140.036L65.2515 138.98C66.0435 138.724 66.8395 138.596 67.6395 138.596C69.0955 138.596 69.8235 139.276 69.8235 140.636V144.716H68.6715ZM68.2635 142.088H67.7475C67.2995 142.088 66.9955 142.148 66.8355 142.268C66.6755 142.388 66.5955 142.564 66.5955 142.796C66.5955 143.02 66.6555 143.204 66.7755 143.348C66.8955 143.492 67.0515 143.564 67.2435 143.564C67.5155 143.564 67.8555 143.348 68.2635 142.916V142.088ZM71.4667 143.42V140.036H70.8547V138.716H71.4787V137H73.0267V138.716H74.2867V140.036H73.0147V142.652C73.0147 143.188 73.1787 143.456 73.5067 143.456C73.6907 143.456 73.8867 143.432 74.0947 143.384L74.3467 144.632C73.9787 144.736 73.5867 144.788 73.1707 144.788C72.7627 144.788 72.3747 144.684 72.0067 144.476C71.6467 144.26 71.4667 143.908 71.4667 143.42ZM78.8551 144.716L78.6151 144.116C78.3351 144.372 78.0871 144.552 77.8711 144.656C77.6551 144.752 77.3951 144.8 77.0911 144.8C76.5791 144.8 76.1311 144.624 75.7471 144.272C75.3711 143.912 75.1831 143.436 75.1831 142.844C75.1831 142.252 75.4151 141.788 75.8791 141.452C76.3431 141.108 77.0431 140.936 77.9791 140.936H78.4711C78.4711 140.592 78.3871 140.316 78.2191 140.108C78.0591 139.9 77.8111 139.796 77.4751 139.796C76.8911 139.796 76.2991 139.876 75.6991 140.036L75.4351 138.98C76.2271 138.724 77.0231 138.596 77.8231 138.596C79.2791 138.596 80.0071 139.276 80.0071 140.636V144.716H78.8551ZM78.4471 142.088H77.9311C77.4831 142.088 77.1791 142.148 77.0191 142.268C76.8591 142.388 76.7791 142.564 76.7791 142.796C76.7791 143.02 76.8391 143.204 76.9591 143.348C77.0791 143.492 77.2351 143.564 77.4271 143.564C77.6991 143.564 78.0391 143.348 78.4471 142.916V142.088ZM84.8663 138.596C85.4823 138.596 85.9743 138.86 86.3423 139.388C86.7183 139.908 86.9063 140.664 86.9063 141.656C86.9063 142.64 86.6943 143.396 86.2703 143.924C85.8463 144.452 85.3023 144.716 84.6383 144.716C84.1263 144.716 83.6223 144.492 83.1263 144.044L82.8983 144.716H81.7103V136.316H83.2703V139.268C83.8863 138.82 84.4183 138.596 84.8663 138.596ZM85.3703 141.656C85.3703 140.544 85.0343 139.988 84.3623 139.988C84.0583 139.988 83.6943 140.168 83.2703 140.528V142.844C83.6943 143.204 84.0543 143.384 84.3503 143.384C84.6543 143.384 84.8983 143.24 85.0823 142.952C85.2743 142.664 85.3703 142.232 85.3703 141.656ZM91.3708 144.716L91.1308 144.116C90.8508 144.372 90.6028 144.552 90.3867 144.656C90.1708 144.752 89.9108 144.8 89.6068 144.8C89.0948 144.8 88.6468 144.624 88.2628 144.272C87.8868 143.912 87.6988 143.436 87.6988 142.844C87.6988 142.252 87.9308 141.788 88.3948 141.452C88.8588 141.108 89.5588 140.936 90.4948 140.936H90.9868C90.9868 140.592 90.9028 140.316 90.7348 140.108C90.5748 139.9 90.3268 139.796 89.9908 139.796C89.4068 139.796 88.8148 139.876 88.2148 140.036L87.9508 138.98C88.7428 138.724 89.5388 138.596 90.3388 138.596C91.7948 138.596 92.5228 139.276 92.5228 140.636V144.716H91.3708ZM90.9628 142.088H90.4468C89.9988 142.088 89.6948 142.148 89.5348 142.268C89.3748 142.388 89.2948 142.564 89.2948 142.796C89.2948 143.02 89.3548 143.204 89.4748 143.348C89.5948 143.492 89.7508 143.564 89.9428 143.564C90.2148 143.564 90.5548 143.348 90.9628 142.916V142.088ZM94.1179 143.12C94.6539 143.392 95.2019 143.528 95.7619 143.528C96.3299 143.528 96.6139 143.32 96.6139 142.904C96.6139 142.52 96.2939 142.236 95.6539 142.052C95.3819 141.98 95.1099 141.896 94.8379 141.8C94.5739 141.696 94.3459 141.532 94.1539 141.308C93.9699 141.076 93.8779 140.78 93.8779 140.42C93.8779 139.836 94.0579 139.388 94.4179 139.076C94.7779 138.756 95.2779 138.596 95.9179 138.596C96.5659 138.596 97.1779 138.708 97.7539 138.932L97.5019 140.18C96.9739 139.964 96.4579 139.856 95.9539 139.856C95.6019 139.856 95.4259 139.976 95.4259 140.216C95.4259 140.464 95.6619 140.652 96.1339 140.78C96.6299 140.908 97.0699 141.092 97.4539 141.332C97.6539 141.452 97.8219 141.632 97.9579 141.872C98.0939 142.112 98.1619 142.4 98.1619 142.736C98.1619 143.368 97.9499 143.868 97.5259 144.236C97.1019 144.604 96.5179 144.788 95.7739 144.788C95.0299 144.788 94.3659 144.616 93.7819 144.272L94.1179 143.12ZM103.926 144.344C103.166 144.64 102.462 144.788 101.814 144.788C99.9339 144.788 98.9939 143.772 98.9939 141.74C98.9939 140.708 99.2219 139.928 99.6779 139.4C100.134 138.864 100.798 138.596 101.67 138.596C102.39 138.596 102.966 138.82 103.398 139.268C103.83 139.716 104.046 140.38 104.046 141.26C104.046 141.612 104.03 141.92 103.998 142.184H100.53C100.53 142.656 100.658 143.004 100.914 143.228C101.17 143.452 101.514 143.564 101.946 143.564C102.378 143.564 102.95 143.468 103.662 143.276L103.926 144.344ZM102.546 141.08V140.996C102.546 140.628 102.466 140.332 102.306 140.108C102.146 139.884 101.894 139.772 101.55 139.772C101.206 139.772 100.95 139.896 100.782 140.144C100.614 140.392 100.526 140.704 100.518 141.08H102.546ZM105.391 143.12C105.927 143.392 106.475 143.528 107.035 143.528C107.603 143.528 107.887 143.32 107.887 142.904C107.887 142.52 107.567 142.236 106.927 142.052C106.655 141.98 106.383 141.896 106.111 141.8C105.847 141.696 105.619 141.532 105.427 141.308C105.243 141.076 105.151 140.78 105.151 140.42C105.151 139.836 105.331 139.388 105.691 139.076C106.051 138.756 106.551 138.596 107.191 138.596C107.839 138.596 108.451 138.708 109.027 138.932L108.775 140.18C108.247 139.964 107.731 139.856 107.227 139.856C106.875 139.856 106.699 139.976 106.699 140.216C106.699 140.464 106.935 140.652 107.407 140.78C107.903 140.908 108.343 141.092 108.727 141.332C108.927 141.452 109.095 141.632 109.231 141.872C109.367 142.112 109.435 142.4 109.435 142.736C109.435 143.368 109.223 143.868 108.799 144.236C108.375 144.604 107.791 144.788 107.047 144.788C106.303 144.788 105.639 144.616 105.055 144.272L105.391 143.12Z" fill="#0F172A"/>
</g>
<g filter="url(#filter2_d_318_22815)">
<rect x="487.761" y="116.716" width="167" height="47.5676" rx="3.5" fill="white" shape-rendering="crispEdges"/>
<path d="M507.886 129.833H499.136C498.653 129.833 498.261 130.225 498.261 130.708V136.542C498.261 137.025 498.653 137.417 499.136 137.417H502.636L502.345 138.292H501.032C500.79 138.292 500.595 138.487 500.595 138.729C500.595 138.972 500.79 139.167 501.032 139.167H505.991C506.233 139.167 506.428 138.972 506.428 138.729C506.428 138.487 506.233 138.292 505.991 138.292H504.678L504.386 137.417H507.886C508.37 137.417 508.761 137.025 508.761 136.542V130.708C508.761 130.225 508.37 129.833 507.886 129.833ZM507.595 136.25H499.428V131H507.595V136.25Z" fill="#0F172A"/>
<path d="M518.163 139.072C516.939 139.072 515.999 138.688 515.343 137.92C514.695 137.144 514.371 136.096 514.371 134.776C514.371 133.456 514.715 132.412 515.403 131.644C516.099 130.876 517.063 130.492 518.295 130.492C518.967 130.492 519.635 130.608 520.299 130.84L519.963 132.184C519.475 131.976 518.899 131.872 518.235 131.872C517.571 131.872 517.051 132.124 516.675 132.628C516.299 133.132 516.111 133.828 516.111 134.716C516.111 135.604 516.287 136.324 516.639 136.876C516.991 137.42 517.487 137.692 518.127 137.692C518.607 137.692 519.291 137.536 520.179 137.224L520.539 138.448C519.811 138.864 519.019 139.072 518.163 139.072ZM523.551 139H521.991V130.6H523.551V139ZM527.124 132.1H525.564V130.6H527.124V132.1ZM527.124 139H525.564V133H527.124V139ZM533.391 138.628C532.631 138.924 531.927 139.072 531.279 139.072C529.399 139.072 528.459 138.056 528.459 136.024C528.459 134.992 528.687 134.212 529.143 133.684C529.599 133.148 530.263 132.88 531.135 132.88C531.855 132.88 532.431 133.104 532.863 133.552C533.295 134 533.511 134.664 533.511 135.544C533.511 135.896 533.495 136.204 533.463 136.468H529.995C529.995 136.94 530.123 137.288 530.379 137.512C530.635 137.736 530.979 137.848 531.411 137.848C531.843 137.848 532.415 137.752 533.127 137.56L533.391 138.628ZM532.011 135.364V135.28C532.011 134.912 531.931 134.616 531.771 134.392C531.611 134.168 531.359 134.056 531.015 134.056C530.671 134.056 530.415 134.18 530.247 134.428C530.079 134.676 529.991 134.988 529.983 135.364H532.011ZM540.052 139H538.468V135.412C538.468 135.084 538.404 134.82 538.276 134.62C538.148 134.412 537.936 134.308 537.64 134.308C537.344 134.308 536.976 134.492 536.536 134.86V139H534.964V133H536.284L536.536 133.54C536.88 133.284 537.176 133.112 537.424 133.024C537.68 132.928 537.976 132.88 538.312 132.88C538.848 132.88 539.272 133.06 539.584 133.42C539.896 133.772 540.052 134.296 540.052 134.992V139ZM541.935 137.704V134.32H541.323V133H541.947V131.284H543.495V133H544.755V134.32H543.483V136.936C543.483 137.472 543.647 137.74 543.975 137.74C544.159 137.74 544.355 137.716 544.563 137.668L544.815 138.916C544.447 139.02 544.055 139.072 543.639 139.072C543.231 139.072 542.843 138.968 542.475 138.76C542.115 138.544 541.935 138.192 541.935 137.704ZM546.036 137.404C546.572 137.676 547.12 137.812 547.68 137.812C548.248 137.812 548.532 137.604 548.532 137.188C548.532 136.804 548.212 136.52 547.572 136.336C547.3 136.264 547.028 136.18 546.756 136.084C546.492 135.98 546.264 135.816 546.072 135.592C545.888 135.36 545.796 135.064 545.796 134.704C545.796 134.12 545.976 133.672 546.336 133.36C546.696 133.04 547.196 132.88 547.836 132.88C548.484 132.88 549.096 132.992 549.672 133.216L549.42 134.464C548.892 134.248 548.376 134.14 547.872 134.14C547.52 134.14 547.344 134.26 547.344 134.5C547.344 134.748 547.58 134.936 548.052 135.064C548.548 135.192 548.988 135.376 549.372 135.616C549.572 135.736 549.74 135.916 549.876 136.156C550.012 136.396 550.08 136.684 550.08 137.02C550.08 137.652 549.868 138.152 549.444 138.52C549.02 138.888 548.436 139.072 547.692 139.072C546.948 139.072 546.284 138.9 545.7 138.556L546.036 137.404Z" fill="#0F172A"/>
<path d="M519.671 152H518.831L518.131 149.79H515.621L514.931 152H514.141L516.441 145H517.351L519.671 152ZM517.961 149.14L516.891 145.76L515.811 149.14H517.961ZM521.462 154.38H520.712V147.01H521.152L521.412 147.57C521.692 147.357 521.952 147.193 522.192 147.08C522.439 146.96 522.709 146.9 523.002 146.9C524.202 146.9 524.802 147.763 524.802 149.49C524.802 150.47 524.589 151.153 524.162 151.54C523.782 151.893 523.349 152.07 522.862 152.07C522.382 152.07 521.916 151.91 521.462 151.59V154.38ZM521.462 148.24V150.91C521.596 151.07 521.776 151.197 522.002 151.29C522.229 151.383 522.446 151.43 522.652 151.43C523.172 151.43 523.536 151.277 523.742 150.97C523.949 150.663 524.052 150.183 524.052 149.53C524.052 148.877 523.949 148.383 523.742 148.05C523.536 147.717 523.272 147.55 522.952 147.55C522.739 147.55 522.526 147.593 522.312 147.68C522.106 147.767 521.949 147.85 521.842 147.93C521.742 148.003 521.616 148.107 521.462 148.24ZM526.921 154.38H526.171V147.01H526.611L526.871 147.57C527.151 147.357 527.411 147.193 527.651 147.08C527.898 146.96 528.168 146.9 528.461 146.9C529.661 146.9 530.261 147.763 530.261 149.49C530.261 150.47 530.048 151.153 529.621 151.54C529.241 151.893 528.808 152.07 528.321 152.07C527.841 152.07 527.375 151.91 526.921 151.59V154.38ZM526.921 148.24V150.91C527.055 151.07 527.235 151.197 527.461 151.29C527.688 151.383 527.905 151.43 528.111 151.43C528.631 151.43 528.995 151.277 529.201 150.97C529.408 150.663 529.511 150.183 529.511 149.53C529.511 148.877 529.408 148.383 529.201 148.05C528.995 147.717 528.731 147.55 528.411 147.55C528.198 147.55 527.985 147.593 527.771 147.68C527.565 147.767 527.408 147.85 527.301 147.93C527.201 148.003 527.075 148.107 526.921 148.24ZM531.44 151.11C531.874 151.31 532.287 151.41 532.68 151.41C533.074 151.41 533.37 151.333 533.57 151.18C533.777 151.02 533.88 150.81 533.88 150.55C533.88 150.29 533.794 150.09 533.62 149.95C533.447 149.803 533.234 149.69 532.98 149.61C532.734 149.53 532.484 149.443 532.23 149.35C531.984 149.257 531.774 149.117 531.6 148.93C531.427 148.743 531.34 148.507 531.34 148.22C531.34 147.8 531.477 147.477 531.75 147.25C532.024 147.017 532.394 146.9 532.86 146.9C533.327 146.9 533.76 146.97 534.16 147.11L534.23 147.14L534.1 147.78C533.7 147.627 533.327 147.55 532.98 147.55C532.64 147.55 532.407 147.603 532.28 147.71C532.154 147.817 532.09 147.997 532.09 148.25C532.09 148.41 532.177 148.547 532.35 148.66C532.524 148.773 532.734 148.873 532.98 148.96C533.234 149.04 533.484 149.137 533.73 149.25C533.984 149.357 534.197 149.52 534.37 149.74C534.544 149.96 534.63 150.23 534.63 150.55C534.63 151.017 534.467 151.387 534.14 151.66C533.814 151.927 533.364 152.06 532.79 152.06C532.217 152.06 531.707 151.93 531.26 151.67L531.44 151.11ZM536.946 151.13L535.816 153.72L535.326 153.56L536.196 150.89L536.946 151.13ZM542.697 149.06H541.677V152H540.927V145H542.927C543.674 145 544.214 145.163 544.547 145.49C544.887 145.817 545.057 146.327 545.057 147.02C545.057 147.707 544.851 148.22 544.437 148.56C544.024 148.893 543.444 149.06 542.697 149.06ZM542.587 145.64H541.677V148.42H542.337C543.024 148.42 543.524 148.317 543.837 148.11C544.151 147.903 544.307 147.55 544.307 147.05C544.307 146.543 544.171 146.183 543.897 145.97C543.624 145.75 543.187 145.64 542.587 145.64ZM546.337 152V145H547.087V152H546.337ZM551.066 149.01H551.476C551.476 148.403 551.399 148.01 551.246 147.83C551.093 147.643 550.753 147.55 550.226 147.55C549.699 147.55 549.253 147.62 548.886 147.76L548.746 147.18C549.306 146.993 549.886 146.9 550.486 146.9C551.659 146.9 552.246 147.487 552.246 148.66V152H551.806L551.546 151.41C551.239 151.663 550.973 151.837 550.746 151.93C550.526 152.017 550.269 152.06 549.976 152.06C549.509 152.06 549.146 151.923 548.886 151.65C548.626 151.37 548.496 151.003 548.496 150.55C548.496 149.523 549.353 149.01 551.066 149.01ZM551.486 149.64H551.036C550.356 149.64 549.886 149.707 549.626 149.84C549.373 149.973 549.246 150.183 549.246 150.47C549.246 150.75 549.319 150.98 549.466 151.16C549.613 151.34 549.803 151.43 550.036 151.43C550.276 151.43 550.503 151.377 550.716 151.27C550.936 151.157 551.193 150.963 551.486 150.69V149.64ZM554.182 150.92V147.6H553.502V147H554.192V145.57H554.942V147H556.162V147.6H554.932V150.78C554.932 151.227 555.159 151.45 555.612 151.45C555.719 151.45 555.882 151.43 556.102 151.39L556.212 151.93C555.939 152.017 555.655 152.06 555.362 152.06C555.075 152.06 554.805 151.973 554.552 151.8C554.305 151.62 554.182 151.327 554.182 150.92ZM557.739 147V146.04C557.739 145.633 557.862 145.343 558.109 145.17C558.362 144.99 558.632 144.9 558.919 144.9C559.212 144.9 559.496 144.943 559.769 145.03L559.659 145.57C559.439 145.53 559.276 145.51 559.169 145.51C558.709 145.51 558.479 145.733 558.479 146.18V147H559.499V147.6H558.479V152H557.729V147.6H556.959V147H557.739ZM563.519 149.54C563.519 148.893 563.393 148.4 563.139 148.06C562.886 147.72 562.516 147.55 562.029 147.55C561.543 147.55 561.196 147.713 560.989 148.04C560.789 148.36 560.689 148.853 560.689 149.52C560.689 150.78 561.153 151.41 562.079 151.41C562.566 151.41 562.926 151.26 563.159 150.96C563.399 150.653 563.519 150.18 563.519 149.54ZM563.699 151.38C563.319 151.833 562.783 152.06 562.089 152.06C561.396 152.06 560.863 151.837 560.489 151.39C560.123 150.937 559.939 150.307 559.939 149.5C559.939 148.687 560.116 148.05 560.469 147.59C560.829 147.13 561.353 146.9 562.039 146.9C562.733 146.9 563.276 147.133 563.669 147.6C564.069 148.067 564.269 148.7 564.269 149.5C564.269 150.3 564.079 150.927 563.699 151.38ZM566.355 148.18V152H565.605V147H566.085L566.205 147.59C566.525 147.337 566.792 147.16 567.005 147.06C567.218 146.953 567.462 146.9 567.735 146.9C567.868 146.9 567.968 146.907 568.035 146.92L568.175 146.96L568.055 147.65C567.935 147.61 567.772 147.59 567.565 147.59C567.165 147.59 566.762 147.787 566.355 148.18ZM571.426 146.89C572.066 146.89 572.523 147.117 572.796 147.57C573.363 147.117 573.886 146.89 574.366 146.89C574.846 146.89 575.236 147.027 575.536 147.3C575.843 147.567 575.996 147.957 575.996 148.47V152H575.266V148.78C575.266 148.373 575.173 148.067 574.986 147.86C574.806 147.647 574.563 147.54 574.256 147.54C573.836 147.54 573.413 147.707 572.986 148.04C573.019 148.187 573.036 148.33 573.036 148.47V152H572.306V148.78C572.306 148.373 572.213 148.067 572.026 147.86C571.846 147.647 571.603 147.54 571.296 147.54C571.096 147.54 570.913 147.567 570.746 147.62C570.579 147.673 570.456 147.727 570.376 147.78C570.296 147.833 570.193 147.913 570.066 148.02V152H569.316V147H569.796L569.926 147.51C570.093 147.37 570.219 147.27 570.306 147.21C570.399 147.143 570.549 147.073 570.756 147C570.963 146.927 571.186 146.89 571.426 146.89ZM577.622 151.11C578.055 151.31 578.469 151.41 578.862 151.41C579.255 151.41 579.552 151.333 579.752 151.18C579.959 151.02 580.062 150.81 580.062 150.55C580.062 150.29 579.975 150.09 579.802 149.95C579.629 149.803 579.415 149.69 579.162 149.61C578.915 149.53 578.665 149.443 578.412 149.35C578.165 149.257 577.955 149.117 577.782 148.93C577.609 148.743 577.522 148.507 577.522 148.22C577.522 147.8 577.659 147.477 577.932 147.25C578.205 147.017 578.575 146.9 579.042 146.9C579.509 146.9 579.942 146.97 580.342 147.11L580.412 147.14L580.282 147.78C579.882 147.627 579.509 147.55 579.162 147.55C578.822 147.55 578.589 147.603 578.462 147.71C578.335 147.817 578.272 147.997 578.272 148.25C578.272 148.41 578.359 148.547 578.532 148.66C578.705 148.773 578.915 148.873 579.162 148.96C579.415 149.04 579.665 149.137 579.912 149.25C580.165 149.357 580.379 149.52 580.552 149.74C580.725 149.96 580.812 150.23 580.812 150.55C580.812 151.017 580.649 151.387 580.322 151.66C579.995 151.927 579.545 152.06 578.972 152.06C578.399 152.06 577.889 151.93 577.442 151.67L577.622 151.11ZM583.128 151.13L581.998 153.72L581.508 153.56L582.378 150.89L583.128 151.13ZM590.629 145.25L590.469 145.92L589.889 145.75C589.476 145.65 589.119 145.6 588.819 145.6C588.032 145.6 587.639 145.95 587.639 146.65C587.639 146.957 587.759 147.21 587.999 147.41C588.239 147.603 588.529 147.76 588.869 147.88C589.216 147.993 589.559 148.12 589.899 148.26C590.246 148.393 590.539 148.603 590.779 148.89C591.019 149.17 591.139 149.527 591.139 149.96C591.139 150.62 590.936 151.137 590.529 151.51C590.122 151.877 589.546 152.06 588.799 152.06C588.426 152.06 588.049 152.007 587.669 151.9C587.296 151.787 586.989 151.657 586.749 151.51L586.999 150.94C587.606 151.22 588.179 151.36 588.719 151.36C589.266 151.36 589.679 151.25 589.959 151.03C590.246 150.81 590.389 150.49 590.389 150.07C590.389 149.643 590.159 149.31 589.699 149.07C589.492 148.963 589.262 148.863 589.009 148.77C588.762 148.677 588.512 148.577 588.259 148.47C588.012 148.357 587.786 148.23 587.579 148.09C587.379 147.95 587.212 147.76 587.079 147.52C586.952 147.28 586.889 147 586.889 146.68C586.889 146.107 587.059 145.667 587.399 145.36C587.746 145.053 588.209 144.9 588.789 144.9C589.369 144.9 589.982 145.017 590.629 145.25ZM596.087 149.66H592.897C592.897 150.3 593.047 150.753 593.347 151.02C593.653 151.287 594.037 151.42 594.497 151.42C594.73 151.42 594.893 151.41 594.987 151.39C595.08 151.363 595.167 151.34 595.247 151.32C595.333 151.293 595.393 151.273 595.427 151.26C595.593 151.213 595.737 151.17 595.857 151.13L595.977 151.71C595.31 151.943 594.79 152.06 594.417 152.06C593.73 152.06 593.18 151.853 592.767 151.44C592.353 151.02 592.147 150.393 592.147 149.56C592.147 148.72 592.34 148.067 592.727 147.6C593.12 147.133 593.613 146.9 594.207 146.9C594.807 146.9 595.273 147.093 595.607 147.48C595.94 147.867 596.107 148.39 596.107 149.05C596.107 149.23 596.1 149.433 596.087 149.66ZM592.947 149.09H595.387C595.387 148.597 595.3 148.217 595.127 147.95C594.953 147.683 594.65 147.55 594.217 147.55C593.79 147.55 593.477 147.693 593.277 147.98C593.077 148.267 592.967 148.637 592.947 149.09ZM598.259 148.18V152H597.509V147H597.989L598.109 147.59C598.429 147.337 598.696 147.16 598.909 147.06C599.123 146.953 599.366 146.9 599.639 146.9C599.773 146.9 599.873 146.907 599.939 146.92L600.079 146.96L599.959 147.65C599.839 147.61 599.676 147.59 599.469 147.59C599.069 147.59 598.666 147.787 598.259 148.18ZM604.65 146.99L602.96 152H602.1L600.42 146.99H601.27L602.54 151.2L603.82 146.99H604.65ZM605.533 152V147H606.283V152H605.533ZM606.283 145V145.89H605.533V145H606.283ZM610.889 151.22L611.039 151.81C610.505 151.97 610.035 152.05 609.629 152.05C608.915 152.05 608.379 151.817 608.019 151.35C607.659 150.883 607.479 150.24 607.479 149.42C607.479 148.6 607.665 147.977 608.039 147.55C608.412 147.117 608.962 146.9 609.689 146.9C610.002 146.9 610.442 146.98 611.009 147.14L610.709 147.72C610.342 147.613 610.012 147.56 609.719 147.56C609.212 147.56 608.845 147.71 608.619 148.01C608.399 148.31 608.289 148.783 608.289 149.43C608.289 150.743 608.759 151.4 609.699 151.4C610.072 151.4 610.469 151.34 610.889 151.22ZM615.745 149.66H612.555C612.555 150.3 612.705 150.753 613.005 151.02C613.312 151.287 613.695 151.42 614.155 151.42C614.388 151.42 614.552 151.41 614.645 151.39C614.738 151.363 614.825 151.34 614.905 151.32C614.992 151.293 615.052 151.273 615.085 151.26C615.252 151.213 615.395 151.17 615.515 151.13L615.635 151.71C614.968 151.943 614.448 152.06 614.075 152.06C613.388 152.06 612.838 151.853 612.425 151.44C612.012 151.02 611.805 150.393 611.805 149.56C611.805 148.72 611.998 148.067 612.385 147.6C612.778 147.133 613.272 146.9 613.865 146.9C614.465 146.9 614.932 147.093 615.265 147.48C615.598 147.867 615.765 148.39 615.765 149.05C615.765 149.23 615.758 149.433 615.745 149.66ZM612.605 149.09H615.045C615.045 148.597 614.958 148.217 614.785 147.95C614.612 147.683 614.308 147.55 613.875 147.55C613.448 147.55 613.135 147.693 612.935 147.98C612.735 148.267 612.625 148.637 612.605 149.09ZM616.978 151.11C617.411 151.31 617.824 151.41 618.218 151.41C618.611 151.41 618.908 151.333 619.108 151.18C619.314 151.02 619.418 150.81 619.418 150.55C619.418 150.29 619.331 150.09 619.158 149.95C618.984 149.803 618.771 149.69 618.518 149.61C618.271 149.53 618.021 149.443 617.768 149.35C617.521 149.257 617.311 149.117 617.138 148.93C616.964 148.743 616.878 148.507 616.878 148.22C616.878 147.8 617.014 147.477 617.288 147.25C617.561 147.017 617.931 146.9 618.398 146.9C618.864 146.9 619.298 146.97 619.698 147.11L619.768 147.14L619.638 147.78C619.238 147.627 618.864 147.55 618.518 147.55C618.178 147.55 617.944 147.603 617.818 147.71C617.691 147.817 617.628 147.997 617.628 148.25C617.628 148.41 617.714 148.547 617.888 148.66C618.061 148.773 618.271 148.873 618.518 148.96C618.771 149.04 619.021 149.137 619.268 149.25C619.521 149.357 619.734 149.52 619.908 149.74C620.081 149.96 620.168 150.23 620.168 150.55C620.168 151.017 620.004 151.387 619.678 151.66C619.351 151.927 618.901 152.06 618.328 152.06C617.754 152.06 617.244 151.93 616.798 151.67L616.978 151.11Z" fill="#0F172A"/>
</g>
<path d="M201.713 54.2838H269.922C283.177 54.2838 293.922 65.029 293.922 78.2838V122.152C293.922 132.285 302.137 140.5 312.271 140.5V140.5" stroke="#64748B" stroke-opacity="0.15" stroke-width="6" stroke-miterlimit="0" stroke-linecap="round" stroke-linejoin="bevel"/>
<path d="M201.713 140.5H312.271" stroke="#EDD79C" stroke-width="6" stroke-miterlimit="0" stroke-linecap="round" stroke-linejoin="bevel"/>
<path d="M374.018 140.5H483.762" stroke="#F9C548" stroke-opacity="0.5" stroke-width="6" stroke-miterlimit="0" stroke-linecap="round" stroke-linejoin="bevel"/>
<path d="M204.952 140.5C204.952 141.317 204.287 141.982 203.464 141.982C202.641 141.982 201.976 141.317 201.976 140.5C201.976 139.683 202.641 139.018 203.464 139.018C204.287 139.018 204.952 139.683 204.952 140.5Z" fill="#F59E0B" stroke="#F59E0B"/>
<path d="M215.887 140.5C215.887 141.317 215.222 141.982 214.398 141.982C213.575 141.982 212.91 141.317 212.91 140.5C212.91 139.683 213.575 139.018 214.398 139.018C215.222 139.018 215.887 139.683 215.887 140.5Z" fill="#F59E0B" stroke="#F59E0B"/>
<path d="M226.821 140.5C226.821 141.317 226.156 141.982 225.333 141.982C224.51 141.982 223.845 141.317 223.845 140.5C223.845 139.683 224.51 139.018 225.333 139.018C226.156 139.018 226.821 139.683 226.821 140.5Z" fill="#F59E0B" stroke="#F59E0B"/>
<path d="M237.756 140.5C237.756 141.317 237.091 141.982 236.268 141.982C235.444 141.982 234.78 141.317 234.78 140.5C234.78 139.683 235.444 139.018 236.268 139.018C237.091 139.018 237.756 139.683 237.756 140.5Z" fill="#F59E0B" stroke="#F59E0B"/>
<path d="M248.69 140.5C248.69 141.317 248.026 141.982 247.202 141.982C246.379 141.982 245.714 141.317 245.714 140.5C245.714 139.683 246.379 139.018 247.202 139.018C248.026 139.018 248.69 139.683 248.69 140.5Z" fill="#F59E0B" stroke="#F59E0B"/>
<path d="M259.625 140.5C259.625 141.317 258.96 141.982 258.137 141.982C257.313 141.982 256.648 141.317 256.648 140.5C256.648 139.683 257.313 139.018 258.137 139.018C258.96 139.018 259.625 139.683 259.625 140.5Z" fill="#F59E0B" stroke="#F59E0B"/>
<path d="M270.559 140.5C270.559 141.317 269.895 141.982 269.071 141.982C268.248 141.982 267.583 141.317 267.583 140.5C267.583 139.683 268.248 139.018 269.071 139.018C269.895 139.018 270.559 139.683 270.559 140.5Z" fill="#F59E0B" stroke="#F59E0B"/>
<path d="M281.494 140.5C281.494 141.317 280.829 141.982 280.005 141.982C279.182 141.982 278.517 141.317 278.517 140.5C278.517 139.683 279.182 139.018 280.005 139.018C280.829 139.018 281.494 139.683 281.494 140.5Z" fill="#F59E0B" stroke="#F59E0B"/>
<path d="M292.428 140.5C292.428 141.317 291.764 141.982 290.94 141.982C290.117 141.982 289.452 141.317 289.452 140.5C289.452 139.683 290.117 139.018 290.94 139.018C291.764 139.018 292.428 139.683 292.428 140.5Z" fill="#F59E0B" stroke="#F59E0B"/>
<path d="M303.363 140.5C303.363 141.317 302.698 141.982 301.875 141.982C301.052 141.982 300.387 141.317 300.387 140.5C300.387 139.683 301.052 139.018 301.875 139.018C302.698 139.018 303.363 139.683 303.363 140.5Z" fill="#F59E0B" stroke="#F59E0B"/>
<path d="M313.303 140.5C313.303 141.317 312.639 141.982 311.815 141.982C310.992 141.982 310.327 141.317 310.327 140.5C310.327 139.683 310.992 139.018 311.815 139.018C312.639 139.018 313.303 139.683 313.303 140.5Z" fill="#F59E0B" stroke="#F59E0B"/>
<path d="M375.928 140.5C375.928 141.317 375.263 141.982 374.44 141.982C373.617 141.982 372.952 141.317 372.952 140.5C372.952 139.683 373.617 139.018 374.44 139.018C375.263 139.018 375.928 139.683 375.928 140.5Z" fill="#F59E0B" stroke="#F59E0B"/>
<path d="M386.863 140.5C386.863 141.317 386.198 141.982 385.375 141.982C384.551 141.982 383.886 141.317 383.886 140.5C383.886 139.683 384.551 139.018 385.375 139.018C386.198 139.018 386.863 139.683 386.863 140.5Z" fill="#F59E0B" stroke="#F59E0B"/>
<path d="M397.797 140.5C397.797 141.317 397.133 141.982 396.309 141.982C395.486 141.982 394.821 141.317 394.821 140.5C394.821 139.683 395.486 139.018 396.309 139.018C397.133 139.018 397.797 139.683 397.797 140.5Z" fill="#F59E0B" stroke="#F59E0B"/>
<path d="M408.732 140.5C408.732 141.317 408.067 141.982 407.243 141.982C406.42 141.982 405.755 141.317 405.755 140.5C405.755 139.683 406.42 139.018 407.243 139.018C408.067 139.018 408.732 139.683 408.732 140.5Z" fill="#F59E0B" stroke="#F59E0B"/>
<path d="M419.666 140.5C419.666 141.317 419.002 141.982 418.178 141.982C417.355 141.982 416.69 141.317 416.69 140.5C416.69 139.683 417.355 139.018 418.178 139.018C419.002 139.018 419.666 139.683 419.666 140.5Z" fill="#F59E0B" stroke="#F59E0B"/>
<path d="M430.601 140.5C430.601 141.317 429.936 141.982 429.113 141.982C428.289 141.982 427.625 141.317 427.625 140.5C427.625 139.683 428.289 139.018 429.113 139.018C429.936 139.018 430.601 139.683 430.601 140.5Z" fill="#F59E0B" stroke="#F59E0B"/>
<path d="M441.535 140.5C441.535 141.317 440.87 141.982 440.047 141.982C439.224 141.982 438.559 141.317 438.559 140.5C438.559 139.683 439.224 139.018 440.047 139.018C440.87 139.018 441.535 139.683 441.535 140.5Z" fill="#F59E0B" stroke="#F59E0B"/>
<path d="M452.47 140.5C452.47 141.317 451.805 141.982 450.982 141.982C450.158 141.982 449.494 141.317 449.494 140.5C449.494 139.683 450.158 139.018 450.982 139.018C451.805 139.018 452.47 139.683 452.47 140.5Z" fill="#F59E0B" stroke="#F59E0B"/>
<path d="M463.404 140.5C463.404 141.317 462.74 141.982 461.916 141.982C461.093 141.982 460.428 141.317 460.428 140.5C460.428 139.683 461.093 139.018 461.916 139.018C462.74 139.018 463.404 139.683 463.404 140.5Z" fill="#F59E0B" stroke="#F59E0B"/>
<path d="M474.339 140.5C474.339 141.317 473.674 141.982 472.851 141.982C472.027 141.982 471.363 141.317 471.363 140.5C471.363 139.683 472.027 139.018 472.851 139.018C473.674 139.018 474.339 139.683 474.339 140.5Z" fill="#F59E0B" stroke="#F59E0B"/>
<path d="M484.279 140.5C484.279 141.317 483.614 141.982 482.791 141.982C481.968 141.982 481.303 141.317 481.303 140.5C481.303 139.683 481.968 139.018 482.791 139.018C483.614 139.018 484.279 139.683 484.279 140.5Z" fill="#F59E0B" stroke="#F59E0B"/>
<rect x="1" y="1" width="691" height="279" rx="3" stroke="#CBD5E1"/>
<defs>
<filter id="filter0_d_318_22815" x="314.271" y="112.743" width="57.7471" height="57.5135" filterUnits="userSpaceOnUse" color-interpolation-filters="sRGB">
<feFlood flood-opacity="0" result="BackgroundImageFix"/>
<feColorMatrix in="SourceAlpha" type="matrix" values="0 0 0 0 0 0 0 0 0 0 0 0 0 0 0 0 0 0 127 0" result="hardAlpha"/>
<feOffset dy="1"/>
<feGaussianBlur stdDeviation="1"/>
<feComposite in2="hardAlpha" operator="out"/>
<feColorMatrix type="matrix" values="0 0 0 0 0 0 0 0 0 0 0 0 0 0 0 0 0 0 0.05 0"/>
<feBlend mode="normal" in2="BackgroundImageFix" result="effect1_dropShadow_318_22815"/>
<feBlend mode="normal" in="SourceGraphic" in2="effect1_dropShadow_318_22815" result="shape"/>
</filter>
<filter id="filter1_d_318_22815" x="28.5" y="115.716" width="171.213" height="51.5676" filterUnits="userSpaceOnUse" color-interpolation-filters="sRGB">
<feFlood flood-opacity="0" result="BackgroundImageFix"/>
<feColorMatrix in="SourceAlpha" type="matrix" values="0 0 0 0 0 0 0 0 0 0 0 0 0 0 0 0 0 0 127 0" result="hardAlpha"/>
<feOffset dy="1"/>
<feGaussianBlur stdDeviation="1"/>
<feComposite in2="hardAlpha" operator="out"/>
<feColorMatrix type="matrix" values="0 0 0 0 0 0 0 0 0 0 0 0 0 0 0 0 0 0 0.05 0"/>
<feBlend mode="normal" in2="BackgroundImageFix" result="effect1_dropShadow_318_22815"/>
<feBlend mode="normal" in="SourceGraphic" in2="effect1_dropShadow_318_22815" result="shape"/>
</filter>
<filter id="filter2_d_318_22815" x="485.761" y="115.716" width="171" height="51.5676" filterUnits="userSpaceOnUse" color-interpolation-filters="sRGB">
<feFlood flood-opacity="0" result="BackgroundImageFix"/>
<feColorMatrix in="SourceAlpha" type="matrix" values="0 0 0 0 0 0 0 0 0 0 0 0 0 0 0 0 0 0 127 0" result="hardAlpha"/>
<feOffset dy="1"/>
<feGaussianBlur stdDeviation="1"/>
<feComposite in2="hardAlpha" operator="out"/>
<feColorMatrix type="matrix" values="0 0 0 0 0 0 0 0 0 0 0 0 0 0 0 0 0 0 0.05 0"/>
<feBlend mode="normal" in2="BackgroundImageFix" result="effect1_dropShadow_318_22815"/>
<feBlend mode="normal" in="SourceGraphic" in2="effect1_dropShadow_318_22815" result="shape"/>
</filter>
<clipPath id="clip0_318_22815">
<rect width="24" height="24" fill="white" transform="translate(331.144 128.5)"/>
</clipPath>
</defs>
</svg>
