<svg id="Layer_1" xmlns="http://www.w3.org/2000/svg" viewBox="-334 486 30 30"><style>.st0{fill:#fff}.st1{fill:#ffc627}.st2{fill:#232323}</style><g id="Layer_2"><g id="Layer_2_1_"><circle id="XMLID_118_" class="st0" cx="-319" cy="501" r="15"/></g></g><g id="Layer_1_1_"><g id="XMLID_120_"><circle id="XMLID_108_" class="st1" cx="-319.1" cy="503.1" r="7.4"/><path id="XMLID_107_" class="st2" d="M-316.1 505.3l-2.8-5.5c-.3-.5-.8-.6-1.3-.5-.5.3-.6.8-.5 1.3l1.2 2.2-2 2c-.4.4-.4 1 0 1.4.2.2.5.3.6.3.3 0 .5-.1.6-.3l1.7-1.7.6 1.4c.2.4.6.6.8.6.2 0 .3 0 .5-.1.7 0 .9-.5.6-1.1"/><path id="XMLID_121_" class="st2" d="M-312.4 490.3c-.6.4.4 3.5-1.8 5.5-1.4-.9-3.1-1.5-4.8-1.5-1.8 0-3.4.6-4.8 1.4-2.2-1.8-1.3-5.1-1.8-5.5-.9-.6-2.6 2.8-2.4 4.8.1 1.1.4 2.8 1.2 4.1-.6 1.2-.9 2.5-.9 4 0 4.9 4 8.9 8.9 8.9s8.9-4 8.9-8.9c0-1.4-.4-2.8-.9-4 .8-1.3 1.1-3 1.2-4.1-.2-2.1-1.9-5.3-2.8-4.7m-6.7 19.7c-3.8 0-6.8-3.1-6.8-6.9 0-3.8 3.1-6.8 6.8-6.8s6.9 3.1 6.9 6.8c0 3.8-3.1 6.9-6.9 6.9"/></g></g></svg>