<?xml version="1.0" encoding="utf-8"?>
<!-- Generator: Adobe Illustrator 22.1.0, SVG Export Plug-In . SVG Version: 6.00 Build 0)  -->
<svg version="1.1" id="Layer_1" xmlns="http://www.w3.org/2000/svg" xmlns:xlink="http://www.w3.org/1999/xlink" x="0px" y="0px"
	 viewBox="0 0 66 66" style="enable-background:new 0 0 66 66;" xml:space="preserve">
<style type="text/css">
	.st0{fill:#0AD4EF;}
	.st1{fill:#FFFFFF;}
</style>
<g id="Layer_1_1_">
	<title>Discord</title>
	<desc>Created with Sketch.</desc>
	<g id="Page-1">
		<g id="Hasura_Jun29-Update" transform="translate(-1157.000000, -872.000000)">
			<g id="Group-6" transform="translate(1066.000000, 872.000000)">
				<g id="Discord" transform="translate(91.000000, 0.000000)">
					<g>
						<g id="Twitter-Copy">
							<path id="back" class="st0" d="M0,33C0,14.8,14.8,0,33,0s33,14.8,33,33S51.2,66,33,66S0,51.2,0,33z"/>
						</g>
					</g>
				</g>
			</g>
		</g>
	</g>
</g>
<g>
	<path class="st1" d="M16.3,20.7c-0.3,0-0.6,0.1-0.9,0.2l5.5,5.6l5.5,5.7l0.1,0.1l0.2,0.2l0.2,0.2l0.3,0.3l4.8,4.9
		c0.1,0,0.3,0.3,0.5,0.4c0.2,0.1,0.5,0.2,0.7,0.2c0.3,0,0.6-0.1,0.8-0.2c0.2-0.1,0.3-0.2,0.5-0.4l5.5-5.7l5.6-5.7l5.4-5.5
		c-0.3-0.2-0.7-0.3-1.1-0.3L16.3,20.7L16.3,20.7z M14.6,21.4c-0.6,0.6-1,1.4-1,2.3v18.5c0,0.8,0.2,1.5,0.6,2l0.8-0.7l5.7-5.6
		l5.1-4.9l-0.1-0.1l-5.6-5.7L14.6,21.4L14.6,21.4z M51.6,21.6l-5.4,5.6l-5.5,5.7L40.5,33l5.3,5.1l5.7,5.6l0.3,0.3
		c0.3-0.5,0.5-1.1,0.5-1.8V23.7C52.4,22.9,52.1,22.1,51.6,21.6L51.6,21.6z M26.5,33.7l-5.1,4.9l-5.7,5.6L15,44.9
		c0.4,0.2,0.8,0.4,1.3,0.4h33.5c0.6,0,1.1-0.2,1.5-0.6l-0.4-0.4l-5.7-5.6l-5.3-5.1l-4.8,4.9c-0.3,0.2-0.4,0.4-0.7,0.5
		c-0.4,0.2-0.8,0.3-1.3,0.3c-0.4,0-0.9-0.2-1.3-0.4c-0.2-0.1-0.3-0.2-0.5-0.4L26.5,33.7L26.5,33.7z"/>
</g>
</svg>
