<svg xmlns="http://www.w3.org/2000/svg" id="fire-alarm" width="22" height="24" viewBox="0 0 22 24">
    <defs>
        <style>
            .cls-1{fill:#454236}
        </style>
    </defs>
    <path id="Path_112" d="M8.081 0a8.081 8.081 0 1 0 8.081 8.081A8.082 8.082 0 0 0 8.081 0zm0 13.68a5.6 5.6 0 1 1 5.6-5.6 5.6 5.6 0 0 1-5.6 5.6z" class="cls-1" data-name="Path 112"/>
    <path id="Path_113" d="M226.232 234.2l.1-.064a1.882 1.882 0 0 1 1.037-.311 1.889 1.889 0 0 1 1.555.817l.513.746a2.812 2.812 0 0 0 .037-.455 2.736 2.736 0 1 0-3.345 2.667l-.5-.9a1.894 1.894 0 0 1-.186-1.369 1.862 1.862 0 0 1 .789-1.131z" class="cls-1" data-name="Path 113" transform="translate(-218.681 -226.523)"/>
    <path id="Path_114" d="M333.51 345.355a1.936 1.936 0 0 0-.049-.088l-1.814-3.245a.934.934 0 0 0-.814-.479.924.924 0 0 0-.215.024l-2.834.66c-1.491.35-2.91.68-2.91.68a.5.5 0 0 1-.105.012.47.47 0 0 1-.381-.2c-.149-.213-2.954-4.271-3.2-4.619a.934.934 0 0 0-.77-.4.912.912 0 0 0-.511.154l-.1.064a.936.936 0 0 0-.3 1.235l4.785 8.57a.24.24 0 0 1-.066.311.503.503 0 0 1-.034.022 1.974 1.974 0 0 1-.971.247 2.68 2.68 0 0 1-1.208-.308 1.052 1.052 0 0 0-1.274.257l-.12.139a1.056 1.056 0 0 0 .11 1.479 25.092 25.092 0 0 0 4.408 3.022 4.787 4.787 0 0 0 4.56-.056l1.914-1.071a4.762 4.762 0 0 0 1.899-6.41z" class="cls-1" data-name="Path 114" transform="translate(-312.075 -329.443)"/>
</svg>
