<?xml version="1.0" encoding="UTF-8" standalone="no"?>
<!DOCTYPE svg PUBLIC "-//W3C//DTD SVG 1.1//EN" "http://www.w3.org/Graphics/SVG/1.1/DTD/svg11.dtd">
<svg width="100%" height="100%" viewBox="0 0 412 61" version="1.1" xmlns="http://www.w3.org/2000/svg" xmlns:xlink="http://www.w3.org/1999/xlink" xml:space="preserve" xmlns:serif="http://www.serif.com/" style="fill-rule:evenodd;clip-rule:evenodd;">
    <g transform="matrix(1,0,0,1,-70.9756,-117.74)">
        <path d="M120.659,140.509C122.159,135.907 121.257,126.726 118.351,123.336C117.97,122.892 117.261,122.955 116.945,123.446L113.365,128.984C112.48,130.092 110.887,130.346 109.685,129.573C105.801,127.067 101.161,125.611 96.175,125.611C91.189,125.611 86.549,127.067 82.664,129.573C81.469,130.346 79.875,130.086 78.985,128.984L75.405,123.446C75.089,122.955 74.38,122.897 73.999,123.336C71.093,126.732 70.191,135.913 71.691,140.509C72.189,142.039 72.323,143.656 72.03,145.227C71.738,146.786 71.445,148.668 71.445,149.979C71.445,163.439 82.518,174.346 96.169,174.346C109.826,174.346 120.893,163.433 120.893,149.979C120.893,148.668 120.6,146.786 120.308,145.227C120.021,143.656 120.161,142.039 120.659,140.509ZM96.169,168.907C85.611,168.907 77.028,160.442 77.028,150.037C77.028,149.696 77.04,149.361 77.057,149.026C77.438,141.935 81.809,135.878 87.99,132.991C90.468,131.825 93.245,131.178 96.175,131.178C99.104,131.178 101.876,131.825 104.36,132.997C110.541,135.884 114.911,141.947 115.292,149.032C115.31,149.367 115.322,149.708 115.322,150.042C115.316,160.442 106.727,168.907 96.169,168.907Z" style="fill:rgb(30,180,212);fill-rule:nonzero;"/>
    </g>
    <g transform="matrix(1,0,0,1,-70.9756,-117.74)">
        <path d="M104.468,157.301L99.575,148.94L95.381,141.97C95.281,141.802 95.099,141.704 94.906,141.704L90.898,141.704C90.699,141.704 90.518,141.808 90.418,141.982C90.318,142.149 90.324,142.357 90.424,142.524L94.437,149.171L89.053,157.266C88.942,157.434 88.936,157.647 89.029,157.82C89.123,157.994 89.311,158.103 89.516,158.103L93.553,158.103C93.74,158.103 93.916,158.011 94.015,157.855L96.927,153.374L99.54,157.838C99.64,158.005 99.822,158.109 100.015,158.109L103.993,158.109C104.192,158.109 104.374,158.005 104.468,157.838C104.567,157.676 104.567,157.468 104.468,157.301Z" style="fill:rgb(30,180,212);fill-rule:nonzero;"/>
    </g>
    <g transform="matrix(1,0,0,1,-70.9756,-117.74)">
        <path d="M143.703,136.029L148.806,136.029L148.806,163.606L143.703,163.606L143.703,151.856L137.938,151.856L137.938,163.613L132.835,163.613L132.835,136.029L137.938,136.029L137.938,148.004L143.703,148.004L143.703,136.029Z" style="fill-rule:nonzero;"/>
    </g>
    <g transform="matrix(1,0,0,1,-70.9756,-117.74)">
        <path d="M164.544,163.612L163.477,157.884L157.355,157.884L156.377,163.612L151.273,163.612L156.904,136.034L163.776,136.034L169.676,163.612L164.544,163.612ZM158.023,154.079L162.769,154.079L160.331,140.879L158.023,154.079Z" style="fill-rule:nonzero;"/>
    </g>
    <g transform="matrix(1,0,0,1,-70.9756,-117.74)">
        <path d="M181.044,158.583L181.044,152.682C181.044,152.214 180.956,151.902 180.781,151.74C180.605,151.579 180.277,151.498 179.802,151.498L176.21,151.498C173.164,151.498 171.641,150.043 171.641,147.127L171.641,140.359C171.641,137.472 173.234,136.034 176.427,136.034L181.308,136.034C184.501,136.034 186.094,137.478 186.094,140.359L186.094,144.205L180.95,144.205L180.95,141.058C180.95,140.59 180.863,140.278 180.687,140.117C180.511,139.955 180.183,139.874 179.708,139.874L178.021,139.874C177.517,139.874 177.177,139.955 177.002,140.117C176.826,140.278 176.738,140.59 176.738,141.058L176.738,146.607C176.738,147.075 176.826,147.386 177.002,147.548C177.177,147.71 177.517,147.791 178.021,147.791L181.525,147.791C184.63,147.791 186.182,149.217 186.182,152.075L186.182,159.287C186.182,162.174 184.571,163.612 181.349,163.612L176.556,163.612C173.334,163.612 171.723,162.169 171.723,159.287L171.723,155.482L176.82,155.482L176.82,158.583C176.82,159.05 176.908,159.362 177.084,159.524C177.259,159.686 177.599,159.767 178.103,159.767L179.79,159.767C180.265,159.767 180.587,159.686 180.769,159.524C180.95,159.362 181.044,159.05 181.044,158.583Z" style="fill-rule:nonzero;"/>
    </g>
    <g transform="matrix(1,0,0,1,-70.9756,-117.74)">
        <path d="M199.794,136.029L204.891,136.029L204.891,159.282C204.891,162.169 203.28,163.607 200.058,163.607L194.65,163.607C191.428,163.607 189.816,162.163 189.816,159.282L189.816,136.029L194.919,136.029L194.919,158.583C194.919,159.051 195.007,159.362 195.183,159.524C195.359,159.686 195.687,159.767 196.162,159.767L198.511,159.767C199.015,159.767 199.355,159.686 199.53,159.524C199.706,159.362 199.794,159.051 199.794,158.583L199.794,136.029Z" style="fill-rule:nonzero;"/>
    </g>
    <g transform="matrix(1,0,0,1,-70.9756,-117.74)">
        <path d="M214.21,152.861L214.21,163.613L209.112,163.613L209.112,136.029L219.401,136.029C222.623,136.029 224.234,137.472 224.234,140.354L224.234,148.53C224.234,150.92 223.156,152.318 220.994,152.728L225.652,163.613L220.151,163.613L215.891,152.861L214.21,152.861ZM214.21,139.874L214.21,149.142L217.889,149.142C218.364,149.142 218.686,149.061 218.868,148.899C219.043,148.738 219.131,148.426 219.131,147.958L219.131,141.058C219.131,140.59 219.043,140.278 218.868,140.117C218.692,139.955 218.364,139.874 217.889,139.874L214.21,139.874Z" style="fill-rule:nonzero;"/>
    </g>
    <g transform="matrix(1,0,0,1,-70.9756,-117.74)">
        <path d="M239.666,163.612L238.599,157.884L232.477,157.884L231.498,163.612L226.401,163.612L232.032,136.034L238.904,136.034L244.804,163.612L239.666,163.612ZM233.151,154.079L237.896,154.079L235.459,140.879L233.151,154.079Z" style="fill-rule:nonzero;"/>
    </g>
    <g transform="matrix(1,0,0,1,-70.9756,-117.74)">
        <path d="M275.269,121.863L275.269,174.538" style="fill:none;fill-rule:nonzero;stroke:rgb(116,129,138);stroke-width:2px;"/>
    </g>
    <g transform="matrix(0.349279,0,0,0.349279,322.541,30.907)">
        <g transform="matrix(1,0,0,1,-256,-51.5)">
            <clipPath id="_clip1">
                <rect x="0" y="0" width="512" height="103"/>
            </clipPath>
            <g clip-path="url(#_clip1)">
                <g>
                    <path d="M136.397,81.057C132.028,81.057 127.823,80.47 123.781,79.296C119.74,78.122 116.381,76.497 113.705,74.422L117.801,65.329C123.372,69.206 129.625,71.145 136.561,71.145C140.165,71.145 142.937,70.558 144.876,69.384C146.814,68.209 147.784,66.585 147.784,64.509C147.784,62.653 146.896,61.205 145.121,60.168C143.346,59.13 140.192,58.12 135.66,57.137C130.58,56.099 126.525,54.843 123.494,53.368C120.463,51.894 118.252,50.078 116.859,47.921C115.466,45.763 114.77,43.101 114.77,39.933C114.77,36.438 115.739,33.325 117.678,30.595C119.617,27.864 122.334,25.72 125.829,24.164C129.324,22.607 133.366,21.829 137.953,21.829C142.049,21.829 145.995,22.43 149.791,23.631C153.586,24.833 156.604,26.444 158.843,28.465L154.747,37.558C149.449,33.68 143.879,31.741 138.035,31.741C134.704,31.741 132.082,32.383 130.171,33.667C128.259,34.95 127.304,36.711 127.304,38.95C127.304,40.261 127.672,41.34 128.41,42.186C129.147,43.033 130.376,43.784 132.096,44.439C133.816,45.094 136.26,45.777 139.428,46.487C146.855,48.125 152.194,50.228 155.443,52.795C158.693,55.362 160.317,58.912 160.317,63.444C160.317,68.906 158.215,73.207 154.01,76.347C149.804,79.487 143.933,81.057 136.397,81.057ZM189.972,71.882C191.229,71.882 192.539,71.8 193.905,71.636L193.249,80.648C191.665,80.866 190.082,80.975 188.498,80.975C182.381,80.975 177.917,79.637 175.104,76.961C172.291,74.285 170.885,70.217 170.885,64.755L170.885,49.354L163.267,49.354L163.267,40.097L170.885,40.097L170.885,28.301L183.255,28.301L183.255,40.097L193.331,40.097L193.331,49.354L183.255,49.354L183.255,64.673C183.255,69.479 185.494,71.882 189.972,71.882ZM218.726,80.975C214.467,80.975 210.726,80.115 207.503,78.395C204.281,76.675 201.796,74.244 200.049,71.104C198.301,67.964 197.427,64.264 197.427,60.004C197.427,55.744 198.301,52.044 200.049,48.904C201.796,45.763 204.281,43.347 207.503,41.654C210.726,39.961 214.467,39.114 218.726,39.114C222.986,39.114 226.727,39.961 229.949,41.654C233.172,43.347 235.657,45.763 237.404,48.904C239.152,52.044 240.026,55.744 240.026,60.004C240.026,64.264 239.152,67.964 237.404,71.104C235.657,74.244 233.172,76.675 229.949,78.395C226.727,80.115 222.986,80.975 218.726,80.975ZM218.726,71.555C224.734,71.555 227.738,67.704 227.738,60.004C227.738,56.126 226.959,53.232 225.403,51.32C223.846,49.409 221.621,48.453 218.726,48.453C212.719,48.453 209.715,52.303 209.715,60.004C209.715,67.704 212.719,71.555 218.726,71.555ZM274.268,49.272L267.305,50.01C263.864,50.337 261.434,51.307 260.014,52.918C258.594,54.529 257.884,56.672 257.884,59.348L257.884,80.32L245.514,80.32L245.514,40.097L257.393,40.097L257.393,46.897C259.413,42.254 263.591,39.715 269.926,39.278L273.531,39.032L274.268,49.272ZM310.211,40.179L322.335,40.179L298.086,95.066L285.553,95.066L293.253,78.108L276.705,40.179L289.567,40.179L299.725,65.738L310.211,40.179ZM351.007,39.114C354.502,39.114 357.588,39.961 360.264,41.654C362.94,43.347 365.029,45.763 366.531,48.904C368.032,52.044 368.783,55.689 368.783,59.84C368.783,63.991 368.032,67.663 366.531,70.858C365.029,74.053 362.926,76.538 360.223,78.313C357.519,80.088 354.447,80.975 351.007,80.975C348.221,80.975 345.709,80.388 343.47,79.214C341.231,78.04 339.511,76.415 338.309,74.34L338.309,80.32L326.103,80.32L326.103,22.566L338.473,22.566L338.473,45.504C339.674,43.483 341.381,41.913 343.593,40.794C345.805,39.674 348.276,39.114 351.007,39.114ZM347.402,71.555C350.297,71.555 352.536,70.531 354.12,68.483C355.703,66.435 356.495,63.554 356.495,59.84C356.495,56.181 355.703,53.382 354.12,51.443C352.536,49.504 350.297,48.535 347.402,48.535C344.508,48.535 342.269,49.532 340.685,51.525C339.101,53.519 338.309,56.345 338.309,60.004C338.309,63.718 339.101,66.571 340.685,68.564C342.269,70.558 344.508,71.555 347.402,71.555ZM395.653,80.975C391.393,80.975 387.652,80.115 384.43,78.395C381.208,76.675 378.723,74.244 376.975,71.104C375.228,67.964 374.354,64.264 374.354,60.004C374.354,55.744 375.228,52.044 376.975,48.904C378.723,45.763 381.208,43.347 384.43,41.654C387.652,39.961 391.393,39.114 395.653,39.114C399.913,39.114 403.654,39.961 406.876,41.654C410.098,43.347 412.583,45.763 414.331,48.904C416.079,52.044 416.952,55.744 416.952,60.004C416.952,64.264 416.079,67.964 414.331,71.104C412.583,74.244 410.098,76.675 406.876,78.395C403.654,80.115 399.913,80.975 395.653,80.975ZM395.653,71.555C401.661,71.555 404.664,67.704 404.664,60.004C404.664,56.126 403.886,53.232 402.33,51.32C400.773,49.409 398.548,48.453 395.653,48.453C389.646,48.453 386.642,52.303 386.642,60.004C386.642,67.704 389.646,71.555 395.653,71.555ZM441.774,80.975C437.514,80.975 433.773,80.115 430.551,78.395C427.329,76.675 424.844,74.244 423.096,71.104C421.349,67.964 420.475,64.264 420.475,60.004C420.475,55.744 421.349,52.044 423.096,48.904C424.844,45.763 427.329,43.347 430.551,41.654C433.773,39.961 437.514,39.114 441.774,39.114C446.034,39.114 449.775,39.961 452.997,41.654C456.219,43.347 458.704,45.763 460.452,48.904C462.199,52.044 463.073,55.744 463.073,60.004C463.073,64.264 462.199,67.964 460.452,71.104C458.704,74.244 456.219,76.675 452.997,78.395C449.775,80.115 446.034,80.975 441.774,80.975ZM441.774,71.555C447.782,71.555 450.785,67.704 450.785,60.004C450.785,56.126 450.007,53.232 448.451,51.32C446.894,49.409 444.669,48.453 441.774,48.453C435.767,48.453 432.763,52.303 432.763,60.004C432.763,67.704 435.767,71.555 441.774,71.555ZM512,80.32L496.845,80.32L481.444,62.38L481.444,80.32L469.074,80.32L469.074,22.566L481.444,22.566L481.444,57.3L496.271,40.179L511.017,40.179L494.141,59.348L512,80.32Z" style="fill-rule:nonzero;"/>
                    <g>
                        <path id="path-1" d="M3.176,94.358L0.004,9.835C-0.101,7.043 2.039,4.678 4.827,4.504L76.72,0.01C79.558,-0.167 82.002,1.99 82.18,4.827C82.186,4.934 82.19,5.041 82.19,5.149L82.19,97.252C82.19,100.095 79.885,102.4 77.041,102.4C76.964,102.4 76.887,102.398 76.81,102.395L8.09,99.308C5.413,99.188 3.276,97.035 3.176,94.358Z" style="fill:rgb(255,71,133);fill-rule:nonzero;"/>
                        <path d="M60.691,12.587L61.182,0.776L71.055,0L71.48,12.18C71.495,12.604 71.164,12.96 70.74,12.974C70.558,12.981 70.38,12.923 70.238,12.81L66.43,9.811L61.922,13.23C61.585,13.487 61.103,13.421 60.846,13.083C60.739,12.94 60.684,12.765 60.691,12.587ZM48.064,38.596C48.064,40.599 61.556,39.639 63.368,38.232C63.368,24.592 56.049,17.424 42.646,17.424C29.244,17.424 21.735,24.703 21.735,35.622C21.735,54.639 47.399,55.003 47.399,65.376C47.399,68.288 45.973,70.016 42.836,70.016C38.749,70.016 37.133,67.929 37.323,60.832C37.323,59.292 21.735,58.812 21.26,60.832C20.049,78.031 30.765,82.992 43.027,82.992C54.908,82.992 64.223,76.659 64.223,65.194C64.223,44.812 38.179,45.358 38.179,35.258C38.179,31.164 41.221,30.618 43.027,30.618C44.928,30.618 48.349,30.953 48.064,38.596Z" style="fill:white;fill-rule:nonzero;"/>
                    </g>
                </g>
            </g>
        </g>
    </g>
</svg>
