<svg width="285" height="84" viewBox="0 0 285 84" fill="none" xmlns="http://www.w3.org/2000/svg">
<g clip-path="url(#clip0_5273_22171)">
<path d="M81.7705 28.7985C84.2257 21.3329 82.7488 6.43936 77.9912 0.94089C77.3677 0.219628 76.2075 0.322665 75.6894 1.11886L69.8294 10.1019C68.3809 11.9003 65.7722 12.3125 63.8056 11.0573C57.4466 6.99202 49.8506 4.6315 41.6884 4.6315C33.5262 4.6315 25.93 6.99202 19.571 11.0573C17.6143 12.3125 15.0055 11.891 13.5476 10.1019L7.68738 1.11886C7.16947 0.322665 6.00889 0.228995 5.38548 0.94089C0.628213 6.44869 -0.84884 21.3423 1.60652 28.7985C2.42178 31.2807 2.64238 33.9035 2.16282 36.4513C1.68325 38.9804 1.20369 42.0341 1.20369 44.1604C1.20369 65.9951 19.3312 83.6891 41.6788 83.6891C64.036 83.6891 82.1537 65.9858 82.1537 44.1604C82.1537 42.0341 81.6744 38.9804 81.195 36.4513C80.7249 33.9035 80.9548 31.2807 81.7705 28.7985ZM41.6788 74.8658C24.3954 74.8658 10.3442 61.1335 10.3442 44.2541C10.3442 43.7014 10.3633 43.1581 10.3921 42.6148C11.0156 31.1121 18.1706 21.2861 28.2894 16.6026C32.3465 14.7104 36.8928 13.6613 41.6884 13.6613C46.484 13.6613 51.0207 14.7104 55.0875 16.6119C65.2061 21.2955 72.3611 31.1308 72.9846 42.6242C73.0135 43.1675 73.0326 43.7201 73.0326 44.2634C73.0228 61.1335 58.9623 74.8658 41.6788 74.8658Z" fill="#1EB4D4"/>
<path d="M55.2596 56.0378L47.251 42.4741L40.3837 31.1681C40.2206 30.8965 39.9233 30.7372 39.6068 30.7372H33.0463C32.7202 30.7372 32.4229 30.9058 32.2599 31.1869C32.0968 31.4585 32.1064 31.7957 32.2695 32.0673L38.8395 42.8488L30.0251 55.9816C29.8429 56.2533 29.8333 56.5996 29.9867 56.8806C30.1402 57.1615 30.4471 57.3398 30.7828 57.3398H37.3912C37.6981 57.3398 37.9859 57.1898 38.1489 56.9367L42.9158 49.668L47.1934 56.9089C47.3565 57.1806 47.6538 57.3491 47.9704 57.3491H54.4828C54.8087 57.3491 55.1062 57.1806 55.2596 56.9089C55.4229 56.6466 55.4229 56.3095 55.2596 56.0378Z" fill="#1EB4D4"/>
<path d="M119.484 21.5306H127.838V66.2673H119.484V47.2056H110.046V66.2771H101.692V21.5306H110.046V40.9578H119.484V21.5306Z" fill="#1B2738"/>
<path d="M153.61 66.276L151.864 56.9842H141.842L140.24 66.276H131.886L141.103 21.5391H152.353L162.012 66.276H153.61ZM142.935 50.8111H150.704L146.714 29.398L142.935 50.8111Z" fill="#1B2738"/>
<path d="M180.619 58.1171V48.5443C180.619 47.7855 180.476 47.2797 180.188 47.0174C179.9 46.7551 179.363 46.624 178.586 46.624H172.707C167.719 46.624 165.226 44.2635 165.226 39.5331V28.555C165.226 23.8715 167.834 21.5391 173.061 21.5391H181.051C186.278 21.5391 188.887 23.8808 188.887 28.555V34.7934H180.466V29.6884C180.466 28.9297 180.322 28.4239 180.035 28.1616C179.747 27.8993 179.21 27.7682 178.433 27.7682H175.671C174.846 27.7682 174.289 27.8993 174.002 28.1616C173.714 28.4239 173.57 28.9297 173.57 29.6884V38.6901C173.57 39.4489 173.714 39.9547 174.002 40.2169C174.289 40.4792 174.846 40.6104 175.671 40.6104H181.406C186.489 40.6104 189.031 42.924 189.031 47.5607V59.2604C189.031 63.9437 186.394 66.276 181.118 66.276H173.273C167.998 66.276 165.36 63.9344 165.36 59.2604V53.0873H173.704V58.1171C173.704 58.8758 173.848 59.382 174.136 59.6444C174.424 59.9062 174.98 60.0377 175.805 60.0377H178.567C179.344 60.0377 179.871 59.9062 180.169 59.6444C180.466 59.382 180.619 58.8758 180.619 58.1171Z" fill="#1B2738"/>
<path d="M211.32 21.5306H219.664V59.2517C219.664 63.9349 217.027 66.2673 211.752 66.2673H202.899C197.624 66.2673 194.986 63.9257 194.986 59.2517V21.5306H203.34V58.1182C203.34 58.8769 203.484 59.3826 203.772 59.6449C204.059 59.9073 204.597 60.0382 205.374 60.0382H209.219C210.044 60.0382 210.601 59.9073 210.888 59.6449C211.176 59.3826 211.32 58.8769 211.32 58.1182V21.5306Z" fill="#1B2738"/>
<path d="M234.914 48.8355V66.2771H226.569V21.5306H243.412C248.687 21.5306 251.324 23.8723 251.324 28.5465V41.8102C251.324 45.6882 249.56 47.955 246.021 48.62L253.646 66.2771H244.64L237.667 48.8355H234.914ZM234.914 27.769V42.8031H240.937C241.714 42.8031 242.242 42.672 242.539 42.4097C242.827 42.1474 242.97 41.6416 242.97 40.8829V29.6893C242.97 28.9305 242.827 28.4247 242.539 28.1624C242.251 27.9001 241.714 27.769 240.937 27.769H234.914Z" fill="#1B2738"/>
<path d="M276.589 66.276L274.843 56.9842H264.82L263.218 66.276H254.874L264.091 21.5391H275.342L285 66.276H276.589ZM265.923 50.8111H273.692L269.702 29.398L265.923 50.8111Z" fill="#1B2738"/>
</g>
<defs>
<clipPath id="clip0_5273_22171">
<rect width="285" height="84" fill="white"/>
</clipPath>
</defs>
</svg>
