<svg width="81" height="84" viewBox="0 0 81 84" fill="none" xmlns="http://www.w3.org/2000/svg">
<g clip-path="url(#clip0_5273_22558)">
<path d="M79.7186 28.6019C82.1218 21.0731 80.6778 6.03602 76.0158 0.487869C75.4073 -0.238057 74.2624 -0.134353 73.757 0.664165L68.0121 9.72787C66.5887 11.5427 64.0308 11.9575 62.1124 10.6923C55.8827 6.59602 48.4359 4.21083 40.4322 4.21083C32.4285 4.21083 24.9817 6.59602 18.752 10.6923C16.8336 11.9575 14.2757 11.5323 12.8523 9.72787L7.10738 0.664165C6.60199 -0.134353 5.45712 -0.238057 4.84859 0.487869C0.186621 6.03602 -1.25735 21.0731 1.14583 28.6019C1.94002 31.1012 2.16693 33.7456 1.69248 36.3279C1.22834 38.879 0.753897 41.9693 0.753897 44.1056C0.753897 66.1323 18.5251 84.0005 40.4322 84.0005C62.3497 84.0005 80.1105 66.1427 80.1105 44.1056C80.1105 41.959 79.6464 38.879 79.1719 36.3279C78.6975 33.7456 78.9244 31.1012 79.7186 28.6019ZM40.4322 75.0819C23.4965 75.0819 9.71684 61.2271 9.71684 44.199C9.71684 43.639 9.73747 43.0893 9.7581 42.5397C10.3769 30.9353 17.3802 21.0108 27.3024 16.2819C31.2836 14.3738 35.7393 13.316 40.4322 13.316C45.1251 13.316 49.5808 14.3842 53.5724 16.2923C63.4945 21.0212 70.4978 30.9456 71.1166 42.5397C71.1476 43.0893 71.1579 43.639 71.1579 44.199C71.1476 61.2271 57.3679 75.0819 40.4322 75.0819Z" fill="white"/>
<path d="M53.7366 56.083L45.8876 42.4045L39.1525 30.997C38.9978 30.7274 38.709 30.5615 38.3893 30.5615H31.9533C31.6335 30.5615 31.3448 30.7378 31.19 31.0074C31.0353 31.2874 31.0353 31.6296 31.2004 31.8993L37.6363 42.7882L28.9931 56.0415C28.8178 56.3111 28.7972 56.6637 28.9519 56.9541C29.1066 57.2445 29.4057 57.4208 29.7254 57.4208H36.2027C36.5018 57.4208 36.7803 57.2652 36.9453 57.0163L41.6176 49.6741L45.8051 56.9748C45.9598 57.2548 46.2589 57.4208 46.5684 57.4208H52.9528C53.2725 57.4208 53.5613 57.2548 53.716 56.9748C53.9017 56.6948 53.9017 56.363 53.7366 56.083Z" fill="white"/>
</g>
<defs>
<clipPath id="clip0_5273_22558">
<rect width="81" height="84" fill="white"/>
</clipPath>
</defs>
</svg>
