<?xml version="1.0" standalone="no"?>
<!DOCTYPE svg PUBLIC "-//W3C//DTD SVG 20010904//EN"
 "http://www.w3.org/TR/2001/REC-SVG-20010904/DTD/svg10.dtd">
<svg version="1.0" xmlns="http://www.w3.org/2000/svg"
 width="252.000000pt" height="252.000000pt" viewBox="0 0 252.000000 252.000000"
 preserveAspectRatio="xMidYMid meet">
<metadata>
Created by potrace 1.14, written by Peter Selinger 2001-2017
</metadata>
<g transform="translate(0.000000,252.000000) scale(0.100000,-0.100000)"
fill="#000000" stroke="none">
<path d="M198 2507 c-36 -28 -108 -204 -123 -304 -3 -21 -9 -63 -14 -93 -10
-60 -8 -327 3 -375 4 -16 11 -44 17 -61 25 -80 32 -167 18 -254 -6 -36 -13
-83 -17 -105 -13 -82 -7 -248 13 -345 3 -14 8 -41 11 -60 4 -19 11 -41 17 -47
5 -7 7 -13 4 -13 -10 0 42 -131 85 -213 170 -326 498 -562 863 -621 114 -19
333 -14 430 8 237 56 420 155 584 316 200 195 303 399 356 705 10 61 5 242
-10 325 -20 114 -19 189 5 285 28 111 34 172 33 305 -3 308 -126 634 -205 543
-8 -10 -55 -80 -103 -156 -58 -92 -97 -143 -116 -153 -50 -25 -93 -21 -156 18
-190 116 -403 179 -612 179 -164 1 -263 -14 -402 -62 -65 -22 -240 -105 -249
-118 -13 -18 -74 -33 -111 -28 -49 6 -75 30 -125 110 -93 152 -147 227 -162
227 -10 0 -24 -6 -34 -13z m1296 -416 c646 -177 903 -948 489 -1471 -130 -165
-302 -275 -516 -329 -104 -27 -330 -23 -442 8 -251 69 -466 245 -584 478 -73
146 -97 254 -95 438 3 341 199 653 509 808 75 38 183 73 262 87 87 14 290 4
377 -19z"/>
<path d="M1008 1602 c-9 -2 -19 -9 -22 -17 -3 -8 39 -89 94 -181 l98 -167 -22
-36 c-43 -68 -198 -306 -221 -340 -26 -38 -23 -61 9 -62 85 -4 211 1 213 8 2
4 23 39 48 76 25 38 55 86 68 108 l24 40 37 -61 c20 -34 36 -64 36 -66 0 -3
15 -28 33 -57 l34 -52 107 1 c130 2 137 7 96 79 -15 27 -37 66 -48 85 -217
385 -372 640 -390 641 -44 3 -180 4 -194 1z"/>
</g>
</svg>
