<svg xmlns="http://www.w3.org/2000/svg" width="49.709" height="40" viewBox="0 0 49.709 40">
    <defs>
        <style>
            .cls-1{fill:#ea4335}.cls-2{fill:#4285f4}.cls-3{fill:#34a853}.cls-4{fill:#fbbc05}
        </style>
    </defs>
    <g id="google_cloud" transform="translate(-169.005 -202.007)">
        <path id="Path_54" d="M198.571 213.023h.164l-.089-.075 5.975-5.976.015-.1a19.434 19.434 0 0 0-31.606 9.477 2.567 2.567 0 0 1 .313-.1 14.164 14.164 0 0 1 7.644-2.325 15.258 15.258 0 0 1 2.742.253.131.131 0 0 1 .119-.03 10.77 10.77 0 0 1 14.752-1.118h-.03z" class="cls-1" data-name="Path 54" transform="translate(1.973)"/>
        <path id="Path_55" d="M204.415 214.732a19.59 19.59 0 0 0-5.871-9.462l-6.065 6.065a10.782 10.782 0 0 1 3.964 8.554v1.073c7.2 0 7.2 10.8 0 10.8h-10.8l-.015.015v8.568h-.045l.06.06h10.8a14.044 14.044 0 0 0 7.972-25.675z" class="cls-2" data-name="Path 55" transform="translate(8.124 1.599)"/>
        <path id="Path_56" d="M181.159 231.815h10.789v-8.643h-10.789a5.239 5.239 0 0 1-2.22-.492l-6.244 6.244-.015.06a13.955 13.955 0 0 0 8.479 2.831z" class="cls-3" data-name="Path 56" transform="translate(1.801 10.133)"/>
        <path id="Path_57" d="M182.96 210a14.036 14.036 0 0 0-8.464 25.169l6.259-6.259a5.4 5.4 0 1 1 7.138-7.138l6.259-6.259A13.952 13.952 0 0 0 182.96 210z" class="cls-4" data-name="Path 57" transform="translate(0 3.918)"/>
    </g>
</svg>
