<svg viewBox="0 0 95 95" xmlns="http://www.w3.org/2000/svg"><title>algolia-new-logo</title><defs><linearGradient x1="-37.901%" y1="134.768%" x2="130.114%" y2="-27.802%" id="a"><stop stop-color="#00AEFF" offset="0%"/><stop stop-color="#3369E7" offset="100%"/></linearGradient></defs><g fill="none" fill-rule="evenodd"><rect fill="url(#a)" width="94.045" height="94.072" rx="12.374"/><path d="M48.125 23.775c-14.671 0-26.58 11.898-26.58 26.588 0 14.69 11.895 26.588 26.58 26.588 14.685 0 26.58-11.912 26.58-26.602S62.81 23.775 48.125 23.775zm0 45.307c-10.343 0-18.727-8.386-18.727-18.733 0-10.346 8.384-18.732 18.727-18.732 10.344 0 18.727 8.386 18.727 18.732 0 10.347-8.383 18.733-18.727 18.733zm0-33.6v13.955c0 .408.436.68.803.49L61.3 43.501a.548.548 0 0 0 .217-.762c-2.572-4.506-7.335-7.596-12.834-7.8a.549.549 0 0 0-.558.544zM30.76 25.246l-1.62-1.62a4.082 4.082 0 0 0-5.77 0l-1.933 1.933a4.085 4.085 0 0 0 0 5.773l1.606 1.606c.245.245.64.204.844-.068a30.572 30.572 0 0 1 3.116-3.662 29.723 29.723 0 0 1 3.689-3.131c.272-.19.3-.6.068-.83zm26.063-4.234v-3.226a4.078 4.078 0 0 0-4.083-4.084h-9.5a4.078 4.078 0 0 0-4.083 4.084v3.308c0 .368.354.626.708.531a29.562 29.562 0 0 1 8.275-1.157c2.722 0 5.403.367 7.989 1.075a.55.55 0 0 0 .694-.53z" fill="#FFF"/></g></svg>