<?xml version="1.0" encoding="utf-8"?>
<!-- Generator: Adobe Illustrator 19.0.0, SVG Export Plug-In . SVG Version: 6.00 Build 0)  -->
<svg version="1.1" xmlns="http://www.w3.org/2000/svg" xmlns:xlink="http://www.w3.org/1999/xlink" x="0px" y="0px"
	 viewBox="-285 377 40 40" style="enable-background:new -285 377 40 40;" xml:space="preserve">
<style type="text/css">
	.st0{display:none;}
	.st1{display:inline;}
	.st2{fill:none;stroke:#FF7452;stroke-linecap:round;stroke-linejoin:round;}
	.st3{fill:#6699D5;}
</style>
<g id="Layer_1" class="st0">
	<title>Artboard 3</title>
	<g id="_Group_" class="st1">
		<path id="_Path_" class="st2" d="M-254.4,410.9h-19.3"/>
		<path id="_Path_2" class="st2" d="M-277.8,406.8v-25.2h22.7v23.1"/>
		<path id="_Path_3" class="st2" d="M-277.8,406.8c0,2.3,1.8,4.1,4.1,4.1c2.3,0,4.1-1.8,4.1-4.1c0-0.7-0.2-1.4-0.6-2.1l19.5,0.1
			c1.1,2,0.4,4.5-1.6,5.6c-0.6,0.3-1.3,0.5-2,0.5"/>
		<path id="_Path_4" class="st2" d="M-273.7,387.4h15.5"/>
		<path id="_Path_5" class="st2" d="M-273.7,392.2h15.5"/>
		<path id="_Path_6" class="st2" d="M-273.7,397.1h15.5"/>
	</g>
</g>
<g id="Layer_2">
	<g>
		<path class="st3" d="M-252.1,389.2l-7.7-7.5c-0.1-0.1-0.3-0.2-0.5-0.2h-14.7c-1.7,0-3.1,1.4-3.1,3.1v24.9c0,1.7,1.4,3.1,3.1,3.1
			h19.8c1.7,0,3.1-1.4,3.1-3.1v-19.8C-251.9,389.4-252,389.3-252.1,389.2z M-259.6,383.6l5.5,5.3h-3.6c-0.5,0-1-0.2-1.3-0.5
			c-0.3-0.3-0.5-0.8-0.5-1.3V383.6z M-253.2,409.5c0,1-0.8,1.8-1.8,1.8h-19.8c-1,0-1.8-0.8-1.8-1.8v-24.9c0-1,0.8-1.8,1.8-1.8h14
			v4.4c0,0.8,0.3,1.6,0.9,2.2c0.6,0.6,1.4,0.9,2.2,0.9h4.5L-253.2,409.5L-253.2,409.5z"/>
		<path class="st3" d="M-263.8,402.8h-0.3c-0.4,0-0.6,0.3-0.6,0.6s0.3,0.6,0.6,0.6h0.3c0.4,0,0.6-0.3,0.6-0.6
			S-263.5,402.8-263.8,402.8z M-266.2,402.8h-6.3c-0.4,0-0.6,0.3-0.6,0.6s0.3,0.6,0.6,0.6h6.3c0.4,0,0.6-0.3,0.6-0.6
			S-265.8,402.8-266.2,402.8z M-257.5,399.9h-15c-0.4,0-0.6,0.3-0.6,0.6s0.3,0.6,0.6,0.6h15c0.4,0,0.6-0.3,0.6-0.6
			S-257.2,399.9-257.5,399.9z M-257.5,397h-15c-0.4,0-0.6,0.3-0.6,0.6s0.3,0.6,0.6,0.6h15c0.4,0,0.6-0.3,0.6-0.6
			S-257.2,397-257.5,397z M-257.5,394.1h-15c-0.4,0-0.6,0.3-0.6,0.6c0,0.4,0.3,0.6,0.6,0.6h15c0.4,0,0.6-0.3,0.6-0.6
			C-256.9,394.4-257.2,394.1-257.5,394.1z"/>
	</g>
</g>
</svg>
