<svg id="Layer_1" data-name="Layer 1" xmlns="http://www.w3.org/2000/svg" viewBox="0 0 40 40"><defs><style>.cls-1{fill:none;stroke:#2684ff;stroke-miterlimit:10;}</style></defs><title>Artboard 1</title><path id="_Path_" data-name="&lt;Path&gt;" class="cls-1" d="M23.1,30.23H16.92a2.05,2.05,0,0,1-2.05-2.05V12.84a8.33,8.33,0,0,1,2-5.43l1.94-2.26a1.49,1.49,0,0,1,2.26,0L23,7.41a8.33,8.33,0,0,1,2,5.43l.11,15.32A2.05,2.05,0,0,1,23.1,30.23Z"/><path id="_Path_2" data-name="&lt;Path&gt;" class="cls-1" d="M14.93,19.35l-3.5,6a2.14,2.14,0,0,0-.28,1.07v2.47a1.65,1.65,0,0,0,1.61,1.82l4.61-.52"/><path id="_Path_3" data-name="&lt;Path&gt;" class="cls-1" d="M25.08,19.11,29,25.39a2.14,2.14,0,0,1,.28,1.07v2.47a1.65,1.65,0,0,1-1.61,1.82L23,30.23"/><path id="_Path_4" data-name="&lt;Path&gt;" class="cls-1" d="M17.61,30.23l-1.31,3.32a1.33,1.33,0,0,0,1.24,1.82h5.26A1.33,1.33,0,0,0,24,33.54l-1.32-3.31"/><circle id="_Path_5" data-name="&lt;Path&gt;" class="cls-1" cx="20.01" cy="16.64" r="1.98"/></svg>