<svg id="Layer_1" data-name="Layer 1" xmlns="http://www.w3.org/2000/svg" viewBox="0 0 40 40"><defs><style>.cls-1,.cls-2{fill:none;stroke:#36b37e;stroke-miterlimit:10;}.cls-1{stroke-linecap:round;}</style></defs><title>Artboard 2</title><g id="_Group_" data-name="&lt;Group&gt;"><polyline id="_Path_" data-name="&lt;Path&gt;" class="cls-1" points="20 24.07 20 27.34 20 36.58"/><line id="_Path_2" data-name="&lt;Path&gt;" class="cls-1" x1="20" y1="13.82" x2="20" y2="15.45"/><line id="_Path_3" data-name="&lt;Path&gt;" class="cls-1" x1="20" y1="3.42" x2="20" y2="4.76"/><path id="_Path_4" data-name="&lt;Path&gt;" class="cls-2" d="M30.28,13.82H6.57a1,1,0,0,1-1.1-1V6.17a1,1,0,0,1,1.1-1h23.7a1.18,1.18,0,0,1,.85.35l3.15,3.35a.87.87,0,0,1,0,1.22l-3.15,3.35A1.18,1.18,0,0,1,30.28,13.82Z"/><path id="_Path_5" data-name="&lt;Path&gt;" class="cls-2" d="M9.72,24.06h23.7a1,1,0,0,0,1.1-1V16.41a1,1,0,0,0-1.1-1H9.72a1.18,1.18,0,0,0-.85.35L5.72,19.15a.87.87,0,0,0,0,1.22l3.15,3.35A1.18,1.18,0,0,0,9.72,24.06Z"/></g></svg>